%FSLAX45Y45*%
G04 Gerber Fmt 4.5, Leading zero omitted, Abs format (unit mm)*
G04 Created by KiCad (PCBNEW (6.0.0)) date 2022-06-27 07:24:55*
%MOMM*%
%LPD*%
G01*
G04 APERTURE LIST*
%TA.AperFunction,Profile*%
%ADD10C,0.100000*%
%TD*%
%ADD11C,0.200000*%
%ADD12C,0.080000*%
%ADD13C,0.100000*%
%ADD14C,0.110000*%
%ADD15C,0.130000*%
%ADD16C,0.140000*%
%ADD17C,0.210000*%
G04 APERTURE END LIST*
D10*
X5715000Y-2984500D02*
X17208500Y-2984500D01*
X17208500Y-2984500D02*
X17208500Y-15748000D01*
X17208500Y-15748000D02*
X5715000Y-15748000D01*
X5715000Y-15748000D02*
X5715000Y-2984500D01*
D11*
D12*
X13625200Y-13904600D02*
X13705200Y-13984600D01*
X13705200Y-13904600D02*
X13625200Y-13984600D01*
X13853800Y-3236600D02*
X13933800Y-3316600D01*
X13933800Y-3236600D02*
X13853800Y-3316600D01*
X14387200Y-13904600D02*
X14467200Y-13984600D01*
X14467200Y-13904600D02*
X14387200Y-13984600D01*
X14615800Y-3236600D02*
X14695800Y-3316600D01*
X14695800Y-3236600D02*
X14615800Y-3316600D01*
D13*
X14909000Y-3873500D02*
G75*
G03*
X14909000Y-3873500I-50000J0D01*
G01*
X14909000Y-4127500D02*
G75*
G03*
X14909000Y-4127500I-50000J0D01*
G01*
X14909000Y-5397500D02*
G75*
G03*
X14909000Y-5397500I-50000J0D01*
G01*
X14909000Y-5651500D02*
G75*
G03*
X14909000Y-5651500I-50000J0D01*
G01*
X14909000Y-6921500D02*
G75*
G03*
X14909000Y-6921500I-50000J0D01*
G01*
X14909000Y-7175500D02*
G75*
G03*
X14909000Y-7175500I-50000J0D01*
G01*
X14909000Y-8445500D02*
G75*
G03*
X14909000Y-8445500I-50000J0D01*
G01*
X14909000Y-8699500D02*
G75*
G03*
X14909000Y-8699500I-50000J0D01*
G01*
X14909000Y-9969500D02*
G75*
G03*
X14909000Y-9969500I-50000J0D01*
G01*
X14909000Y-10223500D02*
G75*
G03*
X14909000Y-10223500I-50000J0D01*
G01*
X14909000Y-11493500D02*
G75*
G03*
X14909000Y-11493500I-50000J0D01*
G01*
X14909000Y-11747500D02*
G75*
G03*
X14909000Y-11747500I-50000J0D01*
G01*
X14909000Y-13017500D02*
G75*
G03*
X14909000Y-13017500I-50000J0D01*
G01*
X14909000Y-13271500D02*
G75*
G03*
X14909000Y-13271500I-50000J0D01*
G01*
X14909000Y-14541500D02*
G75*
G03*
X14909000Y-14541500I-50000J0D01*
G01*
X14909000Y-14795500D02*
G75*
G03*
X14909000Y-14795500I-50000J0D01*
G01*
X15163000Y-3873500D02*
G75*
G03*
X15163000Y-3873500I-50000J0D01*
G01*
X15163000Y-4127500D02*
G75*
G03*
X15163000Y-4127500I-50000J0D01*
G01*
X15163000Y-5397500D02*
G75*
G03*
X15163000Y-5397500I-50000J0D01*
G01*
X15163000Y-5651500D02*
G75*
G03*
X15163000Y-5651500I-50000J0D01*
G01*
X15163000Y-6921500D02*
G75*
G03*
X15163000Y-6921500I-50000J0D01*
G01*
X15163000Y-7175500D02*
G75*
G03*
X15163000Y-7175500I-50000J0D01*
G01*
X15163000Y-8445500D02*
G75*
G03*
X15163000Y-8445500I-50000J0D01*
G01*
X15163000Y-8699500D02*
G75*
G03*
X15163000Y-8699500I-50000J0D01*
G01*
X15163000Y-9969500D02*
G75*
G03*
X15163000Y-9969500I-50000J0D01*
G01*
X15163000Y-10223500D02*
G75*
G03*
X15163000Y-10223500I-50000J0D01*
G01*
X15163000Y-11493500D02*
G75*
G03*
X15163000Y-11493500I-50000J0D01*
G01*
X15163000Y-11747500D02*
G75*
G03*
X15163000Y-11747500I-50000J0D01*
G01*
X15163000Y-13017500D02*
G75*
G03*
X15163000Y-13017500I-50000J0D01*
G01*
X15163000Y-13271500D02*
G75*
G03*
X15163000Y-13271500I-50000J0D01*
G01*
X15163000Y-14541500D02*
G75*
G03*
X15163000Y-14541500I-50000J0D01*
G01*
X15163000Y-14795500D02*
G75*
G03*
X15163000Y-14795500I-50000J0D01*
G01*
X15417000Y-3873500D02*
G75*
G03*
X15417000Y-3873500I-50000J0D01*
G01*
X15417000Y-4127500D02*
G75*
G03*
X15417000Y-4127500I-50000J0D01*
G01*
X15417000Y-5397500D02*
G75*
G03*
X15417000Y-5397500I-50000J0D01*
G01*
X15417000Y-5651500D02*
G75*
G03*
X15417000Y-5651500I-50000J0D01*
G01*
X15417000Y-6921500D02*
G75*
G03*
X15417000Y-6921500I-50000J0D01*
G01*
X15417000Y-7175500D02*
G75*
G03*
X15417000Y-7175500I-50000J0D01*
G01*
X15417000Y-8445500D02*
G75*
G03*
X15417000Y-8445500I-50000J0D01*
G01*
X15417000Y-8699500D02*
G75*
G03*
X15417000Y-8699500I-50000J0D01*
G01*
X15417000Y-9969500D02*
G75*
G03*
X15417000Y-9969500I-50000J0D01*
G01*
X15417000Y-10223500D02*
G75*
G03*
X15417000Y-10223500I-50000J0D01*
G01*
X15417000Y-11493500D02*
G75*
G03*
X15417000Y-11493500I-50000J0D01*
G01*
X15417000Y-11747500D02*
G75*
G03*
X15417000Y-11747500I-50000J0D01*
G01*
X15417000Y-13017500D02*
G75*
G03*
X15417000Y-13017500I-50000J0D01*
G01*
X15417000Y-13271500D02*
G75*
G03*
X15417000Y-13271500I-50000J0D01*
G01*
X15417000Y-14541500D02*
G75*
G03*
X15417000Y-14541500I-50000J0D01*
G01*
X15417000Y-14795500D02*
G75*
G03*
X15417000Y-14795500I-50000J0D01*
G01*
X15671000Y-3873500D02*
G75*
G03*
X15671000Y-3873500I-50000J0D01*
G01*
X15671000Y-4127500D02*
G75*
G03*
X15671000Y-4127500I-50000J0D01*
G01*
X15671000Y-5397500D02*
G75*
G03*
X15671000Y-5397500I-50000J0D01*
G01*
X15671000Y-5651500D02*
G75*
G03*
X15671000Y-5651500I-50000J0D01*
G01*
X15671000Y-6921500D02*
G75*
G03*
X15671000Y-6921500I-50000J0D01*
G01*
X15671000Y-7175500D02*
G75*
G03*
X15671000Y-7175500I-50000J0D01*
G01*
X15671000Y-8445500D02*
G75*
G03*
X15671000Y-8445500I-50000J0D01*
G01*
X15671000Y-8699500D02*
G75*
G03*
X15671000Y-8699500I-50000J0D01*
G01*
X15671000Y-9969500D02*
G75*
G03*
X15671000Y-9969500I-50000J0D01*
G01*
X15671000Y-10223500D02*
G75*
G03*
X15671000Y-10223500I-50000J0D01*
G01*
X15671000Y-11493500D02*
G75*
G03*
X15671000Y-11493500I-50000J0D01*
G01*
X15671000Y-11747500D02*
G75*
G03*
X15671000Y-11747500I-50000J0D01*
G01*
X15671000Y-13017500D02*
G75*
G03*
X15671000Y-13017500I-50000J0D01*
G01*
X15671000Y-13271500D02*
G75*
G03*
X15671000Y-13271500I-50000J0D01*
G01*
X15671000Y-14541500D02*
G75*
G03*
X15671000Y-14541500I-50000J0D01*
G01*
X15671000Y-14795500D02*
G75*
G03*
X15671000Y-14795500I-50000J0D01*
G01*
X15925000Y-3873500D02*
G75*
G03*
X15925000Y-3873500I-50000J0D01*
G01*
X15925000Y-4127500D02*
G75*
G03*
X15925000Y-4127500I-50000J0D01*
G01*
X15925000Y-5397500D02*
G75*
G03*
X15925000Y-5397500I-50000J0D01*
G01*
X15925000Y-5651500D02*
G75*
G03*
X15925000Y-5651500I-50000J0D01*
G01*
X15925000Y-6921500D02*
G75*
G03*
X15925000Y-6921500I-50000J0D01*
G01*
X15925000Y-7175500D02*
G75*
G03*
X15925000Y-7175500I-50000J0D01*
G01*
X15925000Y-8445500D02*
G75*
G03*
X15925000Y-8445500I-50000J0D01*
G01*
X15925000Y-8699500D02*
G75*
G03*
X15925000Y-8699500I-50000J0D01*
G01*
X15925000Y-9969500D02*
G75*
G03*
X15925000Y-9969500I-50000J0D01*
G01*
X15925000Y-10223500D02*
G75*
G03*
X15925000Y-10223500I-50000J0D01*
G01*
X15925000Y-11493500D02*
G75*
G03*
X15925000Y-11493500I-50000J0D01*
G01*
X15925000Y-11747500D02*
G75*
G03*
X15925000Y-11747500I-50000J0D01*
G01*
X15925000Y-13017500D02*
G75*
G03*
X15925000Y-13017500I-50000J0D01*
G01*
X15925000Y-13271500D02*
G75*
G03*
X15925000Y-13271500I-50000J0D01*
G01*
X15925000Y-14541500D02*
G75*
G03*
X15925000Y-14541500I-50000J0D01*
G01*
X15925000Y-14795500D02*
G75*
G03*
X15925000Y-14795500I-50000J0D01*
G01*
X16179000Y-3873500D02*
G75*
G03*
X16179000Y-3873500I-50000J0D01*
G01*
X16179000Y-4127500D02*
G75*
G03*
X16179000Y-4127500I-50000J0D01*
G01*
X16179000Y-5397500D02*
G75*
G03*
X16179000Y-5397500I-50000J0D01*
G01*
X16179000Y-5651500D02*
G75*
G03*
X16179000Y-5651500I-50000J0D01*
G01*
X16179000Y-6921500D02*
G75*
G03*
X16179000Y-6921500I-50000J0D01*
G01*
X16179000Y-7175500D02*
G75*
G03*
X16179000Y-7175500I-50000J0D01*
G01*
X16179000Y-8445500D02*
G75*
G03*
X16179000Y-8445500I-50000J0D01*
G01*
X16179000Y-8699500D02*
G75*
G03*
X16179000Y-8699500I-50000J0D01*
G01*
X16179000Y-9969500D02*
G75*
G03*
X16179000Y-9969500I-50000J0D01*
G01*
X16179000Y-10223500D02*
G75*
G03*
X16179000Y-10223500I-50000J0D01*
G01*
X16179000Y-11493500D02*
G75*
G03*
X16179000Y-11493500I-50000J0D01*
G01*
X16179000Y-11747500D02*
G75*
G03*
X16179000Y-11747500I-50000J0D01*
G01*
X16179000Y-13017500D02*
G75*
G03*
X16179000Y-13017500I-50000J0D01*
G01*
X16179000Y-13271500D02*
G75*
G03*
X16179000Y-13271500I-50000J0D01*
G01*
X16179000Y-14541500D02*
G75*
G03*
X16179000Y-14541500I-50000J0D01*
G01*
X16179000Y-14795500D02*
G75*
G03*
X16179000Y-14795500I-50000J0D01*
G01*
X16433000Y-3873500D02*
G75*
G03*
X16433000Y-3873500I-50000J0D01*
G01*
X16433000Y-4127500D02*
G75*
G03*
X16433000Y-4127500I-50000J0D01*
G01*
X16433000Y-5397500D02*
G75*
G03*
X16433000Y-5397500I-50000J0D01*
G01*
X16433000Y-5651500D02*
G75*
G03*
X16433000Y-5651500I-50000J0D01*
G01*
X16433000Y-6921500D02*
G75*
G03*
X16433000Y-6921500I-50000J0D01*
G01*
X16433000Y-7175500D02*
G75*
G03*
X16433000Y-7175500I-50000J0D01*
G01*
X16433000Y-8445500D02*
G75*
G03*
X16433000Y-8445500I-50000J0D01*
G01*
X16433000Y-8699500D02*
G75*
G03*
X16433000Y-8699500I-50000J0D01*
G01*
X16433000Y-9969500D02*
G75*
G03*
X16433000Y-9969500I-50000J0D01*
G01*
X16433000Y-10223500D02*
G75*
G03*
X16433000Y-10223500I-50000J0D01*
G01*
X16433000Y-11493500D02*
G75*
G03*
X16433000Y-11493500I-50000J0D01*
G01*
X16433000Y-11747500D02*
G75*
G03*
X16433000Y-11747500I-50000J0D01*
G01*
X16433000Y-13017500D02*
G75*
G03*
X16433000Y-13017500I-50000J0D01*
G01*
X16433000Y-13271500D02*
G75*
G03*
X16433000Y-13271500I-50000J0D01*
G01*
X16433000Y-14541500D02*
G75*
G03*
X16433000Y-14541500I-50000J0D01*
G01*
X16433000Y-14795500D02*
G75*
G03*
X16433000Y-14795500I-50000J0D01*
G01*
X16687000Y-3873500D02*
G75*
G03*
X16687000Y-3873500I-50000J0D01*
G01*
X16687000Y-4127500D02*
G75*
G03*
X16687000Y-4127500I-50000J0D01*
G01*
X16687000Y-5397500D02*
G75*
G03*
X16687000Y-5397500I-50000J0D01*
G01*
X16687000Y-5651500D02*
G75*
G03*
X16687000Y-5651500I-50000J0D01*
G01*
X16687000Y-6921500D02*
G75*
G03*
X16687000Y-6921500I-50000J0D01*
G01*
X16687000Y-7175500D02*
G75*
G03*
X16687000Y-7175500I-50000J0D01*
G01*
X16687000Y-8445500D02*
G75*
G03*
X16687000Y-8445500I-50000J0D01*
G01*
X16687000Y-8699500D02*
G75*
G03*
X16687000Y-8699500I-50000J0D01*
G01*
X16687000Y-9969500D02*
G75*
G03*
X16687000Y-9969500I-50000J0D01*
G01*
X16687000Y-10223500D02*
G75*
G03*
X16687000Y-10223500I-50000J0D01*
G01*
X16687000Y-11493500D02*
G75*
G03*
X16687000Y-11493500I-50000J0D01*
G01*
X16687000Y-11747500D02*
G75*
G03*
X16687000Y-11747500I-50000J0D01*
G01*
X16687000Y-13017500D02*
G75*
G03*
X16687000Y-13017500I-50000J0D01*
G01*
X16687000Y-13271500D02*
G75*
G03*
X16687000Y-13271500I-50000J0D01*
G01*
X16687000Y-14541500D02*
G75*
G03*
X16687000Y-14541500I-50000J0D01*
G01*
X16687000Y-14795500D02*
G75*
G03*
X16687000Y-14795500I-50000J0D01*
G01*
D14*
X6756900Y-4388000D02*
X6756900Y-4498000D01*
X6701900Y-4443000D02*
X6811900Y-4443000D01*
X6756900Y-5404000D02*
X6756900Y-5514000D01*
X6701900Y-5459000D02*
X6811900Y-5459000D01*
X6756900Y-6928000D02*
X6756900Y-7038000D01*
X6701900Y-6983000D02*
X6811900Y-6983000D01*
X6756900Y-7944000D02*
X6756900Y-8054000D01*
X6701900Y-7999000D02*
X6811900Y-7999000D01*
X6756900Y-10560200D02*
X6756900Y-10670200D01*
X6701900Y-10615200D02*
X6811900Y-10615200D01*
X6756900Y-11576200D02*
X6756900Y-11686200D01*
X6701900Y-11631200D02*
X6811900Y-11631200D01*
X6756900Y-13100200D02*
X6756900Y-13210200D01*
X6701900Y-13155200D02*
X6811900Y-13155200D01*
X6756900Y-14116200D02*
X6756900Y-14226200D01*
X6701900Y-14171200D02*
X6811900Y-14171200D01*
X11582900Y-5404000D02*
X11582900Y-5514000D01*
X11527900Y-5459000D02*
X11637900Y-5459000D01*
X11582900Y-6166000D02*
X11582900Y-6276000D01*
X11527900Y-6221000D02*
X11637900Y-6221000D01*
X11582900Y-6928000D02*
X11582900Y-7038000D01*
X11527900Y-6983000D02*
X11637900Y-6983000D01*
X11582900Y-11576200D02*
X11582900Y-11686200D01*
X11527900Y-11631200D02*
X11637900Y-11631200D01*
X11582900Y-12338200D02*
X11582900Y-12448200D01*
X11527900Y-12393200D02*
X11637900Y-12393200D01*
X11582900Y-13100200D02*
X11582900Y-13210200D01*
X11527900Y-13155200D02*
X11637900Y-13155200D01*
X12420600Y-14372200D02*
X12420600Y-14482200D01*
X12365600Y-14427200D02*
X12475600Y-14427200D01*
X12420600Y-15388200D02*
X12420600Y-15498200D01*
X12365600Y-15443200D02*
X12475600Y-15443200D01*
D15*
X13050262Y-15163562D02*
X13050262Y-15071638D01*
X12958338Y-15071638D01*
X12958338Y-15163562D01*
X13050262Y-15163562D01*
X13558262Y-15163562D02*
X13558262Y-15071638D01*
X13466338Y-15071638D01*
X13466338Y-15163562D01*
X13558262Y-15163562D01*
D16*
X13182600Y-3360400D02*
X13252600Y-3290400D01*
X13182600Y-3220400D01*
X13112600Y-3290400D01*
X13182600Y-3360400D01*
X13182600Y-8260400D02*
X13252600Y-8190400D01*
X13182600Y-8120400D01*
X13112600Y-8190400D01*
X13182600Y-8260400D01*
X13182600Y-9151600D02*
X13252600Y-9081600D01*
X13182600Y-9011600D01*
X13112600Y-9081600D01*
X13182600Y-9151600D01*
X13182600Y-14051600D02*
X13252600Y-13981600D01*
X13182600Y-13911600D01*
X13112600Y-13981600D01*
X13182600Y-14051600D01*
D17*
X11477900Y-4338000D02*
X11687900Y-4548000D01*
X11687900Y-4338000D02*
X11477900Y-4548000D01*
X11687900Y-4443000D02*
G75*
G03*
X11687900Y-4443000I-105000J0D01*
G01*
X11477900Y-7894000D02*
X11687900Y-8104000D01*
X11687900Y-7894000D02*
X11477900Y-8104000D01*
X11687900Y-7999000D02*
G75*
G03*
X11687900Y-7999000I-105000J0D01*
G01*
X11477900Y-10510200D02*
X11687900Y-10720200D01*
X11687900Y-10510200D02*
X11477900Y-10720200D01*
X11687900Y-10615200D02*
G75*
G03*
X11687900Y-10615200I-105000J0D01*
G01*
X11477900Y-14066200D02*
X11687900Y-14276200D01*
X11687900Y-14066200D02*
X11477900Y-14276200D01*
X11687900Y-14171200D02*
G75*
G03*
X11687900Y-14171200I-105000J0D01*
G01*
D11*
X5967619Y-16063476D02*
X5967619Y-15863476D01*
X6015238Y-15863476D01*
X6043809Y-15873000D01*
X6062857Y-15892048D01*
X6072381Y-15911095D01*
X6081905Y-15949190D01*
X6081905Y-15977762D01*
X6072381Y-16015857D01*
X6062857Y-16034905D01*
X6043809Y-16053952D01*
X6015238Y-16063476D01*
X5967619Y-16063476D01*
X6167619Y-16063476D02*
X6167619Y-15930143D01*
X6167619Y-15968238D02*
X6177143Y-15949190D01*
X6186667Y-15939667D01*
X6205714Y-15930143D01*
X6224762Y-15930143D01*
X6291428Y-16063476D02*
X6291428Y-15930143D01*
X6291428Y-15863476D02*
X6281905Y-15873000D01*
X6291428Y-15882524D01*
X6300952Y-15873000D01*
X6291428Y-15863476D01*
X6291428Y-15882524D01*
X6415238Y-16063476D02*
X6396190Y-16053952D01*
X6386667Y-16034905D01*
X6386667Y-15863476D01*
X6520000Y-16063476D02*
X6500952Y-16053952D01*
X6491428Y-16034905D01*
X6491428Y-15863476D01*
X6748571Y-16063476D02*
X6748571Y-15863476D01*
X6815238Y-16006333D01*
X6881905Y-15863476D01*
X6881905Y-16063476D01*
X7062857Y-16063476D02*
X7062857Y-15958714D01*
X7053333Y-15939667D01*
X7034286Y-15930143D01*
X6996190Y-15930143D01*
X6977143Y-15939667D01*
X7062857Y-16053952D02*
X7043809Y-16063476D01*
X6996190Y-16063476D01*
X6977143Y-16053952D01*
X6967619Y-16034905D01*
X6967619Y-16015857D01*
X6977143Y-15996809D01*
X6996190Y-15987286D01*
X7043809Y-15987286D01*
X7062857Y-15977762D01*
X7158095Y-15930143D02*
X7158095Y-16130143D01*
X7158095Y-15939667D02*
X7177143Y-15930143D01*
X7215238Y-15930143D01*
X7234286Y-15939667D01*
X7243809Y-15949190D01*
X7253333Y-15968238D01*
X7253333Y-16025381D01*
X7243809Y-16044428D01*
X7234286Y-16053952D01*
X7215238Y-16063476D01*
X7177143Y-16063476D01*
X7158095Y-16053952D01*
X7339048Y-16044428D02*
X7348571Y-16053952D01*
X7339048Y-16063476D01*
X7329524Y-16053952D01*
X7339048Y-16044428D01*
X7339048Y-16063476D01*
X7339048Y-15939667D02*
X7348571Y-15949190D01*
X7339048Y-15958714D01*
X7329524Y-15949190D01*
X7339048Y-15939667D01*
X7339048Y-15958714D01*
D12*
X5630000Y-16353000D02*
X5710000Y-16433000D01*
X5710000Y-16353000D02*
X5630000Y-16433000D01*
D11*
X6005714Y-16283476D02*
X6024762Y-16283476D01*
X6043809Y-16293000D01*
X6053333Y-16302524D01*
X6062857Y-16321571D01*
X6072381Y-16359667D01*
X6072381Y-16407286D01*
X6062857Y-16445381D01*
X6053333Y-16464428D01*
X6043809Y-16473952D01*
X6024762Y-16483476D01*
X6005714Y-16483476D01*
X5986667Y-16473952D01*
X5977143Y-16464428D01*
X5967619Y-16445381D01*
X5958095Y-16407286D01*
X5958095Y-16359667D01*
X5967619Y-16321571D01*
X5977143Y-16302524D01*
X5986667Y-16293000D01*
X6005714Y-16283476D01*
X6158095Y-16464428D02*
X6167619Y-16473952D01*
X6158095Y-16483476D01*
X6148571Y-16473952D01*
X6158095Y-16464428D01*
X6158095Y-16483476D01*
X6281905Y-16369190D02*
X6262857Y-16359667D01*
X6253333Y-16350143D01*
X6243809Y-16331095D01*
X6243809Y-16321571D01*
X6253333Y-16302524D01*
X6262857Y-16293000D01*
X6281905Y-16283476D01*
X6320000Y-16283476D01*
X6339048Y-16293000D01*
X6348571Y-16302524D01*
X6358095Y-16321571D01*
X6358095Y-16331095D01*
X6348571Y-16350143D01*
X6339048Y-16359667D01*
X6320000Y-16369190D01*
X6281905Y-16369190D01*
X6262857Y-16378714D01*
X6253333Y-16388238D01*
X6243809Y-16407286D01*
X6243809Y-16445381D01*
X6253333Y-16464428D01*
X6262857Y-16473952D01*
X6281905Y-16483476D01*
X6320000Y-16483476D01*
X6339048Y-16473952D01*
X6348571Y-16464428D01*
X6358095Y-16445381D01*
X6358095Y-16407286D01*
X6348571Y-16388238D01*
X6339048Y-16378714D01*
X6320000Y-16369190D01*
X6481905Y-16283476D02*
X6500952Y-16283476D01*
X6520000Y-16293000D01*
X6529524Y-16302524D01*
X6539048Y-16321571D01*
X6548571Y-16359667D01*
X6548571Y-16407286D01*
X6539048Y-16445381D01*
X6529524Y-16464428D01*
X6520000Y-16473952D01*
X6500952Y-16483476D01*
X6481905Y-16483476D01*
X6462857Y-16473952D01*
X6453333Y-16464428D01*
X6443809Y-16445381D01*
X6434286Y-16407286D01*
X6434286Y-16359667D01*
X6443809Y-16321571D01*
X6453333Y-16302524D01*
X6462857Y-16293000D01*
X6481905Y-16283476D01*
X6672381Y-16283476D02*
X6691428Y-16283476D01*
X6710476Y-16293000D01*
X6720000Y-16302524D01*
X6729524Y-16321571D01*
X6739048Y-16359667D01*
X6739048Y-16407286D01*
X6729524Y-16445381D01*
X6720000Y-16464428D01*
X6710476Y-16473952D01*
X6691428Y-16483476D01*
X6672381Y-16483476D01*
X6653333Y-16473952D01*
X6643809Y-16464428D01*
X6634286Y-16445381D01*
X6624762Y-16407286D01*
X6624762Y-16359667D01*
X6634286Y-16321571D01*
X6643809Y-16302524D01*
X6653333Y-16293000D01*
X6672381Y-16283476D01*
X6824762Y-16483476D02*
X6824762Y-16350143D01*
X6824762Y-16369190D02*
X6834286Y-16359667D01*
X6853333Y-16350143D01*
X6881905Y-16350143D01*
X6900952Y-16359667D01*
X6910476Y-16378714D01*
X6910476Y-16483476D01*
X6910476Y-16378714D02*
X6920000Y-16359667D01*
X6939048Y-16350143D01*
X6967619Y-16350143D01*
X6986667Y-16359667D01*
X6996190Y-16378714D01*
X6996190Y-16483476D01*
X7091428Y-16483476D02*
X7091428Y-16350143D01*
X7091428Y-16369190D02*
X7100952Y-16359667D01*
X7120000Y-16350143D01*
X7148571Y-16350143D01*
X7167619Y-16359667D01*
X7177143Y-16378714D01*
X7177143Y-16483476D01*
X7177143Y-16378714D02*
X7186667Y-16359667D01*
X7205714Y-16350143D01*
X7234286Y-16350143D01*
X7253333Y-16359667D01*
X7262857Y-16378714D01*
X7262857Y-16483476D01*
X7653333Y-16273952D02*
X7481905Y-16531095D01*
X7910476Y-16283476D02*
X7929524Y-16283476D01*
X7948571Y-16293000D01*
X7958095Y-16302524D01*
X7967619Y-16321571D01*
X7977143Y-16359667D01*
X7977143Y-16407286D01*
X7967619Y-16445381D01*
X7958095Y-16464428D01*
X7948571Y-16473952D01*
X7929524Y-16483476D01*
X7910476Y-16483476D01*
X7891428Y-16473952D01*
X7881905Y-16464428D01*
X7872381Y-16445381D01*
X7862857Y-16407286D01*
X7862857Y-16359667D01*
X7872381Y-16321571D01*
X7881905Y-16302524D01*
X7891428Y-16293000D01*
X7910476Y-16283476D01*
X8062857Y-16464428D02*
X8072381Y-16473952D01*
X8062857Y-16483476D01*
X8053333Y-16473952D01*
X8062857Y-16464428D01*
X8062857Y-16483476D01*
X8196190Y-16283476D02*
X8215238Y-16283476D01*
X8234286Y-16293000D01*
X8243809Y-16302524D01*
X8253333Y-16321571D01*
X8262857Y-16359667D01*
X8262857Y-16407286D01*
X8253333Y-16445381D01*
X8243809Y-16464428D01*
X8234286Y-16473952D01*
X8215238Y-16483476D01*
X8196190Y-16483476D01*
X8177143Y-16473952D01*
X8167619Y-16464428D01*
X8158095Y-16445381D01*
X8148571Y-16407286D01*
X8148571Y-16359667D01*
X8158095Y-16321571D01*
X8167619Y-16302524D01*
X8177143Y-16293000D01*
X8196190Y-16283476D01*
X8329524Y-16283476D02*
X8453333Y-16283476D01*
X8386667Y-16359667D01*
X8415238Y-16359667D01*
X8434286Y-16369190D01*
X8443810Y-16378714D01*
X8453333Y-16397762D01*
X8453333Y-16445381D01*
X8443810Y-16464428D01*
X8434286Y-16473952D01*
X8415238Y-16483476D01*
X8358095Y-16483476D01*
X8339048Y-16473952D01*
X8329524Y-16464428D01*
X8643810Y-16483476D02*
X8529524Y-16483476D01*
X8586667Y-16483476D02*
X8586667Y-16283476D01*
X8567619Y-16312048D01*
X8548571Y-16331095D01*
X8529524Y-16340619D01*
X8824762Y-16283476D02*
X8729524Y-16283476D01*
X8720000Y-16378714D01*
X8729524Y-16369190D01*
X8748571Y-16359667D01*
X8796190Y-16359667D01*
X8815238Y-16369190D01*
X8824762Y-16378714D01*
X8834286Y-16397762D01*
X8834286Y-16445381D01*
X8824762Y-16464428D01*
X8815238Y-16473952D01*
X8796190Y-16483476D01*
X8748571Y-16483476D01*
X8729524Y-16473952D01*
X8720000Y-16464428D01*
X8910476Y-16283476D02*
X8910476Y-16321571D01*
X8986667Y-16283476D02*
X8986667Y-16321571D01*
X9281905Y-16559667D02*
X9272381Y-16550143D01*
X9253333Y-16521571D01*
X9243810Y-16502524D01*
X9234286Y-16473952D01*
X9224762Y-16426333D01*
X9224762Y-16388238D01*
X9234286Y-16340619D01*
X9243810Y-16312048D01*
X9253333Y-16293000D01*
X9272381Y-16264428D01*
X9281905Y-16254905D01*
X9443810Y-16350143D02*
X9443810Y-16483476D01*
X9396190Y-16273952D02*
X9348571Y-16416809D01*
X9472381Y-16416809D01*
X9700952Y-16483476D02*
X9700952Y-16283476D01*
X9786667Y-16483476D02*
X9786667Y-16378714D01*
X9777143Y-16359667D01*
X9758095Y-16350143D01*
X9729524Y-16350143D01*
X9710476Y-16359667D01*
X9700952Y-16369190D01*
X9910476Y-16483476D02*
X9891429Y-16473952D01*
X9881905Y-16464428D01*
X9872381Y-16445381D01*
X9872381Y-16388238D01*
X9881905Y-16369190D01*
X9891429Y-16359667D01*
X9910476Y-16350143D01*
X9939048Y-16350143D01*
X9958095Y-16359667D01*
X9967619Y-16369190D01*
X9977143Y-16388238D01*
X9977143Y-16445381D01*
X9967619Y-16464428D01*
X9958095Y-16473952D01*
X9939048Y-16483476D01*
X9910476Y-16483476D01*
X10091429Y-16483476D02*
X10072381Y-16473952D01*
X10062857Y-16454905D01*
X10062857Y-16283476D01*
X10243810Y-16473952D02*
X10224762Y-16483476D01*
X10186667Y-16483476D01*
X10167619Y-16473952D01*
X10158095Y-16454905D01*
X10158095Y-16378714D01*
X10167619Y-16359667D01*
X10186667Y-16350143D01*
X10224762Y-16350143D01*
X10243810Y-16359667D01*
X10253333Y-16378714D01*
X10253333Y-16397762D01*
X10158095Y-16416809D01*
X10329524Y-16473952D02*
X10348571Y-16483476D01*
X10386667Y-16483476D01*
X10405714Y-16473952D01*
X10415238Y-16454905D01*
X10415238Y-16445381D01*
X10405714Y-16426333D01*
X10386667Y-16416809D01*
X10358095Y-16416809D01*
X10339048Y-16407286D01*
X10329524Y-16388238D01*
X10329524Y-16378714D01*
X10339048Y-16359667D01*
X10358095Y-16350143D01*
X10386667Y-16350143D01*
X10405714Y-16359667D01*
X10481905Y-16559667D02*
X10491429Y-16550143D01*
X10510476Y-16521571D01*
X10520000Y-16502524D01*
X10529524Y-16473952D01*
X10539048Y-16426333D01*
X10539048Y-16388238D01*
X10529524Y-16340619D01*
X10520000Y-16312048D01*
X10510476Y-16293000D01*
X10491429Y-16264428D01*
X10481905Y-16254905D01*
D13*
X5710000Y-16657000D02*
G75*
G03*
X5710000Y-16657000I-50000J0D01*
G01*
D11*
X6072381Y-16747476D02*
X5958095Y-16747476D01*
X6015238Y-16747476D02*
X6015238Y-16547476D01*
X5996190Y-16576048D01*
X5977143Y-16595095D01*
X5958095Y-16604619D01*
X6158095Y-16728428D02*
X6167619Y-16737952D01*
X6158095Y-16747476D01*
X6148571Y-16737952D01*
X6158095Y-16728428D01*
X6158095Y-16747476D01*
X6291428Y-16547476D02*
X6310476Y-16547476D01*
X6329524Y-16557000D01*
X6339048Y-16566524D01*
X6348571Y-16585571D01*
X6358095Y-16623667D01*
X6358095Y-16671286D01*
X6348571Y-16709381D01*
X6339048Y-16728428D01*
X6329524Y-16737952D01*
X6310476Y-16747476D01*
X6291428Y-16747476D01*
X6272381Y-16737952D01*
X6262857Y-16728428D01*
X6253333Y-16709381D01*
X6243809Y-16671286D01*
X6243809Y-16623667D01*
X6253333Y-16585571D01*
X6262857Y-16566524D01*
X6272381Y-16557000D01*
X6291428Y-16547476D01*
X6481905Y-16547476D02*
X6500952Y-16547476D01*
X6520000Y-16557000D01*
X6529524Y-16566524D01*
X6539048Y-16585571D01*
X6548571Y-16623667D01*
X6548571Y-16671286D01*
X6539048Y-16709381D01*
X6529524Y-16728428D01*
X6520000Y-16737952D01*
X6500952Y-16747476D01*
X6481905Y-16747476D01*
X6462857Y-16737952D01*
X6453333Y-16728428D01*
X6443809Y-16709381D01*
X6434286Y-16671286D01*
X6434286Y-16623667D01*
X6443809Y-16585571D01*
X6453333Y-16566524D01*
X6462857Y-16557000D01*
X6481905Y-16547476D01*
X6672381Y-16547476D02*
X6691428Y-16547476D01*
X6710476Y-16557000D01*
X6720000Y-16566524D01*
X6729524Y-16585571D01*
X6739048Y-16623667D01*
X6739048Y-16671286D01*
X6729524Y-16709381D01*
X6720000Y-16728428D01*
X6710476Y-16737952D01*
X6691428Y-16747476D01*
X6672381Y-16747476D01*
X6653333Y-16737952D01*
X6643809Y-16728428D01*
X6634286Y-16709381D01*
X6624762Y-16671286D01*
X6624762Y-16623667D01*
X6634286Y-16585571D01*
X6643809Y-16566524D01*
X6653333Y-16557000D01*
X6672381Y-16547476D01*
X6824762Y-16747476D02*
X6824762Y-16614143D01*
X6824762Y-16633190D02*
X6834286Y-16623667D01*
X6853333Y-16614143D01*
X6881905Y-16614143D01*
X6900952Y-16623667D01*
X6910476Y-16642714D01*
X6910476Y-16747476D01*
X6910476Y-16642714D02*
X6920000Y-16623667D01*
X6939048Y-16614143D01*
X6967619Y-16614143D01*
X6986667Y-16623667D01*
X6996190Y-16642714D01*
X6996190Y-16747476D01*
X7091428Y-16747476D02*
X7091428Y-16614143D01*
X7091428Y-16633190D02*
X7100952Y-16623667D01*
X7120000Y-16614143D01*
X7148571Y-16614143D01*
X7167619Y-16623667D01*
X7177143Y-16642714D01*
X7177143Y-16747476D01*
X7177143Y-16642714D02*
X7186667Y-16623667D01*
X7205714Y-16614143D01*
X7234286Y-16614143D01*
X7253333Y-16623667D01*
X7262857Y-16642714D01*
X7262857Y-16747476D01*
X7653333Y-16537952D02*
X7481905Y-16795095D01*
X7910476Y-16547476D02*
X7929524Y-16547476D01*
X7948571Y-16557000D01*
X7958095Y-16566524D01*
X7967619Y-16585571D01*
X7977143Y-16623667D01*
X7977143Y-16671286D01*
X7967619Y-16709381D01*
X7958095Y-16728428D01*
X7948571Y-16737952D01*
X7929524Y-16747476D01*
X7910476Y-16747476D01*
X7891428Y-16737952D01*
X7881905Y-16728428D01*
X7872381Y-16709381D01*
X7862857Y-16671286D01*
X7862857Y-16623667D01*
X7872381Y-16585571D01*
X7881905Y-16566524D01*
X7891428Y-16557000D01*
X7910476Y-16547476D01*
X8062857Y-16728428D02*
X8072381Y-16737952D01*
X8062857Y-16747476D01*
X8053333Y-16737952D01*
X8062857Y-16728428D01*
X8062857Y-16747476D01*
X8196190Y-16547476D02*
X8215238Y-16547476D01*
X8234286Y-16557000D01*
X8243809Y-16566524D01*
X8253333Y-16585571D01*
X8262857Y-16623667D01*
X8262857Y-16671286D01*
X8253333Y-16709381D01*
X8243809Y-16728428D01*
X8234286Y-16737952D01*
X8215238Y-16747476D01*
X8196190Y-16747476D01*
X8177143Y-16737952D01*
X8167619Y-16728428D01*
X8158095Y-16709381D01*
X8148571Y-16671286D01*
X8148571Y-16623667D01*
X8158095Y-16585571D01*
X8167619Y-16566524D01*
X8177143Y-16557000D01*
X8196190Y-16547476D01*
X8329524Y-16547476D02*
X8453333Y-16547476D01*
X8386667Y-16623667D01*
X8415238Y-16623667D01*
X8434286Y-16633190D01*
X8443810Y-16642714D01*
X8453333Y-16661762D01*
X8453333Y-16709381D01*
X8443810Y-16728428D01*
X8434286Y-16737952D01*
X8415238Y-16747476D01*
X8358095Y-16747476D01*
X8339048Y-16737952D01*
X8329524Y-16728428D01*
X8548571Y-16747476D02*
X8586667Y-16747476D01*
X8605714Y-16737952D01*
X8615238Y-16728428D01*
X8634286Y-16699857D01*
X8643810Y-16661762D01*
X8643810Y-16585571D01*
X8634286Y-16566524D01*
X8624762Y-16557000D01*
X8605714Y-16547476D01*
X8567619Y-16547476D01*
X8548571Y-16557000D01*
X8539048Y-16566524D01*
X8529524Y-16585571D01*
X8529524Y-16633190D01*
X8539048Y-16652238D01*
X8548571Y-16661762D01*
X8567619Y-16671286D01*
X8605714Y-16671286D01*
X8624762Y-16661762D01*
X8634286Y-16652238D01*
X8643810Y-16633190D01*
X8815238Y-16614143D02*
X8815238Y-16747476D01*
X8767619Y-16537952D02*
X8720000Y-16680809D01*
X8843810Y-16680809D01*
X8910476Y-16547476D02*
X8910476Y-16585571D01*
X8986667Y-16547476D02*
X8986667Y-16585571D01*
X9281905Y-16823667D02*
X9272381Y-16814143D01*
X9253333Y-16785571D01*
X9243810Y-16766524D01*
X9234286Y-16737952D01*
X9224762Y-16690333D01*
X9224762Y-16652238D01*
X9234286Y-16604619D01*
X9243810Y-16576048D01*
X9253333Y-16557000D01*
X9272381Y-16528428D01*
X9281905Y-16518905D01*
X9462857Y-16747476D02*
X9348571Y-16747476D01*
X9405714Y-16747476D02*
X9405714Y-16547476D01*
X9386667Y-16576048D01*
X9367619Y-16595095D01*
X9348571Y-16604619D01*
X9539048Y-16566524D02*
X9548571Y-16557000D01*
X9567619Y-16547476D01*
X9615238Y-16547476D01*
X9634286Y-16557000D01*
X9643810Y-16566524D01*
X9653333Y-16585571D01*
X9653333Y-16604619D01*
X9643810Y-16633190D01*
X9529524Y-16747476D01*
X9653333Y-16747476D01*
X9767619Y-16633190D02*
X9748571Y-16623667D01*
X9739048Y-16614143D01*
X9729524Y-16595095D01*
X9729524Y-16585571D01*
X9739048Y-16566524D01*
X9748571Y-16557000D01*
X9767619Y-16547476D01*
X9805714Y-16547476D01*
X9824762Y-16557000D01*
X9834286Y-16566524D01*
X9843810Y-16585571D01*
X9843810Y-16595095D01*
X9834286Y-16614143D01*
X9824762Y-16623667D01*
X9805714Y-16633190D01*
X9767619Y-16633190D01*
X9748571Y-16642714D01*
X9739048Y-16652238D01*
X9729524Y-16671286D01*
X9729524Y-16709381D01*
X9739048Y-16728428D01*
X9748571Y-16737952D01*
X9767619Y-16747476D01*
X9805714Y-16747476D01*
X9824762Y-16737952D01*
X9834286Y-16728428D01*
X9843810Y-16709381D01*
X9843810Y-16671286D01*
X9834286Y-16652238D01*
X9824762Y-16642714D01*
X9805714Y-16633190D01*
X10081905Y-16747476D02*
X10081905Y-16547476D01*
X10167619Y-16747476D02*
X10167619Y-16642714D01*
X10158095Y-16623667D01*
X10139048Y-16614143D01*
X10110476Y-16614143D01*
X10091429Y-16623667D01*
X10081905Y-16633190D01*
X10291429Y-16747476D02*
X10272381Y-16737952D01*
X10262857Y-16728428D01*
X10253333Y-16709381D01*
X10253333Y-16652238D01*
X10262857Y-16633190D01*
X10272381Y-16623667D01*
X10291429Y-16614143D01*
X10320000Y-16614143D01*
X10339048Y-16623667D01*
X10348571Y-16633190D01*
X10358095Y-16652238D01*
X10358095Y-16709381D01*
X10348571Y-16728428D01*
X10339048Y-16737952D01*
X10320000Y-16747476D01*
X10291429Y-16747476D01*
X10472381Y-16747476D02*
X10453333Y-16737952D01*
X10443810Y-16718905D01*
X10443810Y-16547476D01*
X10624762Y-16737952D02*
X10605714Y-16747476D01*
X10567619Y-16747476D01*
X10548571Y-16737952D01*
X10539048Y-16718905D01*
X10539048Y-16642714D01*
X10548571Y-16623667D01*
X10567619Y-16614143D01*
X10605714Y-16614143D01*
X10624762Y-16623667D01*
X10634286Y-16642714D01*
X10634286Y-16661762D01*
X10539048Y-16680809D01*
X10710476Y-16737952D02*
X10729524Y-16747476D01*
X10767619Y-16747476D01*
X10786667Y-16737952D01*
X10796190Y-16718905D01*
X10796190Y-16709381D01*
X10786667Y-16690333D01*
X10767619Y-16680809D01*
X10739048Y-16680809D01*
X10720000Y-16671286D01*
X10710476Y-16652238D01*
X10710476Y-16642714D01*
X10720000Y-16623667D01*
X10739048Y-16614143D01*
X10767619Y-16614143D01*
X10786667Y-16623667D01*
X10862857Y-16823667D02*
X10872381Y-16814143D01*
X10891429Y-16785571D01*
X10900952Y-16766524D01*
X10910476Y-16737952D01*
X10920000Y-16690333D01*
X10920000Y-16652238D01*
X10910476Y-16604619D01*
X10900952Y-16576048D01*
X10891429Y-16557000D01*
X10872381Y-16528428D01*
X10862857Y-16518905D01*
D14*
X5655000Y-16866000D02*
X5655000Y-16976000D01*
X5600000Y-16921000D02*
X5710000Y-16921000D01*
D11*
X6072381Y-17011476D02*
X5958095Y-17011476D01*
X6015238Y-17011476D02*
X6015238Y-16811476D01*
X5996190Y-16840048D01*
X5977143Y-16859095D01*
X5958095Y-16868619D01*
X6158095Y-16992429D02*
X6167619Y-17001952D01*
X6158095Y-17011476D01*
X6148571Y-17001952D01*
X6158095Y-16992429D01*
X6158095Y-17011476D01*
X6358095Y-17011476D02*
X6243809Y-17011476D01*
X6300952Y-17011476D02*
X6300952Y-16811476D01*
X6281905Y-16840048D01*
X6262857Y-16859095D01*
X6243809Y-16868619D01*
X6481905Y-16811476D02*
X6500952Y-16811476D01*
X6520000Y-16821000D01*
X6529524Y-16830524D01*
X6539048Y-16849571D01*
X6548571Y-16887667D01*
X6548571Y-16935286D01*
X6539048Y-16973381D01*
X6529524Y-16992429D01*
X6520000Y-17001952D01*
X6500952Y-17011476D01*
X6481905Y-17011476D01*
X6462857Y-17001952D01*
X6453333Y-16992429D01*
X6443809Y-16973381D01*
X6434286Y-16935286D01*
X6434286Y-16887667D01*
X6443809Y-16849571D01*
X6453333Y-16830524D01*
X6462857Y-16821000D01*
X6481905Y-16811476D01*
X6672381Y-16811476D02*
X6691428Y-16811476D01*
X6710476Y-16821000D01*
X6720000Y-16830524D01*
X6729524Y-16849571D01*
X6739048Y-16887667D01*
X6739048Y-16935286D01*
X6729524Y-16973381D01*
X6720000Y-16992429D01*
X6710476Y-17001952D01*
X6691428Y-17011476D01*
X6672381Y-17011476D01*
X6653333Y-17001952D01*
X6643809Y-16992429D01*
X6634286Y-16973381D01*
X6624762Y-16935286D01*
X6624762Y-16887667D01*
X6634286Y-16849571D01*
X6643809Y-16830524D01*
X6653333Y-16821000D01*
X6672381Y-16811476D01*
X6824762Y-17011476D02*
X6824762Y-16878143D01*
X6824762Y-16897190D02*
X6834286Y-16887667D01*
X6853333Y-16878143D01*
X6881905Y-16878143D01*
X6900952Y-16887667D01*
X6910476Y-16906714D01*
X6910476Y-17011476D01*
X6910476Y-16906714D02*
X6920000Y-16887667D01*
X6939048Y-16878143D01*
X6967619Y-16878143D01*
X6986667Y-16887667D01*
X6996190Y-16906714D01*
X6996190Y-17011476D01*
X7091428Y-17011476D02*
X7091428Y-16878143D01*
X7091428Y-16897190D02*
X7100952Y-16887667D01*
X7120000Y-16878143D01*
X7148571Y-16878143D01*
X7167619Y-16887667D01*
X7177143Y-16906714D01*
X7177143Y-17011476D01*
X7177143Y-16906714D02*
X7186667Y-16887667D01*
X7205714Y-16878143D01*
X7234286Y-16878143D01*
X7253333Y-16887667D01*
X7262857Y-16906714D01*
X7262857Y-17011476D01*
X7653333Y-16801952D02*
X7481905Y-17059095D01*
X7910476Y-16811476D02*
X7929524Y-16811476D01*
X7948571Y-16821000D01*
X7958095Y-16830524D01*
X7967619Y-16849571D01*
X7977143Y-16887667D01*
X7977143Y-16935286D01*
X7967619Y-16973381D01*
X7958095Y-16992429D01*
X7948571Y-17001952D01*
X7929524Y-17011476D01*
X7910476Y-17011476D01*
X7891428Y-17001952D01*
X7881905Y-16992429D01*
X7872381Y-16973381D01*
X7862857Y-16935286D01*
X7862857Y-16887667D01*
X7872381Y-16849571D01*
X7881905Y-16830524D01*
X7891428Y-16821000D01*
X7910476Y-16811476D01*
X8062857Y-16992429D02*
X8072381Y-17001952D01*
X8062857Y-17011476D01*
X8053333Y-17001952D01*
X8062857Y-16992429D01*
X8062857Y-17011476D01*
X8196190Y-16811476D02*
X8215238Y-16811476D01*
X8234286Y-16821000D01*
X8243809Y-16830524D01*
X8253333Y-16849571D01*
X8262857Y-16887667D01*
X8262857Y-16935286D01*
X8253333Y-16973381D01*
X8243809Y-16992429D01*
X8234286Y-17001952D01*
X8215238Y-17011476D01*
X8196190Y-17011476D01*
X8177143Y-17001952D01*
X8167619Y-16992429D01*
X8158095Y-16973381D01*
X8148571Y-16935286D01*
X8148571Y-16887667D01*
X8158095Y-16849571D01*
X8167619Y-16830524D01*
X8177143Y-16821000D01*
X8196190Y-16811476D01*
X8434286Y-16878143D02*
X8434286Y-17011476D01*
X8386667Y-16801952D02*
X8339048Y-16944810D01*
X8462857Y-16944810D01*
X8520000Y-16811476D02*
X8643810Y-16811476D01*
X8577143Y-16887667D01*
X8605714Y-16887667D01*
X8624762Y-16897190D01*
X8634286Y-16906714D01*
X8643810Y-16925762D01*
X8643810Y-16973381D01*
X8634286Y-16992429D01*
X8624762Y-17001952D01*
X8605714Y-17011476D01*
X8548571Y-17011476D01*
X8529524Y-17001952D01*
X8520000Y-16992429D01*
X8710476Y-16811476D02*
X8834286Y-16811476D01*
X8767619Y-16887667D01*
X8796190Y-16887667D01*
X8815238Y-16897190D01*
X8824762Y-16906714D01*
X8834286Y-16925762D01*
X8834286Y-16973381D01*
X8824762Y-16992429D01*
X8815238Y-17001952D01*
X8796190Y-17011476D01*
X8739048Y-17011476D01*
X8720000Y-17001952D01*
X8710476Y-16992429D01*
X8910476Y-16811476D02*
X8910476Y-16849571D01*
X8986667Y-16811476D02*
X8986667Y-16849571D01*
X9281905Y-17087667D02*
X9272381Y-17078143D01*
X9253333Y-17049571D01*
X9243810Y-17030524D01*
X9234286Y-17001952D01*
X9224762Y-16954333D01*
X9224762Y-16916238D01*
X9234286Y-16868619D01*
X9243810Y-16840048D01*
X9253333Y-16821000D01*
X9272381Y-16792429D01*
X9281905Y-16782905D01*
X9462857Y-17011476D02*
X9348571Y-17011476D01*
X9405714Y-17011476D02*
X9405714Y-16811476D01*
X9386667Y-16840048D01*
X9367619Y-16859095D01*
X9348571Y-16868619D01*
X9634286Y-16811476D02*
X9596190Y-16811476D01*
X9577143Y-16821000D01*
X9567619Y-16830524D01*
X9548571Y-16859095D01*
X9539048Y-16897190D01*
X9539048Y-16973381D01*
X9548571Y-16992429D01*
X9558095Y-17001952D01*
X9577143Y-17011476D01*
X9615238Y-17011476D01*
X9634286Y-17001952D01*
X9643810Y-16992429D01*
X9653333Y-16973381D01*
X9653333Y-16925762D01*
X9643810Y-16906714D01*
X9634286Y-16897190D01*
X9615238Y-16887667D01*
X9577143Y-16887667D01*
X9558095Y-16897190D01*
X9548571Y-16906714D01*
X9539048Y-16925762D01*
X9891429Y-17011476D02*
X9891429Y-16811476D01*
X9977143Y-17011476D02*
X9977143Y-16906714D01*
X9967619Y-16887667D01*
X9948571Y-16878143D01*
X9920000Y-16878143D01*
X9900952Y-16887667D01*
X9891429Y-16897190D01*
X10100952Y-17011476D02*
X10081905Y-17001952D01*
X10072381Y-16992429D01*
X10062857Y-16973381D01*
X10062857Y-16916238D01*
X10072381Y-16897190D01*
X10081905Y-16887667D01*
X10100952Y-16878143D01*
X10129524Y-16878143D01*
X10148571Y-16887667D01*
X10158095Y-16897190D01*
X10167619Y-16916238D01*
X10167619Y-16973381D01*
X10158095Y-16992429D01*
X10148571Y-17001952D01*
X10129524Y-17011476D01*
X10100952Y-17011476D01*
X10281905Y-17011476D02*
X10262857Y-17001952D01*
X10253333Y-16982905D01*
X10253333Y-16811476D01*
X10434286Y-17001952D02*
X10415238Y-17011476D01*
X10377143Y-17011476D01*
X10358095Y-17001952D01*
X10348571Y-16982905D01*
X10348571Y-16906714D01*
X10358095Y-16887667D01*
X10377143Y-16878143D01*
X10415238Y-16878143D01*
X10434286Y-16887667D01*
X10443810Y-16906714D01*
X10443810Y-16925762D01*
X10348571Y-16944810D01*
X10520000Y-17001952D02*
X10539048Y-17011476D01*
X10577143Y-17011476D01*
X10596190Y-17001952D01*
X10605714Y-16982905D01*
X10605714Y-16973381D01*
X10596190Y-16954333D01*
X10577143Y-16944810D01*
X10548571Y-16944810D01*
X10529524Y-16935286D01*
X10520000Y-16916238D01*
X10520000Y-16906714D01*
X10529524Y-16887667D01*
X10548571Y-16878143D01*
X10577143Y-16878143D01*
X10596190Y-16887667D01*
X10672381Y-17087667D02*
X10681905Y-17078143D01*
X10700952Y-17049571D01*
X10710476Y-17030524D01*
X10720000Y-17001952D01*
X10729524Y-16954333D01*
X10729524Y-16916238D01*
X10720000Y-16868619D01*
X10710476Y-16840048D01*
X10700952Y-16821000D01*
X10681905Y-16792429D01*
X10672381Y-16782905D01*
D15*
X5690962Y-17230962D02*
X5690962Y-17139038D01*
X5599038Y-17139038D01*
X5599038Y-17230962D01*
X5690962Y-17230962D01*
D11*
X6072381Y-17275476D02*
X5958095Y-17275476D01*
X6015238Y-17275476D02*
X6015238Y-17075476D01*
X5996190Y-17104048D01*
X5977143Y-17123095D01*
X5958095Y-17132619D01*
X6158095Y-17256429D02*
X6167619Y-17265952D01*
X6158095Y-17275476D01*
X6148571Y-17265952D01*
X6158095Y-17256429D01*
X6158095Y-17275476D01*
X6234286Y-17075476D02*
X6358095Y-17075476D01*
X6291428Y-17151667D01*
X6320000Y-17151667D01*
X6339048Y-17161190D01*
X6348571Y-17170714D01*
X6358095Y-17189762D01*
X6358095Y-17237381D01*
X6348571Y-17256429D01*
X6339048Y-17265952D01*
X6320000Y-17275476D01*
X6262857Y-17275476D01*
X6243809Y-17265952D01*
X6234286Y-17256429D01*
X6481905Y-17075476D02*
X6500952Y-17075476D01*
X6520000Y-17085000D01*
X6529524Y-17094524D01*
X6539048Y-17113571D01*
X6548571Y-17151667D01*
X6548571Y-17199286D01*
X6539048Y-17237381D01*
X6529524Y-17256429D01*
X6520000Y-17265952D01*
X6500952Y-17275476D01*
X6481905Y-17275476D01*
X6462857Y-17265952D01*
X6453333Y-17256429D01*
X6443809Y-17237381D01*
X6434286Y-17199286D01*
X6434286Y-17151667D01*
X6443809Y-17113571D01*
X6453333Y-17094524D01*
X6462857Y-17085000D01*
X6481905Y-17075476D01*
X6672381Y-17075476D02*
X6691428Y-17075476D01*
X6710476Y-17085000D01*
X6720000Y-17094524D01*
X6729524Y-17113571D01*
X6739048Y-17151667D01*
X6739048Y-17199286D01*
X6729524Y-17237381D01*
X6720000Y-17256429D01*
X6710476Y-17265952D01*
X6691428Y-17275476D01*
X6672381Y-17275476D01*
X6653333Y-17265952D01*
X6643809Y-17256429D01*
X6634286Y-17237381D01*
X6624762Y-17199286D01*
X6624762Y-17151667D01*
X6634286Y-17113571D01*
X6643809Y-17094524D01*
X6653333Y-17085000D01*
X6672381Y-17075476D01*
X6824762Y-17275476D02*
X6824762Y-17142143D01*
X6824762Y-17161190D02*
X6834286Y-17151667D01*
X6853333Y-17142143D01*
X6881905Y-17142143D01*
X6900952Y-17151667D01*
X6910476Y-17170714D01*
X6910476Y-17275476D01*
X6910476Y-17170714D02*
X6920000Y-17151667D01*
X6939048Y-17142143D01*
X6967619Y-17142143D01*
X6986667Y-17151667D01*
X6996190Y-17170714D01*
X6996190Y-17275476D01*
X7091428Y-17275476D02*
X7091428Y-17142143D01*
X7091428Y-17161190D02*
X7100952Y-17151667D01*
X7120000Y-17142143D01*
X7148571Y-17142143D01*
X7167619Y-17151667D01*
X7177143Y-17170714D01*
X7177143Y-17275476D01*
X7177143Y-17170714D02*
X7186667Y-17151667D01*
X7205714Y-17142143D01*
X7234286Y-17142143D01*
X7253333Y-17151667D01*
X7262857Y-17170714D01*
X7262857Y-17275476D01*
X7653333Y-17065952D02*
X7481905Y-17323095D01*
X7910476Y-17075476D02*
X7929524Y-17075476D01*
X7948571Y-17085000D01*
X7958095Y-17094524D01*
X7967619Y-17113571D01*
X7977143Y-17151667D01*
X7977143Y-17199286D01*
X7967619Y-17237381D01*
X7958095Y-17256429D01*
X7948571Y-17265952D01*
X7929524Y-17275476D01*
X7910476Y-17275476D01*
X7891428Y-17265952D01*
X7881905Y-17256429D01*
X7872381Y-17237381D01*
X7862857Y-17199286D01*
X7862857Y-17151667D01*
X7872381Y-17113571D01*
X7881905Y-17094524D01*
X7891428Y-17085000D01*
X7910476Y-17075476D01*
X8062857Y-17256429D02*
X8072381Y-17265952D01*
X8062857Y-17275476D01*
X8053333Y-17265952D01*
X8062857Y-17256429D01*
X8062857Y-17275476D01*
X8196190Y-17075476D02*
X8215238Y-17075476D01*
X8234286Y-17085000D01*
X8243809Y-17094524D01*
X8253333Y-17113571D01*
X8262857Y-17151667D01*
X8262857Y-17199286D01*
X8253333Y-17237381D01*
X8243809Y-17256429D01*
X8234286Y-17265952D01*
X8215238Y-17275476D01*
X8196190Y-17275476D01*
X8177143Y-17265952D01*
X8167619Y-17256429D01*
X8158095Y-17237381D01*
X8148571Y-17199286D01*
X8148571Y-17151667D01*
X8158095Y-17113571D01*
X8167619Y-17094524D01*
X8177143Y-17085000D01*
X8196190Y-17075476D01*
X8443810Y-17075476D02*
X8348571Y-17075476D01*
X8339048Y-17170714D01*
X8348571Y-17161190D01*
X8367619Y-17151667D01*
X8415238Y-17151667D01*
X8434286Y-17161190D01*
X8443810Y-17170714D01*
X8453333Y-17189762D01*
X8453333Y-17237381D01*
X8443810Y-17256429D01*
X8434286Y-17265952D01*
X8415238Y-17275476D01*
X8367619Y-17275476D01*
X8348571Y-17265952D01*
X8339048Y-17256429D01*
X8643810Y-17275476D02*
X8529524Y-17275476D01*
X8586667Y-17275476D02*
X8586667Y-17075476D01*
X8567619Y-17104048D01*
X8548571Y-17123095D01*
X8529524Y-17132619D01*
X8720000Y-17094524D02*
X8729524Y-17085000D01*
X8748571Y-17075476D01*
X8796190Y-17075476D01*
X8815238Y-17085000D01*
X8824762Y-17094524D01*
X8834286Y-17113571D01*
X8834286Y-17132619D01*
X8824762Y-17161190D01*
X8710476Y-17275476D01*
X8834286Y-17275476D01*
X8910476Y-17075476D02*
X8910476Y-17113571D01*
X8986667Y-17075476D02*
X8986667Y-17113571D01*
X9281905Y-17351667D02*
X9272381Y-17342143D01*
X9253333Y-17313571D01*
X9243810Y-17294524D01*
X9234286Y-17265952D01*
X9224762Y-17218333D01*
X9224762Y-17180238D01*
X9234286Y-17132619D01*
X9243810Y-17104048D01*
X9253333Y-17085000D01*
X9272381Y-17056429D01*
X9281905Y-17046905D01*
X9348571Y-17094524D02*
X9358095Y-17085000D01*
X9377143Y-17075476D01*
X9424762Y-17075476D01*
X9443810Y-17085000D01*
X9453333Y-17094524D01*
X9462857Y-17113571D01*
X9462857Y-17132619D01*
X9453333Y-17161190D01*
X9339048Y-17275476D01*
X9462857Y-17275476D01*
X9700952Y-17275476D02*
X9700952Y-17075476D01*
X9786667Y-17275476D02*
X9786667Y-17170714D01*
X9777143Y-17151667D01*
X9758095Y-17142143D01*
X9729524Y-17142143D01*
X9710476Y-17151667D01*
X9700952Y-17161190D01*
X9910476Y-17275476D02*
X9891429Y-17265952D01*
X9881905Y-17256429D01*
X9872381Y-17237381D01*
X9872381Y-17180238D01*
X9881905Y-17161190D01*
X9891429Y-17151667D01*
X9910476Y-17142143D01*
X9939048Y-17142143D01*
X9958095Y-17151667D01*
X9967619Y-17161190D01*
X9977143Y-17180238D01*
X9977143Y-17237381D01*
X9967619Y-17256429D01*
X9958095Y-17265952D01*
X9939048Y-17275476D01*
X9910476Y-17275476D01*
X10091429Y-17275476D02*
X10072381Y-17265952D01*
X10062857Y-17246905D01*
X10062857Y-17075476D01*
X10243810Y-17265952D02*
X10224762Y-17275476D01*
X10186667Y-17275476D01*
X10167619Y-17265952D01*
X10158095Y-17246905D01*
X10158095Y-17170714D01*
X10167619Y-17151667D01*
X10186667Y-17142143D01*
X10224762Y-17142143D01*
X10243810Y-17151667D01*
X10253333Y-17170714D01*
X10253333Y-17189762D01*
X10158095Y-17208810D01*
X10329524Y-17265952D02*
X10348571Y-17275476D01*
X10386667Y-17275476D01*
X10405714Y-17265952D01*
X10415238Y-17246905D01*
X10415238Y-17237381D01*
X10405714Y-17218333D01*
X10386667Y-17208810D01*
X10358095Y-17208810D01*
X10339048Y-17199286D01*
X10329524Y-17180238D01*
X10329524Y-17170714D01*
X10339048Y-17151667D01*
X10358095Y-17142143D01*
X10386667Y-17142143D01*
X10405714Y-17151667D01*
X10481905Y-17351667D02*
X10491429Y-17342143D01*
X10510476Y-17313571D01*
X10520000Y-17294524D01*
X10529524Y-17265952D01*
X10539048Y-17218333D01*
X10539048Y-17180238D01*
X10529524Y-17132619D01*
X10520000Y-17104048D01*
X10510476Y-17085000D01*
X10491429Y-17056429D01*
X10481905Y-17046905D01*
D16*
X5640000Y-17519000D02*
X5710000Y-17449000D01*
X5640000Y-17379000D01*
X5570000Y-17449000D01*
X5640000Y-17519000D01*
D11*
X6072381Y-17539476D02*
X5958095Y-17539476D01*
X6015238Y-17539476D02*
X6015238Y-17339476D01*
X5996190Y-17368048D01*
X5977143Y-17387095D01*
X5958095Y-17396619D01*
X6158095Y-17520429D02*
X6167619Y-17529952D01*
X6158095Y-17539476D01*
X6148571Y-17529952D01*
X6158095Y-17520429D01*
X6158095Y-17539476D01*
X6339048Y-17406143D02*
X6339048Y-17539476D01*
X6291428Y-17329952D02*
X6243809Y-17472810D01*
X6367619Y-17472810D01*
X6481905Y-17339476D02*
X6500952Y-17339476D01*
X6520000Y-17349000D01*
X6529524Y-17358524D01*
X6539048Y-17377571D01*
X6548571Y-17415667D01*
X6548571Y-17463286D01*
X6539048Y-17501381D01*
X6529524Y-17520429D01*
X6520000Y-17529952D01*
X6500952Y-17539476D01*
X6481905Y-17539476D01*
X6462857Y-17529952D01*
X6453333Y-17520429D01*
X6443809Y-17501381D01*
X6434286Y-17463286D01*
X6434286Y-17415667D01*
X6443809Y-17377571D01*
X6453333Y-17358524D01*
X6462857Y-17349000D01*
X6481905Y-17339476D01*
X6672381Y-17339476D02*
X6691428Y-17339476D01*
X6710476Y-17349000D01*
X6720000Y-17358524D01*
X6729524Y-17377571D01*
X6739048Y-17415667D01*
X6739048Y-17463286D01*
X6729524Y-17501381D01*
X6720000Y-17520429D01*
X6710476Y-17529952D01*
X6691428Y-17539476D01*
X6672381Y-17539476D01*
X6653333Y-17529952D01*
X6643809Y-17520429D01*
X6634286Y-17501381D01*
X6624762Y-17463286D01*
X6624762Y-17415667D01*
X6634286Y-17377571D01*
X6643809Y-17358524D01*
X6653333Y-17349000D01*
X6672381Y-17339476D01*
X6824762Y-17539476D02*
X6824762Y-17406143D01*
X6824762Y-17425190D02*
X6834286Y-17415667D01*
X6853333Y-17406143D01*
X6881905Y-17406143D01*
X6900952Y-17415667D01*
X6910476Y-17434714D01*
X6910476Y-17539476D01*
X6910476Y-17434714D02*
X6920000Y-17415667D01*
X6939048Y-17406143D01*
X6967619Y-17406143D01*
X6986667Y-17415667D01*
X6996190Y-17434714D01*
X6996190Y-17539476D01*
X7091428Y-17539476D02*
X7091428Y-17406143D01*
X7091428Y-17425190D02*
X7100952Y-17415667D01*
X7120000Y-17406143D01*
X7148571Y-17406143D01*
X7167619Y-17415667D01*
X7177143Y-17434714D01*
X7177143Y-17539476D01*
X7177143Y-17434714D02*
X7186667Y-17415667D01*
X7205714Y-17406143D01*
X7234286Y-17406143D01*
X7253333Y-17415667D01*
X7262857Y-17434714D01*
X7262857Y-17539476D01*
X7653333Y-17329952D02*
X7481905Y-17587095D01*
X7910476Y-17339476D02*
X7929524Y-17339476D01*
X7948571Y-17349000D01*
X7958095Y-17358524D01*
X7967619Y-17377571D01*
X7977143Y-17415667D01*
X7977143Y-17463286D01*
X7967619Y-17501381D01*
X7958095Y-17520429D01*
X7948571Y-17529952D01*
X7929524Y-17539476D01*
X7910476Y-17539476D01*
X7891428Y-17529952D01*
X7881905Y-17520429D01*
X7872381Y-17501381D01*
X7862857Y-17463286D01*
X7862857Y-17415667D01*
X7872381Y-17377571D01*
X7881905Y-17358524D01*
X7891428Y-17349000D01*
X7910476Y-17339476D01*
X8062857Y-17520429D02*
X8072381Y-17529952D01*
X8062857Y-17539476D01*
X8053333Y-17529952D01*
X8062857Y-17520429D01*
X8062857Y-17539476D01*
X8196190Y-17339476D02*
X8215238Y-17339476D01*
X8234286Y-17349000D01*
X8243809Y-17358524D01*
X8253333Y-17377571D01*
X8262857Y-17415667D01*
X8262857Y-17463286D01*
X8253333Y-17501381D01*
X8243809Y-17520429D01*
X8234286Y-17529952D01*
X8215238Y-17539476D01*
X8196190Y-17539476D01*
X8177143Y-17529952D01*
X8167619Y-17520429D01*
X8158095Y-17501381D01*
X8148571Y-17463286D01*
X8148571Y-17415667D01*
X8158095Y-17377571D01*
X8167619Y-17358524D01*
X8177143Y-17349000D01*
X8196190Y-17339476D01*
X8443810Y-17339476D02*
X8348571Y-17339476D01*
X8339048Y-17434714D01*
X8348571Y-17425190D01*
X8367619Y-17415667D01*
X8415238Y-17415667D01*
X8434286Y-17425190D01*
X8443810Y-17434714D01*
X8453333Y-17453762D01*
X8453333Y-17501381D01*
X8443810Y-17520429D01*
X8434286Y-17529952D01*
X8415238Y-17539476D01*
X8367619Y-17539476D01*
X8348571Y-17529952D01*
X8339048Y-17520429D01*
X8634286Y-17339476D02*
X8539048Y-17339476D01*
X8529524Y-17434714D01*
X8539048Y-17425190D01*
X8558095Y-17415667D01*
X8605714Y-17415667D01*
X8624762Y-17425190D01*
X8634286Y-17434714D01*
X8643810Y-17453762D01*
X8643810Y-17501381D01*
X8634286Y-17520429D01*
X8624762Y-17529952D01*
X8605714Y-17539476D01*
X8558095Y-17539476D01*
X8539048Y-17529952D01*
X8529524Y-17520429D01*
X8834286Y-17539476D02*
X8720000Y-17539476D01*
X8777143Y-17539476D02*
X8777143Y-17339476D01*
X8758095Y-17368048D01*
X8739048Y-17387095D01*
X8720000Y-17396619D01*
X8910476Y-17339476D02*
X8910476Y-17377571D01*
X8986667Y-17339476D02*
X8986667Y-17377571D01*
X9281905Y-17615667D02*
X9272381Y-17606143D01*
X9253333Y-17577571D01*
X9243810Y-17558524D01*
X9234286Y-17529952D01*
X9224762Y-17482333D01*
X9224762Y-17444238D01*
X9234286Y-17396619D01*
X9243810Y-17368048D01*
X9253333Y-17349000D01*
X9272381Y-17320429D01*
X9281905Y-17310905D01*
X9443810Y-17406143D02*
X9443810Y-17539476D01*
X9396190Y-17329952D02*
X9348571Y-17472810D01*
X9472381Y-17472810D01*
X9700952Y-17539476D02*
X9700952Y-17339476D01*
X9786667Y-17539476D02*
X9786667Y-17434714D01*
X9777143Y-17415667D01*
X9758095Y-17406143D01*
X9729524Y-17406143D01*
X9710476Y-17415667D01*
X9700952Y-17425190D01*
X9910476Y-17539476D02*
X9891429Y-17529952D01*
X9881905Y-17520429D01*
X9872381Y-17501381D01*
X9872381Y-17444238D01*
X9881905Y-17425190D01*
X9891429Y-17415667D01*
X9910476Y-17406143D01*
X9939048Y-17406143D01*
X9958095Y-17415667D01*
X9967619Y-17425190D01*
X9977143Y-17444238D01*
X9977143Y-17501381D01*
X9967619Y-17520429D01*
X9958095Y-17529952D01*
X9939048Y-17539476D01*
X9910476Y-17539476D01*
X10091429Y-17539476D02*
X10072381Y-17529952D01*
X10062857Y-17510905D01*
X10062857Y-17339476D01*
X10243810Y-17529952D02*
X10224762Y-17539476D01*
X10186667Y-17539476D01*
X10167619Y-17529952D01*
X10158095Y-17510905D01*
X10158095Y-17434714D01*
X10167619Y-17415667D01*
X10186667Y-17406143D01*
X10224762Y-17406143D01*
X10243810Y-17415667D01*
X10253333Y-17434714D01*
X10253333Y-17453762D01*
X10158095Y-17472810D01*
X10329524Y-17529952D02*
X10348571Y-17539476D01*
X10386667Y-17539476D01*
X10405714Y-17529952D01*
X10415238Y-17510905D01*
X10415238Y-17501381D01*
X10405714Y-17482333D01*
X10386667Y-17472810D01*
X10358095Y-17472810D01*
X10339048Y-17463286D01*
X10329524Y-17444238D01*
X10329524Y-17434714D01*
X10339048Y-17415667D01*
X10358095Y-17406143D01*
X10386667Y-17406143D01*
X10405714Y-17415667D01*
X10481905Y-17615667D02*
X10491429Y-17606143D01*
X10510476Y-17577571D01*
X10520000Y-17558524D01*
X10529524Y-17529952D01*
X10539048Y-17482333D01*
X10539048Y-17444238D01*
X10529524Y-17396619D01*
X10520000Y-17368048D01*
X10510476Y-17349000D01*
X10491429Y-17320429D01*
X10481905Y-17310905D01*
X5510000Y-17613000D02*
X5710000Y-17813000D01*
X5710000Y-17613000D02*
X5510000Y-17813000D01*
X5710000Y-17713000D02*
G75*
G03*
X5710000Y-17713000I-100000J0D01*
G01*
X5958095Y-17622524D02*
X5967619Y-17613000D01*
X5986667Y-17603476D01*
X6034286Y-17603476D01*
X6053333Y-17613000D01*
X6062857Y-17622524D01*
X6072381Y-17641571D01*
X6072381Y-17660619D01*
X6062857Y-17689190D01*
X5948571Y-17803476D01*
X6072381Y-17803476D01*
X6158095Y-17784429D02*
X6167619Y-17793952D01*
X6158095Y-17803476D01*
X6148571Y-17793952D01*
X6158095Y-17784429D01*
X6158095Y-17803476D01*
X6358095Y-17803476D02*
X6243809Y-17803476D01*
X6300952Y-17803476D02*
X6300952Y-17603476D01*
X6281905Y-17632048D01*
X6262857Y-17651095D01*
X6243809Y-17660619D01*
X6481905Y-17603476D02*
X6500952Y-17603476D01*
X6520000Y-17613000D01*
X6529524Y-17622524D01*
X6539048Y-17641571D01*
X6548571Y-17679667D01*
X6548571Y-17727286D01*
X6539048Y-17765381D01*
X6529524Y-17784429D01*
X6520000Y-17793952D01*
X6500952Y-17803476D01*
X6481905Y-17803476D01*
X6462857Y-17793952D01*
X6453333Y-17784429D01*
X6443809Y-17765381D01*
X6434286Y-17727286D01*
X6434286Y-17679667D01*
X6443809Y-17641571D01*
X6453333Y-17622524D01*
X6462857Y-17613000D01*
X6481905Y-17603476D01*
X6672381Y-17603476D02*
X6691428Y-17603476D01*
X6710476Y-17613000D01*
X6720000Y-17622524D01*
X6729524Y-17641571D01*
X6739048Y-17679667D01*
X6739048Y-17727286D01*
X6729524Y-17765381D01*
X6720000Y-17784429D01*
X6710476Y-17793952D01*
X6691428Y-17803476D01*
X6672381Y-17803476D01*
X6653333Y-17793952D01*
X6643809Y-17784429D01*
X6634286Y-17765381D01*
X6624762Y-17727286D01*
X6624762Y-17679667D01*
X6634286Y-17641571D01*
X6643809Y-17622524D01*
X6653333Y-17613000D01*
X6672381Y-17603476D01*
X6824762Y-17803476D02*
X6824762Y-17670143D01*
X6824762Y-17689190D02*
X6834286Y-17679667D01*
X6853333Y-17670143D01*
X6881905Y-17670143D01*
X6900952Y-17679667D01*
X6910476Y-17698714D01*
X6910476Y-17803476D01*
X6910476Y-17698714D02*
X6920000Y-17679667D01*
X6939048Y-17670143D01*
X6967619Y-17670143D01*
X6986667Y-17679667D01*
X6996190Y-17698714D01*
X6996190Y-17803476D01*
X7091428Y-17803476D02*
X7091428Y-17670143D01*
X7091428Y-17689190D02*
X7100952Y-17679667D01*
X7120000Y-17670143D01*
X7148571Y-17670143D01*
X7167619Y-17679667D01*
X7177143Y-17698714D01*
X7177143Y-17803476D01*
X7177143Y-17698714D02*
X7186667Y-17679667D01*
X7205714Y-17670143D01*
X7234286Y-17670143D01*
X7253333Y-17679667D01*
X7262857Y-17698714D01*
X7262857Y-17803476D01*
X7653333Y-17593952D02*
X7481905Y-17851095D01*
X7910476Y-17603476D02*
X7929524Y-17603476D01*
X7948571Y-17613000D01*
X7958095Y-17622524D01*
X7967619Y-17641571D01*
X7977143Y-17679667D01*
X7977143Y-17727286D01*
X7967619Y-17765381D01*
X7958095Y-17784429D01*
X7948571Y-17793952D01*
X7929524Y-17803476D01*
X7910476Y-17803476D01*
X7891428Y-17793952D01*
X7881905Y-17784429D01*
X7872381Y-17765381D01*
X7862857Y-17727286D01*
X7862857Y-17679667D01*
X7872381Y-17641571D01*
X7881905Y-17622524D01*
X7891428Y-17613000D01*
X7910476Y-17603476D01*
X8062857Y-17784429D02*
X8072381Y-17793952D01*
X8062857Y-17803476D01*
X8053333Y-17793952D01*
X8062857Y-17784429D01*
X8062857Y-17803476D01*
X8196190Y-17603476D02*
X8215238Y-17603476D01*
X8234286Y-17613000D01*
X8243809Y-17622524D01*
X8253333Y-17641571D01*
X8262857Y-17679667D01*
X8262857Y-17727286D01*
X8253333Y-17765381D01*
X8243809Y-17784429D01*
X8234286Y-17793952D01*
X8215238Y-17803476D01*
X8196190Y-17803476D01*
X8177143Y-17793952D01*
X8167619Y-17784429D01*
X8158095Y-17765381D01*
X8148571Y-17727286D01*
X8148571Y-17679667D01*
X8158095Y-17641571D01*
X8167619Y-17622524D01*
X8177143Y-17613000D01*
X8196190Y-17603476D01*
X8377143Y-17689190D02*
X8358095Y-17679667D01*
X8348571Y-17670143D01*
X8339048Y-17651095D01*
X8339048Y-17641571D01*
X8348571Y-17622524D01*
X8358095Y-17613000D01*
X8377143Y-17603476D01*
X8415238Y-17603476D01*
X8434286Y-17613000D01*
X8443810Y-17622524D01*
X8453333Y-17641571D01*
X8453333Y-17651095D01*
X8443810Y-17670143D01*
X8434286Y-17679667D01*
X8415238Y-17689190D01*
X8377143Y-17689190D01*
X8358095Y-17698714D01*
X8348571Y-17708238D01*
X8339048Y-17727286D01*
X8339048Y-17765381D01*
X8348571Y-17784429D01*
X8358095Y-17793952D01*
X8377143Y-17803476D01*
X8415238Y-17803476D01*
X8434286Y-17793952D01*
X8443810Y-17784429D01*
X8453333Y-17765381D01*
X8453333Y-17727286D01*
X8443810Y-17708238D01*
X8434286Y-17698714D01*
X8415238Y-17689190D01*
X8529524Y-17622524D02*
X8539048Y-17613000D01*
X8558095Y-17603476D01*
X8605714Y-17603476D01*
X8624762Y-17613000D01*
X8634286Y-17622524D01*
X8643810Y-17641571D01*
X8643810Y-17660619D01*
X8634286Y-17689190D01*
X8520000Y-17803476D01*
X8643810Y-17803476D01*
X8710476Y-17603476D02*
X8843810Y-17603476D01*
X8758095Y-17803476D01*
X8910476Y-17603476D02*
X8910476Y-17641571D01*
X8986667Y-17603476D02*
X8986667Y-17641571D01*
X9281905Y-17879667D02*
X9272381Y-17870143D01*
X9253333Y-17841571D01*
X9243810Y-17822524D01*
X9234286Y-17793952D01*
X9224762Y-17746333D01*
X9224762Y-17708238D01*
X9234286Y-17660619D01*
X9243810Y-17632048D01*
X9253333Y-17613000D01*
X9272381Y-17584429D01*
X9281905Y-17574905D01*
X9443810Y-17670143D02*
X9443810Y-17803476D01*
X9396190Y-17593952D02*
X9348571Y-17736810D01*
X9472381Y-17736810D01*
X9700952Y-17803476D02*
X9700952Y-17603476D01*
X9786667Y-17803476D02*
X9786667Y-17698714D01*
X9777143Y-17679667D01*
X9758095Y-17670143D01*
X9729524Y-17670143D01*
X9710476Y-17679667D01*
X9700952Y-17689190D01*
X9910476Y-17803476D02*
X9891429Y-17793952D01*
X9881905Y-17784429D01*
X9872381Y-17765381D01*
X9872381Y-17708238D01*
X9881905Y-17689190D01*
X9891429Y-17679667D01*
X9910476Y-17670143D01*
X9939048Y-17670143D01*
X9958095Y-17679667D01*
X9967619Y-17689190D01*
X9977143Y-17708238D01*
X9977143Y-17765381D01*
X9967619Y-17784429D01*
X9958095Y-17793952D01*
X9939048Y-17803476D01*
X9910476Y-17803476D01*
X10091429Y-17803476D02*
X10072381Y-17793952D01*
X10062857Y-17774905D01*
X10062857Y-17603476D01*
X10243810Y-17793952D02*
X10224762Y-17803476D01*
X10186667Y-17803476D01*
X10167619Y-17793952D01*
X10158095Y-17774905D01*
X10158095Y-17698714D01*
X10167619Y-17679667D01*
X10186667Y-17670143D01*
X10224762Y-17670143D01*
X10243810Y-17679667D01*
X10253333Y-17698714D01*
X10253333Y-17717762D01*
X10158095Y-17736810D01*
X10329524Y-17793952D02*
X10348571Y-17803476D01*
X10386667Y-17803476D01*
X10405714Y-17793952D01*
X10415238Y-17774905D01*
X10415238Y-17765381D01*
X10405714Y-17746333D01*
X10386667Y-17736810D01*
X10358095Y-17736810D01*
X10339048Y-17727286D01*
X10329524Y-17708238D01*
X10329524Y-17698714D01*
X10339048Y-17679667D01*
X10358095Y-17670143D01*
X10386667Y-17670143D01*
X10405714Y-17679667D01*
X10481905Y-17879667D02*
X10491429Y-17870143D01*
X10510476Y-17841571D01*
X10520000Y-17822524D01*
X10529524Y-17793952D01*
X10539048Y-17746333D01*
X10539048Y-17708238D01*
X10529524Y-17660619D01*
X10520000Y-17632048D01*
X10510476Y-17613000D01*
X10491429Y-17584429D01*
X10481905Y-17574905D01*
M02*
