M48
; DRILL file {KiCad (6.0.0)} date Mon Jun 27 07:24:52 2022
; FORMAT={-:-/ absolute / metric / decimal}
; #@! TF.CreationDate,2022-06-27T07:24:52-07:00
; #@! TF.GenerationSoftware,Kicad,Pcbnew,(6.0.0)
; #@! TF.FileFunction,Plated,1,2,PTH
FMAT,2
METRIC
; #@! TA.AperFunction,Plated,PTH,ComponentDrill
T1C0.800
; #@! TA.AperFunction,Plated,PTH,ComponentDrill
T2C1.000
; #@! TA.AperFunction,Plated,PTH,ComponentDrill
T3C1.100
; #@! TA.AperFunction,Plated,PTH,ComponentDrill
T4C1.300
; #@! TA.AperFunction,Plated,PTH,ComponentDrill
T5C1.400
; #@! TA.AperFunction,Plated,PTH,ComponentDrill
T6C2.100
%
G90
G05
T1
X136.652Y-139.446
X138.938Y-32.766
X144.272Y-139.446
X146.558Y-32.766
T2
X148.59Y-38.735
X148.59Y-41.275
X148.59Y-53.975
X148.59Y-56.515
X148.59Y-69.215
X148.59Y-71.755
X148.59Y-84.455
X148.59Y-86.995
X148.59Y-99.695
X148.59Y-102.235
X148.59Y-114.935
X148.59Y-117.475
X148.59Y-130.175
X148.59Y-132.715
X148.59Y-145.415
X148.59Y-147.955
X151.13Y-38.735
X151.13Y-41.275
X151.13Y-53.975
X151.13Y-56.515
X151.13Y-69.215
X151.13Y-71.755
X151.13Y-84.455
X151.13Y-86.995
X151.13Y-99.695
X151.13Y-102.235
X151.13Y-114.935
X151.13Y-117.475
X151.13Y-130.175
X151.13Y-132.715
X151.13Y-145.415
X151.13Y-147.955
X153.67Y-38.735
X153.67Y-41.275
X153.67Y-53.975
X153.67Y-56.515
X153.67Y-69.215
X153.67Y-71.755
X153.67Y-84.455
X153.67Y-86.995
X153.67Y-99.695
X153.67Y-102.235
X153.67Y-114.935
X153.67Y-117.475
X153.67Y-130.175
X153.67Y-132.715
X153.67Y-145.415
X153.67Y-147.955
X156.21Y-38.735
X156.21Y-41.275
X156.21Y-53.975
X156.21Y-56.515
X156.21Y-69.215
X156.21Y-71.755
X156.21Y-84.455
X156.21Y-86.995
X156.21Y-99.695
X156.21Y-102.235
X156.21Y-114.935
X156.21Y-117.475
X156.21Y-130.175
X156.21Y-132.715
X156.21Y-145.415
X156.21Y-147.955
X158.75Y-38.735
X158.75Y-41.275
X158.75Y-53.975
X158.75Y-56.515
X158.75Y-69.215
X158.75Y-71.755
X158.75Y-84.455
X158.75Y-86.995
X158.75Y-99.695
X158.75Y-102.235
X158.75Y-114.935
X158.75Y-117.475
X158.75Y-130.175
X158.75Y-132.715
X158.75Y-145.415
X158.75Y-147.955
X161.29Y-38.735
X161.29Y-41.275
X161.29Y-53.975
X161.29Y-56.515
X161.29Y-69.215
X161.29Y-71.755
X161.29Y-84.455
X161.29Y-86.995
X161.29Y-99.695
X161.29Y-102.235
X161.29Y-114.935
X161.29Y-117.475
X161.29Y-130.175
X161.29Y-132.715
X161.29Y-145.415
X161.29Y-147.955
X163.83Y-38.735
X163.83Y-41.275
X163.83Y-53.975
X163.83Y-56.515
X163.83Y-69.215
X163.83Y-71.755
X163.83Y-84.455
X163.83Y-86.995
X163.83Y-99.695
X163.83Y-102.235
X163.83Y-114.935
X163.83Y-117.475
X163.83Y-130.175
X163.83Y-132.715
X163.83Y-145.415
X163.83Y-147.955
X166.37Y-38.735
X166.37Y-41.275
X166.37Y-53.975
X166.37Y-56.515
X166.37Y-69.215
X166.37Y-71.755
X166.37Y-84.455
X166.37Y-86.995
X166.37Y-99.695
X166.37Y-102.235
X166.37Y-114.935
X166.37Y-117.475
X166.37Y-130.175
X166.37Y-132.715
X166.37Y-145.415
X166.37Y-147.955
T3
X67.569Y-44.43
X67.569Y-54.59
X67.569Y-69.83
X67.569Y-79.99
X67.569Y-106.152
X67.569Y-116.312
X67.569Y-131.552
X67.569Y-141.712
X115.829Y-54.59
X115.829Y-62.21
X115.829Y-69.83
X115.829Y-116.312
X115.829Y-123.932
X115.829Y-131.552
X124.206Y-144.272
X124.206Y-154.432
T4
X130.043Y-151.176
X135.123Y-151.176
T5
X131.826Y-32.904
X131.826Y-81.904
X131.826Y-90.816
X131.826Y-139.816
T6
X115.829Y-44.43
X115.829Y-79.99
X115.829Y-106.152
X115.829Y-141.712
T0
M30
