%TF.GenerationSoftware,KiCad,Pcbnew,(6.0.0)*%
%TF.CreationDate,2022-06-27T07:24:41-07:00*%
%TF.ProjectId,pwr2,70777232-2e6b-4696-9361-645f70636258,rev?*%
%TF.SameCoordinates,Original*%
%TF.FileFunction,Legend,Top*%
%TF.FilePolarity,Positive*%
%FSLAX46Y46*%
G04 Gerber Fmt 4.6, Leading zero omitted, Abs format (unit mm)*
G04 Created by KiCad (PCBNEW (6.0.0)) date 2022-06-27 07:24:41*
%MOMM*%
%LPD*%
G01*
G04 APERTURE LIST*
G04 Aperture macros list*
%AMRoundRect*
0 Rectangle with rounded corners*
0 $1 Rounding radius*
0 $2 $3 $4 $5 $6 $7 $8 $9 X,Y pos of 4 corners*
0 Add a 4 corners polygon primitive as box body*
4,1,4,$2,$3,$4,$5,$6,$7,$8,$9,$2,$3,0*
0 Add four circle primitives for the rounded corners*
1,1,$1+$1,$2,$3*
1,1,$1+$1,$4,$5*
1,1,$1+$1,$6,$7*
1,1,$1+$1,$8,$9*
0 Add four rect primitives between the rounded corners*
20,1,$1+$1,$2,$3,$4,$5,0*
20,1,$1+$1,$4,$5,$6,$7,0*
20,1,$1+$1,$6,$7,$8,$9,0*
20,1,$1+$1,$8,$9,$2,$3,0*%
G04 Aperture macros list end*
%ADD10C,0.300000*%
%ADD11C,0.150000*%
%ADD12C,0.120000*%
%ADD13C,2.000000*%
%ADD14C,3.500000*%
%ADD15R,2.200000X2.200000*%
%ADD16O,2.200000X2.200000*%
%ADD17RoundRect,0.250000X0.600000X-0.600000X0.600000X0.600000X-0.600000X0.600000X-0.600000X-0.600000X0*%
%ADD18C,1.700000*%
%ADD19C,3.200000*%
%ADD20C,2.600000*%
%ADD21R,2.600000X2.600000*%
%ADD22R,2.800000X2.800000*%
%ADD23O,2.800000X2.800000*%
%ADD24R,1.600000X1.600000*%
%ADD25O,1.600000X1.600000*%
G04 APERTURE END LIST*
D10*
X128968571Y-143617142D02*
X130111428Y-143617142D01*
X134556571Y-143617142D02*
X135699428Y-143617142D01*
X135128000Y-144188571D02*
X135128000Y-143045714D01*
D11*
X89667095Y-122884380D02*
X89667095Y-123693904D01*
X89714714Y-123789142D01*
X89762333Y-123836761D01*
X89857571Y-123884380D01*
X90048047Y-123884380D01*
X90143285Y-123836761D01*
X90190904Y-123789142D01*
X90238523Y-123693904D01*
X90238523Y-122884380D01*
X90667095Y-122979619D02*
X90714714Y-122932000D01*
X90809952Y-122884380D01*
X91048047Y-122884380D01*
X91143285Y-122932000D01*
X91190904Y-122979619D01*
X91238523Y-123074857D01*
X91238523Y-123170095D01*
X91190904Y-123312952D01*
X90619476Y-123884380D01*
X91238523Y-123884380D01*
X89667095Y-61162380D02*
X89667095Y-61971904D01*
X89714714Y-62067142D01*
X89762333Y-62114761D01*
X89857571Y-62162380D01*
X90048047Y-62162380D01*
X90143285Y-62114761D01*
X90190904Y-62067142D01*
X90238523Y-61971904D01*
X90238523Y-61162380D01*
X91238523Y-62162380D02*
X90667095Y-62162380D01*
X90952809Y-62162380D02*
X90952809Y-61162380D01*
X90857571Y-61305238D01*
X90762333Y-61400476D01*
X90667095Y-61448095D01*
X122188380Y-150090095D02*
X121188380Y-150090095D01*
X121188380Y-149852000D01*
X121236000Y-149709142D01*
X121331238Y-149613904D01*
X121426476Y-149566285D01*
X121616952Y-149518666D01*
X121759809Y-149518666D01*
X121950285Y-149566285D01*
X122045523Y-149613904D01*
X122140761Y-149709142D01*
X122188380Y-149852000D01*
X122188380Y-150090095D01*
X122188380Y-148566285D02*
X122188380Y-149137714D01*
X122188380Y-148852000D02*
X121188380Y-148852000D01*
X121331238Y-148947238D01*
X121426476Y-149042476D01*
X121474095Y-149137714D01*
X122558380Y-154693904D02*
X121558380Y-154693904D01*
X122558380Y-154122476D02*
X121986952Y-154551047D01*
X121558380Y-154122476D02*
X122129809Y-154693904D01*
X141942380Y-139398333D02*
X142656666Y-139398333D01*
X142799523Y-139445952D01*
X142894761Y-139541190D01*
X142942380Y-139684047D01*
X142942380Y-139779285D01*
X141942380Y-138445952D02*
X141942380Y-138922142D01*
X142418571Y-138969761D01*
X142370952Y-138922142D01*
X142323333Y-138826904D01*
X142323333Y-138588809D01*
X142370952Y-138493571D01*
X142418571Y-138445952D01*
X142513809Y-138398333D01*
X142751904Y-138398333D01*
X142847142Y-138445952D01*
X142894761Y-138493571D01*
X142942380Y-138588809D01*
X142942380Y-138826904D01*
X142894761Y-138922142D01*
X142847142Y-138969761D01*
X141942380Y-108918333D02*
X142656666Y-108918333D01*
X142799523Y-108965952D01*
X142894761Y-109061190D01*
X142942380Y-109204047D01*
X142942380Y-109299285D01*
X142370952Y-108299285D02*
X142323333Y-108394523D01*
X142275714Y-108442142D01*
X142180476Y-108489761D01*
X142132857Y-108489761D01*
X142037619Y-108442142D01*
X141990000Y-108394523D01*
X141942380Y-108299285D01*
X141942380Y-108108809D01*
X141990000Y-108013571D01*
X142037619Y-107965952D01*
X142132857Y-107918333D01*
X142180476Y-107918333D01*
X142275714Y-107965952D01*
X142323333Y-108013571D01*
X142370952Y-108108809D01*
X142370952Y-108299285D01*
X142418571Y-108394523D01*
X142466190Y-108442142D01*
X142561428Y-108489761D01*
X142751904Y-108489761D01*
X142847142Y-108442142D01*
X142894761Y-108394523D01*
X142942380Y-108299285D01*
X142942380Y-108108809D01*
X142894761Y-108013571D01*
X142847142Y-107965952D01*
X142751904Y-107918333D01*
X142561428Y-107918333D01*
X142466190Y-107965952D01*
X142418571Y-108013571D01*
X142370952Y-108108809D01*
X124460095Y-82612380D02*
X124460095Y-81612380D01*
X124460095Y-82088571D02*
X125031523Y-82088571D01*
X125031523Y-82612380D02*
X125031523Y-81612380D01*
X125412476Y-81612380D02*
X126031523Y-81612380D01*
X125698190Y-81993333D01*
X125841047Y-81993333D01*
X125936285Y-82040952D01*
X125983904Y-82088571D01*
X126031523Y-82183809D01*
X126031523Y-82421904D01*
X125983904Y-82517142D01*
X125936285Y-82564761D01*
X125841047Y-82612380D01*
X125555333Y-82612380D01*
X125460095Y-82564761D01*
X125412476Y-82517142D01*
X167513095Y-29907380D02*
X167513095Y-28907380D01*
X167513095Y-29383571D02*
X168084523Y-29383571D01*
X168084523Y-29907380D02*
X168084523Y-28907380D01*
X169084523Y-29907380D02*
X168513095Y-29907380D01*
X168798809Y-29907380D02*
X168798809Y-28907380D01*
X168703571Y-29050238D01*
X168608333Y-29145476D01*
X168513095Y-29193095D01*
X132864666Y-143663380D02*
X132864666Y-144377666D01*
X132817047Y-144520523D01*
X132721809Y-144615761D01*
X132578952Y-144663380D01*
X132483714Y-144663380D01*
X133293238Y-143758619D02*
X133340857Y-143711000D01*
X133436095Y-143663380D01*
X133674190Y-143663380D01*
X133769428Y-143711000D01*
X133817047Y-143758619D01*
X133864666Y-143853857D01*
X133864666Y-143949095D01*
X133817047Y-144091952D01*
X133245619Y-144663380D01*
X133864666Y-144663380D01*
X168727380Y-154431904D02*
X167727380Y-154431904D01*
X168203571Y-154431904D02*
X168203571Y-153860476D01*
X168727380Y-153860476D02*
X167727380Y-153860476D01*
X167727380Y-152908095D02*
X167727380Y-153384285D01*
X168203571Y-153431904D01*
X168155952Y-153384285D01*
X168108333Y-153289047D01*
X168108333Y-153050952D01*
X168155952Y-152955714D01*
X168203571Y-152908095D01*
X168298809Y-152860476D01*
X168536904Y-152860476D01*
X168632142Y-152908095D01*
X168679761Y-152955714D01*
X168727380Y-153050952D01*
X168727380Y-153289047D01*
X168679761Y-153384285D01*
X168632142Y-153431904D01*
X141942380Y-63198333D02*
X142656666Y-63198333D01*
X142799523Y-63245952D01*
X142894761Y-63341190D01*
X142942380Y-63484047D01*
X142942380Y-63579285D01*
X141942380Y-62817380D02*
X141942380Y-62150714D01*
X142942380Y-62579285D01*
X143298142Y-114867666D02*
X143345761Y-114915285D01*
X143393380Y-115058142D01*
X143393380Y-115153380D01*
X143345761Y-115296238D01*
X143250523Y-115391476D01*
X143155285Y-115439095D01*
X142964809Y-115486714D01*
X142821952Y-115486714D01*
X142631476Y-115439095D01*
X142536238Y-115391476D01*
X142441000Y-115296238D01*
X142393380Y-115153380D01*
X142393380Y-115058142D01*
X142441000Y-114915285D01*
X142488619Y-114867666D01*
X142488619Y-114486714D02*
X142441000Y-114439095D01*
X142393380Y-114343857D01*
X142393380Y-114105761D01*
X142441000Y-114010523D01*
X142488619Y-113962904D01*
X142583857Y-113915285D01*
X142679095Y-113915285D01*
X142821952Y-113962904D01*
X143393380Y-114534333D01*
X143393380Y-113915285D01*
X139723904Y-142018380D02*
X139723904Y-141018380D01*
X139962000Y-141018380D01*
X140104857Y-141066000D01*
X140200095Y-141161238D01*
X140247714Y-141256476D01*
X140295333Y-141446952D01*
X140295333Y-141589809D01*
X140247714Y-141780285D01*
X140200095Y-141875523D01*
X140104857Y-141970761D01*
X139962000Y-142018380D01*
X139723904Y-142018380D01*
X140628666Y-141018380D02*
X141247714Y-141018380D01*
X140914380Y-141399333D01*
X141057238Y-141399333D01*
X141152476Y-141446952D01*
X141200095Y-141494571D01*
X141247714Y-141589809D01*
X141247714Y-141827904D01*
X141200095Y-141923142D01*
X141152476Y-141970761D01*
X141057238Y-142018380D01*
X140771523Y-142018380D01*
X140676285Y-141970761D01*
X140628666Y-141923142D01*
X144010095Y-141698380D02*
X144010095Y-140698380D01*
X144581523Y-141698380D02*
X144152952Y-141126952D01*
X144581523Y-140698380D02*
X144010095Y-141269809D01*
X59563095Y-149922380D02*
X59563095Y-148922380D01*
X59563095Y-149398571D02*
X60134523Y-149398571D01*
X60134523Y-149922380D02*
X60134523Y-148922380D01*
X60563095Y-149017619D02*
X60610714Y-148970000D01*
X60705952Y-148922380D01*
X60944047Y-148922380D01*
X61039285Y-148970000D01*
X61086904Y-149017619D01*
X61134523Y-149112857D01*
X61134523Y-149208095D01*
X61086904Y-149350952D01*
X60515476Y-149922380D01*
X61134523Y-149922380D01*
X142009904Y-31098380D02*
X142009904Y-30098380D01*
X142248000Y-30098380D01*
X142390857Y-30146000D01*
X142486095Y-30241238D01*
X142533714Y-30336476D01*
X142581333Y-30526952D01*
X142581333Y-30669809D01*
X142533714Y-30860285D01*
X142486095Y-30955523D01*
X142390857Y-31050761D01*
X142248000Y-31098380D01*
X142009904Y-31098380D01*
X142962285Y-30193619D02*
X143009904Y-30146000D01*
X143105142Y-30098380D01*
X143343238Y-30098380D01*
X143438476Y-30146000D01*
X143486095Y-30193619D01*
X143533714Y-30288857D01*
X143533714Y-30384095D01*
X143486095Y-30526952D01*
X142914666Y-31098380D01*
X143533714Y-31098380D01*
X138676095Y-31418380D02*
X138676095Y-30418380D01*
X139247523Y-31418380D02*
X138818952Y-30846952D01*
X139247523Y-30418380D02*
X138676095Y-30989809D01*
X126793142Y70581833D02*
X126840761Y70534214D01*
X126888380Y70391357D01*
X126888380Y70296119D01*
X126840761Y70153261D01*
X126745523Y70058023D01*
X126650285Y70010404D01*
X126459809Y69962785D01*
X126316952Y69962785D01*
X126126476Y70010404D01*
X126031238Y70058023D01*
X125936000Y70153261D01*
X125888380Y70296119D01*
X125888380Y70391357D01*
X125936000Y70534214D01*
X125983619Y70581833D01*
X126888380Y71534214D02*
X126888380Y70962785D01*
X126888380Y71248500D02*
X125888380Y71248500D01*
X126031238Y71153261D01*
X126126476Y71058023D01*
X126174095Y70962785D01*
X141942380Y-124158333D02*
X142656666Y-124158333D01*
X142799523Y-124205952D01*
X142894761Y-124301190D01*
X142942380Y-124444047D01*
X142942380Y-124539285D01*
X141942380Y-123777380D02*
X141942380Y-123158333D01*
X142323333Y-123491666D01*
X142323333Y-123348809D01*
X142370952Y-123253571D01*
X142418571Y-123205952D01*
X142513809Y-123158333D01*
X142751904Y-123158333D01*
X142847142Y-123205952D01*
X142894761Y-123253571D01*
X142942380Y-123348809D01*
X142942380Y-123634523D01*
X142894761Y-123729761D01*
X142847142Y-123777380D01*
X59563095Y-29907380D02*
X59563095Y-28907380D01*
X59563095Y-29383571D02*
X60134523Y-29383571D01*
X60134523Y-29907380D02*
X60134523Y-28907380D01*
X61039285Y-29240714D02*
X61039285Y-29907380D01*
X60801190Y-28859761D02*
X60563095Y-29574047D01*
X61182142Y-29574047D01*
X141942380Y-47958333D02*
X142656666Y-47958333D01*
X142799523Y-48005952D01*
X142894761Y-48101190D01*
X142942380Y-48244047D01*
X142942380Y-48339285D01*
X142275714Y-47053571D02*
X142942380Y-47053571D01*
X141894761Y-47291666D02*
X142609047Y-47529761D01*
X142609047Y-46910714D01*
X141942380Y-93678333D02*
X142656666Y-93678333D01*
X142799523Y-93725952D01*
X142894761Y-93821190D01*
X142942380Y-93964047D01*
X142942380Y-94059285D01*
X142942380Y-93154523D02*
X142942380Y-92964047D01*
X142894761Y-92868809D01*
X142847142Y-92821190D01*
X142704285Y-92725952D01*
X142513809Y-92678333D01*
X142132857Y-92678333D01*
X142037619Y-92725952D01*
X141990000Y-92773571D01*
X141942380Y-92868809D01*
X141942380Y-93059285D01*
X141990000Y-93154523D01*
X142037619Y-93202142D01*
X142132857Y-93249761D01*
X142370952Y-93249761D01*
X142466190Y-93202142D01*
X142513809Y-93154523D01*
X142561428Y-93059285D01*
X142561428Y-92868809D01*
X142513809Y-92773571D01*
X142466190Y-92725952D01*
X142370952Y-92678333D01*
X141942380Y-32718333D02*
X142656666Y-32718333D01*
X142799523Y-32765952D01*
X142894761Y-32861190D01*
X142942380Y-33004047D01*
X142942380Y-33099285D01*
X141942380Y-31813571D02*
X141942380Y-32004047D01*
X141990000Y-32099285D01*
X142037619Y-32146904D01*
X142180476Y-32242142D01*
X142370952Y-32289761D01*
X142751904Y-32289761D01*
X142847142Y-32242142D01*
X142894761Y-32194523D01*
X142942380Y-32099285D01*
X142942380Y-31908809D01*
X142894761Y-31813571D01*
X142847142Y-31765952D01*
X142751904Y-31718333D01*
X142513809Y-31718333D01*
X142418571Y-31765952D01*
X142370952Y-31813571D01*
X142323333Y-31908809D01*
X142323333Y-32099285D01*
X142370952Y-32194523D01*
X142418571Y-32242142D01*
X142513809Y-32289761D01*
X141942380Y-78438333D02*
X142656666Y-78438333D01*
X142799523Y-78485952D01*
X142894761Y-78581190D01*
X142942380Y-78724047D01*
X142942380Y-78819285D01*
X142942380Y-77438333D02*
X142942380Y-78009761D01*
X142942380Y-77724047D02*
X141942380Y-77724047D01*
X142085238Y-77819285D01*
X142180476Y-77914523D01*
X142228095Y-78009761D01*
D12*
X62744000Y-93452000D02*
X120644000Y-93452000D01*
X120644000Y-93452000D02*
X120644000Y-154452000D01*
X120644000Y-154452000D02*
X62744000Y-154452000D01*
X62744000Y-154452000D02*
X62744000Y-93452000D01*
X62744000Y-31730000D02*
X120644000Y-31730000D01*
X120644000Y-31730000D02*
X120644000Y-92730000D01*
X120644000Y-92730000D02*
X62744000Y-92730000D01*
X62744000Y-92730000D02*
X62744000Y-31730000D01*
X122736000Y-151172000D02*
X125676000Y-151172000D01*
X122736000Y-151292000D02*
X125676000Y-151292000D01*
X124206000Y-145612000D02*
X124206000Y-146632000D01*
X122736000Y-146632000D02*
X122736000Y-152072000D01*
X125676000Y-152072000D02*
X125676000Y-146632000D01*
X122736000Y-151052000D02*
X125676000Y-151052000D01*
X124206000Y-153092000D02*
X124206000Y-152072000D01*
X122736000Y-152072000D02*
X125676000Y-152072000D01*
X125676000Y-146632000D02*
X122736000Y-146632000D01*
X143380000Y-142125000D02*
X171580000Y-142125000D01*
X170280000Y-149935000D02*
X159530000Y-149935000D01*
X171580000Y-151245000D02*
X143380000Y-151245000D01*
X171580000Y-142125000D02*
X171580000Y-151245000D01*
X144680000Y-143435000D02*
X170280000Y-143435000D01*
X148590000Y-151635000D02*
X148090000Y-152635000D01*
X143380000Y-151245000D02*
X143380000Y-142125000D01*
X149090000Y-152635000D02*
X148590000Y-151635000D01*
X144680000Y-149935000D02*
X144680000Y-143435000D01*
X159530000Y-149935000D02*
X159530000Y-149935000D01*
X159530000Y-149935000D02*
X159530000Y-151245000D01*
X170280000Y-143435000D02*
X170280000Y-149935000D01*
X155430000Y-149935000D02*
X144680000Y-149935000D01*
X148090000Y-152635000D02*
X149090000Y-152635000D01*
X155430000Y-151245000D02*
X155430000Y-149935000D01*
X159530000Y-119455000D02*
X159530000Y-119455000D01*
X143380000Y-120765000D02*
X143380000Y-111645000D01*
X148090000Y-122155000D02*
X149090000Y-122155000D01*
X171580000Y-120765000D02*
X143380000Y-120765000D01*
X170280000Y-112955000D02*
X170280000Y-119455000D01*
X149090000Y-122155000D02*
X148590000Y-121155000D01*
X144680000Y-112955000D02*
X170280000Y-112955000D01*
X143380000Y-111645000D02*
X171580000Y-111645000D01*
X148590000Y-121155000D02*
X148090000Y-122155000D01*
X159530000Y-119455000D02*
X159530000Y-120765000D01*
X155430000Y-120765000D02*
X155430000Y-119455000D01*
X155430000Y-119455000D02*
X144680000Y-119455000D01*
X170280000Y-119455000D02*
X159530000Y-119455000D01*
X171580000Y-111645000D02*
X171580000Y-120765000D01*
X144680000Y-119455000D02*
X144680000Y-112955000D01*
X137303000Y-151176000D02*
G75*
G03*
X137303000Y-151176000I-2180000J0D01*
G01*
X132223000Y-151176000D02*
G75*
G03*
X132223000Y-151176000I-2180000J0D01*
G01*
X131431000Y-149522000D02*
X131324000Y-149629000D01*
X131697000Y-149788000D02*
X131590000Y-149895000D01*
X127443000Y-153476000D02*
X137723000Y-153476000D01*
X128761000Y-152723000D02*
X128655000Y-152830000D01*
X127443000Y-156536000D02*
X137723000Y-156536000D01*
X127203000Y-156776000D02*
X127703000Y-156776000D01*
X127443000Y-145216000D02*
X127443000Y-156536000D01*
X128495000Y-152457000D02*
X128389000Y-152564000D01*
X127443000Y-155976000D02*
X137723000Y-155976000D01*
X136777000Y-149788000D02*
X136382000Y-150184000D01*
X133865000Y-152168000D02*
X133470000Y-152564000D01*
X127443000Y-145216000D02*
X137723000Y-145216000D01*
X134116000Y-152450000D02*
X133736000Y-152830000D01*
X136511000Y-149522000D02*
X136131000Y-149902000D01*
X127203000Y-156036000D02*
X127203000Y-156776000D01*
X137723000Y-145216000D02*
X137723000Y-156536000D01*
X127443000Y-147276000D02*
X137723000Y-147276000D01*
X148590000Y-75435000D02*
X148090000Y-76435000D01*
X170280000Y-73735000D02*
X159530000Y-73735000D01*
X148090000Y-76435000D02*
X149090000Y-76435000D01*
X155430000Y-75045000D02*
X155430000Y-73735000D01*
X171580000Y-75045000D02*
X143380000Y-75045000D01*
X159530000Y-73735000D02*
X159530000Y-73735000D01*
X149090000Y-76435000D02*
X148590000Y-75435000D01*
X143380000Y-75045000D02*
X143380000Y-65925000D01*
X144680000Y-67235000D02*
X170280000Y-67235000D01*
X143380000Y-65925000D02*
X171580000Y-65925000D01*
X171580000Y-65925000D02*
X171580000Y-75045000D01*
X144680000Y-73735000D02*
X144680000Y-67235000D01*
X170280000Y-67235000D02*
X170280000Y-73735000D01*
X159530000Y-73735000D02*
X159530000Y-75045000D01*
X155430000Y-73735000D02*
X144680000Y-73735000D01*
X121706000Y-98146000D02*
X121706000Y-136686000D01*
X135876000Y-92546000D02*
X133776000Y-92546000D01*
X141946000Y-93946000D02*
X121706000Y-93946000D01*
X121706000Y-96046000D02*
X122756000Y-97096000D01*
X131826000Y-92456000D02*
X131826000Y-93946000D01*
X122756000Y-97096000D02*
X121706000Y-98146000D01*
X131826000Y-138176000D02*
X131826000Y-136686000D01*
X121706000Y-93946000D02*
X121706000Y-96046000D01*
X140896000Y-97096000D02*
X141946000Y-98146000D01*
X134826000Y-91496000D02*
X134826000Y-93596000D01*
X141946000Y-96046000D02*
X140896000Y-97096000D01*
X141946000Y-98146000D02*
X141946000Y-136686000D01*
X141946000Y-136686000D02*
X121706000Y-136686000D01*
X141946000Y-93946000D02*
X141946000Y-96046000D01*
X138342000Y-140566000D02*
X142582000Y-140566000D01*
X138342000Y-138326000D02*
X138342000Y-140566000D01*
X143232000Y-139446000D02*
X142582000Y-139446000D01*
X137692000Y-139446000D02*
X138342000Y-139446000D01*
X141982000Y-140566000D02*
X141982000Y-138326000D01*
X142582000Y-138326000D02*
X138342000Y-138326000D01*
X141742000Y-140566000D02*
X141742000Y-138326000D01*
X141862000Y-140566000D02*
X141862000Y-138326000D01*
X142582000Y-140566000D02*
X142582000Y-138326000D01*
X144868000Y-33886000D02*
X144868000Y-31646000D01*
X141468000Y-31646000D02*
X141468000Y-33886000D01*
X140628000Y-33886000D02*
X144868000Y-33886000D01*
X145518000Y-32766000D02*
X144868000Y-32766000D01*
X140628000Y-31646000D02*
X140628000Y-33886000D01*
X139978000Y-32766000D02*
X140628000Y-32766000D01*
X141348000Y-31646000D02*
X141348000Y-33886000D01*
X144868000Y-31646000D02*
X140628000Y-31646000D01*
X141228000Y-31646000D02*
X141228000Y-33886000D01*
X131826000Y-80264000D02*
X131826000Y-78774000D01*
X135876000Y-34634000D02*
X133776000Y-34634000D01*
X141946000Y-36034000D02*
X121706000Y-36034000D01*
X141946000Y-40234000D02*
X141946000Y-78774000D01*
X121706000Y-38134000D02*
X122756000Y-39184000D01*
X141946000Y-36034000D02*
X141946000Y-38134000D01*
X140896000Y-39184000D02*
X141946000Y-40234000D01*
X141946000Y-78774000D02*
X121706000Y-78774000D01*
X122756000Y-39184000D02*
X121706000Y-40234000D01*
X131826000Y-34544000D02*
X131826000Y-36034000D01*
X121706000Y-40234000D02*
X121706000Y-78774000D01*
X121706000Y-36034000D02*
X121706000Y-38134000D01*
X134826000Y-33584000D02*
X134826000Y-35684000D01*
X141946000Y-38134000D02*
X140896000Y-39184000D01*
X159530000Y-134695000D02*
X159530000Y-134695000D01*
X170280000Y-134695000D02*
X159530000Y-134695000D01*
X149090000Y-137395000D02*
X148590000Y-136395000D01*
X171580000Y-126885000D02*
X171580000Y-136005000D01*
X148590000Y-136395000D02*
X148090000Y-137395000D01*
X171580000Y-136005000D02*
X143380000Y-136005000D01*
X155430000Y-136005000D02*
X155430000Y-134695000D01*
X144680000Y-128195000D02*
X170280000Y-128195000D01*
X143380000Y-126885000D02*
X171580000Y-126885000D01*
X159530000Y-134695000D02*
X159530000Y-136005000D01*
X170280000Y-128195000D02*
X170280000Y-134695000D01*
X144680000Y-134695000D02*
X144680000Y-128195000D01*
X143380000Y-136005000D02*
X143380000Y-126885000D01*
X148090000Y-137395000D02*
X149090000Y-137395000D01*
X155430000Y-134695000D02*
X144680000Y-134695000D01*
X149090000Y-61195000D02*
X148590000Y-60195000D01*
X159530000Y-58495000D02*
X159530000Y-59805000D01*
X170280000Y-51995000D02*
X170280000Y-58495000D01*
X171580000Y-59805000D02*
X143380000Y-59805000D01*
X159530000Y-58495000D02*
X159530000Y-58495000D01*
X144680000Y-51995000D02*
X170280000Y-51995000D01*
X170280000Y-58495000D02*
X159530000Y-58495000D01*
X148590000Y-60195000D02*
X148090000Y-61195000D01*
X148090000Y-61195000D02*
X149090000Y-61195000D01*
X155430000Y-59805000D02*
X155430000Y-58495000D01*
X144680000Y-58495000D02*
X144680000Y-51995000D01*
X155430000Y-58495000D02*
X144680000Y-58495000D01*
X143380000Y-50685000D02*
X171580000Y-50685000D01*
X143380000Y-59805000D02*
X143380000Y-50685000D01*
X171580000Y-50685000D02*
X171580000Y-59805000D01*
X148090000Y-106915000D02*
X149090000Y-106915000D01*
X155430000Y-104215000D02*
X144680000Y-104215000D01*
X143380000Y-105525000D02*
X143380000Y-96405000D01*
X143380000Y-96405000D02*
X171580000Y-96405000D01*
X171580000Y-105525000D02*
X143380000Y-105525000D01*
X144680000Y-104215000D02*
X144680000Y-97715000D01*
X171580000Y-96405000D02*
X171580000Y-105525000D01*
X149090000Y-106915000D02*
X148590000Y-105915000D01*
X170280000Y-104215000D02*
X159530000Y-104215000D01*
X159530000Y-104215000D02*
X159530000Y-105525000D01*
X144680000Y-97715000D02*
X170280000Y-97715000D01*
X155430000Y-105525000D02*
X155430000Y-104215000D01*
X170280000Y-97715000D02*
X170280000Y-104215000D01*
X148590000Y-105915000D02*
X148090000Y-106915000D01*
X159530000Y-104215000D02*
X159530000Y-104215000D01*
X155430000Y-43255000D02*
X144680000Y-43255000D01*
X159530000Y-43255000D02*
X159530000Y-44565000D01*
X143380000Y-44565000D02*
X143380000Y-35445000D01*
X143380000Y-35445000D02*
X171580000Y-35445000D01*
X171580000Y-35445000D02*
X171580000Y-44565000D01*
X171580000Y-44565000D02*
X143380000Y-44565000D01*
X149090000Y-45955000D02*
X148590000Y-44955000D01*
X170280000Y-43255000D02*
X159530000Y-43255000D01*
X144680000Y-36755000D02*
X170280000Y-36755000D01*
X144680000Y-43255000D02*
X144680000Y-36755000D01*
X148590000Y-44955000D02*
X148090000Y-45955000D01*
X170280000Y-36755000D02*
X170280000Y-43255000D01*
X159530000Y-43255000D02*
X159530000Y-43255000D01*
X148090000Y-45955000D02*
X149090000Y-45955000D01*
X155430000Y-44565000D02*
X155430000Y-43255000D01*
X159530000Y-88975000D02*
X159530000Y-88975000D01*
X143380000Y-81165000D02*
X171580000Y-81165000D01*
X171580000Y-90285000D02*
X143380000Y-90285000D01*
X170280000Y-82475000D02*
X170280000Y-88975000D01*
X171580000Y-81165000D02*
X171580000Y-90285000D01*
X155430000Y-90285000D02*
X155430000Y-88975000D01*
X159530000Y-88975000D02*
X159530000Y-90285000D01*
X144680000Y-82475000D02*
X170280000Y-82475000D01*
X149090000Y-91675000D02*
X148590000Y-90675000D01*
X143380000Y-90285000D02*
X143380000Y-81165000D01*
X148090000Y-91675000D02*
X149090000Y-91675000D01*
X144680000Y-88975000D02*
X144680000Y-82475000D01*
X170280000Y-88975000D02*
X159530000Y-88975000D01*
X148590000Y-90675000D02*
X148090000Y-91675000D01*
X155430000Y-88975000D02*
X144680000Y-88975000D01*
%LPC*%
D13*
X67569000Y-106152000D03*
X67569000Y-116312000D03*
X67569000Y-131552000D03*
X67569000Y-141712000D03*
D14*
X115829000Y-141712000D03*
D13*
X115829000Y-131552000D03*
X115829000Y-123932000D03*
X115829000Y-116312000D03*
D14*
X115829000Y-106152000D03*
D13*
X67569000Y-44430000D03*
X67569000Y-54590000D03*
X67569000Y-69830000D03*
X67569000Y-79990000D03*
D14*
X115829000Y-79990000D03*
D13*
X115829000Y-69830000D03*
X115829000Y-62210000D03*
X115829000Y-54590000D03*
D14*
X115829000Y-44430000D03*
D15*
X124206000Y-154432000D03*
D16*
X124206000Y-144272000D03*
D17*
X148590000Y-147955000D03*
D18*
X148590000Y-145415000D03*
X151130000Y-147955000D03*
X151130000Y-145415000D03*
X153670000Y-147955000D03*
X153670000Y-145415000D03*
X156210000Y-147955000D03*
X156210000Y-145415000D03*
X158750000Y-147955000D03*
X158750000Y-145415000D03*
X161290000Y-147955000D03*
X161290000Y-145415000D03*
X163830000Y-147955000D03*
X163830000Y-145415000D03*
X166370000Y-147955000D03*
X166370000Y-145415000D03*
D17*
X148590000Y-117475000D03*
D18*
X148590000Y-114935000D03*
X151130000Y-117475000D03*
X151130000Y-114935000D03*
X153670000Y-117475000D03*
X153670000Y-114935000D03*
X156210000Y-117475000D03*
X156210000Y-114935000D03*
X158750000Y-117475000D03*
X158750000Y-114935000D03*
X161290000Y-117475000D03*
X161290000Y-114935000D03*
X163830000Y-117475000D03*
X163830000Y-114935000D03*
X166370000Y-117475000D03*
X166370000Y-114935000D03*
D19*
X125222000Y-86360000D03*
X168275000Y-33655000D03*
D20*
X135123000Y-151176000D03*
D21*
X130043000Y-151176000D03*
D19*
X168275000Y-153670000D03*
D17*
X148590000Y-71755000D03*
D18*
X148590000Y-69215000D03*
X151130000Y-71755000D03*
X151130000Y-69215000D03*
X153670000Y-71755000D03*
X153670000Y-69215000D03*
X156210000Y-71755000D03*
X156210000Y-69215000D03*
X158750000Y-71755000D03*
X158750000Y-69215000D03*
X161290000Y-71755000D03*
X161290000Y-69215000D03*
X163830000Y-71755000D03*
X163830000Y-69215000D03*
X166370000Y-71755000D03*
X166370000Y-69215000D03*
D22*
X131826000Y-90816000D03*
D23*
X131826000Y-139816000D03*
D24*
X144272000Y-139446000D03*
D25*
X136652000Y-139446000D03*
D19*
X60325000Y-153670000D03*
D24*
X138938000Y-32766000D03*
D25*
X146558000Y-32766000D03*
D22*
X131826000Y-32904000D03*
D23*
X131826000Y-81904000D03*
D17*
X148590000Y-132715000D03*
D18*
X148590000Y-130175000D03*
X151130000Y-132715000D03*
X151130000Y-130175000D03*
X153670000Y-132715000D03*
X153670000Y-130175000D03*
X156210000Y-132715000D03*
X156210000Y-130175000D03*
X158750000Y-132715000D03*
X158750000Y-130175000D03*
X161290000Y-132715000D03*
X161290000Y-130175000D03*
X163830000Y-132715000D03*
X163830000Y-130175000D03*
X166370000Y-132715000D03*
X166370000Y-130175000D03*
D19*
X60325000Y-33655000D03*
D17*
X148590000Y-56515000D03*
D18*
X148590000Y-53975000D03*
X151130000Y-56515000D03*
X151130000Y-53975000D03*
X153670000Y-56515000D03*
X153670000Y-53975000D03*
X156210000Y-56515000D03*
X156210000Y-53975000D03*
X158750000Y-56515000D03*
X158750000Y-53975000D03*
X161290000Y-56515000D03*
X161290000Y-53975000D03*
X163830000Y-56515000D03*
X163830000Y-53975000D03*
X166370000Y-56515000D03*
X166370000Y-53975000D03*
D17*
X148590000Y-102235000D03*
D18*
X148590000Y-99695000D03*
X151130000Y-102235000D03*
X151130000Y-99695000D03*
X153670000Y-102235000D03*
X153670000Y-99695000D03*
X156210000Y-102235000D03*
X156210000Y-99695000D03*
X158750000Y-102235000D03*
X158750000Y-99695000D03*
X161290000Y-102235000D03*
X161290000Y-99695000D03*
X163830000Y-102235000D03*
X163830000Y-99695000D03*
X166370000Y-102235000D03*
X166370000Y-99695000D03*
D17*
X148590000Y-41275000D03*
D18*
X148590000Y-38735000D03*
X151130000Y-41275000D03*
X151130000Y-38735000D03*
X153670000Y-41275000D03*
X153670000Y-38735000D03*
X156210000Y-41275000D03*
X156210000Y-38735000D03*
X158750000Y-41275000D03*
X158750000Y-38735000D03*
X161290000Y-41275000D03*
X161290000Y-38735000D03*
X163830000Y-41275000D03*
X163830000Y-38735000D03*
X166370000Y-41275000D03*
X166370000Y-38735000D03*
D17*
X148590000Y-86995000D03*
D18*
X148590000Y-84455000D03*
X151130000Y-86995000D03*
X151130000Y-84455000D03*
X153670000Y-86995000D03*
X153670000Y-84455000D03*
X156210000Y-86995000D03*
X156210000Y-84455000D03*
X158750000Y-86995000D03*
X158750000Y-84455000D03*
X161290000Y-86995000D03*
X161290000Y-84455000D03*
X163830000Y-86995000D03*
X163830000Y-84455000D03*
X166370000Y-86995000D03*
X166370000Y-84455000D03*
M02*
