G04 #@! TF.GenerationSoftware,KiCad,Pcbnew,(6.0.0)*
G04 #@! TF.CreationDate,2022-08-06T06:41:06-07:00*
G04 #@! TF.ProjectId,ext_amp,6578745f-616d-4702-9e6b-696361645f70,rev?*
G04 #@! TF.SameCoordinates,Original*
G04 #@! TF.FileFunction,Legend,Bot*
G04 #@! TF.FilePolarity,Positive*
%FSLAX46Y46*%
G04 Gerber Fmt 4.6, Leading zero omitted, Abs format (unit mm)*
G04 Created by KiCad (PCBNEW (6.0.0)) date 2022-08-06 06:41:06*
%MOMM*%
%LPD*%
G01*
G04 APERTURE LIST*
G04 Aperture macros list*
%AMRoundRect*
0 Rectangle with rounded corners*
0 $1 Rounding radius*
0 $2 $3 $4 $5 $6 $7 $8 $9 X,Y pos of 4 corners*
0 Add a 4 corners polygon primitive as box body*
4,1,4,$2,$3,$4,$5,$6,$7,$8,$9,$2,$3,0*
0 Add four circle primitives for the rounded corners*
1,1,$1+$1,$2,$3*
1,1,$1+$1,$4,$5*
1,1,$1+$1,$6,$7*
1,1,$1+$1,$8,$9*
0 Add four rect primitives between the rounded corners*
20,1,$1+$1,$2,$3,$4,$5,0*
20,1,$1+$1,$4,$5,$6,$7,0*
20,1,$1+$1,$6,$7,$8,$9,0*
20,1,$1+$1,$8,$9,$2,$3,0*%
G04 Aperture macros list end*
%ADD10C,1.524000*%
%ADD11RoundRect,0.250000X-0.600000X-0.600000X0.600000X-0.600000X0.600000X0.600000X-0.600000X0.600000X0*%
%ADD12C,1.700000*%
%ADD13C,3.200000*%
%ADD14R,2.200000X2.200000*%
%ADD15O,2.200000X2.200000*%
%ADD16R,2.600000X2.600000*%
%ADD17C,2.600000*%
%ADD18R,2.800000X2.800000*%
%ADD19O,2.800000X2.800000*%
G04 APERTURE END LIST*
%LPC*%
D10*
X166757000Y-73281000D03*
X169297000Y-73281000D03*
X152152000Y-73281000D03*
X154692000Y-73281000D03*
X158502000Y-95506000D03*
X161042000Y-95506000D03*
X163582000Y-95506000D03*
X147072000Y-86641000D03*
X147072000Y-84076000D03*
X174377000Y-86641000D03*
X174377000Y-84076000D03*
X135769000Y-73281000D03*
X138309000Y-73281000D03*
X121164000Y-73281000D03*
X123704000Y-73281000D03*
X127514000Y-95506000D03*
X130054000Y-95506000D03*
X132594000Y-95506000D03*
X116084000Y-86641000D03*
X116084000Y-84076000D03*
X143389000Y-86641000D03*
X143389000Y-84076000D03*
X104273000Y-73281000D03*
X106813000Y-73281000D03*
X89668000Y-73281000D03*
X92208000Y-73281000D03*
X96018000Y-95506000D03*
X98558000Y-95506000D03*
X101098000Y-95506000D03*
X84588000Y-86641000D03*
X84588000Y-84076000D03*
X111893000Y-86641000D03*
X111893000Y-84076000D03*
D11*
X94412500Y-104180000D03*
D12*
X96952500Y-104180000D03*
X94412500Y-106720000D03*
X96952500Y-106720000D03*
X94412500Y-109260000D03*
X96952500Y-109260000D03*
D11*
X145212500Y-104180000D03*
D12*
X147752500Y-104180000D03*
X145212500Y-106720000D03*
X147752500Y-106720000D03*
X145212500Y-109260000D03*
X147752500Y-109260000D03*
D13*
X85005000Y-50845000D03*
D11*
X132512500Y-104180000D03*
D12*
X135052500Y-104180000D03*
X132512500Y-106720000D03*
X135052500Y-106720000D03*
X132512500Y-109260000D03*
X135052500Y-109260000D03*
D11*
X157912500Y-104180000D03*
D12*
X160452500Y-104180000D03*
X157912500Y-106720000D03*
X160452500Y-106720000D03*
X157912500Y-109260000D03*
X160452500Y-109260000D03*
D14*
X162560000Y-68580000D03*
D15*
X172720000Y-68580000D03*
D16*
X171665000Y-106730000D03*
D17*
X171665000Y-101650000D03*
D11*
X119812500Y-104180000D03*
D12*
X122352500Y-104180000D03*
X119812500Y-106720000D03*
X122352500Y-106720000D03*
X119812500Y-109260000D03*
X122352500Y-109260000D03*
D13*
X173905000Y-113075000D03*
X173905000Y-50845000D03*
D18*
X104955000Y-59735000D03*
D19*
X153955000Y-59735000D03*
D13*
X85005000Y-113075000D03*
D11*
X107112500Y-104180000D03*
D12*
X109652500Y-104180000D03*
X107112500Y-106720000D03*
X109652500Y-106720000D03*
X107112500Y-109260000D03*
X109652500Y-109260000D03*
M02*
