%FSLAX45Y45*%
G04 Gerber Fmt 4.5, Leading zero omitted, Abs format (unit mm)*
G04 Created by KiCad (PCBNEW (6.0.0)) date 2022-08-06 06:41:08*
%MOMM*%
%LPD*%
G01*
G04 APERTURE LIST*
%TA.AperFunction,Profile*%
%ADD10C,0.100000*%
%TD*%
%ADD11C,0.200000*%
%ADD12C,0.320000*%
G04 APERTURE END LIST*
D10*
X8119500Y-4703500D02*
X17771500Y-4703500D01*
X17771500Y-4703500D02*
X17771500Y-11688500D01*
X17771500Y-11688500D02*
X8119500Y-11688500D01*
X8119500Y-11688500D02*
X8119500Y-4703500D01*
D11*
D12*
X8340500Y-4924500D02*
X8660500Y-5244500D01*
X8660500Y-4924500D02*
X8340500Y-5244500D01*
X8340500Y-11147500D02*
X8660500Y-11467500D01*
X8660500Y-11147500D02*
X8340500Y-11467500D01*
X17230500Y-4924500D02*
X17550500Y-5244500D01*
X17550500Y-4924500D02*
X17230500Y-5244500D01*
X17230500Y-11147500D02*
X17550500Y-11467500D01*
X17550500Y-11147500D02*
X17230500Y-11467500D01*
D11*
X8372119Y-12003976D02*
X8372119Y-11803976D01*
X8419738Y-11803976D01*
X8448310Y-11813500D01*
X8467357Y-11832548D01*
X8476881Y-11851595D01*
X8486405Y-11889690D01*
X8486405Y-11918262D01*
X8476881Y-11956357D01*
X8467357Y-11975405D01*
X8448310Y-11994452D01*
X8419738Y-12003976D01*
X8372119Y-12003976D01*
X8572119Y-12003976D02*
X8572119Y-11870643D01*
X8572119Y-11908738D02*
X8581643Y-11889690D01*
X8591167Y-11880167D01*
X8610214Y-11870643D01*
X8629262Y-11870643D01*
X8695929Y-12003976D02*
X8695929Y-11870643D01*
X8695929Y-11803976D02*
X8686405Y-11813500D01*
X8695929Y-11823024D01*
X8705452Y-11813500D01*
X8695929Y-11803976D01*
X8695929Y-11823024D01*
X8819738Y-12003976D02*
X8800690Y-11994452D01*
X8791167Y-11975405D01*
X8791167Y-11803976D01*
X8924500Y-12003976D02*
X8905452Y-11994452D01*
X8895929Y-11975405D01*
X8895929Y-11803976D01*
X9153071Y-12003976D02*
X9153071Y-11803976D01*
X9219738Y-11946833D01*
X9286405Y-11803976D01*
X9286405Y-12003976D01*
X9467357Y-12003976D02*
X9467357Y-11899214D01*
X9457833Y-11880167D01*
X9438786Y-11870643D01*
X9400690Y-11870643D01*
X9381643Y-11880167D01*
X9467357Y-11994452D02*
X9448310Y-12003976D01*
X9400690Y-12003976D01*
X9381643Y-11994452D01*
X9372119Y-11975405D01*
X9372119Y-11956357D01*
X9381643Y-11937309D01*
X9400690Y-11927786D01*
X9448310Y-11927786D01*
X9467357Y-11918262D01*
X9562595Y-11870643D02*
X9562595Y-12070643D01*
X9562595Y-11880167D02*
X9581643Y-11870643D01*
X9619738Y-11870643D01*
X9638786Y-11880167D01*
X9648310Y-11889690D01*
X9657833Y-11908738D01*
X9657833Y-11965881D01*
X9648310Y-11984928D01*
X9638786Y-11994452D01*
X9619738Y-12003976D01*
X9581643Y-12003976D01*
X9562595Y-11994452D01*
X9743548Y-11984928D02*
X9753071Y-11994452D01*
X9743548Y-12003976D01*
X9734024Y-11994452D01*
X9743548Y-11984928D01*
X9743548Y-12003976D01*
X9743548Y-11880167D02*
X9753071Y-11889690D01*
X9743548Y-11899214D01*
X9734024Y-11889690D01*
X9743548Y-11880167D01*
X9743548Y-11899214D01*
X7914500Y-12233500D02*
X8114500Y-12433500D01*
X8114500Y-12233500D02*
X7914500Y-12433500D01*
X8353071Y-12223976D02*
X8476881Y-12223976D01*
X8410214Y-12300167D01*
X8438786Y-12300167D01*
X8457833Y-12309690D01*
X8467357Y-12319214D01*
X8476881Y-12338262D01*
X8476881Y-12385881D01*
X8467357Y-12404928D01*
X8457833Y-12414452D01*
X8438786Y-12423976D01*
X8381643Y-12423976D01*
X8362595Y-12414452D01*
X8353071Y-12404928D01*
X8562595Y-12404928D02*
X8572119Y-12414452D01*
X8562595Y-12423976D01*
X8553071Y-12414452D01*
X8562595Y-12404928D01*
X8562595Y-12423976D01*
X8648310Y-12243024D02*
X8657833Y-12233500D01*
X8676881Y-12223976D01*
X8724500Y-12223976D01*
X8743548Y-12233500D01*
X8753071Y-12243024D01*
X8762595Y-12262071D01*
X8762595Y-12281119D01*
X8753071Y-12309690D01*
X8638786Y-12423976D01*
X8762595Y-12423976D01*
X8886405Y-12223976D02*
X8905452Y-12223976D01*
X8924500Y-12233500D01*
X8934024Y-12243024D01*
X8943548Y-12262071D01*
X8953071Y-12300167D01*
X8953071Y-12347786D01*
X8943548Y-12385881D01*
X8934024Y-12404928D01*
X8924500Y-12414452D01*
X8905452Y-12423976D01*
X8886405Y-12423976D01*
X8867357Y-12414452D01*
X8857833Y-12404928D01*
X8848310Y-12385881D01*
X8838786Y-12347786D01*
X8838786Y-12300167D01*
X8848310Y-12262071D01*
X8857833Y-12243024D01*
X8867357Y-12233500D01*
X8886405Y-12223976D01*
X9076881Y-12223976D02*
X9095929Y-12223976D01*
X9114976Y-12233500D01*
X9124500Y-12243024D01*
X9134024Y-12262071D01*
X9143548Y-12300167D01*
X9143548Y-12347786D01*
X9134024Y-12385881D01*
X9124500Y-12404928D01*
X9114976Y-12414452D01*
X9095929Y-12423976D01*
X9076881Y-12423976D01*
X9057833Y-12414452D01*
X9048310Y-12404928D01*
X9038786Y-12385881D01*
X9029262Y-12347786D01*
X9029262Y-12300167D01*
X9038786Y-12262071D01*
X9048310Y-12243024D01*
X9057833Y-12233500D01*
X9076881Y-12223976D01*
X9229262Y-12423976D02*
X9229262Y-12290643D01*
X9229262Y-12309690D02*
X9238786Y-12300167D01*
X9257833Y-12290643D01*
X9286405Y-12290643D01*
X9305452Y-12300167D01*
X9314976Y-12319214D01*
X9314976Y-12423976D01*
X9314976Y-12319214D02*
X9324500Y-12300167D01*
X9343548Y-12290643D01*
X9372119Y-12290643D01*
X9391167Y-12300167D01*
X9400690Y-12319214D01*
X9400690Y-12423976D01*
X9495929Y-12423976D02*
X9495929Y-12290643D01*
X9495929Y-12309690D02*
X9505452Y-12300167D01*
X9524500Y-12290643D01*
X9553071Y-12290643D01*
X9572119Y-12300167D01*
X9581643Y-12319214D01*
X9581643Y-12423976D01*
X9581643Y-12319214D02*
X9591167Y-12300167D01*
X9610214Y-12290643D01*
X9638786Y-12290643D01*
X9657833Y-12300167D01*
X9667357Y-12319214D01*
X9667357Y-12423976D01*
X10057833Y-12214452D02*
X9886405Y-12471595D01*
X10314976Y-12223976D02*
X10334024Y-12223976D01*
X10353071Y-12233500D01*
X10362595Y-12243024D01*
X10372119Y-12262071D01*
X10381643Y-12300167D01*
X10381643Y-12347786D01*
X10372119Y-12385881D01*
X10362595Y-12404928D01*
X10353071Y-12414452D01*
X10334024Y-12423976D01*
X10314976Y-12423976D01*
X10295929Y-12414452D01*
X10286405Y-12404928D01*
X10276881Y-12385881D01*
X10267357Y-12347786D01*
X10267357Y-12300167D01*
X10276881Y-12262071D01*
X10286405Y-12243024D01*
X10295929Y-12233500D01*
X10314976Y-12223976D01*
X10467357Y-12404928D02*
X10476881Y-12414452D01*
X10467357Y-12423976D01*
X10457833Y-12414452D01*
X10467357Y-12404928D01*
X10467357Y-12423976D01*
X10667357Y-12423976D02*
X10553071Y-12423976D01*
X10610214Y-12423976D02*
X10610214Y-12223976D01*
X10591167Y-12252548D01*
X10572119Y-12271595D01*
X10553071Y-12281119D01*
X10743548Y-12243024D02*
X10753071Y-12233500D01*
X10772119Y-12223976D01*
X10819738Y-12223976D01*
X10838786Y-12233500D01*
X10848310Y-12243024D01*
X10857833Y-12262071D01*
X10857833Y-12281119D01*
X10848310Y-12309690D01*
X10734024Y-12423976D01*
X10857833Y-12423976D01*
X11029262Y-12223976D02*
X10991167Y-12223976D01*
X10972119Y-12233500D01*
X10962595Y-12243024D01*
X10943548Y-12271595D01*
X10934024Y-12309690D01*
X10934024Y-12385881D01*
X10943548Y-12404928D01*
X10953071Y-12414452D01*
X10972119Y-12423976D01*
X11010214Y-12423976D01*
X11029262Y-12414452D01*
X11038786Y-12404928D01*
X11048310Y-12385881D01*
X11048310Y-12338262D01*
X11038786Y-12319214D01*
X11029262Y-12309690D01*
X11010214Y-12300167D01*
X10972119Y-12300167D01*
X10953071Y-12309690D01*
X10943548Y-12319214D01*
X10934024Y-12338262D01*
X11172119Y-12223976D02*
X11191167Y-12223976D01*
X11210214Y-12233500D01*
X11219738Y-12243024D01*
X11229262Y-12262071D01*
X11238786Y-12300167D01*
X11238786Y-12347786D01*
X11229262Y-12385881D01*
X11219738Y-12404928D01*
X11210214Y-12414452D01*
X11191167Y-12423976D01*
X11172119Y-12423976D01*
X11153071Y-12414452D01*
X11143548Y-12404928D01*
X11134024Y-12385881D01*
X11124500Y-12347786D01*
X11124500Y-12300167D01*
X11134024Y-12262071D01*
X11143548Y-12243024D01*
X11153071Y-12233500D01*
X11172119Y-12223976D01*
X11314976Y-12223976D02*
X11314976Y-12262071D01*
X11391167Y-12223976D02*
X11391167Y-12262071D01*
X11686405Y-12500167D02*
X11676881Y-12490643D01*
X11657833Y-12462071D01*
X11648309Y-12443024D01*
X11638786Y-12414452D01*
X11629262Y-12366833D01*
X11629262Y-12328738D01*
X11638786Y-12281119D01*
X11648309Y-12252548D01*
X11657833Y-12233500D01*
X11676881Y-12204928D01*
X11686405Y-12195405D01*
X11848309Y-12290643D02*
X11848309Y-12423976D01*
X11800690Y-12214452D02*
X11753071Y-12357309D01*
X11876881Y-12357309D01*
X12105452Y-12423976D02*
X12105452Y-12223976D01*
X12191167Y-12423976D02*
X12191167Y-12319214D01*
X12181643Y-12300167D01*
X12162595Y-12290643D01*
X12134024Y-12290643D01*
X12114976Y-12300167D01*
X12105452Y-12309690D01*
X12314976Y-12423976D02*
X12295928Y-12414452D01*
X12286405Y-12404928D01*
X12276881Y-12385881D01*
X12276881Y-12328738D01*
X12286405Y-12309690D01*
X12295928Y-12300167D01*
X12314976Y-12290643D01*
X12343548Y-12290643D01*
X12362595Y-12300167D01*
X12372119Y-12309690D01*
X12381643Y-12328738D01*
X12381643Y-12385881D01*
X12372119Y-12404928D01*
X12362595Y-12414452D01*
X12343548Y-12423976D01*
X12314976Y-12423976D01*
X12495928Y-12423976D02*
X12476881Y-12414452D01*
X12467357Y-12395405D01*
X12467357Y-12223976D01*
X12648309Y-12414452D02*
X12629262Y-12423976D01*
X12591167Y-12423976D01*
X12572119Y-12414452D01*
X12562595Y-12395405D01*
X12562595Y-12319214D01*
X12572119Y-12300167D01*
X12591167Y-12290643D01*
X12629262Y-12290643D01*
X12648309Y-12300167D01*
X12657833Y-12319214D01*
X12657833Y-12338262D01*
X12562595Y-12357309D01*
X12734024Y-12414452D02*
X12753071Y-12423976D01*
X12791167Y-12423976D01*
X12810214Y-12414452D01*
X12819738Y-12395405D01*
X12819738Y-12385881D01*
X12810214Y-12366833D01*
X12791167Y-12357309D01*
X12762595Y-12357309D01*
X12743548Y-12347786D01*
X12734024Y-12328738D01*
X12734024Y-12319214D01*
X12743548Y-12300167D01*
X12762595Y-12290643D01*
X12791167Y-12290643D01*
X12810214Y-12300167D01*
X12886405Y-12500167D02*
X12895928Y-12490643D01*
X12914976Y-12462071D01*
X12924500Y-12443024D01*
X12934024Y-12414452D01*
X12943548Y-12366833D01*
X12943548Y-12328738D01*
X12934024Y-12281119D01*
X12924500Y-12252548D01*
X12914976Y-12233500D01*
X12895928Y-12204928D01*
X12886405Y-12195405D01*
X13248309Y-12500167D02*
X13238786Y-12490643D01*
X13219738Y-12462071D01*
X13210214Y-12443024D01*
X13200690Y-12414452D01*
X13191167Y-12366833D01*
X13191167Y-12328738D01*
X13200690Y-12281119D01*
X13210214Y-12252548D01*
X13219738Y-12233500D01*
X13238786Y-12204928D01*
X13248309Y-12195405D01*
X13324500Y-12290643D02*
X13324500Y-12423976D01*
X13324500Y-12309690D02*
X13334024Y-12300167D01*
X13353071Y-12290643D01*
X13381643Y-12290643D01*
X13400690Y-12300167D01*
X13410214Y-12319214D01*
X13410214Y-12423976D01*
X13534024Y-12423976D02*
X13514976Y-12414452D01*
X13505452Y-12404928D01*
X13495928Y-12385881D01*
X13495928Y-12328738D01*
X13505452Y-12309690D01*
X13514976Y-12300167D01*
X13534024Y-12290643D01*
X13562595Y-12290643D01*
X13581643Y-12300167D01*
X13591167Y-12309690D01*
X13600690Y-12328738D01*
X13600690Y-12385881D01*
X13591167Y-12404928D01*
X13581643Y-12414452D01*
X13562595Y-12423976D01*
X13534024Y-12423976D01*
X13657833Y-12290643D02*
X13734024Y-12290643D01*
X13686405Y-12223976D02*
X13686405Y-12395405D01*
X13695928Y-12414452D01*
X13714976Y-12423976D01*
X13734024Y-12423976D01*
X13953071Y-12290643D02*
X13953071Y-12490643D01*
X13953071Y-12300167D02*
X13972119Y-12290643D01*
X14010214Y-12290643D01*
X14029262Y-12300167D01*
X14038786Y-12309690D01*
X14048309Y-12328738D01*
X14048309Y-12385881D01*
X14038786Y-12404928D01*
X14029262Y-12414452D01*
X14010214Y-12423976D01*
X13972119Y-12423976D01*
X13953071Y-12414452D01*
X14162595Y-12423976D02*
X14143548Y-12414452D01*
X14134024Y-12395405D01*
X14134024Y-12223976D01*
X14324500Y-12423976D02*
X14324500Y-12319214D01*
X14314976Y-12300167D01*
X14295928Y-12290643D01*
X14257833Y-12290643D01*
X14238786Y-12300167D01*
X14324500Y-12414452D02*
X14305452Y-12423976D01*
X14257833Y-12423976D01*
X14238786Y-12414452D01*
X14229262Y-12395405D01*
X14229262Y-12376357D01*
X14238786Y-12357309D01*
X14257833Y-12347786D01*
X14305452Y-12347786D01*
X14324500Y-12338262D01*
X14391167Y-12290643D02*
X14467357Y-12290643D01*
X14419738Y-12223976D02*
X14419738Y-12395405D01*
X14429262Y-12414452D01*
X14448309Y-12423976D01*
X14467357Y-12423976D01*
X14610214Y-12414452D02*
X14591167Y-12423976D01*
X14553071Y-12423976D01*
X14534024Y-12414452D01*
X14524500Y-12395405D01*
X14524500Y-12319214D01*
X14534024Y-12300167D01*
X14553071Y-12290643D01*
X14591167Y-12290643D01*
X14610214Y-12300167D01*
X14619738Y-12319214D01*
X14619738Y-12338262D01*
X14524500Y-12357309D01*
X14791167Y-12423976D02*
X14791167Y-12223976D01*
X14791167Y-12414452D02*
X14772119Y-12423976D01*
X14734024Y-12423976D01*
X14714976Y-12414452D01*
X14705452Y-12404928D01*
X14695928Y-12385881D01*
X14695928Y-12328738D01*
X14705452Y-12309690D01*
X14714976Y-12300167D01*
X14734024Y-12290643D01*
X14772119Y-12290643D01*
X14791167Y-12300167D01*
X14867357Y-12500167D02*
X14876881Y-12490643D01*
X14895928Y-12462071D01*
X14905452Y-12443024D01*
X14914976Y-12414452D01*
X14924500Y-12366833D01*
X14924500Y-12328738D01*
X14914976Y-12281119D01*
X14905452Y-12252548D01*
X14895928Y-12233500D01*
X14876881Y-12204928D01*
X14867357Y-12195405D01*
M02*
