G04 #@! TF.GenerationSoftware,KiCad,Pcbnew,(6.0.0)*
G04 #@! TF.CreationDate,2022-08-06T06:41:06-07:00*
G04 #@! TF.ProjectId,ext_amp,6578745f-616d-4702-9e6b-696361645f70,rev?*
G04 #@! TF.SameCoordinates,Original*
G04 #@! TF.FileFunction,Copper,L2,Bot*
G04 #@! TF.FilePolarity,Positive*
%FSLAX46Y46*%
G04 Gerber Fmt 4.6, Leading zero omitted, Abs format (unit mm)*
G04 Created by KiCad (PCBNEW (6.0.0)) date 2022-08-06 06:41:06*
%MOMM*%
%LPD*%
G01*
G04 APERTURE LIST*
G04 Aperture macros list*
%AMRoundRect*
0 Rectangle with rounded corners*
0 $1 Rounding radius*
0 $2 $3 $4 $5 $6 $7 $8 $9 X,Y pos of 4 corners*
0 Add a 4 corners polygon primitive as box body*
4,1,4,$2,$3,$4,$5,$6,$7,$8,$9,$2,$3,0*
0 Add four circle primitives for the rounded corners*
1,1,$1+$1,$2,$3*
1,1,$1+$1,$4,$5*
1,1,$1+$1,$6,$7*
1,1,$1+$1,$8,$9*
0 Add four rect primitives between the rounded corners*
20,1,$1+$1,$2,$3,$4,$5,0*
20,1,$1+$1,$4,$5,$6,$7,0*
20,1,$1+$1,$6,$7,$8,$9,0*
20,1,$1+$1,$8,$9,$2,$3,0*%
G04 Aperture macros list end*
G04 #@! TA.AperFunction,ComponentPad*
%ADD10C,1.524000*%
G04 #@! TD*
G04 #@! TA.AperFunction,ComponentPad*
%ADD11RoundRect,0.250000X-0.600000X-0.600000X0.600000X-0.600000X0.600000X0.600000X-0.600000X0.600000X0*%
G04 #@! TD*
G04 #@! TA.AperFunction,ComponentPad*
%ADD12C,1.700000*%
G04 #@! TD*
G04 #@! TA.AperFunction,ComponentPad*
%ADD13R,2.200000X2.200000*%
G04 #@! TD*
G04 #@! TA.AperFunction,ComponentPad*
%ADD14O,2.200000X2.200000*%
G04 #@! TD*
G04 #@! TA.AperFunction,ComponentPad*
%ADD15R,2.600000X2.600000*%
G04 #@! TD*
G04 #@! TA.AperFunction,ComponentPad*
%ADD16C,2.600000*%
G04 #@! TD*
G04 #@! TA.AperFunction,ComponentPad*
%ADD17R,2.800000X2.800000*%
G04 #@! TD*
G04 #@! TA.AperFunction,ComponentPad*
%ADD18O,2.800000X2.800000*%
G04 #@! TD*
G04 #@! TA.AperFunction,Conductor*
%ADD19C,0.800000*%
G04 #@! TD*
G04 APERTURE END LIST*
D10*
X166757000Y-73281000D03*
X169297000Y-73281000D03*
X152152000Y-73281000D03*
X154692000Y-73281000D03*
X158502000Y-95506000D03*
X161042000Y-95506000D03*
X163582000Y-95506000D03*
X147072000Y-86641000D03*
X147072000Y-84076000D03*
X174377000Y-86641000D03*
X174377000Y-84076000D03*
X135769000Y-73281000D03*
X138309000Y-73281000D03*
X121164000Y-73281000D03*
X123704000Y-73281000D03*
X127514000Y-95506000D03*
X130054000Y-95506000D03*
X132594000Y-95506000D03*
X116084000Y-86641000D03*
X116084000Y-84076000D03*
X143389000Y-86641000D03*
X143389000Y-84076000D03*
X104273000Y-73281000D03*
X106813000Y-73281000D03*
X89668000Y-73281000D03*
X92208000Y-73281000D03*
X96018000Y-95506000D03*
X98558000Y-95506000D03*
X101098000Y-95506000D03*
X84588000Y-86641000D03*
X84588000Y-84076000D03*
X111893000Y-86641000D03*
X111893000Y-84076000D03*
D11*
X94412500Y-104180000D03*
D12*
X96952500Y-104180000D03*
X94412500Y-106720000D03*
X96952500Y-106720000D03*
X94412500Y-109260000D03*
X96952500Y-109260000D03*
D11*
X145212500Y-104180000D03*
D12*
X147752500Y-104180000D03*
X145212500Y-106720000D03*
X147752500Y-106720000D03*
X145212500Y-109260000D03*
X147752500Y-109260000D03*
D11*
X132512500Y-104180000D03*
D12*
X135052500Y-104180000D03*
X132512500Y-106720000D03*
X135052500Y-106720000D03*
X132512500Y-109260000D03*
X135052500Y-109260000D03*
D11*
X157912500Y-104180000D03*
D12*
X160452500Y-104180000D03*
X157912500Y-106720000D03*
X160452500Y-106720000D03*
X157912500Y-109260000D03*
X160452500Y-109260000D03*
D13*
X162560000Y-68580000D03*
D14*
X172720000Y-68580000D03*
D15*
X171665000Y-106730000D03*
D16*
X171665000Y-101650000D03*
D11*
X119812500Y-104180000D03*
D12*
X122352500Y-104180000D03*
X119812500Y-106720000D03*
X122352500Y-106720000D03*
X119812500Y-109260000D03*
X122352500Y-109260000D03*
D17*
X104955000Y-59735000D03*
D18*
X153955000Y-59735000D03*
D11*
X107112500Y-104180000D03*
D12*
X109652500Y-104180000D03*
X107112500Y-106720000D03*
X109652500Y-106720000D03*
X107112500Y-109260000D03*
X109652500Y-109260000D03*
D19*
X109652500Y-100381500D02*
X109652500Y-104180000D01*
X104777000Y-95506000D02*
X109652500Y-100381500D01*
X101098000Y-95506000D02*
X104777000Y-95506000D01*
X135052500Y-100254500D02*
X135052500Y-104180000D01*
X132594000Y-97796000D02*
X135052500Y-100254500D01*
X132594000Y-95506000D02*
X132594000Y-97796000D01*
X163582000Y-99181000D02*
X163582000Y-95506000D01*
X160452500Y-102310500D02*
X163582000Y-99181000D01*
X160452500Y-104180000D02*
X160452500Y-102310500D01*
X156426500Y-95506000D02*
X147752500Y-104180000D01*
X158502000Y-95506000D02*
X156426500Y-95506000D01*
X176149000Y-72009000D02*
X172720000Y-68580000D01*
X176149000Y-102246000D02*
X176149000Y-72009000D01*
X171665000Y-106730000D02*
X176149000Y-102246000D01*
G04 #@! TA.AperFunction,Conductor*
G36*
X177149121Y-47563002D02*
G01*
X177195614Y-47616658D01*
X177207000Y-47669000D01*
X177207000Y-71554272D01*
X177186998Y-71622393D01*
X177133342Y-71668886D01*
X177063068Y-71678990D01*
X176998488Y-71649496D01*
X176971881Y-71617272D01*
X176949333Y-71578218D01*
X176946185Y-71572421D01*
X176915129Y-71511470D01*
X176906273Y-71500533D01*
X176895073Y-71484237D01*
X176891343Y-71477776D01*
X176891340Y-71477772D01*
X176888040Y-71472056D01*
X176883623Y-71467150D01*
X176883619Y-71467145D01*
X176842278Y-71421231D01*
X176837994Y-71416216D01*
X176827148Y-71402823D01*
X176825072Y-71400259D01*
X176810557Y-71385744D01*
X176806016Y-71380959D01*
X176764673Y-71335043D01*
X176760253Y-71330134D01*
X176748865Y-71321860D01*
X176733832Y-71309019D01*
X174350569Y-68925756D01*
X174316543Y-68863444D01*
X174314052Y-68826775D01*
X174333086Y-68584930D01*
X174333474Y-68580000D01*
X174313609Y-68327597D01*
X174254505Y-68081409D01*
X174157616Y-67847498D01*
X174025328Y-67631624D01*
X173860898Y-67439102D01*
X173668376Y-67274672D01*
X173452502Y-67142384D01*
X173447932Y-67140491D01*
X173447928Y-67140489D01*
X173223164Y-67047389D01*
X173223162Y-67047388D01*
X173218591Y-67045495D01*
X173133968Y-67025179D01*
X172977216Y-66987546D01*
X172977210Y-66987545D01*
X172972403Y-66986391D01*
X172720000Y-66966526D01*
X172467597Y-66986391D01*
X172462790Y-66987545D01*
X172462784Y-66987546D01*
X172306032Y-67025179D01*
X172221409Y-67045495D01*
X172216838Y-67047388D01*
X172216836Y-67047389D01*
X171992072Y-67140489D01*
X171992068Y-67140491D01*
X171987498Y-67142384D01*
X171771624Y-67274672D01*
X171579102Y-67439102D01*
X171414672Y-67631624D01*
X171282384Y-67847498D01*
X171185495Y-68081409D01*
X171126391Y-68327597D01*
X171106526Y-68580000D01*
X171126391Y-68832403D01*
X171185495Y-69078591D01*
X171282384Y-69312502D01*
X171414672Y-69528376D01*
X171579102Y-69720898D01*
X171771624Y-69885328D01*
X171987498Y-70017616D01*
X171992068Y-70019509D01*
X171992072Y-70019511D01*
X172062401Y-70048642D01*
X172221409Y-70114505D01*
X172288513Y-70130615D01*
X172462784Y-70172454D01*
X172462790Y-70172455D01*
X172467597Y-70173609D01*
X172720000Y-70193474D01*
X172724930Y-70193086D01*
X172966775Y-70174052D01*
X173036255Y-70188648D01*
X173065756Y-70210569D01*
X175203595Y-72348408D01*
X175237621Y-72410720D01*
X175240500Y-72437503D01*
X175240500Y-82887591D01*
X175220498Y-82955712D01*
X175166842Y-83002205D01*
X175096568Y-83012309D01*
X175042230Y-82990804D01*
X175019191Y-82974672D01*
X175019185Y-82974668D01*
X175014677Y-82971512D01*
X175009695Y-82969189D01*
X175009690Y-82969186D01*
X174818178Y-82879883D01*
X174818177Y-82879882D01*
X174813196Y-82877560D01*
X174807888Y-82876138D01*
X174807886Y-82876137D01*
X174742051Y-82858497D01*
X174598463Y-82820022D01*
X174377000Y-82800647D01*
X174155537Y-82820022D01*
X174011949Y-82858497D01*
X173946114Y-82876137D01*
X173946112Y-82876138D01*
X173940804Y-82877560D01*
X173935823Y-82879882D01*
X173935822Y-82879883D01*
X173744311Y-82969186D01*
X173744306Y-82969189D01*
X173739324Y-82971512D01*
X173734817Y-82974668D01*
X173734815Y-82974669D01*
X173561730Y-83095864D01*
X173561727Y-83095866D01*
X173557219Y-83099023D01*
X173400023Y-83256219D01*
X173272512Y-83438324D01*
X173270189Y-83443306D01*
X173270186Y-83443311D01*
X173180883Y-83634822D01*
X173178560Y-83639804D01*
X173121022Y-83854537D01*
X173101647Y-84076000D01*
X173121022Y-84297463D01*
X173178560Y-84512196D01*
X173180882Y-84517177D01*
X173180883Y-84517178D01*
X173270186Y-84708689D01*
X173270189Y-84708694D01*
X173272512Y-84713676D01*
X173400023Y-84895781D01*
X173557219Y-85052977D01*
X173561727Y-85056134D01*
X173561730Y-85056136D01*
X173637495Y-85109187D01*
X173739323Y-85180488D01*
X173744305Y-85182811D01*
X173744310Y-85182814D01*
X173876179Y-85244305D01*
X173929464Y-85291222D01*
X173948925Y-85359500D01*
X173928383Y-85427460D01*
X173876179Y-85472695D01*
X173744311Y-85534186D01*
X173744306Y-85534189D01*
X173739324Y-85536512D01*
X173734817Y-85539668D01*
X173734815Y-85539669D01*
X173561730Y-85660864D01*
X173561727Y-85660866D01*
X173557219Y-85664023D01*
X173400023Y-85821219D01*
X173272512Y-86003324D01*
X173270189Y-86008306D01*
X173270186Y-86008311D01*
X173180883Y-86199822D01*
X173178560Y-86204804D01*
X173121022Y-86419537D01*
X173101647Y-86641000D01*
X173121022Y-86862463D01*
X173178560Y-87077196D01*
X173180882Y-87082177D01*
X173180883Y-87082178D01*
X173270186Y-87273689D01*
X173270189Y-87273694D01*
X173272512Y-87278676D01*
X173400023Y-87460781D01*
X173557219Y-87617977D01*
X173561727Y-87621134D01*
X173561730Y-87621136D01*
X173637495Y-87674187D01*
X173739323Y-87745488D01*
X173744305Y-87747811D01*
X173744310Y-87747814D01*
X173919292Y-87829409D01*
X173940804Y-87839440D01*
X173946112Y-87840862D01*
X173946114Y-87840863D01*
X174011949Y-87858503D01*
X174155537Y-87896978D01*
X174377000Y-87916353D01*
X174598463Y-87896978D01*
X174742051Y-87858503D01*
X174807886Y-87840863D01*
X174807888Y-87840862D01*
X174813196Y-87839440D01*
X174834708Y-87829409D01*
X175009690Y-87747814D01*
X175009695Y-87747811D01*
X175014677Y-87745488D01*
X175019186Y-87742331D01*
X175019191Y-87742328D01*
X175042230Y-87726196D01*
X175109504Y-87703508D01*
X175178364Y-87720793D01*
X175226948Y-87772563D01*
X175240500Y-87829409D01*
X175240500Y-101817497D01*
X175220498Y-101885618D01*
X175203595Y-101906592D01*
X172225592Y-104884595D01*
X172163280Y-104918621D01*
X172136497Y-104921500D01*
X170316866Y-104921500D01*
X170254684Y-104928255D01*
X170118295Y-104979385D01*
X170001739Y-105066739D01*
X169914385Y-105183295D01*
X169863255Y-105319684D01*
X169856500Y-105381866D01*
X169856500Y-108078134D01*
X169863255Y-108140316D01*
X169914385Y-108276705D01*
X170001739Y-108393261D01*
X170118295Y-108480615D01*
X170254684Y-108531745D01*
X170316866Y-108538500D01*
X173013134Y-108538500D01*
X173075316Y-108531745D01*
X173211705Y-108480615D01*
X173328261Y-108393261D01*
X173415615Y-108276705D01*
X173466745Y-108140316D01*
X173473500Y-108078134D01*
X173473500Y-106258503D01*
X173493502Y-106190382D01*
X173510405Y-106169408D01*
X176733832Y-102945981D01*
X176748865Y-102933140D01*
X176754913Y-102928746D01*
X176754914Y-102928745D01*
X176760253Y-102924866D01*
X176806016Y-102874041D01*
X176810557Y-102869256D01*
X176825072Y-102854741D01*
X176837994Y-102838784D01*
X176842278Y-102833769D01*
X176883619Y-102787855D01*
X176883623Y-102787850D01*
X176888040Y-102782944D01*
X176891340Y-102777228D01*
X176891343Y-102777224D01*
X176895073Y-102770763D01*
X176906273Y-102754466D01*
X176910975Y-102748660D01*
X176910976Y-102748658D01*
X176915129Y-102743530D01*
X176918199Y-102737506D01*
X176946188Y-102682574D01*
X176949335Y-102676778D01*
X176964848Y-102649908D01*
X176971881Y-102637727D01*
X177023262Y-102588734D01*
X177092976Y-102575297D01*
X177158887Y-102601684D01*
X177200070Y-102659515D01*
X177207000Y-102700727D01*
X177207000Y-116251000D01*
X177186998Y-116319121D01*
X177133342Y-116365614D01*
X177081000Y-116377000D01*
X81829000Y-116377000D01*
X81760879Y-116356998D01*
X81714386Y-116303342D01*
X81703000Y-116251000D01*
X81703000Y-113207703D01*
X82895743Y-113207703D01*
X82933268Y-113492734D01*
X83009129Y-113770036D01*
X83121923Y-114034476D01*
X83269561Y-114281161D01*
X83449313Y-114505528D01*
X83657851Y-114703423D01*
X83891317Y-114871186D01*
X83895112Y-114873195D01*
X83895113Y-114873196D01*
X83916869Y-114884715D01*
X84145392Y-115005712D01*
X84415373Y-115104511D01*
X84696264Y-115165755D01*
X84724841Y-115168004D01*
X84919282Y-115183307D01*
X84919291Y-115183307D01*
X84921739Y-115183500D01*
X85077271Y-115183500D01*
X85079407Y-115183354D01*
X85079418Y-115183354D01*
X85287548Y-115169165D01*
X85287554Y-115169164D01*
X85291825Y-115168873D01*
X85296020Y-115168004D01*
X85296022Y-115168004D01*
X85432583Y-115139724D01*
X85573342Y-115110574D01*
X85844343Y-115014607D01*
X86099812Y-114882750D01*
X86103313Y-114880289D01*
X86103317Y-114880287D01*
X86217417Y-114800096D01*
X86335023Y-114717441D01*
X86545622Y-114521740D01*
X86727713Y-114299268D01*
X86877927Y-114054142D01*
X86993483Y-113790898D01*
X87072244Y-113514406D01*
X87112751Y-113229784D01*
X87112845Y-113211951D01*
X87112867Y-113207703D01*
X171795743Y-113207703D01*
X171833268Y-113492734D01*
X171909129Y-113770036D01*
X172021923Y-114034476D01*
X172169561Y-114281161D01*
X172349313Y-114505528D01*
X172557851Y-114703423D01*
X172791317Y-114871186D01*
X172795112Y-114873195D01*
X172795113Y-114873196D01*
X172816869Y-114884715D01*
X173045392Y-115005712D01*
X173315373Y-115104511D01*
X173596264Y-115165755D01*
X173624841Y-115168004D01*
X173819282Y-115183307D01*
X173819291Y-115183307D01*
X173821739Y-115183500D01*
X173977271Y-115183500D01*
X173979407Y-115183354D01*
X173979418Y-115183354D01*
X174187548Y-115169165D01*
X174187554Y-115169164D01*
X174191825Y-115168873D01*
X174196020Y-115168004D01*
X174196022Y-115168004D01*
X174332583Y-115139724D01*
X174473342Y-115110574D01*
X174744343Y-115014607D01*
X174999812Y-114882750D01*
X175003313Y-114880289D01*
X175003317Y-114880287D01*
X175117417Y-114800096D01*
X175235023Y-114717441D01*
X175445622Y-114521740D01*
X175627713Y-114299268D01*
X175777927Y-114054142D01*
X175893483Y-113790898D01*
X175972244Y-113514406D01*
X176012751Y-113229784D01*
X176012845Y-113211951D01*
X176014235Y-112946583D01*
X176014235Y-112946576D01*
X176014257Y-112942297D01*
X175976732Y-112657266D01*
X175900871Y-112379964D01*
X175788077Y-112115524D01*
X175640439Y-111868839D01*
X175460687Y-111644472D01*
X175252149Y-111446577D01*
X175018683Y-111278814D01*
X174996843Y-111267250D01*
X174973654Y-111254972D01*
X174764608Y-111144288D01*
X174494627Y-111045489D01*
X174213736Y-110984245D01*
X174182685Y-110981801D01*
X173990718Y-110966693D01*
X173990709Y-110966693D01*
X173988261Y-110966500D01*
X173832729Y-110966500D01*
X173830593Y-110966646D01*
X173830582Y-110966646D01*
X173622452Y-110980835D01*
X173622446Y-110980836D01*
X173618175Y-110981127D01*
X173613980Y-110981996D01*
X173613978Y-110981996D01*
X173477416Y-111010277D01*
X173336658Y-111039426D01*
X173065657Y-111135393D01*
X172810188Y-111267250D01*
X172806687Y-111269711D01*
X172806683Y-111269713D01*
X172796594Y-111276804D01*
X172574977Y-111432559D01*
X172364378Y-111628260D01*
X172182287Y-111850732D01*
X172032073Y-112095858D01*
X171916517Y-112359102D01*
X171837756Y-112635594D01*
X171797249Y-112920216D01*
X171797227Y-112924505D01*
X171797226Y-112924512D01*
X171795765Y-113203417D01*
X171795743Y-113207703D01*
X87112867Y-113207703D01*
X87114235Y-112946583D01*
X87114235Y-112946576D01*
X87114257Y-112942297D01*
X87076732Y-112657266D01*
X87000871Y-112379964D01*
X86888077Y-112115524D01*
X86740439Y-111868839D01*
X86560687Y-111644472D01*
X86352149Y-111446577D01*
X86118683Y-111278814D01*
X86096843Y-111267250D01*
X86073654Y-111254972D01*
X85864608Y-111144288D01*
X85594627Y-111045489D01*
X85313736Y-110984245D01*
X85282685Y-110981801D01*
X85090718Y-110966693D01*
X85090709Y-110966693D01*
X85088261Y-110966500D01*
X84932729Y-110966500D01*
X84930593Y-110966646D01*
X84930582Y-110966646D01*
X84722452Y-110980835D01*
X84722446Y-110980836D01*
X84718175Y-110981127D01*
X84713980Y-110981996D01*
X84713978Y-110981996D01*
X84577416Y-111010277D01*
X84436658Y-111039426D01*
X84165657Y-111135393D01*
X83910188Y-111267250D01*
X83906687Y-111269711D01*
X83906683Y-111269713D01*
X83896594Y-111276804D01*
X83674977Y-111432559D01*
X83464378Y-111628260D01*
X83282287Y-111850732D01*
X83132073Y-112095858D01*
X83016517Y-112359102D01*
X82937756Y-112635594D01*
X82897249Y-112920216D01*
X82897227Y-112924505D01*
X82897226Y-112924512D01*
X82895765Y-113203417D01*
X82895743Y-113207703D01*
X81703000Y-113207703D01*
X81703000Y-109226695D01*
X93049751Y-109226695D01*
X93050048Y-109231848D01*
X93050048Y-109231851D01*
X93055511Y-109326590D01*
X93062610Y-109449715D01*
X93063747Y-109454761D01*
X93063748Y-109454767D01*
X93083619Y-109542939D01*
X93111722Y-109667639D01*
X93195766Y-109874616D01*
X93246519Y-109957438D01*
X93309791Y-110060688D01*
X93312487Y-110065088D01*
X93458750Y-110233938D01*
X93630626Y-110376632D01*
X93823500Y-110489338D01*
X94032192Y-110569030D01*
X94037260Y-110570061D01*
X94037263Y-110570062D01*
X94144517Y-110591883D01*
X94251097Y-110613567D01*
X94256272Y-110613757D01*
X94256274Y-110613757D01*
X94469173Y-110621564D01*
X94469177Y-110621564D01*
X94474337Y-110621753D01*
X94479457Y-110621097D01*
X94479459Y-110621097D01*
X94690788Y-110594025D01*
X94690789Y-110594025D01*
X94695916Y-110593368D01*
X94700866Y-110591883D01*
X94904929Y-110530661D01*
X94904934Y-110530659D01*
X94909884Y-110529174D01*
X95110494Y-110430896D01*
X95292360Y-110301173D01*
X95450596Y-110143489D01*
X95510094Y-110060689D01*
X95580953Y-109962077D01*
X95582276Y-109963028D01*
X95629145Y-109919857D01*
X95699080Y-109907625D01*
X95764526Y-109935144D01*
X95792375Y-109966994D01*
X95852487Y-110065088D01*
X95998750Y-110233938D01*
X96170626Y-110376632D01*
X96363500Y-110489338D01*
X96572192Y-110569030D01*
X96577260Y-110570061D01*
X96577263Y-110570062D01*
X96684517Y-110591883D01*
X96791097Y-110613567D01*
X96796272Y-110613757D01*
X96796274Y-110613757D01*
X97009173Y-110621564D01*
X97009177Y-110621564D01*
X97014337Y-110621753D01*
X97019457Y-110621097D01*
X97019459Y-110621097D01*
X97230788Y-110594025D01*
X97230789Y-110594025D01*
X97235916Y-110593368D01*
X97240866Y-110591883D01*
X97444929Y-110530661D01*
X97444934Y-110530659D01*
X97449884Y-110529174D01*
X97650494Y-110430896D01*
X97832360Y-110301173D01*
X97990596Y-110143489D01*
X98050094Y-110060689D01*
X98117935Y-109966277D01*
X98120953Y-109962077D01*
X98141820Y-109919857D01*
X98217636Y-109766453D01*
X98217637Y-109766451D01*
X98219930Y-109761811D01*
X98284870Y-109548069D01*
X98314029Y-109326590D01*
X98315656Y-109260000D01*
X98297352Y-109037361D01*
X98242931Y-108820702D01*
X98153854Y-108615840D01*
X98114406Y-108554862D01*
X98035322Y-108432617D01*
X98035320Y-108432614D01*
X98032514Y-108428277D01*
X97882170Y-108263051D01*
X97878119Y-108259852D01*
X97878115Y-108259848D01*
X97710914Y-108127800D01*
X97710910Y-108127798D01*
X97706859Y-108124598D01*
X97665069Y-108101529D01*
X97615098Y-108051097D01*
X97600326Y-107981654D01*
X97625442Y-107915248D01*
X97652793Y-107888642D01*
X97701747Y-107853723D01*
X97710148Y-107843023D01*
X97703160Y-107829870D01*
X96965312Y-107092022D01*
X96951368Y-107084408D01*
X96949535Y-107084539D01*
X96942920Y-107088790D01*
X96199237Y-107832473D01*
X96192477Y-107844853D01*
X96197758Y-107851907D01*
X96244469Y-107879203D01*
X96293193Y-107930841D01*
X96306264Y-108000624D01*
X96279533Y-108066396D01*
X96239084Y-108099752D01*
X96226107Y-108106507D01*
X96221974Y-108109610D01*
X96221971Y-108109612D01*
X96171223Y-108147715D01*
X96047465Y-108240635D01*
X95893129Y-108402138D01*
X95785701Y-108559621D01*
X95730793Y-108604621D01*
X95660268Y-108612792D01*
X95596521Y-108581538D01*
X95575824Y-108557054D01*
X95495322Y-108432617D01*
X95495320Y-108432614D01*
X95492514Y-108428277D01*
X95342170Y-108263051D01*
X95338119Y-108259852D01*
X95338115Y-108259848D01*
X95170914Y-108127800D01*
X95170910Y-108127798D01*
X95166859Y-108124598D01*
X95125553Y-108101796D01*
X95075584Y-108051364D01*
X95060812Y-107981921D01*
X95085928Y-107915516D01*
X95113280Y-107888909D01*
X95177610Y-107843023D01*
X95292360Y-107761173D01*
X95450596Y-107603489D01*
X95510094Y-107520689D01*
X95580953Y-107422077D01*
X95582140Y-107422930D01*
X95629460Y-107379362D01*
X95699397Y-107367145D01*
X95764838Y-107394678D01*
X95792666Y-107426512D01*
X95818959Y-107469419D01*
X95829416Y-107478880D01*
X95838194Y-107475096D01*
X96580478Y-106732812D01*
X96586856Y-106721132D01*
X97316908Y-106721132D01*
X97317039Y-106722965D01*
X97321290Y-106729580D01*
X98062974Y-107471264D01*
X98074984Y-107477823D01*
X98086723Y-107468855D01*
X98117504Y-107426019D01*
X98122815Y-107417180D01*
X98217170Y-107226267D01*
X98220969Y-107216672D01*
X98282876Y-107012915D01*
X98285055Y-107002834D01*
X98313090Y-106789887D01*
X98313609Y-106783212D01*
X98315072Y-106723364D01*
X98314878Y-106716646D01*
X98297281Y-106502604D01*
X98295596Y-106492424D01*
X98243714Y-106285875D01*
X98240394Y-106276124D01*
X98155472Y-106080814D01*
X98150605Y-106071739D01*
X98085563Y-105971197D01*
X98074877Y-105961995D01*
X98065312Y-105966398D01*
X97324522Y-106707188D01*
X97316908Y-106721132D01*
X96586856Y-106721132D01*
X96588092Y-106718868D01*
X96587961Y-106717035D01*
X96583710Y-106710420D01*
X95842349Y-105969059D01*
X95830813Y-105962759D01*
X95818531Y-105972382D01*
X95785999Y-106020072D01*
X95731087Y-106065075D01*
X95660563Y-106073246D01*
X95596816Y-106041992D01*
X95576118Y-106017508D01*
X95495322Y-105892617D01*
X95495320Y-105892614D01*
X95492514Y-105888277D01*
X95342170Y-105723051D01*
X95299506Y-105689357D01*
X95258444Y-105631441D01*
X95255212Y-105560518D01*
X95290837Y-105499107D01*
X95324147Y-105476376D01*
X95329507Y-105473865D01*
X95336446Y-105471550D01*
X95486848Y-105378478D01*
X95611805Y-105253303D01*
X95704615Y-105102738D01*
X95706918Y-105095795D01*
X95709263Y-105090766D01*
X95756180Y-105037481D01*
X95824458Y-105018021D01*
X95892418Y-105038564D01*
X95918694Y-105061520D01*
X95995360Y-105150025D01*
X95998750Y-105153938D01*
X96170626Y-105296632D01*
X96197413Y-105312285D01*
X96244455Y-105339774D01*
X96293179Y-105391412D01*
X96306250Y-105461195D01*
X96279519Y-105526967D01*
X96239062Y-105560327D01*
X96230960Y-105564544D01*
X96222234Y-105570039D01*
X96202177Y-105585099D01*
X96193723Y-105596427D01*
X96200468Y-105608758D01*
X96939688Y-106347978D01*
X96953632Y-106355592D01*
X96955465Y-106355461D01*
X96962080Y-106351210D01*
X97705889Y-105607401D01*
X97712910Y-105594544D01*
X97706111Y-105585213D01*
X97702059Y-105582521D01*
X97665102Y-105562120D01*
X97615131Y-105511687D01*
X97600359Y-105442245D01*
X97625475Y-105375839D01*
X97652827Y-105349232D01*
X97704625Y-105312285D01*
X97832360Y-105221173D01*
X97990596Y-105063489D01*
X98053296Y-104976233D01*
X98117935Y-104886277D01*
X98120953Y-104882077D01*
X98148108Y-104827134D01*
X98217636Y-104686453D01*
X98217637Y-104686451D01*
X98219930Y-104681811D01*
X98284870Y-104468069D01*
X98314029Y-104246590D01*
X98315656Y-104180000D01*
X98297352Y-103957361D01*
X98242931Y-103740702D01*
X98153854Y-103535840D01*
X98067688Y-103402647D01*
X98035322Y-103352617D01*
X98035320Y-103352614D01*
X98032514Y-103348277D01*
X97882170Y-103183051D01*
X97878119Y-103179852D01*
X97878115Y-103179848D01*
X97710914Y-103047800D01*
X97710910Y-103047798D01*
X97706859Y-103044598D01*
X97511289Y-102936638D01*
X97506420Y-102934914D01*
X97506416Y-102934912D01*
X97305587Y-102863795D01*
X97305583Y-102863794D01*
X97300712Y-102862069D01*
X97295619Y-102861162D01*
X97295616Y-102861161D01*
X97085873Y-102823800D01*
X97085867Y-102823799D01*
X97080784Y-102822894D01*
X97006952Y-102821992D01*
X96862581Y-102820228D01*
X96862579Y-102820228D01*
X96857411Y-102820165D01*
X96636591Y-102853955D01*
X96424256Y-102923357D01*
X96394275Y-102938964D01*
X96304178Y-102985866D01*
X96226107Y-103026507D01*
X96221974Y-103029610D01*
X96221971Y-103029612D01*
X96051600Y-103157530D01*
X96047465Y-103160635D01*
X95956281Y-103256054D01*
X95913527Y-103300793D01*
X95852003Y-103336223D01*
X95781090Y-103332766D01*
X95723304Y-103291520D01*
X95708333Y-103267194D01*
X95706365Y-103262994D01*
X95704050Y-103256054D01*
X95610978Y-103105652D01*
X95485803Y-102980695D01*
X95429487Y-102945981D01*
X95341468Y-102891725D01*
X95341466Y-102891724D01*
X95335238Y-102887885D01*
X95237787Y-102855562D01*
X95173889Y-102834368D01*
X95173887Y-102834368D01*
X95167361Y-102832203D01*
X95160525Y-102831503D01*
X95160522Y-102831502D01*
X95117469Y-102827091D01*
X95062900Y-102821500D01*
X93762100Y-102821500D01*
X93758854Y-102821837D01*
X93758850Y-102821837D01*
X93663192Y-102831762D01*
X93663188Y-102831763D01*
X93656334Y-102832474D01*
X93649798Y-102834655D01*
X93649796Y-102834655D01*
X93587131Y-102855562D01*
X93488554Y-102888450D01*
X93338152Y-102981522D01*
X93332979Y-102986704D01*
X93275186Y-103044598D01*
X93213195Y-103106697D01*
X93209355Y-103112927D01*
X93209354Y-103112928D01*
X93124966Y-103249831D01*
X93120385Y-103257262D01*
X93064703Y-103425139D01*
X93064003Y-103431975D01*
X93064002Y-103431978D01*
X93059591Y-103475031D01*
X93054000Y-103529600D01*
X93054000Y-104830400D01*
X93054337Y-104833646D01*
X93054337Y-104833650D01*
X93064065Y-104927402D01*
X93064974Y-104936166D01*
X93067155Y-104942702D01*
X93067155Y-104942704D01*
X93110932Y-105073919D01*
X93120950Y-105103946D01*
X93214022Y-105254348D01*
X93339197Y-105379305D01*
X93345427Y-105383145D01*
X93345428Y-105383146D01*
X93472047Y-105461195D01*
X93489762Y-105472115D01*
X93496709Y-105474419D01*
X93498776Y-105475383D01*
X93552061Y-105522299D01*
X93571523Y-105590576D01*
X93550982Y-105658536D01*
X93521181Y-105690337D01*
X93507465Y-105700635D01*
X93353129Y-105862138D01*
X93227243Y-106046680D01*
X93133188Y-106249305D01*
X93073489Y-106464570D01*
X93049751Y-106686695D01*
X93050048Y-106691848D01*
X93050048Y-106691851D01*
X93052410Y-106732812D01*
X93062610Y-106909715D01*
X93063747Y-106914761D01*
X93063748Y-106914767D01*
X93084775Y-107008069D01*
X93111722Y-107127639D01*
X93195766Y-107334616D01*
X93312487Y-107525088D01*
X93458750Y-107693938D01*
X93630626Y-107836632D01*
X93641563Y-107843023D01*
X93703945Y-107879476D01*
X93752669Y-107931114D01*
X93765740Y-108000897D01*
X93739009Y-108066669D01*
X93698555Y-108100027D01*
X93686107Y-108106507D01*
X93681974Y-108109610D01*
X93681971Y-108109612D01*
X93631223Y-108147715D01*
X93507465Y-108240635D01*
X93353129Y-108402138D01*
X93227243Y-108586680D01*
X93133188Y-108789305D01*
X93073489Y-109004570D01*
X93049751Y-109226695D01*
X81703000Y-109226695D01*
X81703000Y-95506000D01*
X94742647Y-95506000D01*
X94762022Y-95727463D01*
X94819560Y-95942196D01*
X94821882Y-95947177D01*
X94821883Y-95947178D01*
X94911186Y-96138689D01*
X94911189Y-96138694D01*
X94913512Y-96143676D01*
X94916668Y-96148183D01*
X94916669Y-96148185D01*
X94953107Y-96200223D01*
X95041023Y-96325781D01*
X95198219Y-96482977D01*
X95202727Y-96486134D01*
X95202730Y-96486136D01*
X95278495Y-96539187D01*
X95380323Y-96610488D01*
X95385305Y-96612811D01*
X95385310Y-96612814D01*
X95575810Y-96701645D01*
X95581804Y-96704440D01*
X95587112Y-96705862D01*
X95587114Y-96705863D01*
X95652949Y-96723503D01*
X95796537Y-96761978D01*
X96018000Y-96781353D01*
X96239463Y-96761978D01*
X96383051Y-96723503D01*
X96448886Y-96705863D01*
X96448888Y-96705862D01*
X96454196Y-96704440D01*
X96460190Y-96701645D01*
X96650690Y-96612814D01*
X96650695Y-96612811D01*
X96655677Y-96610488D01*
X96720959Y-96564777D01*
X97863777Y-96564777D01*
X97873074Y-96576793D01*
X97916069Y-96606898D01*
X97925555Y-96612376D01*
X98116993Y-96701645D01*
X98127285Y-96705391D01*
X98331309Y-96760059D01*
X98342104Y-96761962D01*
X98552525Y-96780372D01*
X98563475Y-96780372D01*
X98773896Y-96761962D01*
X98784691Y-96760059D01*
X98988715Y-96705391D01*
X98999007Y-96701645D01*
X99190445Y-96612376D01*
X99199931Y-96606898D01*
X99243764Y-96576207D01*
X99252139Y-96565729D01*
X99245071Y-96552281D01*
X98570812Y-95878022D01*
X98556868Y-95870408D01*
X98555035Y-95870539D01*
X98548420Y-95874790D01*
X97870207Y-96553003D01*
X97863777Y-96564777D01*
X96720959Y-96564777D01*
X96757505Y-96539187D01*
X96833270Y-96486136D01*
X96833273Y-96486134D01*
X96837781Y-96482977D01*
X96994977Y-96325781D01*
X97082894Y-96200223D01*
X97119331Y-96148185D01*
X97119332Y-96148183D01*
X97122488Y-96143676D01*
X97124811Y-96138694D01*
X97124814Y-96138689D01*
X97174081Y-96033035D01*
X97220999Y-95979750D01*
X97289276Y-95960289D01*
X97357236Y-95980831D01*
X97402471Y-96033035D01*
X97451623Y-96138441D01*
X97457103Y-96147932D01*
X97487794Y-96191765D01*
X97498271Y-96200140D01*
X97511718Y-96193072D01*
X98185978Y-95518812D01*
X98192356Y-95507132D01*
X98922408Y-95507132D01*
X98922539Y-95508965D01*
X98926790Y-95515580D01*
X99605003Y-96193793D01*
X99616777Y-96200223D01*
X99628793Y-96190926D01*
X99658897Y-96147932D01*
X99664377Y-96138441D01*
X99713529Y-96033035D01*
X99760447Y-95979750D01*
X99828724Y-95960289D01*
X99896684Y-95980831D01*
X99941919Y-96033035D01*
X99991186Y-96138689D01*
X99991189Y-96138694D01*
X99993512Y-96143676D01*
X99996668Y-96148183D01*
X99996669Y-96148185D01*
X100033107Y-96200223D01*
X100121023Y-96325781D01*
X100278219Y-96482977D01*
X100282727Y-96486134D01*
X100282730Y-96486136D01*
X100358495Y-96539187D01*
X100460323Y-96610488D01*
X100465305Y-96612811D01*
X100465310Y-96612814D01*
X100655810Y-96701645D01*
X100661804Y-96704440D01*
X100667112Y-96705862D01*
X100667114Y-96705863D01*
X100732949Y-96723503D01*
X100876537Y-96761978D01*
X101098000Y-96781353D01*
X101319463Y-96761978D01*
X101463051Y-96723503D01*
X101528886Y-96705863D01*
X101528888Y-96705862D01*
X101534196Y-96704440D01*
X101540190Y-96701645D01*
X101730690Y-96612814D01*
X101730695Y-96612811D01*
X101735677Y-96610488D01*
X101837505Y-96539187D01*
X101913270Y-96486136D01*
X101913273Y-96486134D01*
X101917781Y-96482977D01*
X101949353Y-96451405D01*
X102011665Y-96417379D01*
X102038448Y-96414500D01*
X104348497Y-96414500D01*
X104416618Y-96434502D01*
X104437592Y-96451405D01*
X108707095Y-100720908D01*
X108741121Y-100783220D01*
X108744000Y-100810003D01*
X108744000Y-103113737D01*
X108723998Y-103181858D01*
X108709094Y-103200788D01*
X108656281Y-103256054D01*
X108613527Y-103300793D01*
X108552003Y-103336223D01*
X108481090Y-103332766D01*
X108423304Y-103291520D01*
X108408333Y-103267194D01*
X108406365Y-103262994D01*
X108404050Y-103256054D01*
X108310978Y-103105652D01*
X108185803Y-102980695D01*
X108129487Y-102945981D01*
X108041468Y-102891725D01*
X108041466Y-102891724D01*
X108035238Y-102887885D01*
X107937787Y-102855562D01*
X107873889Y-102834368D01*
X107873887Y-102834368D01*
X107867361Y-102832203D01*
X107860525Y-102831503D01*
X107860522Y-102831502D01*
X107817469Y-102827091D01*
X107762900Y-102821500D01*
X106462100Y-102821500D01*
X106458854Y-102821837D01*
X106458850Y-102821837D01*
X106363192Y-102831762D01*
X106363188Y-102831763D01*
X106356334Y-102832474D01*
X106349798Y-102834655D01*
X106349796Y-102834655D01*
X106287131Y-102855562D01*
X106188554Y-102888450D01*
X106038152Y-102981522D01*
X106032979Y-102986704D01*
X105975186Y-103044598D01*
X105913195Y-103106697D01*
X105909355Y-103112927D01*
X105909354Y-103112928D01*
X105824966Y-103249831D01*
X105820385Y-103257262D01*
X105764703Y-103425139D01*
X105764003Y-103431975D01*
X105764002Y-103431978D01*
X105759591Y-103475031D01*
X105754000Y-103529600D01*
X105754000Y-104830400D01*
X105754337Y-104833646D01*
X105754337Y-104833650D01*
X105764065Y-104927402D01*
X105764974Y-104936166D01*
X105767155Y-104942702D01*
X105767155Y-104942704D01*
X105810932Y-105073919D01*
X105820950Y-105103946D01*
X105914022Y-105254348D01*
X106039197Y-105379305D01*
X106045427Y-105383145D01*
X106045428Y-105383146D01*
X106172047Y-105461195D01*
X106189762Y-105472115D01*
X106196709Y-105474419D01*
X106198776Y-105475383D01*
X106252061Y-105522299D01*
X106271523Y-105590576D01*
X106250982Y-105658536D01*
X106221181Y-105690337D01*
X106207465Y-105700635D01*
X106053129Y-105862138D01*
X105927243Y-106046680D01*
X105833188Y-106249305D01*
X105773489Y-106464570D01*
X105749751Y-106686695D01*
X105750048Y-106691848D01*
X105750048Y-106691851D01*
X105752410Y-106732812D01*
X105762610Y-106909715D01*
X105763747Y-106914761D01*
X105763748Y-106914767D01*
X105784775Y-107008069D01*
X105811722Y-107127639D01*
X105895766Y-107334616D01*
X106012487Y-107525088D01*
X106158750Y-107693938D01*
X106330626Y-107836632D01*
X106341563Y-107843023D01*
X106403945Y-107879476D01*
X106452669Y-107931114D01*
X106465740Y-108000897D01*
X106439009Y-108066669D01*
X106398555Y-108100027D01*
X106386107Y-108106507D01*
X106381974Y-108109610D01*
X106381971Y-108109612D01*
X106331223Y-108147715D01*
X106207465Y-108240635D01*
X106053129Y-108402138D01*
X105927243Y-108586680D01*
X105833188Y-108789305D01*
X105773489Y-109004570D01*
X105749751Y-109226695D01*
X105750048Y-109231848D01*
X105750048Y-109231851D01*
X105755511Y-109326590D01*
X105762610Y-109449715D01*
X105763747Y-109454761D01*
X105763748Y-109454767D01*
X105783619Y-109542939D01*
X105811722Y-109667639D01*
X105895766Y-109874616D01*
X105946519Y-109957438D01*
X106009791Y-110060688D01*
X106012487Y-110065088D01*
X106158750Y-110233938D01*
X106330626Y-110376632D01*
X106523500Y-110489338D01*
X106732192Y-110569030D01*
X106737260Y-110570061D01*
X106737263Y-110570062D01*
X106844517Y-110591883D01*
X106951097Y-110613567D01*
X106956272Y-110613757D01*
X106956274Y-110613757D01*
X107169173Y-110621564D01*
X107169177Y-110621564D01*
X107174337Y-110621753D01*
X107179457Y-110621097D01*
X107179459Y-110621097D01*
X107390788Y-110594025D01*
X107390789Y-110594025D01*
X107395916Y-110593368D01*
X107400866Y-110591883D01*
X107604929Y-110530661D01*
X107604934Y-110530659D01*
X107609884Y-110529174D01*
X107810494Y-110430896D01*
X107992360Y-110301173D01*
X108150596Y-110143489D01*
X108210094Y-110060689D01*
X108280953Y-109962077D01*
X108282276Y-109963028D01*
X108329145Y-109919857D01*
X108399080Y-109907625D01*
X108464526Y-109935144D01*
X108492375Y-109966994D01*
X108552487Y-110065088D01*
X108698750Y-110233938D01*
X108870626Y-110376632D01*
X109063500Y-110489338D01*
X109272192Y-110569030D01*
X109277260Y-110570061D01*
X109277263Y-110570062D01*
X109384517Y-110591883D01*
X109491097Y-110613567D01*
X109496272Y-110613757D01*
X109496274Y-110613757D01*
X109709173Y-110621564D01*
X109709177Y-110621564D01*
X109714337Y-110621753D01*
X109719457Y-110621097D01*
X109719459Y-110621097D01*
X109930788Y-110594025D01*
X109930789Y-110594025D01*
X109935916Y-110593368D01*
X109940866Y-110591883D01*
X110144929Y-110530661D01*
X110144934Y-110530659D01*
X110149884Y-110529174D01*
X110350494Y-110430896D01*
X110532360Y-110301173D01*
X110690596Y-110143489D01*
X110750094Y-110060689D01*
X110817935Y-109966277D01*
X110820953Y-109962077D01*
X110841820Y-109919857D01*
X110917636Y-109766453D01*
X110917637Y-109766451D01*
X110919930Y-109761811D01*
X110984870Y-109548069D01*
X111014029Y-109326590D01*
X111015656Y-109260000D01*
X111012918Y-109226695D01*
X118449751Y-109226695D01*
X118450048Y-109231848D01*
X118450048Y-109231851D01*
X118455511Y-109326590D01*
X118462610Y-109449715D01*
X118463747Y-109454761D01*
X118463748Y-109454767D01*
X118483619Y-109542939D01*
X118511722Y-109667639D01*
X118595766Y-109874616D01*
X118646519Y-109957438D01*
X118709791Y-110060688D01*
X118712487Y-110065088D01*
X118858750Y-110233938D01*
X119030626Y-110376632D01*
X119223500Y-110489338D01*
X119432192Y-110569030D01*
X119437260Y-110570061D01*
X119437263Y-110570062D01*
X119544517Y-110591883D01*
X119651097Y-110613567D01*
X119656272Y-110613757D01*
X119656274Y-110613757D01*
X119869173Y-110621564D01*
X119869177Y-110621564D01*
X119874337Y-110621753D01*
X119879457Y-110621097D01*
X119879459Y-110621097D01*
X120090788Y-110594025D01*
X120090789Y-110594025D01*
X120095916Y-110593368D01*
X120100866Y-110591883D01*
X120304929Y-110530661D01*
X120304934Y-110530659D01*
X120309884Y-110529174D01*
X120510494Y-110430896D01*
X120692360Y-110301173D01*
X120850596Y-110143489D01*
X120910094Y-110060689D01*
X120980953Y-109962077D01*
X120982276Y-109963028D01*
X121029145Y-109919857D01*
X121099080Y-109907625D01*
X121164526Y-109935144D01*
X121192375Y-109966994D01*
X121252487Y-110065088D01*
X121398750Y-110233938D01*
X121570626Y-110376632D01*
X121763500Y-110489338D01*
X121972192Y-110569030D01*
X121977260Y-110570061D01*
X121977263Y-110570062D01*
X122084517Y-110591883D01*
X122191097Y-110613567D01*
X122196272Y-110613757D01*
X122196274Y-110613757D01*
X122409173Y-110621564D01*
X122409177Y-110621564D01*
X122414337Y-110621753D01*
X122419457Y-110621097D01*
X122419459Y-110621097D01*
X122630788Y-110594025D01*
X122630789Y-110594025D01*
X122635916Y-110593368D01*
X122640866Y-110591883D01*
X122844929Y-110530661D01*
X122844934Y-110530659D01*
X122849884Y-110529174D01*
X123050494Y-110430896D01*
X123232360Y-110301173D01*
X123390596Y-110143489D01*
X123450094Y-110060689D01*
X123517935Y-109966277D01*
X123520953Y-109962077D01*
X123541820Y-109919857D01*
X123617636Y-109766453D01*
X123617637Y-109766451D01*
X123619930Y-109761811D01*
X123684870Y-109548069D01*
X123714029Y-109326590D01*
X123715656Y-109260000D01*
X123697352Y-109037361D01*
X123642931Y-108820702D01*
X123553854Y-108615840D01*
X123514406Y-108554862D01*
X123435322Y-108432617D01*
X123435320Y-108432614D01*
X123432514Y-108428277D01*
X123282170Y-108263051D01*
X123278119Y-108259852D01*
X123278115Y-108259848D01*
X123110914Y-108127800D01*
X123110910Y-108127798D01*
X123106859Y-108124598D01*
X123065069Y-108101529D01*
X123015098Y-108051097D01*
X123000326Y-107981654D01*
X123025442Y-107915248D01*
X123052793Y-107888642D01*
X123101747Y-107853723D01*
X123110148Y-107843023D01*
X123103160Y-107829870D01*
X122365312Y-107092022D01*
X122351368Y-107084408D01*
X122349535Y-107084539D01*
X122342920Y-107088790D01*
X121599237Y-107832473D01*
X121592477Y-107844853D01*
X121597758Y-107851907D01*
X121644469Y-107879203D01*
X121693193Y-107930841D01*
X121706264Y-108000624D01*
X121679533Y-108066396D01*
X121639084Y-108099752D01*
X121626107Y-108106507D01*
X121621974Y-108109610D01*
X121621971Y-108109612D01*
X121571223Y-108147715D01*
X121447465Y-108240635D01*
X121293129Y-108402138D01*
X121185701Y-108559621D01*
X121130793Y-108604621D01*
X121060268Y-108612792D01*
X120996521Y-108581538D01*
X120975824Y-108557054D01*
X120895322Y-108432617D01*
X120895320Y-108432614D01*
X120892514Y-108428277D01*
X120742170Y-108263051D01*
X120738119Y-108259852D01*
X120738115Y-108259848D01*
X120570914Y-108127800D01*
X120570910Y-108127798D01*
X120566859Y-108124598D01*
X120525553Y-108101796D01*
X120475584Y-108051364D01*
X120460812Y-107981921D01*
X120485928Y-107915516D01*
X120513280Y-107888909D01*
X120577610Y-107843023D01*
X120692360Y-107761173D01*
X120850596Y-107603489D01*
X120910094Y-107520689D01*
X120980953Y-107422077D01*
X120982140Y-107422930D01*
X121029460Y-107379362D01*
X121099397Y-107367145D01*
X121164838Y-107394678D01*
X121192666Y-107426512D01*
X121218959Y-107469419D01*
X121229416Y-107478880D01*
X121238194Y-107475096D01*
X121980478Y-106732812D01*
X121986856Y-106721132D01*
X122716908Y-106721132D01*
X122717039Y-106722965D01*
X122721290Y-106729580D01*
X123462974Y-107471264D01*
X123474984Y-107477823D01*
X123486723Y-107468855D01*
X123517504Y-107426019D01*
X123522815Y-107417180D01*
X123617170Y-107226267D01*
X123620969Y-107216672D01*
X123682876Y-107012915D01*
X123685055Y-107002834D01*
X123713090Y-106789887D01*
X123713609Y-106783212D01*
X123715072Y-106723364D01*
X123714878Y-106716646D01*
X123697281Y-106502604D01*
X123695596Y-106492424D01*
X123643714Y-106285875D01*
X123640394Y-106276124D01*
X123555472Y-106080814D01*
X123550605Y-106071739D01*
X123485563Y-105971197D01*
X123474877Y-105961995D01*
X123465312Y-105966398D01*
X122724522Y-106707188D01*
X122716908Y-106721132D01*
X121986856Y-106721132D01*
X121988092Y-106718868D01*
X121987961Y-106717035D01*
X121983710Y-106710420D01*
X121242349Y-105969059D01*
X121230813Y-105962759D01*
X121218531Y-105972382D01*
X121185999Y-106020072D01*
X121131087Y-106065075D01*
X121060563Y-106073246D01*
X120996816Y-106041992D01*
X120976118Y-106017508D01*
X120895322Y-105892617D01*
X120895320Y-105892614D01*
X120892514Y-105888277D01*
X120742170Y-105723051D01*
X120699506Y-105689357D01*
X120658444Y-105631441D01*
X120655212Y-105560518D01*
X120690837Y-105499107D01*
X120724147Y-105476376D01*
X120729507Y-105473865D01*
X120736446Y-105471550D01*
X120886848Y-105378478D01*
X121011805Y-105253303D01*
X121104615Y-105102738D01*
X121106918Y-105095795D01*
X121109263Y-105090766D01*
X121156180Y-105037481D01*
X121224458Y-105018021D01*
X121292418Y-105038564D01*
X121318694Y-105061520D01*
X121395360Y-105150025D01*
X121398750Y-105153938D01*
X121570626Y-105296632D01*
X121597413Y-105312285D01*
X121644455Y-105339774D01*
X121693179Y-105391412D01*
X121706250Y-105461195D01*
X121679519Y-105526967D01*
X121639062Y-105560327D01*
X121630960Y-105564544D01*
X121622234Y-105570039D01*
X121602177Y-105585099D01*
X121593723Y-105596427D01*
X121600468Y-105608758D01*
X122339688Y-106347978D01*
X122353632Y-106355592D01*
X122355465Y-106355461D01*
X122362080Y-106351210D01*
X123105889Y-105607401D01*
X123112910Y-105594544D01*
X123106111Y-105585213D01*
X123102059Y-105582521D01*
X123065102Y-105562120D01*
X123015131Y-105511687D01*
X123000359Y-105442245D01*
X123025475Y-105375839D01*
X123052827Y-105349232D01*
X123104625Y-105312285D01*
X123232360Y-105221173D01*
X123390596Y-105063489D01*
X123453296Y-104976233D01*
X123517935Y-104886277D01*
X123520953Y-104882077D01*
X123548108Y-104827134D01*
X123617636Y-104686453D01*
X123617637Y-104686451D01*
X123619930Y-104681811D01*
X123684870Y-104468069D01*
X123714029Y-104246590D01*
X123715656Y-104180000D01*
X123697352Y-103957361D01*
X123642931Y-103740702D01*
X123553854Y-103535840D01*
X123467688Y-103402647D01*
X123435322Y-103352617D01*
X123435320Y-103352614D01*
X123432514Y-103348277D01*
X123282170Y-103183051D01*
X123278119Y-103179852D01*
X123278115Y-103179848D01*
X123110914Y-103047800D01*
X123110910Y-103047798D01*
X123106859Y-103044598D01*
X122911289Y-102936638D01*
X122906420Y-102934914D01*
X122906416Y-102934912D01*
X122705587Y-102863795D01*
X122705583Y-102863794D01*
X122700712Y-102862069D01*
X122695619Y-102861162D01*
X122695616Y-102861161D01*
X122485873Y-102823800D01*
X122485867Y-102823799D01*
X122480784Y-102822894D01*
X122406952Y-102821992D01*
X122262581Y-102820228D01*
X122262579Y-102820228D01*
X122257411Y-102820165D01*
X122036591Y-102853955D01*
X121824256Y-102923357D01*
X121794275Y-102938964D01*
X121704178Y-102985866D01*
X121626107Y-103026507D01*
X121621974Y-103029610D01*
X121621971Y-103029612D01*
X121451600Y-103157530D01*
X121447465Y-103160635D01*
X121356281Y-103256054D01*
X121313527Y-103300793D01*
X121252003Y-103336223D01*
X121181090Y-103332766D01*
X121123304Y-103291520D01*
X121108333Y-103267194D01*
X121106365Y-103262994D01*
X121104050Y-103256054D01*
X121010978Y-103105652D01*
X120885803Y-102980695D01*
X120829487Y-102945981D01*
X120741468Y-102891725D01*
X120741466Y-102891724D01*
X120735238Y-102887885D01*
X120637787Y-102855562D01*
X120573889Y-102834368D01*
X120573887Y-102834368D01*
X120567361Y-102832203D01*
X120560525Y-102831503D01*
X120560522Y-102831502D01*
X120517469Y-102827091D01*
X120462900Y-102821500D01*
X119162100Y-102821500D01*
X119158854Y-102821837D01*
X119158850Y-102821837D01*
X119063192Y-102831762D01*
X119063188Y-102831763D01*
X119056334Y-102832474D01*
X119049798Y-102834655D01*
X119049796Y-102834655D01*
X118987131Y-102855562D01*
X118888554Y-102888450D01*
X118738152Y-102981522D01*
X118732979Y-102986704D01*
X118675186Y-103044598D01*
X118613195Y-103106697D01*
X118609355Y-103112927D01*
X118609354Y-103112928D01*
X118524966Y-103249831D01*
X118520385Y-103257262D01*
X118464703Y-103425139D01*
X118464003Y-103431975D01*
X118464002Y-103431978D01*
X118459591Y-103475031D01*
X118454000Y-103529600D01*
X118454000Y-104830400D01*
X118454337Y-104833646D01*
X118454337Y-104833650D01*
X118464065Y-104927402D01*
X118464974Y-104936166D01*
X118467155Y-104942702D01*
X118467155Y-104942704D01*
X118510932Y-105073919D01*
X118520950Y-105103946D01*
X118614022Y-105254348D01*
X118739197Y-105379305D01*
X118745427Y-105383145D01*
X118745428Y-105383146D01*
X118872047Y-105461195D01*
X118889762Y-105472115D01*
X118896709Y-105474419D01*
X118898776Y-105475383D01*
X118952061Y-105522299D01*
X118971523Y-105590576D01*
X118950982Y-105658536D01*
X118921181Y-105690337D01*
X118907465Y-105700635D01*
X118753129Y-105862138D01*
X118627243Y-106046680D01*
X118533188Y-106249305D01*
X118473489Y-106464570D01*
X118449751Y-106686695D01*
X118450048Y-106691848D01*
X118450048Y-106691851D01*
X118452410Y-106732812D01*
X118462610Y-106909715D01*
X118463747Y-106914761D01*
X118463748Y-106914767D01*
X118484775Y-107008069D01*
X118511722Y-107127639D01*
X118595766Y-107334616D01*
X118712487Y-107525088D01*
X118858750Y-107693938D01*
X119030626Y-107836632D01*
X119041563Y-107843023D01*
X119103945Y-107879476D01*
X119152669Y-107931114D01*
X119165740Y-108000897D01*
X119139009Y-108066669D01*
X119098555Y-108100027D01*
X119086107Y-108106507D01*
X119081974Y-108109610D01*
X119081971Y-108109612D01*
X119031223Y-108147715D01*
X118907465Y-108240635D01*
X118753129Y-108402138D01*
X118627243Y-108586680D01*
X118533188Y-108789305D01*
X118473489Y-109004570D01*
X118449751Y-109226695D01*
X111012918Y-109226695D01*
X110997352Y-109037361D01*
X110942931Y-108820702D01*
X110853854Y-108615840D01*
X110814406Y-108554862D01*
X110735322Y-108432617D01*
X110735320Y-108432614D01*
X110732514Y-108428277D01*
X110582170Y-108263051D01*
X110578119Y-108259852D01*
X110578115Y-108259848D01*
X110410914Y-108127800D01*
X110410910Y-108127798D01*
X110406859Y-108124598D01*
X110365069Y-108101529D01*
X110315098Y-108051097D01*
X110300326Y-107981654D01*
X110325442Y-107915248D01*
X110352793Y-107888642D01*
X110401747Y-107853723D01*
X110410148Y-107843023D01*
X110403160Y-107829870D01*
X109665312Y-107092022D01*
X109651368Y-107084408D01*
X109649535Y-107084539D01*
X109642920Y-107088790D01*
X108899237Y-107832473D01*
X108892477Y-107844853D01*
X108897758Y-107851907D01*
X108944469Y-107879203D01*
X108993193Y-107930841D01*
X109006264Y-108000624D01*
X108979533Y-108066396D01*
X108939084Y-108099752D01*
X108926107Y-108106507D01*
X108921974Y-108109610D01*
X108921971Y-108109612D01*
X108871223Y-108147715D01*
X108747465Y-108240635D01*
X108593129Y-108402138D01*
X108485701Y-108559621D01*
X108430793Y-108604621D01*
X108360268Y-108612792D01*
X108296521Y-108581538D01*
X108275824Y-108557054D01*
X108195322Y-108432617D01*
X108195320Y-108432614D01*
X108192514Y-108428277D01*
X108042170Y-108263051D01*
X108038119Y-108259852D01*
X108038115Y-108259848D01*
X107870914Y-108127800D01*
X107870910Y-108127798D01*
X107866859Y-108124598D01*
X107825553Y-108101796D01*
X107775584Y-108051364D01*
X107760812Y-107981921D01*
X107785928Y-107915516D01*
X107813280Y-107888909D01*
X107877610Y-107843023D01*
X107992360Y-107761173D01*
X108150596Y-107603489D01*
X108210094Y-107520689D01*
X108280953Y-107422077D01*
X108282140Y-107422930D01*
X108329460Y-107379362D01*
X108399397Y-107367145D01*
X108464838Y-107394678D01*
X108492666Y-107426512D01*
X108518959Y-107469419D01*
X108529416Y-107478880D01*
X108538194Y-107475096D01*
X109280478Y-106732812D01*
X109286856Y-106721132D01*
X110016908Y-106721132D01*
X110017039Y-106722965D01*
X110021290Y-106729580D01*
X110762974Y-107471264D01*
X110774984Y-107477823D01*
X110786723Y-107468855D01*
X110817504Y-107426019D01*
X110822815Y-107417180D01*
X110917170Y-107226267D01*
X110920969Y-107216672D01*
X110982876Y-107012915D01*
X110985055Y-107002834D01*
X111013090Y-106789887D01*
X111013609Y-106783212D01*
X111015072Y-106723364D01*
X111014878Y-106716646D01*
X110997281Y-106502604D01*
X110995596Y-106492424D01*
X110943714Y-106285875D01*
X110940394Y-106276124D01*
X110855472Y-106080814D01*
X110850605Y-106071739D01*
X110785563Y-105971197D01*
X110774877Y-105961995D01*
X110765312Y-105966398D01*
X110024522Y-106707188D01*
X110016908Y-106721132D01*
X109286856Y-106721132D01*
X109288092Y-106718868D01*
X109287961Y-106717035D01*
X109283710Y-106710420D01*
X108542349Y-105969059D01*
X108530813Y-105962759D01*
X108518531Y-105972382D01*
X108485999Y-106020072D01*
X108431087Y-106065075D01*
X108360563Y-106073246D01*
X108296816Y-106041992D01*
X108276118Y-106017508D01*
X108195322Y-105892617D01*
X108195320Y-105892614D01*
X108192514Y-105888277D01*
X108042170Y-105723051D01*
X107999506Y-105689357D01*
X107958444Y-105631441D01*
X107955212Y-105560518D01*
X107990837Y-105499107D01*
X108024147Y-105476376D01*
X108029507Y-105473865D01*
X108036446Y-105471550D01*
X108186848Y-105378478D01*
X108311805Y-105253303D01*
X108404615Y-105102738D01*
X108406918Y-105095795D01*
X108409263Y-105090766D01*
X108456180Y-105037481D01*
X108524458Y-105018021D01*
X108592418Y-105038564D01*
X108618694Y-105061520D01*
X108695360Y-105150025D01*
X108698750Y-105153938D01*
X108870626Y-105296632D01*
X108897413Y-105312285D01*
X108944455Y-105339774D01*
X108993179Y-105391412D01*
X109006250Y-105461195D01*
X108979519Y-105526967D01*
X108939062Y-105560327D01*
X108930960Y-105564544D01*
X108922234Y-105570039D01*
X108902177Y-105585099D01*
X108893723Y-105596427D01*
X108900468Y-105608758D01*
X109639688Y-106347978D01*
X109653632Y-106355592D01*
X109655465Y-106355461D01*
X109662080Y-106351210D01*
X110405889Y-105607401D01*
X110412910Y-105594544D01*
X110406111Y-105585213D01*
X110402059Y-105582521D01*
X110365102Y-105562120D01*
X110315131Y-105511687D01*
X110300359Y-105442245D01*
X110325475Y-105375839D01*
X110352827Y-105349232D01*
X110404625Y-105312285D01*
X110532360Y-105221173D01*
X110690596Y-105063489D01*
X110753296Y-104976233D01*
X110817935Y-104886277D01*
X110820953Y-104882077D01*
X110848108Y-104827134D01*
X110917636Y-104686453D01*
X110917637Y-104686451D01*
X110919930Y-104681811D01*
X110984870Y-104468069D01*
X111014029Y-104246590D01*
X111015656Y-104180000D01*
X110997352Y-103957361D01*
X110942931Y-103740702D01*
X110853854Y-103535840D01*
X110767688Y-103402647D01*
X110735322Y-103352617D01*
X110735320Y-103352614D01*
X110732514Y-103348277D01*
X110718400Y-103332766D01*
X110593807Y-103195839D01*
X110562755Y-103131993D01*
X110561000Y-103111039D01*
X110561000Y-100462916D01*
X110562551Y-100443204D01*
X110563720Y-100435824D01*
X110564752Y-100429309D01*
X110564347Y-100421569D01*
X110561173Y-100361019D01*
X110561000Y-100354425D01*
X110561000Y-100333890D01*
X110558853Y-100313460D01*
X110558336Y-100306885D01*
X110555103Y-100245196D01*
X110555103Y-100245195D01*
X110554757Y-100238596D01*
X110551116Y-100225008D01*
X110547512Y-100205561D01*
X110546733Y-100198144D01*
X110546732Y-100198140D01*
X110546042Y-100191572D01*
X110524902Y-100126509D01*
X110523029Y-100120185D01*
X110507039Y-100060510D01*
X110507038Y-100060506D01*
X110505329Y-100054130D01*
X110498940Y-100041592D01*
X110491375Y-100023326D01*
X110489069Y-100016228D01*
X110489068Y-100016226D01*
X110487027Y-100009944D01*
X110479193Y-99996374D01*
X110452833Y-99950718D01*
X110449685Y-99944921D01*
X110440620Y-99927130D01*
X110418629Y-99883970D01*
X110409773Y-99873033D01*
X110398573Y-99856737D01*
X110394843Y-99850276D01*
X110394840Y-99850272D01*
X110391540Y-99844556D01*
X110387123Y-99839650D01*
X110387119Y-99839645D01*
X110345778Y-99793731D01*
X110341494Y-99788716D01*
X110330648Y-99775323D01*
X110328572Y-99772759D01*
X110314057Y-99758244D01*
X110309516Y-99753459D01*
X110308058Y-99751840D01*
X110263753Y-99702634D01*
X110252365Y-99694360D01*
X110237332Y-99681519D01*
X106061813Y-95506000D01*
X126238647Y-95506000D01*
X126258022Y-95727463D01*
X126315560Y-95942196D01*
X126317882Y-95947177D01*
X126317883Y-95947178D01*
X126407186Y-96138689D01*
X126407189Y-96138694D01*
X126409512Y-96143676D01*
X126412668Y-96148183D01*
X126412669Y-96148185D01*
X126449107Y-96200223D01*
X126537023Y-96325781D01*
X126694219Y-96482977D01*
X126698727Y-96486134D01*
X126698730Y-96486136D01*
X126774495Y-96539187D01*
X126876323Y-96610488D01*
X126881305Y-96612811D01*
X126881310Y-96612814D01*
X127071810Y-96701645D01*
X127077804Y-96704440D01*
X127083112Y-96705862D01*
X127083114Y-96705863D01*
X127148949Y-96723503D01*
X127292537Y-96761978D01*
X127514000Y-96781353D01*
X127735463Y-96761978D01*
X127879051Y-96723503D01*
X127944886Y-96705863D01*
X127944888Y-96705862D01*
X127950196Y-96704440D01*
X127956190Y-96701645D01*
X128146690Y-96612814D01*
X128146695Y-96612811D01*
X128151677Y-96610488D01*
X128216959Y-96564777D01*
X129359777Y-96564777D01*
X129369074Y-96576793D01*
X129412069Y-96606898D01*
X129421555Y-96612376D01*
X129612993Y-96701645D01*
X129623285Y-96705391D01*
X129827309Y-96760059D01*
X129838104Y-96761962D01*
X130048525Y-96780372D01*
X130059475Y-96780372D01*
X130269896Y-96761962D01*
X130280691Y-96760059D01*
X130484715Y-96705391D01*
X130495007Y-96701645D01*
X130686445Y-96612376D01*
X130695931Y-96606898D01*
X130739764Y-96576207D01*
X130748139Y-96565729D01*
X130741071Y-96552281D01*
X130066812Y-95878022D01*
X130052868Y-95870408D01*
X130051035Y-95870539D01*
X130044420Y-95874790D01*
X129366207Y-96553003D01*
X129359777Y-96564777D01*
X128216959Y-96564777D01*
X128253505Y-96539187D01*
X128329270Y-96486136D01*
X128329273Y-96486134D01*
X128333781Y-96482977D01*
X128490977Y-96325781D01*
X128578894Y-96200223D01*
X128615331Y-96148185D01*
X128615332Y-96148183D01*
X128618488Y-96143676D01*
X128620811Y-96138694D01*
X128620814Y-96138689D01*
X128670081Y-96033035D01*
X128716999Y-95979750D01*
X128785276Y-95960289D01*
X128853236Y-95980831D01*
X128898471Y-96033035D01*
X128947623Y-96138441D01*
X128953103Y-96147932D01*
X128983794Y-96191765D01*
X128994271Y-96200140D01*
X129007718Y-96193072D01*
X129681978Y-95518812D01*
X129688356Y-95507132D01*
X130418408Y-95507132D01*
X130418539Y-95508965D01*
X130422790Y-95515580D01*
X131101003Y-96193793D01*
X131112777Y-96200223D01*
X131124793Y-96190926D01*
X131154897Y-96147932D01*
X131160377Y-96138441D01*
X131209529Y-96033035D01*
X131256447Y-95979750D01*
X131324724Y-95960289D01*
X131392684Y-95980831D01*
X131437919Y-96033035D01*
X131487186Y-96138689D01*
X131487189Y-96138694D01*
X131489512Y-96143676D01*
X131492668Y-96148183D01*
X131492669Y-96148185D01*
X131529107Y-96200223D01*
X131617023Y-96325781D01*
X131648595Y-96357353D01*
X131682621Y-96419665D01*
X131685500Y-96446448D01*
X131685500Y-97714583D01*
X131683949Y-97734292D01*
X131681748Y-97748190D01*
X131682093Y-97754777D01*
X131682093Y-97754782D01*
X131685327Y-97816480D01*
X131685500Y-97823074D01*
X131685500Y-97843610D01*
X131685844Y-97846882D01*
X131685844Y-97846884D01*
X131687647Y-97864042D01*
X131688164Y-97870616D01*
X131691743Y-97938903D01*
X131693453Y-97945284D01*
X131693453Y-97945286D01*
X131695383Y-97952491D01*
X131698985Y-97971925D01*
X131699766Y-97979354D01*
X131699768Y-97979363D01*
X131700458Y-97985928D01*
X131721600Y-98050997D01*
X131723467Y-98057299D01*
X131741171Y-98123370D01*
X131747559Y-98135907D01*
X131755125Y-98154173D01*
X131759473Y-98167556D01*
X131762776Y-98173278D01*
X131762777Y-98173279D01*
X131793667Y-98226782D01*
X131796814Y-98232577D01*
X131827871Y-98293530D01*
X131832024Y-98298658D01*
X131832025Y-98298660D01*
X131836727Y-98304466D01*
X131847927Y-98320763D01*
X131851657Y-98327224D01*
X131851660Y-98327228D01*
X131854960Y-98332944D01*
X131859377Y-98337850D01*
X131859381Y-98337855D01*
X131900722Y-98383769D01*
X131905006Y-98388784D01*
X131917928Y-98404741D01*
X131932443Y-98419256D01*
X131936984Y-98424041D01*
X131982747Y-98474866D01*
X131988086Y-98478745D01*
X131988087Y-98478746D01*
X131994135Y-98483140D01*
X132009168Y-98495981D01*
X134107095Y-100593908D01*
X134141121Y-100656220D01*
X134144000Y-100683003D01*
X134144000Y-103113737D01*
X134123998Y-103181858D01*
X134109094Y-103200788D01*
X134056281Y-103256054D01*
X134013527Y-103300793D01*
X133952003Y-103336223D01*
X133881090Y-103332766D01*
X133823304Y-103291520D01*
X133808333Y-103267194D01*
X133806365Y-103262994D01*
X133804050Y-103256054D01*
X133710978Y-103105652D01*
X133585803Y-102980695D01*
X133529487Y-102945981D01*
X133441468Y-102891725D01*
X133441466Y-102891724D01*
X133435238Y-102887885D01*
X133337787Y-102855562D01*
X133273889Y-102834368D01*
X133273887Y-102834368D01*
X133267361Y-102832203D01*
X133260525Y-102831503D01*
X133260522Y-102831502D01*
X133217469Y-102827091D01*
X133162900Y-102821500D01*
X131862100Y-102821500D01*
X131858854Y-102821837D01*
X131858850Y-102821837D01*
X131763192Y-102831762D01*
X131763188Y-102831763D01*
X131756334Y-102832474D01*
X131749798Y-102834655D01*
X131749796Y-102834655D01*
X131687131Y-102855562D01*
X131588554Y-102888450D01*
X131438152Y-102981522D01*
X131432979Y-102986704D01*
X131375186Y-103044598D01*
X131313195Y-103106697D01*
X131309355Y-103112927D01*
X131309354Y-103112928D01*
X131224966Y-103249831D01*
X131220385Y-103257262D01*
X131164703Y-103425139D01*
X131164003Y-103431975D01*
X131164002Y-103431978D01*
X131159591Y-103475031D01*
X131154000Y-103529600D01*
X131154000Y-104830400D01*
X131154337Y-104833646D01*
X131154337Y-104833650D01*
X131164065Y-104927402D01*
X131164974Y-104936166D01*
X131167155Y-104942702D01*
X131167155Y-104942704D01*
X131210932Y-105073919D01*
X131220950Y-105103946D01*
X131314022Y-105254348D01*
X131439197Y-105379305D01*
X131445427Y-105383145D01*
X131445428Y-105383146D01*
X131572047Y-105461195D01*
X131589762Y-105472115D01*
X131596709Y-105474419D01*
X131598776Y-105475383D01*
X131652061Y-105522299D01*
X131671523Y-105590576D01*
X131650982Y-105658536D01*
X131621181Y-105690337D01*
X131607465Y-105700635D01*
X131453129Y-105862138D01*
X131327243Y-106046680D01*
X131233188Y-106249305D01*
X131173489Y-106464570D01*
X131149751Y-106686695D01*
X131150048Y-106691848D01*
X131150048Y-106691851D01*
X131152410Y-106732812D01*
X131162610Y-106909715D01*
X131163747Y-106914761D01*
X131163748Y-106914767D01*
X131184775Y-107008069D01*
X131211722Y-107127639D01*
X131295766Y-107334616D01*
X131412487Y-107525088D01*
X131558750Y-107693938D01*
X131730626Y-107836632D01*
X131741563Y-107843023D01*
X131803945Y-107879476D01*
X131852669Y-107931114D01*
X131865740Y-108000897D01*
X131839009Y-108066669D01*
X131798555Y-108100027D01*
X131786107Y-108106507D01*
X131781974Y-108109610D01*
X131781971Y-108109612D01*
X131731223Y-108147715D01*
X131607465Y-108240635D01*
X131453129Y-108402138D01*
X131327243Y-108586680D01*
X131233188Y-108789305D01*
X131173489Y-109004570D01*
X131149751Y-109226695D01*
X131150048Y-109231848D01*
X131150048Y-109231851D01*
X131155511Y-109326590D01*
X131162610Y-109449715D01*
X131163747Y-109454761D01*
X131163748Y-109454767D01*
X131183619Y-109542939D01*
X131211722Y-109667639D01*
X131295766Y-109874616D01*
X131346519Y-109957438D01*
X131409791Y-110060688D01*
X131412487Y-110065088D01*
X131558750Y-110233938D01*
X131730626Y-110376632D01*
X131923500Y-110489338D01*
X132132192Y-110569030D01*
X132137260Y-110570061D01*
X132137263Y-110570062D01*
X132244517Y-110591883D01*
X132351097Y-110613567D01*
X132356272Y-110613757D01*
X132356274Y-110613757D01*
X132569173Y-110621564D01*
X132569177Y-110621564D01*
X132574337Y-110621753D01*
X132579457Y-110621097D01*
X132579459Y-110621097D01*
X132790788Y-110594025D01*
X132790789Y-110594025D01*
X132795916Y-110593368D01*
X132800866Y-110591883D01*
X133004929Y-110530661D01*
X133004934Y-110530659D01*
X133009884Y-110529174D01*
X133210494Y-110430896D01*
X133392360Y-110301173D01*
X133550596Y-110143489D01*
X133610094Y-110060689D01*
X133680953Y-109962077D01*
X133682276Y-109963028D01*
X133729145Y-109919857D01*
X133799080Y-109907625D01*
X133864526Y-109935144D01*
X133892375Y-109966994D01*
X133952487Y-110065088D01*
X134098750Y-110233938D01*
X134270626Y-110376632D01*
X134463500Y-110489338D01*
X134672192Y-110569030D01*
X134677260Y-110570061D01*
X134677263Y-110570062D01*
X134784517Y-110591883D01*
X134891097Y-110613567D01*
X134896272Y-110613757D01*
X134896274Y-110613757D01*
X135109173Y-110621564D01*
X135109177Y-110621564D01*
X135114337Y-110621753D01*
X135119457Y-110621097D01*
X135119459Y-110621097D01*
X135330788Y-110594025D01*
X135330789Y-110594025D01*
X135335916Y-110593368D01*
X135340866Y-110591883D01*
X135544929Y-110530661D01*
X135544934Y-110530659D01*
X135549884Y-110529174D01*
X135750494Y-110430896D01*
X135932360Y-110301173D01*
X136090596Y-110143489D01*
X136150094Y-110060689D01*
X136217935Y-109966277D01*
X136220953Y-109962077D01*
X136241820Y-109919857D01*
X136317636Y-109766453D01*
X136317637Y-109766451D01*
X136319930Y-109761811D01*
X136384870Y-109548069D01*
X136414029Y-109326590D01*
X136415656Y-109260000D01*
X136412918Y-109226695D01*
X143849751Y-109226695D01*
X143850048Y-109231848D01*
X143850048Y-109231851D01*
X143855511Y-109326590D01*
X143862610Y-109449715D01*
X143863747Y-109454761D01*
X143863748Y-109454767D01*
X143883619Y-109542939D01*
X143911722Y-109667639D01*
X143995766Y-109874616D01*
X144046519Y-109957438D01*
X144109791Y-110060688D01*
X144112487Y-110065088D01*
X144258750Y-110233938D01*
X144430626Y-110376632D01*
X144623500Y-110489338D01*
X144832192Y-110569030D01*
X144837260Y-110570061D01*
X144837263Y-110570062D01*
X144944517Y-110591883D01*
X145051097Y-110613567D01*
X145056272Y-110613757D01*
X145056274Y-110613757D01*
X145269173Y-110621564D01*
X145269177Y-110621564D01*
X145274337Y-110621753D01*
X145279457Y-110621097D01*
X145279459Y-110621097D01*
X145490788Y-110594025D01*
X145490789Y-110594025D01*
X145495916Y-110593368D01*
X145500866Y-110591883D01*
X145704929Y-110530661D01*
X145704934Y-110530659D01*
X145709884Y-110529174D01*
X145910494Y-110430896D01*
X146092360Y-110301173D01*
X146250596Y-110143489D01*
X146310094Y-110060689D01*
X146380953Y-109962077D01*
X146382276Y-109963028D01*
X146429145Y-109919857D01*
X146499080Y-109907625D01*
X146564526Y-109935144D01*
X146592375Y-109966994D01*
X146652487Y-110065088D01*
X146798750Y-110233938D01*
X146970626Y-110376632D01*
X147163500Y-110489338D01*
X147372192Y-110569030D01*
X147377260Y-110570061D01*
X147377263Y-110570062D01*
X147484517Y-110591883D01*
X147591097Y-110613567D01*
X147596272Y-110613757D01*
X147596274Y-110613757D01*
X147809173Y-110621564D01*
X147809177Y-110621564D01*
X147814337Y-110621753D01*
X147819457Y-110621097D01*
X147819459Y-110621097D01*
X148030788Y-110594025D01*
X148030789Y-110594025D01*
X148035916Y-110593368D01*
X148040866Y-110591883D01*
X148244929Y-110530661D01*
X148244934Y-110530659D01*
X148249884Y-110529174D01*
X148450494Y-110430896D01*
X148632360Y-110301173D01*
X148790596Y-110143489D01*
X148850094Y-110060689D01*
X148917935Y-109966277D01*
X148920953Y-109962077D01*
X148941820Y-109919857D01*
X149017636Y-109766453D01*
X149017637Y-109766451D01*
X149019930Y-109761811D01*
X149084870Y-109548069D01*
X149114029Y-109326590D01*
X149115656Y-109260000D01*
X149112918Y-109226695D01*
X156549751Y-109226695D01*
X156550048Y-109231848D01*
X156550048Y-109231851D01*
X156555511Y-109326590D01*
X156562610Y-109449715D01*
X156563747Y-109454761D01*
X156563748Y-109454767D01*
X156583619Y-109542939D01*
X156611722Y-109667639D01*
X156695766Y-109874616D01*
X156746519Y-109957438D01*
X156809791Y-110060688D01*
X156812487Y-110065088D01*
X156958750Y-110233938D01*
X157130626Y-110376632D01*
X157323500Y-110489338D01*
X157532192Y-110569030D01*
X157537260Y-110570061D01*
X157537263Y-110570062D01*
X157644517Y-110591883D01*
X157751097Y-110613567D01*
X157756272Y-110613757D01*
X157756274Y-110613757D01*
X157969173Y-110621564D01*
X157969177Y-110621564D01*
X157974337Y-110621753D01*
X157979457Y-110621097D01*
X157979459Y-110621097D01*
X158190788Y-110594025D01*
X158190789Y-110594025D01*
X158195916Y-110593368D01*
X158200866Y-110591883D01*
X158404929Y-110530661D01*
X158404934Y-110530659D01*
X158409884Y-110529174D01*
X158610494Y-110430896D01*
X158792360Y-110301173D01*
X158950596Y-110143489D01*
X159010094Y-110060689D01*
X159080953Y-109962077D01*
X159082276Y-109963028D01*
X159129145Y-109919857D01*
X159199080Y-109907625D01*
X159264526Y-109935144D01*
X159292375Y-109966994D01*
X159352487Y-110065088D01*
X159498750Y-110233938D01*
X159670626Y-110376632D01*
X159863500Y-110489338D01*
X160072192Y-110569030D01*
X160077260Y-110570061D01*
X160077263Y-110570062D01*
X160184517Y-110591883D01*
X160291097Y-110613567D01*
X160296272Y-110613757D01*
X160296274Y-110613757D01*
X160509173Y-110621564D01*
X160509177Y-110621564D01*
X160514337Y-110621753D01*
X160519457Y-110621097D01*
X160519459Y-110621097D01*
X160730788Y-110594025D01*
X160730789Y-110594025D01*
X160735916Y-110593368D01*
X160740866Y-110591883D01*
X160944929Y-110530661D01*
X160944934Y-110530659D01*
X160949884Y-110529174D01*
X161150494Y-110430896D01*
X161332360Y-110301173D01*
X161490596Y-110143489D01*
X161550094Y-110060689D01*
X161617935Y-109966277D01*
X161620953Y-109962077D01*
X161641820Y-109919857D01*
X161717636Y-109766453D01*
X161717637Y-109766451D01*
X161719930Y-109761811D01*
X161784870Y-109548069D01*
X161814029Y-109326590D01*
X161815656Y-109260000D01*
X161797352Y-109037361D01*
X161742931Y-108820702D01*
X161653854Y-108615840D01*
X161614406Y-108554862D01*
X161535322Y-108432617D01*
X161535320Y-108432614D01*
X161532514Y-108428277D01*
X161382170Y-108263051D01*
X161378119Y-108259852D01*
X161378115Y-108259848D01*
X161210914Y-108127800D01*
X161210910Y-108127798D01*
X161206859Y-108124598D01*
X161165069Y-108101529D01*
X161115098Y-108051097D01*
X161100326Y-107981654D01*
X161125442Y-107915248D01*
X161152793Y-107888642D01*
X161201747Y-107853723D01*
X161210148Y-107843023D01*
X161203160Y-107829870D01*
X160465312Y-107092022D01*
X160451368Y-107084408D01*
X160449535Y-107084539D01*
X160442920Y-107088790D01*
X159699237Y-107832473D01*
X159692477Y-107844853D01*
X159697758Y-107851907D01*
X159744469Y-107879203D01*
X159793193Y-107930841D01*
X159806264Y-108000624D01*
X159779533Y-108066396D01*
X159739084Y-108099752D01*
X159726107Y-108106507D01*
X159721974Y-108109610D01*
X159721971Y-108109612D01*
X159671223Y-108147715D01*
X159547465Y-108240635D01*
X159393129Y-108402138D01*
X159285701Y-108559621D01*
X159230793Y-108604621D01*
X159160268Y-108612792D01*
X159096521Y-108581538D01*
X159075824Y-108557054D01*
X158995322Y-108432617D01*
X158995320Y-108432614D01*
X158992514Y-108428277D01*
X158842170Y-108263051D01*
X158838119Y-108259852D01*
X158838115Y-108259848D01*
X158670914Y-108127800D01*
X158670910Y-108127798D01*
X158666859Y-108124598D01*
X158625553Y-108101796D01*
X158575584Y-108051364D01*
X158560812Y-107981921D01*
X158585928Y-107915516D01*
X158613280Y-107888909D01*
X158677610Y-107843023D01*
X158792360Y-107761173D01*
X158950596Y-107603489D01*
X159010094Y-107520689D01*
X159080953Y-107422077D01*
X159082140Y-107422930D01*
X159129460Y-107379362D01*
X159199397Y-107367145D01*
X159264838Y-107394678D01*
X159292666Y-107426512D01*
X159318959Y-107469419D01*
X159329416Y-107478880D01*
X159338194Y-107475096D01*
X160080478Y-106732812D01*
X160086856Y-106721132D01*
X160816908Y-106721132D01*
X160817039Y-106722965D01*
X160821290Y-106729580D01*
X161562974Y-107471264D01*
X161574984Y-107477823D01*
X161586723Y-107468855D01*
X161617504Y-107426019D01*
X161622815Y-107417180D01*
X161717170Y-107226267D01*
X161720969Y-107216672D01*
X161782876Y-107012915D01*
X161785055Y-107002834D01*
X161813090Y-106789887D01*
X161813609Y-106783212D01*
X161815072Y-106723364D01*
X161814878Y-106716646D01*
X161797281Y-106502604D01*
X161795596Y-106492424D01*
X161743714Y-106285875D01*
X161740394Y-106276124D01*
X161655472Y-106080814D01*
X161650605Y-106071739D01*
X161585563Y-105971197D01*
X161574877Y-105961995D01*
X161565312Y-105966398D01*
X160824522Y-106707188D01*
X160816908Y-106721132D01*
X160086856Y-106721132D01*
X160088092Y-106718868D01*
X160087961Y-106717035D01*
X160083710Y-106710420D01*
X159342349Y-105969059D01*
X159330813Y-105962759D01*
X159318531Y-105972382D01*
X159285999Y-106020072D01*
X159231087Y-106065075D01*
X159160563Y-106073246D01*
X159096816Y-106041992D01*
X159076118Y-106017508D01*
X158995322Y-105892617D01*
X158995320Y-105892614D01*
X158992514Y-105888277D01*
X158842170Y-105723051D01*
X158799506Y-105689357D01*
X158758444Y-105631441D01*
X158755212Y-105560518D01*
X158790837Y-105499107D01*
X158824147Y-105476376D01*
X158829507Y-105473865D01*
X158836446Y-105471550D01*
X158986848Y-105378478D01*
X159111805Y-105253303D01*
X159204615Y-105102738D01*
X159206918Y-105095795D01*
X159209263Y-105090766D01*
X159256180Y-105037481D01*
X159324458Y-105018021D01*
X159392418Y-105038564D01*
X159418694Y-105061520D01*
X159495360Y-105150025D01*
X159498750Y-105153938D01*
X159670626Y-105296632D01*
X159697413Y-105312285D01*
X159744455Y-105339774D01*
X159793179Y-105391412D01*
X159806250Y-105461195D01*
X159779519Y-105526967D01*
X159739062Y-105560327D01*
X159730960Y-105564544D01*
X159722234Y-105570039D01*
X159702177Y-105585099D01*
X159693723Y-105596427D01*
X159700468Y-105608758D01*
X160439688Y-106347978D01*
X160453632Y-106355592D01*
X160455465Y-106355461D01*
X160462080Y-106351210D01*
X161205889Y-105607401D01*
X161212910Y-105594544D01*
X161206111Y-105585213D01*
X161202059Y-105582521D01*
X161165102Y-105562120D01*
X161115131Y-105511687D01*
X161100359Y-105442245D01*
X161125475Y-105375839D01*
X161152827Y-105349232D01*
X161204625Y-105312285D01*
X161332360Y-105221173D01*
X161490596Y-105063489D01*
X161553296Y-104976233D01*
X161617935Y-104886277D01*
X161620953Y-104882077D01*
X161648108Y-104827134D01*
X161717636Y-104686453D01*
X161717637Y-104686451D01*
X161719930Y-104681811D01*
X161784870Y-104468069D01*
X161814029Y-104246590D01*
X161815656Y-104180000D01*
X161797352Y-103957361D01*
X161742931Y-103740702D01*
X161653854Y-103535840D01*
X161567688Y-103402647D01*
X161535322Y-103352617D01*
X161535320Y-103352614D01*
X161532514Y-103348277D01*
X161518400Y-103332766D01*
X161393807Y-103195839D01*
X161362755Y-103131993D01*
X161361000Y-103111039D01*
X161361000Y-102739003D01*
X161381002Y-102670882D01*
X161397905Y-102649908D01*
X162445287Y-101602526D01*
X169852050Y-101602526D01*
X169852274Y-101607192D01*
X169852274Y-101607197D01*
X169856007Y-101684909D01*
X169864947Y-101871019D01*
X169917388Y-102134656D01*
X170008220Y-102387646D01*
X170010432Y-102391762D01*
X170010433Y-102391765D01*
X170034163Y-102435928D01*
X170135450Y-102624431D01*
X170138241Y-102628168D01*
X170138245Y-102628175D01*
X170219887Y-102737506D01*
X170296281Y-102839810D01*
X170299590Y-102843090D01*
X170299595Y-102843096D01*
X170482205Y-103024118D01*
X170487180Y-103029050D01*
X170490942Y-103031808D01*
X170490945Y-103031811D01*
X170603299Y-103114192D01*
X170703954Y-103187995D01*
X170708089Y-103190171D01*
X170708093Y-103190173D01*
X170937698Y-103310975D01*
X170941840Y-103313154D01*
X171195613Y-103401775D01*
X171200206Y-103402647D01*
X171455109Y-103451042D01*
X171455112Y-103451042D01*
X171459698Y-103451913D01*
X171587370Y-103456929D01*
X171723625Y-103462283D01*
X171723630Y-103462283D01*
X171728293Y-103462466D01*
X171832607Y-103451042D01*
X171990844Y-103433713D01*
X171990850Y-103433712D01*
X171995497Y-103433203D01*
X172050921Y-103418611D01*
X172250918Y-103365956D01*
X172250920Y-103365955D01*
X172255441Y-103364765D01*
X172259738Y-103362919D01*
X172498120Y-103260502D01*
X172498122Y-103260501D01*
X172502414Y-103258657D01*
X172651610Y-103166332D01*
X172727017Y-103119669D01*
X172727021Y-103119666D01*
X172730990Y-103117210D01*
X172936149Y-102943530D01*
X173113382Y-102741434D01*
X173148516Y-102686813D01*
X173256269Y-102519291D01*
X173258797Y-102515361D01*
X173369199Y-102270278D01*
X173406209Y-102139051D01*
X173440893Y-102016072D01*
X173440894Y-102016069D01*
X173442163Y-102011568D01*
X173460213Y-101869687D01*
X173475688Y-101748045D01*
X173475688Y-101748041D01*
X173476086Y-101744915D01*
X173478571Y-101650000D01*
X173458650Y-101381937D01*
X173399327Y-101119763D01*
X173301902Y-100869238D01*
X173168518Y-100635864D01*
X173164537Y-100630813D01*
X173102416Y-100552014D01*
X173002105Y-100424769D01*
X172806317Y-100240591D01*
X172611173Y-100105214D01*
X172589299Y-100090039D01*
X172589296Y-100090037D01*
X172585457Y-100087374D01*
X172581264Y-100085306D01*
X172348564Y-99970551D01*
X172348561Y-99970550D01*
X172344376Y-99968486D01*
X172296745Y-99953239D01*
X172215180Y-99927130D01*
X172088370Y-99886538D01*
X172083763Y-99885788D01*
X172083760Y-99885787D01*
X171827674Y-99844081D01*
X171827675Y-99844081D01*
X171823063Y-99843330D01*
X171692719Y-99841624D01*
X171558961Y-99839873D01*
X171558958Y-99839873D01*
X171554284Y-99839812D01*
X171287937Y-99876060D01*
X171283451Y-99877368D01*
X171283449Y-99877368D01*
X171264319Y-99882944D01*
X171029874Y-99951278D01*
X170785763Y-100063815D01*
X170763250Y-100078575D01*
X170564881Y-100208631D01*
X170564876Y-100208635D01*
X170560968Y-100211197D01*
X170466270Y-100295718D01*
X170432344Y-100325999D01*
X170360426Y-100390188D01*
X170188544Y-100596854D01*
X170049096Y-100826656D01*
X169945148Y-101074545D01*
X169878981Y-101335077D01*
X169852050Y-101602526D01*
X162445287Y-101602526D01*
X164166832Y-99880981D01*
X164181865Y-99868140D01*
X164187913Y-99863746D01*
X164187914Y-99863745D01*
X164193253Y-99859866D01*
X164239016Y-99809041D01*
X164243557Y-99804256D01*
X164258072Y-99789741D01*
X164264112Y-99782282D01*
X164270994Y-99773784D01*
X164275278Y-99768769D01*
X164316619Y-99722855D01*
X164316623Y-99722850D01*
X164321040Y-99717944D01*
X164324340Y-99712228D01*
X164324343Y-99712224D01*
X164328073Y-99705763D01*
X164339273Y-99689466D01*
X164343975Y-99683660D01*
X164343976Y-99683658D01*
X164348129Y-99678530D01*
X164379186Y-99617577D01*
X164382333Y-99611782D01*
X164413223Y-99558279D01*
X164413224Y-99558278D01*
X164416527Y-99552556D01*
X164420875Y-99539173D01*
X164428441Y-99520907D01*
X164431832Y-99514252D01*
X164434829Y-99508370D01*
X164452529Y-99442315D01*
X164454402Y-99435991D01*
X164473500Y-99377212D01*
X164475542Y-99370928D01*
X164477012Y-99356939D01*
X164480617Y-99337486D01*
X164482547Y-99330285D01*
X164484257Y-99323904D01*
X164487836Y-99255615D01*
X164488353Y-99249040D01*
X164490156Y-99231882D01*
X164490500Y-99228610D01*
X164490500Y-99208075D01*
X164490673Y-99201481D01*
X164493907Y-99139783D01*
X164493907Y-99139778D01*
X164494252Y-99133191D01*
X164492051Y-99119293D01*
X164490500Y-99099584D01*
X164490500Y-96446448D01*
X164510502Y-96378327D01*
X164527405Y-96357353D01*
X164558977Y-96325781D01*
X164646894Y-96200223D01*
X164683331Y-96148185D01*
X164683332Y-96148183D01*
X164686488Y-96143676D01*
X164688811Y-96138694D01*
X164688814Y-96138689D01*
X164778117Y-95947178D01*
X164778118Y-95947177D01*
X164780440Y-95942196D01*
X164837978Y-95727463D01*
X164857353Y-95506000D01*
X164837978Y-95284537D01*
X164780440Y-95069804D01*
X164704120Y-94906135D01*
X164688814Y-94873311D01*
X164688811Y-94873306D01*
X164686488Y-94868324D01*
X164672946Y-94848984D01*
X164562136Y-94690730D01*
X164562134Y-94690727D01*
X164558977Y-94686219D01*
X164401781Y-94529023D01*
X164397273Y-94525866D01*
X164397270Y-94525864D01*
X164321505Y-94472813D01*
X164219677Y-94401512D01*
X164214695Y-94399189D01*
X164214690Y-94399186D01*
X164023178Y-94309883D01*
X164023177Y-94309882D01*
X164018196Y-94307560D01*
X164012888Y-94306138D01*
X164012886Y-94306137D01*
X163947051Y-94288497D01*
X163803463Y-94250022D01*
X163582000Y-94230647D01*
X163360537Y-94250022D01*
X163216949Y-94288497D01*
X163151114Y-94306137D01*
X163151112Y-94306138D01*
X163145804Y-94307560D01*
X163140823Y-94309882D01*
X163140822Y-94309883D01*
X162949311Y-94399186D01*
X162949306Y-94399189D01*
X162944324Y-94401512D01*
X162939817Y-94404668D01*
X162939815Y-94404669D01*
X162766730Y-94525864D01*
X162766727Y-94525866D01*
X162762219Y-94529023D01*
X162605023Y-94686219D01*
X162601866Y-94690727D01*
X162601864Y-94690730D01*
X162491054Y-94848984D01*
X162477512Y-94868324D01*
X162475189Y-94873306D01*
X162475186Y-94873311D01*
X162425919Y-94978965D01*
X162379001Y-95032250D01*
X162310724Y-95051711D01*
X162242764Y-95031169D01*
X162197529Y-94978965D01*
X162148377Y-94873559D01*
X162142897Y-94864068D01*
X162112206Y-94820235D01*
X162101729Y-94811860D01*
X162088282Y-94818928D01*
X161414022Y-95493188D01*
X161406408Y-95507132D01*
X161406539Y-95508965D01*
X161410790Y-95515580D01*
X162089003Y-96193793D01*
X162100777Y-96200223D01*
X162112793Y-96190926D01*
X162142897Y-96147932D01*
X162148377Y-96138441D01*
X162197529Y-96033035D01*
X162244447Y-95979750D01*
X162312724Y-95960289D01*
X162380684Y-95980831D01*
X162425919Y-96033035D01*
X162475186Y-96138689D01*
X162475189Y-96138694D01*
X162477512Y-96143676D01*
X162480668Y-96148183D01*
X162480669Y-96148185D01*
X162517107Y-96200223D01*
X162605023Y-96325781D01*
X162636595Y-96357353D01*
X162670621Y-96419665D01*
X162673500Y-96446448D01*
X162673500Y-98752497D01*
X162653498Y-98820618D01*
X162636595Y-98841592D01*
X159867668Y-101610519D01*
X159852635Y-101623360D01*
X159841247Y-101631634D01*
X159836827Y-101636543D01*
X159795484Y-101682459D01*
X159790943Y-101687244D01*
X159776428Y-101701759D01*
X159774352Y-101704323D01*
X159763506Y-101717716D01*
X159759222Y-101722731D01*
X159717881Y-101768645D01*
X159717877Y-101768650D01*
X159713460Y-101773556D01*
X159710160Y-101779272D01*
X159710157Y-101779276D01*
X159706427Y-101785737D01*
X159695227Y-101802033D01*
X159686371Y-101812970D01*
X159659173Y-101866349D01*
X159655315Y-101873921D01*
X159652169Y-101879715D01*
X159617973Y-101938944D01*
X159615932Y-101945226D01*
X159615931Y-101945228D01*
X159613625Y-101952326D01*
X159606060Y-101970592D01*
X159599671Y-101983130D01*
X159597963Y-101989503D01*
X159597963Y-101989504D01*
X159581969Y-102049195D01*
X159580100Y-102055503D01*
X159558958Y-102120572D01*
X159558268Y-102127137D01*
X159558266Y-102127146D01*
X159557485Y-102134575D01*
X159553883Y-102154009D01*
X159551953Y-102161214D01*
X159550243Y-102167597D01*
X159549898Y-102174188D01*
X159549897Y-102174192D01*
X159546664Y-102235884D01*
X159546147Y-102242458D01*
X159544344Y-102259616D01*
X159544000Y-102262890D01*
X159544000Y-102283426D01*
X159543827Y-102290020D01*
X159540248Y-102358310D01*
X159541280Y-102364825D01*
X159542449Y-102372205D01*
X159544000Y-102391917D01*
X159544000Y-103113737D01*
X159523998Y-103181858D01*
X159509094Y-103200788D01*
X159456281Y-103256054D01*
X159413527Y-103300793D01*
X159352003Y-103336223D01*
X159281090Y-103332766D01*
X159223304Y-103291520D01*
X159208333Y-103267194D01*
X159206365Y-103262994D01*
X159204050Y-103256054D01*
X159110978Y-103105652D01*
X158985803Y-102980695D01*
X158929487Y-102945981D01*
X158841468Y-102891725D01*
X158841466Y-102891724D01*
X158835238Y-102887885D01*
X158737787Y-102855562D01*
X158673889Y-102834368D01*
X158673887Y-102834368D01*
X158667361Y-102832203D01*
X158660525Y-102831503D01*
X158660522Y-102831502D01*
X158617469Y-102827091D01*
X158562900Y-102821500D01*
X157262100Y-102821500D01*
X157258854Y-102821837D01*
X157258850Y-102821837D01*
X157163192Y-102831762D01*
X157163188Y-102831763D01*
X157156334Y-102832474D01*
X157149798Y-102834655D01*
X157149796Y-102834655D01*
X157087131Y-102855562D01*
X156988554Y-102888450D01*
X156838152Y-102981522D01*
X156832979Y-102986704D01*
X156775186Y-103044598D01*
X156713195Y-103106697D01*
X156709355Y-103112927D01*
X156709354Y-103112928D01*
X156624966Y-103249831D01*
X156620385Y-103257262D01*
X156564703Y-103425139D01*
X156564003Y-103431975D01*
X156564002Y-103431978D01*
X156559591Y-103475031D01*
X156554000Y-103529600D01*
X156554000Y-104830400D01*
X156554337Y-104833646D01*
X156554337Y-104833650D01*
X156564065Y-104927402D01*
X156564974Y-104936166D01*
X156567155Y-104942702D01*
X156567155Y-104942704D01*
X156610932Y-105073919D01*
X156620950Y-105103946D01*
X156714022Y-105254348D01*
X156839197Y-105379305D01*
X156845427Y-105383145D01*
X156845428Y-105383146D01*
X156972047Y-105461195D01*
X156989762Y-105472115D01*
X156996709Y-105474419D01*
X156998776Y-105475383D01*
X157052061Y-105522299D01*
X157071523Y-105590576D01*
X157050982Y-105658536D01*
X157021181Y-105690337D01*
X157007465Y-105700635D01*
X156853129Y-105862138D01*
X156727243Y-106046680D01*
X156633188Y-106249305D01*
X156573489Y-106464570D01*
X156549751Y-106686695D01*
X156550048Y-106691848D01*
X156550048Y-106691851D01*
X156552410Y-106732812D01*
X156562610Y-106909715D01*
X156563747Y-106914761D01*
X156563748Y-106914767D01*
X156584775Y-107008069D01*
X156611722Y-107127639D01*
X156695766Y-107334616D01*
X156812487Y-107525088D01*
X156958750Y-107693938D01*
X157130626Y-107836632D01*
X157141563Y-107843023D01*
X157203945Y-107879476D01*
X157252669Y-107931114D01*
X157265740Y-108000897D01*
X157239009Y-108066669D01*
X157198555Y-108100027D01*
X157186107Y-108106507D01*
X157181974Y-108109610D01*
X157181971Y-108109612D01*
X157131223Y-108147715D01*
X157007465Y-108240635D01*
X156853129Y-108402138D01*
X156727243Y-108586680D01*
X156633188Y-108789305D01*
X156573489Y-109004570D01*
X156549751Y-109226695D01*
X149112918Y-109226695D01*
X149097352Y-109037361D01*
X149042931Y-108820702D01*
X148953854Y-108615840D01*
X148914406Y-108554862D01*
X148835322Y-108432617D01*
X148835320Y-108432614D01*
X148832514Y-108428277D01*
X148682170Y-108263051D01*
X148678119Y-108259852D01*
X148678115Y-108259848D01*
X148510914Y-108127800D01*
X148510910Y-108127798D01*
X148506859Y-108124598D01*
X148465069Y-108101529D01*
X148415098Y-108051097D01*
X148400326Y-107981654D01*
X148425442Y-107915248D01*
X148452793Y-107888642D01*
X148501747Y-107853723D01*
X148510148Y-107843023D01*
X148503160Y-107829870D01*
X147765312Y-107092022D01*
X147751368Y-107084408D01*
X147749535Y-107084539D01*
X147742920Y-107088790D01*
X146999237Y-107832473D01*
X146992477Y-107844853D01*
X146997758Y-107851907D01*
X147044469Y-107879203D01*
X147093193Y-107930841D01*
X147106264Y-108000624D01*
X147079533Y-108066396D01*
X147039084Y-108099752D01*
X147026107Y-108106507D01*
X147021974Y-108109610D01*
X147021971Y-108109612D01*
X146971223Y-108147715D01*
X146847465Y-108240635D01*
X146693129Y-108402138D01*
X146585701Y-108559621D01*
X146530793Y-108604621D01*
X146460268Y-108612792D01*
X146396521Y-108581538D01*
X146375824Y-108557054D01*
X146295322Y-108432617D01*
X146295320Y-108432614D01*
X146292514Y-108428277D01*
X146142170Y-108263051D01*
X146138119Y-108259852D01*
X146138115Y-108259848D01*
X145970914Y-108127800D01*
X145970910Y-108127798D01*
X145966859Y-108124598D01*
X145925553Y-108101796D01*
X145875584Y-108051364D01*
X145860812Y-107981921D01*
X145885928Y-107915516D01*
X145913280Y-107888909D01*
X145977610Y-107843023D01*
X146092360Y-107761173D01*
X146250596Y-107603489D01*
X146310094Y-107520689D01*
X146380953Y-107422077D01*
X146382140Y-107422930D01*
X146429460Y-107379362D01*
X146499397Y-107367145D01*
X146564838Y-107394678D01*
X146592666Y-107426512D01*
X146618959Y-107469419D01*
X146629416Y-107478880D01*
X146638194Y-107475096D01*
X147380478Y-106732812D01*
X147386856Y-106721132D01*
X148116908Y-106721132D01*
X148117039Y-106722965D01*
X148121290Y-106729580D01*
X148862974Y-107471264D01*
X148874984Y-107477823D01*
X148886723Y-107468855D01*
X148917504Y-107426019D01*
X148922815Y-107417180D01*
X149017170Y-107226267D01*
X149020969Y-107216672D01*
X149082876Y-107012915D01*
X149085055Y-107002834D01*
X149113090Y-106789887D01*
X149113609Y-106783212D01*
X149115072Y-106723364D01*
X149114878Y-106716646D01*
X149097281Y-106502604D01*
X149095596Y-106492424D01*
X149043714Y-106285875D01*
X149040394Y-106276124D01*
X148955472Y-106080814D01*
X148950605Y-106071739D01*
X148885563Y-105971197D01*
X148874877Y-105961995D01*
X148865312Y-105966398D01*
X148124522Y-106707188D01*
X148116908Y-106721132D01*
X147386856Y-106721132D01*
X147388092Y-106718868D01*
X147387961Y-106717035D01*
X147383710Y-106710420D01*
X146642349Y-105969059D01*
X146630813Y-105962759D01*
X146618531Y-105972382D01*
X146585999Y-106020072D01*
X146531087Y-106065075D01*
X146460563Y-106073246D01*
X146396816Y-106041992D01*
X146376118Y-106017508D01*
X146295322Y-105892617D01*
X146295320Y-105892614D01*
X146292514Y-105888277D01*
X146142170Y-105723051D01*
X146099506Y-105689357D01*
X146058444Y-105631441D01*
X146055212Y-105560518D01*
X146090837Y-105499107D01*
X146124147Y-105476376D01*
X146129507Y-105473865D01*
X146136446Y-105471550D01*
X146286848Y-105378478D01*
X146411805Y-105253303D01*
X146504615Y-105102738D01*
X146506918Y-105095795D01*
X146509263Y-105090766D01*
X146556180Y-105037481D01*
X146624458Y-105018021D01*
X146692418Y-105038564D01*
X146718694Y-105061520D01*
X146795360Y-105150025D01*
X146798750Y-105153938D01*
X146970626Y-105296632D01*
X146997413Y-105312285D01*
X147044455Y-105339774D01*
X147093179Y-105391412D01*
X147106250Y-105461195D01*
X147079519Y-105526967D01*
X147039062Y-105560327D01*
X147030960Y-105564544D01*
X147022234Y-105570039D01*
X147002177Y-105585099D01*
X146993723Y-105596427D01*
X147000468Y-105608758D01*
X147739688Y-106347978D01*
X147753632Y-106355592D01*
X147755465Y-106355461D01*
X147762080Y-106351210D01*
X148505889Y-105607401D01*
X148512910Y-105594544D01*
X148506111Y-105585213D01*
X148502059Y-105582521D01*
X148465102Y-105562120D01*
X148415131Y-105511687D01*
X148400359Y-105442245D01*
X148425475Y-105375839D01*
X148452827Y-105349232D01*
X148504625Y-105312285D01*
X148632360Y-105221173D01*
X148790596Y-105063489D01*
X148853296Y-104976233D01*
X148917935Y-104886277D01*
X148920953Y-104882077D01*
X148948108Y-104827134D01*
X149017636Y-104686453D01*
X149017637Y-104686451D01*
X149019930Y-104681811D01*
X149084870Y-104468069D01*
X149114029Y-104246590D01*
X149115656Y-104180000D01*
X149115380Y-104176641D01*
X149114486Y-104165763D01*
X149128840Y-104096233D01*
X149150967Y-104066346D01*
X156765908Y-96451405D01*
X156828220Y-96417379D01*
X156855003Y-96414500D01*
X157561552Y-96414500D01*
X157629673Y-96434502D01*
X157650647Y-96451405D01*
X157682219Y-96482977D01*
X157686727Y-96486134D01*
X157686730Y-96486136D01*
X157762495Y-96539187D01*
X157864323Y-96610488D01*
X157869305Y-96612811D01*
X157869310Y-96612814D01*
X158059810Y-96701645D01*
X158065804Y-96704440D01*
X158071112Y-96705862D01*
X158071114Y-96705863D01*
X158136949Y-96723503D01*
X158280537Y-96761978D01*
X158502000Y-96781353D01*
X158723463Y-96761978D01*
X158867051Y-96723503D01*
X158932886Y-96705863D01*
X158932888Y-96705862D01*
X158938196Y-96704440D01*
X158944190Y-96701645D01*
X159134690Y-96612814D01*
X159134695Y-96612811D01*
X159139677Y-96610488D01*
X159204959Y-96564777D01*
X160347777Y-96564777D01*
X160357074Y-96576793D01*
X160400069Y-96606898D01*
X160409555Y-96612376D01*
X160600993Y-96701645D01*
X160611285Y-96705391D01*
X160815309Y-96760059D01*
X160826104Y-96761962D01*
X161036525Y-96780372D01*
X161047475Y-96780372D01*
X161257896Y-96761962D01*
X161268691Y-96760059D01*
X161472715Y-96705391D01*
X161483007Y-96701645D01*
X161674445Y-96612376D01*
X161683931Y-96606898D01*
X161727764Y-96576207D01*
X161736139Y-96565729D01*
X161729071Y-96552281D01*
X161054812Y-95878022D01*
X161040868Y-95870408D01*
X161039035Y-95870539D01*
X161032420Y-95874790D01*
X160354207Y-96553003D01*
X160347777Y-96564777D01*
X159204959Y-96564777D01*
X159241505Y-96539187D01*
X159317270Y-96486136D01*
X159317273Y-96486134D01*
X159321781Y-96482977D01*
X159478977Y-96325781D01*
X159566894Y-96200223D01*
X159603331Y-96148185D01*
X159603332Y-96148183D01*
X159606488Y-96143676D01*
X159608811Y-96138694D01*
X159608814Y-96138689D01*
X159658081Y-96033035D01*
X159704999Y-95979750D01*
X159773276Y-95960289D01*
X159841236Y-95980831D01*
X159886471Y-96033035D01*
X159935623Y-96138441D01*
X159941103Y-96147932D01*
X159971794Y-96191765D01*
X159982271Y-96200140D01*
X159995718Y-96193072D01*
X160669978Y-95518812D01*
X160677592Y-95504868D01*
X160677461Y-95503035D01*
X160673210Y-95496420D01*
X159994997Y-94818207D01*
X159983223Y-94811777D01*
X159971207Y-94821074D01*
X159941103Y-94864068D01*
X159935623Y-94873559D01*
X159886471Y-94978965D01*
X159839553Y-95032250D01*
X159771276Y-95051711D01*
X159703316Y-95031169D01*
X159658081Y-94978965D01*
X159608814Y-94873311D01*
X159608811Y-94873306D01*
X159606488Y-94868324D01*
X159592946Y-94848984D01*
X159482136Y-94690730D01*
X159482134Y-94690727D01*
X159478977Y-94686219D01*
X159321781Y-94529023D01*
X159317273Y-94525866D01*
X159317270Y-94525864D01*
X159241505Y-94472813D01*
X159203599Y-94446271D01*
X160347860Y-94446271D01*
X160354928Y-94459718D01*
X161029188Y-95133978D01*
X161043132Y-95141592D01*
X161044965Y-95141461D01*
X161051580Y-95137210D01*
X161729793Y-94458997D01*
X161736223Y-94447223D01*
X161726926Y-94435207D01*
X161683931Y-94405102D01*
X161674445Y-94399624D01*
X161483007Y-94310355D01*
X161472715Y-94306609D01*
X161268691Y-94251941D01*
X161257896Y-94250038D01*
X161047475Y-94231628D01*
X161036525Y-94231628D01*
X160826104Y-94250038D01*
X160815309Y-94251941D01*
X160611285Y-94306609D01*
X160600993Y-94310355D01*
X160409559Y-94399623D01*
X160400068Y-94405103D01*
X160356235Y-94435794D01*
X160347860Y-94446271D01*
X159203599Y-94446271D01*
X159139677Y-94401512D01*
X159134695Y-94399189D01*
X159134690Y-94399186D01*
X158943178Y-94309883D01*
X158943177Y-94309882D01*
X158938196Y-94307560D01*
X158932888Y-94306138D01*
X158932886Y-94306137D01*
X158867051Y-94288497D01*
X158723463Y-94250022D01*
X158502000Y-94230647D01*
X158280537Y-94250022D01*
X158136949Y-94288497D01*
X158071114Y-94306137D01*
X158071112Y-94306138D01*
X158065804Y-94307560D01*
X158060823Y-94309882D01*
X158060822Y-94309883D01*
X157869311Y-94399186D01*
X157869306Y-94399189D01*
X157864324Y-94401512D01*
X157859817Y-94404668D01*
X157859815Y-94404669D01*
X157686730Y-94525864D01*
X157686727Y-94525866D01*
X157682219Y-94529023D01*
X157650647Y-94560595D01*
X157588335Y-94594621D01*
X157561552Y-94597500D01*
X156507916Y-94597500D01*
X156488207Y-94595949D01*
X156474309Y-94593748D01*
X156467722Y-94594093D01*
X156467717Y-94594093D01*
X156406019Y-94597327D01*
X156399425Y-94597500D01*
X156378890Y-94597500D01*
X156372722Y-94598148D01*
X156358460Y-94599647D01*
X156351885Y-94600164D01*
X156290196Y-94603397D01*
X156290195Y-94603397D01*
X156283596Y-94603743D01*
X156270008Y-94607384D01*
X156250561Y-94610988D01*
X156243144Y-94611767D01*
X156243140Y-94611768D01*
X156236572Y-94612458D01*
X156179776Y-94630912D01*
X156171509Y-94633598D01*
X156165185Y-94635471D01*
X156105510Y-94651461D01*
X156105506Y-94651462D01*
X156099130Y-94653171D01*
X156093248Y-94656168D01*
X156086593Y-94659559D01*
X156068326Y-94667125D01*
X156061228Y-94669431D01*
X156061226Y-94669432D01*
X156054944Y-94671473D01*
X156049222Y-94674777D01*
X156049221Y-94674777D01*
X155995723Y-94705664D01*
X155989926Y-94708812D01*
X155934852Y-94736873D01*
X155934849Y-94736875D01*
X155928969Y-94739871D01*
X155918026Y-94748733D01*
X155901737Y-94759927D01*
X155889556Y-94766960D01*
X155884650Y-94771377D01*
X155884645Y-94771381D01*
X155838721Y-94812731D01*
X155833720Y-94817003D01*
X155817759Y-94829928D01*
X155803244Y-94844443D01*
X155798459Y-94848984D01*
X155747634Y-94894747D01*
X155743755Y-94900086D01*
X155743754Y-94900087D01*
X155739360Y-94906135D01*
X155726519Y-94921168D01*
X147863014Y-102784673D01*
X147800702Y-102818699D01*
X147772380Y-102821569D01*
X147662581Y-102820228D01*
X147662579Y-102820228D01*
X147657411Y-102820165D01*
X147436591Y-102853955D01*
X147224256Y-102923357D01*
X147194275Y-102938964D01*
X147104178Y-102985866D01*
X147026107Y-103026507D01*
X147021974Y-103029610D01*
X147021971Y-103029612D01*
X146851600Y-103157530D01*
X146847465Y-103160635D01*
X146756281Y-103256054D01*
X146713527Y-103300793D01*
X146652003Y-103336223D01*
X146581090Y-103332766D01*
X146523304Y-103291520D01*
X146508333Y-103267194D01*
X146506365Y-103262994D01*
X146504050Y-103256054D01*
X146410978Y-103105652D01*
X146285803Y-102980695D01*
X146229487Y-102945981D01*
X146141468Y-102891725D01*
X146141466Y-102891724D01*
X146135238Y-102887885D01*
X146037787Y-102855562D01*
X145973889Y-102834368D01*
X145973887Y-102834368D01*
X145967361Y-102832203D01*
X145960525Y-102831503D01*
X145960522Y-102831502D01*
X145917469Y-102827091D01*
X145862900Y-102821500D01*
X144562100Y-102821500D01*
X144558854Y-102821837D01*
X144558850Y-102821837D01*
X144463192Y-102831762D01*
X144463188Y-102831763D01*
X144456334Y-102832474D01*
X144449798Y-102834655D01*
X144449796Y-102834655D01*
X144387131Y-102855562D01*
X144288554Y-102888450D01*
X144138152Y-102981522D01*
X144132979Y-102986704D01*
X144075186Y-103044598D01*
X144013195Y-103106697D01*
X144009355Y-103112927D01*
X144009354Y-103112928D01*
X143924966Y-103249831D01*
X143920385Y-103257262D01*
X143864703Y-103425139D01*
X143864003Y-103431975D01*
X143864002Y-103431978D01*
X143859591Y-103475031D01*
X143854000Y-103529600D01*
X143854000Y-104830400D01*
X143854337Y-104833646D01*
X143854337Y-104833650D01*
X143864065Y-104927402D01*
X143864974Y-104936166D01*
X143867155Y-104942702D01*
X143867155Y-104942704D01*
X143910932Y-105073919D01*
X143920950Y-105103946D01*
X144014022Y-105254348D01*
X144139197Y-105379305D01*
X144145427Y-105383145D01*
X144145428Y-105383146D01*
X144272047Y-105461195D01*
X144289762Y-105472115D01*
X144296709Y-105474419D01*
X144298776Y-105475383D01*
X144352061Y-105522299D01*
X144371523Y-105590576D01*
X144350982Y-105658536D01*
X144321181Y-105690337D01*
X144307465Y-105700635D01*
X144153129Y-105862138D01*
X144027243Y-106046680D01*
X143933188Y-106249305D01*
X143873489Y-106464570D01*
X143849751Y-106686695D01*
X143850048Y-106691848D01*
X143850048Y-106691851D01*
X143852410Y-106732812D01*
X143862610Y-106909715D01*
X143863747Y-106914761D01*
X143863748Y-106914767D01*
X143884775Y-107008069D01*
X143911722Y-107127639D01*
X143995766Y-107334616D01*
X144112487Y-107525088D01*
X144258750Y-107693938D01*
X144430626Y-107836632D01*
X144441563Y-107843023D01*
X144503945Y-107879476D01*
X144552669Y-107931114D01*
X144565740Y-108000897D01*
X144539009Y-108066669D01*
X144498555Y-108100027D01*
X144486107Y-108106507D01*
X144481974Y-108109610D01*
X144481971Y-108109612D01*
X144431223Y-108147715D01*
X144307465Y-108240635D01*
X144153129Y-108402138D01*
X144027243Y-108586680D01*
X143933188Y-108789305D01*
X143873489Y-109004570D01*
X143849751Y-109226695D01*
X136412918Y-109226695D01*
X136397352Y-109037361D01*
X136342931Y-108820702D01*
X136253854Y-108615840D01*
X136214406Y-108554862D01*
X136135322Y-108432617D01*
X136135320Y-108432614D01*
X136132514Y-108428277D01*
X135982170Y-108263051D01*
X135978119Y-108259852D01*
X135978115Y-108259848D01*
X135810914Y-108127800D01*
X135810910Y-108127798D01*
X135806859Y-108124598D01*
X135765069Y-108101529D01*
X135715098Y-108051097D01*
X135700326Y-107981654D01*
X135725442Y-107915248D01*
X135752793Y-107888642D01*
X135801747Y-107853723D01*
X135810148Y-107843023D01*
X135803160Y-107829870D01*
X135065312Y-107092022D01*
X135051368Y-107084408D01*
X135049535Y-107084539D01*
X135042920Y-107088790D01*
X134299237Y-107832473D01*
X134292477Y-107844853D01*
X134297758Y-107851907D01*
X134344469Y-107879203D01*
X134393193Y-107930841D01*
X134406264Y-108000624D01*
X134379533Y-108066396D01*
X134339084Y-108099752D01*
X134326107Y-108106507D01*
X134321974Y-108109610D01*
X134321971Y-108109612D01*
X134271223Y-108147715D01*
X134147465Y-108240635D01*
X133993129Y-108402138D01*
X133885701Y-108559621D01*
X133830793Y-108604621D01*
X133760268Y-108612792D01*
X133696521Y-108581538D01*
X133675824Y-108557054D01*
X133595322Y-108432617D01*
X133595320Y-108432614D01*
X133592514Y-108428277D01*
X133442170Y-108263051D01*
X133438119Y-108259852D01*
X133438115Y-108259848D01*
X133270914Y-108127800D01*
X133270910Y-108127798D01*
X133266859Y-108124598D01*
X133225553Y-108101796D01*
X133175584Y-108051364D01*
X133160812Y-107981921D01*
X133185928Y-107915516D01*
X133213280Y-107888909D01*
X133277610Y-107843023D01*
X133392360Y-107761173D01*
X133550596Y-107603489D01*
X133610094Y-107520689D01*
X133680953Y-107422077D01*
X133682140Y-107422930D01*
X133729460Y-107379362D01*
X133799397Y-107367145D01*
X133864838Y-107394678D01*
X133892666Y-107426512D01*
X133918959Y-107469419D01*
X133929416Y-107478880D01*
X133938194Y-107475096D01*
X134680478Y-106732812D01*
X134686856Y-106721132D01*
X135416908Y-106721132D01*
X135417039Y-106722965D01*
X135421290Y-106729580D01*
X136162974Y-107471264D01*
X136174984Y-107477823D01*
X136186723Y-107468855D01*
X136217504Y-107426019D01*
X136222815Y-107417180D01*
X136317170Y-107226267D01*
X136320969Y-107216672D01*
X136382876Y-107012915D01*
X136385055Y-107002834D01*
X136413090Y-106789887D01*
X136413609Y-106783212D01*
X136415072Y-106723364D01*
X136414878Y-106716646D01*
X136397281Y-106502604D01*
X136395596Y-106492424D01*
X136343714Y-106285875D01*
X136340394Y-106276124D01*
X136255472Y-106080814D01*
X136250605Y-106071739D01*
X136185563Y-105971197D01*
X136174877Y-105961995D01*
X136165312Y-105966398D01*
X135424522Y-106707188D01*
X135416908Y-106721132D01*
X134686856Y-106721132D01*
X134688092Y-106718868D01*
X134687961Y-106717035D01*
X134683710Y-106710420D01*
X133942349Y-105969059D01*
X133930813Y-105962759D01*
X133918531Y-105972382D01*
X133885999Y-106020072D01*
X133831087Y-106065075D01*
X133760563Y-106073246D01*
X133696816Y-106041992D01*
X133676118Y-106017508D01*
X133595322Y-105892617D01*
X133595320Y-105892614D01*
X133592514Y-105888277D01*
X133442170Y-105723051D01*
X133399506Y-105689357D01*
X133358444Y-105631441D01*
X133355212Y-105560518D01*
X133390837Y-105499107D01*
X133424147Y-105476376D01*
X133429507Y-105473865D01*
X133436446Y-105471550D01*
X133586848Y-105378478D01*
X133711805Y-105253303D01*
X133804615Y-105102738D01*
X133806918Y-105095795D01*
X133809263Y-105090766D01*
X133856180Y-105037481D01*
X133924458Y-105018021D01*
X133992418Y-105038564D01*
X134018694Y-105061520D01*
X134095360Y-105150025D01*
X134098750Y-105153938D01*
X134270626Y-105296632D01*
X134297413Y-105312285D01*
X134344455Y-105339774D01*
X134393179Y-105391412D01*
X134406250Y-105461195D01*
X134379519Y-105526967D01*
X134339062Y-105560327D01*
X134330960Y-105564544D01*
X134322234Y-105570039D01*
X134302177Y-105585099D01*
X134293723Y-105596427D01*
X134300468Y-105608758D01*
X135039688Y-106347978D01*
X135053632Y-106355592D01*
X135055465Y-106355461D01*
X135062080Y-106351210D01*
X135805889Y-105607401D01*
X135812910Y-105594544D01*
X135806111Y-105585213D01*
X135802059Y-105582521D01*
X135765102Y-105562120D01*
X135715131Y-105511687D01*
X135700359Y-105442245D01*
X135725475Y-105375839D01*
X135752827Y-105349232D01*
X135804625Y-105312285D01*
X135932360Y-105221173D01*
X136090596Y-105063489D01*
X136153296Y-104976233D01*
X136217935Y-104886277D01*
X136220953Y-104882077D01*
X136248108Y-104827134D01*
X136317636Y-104686453D01*
X136317637Y-104686451D01*
X136319930Y-104681811D01*
X136384870Y-104468069D01*
X136414029Y-104246590D01*
X136415656Y-104180000D01*
X136397352Y-103957361D01*
X136342931Y-103740702D01*
X136253854Y-103535840D01*
X136167688Y-103402647D01*
X136135322Y-103352617D01*
X136135320Y-103352614D01*
X136132514Y-103348277D01*
X136118400Y-103332766D01*
X135993807Y-103195839D01*
X135962755Y-103131993D01*
X135961000Y-103111039D01*
X135961000Y-100335917D01*
X135962551Y-100316205D01*
X135963720Y-100308825D01*
X135964752Y-100302310D01*
X135961173Y-100234020D01*
X135961000Y-100227426D01*
X135961000Y-100206890D01*
X135959390Y-100191572D01*
X135958853Y-100186458D01*
X135958336Y-100179884D01*
X135955103Y-100118192D01*
X135955102Y-100118188D01*
X135954757Y-100111597D01*
X135953047Y-100105214D01*
X135951117Y-100098009D01*
X135947515Y-100078575D01*
X135946734Y-100071146D01*
X135946732Y-100071137D01*
X135946042Y-100064572D01*
X135924900Y-99999503D01*
X135923031Y-99993195D01*
X135907037Y-99933504D01*
X135907037Y-99933503D01*
X135905329Y-99927130D01*
X135898940Y-99914592D01*
X135891375Y-99896326D01*
X135889069Y-99889228D01*
X135889068Y-99889226D01*
X135887027Y-99882944D01*
X135881843Y-99873964D01*
X135852833Y-99823718D01*
X135849685Y-99817921D01*
X135842722Y-99804256D01*
X135818629Y-99756970D01*
X135809773Y-99746033D01*
X135798573Y-99729737D01*
X135794843Y-99723276D01*
X135794840Y-99723272D01*
X135791540Y-99717556D01*
X135787123Y-99712650D01*
X135787119Y-99712645D01*
X135745778Y-99666731D01*
X135741494Y-99661716D01*
X135730648Y-99648323D01*
X135728572Y-99645759D01*
X135714057Y-99631244D01*
X135709516Y-99626459D01*
X135668173Y-99580543D01*
X135663753Y-99575634D01*
X135652365Y-99567360D01*
X135637332Y-99554519D01*
X133539405Y-97456592D01*
X133505379Y-97394280D01*
X133502500Y-97367497D01*
X133502500Y-96446448D01*
X133522502Y-96378327D01*
X133539405Y-96357353D01*
X133570977Y-96325781D01*
X133658894Y-96200223D01*
X133695331Y-96148185D01*
X133695332Y-96148183D01*
X133698488Y-96143676D01*
X133700811Y-96138694D01*
X133700814Y-96138689D01*
X133790117Y-95947178D01*
X133790118Y-95947177D01*
X133792440Y-95942196D01*
X133849978Y-95727463D01*
X133869353Y-95506000D01*
X133849978Y-95284537D01*
X133792440Y-95069804D01*
X133716120Y-94906135D01*
X133700814Y-94873311D01*
X133700811Y-94873306D01*
X133698488Y-94868324D01*
X133684946Y-94848984D01*
X133574136Y-94690730D01*
X133574134Y-94690727D01*
X133570977Y-94686219D01*
X133413781Y-94529023D01*
X133409273Y-94525866D01*
X133409270Y-94525864D01*
X133333505Y-94472813D01*
X133231677Y-94401512D01*
X133226695Y-94399189D01*
X133226690Y-94399186D01*
X133035178Y-94309883D01*
X133035177Y-94309882D01*
X133030196Y-94307560D01*
X133024888Y-94306138D01*
X133024886Y-94306137D01*
X132959051Y-94288497D01*
X132815463Y-94250022D01*
X132594000Y-94230647D01*
X132372537Y-94250022D01*
X132228949Y-94288497D01*
X132163114Y-94306137D01*
X132163112Y-94306138D01*
X132157804Y-94307560D01*
X132152823Y-94309882D01*
X132152822Y-94309883D01*
X131961311Y-94399186D01*
X131961306Y-94399189D01*
X131956324Y-94401512D01*
X131951817Y-94404668D01*
X131951815Y-94404669D01*
X131778730Y-94525864D01*
X131778727Y-94525866D01*
X131774219Y-94529023D01*
X131617023Y-94686219D01*
X131613866Y-94690727D01*
X131613864Y-94690730D01*
X131503054Y-94848984D01*
X131489512Y-94868324D01*
X131487189Y-94873306D01*
X131487186Y-94873311D01*
X131437919Y-94978965D01*
X131391001Y-95032250D01*
X131322724Y-95051711D01*
X131254764Y-95031169D01*
X131209529Y-94978965D01*
X131160377Y-94873559D01*
X131154897Y-94864068D01*
X131124206Y-94820235D01*
X131113729Y-94811860D01*
X131100282Y-94818928D01*
X130426022Y-95493188D01*
X130418408Y-95507132D01*
X129688356Y-95507132D01*
X129689592Y-95504868D01*
X129689461Y-95503035D01*
X129685210Y-95496420D01*
X129006997Y-94818207D01*
X128995223Y-94811777D01*
X128983207Y-94821074D01*
X128953103Y-94864068D01*
X128947623Y-94873559D01*
X128898471Y-94978965D01*
X128851553Y-95032250D01*
X128783276Y-95051711D01*
X128715316Y-95031169D01*
X128670081Y-94978965D01*
X128620814Y-94873311D01*
X128620811Y-94873306D01*
X128618488Y-94868324D01*
X128604946Y-94848984D01*
X128494136Y-94690730D01*
X128494134Y-94690727D01*
X128490977Y-94686219D01*
X128333781Y-94529023D01*
X128329273Y-94525866D01*
X128329270Y-94525864D01*
X128253505Y-94472813D01*
X128215599Y-94446271D01*
X129359860Y-94446271D01*
X129366928Y-94459718D01*
X130041188Y-95133978D01*
X130055132Y-95141592D01*
X130056965Y-95141461D01*
X130063580Y-95137210D01*
X130741793Y-94458997D01*
X130748223Y-94447223D01*
X130738926Y-94435207D01*
X130695931Y-94405102D01*
X130686445Y-94399624D01*
X130495007Y-94310355D01*
X130484715Y-94306609D01*
X130280691Y-94251941D01*
X130269896Y-94250038D01*
X130059475Y-94231628D01*
X130048525Y-94231628D01*
X129838104Y-94250038D01*
X129827309Y-94251941D01*
X129623285Y-94306609D01*
X129612993Y-94310355D01*
X129421559Y-94399623D01*
X129412068Y-94405103D01*
X129368235Y-94435794D01*
X129359860Y-94446271D01*
X128215599Y-94446271D01*
X128151677Y-94401512D01*
X128146695Y-94399189D01*
X128146690Y-94399186D01*
X127955178Y-94309883D01*
X127955177Y-94309882D01*
X127950196Y-94307560D01*
X127944888Y-94306138D01*
X127944886Y-94306137D01*
X127879051Y-94288497D01*
X127735463Y-94250022D01*
X127514000Y-94230647D01*
X127292537Y-94250022D01*
X127148949Y-94288497D01*
X127083114Y-94306137D01*
X127083112Y-94306138D01*
X127077804Y-94307560D01*
X127072823Y-94309882D01*
X127072822Y-94309883D01*
X126881311Y-94399186D01*
X126881306Y-94399189D01*
X126876324Y-94401512D01*
X126871817Y-94404668D01*
X126871815Y-94404669D01*
X126698730Y-94525864D01*
X126698727Y-94525866D01*
X126694219Y-94529023D01*
X126537023Y-94686219D01*
X126533866Y-94690727D01*
X126533864Y-94690730D01*
X126423054Y-94848984D01*
X126409512Y-94868324D01*
X126407189Y-94873306D01*
X126407186Y-94873311D01*
X126391880Y-94906135D01*
X126315560Y-95069804D01*
X126258022Y-95284537D01*
X126238647Y-95506000D01*
X106061813Y-95506000D01*
X105476981Y-94921168D01*
X105464140Y-94906135D01*
X105459746Y-94900087D01*
X105459745Y-94900086D01*
X105455866Y-94894747D01*
X105405041Y-94848984D01*
X105400256Y-94844443D01*
X105385741Y-94829928D01*
X105369795Y-94817015D01*
X105369784Y-94817006D01*
X105364769Y-94812722D01*
X105318855Y-94771381D01*
X105318850Y-94771377D01*
X105313944Y-94766960D01*
X105308228Y-94763660D01*
X105308224Y-94763657D01*
X105301763Y-94759927D01*
X105285466Y-94748727D01*
X105279660Y-94744025D01*
X105279658Y-94744024D01*
X105274530Y-94739871D01*
X105213573Y-94708812D01*
X105207782Y-94705667D01*
X105154279Y-94674777D01*
X105154278Y-94674776D01*
X105148556Y-94671473D01*
X105142274Y-94669432D01*
X105142272Y-94669431D01*
X105135174Y-94667125D01*
X105116907Y-94659559D01*
X105104370Y-94653171D01*
X105097989Y-94651461D01*
X105079852Y-94646601D01*
X105038299Y-94635467D01*
X105031997Y-94633600D01*
X104966928Y-94612458D01*
X104960363Y-94611768D01*
X104960354Y-94611766D01*
X104952925Y-94610985D01*
X104933491Y-94607383D01*
X104926286Y-94605453D01*
X104926284Y-94605453D01*
X104919903Y-94603743D01*
X104913312Y-94603398D01*
X104913308Y-94603397D01*
X104851616Y-94600164D01*
X104845042Y-94599647D01*
X104827884Y-94597844D01*
X104827882Y-94597844D01*
X104824610Y-94597500D01*
X104804074Y-94597500D01*
X104797480Y-94597327D01*
X104735782Y-94594093D01*
X104735777Y-94594093D01*
X104729190Y-94593748D01*
X104715292Y-94595949D01*
X104695583Y-94597500D01*
X102038448Y-94597500D01*
X101970327Y-94577498D01*
X101949353Y-94560595D01*
X101917781Y-94529023D01*
X101913273Y-94525866D01*
X101913270Y-94525864D01*
X101837505Y-94472813D01*
X101735677Y-94401512D01*
X101730695Y-94399189D01*
X101730690Y-94399186D01*
X101539178Y-94309883D01*
X101539177Y-94309882D01*
X101534196Y-94307560D01*
X101528888Y-94306138D01*
X101528886Y-94306137D01*
X101463051Y-94288497D01*
X101319463Y-94250022D01*
X101098000Y-94230647D01*
X100876537Y-94250022D01*
X100732949Y-94288497D01*
X100667114Y-94306137D01*
X100667112Y-94306138D01*
X100661804Y-94307560D01*
X100656823Y-94309882D01*
X100656822Y-94309883D01*
X100465311Y-94399186D01*
X100465306Y-94399189D01*
X100460324Y-94401512D01*
X100455817Y-94404668D01*
X100455815Y-94404669D01*
X100282730Y-94525864D01*
X100282727Y-94525866D01*
X100278219Y-94529023D01*
X100121023Y-94686219D01*
X100117866Y-94690727D01*
X100117864Y-94690730D01*
X100007054Y-94848984D01*
X99993512Y-94868324D01*
X99991189Y-94873306D01*
X99991186Y-94873311D01*
X99941919Y-94978965D01*
X99895001Y-95032250D01*
X99826724Y-95051711D01*
X99758764Y-95031169D01*
X99713529Y-94978965D01*
X99664377Y-94873559D01*
X99658897Y-94864068D01*
X99628206Y-94820235D01*
X99617729Y-94811860D01*
X99604282Y-94818928D01*
X98930022Y-95493188D01*
X98922408Y-95507132D01*
X98192356Y-95507132D01*
X98193592Y-95504868D01*
X98193461Y-95503035D01*
X98189210Y-95496420D01*
X97510997Y-94818207D01*
X97499223Y-94811777D01*
X97487207Y-94821074D01*
X97457103Y-94864068D01*
X97451623Y-94873559D01*
X97402471Y-94978965D01*
X97355553Y-95032250D01*
X97287276Y-95051711D01*
X97219316Y-95031169D01*
X97174081Y-94978965D01*
X97124814Y-94873311D01*
X97124811Y-94873306D01*
X97122488Y-94868324D01*
X97108946Y-94848984D01*
X96998136Y-94690730D01*
X96998134Y-94690727D01*
X96994977Y-94686219D01*
X96837781Y-94529023D01*
X96833273Y-94525866D01*
X96833270Y-94525864D01*
X96757505Y-94472813D01*
X96719599Y-94446271D01*
X97863860Y-94446271D01*
X97870928Y-94459718D01*
X98545188Y-95133978D01*
X98559132Y-95141592D01*
X98560965Y-95141461D01*
X98567580Y-95137210D01*
X99245793Y-94458997D01*
X99252223Y-94447223D01*
X99242926Y-94435207D01*
X99199931Y-94405102D01*
X99190445Y-94399624D01*
X98999007Y-94310355D01*
X98988715Y-94306609D01*
X98784691Y-94251941D01*
X98773896Y-94250038D01*
X98563475Y-94231628D01*
X98552525Y-94231628D01*
X98342104Y-94250038D01*
X98331309Y-94251941D01*
X98127285Y-94306609D01*
X98116993Y-94310355D01*
X97925559Y-94399623D01*
X97916068Y-94405103D01*
X97872235Y-94435794D01*
X97863860Y-94446271D01*
X96719599Y-94446271D01*
X96655677Y-94401512D01*
X96650695Y-94399189D01*
X96650690Y-94399186D01*
X96459178Y-94309883D01*
X96459177Y-94309882D01*
X96454196Y-94307560D01*
X96448888Y-94306138D01*
X96448886Y-94306137D01*
X96383051Y-94288497D01*
X96239463Y-94250022D01*
X96018000Y-94230647D01*
X95796537Y-94250022D01*
X95652949Y-94288497D01*
X95587114Y-94306137D01*
X95587112Y-94306138D01*
X95581804Y-94307560D01*
X95576823Y-94309882D01*
X95576822Y-94309883D01*
X95385311Y-94399186D01*
X95385306Y-94399189D01*
X95380324Y-94401512D01*
X95375817Y-94404668D01*
X95375815Y-94404669D01*
X95202730Y-94525864D01*
X95202727Y-94525866D01*
X95198219Y-94529023D01*
X95041023Y-94686219D01*
X95037866Y-94690727D01*
X95037864Y-94690730D01*
X94927054Y-94848984D01*
X94913512Y-94868324D01*
X94911189Y-94873306D01*
X94911186Y-94873311D01*
X94895880Y-94906135D01*
X94819560Y-95069804D01*
X94762022Y-95284537D01*
X94742647Y-95506000D01*
X81703000Y-95506000D01*
X81703000Y-86641000D01*
X83312647Y-86641000D01*
X83332022Y-86862463D01*
X83389560Y-87077196D01*
X83391882Y-87082177D01*
X83391883Y-87082178D01*
X83481186Y-87273689D01*
X83481189Y-87273694D01*
X83483512Y-87278676D01*
X83611023Y-87460781D01*
X83768219Y-87617977D01*
X83772727Y-87621134D01*
X83772730Y-87621136D01*
X83848495Y-87674187D01*
X83950323Y-87745488D01*
X83955305Y-87747811D01*
X83955310Y-87747814D01*
X84130292Y-87829409D01*
X84151804Y-87839440D01*
X84157112Y-87840862D01*
X84157114Y-87840863D01*
X84222949Y-87858503D01*
X84366537Y-87896978D01*
X84588000Y-87916353D01*
X84809463Y-87896978D01*
X84953051Y-87858503D01*
X85018886Y-87840863D01*
X85018888Y-87840862D01*
X85024196Y-87839440D01*
X85045708Y-87829409D01*
X85220690Y-87747814D01*
X85220695Y-87747811D01*
X85225677Y-87745488D01*
X85327505Y-87674187D01*
X85403270Y-87621136D01*
X85403273Y-87621134D01*
X85407781Y-87617977D01*
X85564977Y-87460781D01*
X85692488Y-87278676D01*
X85694811Y-87273694D01*
X85694814Y-87273689D01*
X85784117Y-87082178D01*
X85784118Y-87082177D01*
X85786440Y-87077196D01*
X85843978Y-86862463D01*
X85863353Y-86641000D01*
X110617647Y-86641000D01*
X110637022Y-86862463D01*
X110694560Y-87077196D01*
X110696882Y-87082177D01*
X110696883Y-87082178D01*
X110786186Y-87273689D01*
X110786189Y-87273694D01*
X110788512Y-87278676D01*
X110916023Y-87460781D01*
X111073219Y-87617977D01*
X111077727Y-87621134D01*
X111077730Y-87621136D01*
X111153495Y-87674187D01*
X111255323Y-87745488D01*
X111260305Y-87747811D01*
X111260310Y-87747814D01*
X111435292Y-87829409D01*
X111456804Y-87839440D01*
X111462112Y-87840862D01*
X111462114Y-87840863D01*
X111527949Y-87858503D01*
X111671537Y-87896978D01*
X111893000Y-87916353D01*
X112114463Y-87896978D01*
X112258051Y-87858503D01*
X112323886Y-87840863D01*
X112323888Y-87840862D01*
X112329196Y-87839440D01*
X112350708Y-87829409D01*
X112525690Y-87747814D01*
X112525695Y-87747811D01*
X112530677Y-87745488D01*
X112632505Y-87674187D01*
X112708270Y-87621136D01*
X112708273Y-87621134D01*
X112712781Y-87617977D01*
X112869977Y-87460781D01*
X112997488Y-87278676D01*
X112999811Y-87273694D01*
X112999814Y-87273689D01*
X113089117Y-87082178D01*
X113089118Y-87082177D01*
X113091440Y-87077196D01*
X113148978Y-86862463D01*
X113168353Y-86641000D01*
X114808647Y-86641000D01*
X114828022Y-86862463D01*
X114885560Y-87077196D01*
X114887882Y-87082177D01*
X114887883Y-87082178D01*
X114977186Y-87273689D01*
X114977189Y-87273694D01*
X114979512Y-87278676D01*
X115107023Y-87460781D01*
X115264219Y-87617977D01*
X115268727Y-87621134D01*
X115268730Y-87621136D01*
X115344495Y-87674187D01*
X115446323Y-87745488D01*
X115451305Y-87747811D01*
X115451310Y-87747814D01*
X115626292Y-87829409D01*
X115647804Y-87839440D01*
X115653112Y-87840862D01*
X115653114Y-87840863D01*
X115718949Y-87858503D01*
X115862537Y-87896978D01*
X116084000Y-87916353D01*
X116305463Y-87896978D01*
X116449051Y-87858503D01*
X116514886Y-87840863D01*
X116514888Y-87840862D01*
X116520196Y-87839440D01*
X116541708Y-87829409D01*
X116716690Y-87747814D01*
X116716695Y-87747811D01*
X116721677Y-87745488D01*
X116823505Y-87674187D01*
X116899270Y-87621136D01*
X116899273Y-87621134D01*
X116903781Y-87617977D01*
X117060977Y-87460781D01*
X117188488Y-87278676D01*
X117190811Y-87273694D01*
X117190814Y-87273689D01*
X117280117Y-87082178D01*
X117280118Y-87082177D01*
X117282440Y-87077196D01*
X117339978Y-86862463D01*
X117359353Y-86641000D01*
X142113647Y-86641000D01*
X142133022Y-86862463D01*
X142190560Y-87077196D01*
X142192882Y-87082177D01*
X142192883Y-87082178D01*
X142282186Y-87273689D01*
X142282189Y-87273694D01*
X142284512Y-87278676D01*
X142412023Y-87460781D01*
X142569219Y-87617977D01*
X142573727Y-87621134D01*
X142573730Y-87621136D01*
X142649495Y-87674187D01*
X142751323Y-87745488D01*
X142756305Y-87747811D01*
X142756310Y-87747814D01*
X142931292Y-87829409D01*
X142952804Y-87839440D01*
X142958112Y-87840862D01*
X142958114Y-87840863D01*
X143023949Y-87858503D01*
X143167537Y-87896978D01*
X143389000Y-87916353D01*
X143610463Y-87896978D01*
X143754051Y-87858503D01*
X143819886Y-87840863D01*
X143819888Y-87840862D01*
X143825196Y-87839440D01*
X143846708Y-87829409D01*
X144021690Y-87747814D01*
X144021695Y-87747811D01*
X144026677Y-87745488D01*
X144128505Y-87674187D01*
X144204270Y-87621136D01*
X144204273Y-87621134D01*
X144208781Y-87617977D01*
X144365977Y-87460781D01*
X144493488Y-87278676D01*
X144495811Y-87273694D01*
X144495814Y-87273689D01*
X144585117Y-87082178D01*
X144585118Y-87082177D01*
X144587440Y-87077196D01*
X144644978Y-86862463D01*
X144664353Y-86641000D01*
X145796647Y-86641000D01*
X145816022Y-86862463D01*
X145873560Y-87077196D01*
X145875882Y-87082177D01*
X145875883Y-87082178D01*
X145965186Y-87273689D01*
X145965189Y-87273694D01*
X145967512Y-87278676D01*
X146095023Y-87460781D01*
X146252219Y-87617977D01*
X146256727Y-87621134D01*
X146256730Y-87621136D01*
X146332495Y-87674187D01*
X146434323Y-87745488D01*
X146439305Y-87747811D01*
X146439310Y-87747814D01*
X146614292Y-87829409D01*
X146635804Y-87839440D01*
X146641112Y-87840862D01*
X146641114Y-87840863D01*
X146706949Y-87858503D01*
X146850537Y-87896978D01*
X147072000Y-87916353D01*
X147293463Y-87896978D01*
X147437051Y-87858503D01*
X147502886Y-87840863D01*
X147502888Y-87840862D01*
X147508196Y-87839440D01*
X147529708Y-87829409D01*
X147704690Y-87747814D01*
X147704695Y-87747811D01*
X147709677Y-87745488D01*
X147811505Y-87674187D01*
X147887270Y-87621136D01*
X147887273Y-87621134D01*
X147891781Y-87617977D01*
X148048977Y-87460781D01*
X148176488Y-87278676D01*
X148178811Y-87273694D01*
X148178814Y-87273689D01*
X148268117Y-87082178D01*
X148268118Y-87082177D01*
X148270440Y-87077196D01*
X148327978Y-86862463D01*
X148347353Y-86641000D01*
X148327978Y-86419537D01*
X148270440Y-86204804D01*
X148268117Y-86199822D01*
X148178814Y-86008311D01*
X148178811Y-86008306D01*
X148176488Y-86003324D01*
X148048977Y-85821219D01*
X147891781Y-85664023D01*
X147887273Y-85660866D01*
X147887270Y-85660864D01*
X147753511Y-85567205D01*
X147709677Y-85536512D01*
X147704695Y-85534189D01*
X147704690Y-85534186D01*
X147572821Y-85472695D01*
X147519536Y-85425778D01*
X147500075Y-85357500D01*
X147520617Y-85289540D01*
X147572821Y-85244305D01*
X147704690Y-85182814D01*
X147704695Y-85182811D01*
X147709677Y-85180488D01*
X147811505Y-85109187D01*
X147887270Y-85056136D01*
X147887273Y-85056134D01*
X147891781Y-85052977D01*
X148048977Y-84895781D01*
X148176488Y-84713676D01*
X148178811Y-84708694D01*
X148178814Y-84708689D01*
X148268117Y-84517178D01*
X148268118Y-84517177D01*
X148270440Y-84512196D01*
X148327978Y-84297463D01*
X148347353Y-84076000D01*
X148327978Y-83854537D01*
X148270440Y-83639804D01*
X148268117Y-83634822D01*
X148178814Y-83443311D01*
X148178811Y-83443306D01*
X148176488Y-83438324D01*
X148048977Y-83256219D01*
X147891781Y-83099023D01*
X147887273Y-83095866D01*
X147887270Y-83095864D01*
X147753511Y-83002205D01*
X147709677Y-82971512D01*
X147704695Y-82969189D01*
X147704690Y-82969186D01*
X147513178Y-82879883D01*
X147513177Y-82879882D01*
X147508196Y-82877560D01*
X147502888Y-82876138D01*
X147502886Y-82876137D01*
X147437051Y-82858497D01*
X147293463Y-82820022D01*
X147072000Y-82800647D01*
X146850537Y-82820022D01*
X146706949Y-82858497D01*
X146641114Y-82876137D01*
X146641112Y-82876138D01*
X146635804Y-82877560D01*
X146630823Y-82879882D01*
X146630822Y-82879883D01*
X146439311Y-82969186D01*
X146439306Y-82969189D01*
X146434324Y-82971512D01*
X146429817Y-82974668D01*
X146429815Y-82974669D01*
X146256730Y-83095864D01*
X146256727Y-83095866D01*
X146252219Y-83099023D01*
X146095023Y-83256219D01*
X145967512Y-83438324D01*
X145965189Y-83443306D01*
X145965186Y-83443311D01*
X145875883Y-83634822D01*
X145873560Y-83639804D01*
X145816022Y-83854537D01*
X145796647Y-84076000D01*
X145816022Y-84297463D01*
X145873560Y-84512196D01*
X145875882Y-84517177D01*
X145875883Y-84517178D01*
X145965186Y-84708689D01*
X145965189Y-84708694D01*
X145967512Y-84713676D01*
X146095023Y-84895781D01*
X146252219Y-85052977D01*
X146256727Y-85056134D01*
X146256730Y-85056136D01*
X146332495Y-85109187D01*
X146434323Y-85180488D01*
X146439305Y-85182811D01*
X146439310Y-85182814D01*
X146571179Y-85244305D01*
X146624464Y-85291222D01*
X146643925Y-85359500D01*
X146623383Y-85427460D01*
X146571179Y-85472695D01*
X146439311Y-85534186D01*
X146439306Y-85534189D01*
X146434324Y-85536512D01*
X146429817Y-85539668D01*
X146429815Y-85539669D01*
X146256730Y-85660864D01*
X146256727Y-85660866D01*
X146252219Y-85664023D01*
X146095023Y-85821219D01*
X145967512Y-86003324D01*
X145965189Y-86008306D01*
X145965186Y-86008311D01*
X145875883Y-86199822D01*
X145873560Y-86204804D01*
X145816022Y-86419537D01*
X145796647Y-86641000D01*
X144664353Y-86641000D01*
X144644978Y-86419537D01*
X144587440Y-86204804D01*
X144585117Y-86199822D01*
X144495814Y-86008311D01*
X144495811Y-86008306D01*
X144493488Y-86003324D01*
X144365977Y-85821219D01*
X144208781Y-85664023D01*
X144204273Y-85660866D01*
X144204270Y-85660864D01*
X144070511Y-85567205D01*
X144026677Y-85536512D01*
X144021695Y-85534189D01*
X144021690Y-85534186D01*
X143889821Y-85472695D01*
X143836536Y-85425778D01*
X143817075Y-85357500D01*
X143837617Y-85289540D01*
X143889821Y-85244305D01*
X144021690Y-85182814D01*
X144021695Y-85182811D01*
X144026677Y-85180488D01*
X144128505Y-85109187D01*
X144204270Y-85056136D01*
X144204273Y-85056134D01*
X144208781Y-85052977D01*
X144365977Y-84895781D01*
X144493488Y-84713676D01*
X144495811Y-84708694D01*
X144495814Y-84708689D01*
X144585117Y-84517178D01*
X144585118Y-84517177D01*
X144587440Y-84512196D01*
X144644978Y-84297463D01*
X144664353Y-84076000D01*
X144644978Y-83854537D01*
X144587440Y-83639804D01*
X144585117Y-83634822D01*
X144495814Y-83443311D01*
X144495811Y-83443306D01*
X144493488Y-83438324D01*
X144365977Y-83256219D01*
X144208781Y-83099023D01*
X144204273Y-83095866D01*
X144204270Y-83095864D01*
X144070511Y-83002205D01*
X144026677Y-82971512D01*
X144021695Y-82969189D01*
X144021690Y-82969186D01*
X143830178Y-82879883D01*
X143830177Y-82879882D01*
X143825196Y-82877560D01*
X143819888Y-82876138D01*
X143819886Y-82876137D01*
X143754051Y-82858497D01*
X143610463Y-82820022D01*
X143389000Y-82800647D01*
X143167537Y-82820022D01*
X143023949Y-82858497D01*
X142958114Y-82876137D01*
X142958112Y-82876138D01*
X142952804Y-82877560D01*
X142947823Y-82879882D01*
X142947822Y-82879883D01*
X142756311Y-82969186D01*
X142756306Y-82969189D01*
X142751324Y-82971512D01*
X142746817Y-82974668D01*
X142746815Y-82974669D01*
X142573730Y-83095864D01*
X142573727Y-83095866D01*
X142569219Y-83099023D01*
X142412023Y-83256219D01*
X142284512Y-83438324D01*
X142282189Y-83443306D01*
X142282186Y-83443311D01*
X142192883Y-83634822D01*
X142190560Y-83639804D01*
X142133022Y-83854537D01*
X142113647Y-84076000D01*
X142133022Y-84297463D01*
X142190560Y-84512196D01*
X142192882Y-84517177D01*
X142192883Y-84517178D01*
X142282186Y-84708689D01*
X142282189Y-84708694D01*
X142284512Y-84713676D01*
X142412023Y-84895781D01*
X142569219Y-85052977D01*
X142573727Y-85056134D01*
X142573730Y-85056136D01*
X142649495Y-85109187D01*
X142751323Y-85180488D01*
X142756305Y-85182811D01*
X142756310Y-85182814D01*
X142888179Y-85244305D01*
X142941464Y-85291222D01*
X142960925Y-85359500D01*
X142940383Y-85427460D01*
X142888179Y-85472695D01*
X142756311Y-85534186D01*
X142756306Y-85534189D01*
X142751324Y-85536512D01*
X142746817Y-85539668D01*
X142746815Y-85539669D01*
X142573730Y-85660864D01*
X142573727Y-85660866D01*
X142569219Y-85664023D01*
X142412023Y-85821219D01*
X142284512Y-86003324D01*
X142282189Y-86008306D01*
X142282186Y-86008311D01*
X142192883Y-86199822D01*
X142190560Y-86204804D01*
X142133022Y-86419537D01*
X142113647Y-86641000D01*
X117359353Y-86641000D01*
X117339978Y-86419537D01*
X117282440Y-86204804D01*
X117280117Y-86199822D01*
X117190814Y-86008311D01*
X117190811Y-86008306D01*
X117188488Y-86003324D01*
X117060977Y-85821219D01*
X116903781Y-85664023D01*
X116899273Y-85660866D01*
X116899270Y-85660864D01*
X116765511Y-85567205D01*
X116721677Y-85536512D01*
X116716695Y-85534189D01*
X116716690Y-85534186D01*
X116584821Y-85472695D01*
X116531536Y-85425778D01*
X116512075Y-85357500D01*
X116532617Y-85289540D01*
X116584821Y-85244305D01*
X116716690Y-85182814D01*
X116716695Y-85182811D01*
X116721677Y-85180488D01*
X116823505Y-85109187D01*
X116899270Y-85056136D01*
X116899273Y-85056134D01*
X116903781Y-85052977D01*
X117060977Y-84895781D01*
X117188488Y-84713676D01*
X117190811Y-84708694D01*
X117190814Y-84708689D01*
X117280117Y-84517178D01*
X117280118Y-84517177D01*
X117282440Y-84512196D01*
X117339978Y-84297463D01*
X117359353Y-84076000D01*
X117339978Y-83854537D01*
X117282440Y-83639804D01*
X117280117Y-83634822D01*
X117190814Y-83443311D01*
X117190811Y-83443306D01*
X117188488Y-83438324D01*
X117060977Y-83256219D01*
X116903781Y-83099023D01*
X116899273Y-83095866D01*
X116899270Y-83095864D01*
X116765511Y-83002205D01*
X116721677Y-82971512D01*
X116716695Y-82969189D01*
X116716690Y-82969186D01*
X116525178Y-82879883D01*
X116525177Y-82879882D01*
X116520196Y-82877560D01*
X116514888Y-82876138D01*
X116514886Y-82876137D01*
X116449051Y-82858497D01*
X116305463Y-82820022D01*
X116084000Y-82800647D01*
X115862537Y-82820022D01*
X115718949Y-82858497D01*
X115653114Y-82876137D01*
X115653112Y-82876138D01*
X115647804Y-82877560D01*
X115642823Y-82879882D01*
X115642822Y-82879883D01*
X115451311Y-82969186D01*
X115451306Y-82969189D01*
X115446324Y-82971512D01*
X115441817Y-82974668D01*
X115441815Y-82974669D01*
X115268730Y-83095864D01*
X115268727Y-83095866D01*
X115264219Y-83099023D01*
X115107023Y-83256219D01*
X114979512Y-83438324D01*
X114977189Y-83443306D01*
X114977186Y-83443311D01*
X114887883Y-83634822D01*
X114885560Y-83639804D01*
X114828022Y-83854537D01*
X114808647Y-84076000D01*
X114828022Y-84297463D01*
X114885560Y-84512196D01*
X114887882Y-84517177D01*
X114887883Y-84517178D01*
X114977186Y-84708689D01*
X114977189Y-84708694D01*
X114979512Y-84713676D01*
X115107023Y-84895781D01*
X115264219Y-85052977D01*
X115268727Y-85056134D01*
X115268730Y-85056136D01*
X115344495Y-85109187D01*
X115446323Y-85180488D01*
X115451305Y-85182811D01*
X115451310Y-85182814D01*
X115583179Y-85244305D01*
X115636464Y-85291222D01*
X115655925Y-85359500D01*
X115635383Y-85427460D01*
X115583179Y-85472695D01*
X115451311Y-85534186D01*
X115451306Y-85534189D01*
X115446324Y-85536512D01*
X115441817Y-85539668D01*
X115441815Y-85539669D01*
X115268730Y-85660864D01*
X115268727Y-85660866D01*
X115264219Y-85664023D01*
X115107023Y-85821219D01*
X114979512Y-86003324D01*
X114977189Y-86008306D01*
X114977186Y-86008311D01*
X114887883Y-86199822D01*
X114885560Y-86204804D01*
X114828022Y-86419537D01*
X114808647Y-86641000D01*
X113168353Y-86641000D01*
X113148978Y-86419537D01*
X113091440Y-86204804D01*
X113089117Y-86199822D01*
X112999814Y-86008311D01*
X112999811Y-86008306D01*
X112997488Y-86003324D01*
X112869977Y-85821219D01*
X112712781Y-85664023D01*
X112708273Y-85660866D01*
X112708270Y-85660864D01*
X112574511Y-85567205D01*
X112530677Y-85536512D01*
X112525695Y-85534189D01*
X112525690Y-85534186D01*
X112393821Y-85472695D01*
X112340536Y-85425778D01*
X112321075Y-85357500D01*
X112341617Y-85289540D01*
X112393821Y-85244305D01*
X112525690Y-85182814D01*
X112525695Y-85182811D01*
X112530677Y-85180488D01*
X112632505Y-85109187D01*
X112708270Y-85056136D01*
X112708273Y-85056134D01*
X112712781Y-85052977D01*
X112869977Y-84895781D01*
X112997488Y-84713676D01*
X112999811Y-84708694D01*
X112999814Y-84708689D01*
X113089117Y-84517178D01*
X113089118Y-84517177D01*
X113091440Y-84512196D01*
X113148978Y-84297463D01*
X113168353Y-84076000D01*
X113148978Y-83854537D01*
X113091440Y-83639804D01*
X113089117Y-83634822D01*
X112999814Y-83443311D01*
X112999811Y-83443306D01*
X112997488Y-83438324D01*
X112869977Y-83256219D01*
X112712781Y-83099023D01*
X112708273Y-83095866D01*
X112708270Y-83095864D01*
X112574511Y-83002205D01*
X112530677Y-82971512D01*
X112525695Y-82969189D01*
X112525690Y-82969186D01*
X112334178Y-82879883D01*
X112334177Y-82879882D01*
X112329196Y-82877560D01*
X112323888Y-82876138D01*
X112323886Y-82876137D01*
X112258051Y-82858497D01*
X112114463Y-82820022D01*
X111893000Y-82800647D01*
X111671537Y-82820022D01*
X111527949Y-82858497D01*
X111462114Y-82876137D01*
X111462112Y-82876138D01*
X111456804Y-82877560D01*
X111451823Y-82879882D01*
X111451822Y-82879883D01*
X111260311Y-82969186D01*
X111260306Y-82969189D01*
X111255324Y-82971512D01*
X111250817Y-82974668D01*
X111250815Y-82974669D01*
X111077730Y-83095864D01*
X111077727Y-83095866D01*
X111073219Y-83099023D01*
X110916023Y-83256219D01*
X110788512Y-83438324D01*
X110786189Y-83443306D01*
X110786186Y-83443311D01*
X110696883Y-83634822D01*
X110694560Y-83639804D01*
X110637022Y-83854537D01*
X110617647Y-84076000D01*
X110637022Y-84297463D01*
X110694560Y-84512196D01*
X110696882Y-84517177D01*
X110696883Y-84517178D01*
X110786186Y-84708689D01*
X110786189Y-84708694D01*
X110788512Y-84713676D01*
X110916023Y-84895781D01*
X111073219Y-85052977D01*
X111077727Y-85056134D01*
X111077730Y-85056136D01*
X111153495Y-85109187D01*
X111255323Y-85180488D01*
X111260305Y-85182811D01*
X111260310Y-85182814D01*
X111392179Y-85244305D01*
X111445464Y-85291222D01*
X111464925Y-85359500D01*
X111444383Y-85427460D01*
X111392179Y-85472695D01*
X111260311Y-85534186D01*
X111260306Y-85534189D01*
X111255324Y-85536512D01*
X111250817Y-85539668D01*
X111250815Y-85539669D01*
X111077730Y-85660864D01*
X111077727Y-85660866D01*
X111073219Y-85664023D01*
X110916023Y-85821219D01*
X110788512Y-86003324D01*
X110786189Y-86008306D01*
X110786186Y-86008311D01*
X110696883Y-86199822D01*
X110694560Y-86204804D01*
X110637022Y-86419537D01*
X110617647Y-86641000D01*
X85863353Y-86641000D01*
X85843978Y-86419537D01*
X85786440Y-86204804D01*
X85784117Y-86199822D01*
X85694814Y-86008311D01*
X85694811Y-86008306D01*
X85692488Y-86003324D01*
X85564977Y-85821219D01*
X85407781Y-85664023D01*
X85403273Y-85660866D01*
X85403270Y-85660864D01*
X85269511Y-85567205D01*
X85225677Y-85536512D01*
X85220695Y-85534189D01*
X85220690Y-85534186D01*
X85088821Y-85472695D01*
X85035536Y-85425778D01*
X85016075Y-85357500D01*
X85036617Y-85289540D01*
X85088821Y-85244305D01*
X85220690Y-85182814D01*
X85220695Y-85182811D01*
X85225677Y-85180488D01*
X85327505Y-85109187D01*
X85403270Y-85056136D01*
X85403273Y-85056134D01*
X85407781Y-85052977D01*
X85564977Y-84895781D01*
X85692488Y-84713676D01*
X85694811Y-84708694D01*
X85694814Y-84708689D01*
X85784117Y-84517178D01*
X85784118Y-84517177D01*
X85786440Y-84512196D01*
X85843978Y-84297463D01*
X85863353Y-84076000D01*
X85843978Y-83854537D01*
X85786440Y-83639804D01*
X85784117Y-83634822D01*
X85694814Y-83443311D01*
X85694811Y-83443306D01*
X85692488Y-83438324D01*
X85564977Y-83256219D01*
X85407781Y-83099023D01*
X85403273Y-83095866D01*
X85403270Y-83095864D01*
X85269511Y-83002205D01*
X85225677Y-82971512D01*
X85220695Y-82969189D01*
X85220690Y-82969186D01*
X85029178Y-82879883D01*
X85029177Y-82879882D01*
X85024196Y-82877560D01*
X85018888Y-82876138D01*
X85018886Y-82876137D01*
X84953051Y-82858497D01*
X84809463Y-82820022D01*
X84588000Y-82800647D01*
X84366537Y-82820022D01*
X84222949Y-82858497D01*
X84157114Y-82876137D01*
X84157112Y-82876138D01*
X84151804Y-82877560D01*
X84146823Y-82879882D01*
X84146822Y-82879883D01*
X83955311Y-82969186D01*
X83955306Y-82969189D01*
X83950324Y-82971512D01*
X83945817Y-82974668D01*
X83945815Y-82974669D01*
X83772730Y-83095864D01*
X83772727Y-83095866D01*
X83768219Y-83099023D01*
X83611023Y-83256219D01*
X83483512Y-83438324D01*
X83481189Y-83443306D01*
X83481186Y-83443311D01*
X83391883Y-83634822D01*
X83389560Y-83639804D01*
X83332022Y-83854537D01*
X83312647Y-84076000D01*
X83332022Y-84297463D01*
X83389560Y-84512196D01*
X83391882Y-84517177D01*
X83391883Y-84517178D01*
X83481186Y-84708689D01*
X83481189Y-84708694D01*
X83483512Y-84713676D01*
X83611023Y-84895781D01*
X83768219Y-85052977D01*
X83772727Y-85056134D01*
X83772730Y-85056136D01*
X83848495Y-85109187D01*
X83950323Y-85180488D01*
X83955305Y-85182811D01*
X83955310Y-85182814D01*
X84087179Y-85244305D01*
X84140464Y-85291222D01*
X84159925Y-85359500D01*
X84139383Y-85427460D01*
X84087179Y-85472695D01*
X83955311Y-85534186D01*
X83955306Y-85534189D01*
X83950324Y-85536512D01*
X83945817Y-85539668D01*
X83945815Y-85539669D01*
X83772730Y-85660864D01*
X83772727Y-85660866D01*
X83768219Y-85664023D01*
X83611023Y-85821219D01*
X83483512Y-86003324D01*
X83481189Y-86008306D01*
X83481186Y-86008311D01*
X83391883Y-86199822D01*
X83389560Y-86204804D01*
X83332022Y-86419537D01*
X83312647Y-86641000D01*
X81703000Y-86641000D01*
X81703000Y-73281000D01*
X88392647Y-73281000D01*
X88412022Y-73502463D01*
X88469560Y-73717196D01*
X88471882Y-73722177D01*
X88471883Y-73722178D01*
X88561186Y-73913689D01*
X88561189Y-73913694D01*
X88563512Y-73918676D01*
X88691023Y-74100781D01*
X88848219Y-74257977D01*
X88852727Y-74261134D01*
X88852730Y-74261136D01*
X88928495Y-74314187D01*
X89030323Y-74385488D01*
X89035305Y-74387811D01*
X89035310Y-74387814D01*
X89226822Y-74477117D01*
X89231804Y-74479440D01*
X89237112Y-74480862D01*
X89237114Y-74480863D01*
X89302949Y-74498503D01*
X89446537Y-74536978D01*
X89668000Y-74556353D01*
X89889463Y-74536978D01*
X90033051Y-74498503D01*
X90098886Y-74480863D01*
X90098888Y-74480862D01*
X90104196Y-74479440D01*
X90109178Y-74477117D01*
X90300690Y-74387814D01*
X90300695Y-74387811D01*
X90305677Y-74385488D01*
X90407505Y-74314187D01*
X90483270Y-74261136D01*
X90483273Y-74261134D01*
X90487781Y-74257977D01*
X90644977Y-74100781D01*
X90772488Y-73918676D01*
X90774811Y-73913694D01*
X90774814Y-73913689D01*
X90823805Y-73808627D01*
X90870723Y-73755342D01*
X90939000Y-73735881D01*
X91006960Y-73756423D01*
X91052195Y-73808627D01*
X91101186Y-73913689D01*
X91101189Y-73913694D01*
X91103512Y-73918676D01*
X91231023Y-74100781D01*
X91388219Y-74257977D01*
X91392727Y-74261134D01*
X91392730Y-74261136D01*
X91468495Y-74314187D01*
X91570323Y-74385488D01*
X91575305Y-74387811D01*
X91575310Y-74387814D01*
X91766822Y-74477117D01*
X91771804Y-74479440D01*
X91777112Y-74480862D01*
X91777114Y-74480863D01*
X91842949Y-74498503D01*
X91986537Y-74536978D01*
X92208000Y-74556353D01*
X92429463Y-74536978D01*
X92573051Y-74498503D01*
X92638886Y-74480863D01*
X92638888Y-74480862D01*
X92644196Y-74479440D01*
X92649178Y-74477117D01*
X92840690Y-74387814D01*
X92840695Y-74387811D01*
X92845677Y-74385488D01*
X92947505Y-74314187D01*
X93023270Y-74261136D01*
X93023273Y-74261134D01*
X93027781Y-74257977D01*
X93184977Y-74100781D01*
X93312488Y-73918676D01*
X93314811Y-73913694D01*
X93314814Y-73913689D01*
X93404117Y-73722178D01*
X93404118Y-73722177D01*
X93406440Y-73717196D01*
X93463978Y-73502463D01*
X93483353Y-73281000D01*
X102997647Y-73281000D01*
X103017022Y-73502463D01*
X103074560Y-73717196D01*
X103076882Y-73722177D01*
X103076883Y-73722178D01*
X103166186Y-73913689D01*
X103166189Y-73913694D01*
X103168512Y-73918676D01*
X103296023Y-74100781D01*
X103453219Y-74257977D01*
X103457727Y-74261134D01*
X103457730Y-74261136D01*
X103533495Y-74314187D01*
X103635323Y-74385488D01*
X103640305Y-74387811D01*
X103640310Y-74387814D01*
X103831822Y-74477117D01*
X103836804Y-74479440D01*
X103842112Y-74480862D01*
X103842114Y-74480863D01*
X103907949Y-74498503D01*
X104051537Y-74536978D01*
X104273000Y-74556353D01*
X104494463Y-74536978D01*
X104638051Y-74498503D01*
X104703886Y-74480863D01*
X104703888Y-74480862D01*
X104709196Y-74479440D01*
X104714178Y-74477117D01*
X104905690Y-74387814D01*
X104905695Y-74387811D01*
X104910677Y-74385488D01*
X105012505Y-74314187D01*
X105088270Y-74261136D01*
X105088273Y-74261134D01*
X105092781Y-74257977D01*
X105249977Y-74100781D01*
X105377488Y-73918676D01*
X105379811Y-73913694D01*
X105379814Y-73913689D01*
X105428805Y-73808627D01*
X105475723Y-73755342D01*
X105544000Y-73735881D01*
X105611960Y-73756423D01*
X105657195Y-73808627D01*
X105706186Y-73913689D01*
X105706189Y-73913694D01*
X105708512Y-73918676D01*
X105836023Y-74100781D01*
X105993219Y-74257977D01*
X105997727Y-74261134D01*
X105997730Y-74261136D01*
X106073495Y-74314187D01*
X106175323Y-74385488D01*
X106180305Y-74387811D01*
X106180310Y-74387814D01*
X106371822Y-74477117D01*
X106376804Y-74479440D01*
X106382112Y-74480862D01*
X106382114Y-74480863D01*
X106447949Y-74498503D01*
X106591537Y-74536978D01*
X106813000Y-74556353D01*
X107034463Y-74536978D01*
X107178051Y-74498503D01*
X107243886Y-74480863D01*
X107243888Y-74480862D01*
X107249196Y-74479440D01*
X107254178Y-74477117D01*
X107445690Y-74387814D01*
X107445695Y-74387811D01*
X107450677Y-74385488D01*
X107552505Y-74314187D01*
X107628270Y-74261136D01*
X107628273Y-74261134D01*
X107632781Y-74257977D01*
X107789977Y-74100781D01*
X107917488Y-73918676D01*
X107919811Y-73913694D01*
X107919814Y-73913689D01*
X108009117Y-73722178D01*
X108009118Y-73722177D01*
X108011440Y-73717196D01*
X108068978Y-73502463D01*
X108088353Y-73281000D01*
X119888647Y-73281000D01*
X119908022Y-73502463D01*
X119965560Y-73717196D01*
X119967882Y-73722177D01*
X119967883Y-73722178D01*
X120057186Y-73913689D01*
X120057189Y-73913694D01*
X120059512Y-73918676D01*
X120187023Y-74100781D01*
X120344219Y-74257977D01*
X120348727Y-74261134D01*
X120348730Y-74261136D01*
X120424495Y-74314187D01*
X120526323Y-74385488D01*
X120531305Y-74387811D01*
X120531310Y-74387814D01*
X120722822Y-74477117D01*
X120727804Y-74479440D01*
X120733112Y-74480862D01*
X120733114Y-74480863D01*
X120798949Y-74498503D01*
X120942537Y-74536978D01*
X121164000Y-74556353D01*
X121385463Y-74536978D01*
X121529051Y-74498503D01*
X121594886Y-74480863D01*
X121594888Y-74480862D01*
X121600196Y-74479440D01*
X121605178Y-74477117D01*
X121796690Y-74387814D01*
X121796695Y-74387811D01*
X121801677Y-74385488D01*
X121903505Y-74314187D01*
X121979270Y-74261136D01*
X121979273Y-74261134D01*
X121983781Y-74257977D01*
X122140977Y-74100781D01*
X122268488Y-73918676D01*
X122270811Y-73913694D01*
X122270814Y-73913689D01*
X122319805Y-73808627D01*
X122366723Y-73755342D01*
X122435000Y-73735881D01*
X122502960Y-73756423D01*
X122548195Y-73808627D01*
X122597186Y-73913689D01*
X122597189Y-73913694D01*
X122599512Y-73918676D01*
X122727023Y-74100781D01*
X122884219Y-74257977D01*
X122888727Y-74261134D01*
X122888730Y-74261136D01*
X122964495Y-74314187D01*
X123066323Y-74385488D01*
X123071305Y-74387811D01*
X123071310Y-74387814D01*
X123262822Y-74477117D01*
X123267804Y-74479440D01*
X123273112Y-74480862D01*
X123273114Y-74480863D01*
X123338949Y-74498503D01*
X123482537Y-74536978D01*
X123704000Y-74556353D01*
X123925463Y-74536978D01*
X124069051Y-74498503D01*
X124134886Y-74480863D01*
X124134888Y-74480862D01*
X124140196Y-74479440D01*
X124145178Y-74477117D01*
X124336690Y-74387814D01*
X124336695Y-74387811D01*
X124341677Y-74385488D01*
X124443505Y-74314187D01*
X124519270Y-74261136D01*
X124519273Y-74261134D01*
X124523781Y-74257977D01*
X124680977Y-74100781D01*
X124808488Y-73918676D01*
X124810811Y-73913694D01*
X124810814Y-73913689D01*
X124900117Y-73722178D01*
X124900118Y-73722177D01*
X124902440Y-73717196D01*
X124959978Y-73502463D01*
X124979353Y-73281000D01*
X134493647Y-73281000D01*
X134513022Y-73502463D01*
X134570560Y-73717196D01*
X134572882Y-73722177D01*
X134572883Y-73722178D01*
X134662186Y-73913689D01*
X134662189Y-73913694D01*
X134664512Y-73918676D01*
X134792023Y-74100781D01*
X134949219Y-74257977D01*
X134953727Y-74261134D01*
X134953730Y-74261136D01*
X135029495Y-74314187D01*
X135131323Y-74385488D01*
X135136305Y-74387811D01*
X135136310Y-74387814D01*
X135327822Y-74477117D01*
X135332804Y-74479440D01*
X135338112Y-74480862D01*
X135338114Y-74480863D01*
X135403949Y-74498503D01*
X135547537Y-74536978D01*
X135769000Y-74556353D01*
X135990463Y-74536978D01*
X136134051Y-74498503D01*
X136199886Y-74480863D01*
X136199888Y-74480862D01*
X136205196Y-74479440D01*
X136210178Y-74477117D01*
X136401690Y-74387814D01*
X136401695Y-74387811D01*
X136406677Y-74385488D01*
X136508505Y-74314187D01*
X136584270Y-74261136D01*
X136584273Y-74261134D01*
X136588781Y-74257977D01*
X136745977Y-74100781D01*
X136873488Y-73918676D01*
X136875811Y-73913694D01*
X136875814Y-73913689D01*
X136924805Y-73808627D01*
X136971723Y-73755342D01*
X137040000Y-73735881D01*
X137107960Y-73756423D01*
X137153195Y-73808627D01*
X137202186Y-73913689D01*
X137202189Y-73913694D01*
X137204512Y-73918676D01*
X137332023Y-74100781D01*
X137489219Y-74257977D01*
X137493727Y-74261134D01*
X137493730Y-74261136D01*
X137569495Y-74314187D01*
X137671323Y-74385488D01*
X137676305Y-74387811D01*
X137676310Y-74387814D01*
X137867822Y-74477117D01*
X137872804Y-74479440D01*
X137878112Y-74480862D01*
X137878114Y-74480863D01*
X137943949Y-74498503D01*
X138087537Y-74536978D01*
X138309000Y-74556353D01*
X138530463Y-74536978D01*
X138674051Y-74498503D01*
X138739886Y-74480863D01*
X138739888Y-74480862D01*
X138745196Y-74479440D01*
X138750178Y-74477117D01*
X138941690Y-74387814D01*
X138941695Y-74387811D01*
X138946677Y-74385488D01*
X139048505Y-74314187D01*
X139124270Y-74261136D01*
X139124273Y-74261134D01*
X139128781Y-74257977D01*
X139285977Y-74100781D01*
X139413488Y-73918676D01*
X139415811Y-73913694D01*
X139415814Y-73913689D01*
X139505117Y-73722178D01*
X139505118Y-73722177D01*
X139507440Y-73717196D01*
X139564978Y-73502463D01*
X139584353Y-73281000D01*
X150876647Y-73281000D01*
X150896022Y-73502463D01*
X150953560Y-73717196D01*
X150955882Y-73722177D01*
X150955883Y-73722178D01*
X151045186Y-73913689D01*
X151045189Y-73913694D01*
X151047512Y-73918676D01*
X151175023Y-74100781D01*
X151332219Y-74257977D01*
X151336727Y-74261134D01*
X151336730Y-74261136D01*
X151412495Y-74314187D01*
X151514323Y-74385488D01*
X151519305Y-74387811D01*
X151519310Y-74387814D01*
X151710822Y-74477117D01*
X151715804Y-74479440D01*
X151721112Y-74480862D01*
X151721114Y-74480863D01*
X151786949Y-74498503D01*
X151930537Y-74536978D01*
X152152000Y-74556353D01*
X152373463Y-74536978D01*
X152517051Y-74498503D01*
X152582886Y-74480863D01*
X152582888Y-74480862D01*
X152588196Y-74479440D01*
X152593178Y-74477117D01*
X152784690Y-74387814D01*
X152784695Y-74387811D01*
X152789677Y-74385488D01*
X152891505Y-74314187D01*
X152967270Y-74261136D01*
X152967273Y-74261134D01*
X152971781Y-74257977D01*
X153128977Y-74100781D01*
X153256488Y-73918676D01*
X153258811Y-73913694D01*
X153258814Y-73913689D01*
X153307805Y-73808627D01*
X153354723Y-73755342D01*
X153423000Y-73735881D01*
X153490960Y-73756423D01*
X153536195Y-73808627D01*
X153585186Y-73913689D01*
X153585189Y-73913694D01*
X153587512Y-73918676D01*
X153715023Y-74100781D01*
X153872219Y-74257977D01*
X153876727Y-74261134D01*
X153876730Y-74261136D01*
X153952495Y-74314187D01*
X154054323Y-74385488D01*
X154059305Y-74387811D01*
X154059310Y-74387814D01*
X154250822Y-74477117D01*
X154255804Y-74479440D01*
X154261112Y-74480862D01*
X154261114Y-74480863D01*
X154326949Y-74498503D01*
X154470537Y-74536978D01*
X154692000Y-74556353D01*
X154913463Y-74536978D01*
X155057051Y-74498503D01*
X155122886Y-74480863D01*
X155122888Y-74480862D01*
X155128196Y-74479440D01*
X155133178Y-74477117D01*
X155324690Y-74387814D01*
X155324695Y-74387811D01*
X155329677Y-74385488D01*
X155431505Y-74314187D01*
X155507270Y-74261136D01*
X155507273Y-74261134D01*
X155511781Y-74257977D01*
X155668977Y-74100781D01*
X155796488Y-73918676D01*
X155798811Y-73913694D01*
X155798814Y-73913689D01*
X155888117Y-73722178D01*
X155888118Y-73722177D01*
X155890440Y-73717196D01*
X155947978Y-73502463D01*
X155967353Y-73281000D01*
X165481647Y-73281000D01*
X165501022Y-73502463D01*
X165558560Y-73717196D01*
X165560882Y-73722177D01*
X165560883Y-73722178D01*
X165650186Y-73913689D01*
X165650189Y-73913694D01*
X165652512Y-73918676D01*
X165780023Y-74100781D01*
X165937219Y-74257977D01*
X165941727Y-74261134D01*
X165941730Y-74261136D01*
X166017495Y-74314187D01*
X166119323Y-74385488D01*
X166124305Y-74387811D01*
X166124310Y-74387814D01*
X166315822Y-74477117D01*
X166320804Y-74479440D01*
X166326112Y-74480862D01*
X166326114Y-74480863D01*
X166391949Y-74498503D01*
X166535537Y-74536978D01*
X166757000Y-74556353D01*
X166978463Y-74536978D01*
X167122051Y-74498503D01*
X167187886Y-74480863D01*
X167187888Y-74480862D01*
X167193196Y-74479440D01*
X167198178Y-74477117D01*
X167389690Y-74387814D01*
X167389695Y-74387811D01*
X167394677Y-74385488D01*
X167496505Y-74314187D01*
X167572270Y-74261136D01*
X167572273Y-74261134D01*
X167576781Y-74257977D01*
X167733977Y-74100781D01*
X167861488Y-73918676D01*
X167863811Y-73913694D01*
X167863814Y-73913689D01*
X167912805Y-73808627D01*
X167959723Y-73755342D01*
X168028000Y-73735881D01*
X168095960Y-73756423D01*
X168141195Y-73808627D01*
X168190186Y-73913689D01*
X168190189Y-73913694D01*
X168192512Y-73918676D01*
X168320023Y-74100781D01*
X168477219Y-74257977D01*
X168481727Y-74261134D01*
X168481730Y-74261136D01*
X168557495Y-74314187D01*
X168659323Y-74385488D01*
X168664305Y-74387811D01*
X168664310Y-74387814D01*
X168855822Y-74477117D01*
X168860804Y-74479440D01*
X168866112Y-74480862D01*
X168866114Y-74480863D01*
X168931949Y-74498503D01*
X169075537Y-74536978D01*
X169297000Y-74556353D01*
X169518463Y-74536978D01*
X169662051Y-74498503D01*
X169727886Y-74480863D01*
X169727888Y-74480862D01*
X169733196Y-74479440D01*
X169738178Y-74477117D01*
X169929690Y-74387814D01*
X169929695Y-74387811D01*
X169934677Y-74385488D01*
X170036505Y-74314187D01*
X170112270Y-74261136D01*
X170112273Y-74261134D01*
X170116781Y-74257977D01*
X170273977Y-74100781D01*
X170401488Y-73918676D01*
X170403811Y-73913694D01*
X170403814Y-73913689D01*
X170493117Y-73722178D01*
X170493118Y-73722177D01*
X170495440Y-73717196D01*
X170552978Y-73502463D01*
X170572353Y-73281000D01*
X170552978Y-73059537D01*
X170495440Y-72844804D01*
X170452805Y-72753373D01*
X170403814Y-72648311D01*
X170403811Y-72648306D01*
X170401488Y-72643324D01*
X170273977Y-72461219D01*
X170116781Y-72304023D01*
X170112273Y-72300866D01*
X170112270Y-72300864D01*
X170036505Y-72247813D01*
X169934677Y-72176512D01*
X169929695Y-72174189D01*
X169929690Y-72174186D01*
X169738178Y-72084883D01*
X169738177Y-72084882D01*
X169733196Y-72082560D01*
X169727888Y-72081138D01*
X169727886Y-72081137D01*
X169662051Y-72063497D01*
X169518463Y-72025022D01*
X169297000Y-72005647D01*
X169075537Y-72025022D01*
X168931949Y-72063497D01*
X168866114Y-72081137D01*
X168866112Y-72081138D01*
X168860804Y-72082560D01*
X168855823Y-72084882D01*
X168855822Y-72084883D01*
X168664311Y-72174186D01*
X168664306Y-72174189D01*
X168659324Y-72176512D01*
X168654817Y-72179668D01*
X168654815Y-72179669D01*
X168481730Y-72300864D01*
X168481727Y-72300866D01*
X168477219Y-72304023D01*
X168320023Y-72461219D01*
X168192512Y-72643324D01*
X168190189Y-72648306D01*
X168190186Y-72648311D01*
X168141195Y-72753373D01*
X168094277Y-72806658D01*
X168026000Y-72826119D01*
X167958040Y-72805577D01*
X167912805Y-72753373D01*
X167863814Y-72648311D01*
X167863811Y-72648306D01*
X167861488Y-72643324D01*
X167733977Y-72461219D01*
X167576781Y-72304023D01*
X167572273Y-72300866D01*
X167572270Y-72300864D01*
X167496505Y-72247813D01*
X167394677Y-72176512D01*
X167389695Y-72174189D01*
X167389690Y-72174186D01*
X167198178Y-72084883D01*
X167198177Y-72084882D01*
X167193196Y-72082560D01*
X167187888Y-72081138D01*
X167187886Y-72081137D01*
X167122051Y-72063497D01*
X166978463Y-72025022D01*
X166757000Y-72005647D01*
X166535537Y-72025022D01*
X166391949Y-72063497D01*
X166326114Y-72081137D01*
X166326112Y-72081138D01*
X166320804Y-72082560D01*
X166315823Y-72084882D01*
X166315822Y-72084883D01*
X166124311Y-72174186D01*
X166124306Y-72174189D01*
X166119324Y-72176512D01*
X166114817Y-72179668D01*
X166114815Y-72179669D01*
X165941730Y-72300864D01*
X165941727Y-72300866D01*
X165937219Y-72304023D01*
X165780023Y-72461219D01*
X165652512Y-72643324D01*
X165650189Y-72648306D01*
X165650186Y-72648311D01*
X165601195Y-72753373D01*
X165558560Y-72844804D01*
X165501022Y-73059537D01*
X165481647Y-73281000D01*
X155967353Y-73281000D01*
X155947978Y-73059537D01*
X155890440Y-72844804D01*
X155847805Y-72753373D01*
X155798814Y-72648311D01*
X155798811Y-72648306D01*
X155796488Y-72643324D01*
X155668977Y-72461219D01*
X155511781Y-72304023D01*
X155507273Y-72300866D01*
X155507270Y-72300864D01*
X155431505Y-72247813D01*
X155329677Y-72176512D01*
X155324695Y-72174189D01*
X155324690Y-72174186D01*
X155133178Y-72084883D01*
X155133177Y-72084882D01*
X155128196Y-72082560D01*
X155122888Y-72081138D01*
X155122886Y-72081137D01*
X155057051Y-72063497D01*
X154913463Y-72025022D01*
X154692000Y-72005647D01*
X154470537Y-72025022D01*
X154326949Y-72063497D01*
X154261114Y-72081137D01*
X154261112Y-72081138D01*
X154255804Y-72082560D01*
X154250823Y-72084882D01*
X154250822Y-72084883D01*
X154059311Y-72174186D01*
X154059306Y-72174189D01*
X154054324Y-72176512D01*
X154049817Y-72179668D01*
X154049815Y-72179669D01*
X153876730Y-72300864D01*
X153876727Y-72300866D01*
X153872219Y-72304023D01*
X153715023Y-72461219D01*
X153587512Y-72643324D01*
X153585189Y-72648306D01*
X153585186Y-72648311D01*
X153536195Y-72753373D01*
X153489277Y-72806658D01*
X153421000Y-72826119D01*
X153353040Y-72805577D01*
X153307805Y-72753373D01*
X153258814Y-72648311D01*
X153258811Y-72648306D01*
X153256488Y-72643324D01*
X153128977Y-72461219D01*
X152971781Y-72304023D01*
X152967273Y-72300866D01*
X152967270Y-72300864D01*
X152891505Y-72247813D01*
X152789677Y-72176512D01*
X152784695Y-72174189D01*
X152784690Y-72174186D01*
X152593178Y-72084883D01*
X152593177Y-72084882D01*
X152588196Y-72082560D01*
X152582888Y-72081138D01*
X152582886Y-72081137D01*
X152517051Y-72063497D01*
X152373463Y-72025022D01*
X152152000Y-72005647D01*
X151930537Y-72025022D01*
X151786949Y-72063497D01*
X151721114Y-72081137D01*
X151721112Y-72081138D01*
X151715804Y-72082560D01*
X151710823Y-72084882D01*
X151710822Y-72084883D01*
X151519311Y-72174186D01*
X151519306Y-72174189D01*
X151514324Y-72176512D01*
X151509817Y-72179668D01*
X151509815Y-72179669D01*
X151336730Y-72300864D01*
X151336727Y-72300866D01*
X151332219Y-72304023D01*
X151175023Y-72461219D01*
X151047512Y-72643324D01*
X151045189Y-72648306D01*
X151045186Y-72648311D01*
X150996195Y-72753373D01*
X150953560Y-72844804D01*
X150896022Y-73059537D01*
X150876647Y-73281000D01*
X139584353Y-73281000D01*
X139564978Y-73059537D01*
X139507440Y-72844804D01*
X139464805Y-72753373D01*
X139415814Y-72648311D01*
X139415811Y-72648306D01*
X139413488Y-72643324D01*
X139285977Y-72461219D01*
X139128781Y-72304023D01*
X139124273Y-72300866D01*
X139124270Y-72300864D01*
X139048505Y-72247813D01*
X138946677Y-72176512D01*
X138941695Y-72174189D01*
X138941690Y-72174186D01*
X138750178Y-72084883D01*
X138750177Y-72084882D01*
X138745196Y-72082560D01*
X138739888Y-72081138D01*
X138739886Y-72081137D01*
X138674051Y-72063497D01*
X138530463Y-72025022D01*
X138309000Y-72005647D01*
X138087537Y-72025022D01*
X137943949Y-72063497D01*
X137878114Y-72081137D01*
X137878112Y-72081138D01*
X137872804Y-72082560D01*
X137867823Y-72084882D01*
X137867822Y-72084883D01*
X137676311Y-72174186D01*
X137676306Y-72174189D01*
X137671324Y-72176512D01*
X137666817Y-72179668D01*
X137666815Y-72179669D01*
X137493730Y-72300864D01*
X137493727Y-72300866D01*
X137489219Y-72304023D01*
X137332023Y-72461219D01*
X137204512Y-72643324D01*
X137202189Y-72648306D01*
X137202186Y-72648311D01*
X137153195Y-72753373D01*
X137106277Y-72806658D01*
X137038000Y-72826119D01*
X136970040Y-72805577D01*
X136924805Y-72753373D01*
X136875814Y-72648311D01*
X136875811Y-72648306D01*
X136873488Y-72643324D01*
X136745977Y-72461219D01*
X136588781Y-72304023D01*
X136584273Y-72300866D01*
X136584270Y-72300864D01*
X136508505Y-72247813D01*
X136406677Y-72176512D01*
X136401695Y-72174189D01*
X136401690Y-72174186D01*
X136210178Y-72084883D01*
X136210177Y-72084882D01*
X136205196Y-72082560D01*
X136199888Y-72081138D01*
X136199886Y-72081137D01*
X136134051Y-72063497D01*
X135990463Y-72025022D01*
X135769000Y-72005647D01*
X135547537Y-72025022D01*
X135403949Y-72063497D01*
X135338114Y-72081137D01*
X135338112Y-72081138D01*
X135332804Y-72082560D01*
X135327823Y-72084882D01*
X135327822Y-72084883D01*
X135136311Y-72174186D01*
X135136306Y-72174189D01*
X135131324Y-72176512D01*
X135126817Y-72179668D01*
X135126815Y-72179669D01*
X134953730Y-72300864D01*
X134953727Y-72300866D01*
X134949219Y-72304023D01*
X134792023Y-72461219D01*
X134664512Y-72643324D01*
X134662189Y-72648306D01*
X134662186Y-72648311D01*
X134613195Y-72753373D01*
X134570560Y-72844804D01*
X134513022Y-73059537D01*
X134493647Y-73281000D01*
X124979353Y-73281000D01*
X124959978Y-73059537D01*
X124902440Y-72844804D01*
X124859805Y-72753373D01*
X124810814Y-72648311D01*
X124810811Y-72648306D01*
X124808488Y-72643324D01*
X124680977Y-72461219D01*
X124523781Y-72304023D01*
X124519273Y-72300866D01*
X124519270Y-72300864D01*
X124443505Y-72247813D01*
X124341677Y-72176512D01*
X124336695Y-72174189D01*
X124336690Y-72174186D01*
X124145178Y-72084883D01*
X124145177Y-72084882D01*
X124140196Y-72082560D01*
X124134888Y-72081138D01*
X124134886Y-72081137D01*
X124069051Y-72063497D01*
X123925463Y-72025022D01*
X123704000Y-72005647D01*
X123482537Y-72025022D01*
X123338949Y-72063497D01*
X123273114Y-72081137D01*
X123273112Y-72081138D01*
X123267804Y-72082560D01*
X123262823Y-72084882D01*
X123262822Y-72084883D01*
X123071311Y-72174186D01*
X123071306Y-72174189D01*
X123066324Y-72176512D01*
X123061817Y-72179668D01*
X123061815Y-72179669D01*
X122888730Y-72300864D01*
X122888727Y-72300866D01*
X122884219Y-72304023D01*
X122727023Y-72461219D01*
X122599512Y-72643324D01*
X122597189Y-72648306D01*
X122597186Y-72648311D01*
X122548195Y-72753373D01*
X122501277Y-72806658D01*
X122433000Y-72826119D01*
X122365040Y-72805577D01*
X122319805Y-72753373D01*
X122270814Y-72648311D01*
X122270811Y-72648306D01*
X122268488Y-72643324D01*
X122140977Y-72461219D01*
X121983781Y-72304023D01*
X121979273Y-72300866D01*
X121979270Y-72300864D01*
X121903505Y-72247813D01*
X121801677Y-72176512D01*
X121796695Y-72174189D01*
X121796690Y-72174186D01*
X121605178Y-72084883D01*
X121605177Y-72084882D01*
X121600196Y-72082560D01*
X121594888Y-72081138D01*
X121594886Y-72081137D01*
X121529051Y-72063497D01*
X121385463Y-72025022D01*
X121164000Y-72005647D01*
X120942537Y-72025022D01*
X120798949Y-72063497D01*
X120733114Y-72081137D01*
X120733112Y-72081138D01*
X120727804Y-72082560D01*
X120722823Y-72084882D01*
X120722822Y-72084883D01*
X120531311Y-72174186D01*
X120531306Y-72174189D01*
X120526324Y-72176512D01*
X120521817Y-72179668D01*
X120521815Y-72179669D01*
X120348730Y-72300864D01*
X120348727Y-72300866D01*
X120344219Y-72304023D01*
X120187023Y-72461219D01*
X120059512Y-72643324D01*
X120057189Y-72648306D01*
X120057186Y-72648311D01*
X120008195Y-72753373D01*
X119965560Y-72844804D01*
X119908022Y-73059537D01*
X119888647Y-73281000D01*
X108088353Y-73281000D01*
X108068978Y-73059537D01*
X108011440Y-72844804D01*
X107968805Y-72753373D01*
X107919814Y-72648311D01*
X107919811Y-72648306D01*
X107917488Y-72643324D01*
X107789977Y-72461219D01*
X107632781Y-72304023D01*
X107628273Y-72300866D01*
X107628270Y-72300864D01*
X107552505Y-72247813D01*
X107450677Y-72176512D01*
X107445695Y-72174189D01*
X107445690Y-72174186D01*
X107254178Y-72084883D01*
X107254177Y-72084882D01*
X107249196Y-72082560D01*
X107243888Y-72081138D01*
X107243886Y-72081137D01*
X107178051Y-72063497D01*
X107034463Y-72025022D01*
X106813000Y-72005647D01*
X106591537Y-72025022D01*
X106447949Y-72063497D01*
X106382114Y-72081137D01*
X106382112Y-72081138D01*
X106376804Y-72082560D01*
X106371823Y-72084882D01*
X106371822Y-72084883D01*
X106180311Y-72174186D01*
X106180306Y-72174189D01*
X106175324Y-72176512D01*
X106170817Y-72179668D01*
X106170815Y-72179669D01*
X105997730Y-72300864D01*
X105997727Y-72300866D01*
X105993219Y-72304023D01*
X105836023Y-72461219D01*
X105708512Y-72643324D01*
X105706189Y-72648306D01*
X105706186Y-72648311D01*
X105657195Y-72753373D01*
X105610277Y-72806658D01*
X105542000Y-72826119D01*
X105474040Y-72805577D01*
X105428805Y-72753373D01*
X105379814Y-72648311D01*
X105379811Y-72648306D01*
X105377488Y-72643324D01*
X105249977Y-72461219D01*
X105092781Y-72304023D01*
X105088273Y-72300866D01*
X105088270Y-72300864D01*
X105012505Y-72247813D01*
X104910677Y-72176512D01*
X104905695Y-72174189D01*
X104905690Y-72174186D01*
X104714178Y-72084883D01*
X104714177Y-72084882D01*
X104709196Y-72082560D01*
X104703888Y-72081138D01*
X104703886Y-72081137D01*
X104638051Y-72063497D01*
X104494463Y-72025022D01*
X104273000Y-72005647D01*
X104051537Y-72025022D01*
X103907949Y-72063497D01*
X103842114Y-72081137D01*
X103842112Y-72081138D01*
X103836804Y-72082560D01*
X103831823Y-72084882D01*
X103831822Y-72084883D01*
X103640311Y-72174186D01*
X103640306Y-72174189D01*
X103635324Y-72176512D01*
X103630817Y-72179668D01*
X103630815Y-72179669D01*
X103457730Y-72300864D01*
X103457727Y-72300866D01*
X103453219Y-72304023D01*
X103296023Y-72461219D01*
X103168512Y-72643324D01*
X103166189Y-72648306D01*
X103166186Y-72648311D01*
X103117195Y-72753373D01*
X103074560Y-72844804D01*
X103017022Y-73059537D01*
X102997647Y-73281000D01*
X93483353Y-73281000D01*
X93463978Y-73059537D01*
X93406440Y-72844804D01*
X93363805Y-72753373D01*
X93314814Y-72648311D01*
X93314811Y-72648306D01*
X93312488Y-72643324D01*
X93184977Y-72461219D01*
X93027781Y-72304023D01*
X93023273Y-72300866D01*
X93023270Y-72300864D01*
X92947505Y-72247813D01*
X92845677Y-72176512D01*
X92840695Y-72174189D01*
X92840690Y-72174186D01*
X92649178Y-72084883D01*
X92649177Y-72084882D01*
X92644196Y-72082560D01*
X92638888Y-72081138D01*
X92638886Y-72081137D01*
X92573051Y-72063497D01*
X92429463Y-72025022D01*
X92208000Y-72005647D01*
X91986537Y-72025022D01*
X91842949Y-72063497D01*
X91777114Y-72081137D01*
X91777112Y-72081138D01*
X91771804Y-72082560D01*
X91766823Y-72084882D01*
X91766822Y-72084883D01*
X91575311Y-72174186D01*
X91575306Y-72174189D01*
X91570324Y-72176512D01*
X91565817Y-72179668D01*
X91565815Y-72179669D01*
X91392730Y-72300864D01*
X91392727Y-72300866D01*
X91388219Y-72304023D01*
X91231023Y-72461219D01*
X91103512Y-72643324D01*
X91101189Y-72648306D01*
X91101186Y-72648311D01*
X91052195Y-72753373D01*
X91005277Y-72806658D01*
X90937000Y-72826119D01*
X90869040Y-72805577D01*
X90823805Y-72753373D01*
X90774814Y-72648311D01*
X90774811Y-72648306D01*
X90772488Y-72643324D01*
X90644977Y-72461219D01*
X90487781Y-72304023D01*
X90483273Y-72300866D01*
X90483270Y-72300864D01*
X90407505Y-72247813D01*
X90305677Y-72176512D01*
X90300695Y-72174189D01*
X90300690Y-72174186D01*
X90109178Y-72084883D01*
X90109177Y-72084882D01*
X90104196Y-72082560D01*
X90098888Y-72081138D01*
X90098886Y-72081137D01*
X90033051Y-72063497D01*
X89889463Y-72025022D01*
X89668000Y-72005647D01*
X89446537Y-72025022D01*
X89302949Y-72063497D01*
X89237114Y-72081137D01*
X89237112Y-72081138D01*
X89231804Y-72082560D01*
X89226823Y-72084882D01*
X89226822Y-72084883D01*
X89035311Y-72174186D01*
X89035306Y-72174189D01*
X89030324Y-72176512D01*
X89025817Y-72179668D01*
X89025815Y-72179669D01*
X88852730Y-72300864D01*
X88852727Y-72300866D01*
X88848219Y-72304023D01*
X88691023Y-72461219D01*
X88563512Y-72643324D01*
X88561189Y-72648306D01*
X88561186Y-72648311D01*
X88512195Y-72753373D01*
X88469560Y-72844804D01*
X88412022Y-73059537D01*
X88392647Y-73281000D01*
X81703000Y-73281000D01*
X81703000Y-69728134D01*
X160951500Y-69728134D01*
X160958255Y-69790316D01*
X161009385Y-69926705D01*
X161096739Y-70043261D01*
X161213295Y-70130615D01*
X161349684Y-70181745D01*
X161411866Y-70188500D01*
X163708134Y-70188500D01*
X163770316Y-70181745D01*
X163906705Y-70130615D01*
X164023261Y-70043261D01*
X164110615Y-69926705D01*
X164161745Y-69790316D01*
X164168500Y-69728134D01*
X164168500Y-67431866D01*
X164161745Y-67369684D01*
X164110615Y-67233295D01*
X164023261Y-67116739D01*
X163906705Y-67029385D01*
X163770316Y-66978255D01*
X163708134Y-66971500D01*
X161411866Y-66971500D01*
X161349684Y-66978255D01*
X161213295Y-67029385D01*
X161096739Y-67116739D01*
X161009385Y-67233295D01*
X160958255Y-67369684D01*
X160951500Y-67431866D01*
X160951500Y-69728134D01*
X81703000Y-69728134D01*
X81703000Y-61183134D01*
X103046500Y-61183134D01*
X103053255Y-61245316D01*
X103104385Y-61381705D01*
X103191739Y-61498261D01*
X103308295Y-61585615D01*
X103444684Y-61636745D01*
X103506866Y-61643500D01*
X106403134Y-61643500D01*
X106465316Y-61636745D01*
X106601705Y-61585615D01*
X106718261Y-61498261D01*
X106805615Y-61381705D01*
X106856745Y-61245316D01*
X106863500Y-61183134D01*
X106863500Y-59674899D01*
X152042569Y-59674899D01*
X152053180Y-59944963D01*
X152101737Y-60210837D01*
X152187272Y-60467217D01*
X152308078Y-60708987D01*
X152310607Y-60712646D01*
X152414563Y-60863058D01*
X152461744Y-60931324D01*
X152645205Y-61129790D01*
X152648659Y-61132602D01*
X152648660Y-61132603D01*
X152710728Y-61183134D01*
X152854799Y-61300427D01*
X153086346Y-61439830D01*
X153090441Y-61441564D01*
X153090443Y-61441565D01*
X153331124Y-61543480D01*
X153331131Y-61543482D01*
X153335225Y-61545216D01*
X153431358Y-61570705D01*
X153592172Y-61613345D01*
X153592177Y-61613346D01*
X153596469Y-61614484D01*
X153600878Y-61615006D01*
X153600884Y-61615007D01*
X153750210Y-61632680D01*
X153864868Y-61646251D01*
X154135064Y-61639883D01*
X154139459Y-61639151D01*
X154139464Y-61639151D01*
X154397267Y-61596241D01*
X154397271Y-61596240D01*
X154401669Y-61595508D01*
X154569959Y-61542285D01*
X154655114Y-61515354D01*
X154655116Y-61515353D01*
X154659360Y-61514011D01*
X154663371Y-61512085D01*
X154663376Y-61512083D01*
X154898979Y-61398948D01*
X154898980Y-61398947D01*
X154902998Y-61397018D01*
X155118963Y-61252715D01*
X155124013Y-61249341D01*
X155124017Y-61249338D01*
X155127721Y-61246863D01*
X155131038Y-61243892D01*
X155131042Y-61243889D01*
X155325729Y-61069512D01*
X155329045Y-61066542D01*
X155502953Y-60859654D01*
X155645975Y-60630325D01*
X155755258Y-60383133D01*
X155828620Y-60123008D01*
X155851946Y-59949343D01*
X155864172Y-59858324D01*
X155864173Y-59858316D01*
X155864599Y-59855142D01*
X155868375Y-59735000D01*
X155849287Y-59465403D01*
X155792402Y-59201185D01*
X155772801Y-59148053D01*
X155700397Y-58951796D01*
X155698856Y-58947619D01*
X155669510Y-58893231D01*
X155572629Y-58713678D01*
X155572629Y-58713677D01*
X155570516Y-58709762D01*
X155409942Y-58492362D01*
X155220338Y-58299756D01*
X155112275Y-58217285D01*
X155009028Y-58138489D01*
X155009024Y-58138487D01*
X155005487Y-58135787D01*
X154769675Y-58003727D01*
X154517609Y-57906210D01*
X154513284Y-57905207D01*
X154513279Y-57905206D01*
X154407748Y-57880746D01*
X154254318Y-57845182D01*
X153985054Y-57821861D01*
X153980619Y-57822105D01*
X153980615Y-57822105D01*
X153719634Y-57836468D01*
X153719627Y-57836469D01*
X153715191Y-57836713D01*
X153583622Y-57862883D01*
X153454484Y-57888570D01*
X153454479Y-57888571D01*
X153450112Y-57889440D01*
X153445909Y-57890916D01*
X153199315Y-57977513D01*
X153199312Y-57977514D01*
X153195107Y-57978991D01*
X153191154Y-57981044D01*
X153191148Y-57981047D01*
X153147488Y-58003727D01*
X152955264Y-58103580D01*
X152951649Y-58106163D01*
X152951643Y-58106167D01*
X152738990Y-58258131D01*
X152738986Y-58258134D01*
X152735369Y-58260719D01*
X152539808Y-58447275D01*
X152372485Y-58659524D01*
X152370253Y-58663366D01*
X152370250Y-58663371D01*
X152238974Y-58889377D01*
X152238971Y-58889384D01*
X152236736Y-58893231D01*
X152135272Y-59143735D01*
X152134201Y-59148048D01*
X152134199Y-59148053D01*
X152121001Y-59201185D01*
X152070116Y-59406035D01*
X152069662Y-59410463D01*
X152069662Y-59410465D01*
X152043023Y-59670467D01*
X152042569Y-59674899D01*
X106863500Y-59674899D01*
X106863500Y-58286866D01*
X106856745Y-58224684D01*
X106805615Y-58088295D01*
X106718261Y-57971739D01*
X106601705Y-57884385D01*
X106465316Y-57833255D01*
X106403134Y-57826500D01*
X103506866Y-57826500D01*
X103444684Y-57833255D01*
X103308295Y-57884385D01*
X103191739Y-57971739D01*
X103104385Y-58088295D01*
X103053255Y-58224684D01*
X103046500Y-58286866D01*
X103046500Y-61183134D01*
X81703000Y-61183134D01*
X81703000Y-50977703D01*
X82895743Y-50977703D01*
X82933268Y-51262734D01*
X83009129Y-51540036D01*
X83121923Y-51804476D01*
X83269561Y-52051161D01*
X83449313Y-52275528D01*
X83657851Y-52473423D01*
X83891317Y-52641186D01*
X83895112Y-52643195D01*
X83895113Y-52643196D01*
X83916869Y-52654715D01*
X84145392Y-52775712D01*
X84415373Y-52874511D01*
X84696264Y-52935755D01*
X84724841Y-52938004D01*
X84919282Y-52953307D01*
X84919291Y-52953307D01*
X84921739Y-52953500D01*
X85077271Y-52953500D01*
X85079407Y-52953354D01*
X85079418Y-52953354D01*
X85287548Y-52939165D01*
X85287554Y-52939164D01*
X85291825Y-52938873D01*
X85296020Y-52938004D01*
X85296022Y-52938004D01*
X85432583Y-52909724D01*
X85573342Y-52880574D01*
X85844343Y-52784607D01*
X86099812Y-52652750D01*
X86103313Y-52650289D01*
X86103317Y-52650287D01*
X86217418Y-52570095D01*
X86335023Y-52487441D01*
X86545622Y-52291740D01*
X86727713Y-52069268D01*
X86877927Y-51824142D01*
X86993483Y-51560898D01*
X87072244Y-51284406D01*
X87112751Y-50999784D01*
X87112845Y-50981951D01*
X87112867Y-50977703D01*
X171795743Y-50977703D01*
X171833268Y-51262734D01*
X171909129Y-51540036D01*
X172021923Y-51804476D01*
X172169561Y-52051161D01*
X172349313Y-52275528D01*
X172557851Y-52473423D01*
X172791317Y-52641186D01*
X172795112Y-52643195D01*
X172795113Y-52643196D01*
X172816869Y-52654715D01*
X173045392Y-52775712D01*
X173315373Y-52874511D01*
X173596264Y-52935755D01*
X173624841Y-52938004D01*
X173819282Y-52953307D01*
X173819291Y-52953307D01*
X173821739Y-52953500D01*
X173977271Y-52953500D01*
X173979407Y-52953354D01*
X173979418Y-52953354D01*
X174187548Y-52939165D01*
X174187554Y-52939164D01*
X174191825Y-52938873D01*
X174196020Y-52938004D01*
X174196022Y-52938004D01*
X174332583Y-52909724D01*
X174473342Y-52880574D01*
X174744343Y-52784607D01*
X174999812Y-52652750D01*
X175003313Y-52650289D01*
X175003317Y-52650287D01*
X175117418Y-52570095D01*
X175235023Y-52487441D01*
X175445622Y-52291740D01*
X175627713Y-52069268D01*
X175777927Y-51824142D01*
X175893483Y-51560898D01*
X175972244Y-51284406D01*
X176012751Y-50999784D01*
X176012845Y-50981951D01*
X176014235Y-50716583D01*
X176014235Y-50716576D01*
X176014257Y-50712297D01*
X175976732Y-50427266D01*
X175900871Y-50149964D01*
X175788077Y-49885524D01*
X175640439Y-49638839D01*
X175460687Y-49414472D01*
X175252149Y-49216577D01*
X175018683Y-49048814D01*
X174996843Y-49037250D01*
X174973654Y-49024972D01*
X174764608Y-48914288D01*
X174494627Y-48815489D01*
X174213736Y-48754245D01*
X174182685Y-48751801D01*
X173990718Y-48736693D01*
X173990709Y-48736693D01*
X173988261Y-48736500D01*
X173832729Y-48736500D01*
X173830593Y-48736646D01*
X173830582Y-48736646D01*
X173622452Y-48750835D01*
X173622446Y-48750836D01*
X173618175Y-48751127D01*
X173613980Y-48751996D01*
X173613978Y-48751996D01*
X173477416Y-48780277D01*
X173336658Y-48809426D01*
X173065657Y-48905393D01*
X172810188Y-49037250D01*
X172806687Y-49039711D01*
X172806683Y-49039713D01*
X172796594Y-49046804D01*
X172574977Y-49202559D01*
X172364378Y-49398260D01*
X172182287Y-49620732D01*
X172032073Y-49865858D01*
X171916517Y-50129102D01*
X171837756Y-50405594D01*
X171797249Y-50690216D01*
X171797227Y-50694505D01*
X171797226Y-50694512D01*
X171795765Y-50973417D01*
X171795743Y-50977703D01*
X87112867Y-50977703D01*
X87114235Y-50716583D01*
X87114235Y-50716576D01*
X87114257Y-50712297D01*
X87076732Y-50427266D01*
X87000871Y-50149964D01*
X86888077Y-49885524D01*
X86740439Y-49638839D01*
X86560687Y-49414472D01*
X86352149Y-49216577D01*
X86118683Y-49048814D01*
X86096843Y-49037250D01*
X86073654Y-49024972D01*
X85864608Y-48914288D01*
X85594627Y-48815489D01*
X85313736Y-48754245D01*
X85282685Y-48751801D01*
X85090718Y-48736693D01*
X85090709Y-48736693D01*
X85088261Y-48736500D01*
X84932729Y-48736500D01*
X84930593Y-48736646D01*
X84930582Y-48736646D01*
X84722452Y-48750835D01*
X84722446Y-48750836D01*
X84718175Y-48751127D01*
X84713980Y-48751996D01*
X84713978Y-48751996D01*
X84577416Y-48780277D01*
X84436658Y-48809426D01*
X84165657Y-48905393D01*
X83910188Y-49037250D01*
X83906687Y-49039711D01*
X83906683Y-49039713D01*
X83896594Y-49046804D01*
X83674977Y-49202559D01*
X83464378Y-49398260D01*
X83282287Y-49620732D01*
X83132073Y-49865858D01*
X83016517Y-50129102D01*
X82937756Y-50405594D01*
X82897249Y-50690216D01*
X82897227Y-50694505D01*
X82897226Y-50694512D01*
X82895765Y-50973417D01*
X82895743Y-50977703D01*
X81703000Y-50977703D01*
X81703000Y-47669000D01*
X81723002Y-47600879D01*
X81776658Y-47554386D01*
X81829000Y-47543000D01*
X177081000Y-47543000D01*
X177149121Y-47563002D01*
G37*
G04 #@! TD.AperFunction*
M02*
