M48
; DRILL file {KiCad (6.0.0)} date Sat Aug  6 06:41:07 2022
; FORMAT={-:-/ absolute / metric / decimal}
; #@! TF.CreationDate,2022-08-06T06:41:07-07:00
; #@! TF.GenerationSoftware,Kicad,Pcbnew,(6.0.0)
; #@! TF.FileFunction,Plated,1,2,PTH
FMAT,2
METRIC
; #@! TA.AperFunction,Plated,PTH,ComponentDrill
T1C0.762
; #@! TA.AperFunction,Plated,PTH,ComponentDrill
T2C1.000
; #@! TA.AperFunction,Plated,PTH,ComponentDrill
T3C1.100
; #@! TA.AperFunction,Plated,PTH,ComponentDrill
T4C1.300
; #@! TA.AperFunction,Plated,PTH,ComponentDrill
T5C1.400
%
G90
G05
T1
X84.588Y-84.076
X84.588Y-86.641
X89.668Y-73.281
X92.208Y-73.281
X96.018Y-95.506
X98.558Y-95.506
X101.098Y-95.506
X104.273Y-73.281
X106.813Y-73.281
X111.893Y-84.076
X111.893Y-86.641
X116.084Y-84.076
X116.084Y-86.641
X121.164Y-73.281
X123.704Y-73.281
X127.514Y-95.506
X130.054Y-95.506
X132.594Y-95.506
X135.769Y-73.281
X138.309Y-73.281
X143.389Y-84.076
X143.389Y-86.641
X147.072Y-84.076
X147.072Y-86.641
X152.152Y-73.281
X154.692Y-73.281
X158.502Y-95.506
X161.042Y-95.506
X163.582Y-95.506
X166.757Y-73.281
X169.297Y-73.281
X174.377Y-84.076
X174.377Y-86.641
T2
X94.412Y-104.18
X94.412Y-106.72
X94.412Y-109.26
X96.953Y-104.18
X96.953Y-106.72
X96.953Y-109.26
X107.112Y-104.18
X107.112Y-106.72
X107.112Y-109.26
X109.652Y-104.18
X109.652Y-106.72
X109.652Y-109.26
X119.812Y-104.18
X119.812Y-106.72
X119.812Y-109.26
X122.352Y-104.18
X122.352Y-106.72
X122.352Y-109.26
X132.512Y-104.18
X132.512Y-106.72
X132.512Y-109.26
X135.052Y-104.18
X135.052Y-106.72
X135.052Y-109.26
X145.213Y-104.18
X145.213Y-106.72
X145.213Y-109.26
X147.752Y-104.18
X147.752Y-106.72
X147.752Y-109.26
X157.912Y-104.18
X157.912Y-106.72
X157.912Y-109.26
X160.452Y-104.18
X160.452Y-106.72
X160.452Y-109.26
T3
X162.56Y-68.58
X172.72Y-68.58
T4
X171.665Y-101.65
X171.665Y-106.73
T5
X104.955Y-59.735
X153.955Y-59.735
T0
M30
