G04 #@! TF.GenerationSoftware,KiCad,Pcbnew,(6.0.0)*
G04 #@! TF.CreationDate,2022-08-05T10:13:32-07:00*
G04 #@! TF.ProjectId,synth2-fp,73796e74-6832-42d6-9670-2e6b69636164,rev?*
G04 #@! TF.SameCoordinates,Original*
G04 #@! TF.FileFunction,Profile,NP*
%FSLAX46Y46*%
G04 Gerber Fmt 4.6, Leading zero omitted, Abs format (unit mm)*
G04 Created by KiCad (PCBNEW (6.0.0)) date 2022-08-05 10:13:32*
%MOMM*%
%LPD*%
G01*
G04 APERTURE LIST*
G04 #@! TA.AperFunction,Profile*
%ADD10C,0.100000*%
G04 #@! TD*
G04 APERTURE END LIST*
D10*
X97359000Y-69854000D02*
G75*
G03*
X97359000Y-69854000I-3175000J0D01*
G01*
X117046000Y-54676000D02*
G75*
G03*
X117046000Y-54676000I-3050000J0D01*
G01*
X88090000Y-159306000D02*
G75*
G03*
X88090000Y-159306000I-1550000J0D01*
G01*
X126152000Y-138661000D02*
G75*
G03*
X126152000Y-138661000I-3550000J0D01*
G01*
X115546000Y-68046000D02*
G75*
G03*
X115546000Y-68046000I-1550000J0D01*
G01*
X79040000Y-33806000D02*
X129540000Y-33806000D01*
X129540000Y-33806000D02*
X129540000Y-162306000D01*
X129540000Y-162306000D02*
X79040000Y-162306000D01*
X79040000Y-162306000D02*
X79040000Y-33806000D01*
X126952000Y-54676000D02*
G75*
G03*
X126952000Y-54676000I-3050000J0D01*
G01*
X113706000Y-122148000D02*
G75*
G03*
X113706000Y-122148000I-3550000J0D01*
G01*
X87328000Y-54676000D02*
G75*
G03*
X87328000Y-54676000I-3050000J0D01*
G01*
X107140000Y-54676000D02*
G75*
G03*
X107140000Y-54676000I-3050000J0D01*
G01*
X97234000Y-54676000D02*
G75*
G03*
X97234000Y-54676000I-3050000J0D01*
G01*
X127856000Y-68046000D02*
G75*
G03*
X127856000Y-68046000I-5000000J0D01*
G01*
X87453000Y-69854000D02*
G75*
G03*
X87453000Y-69854000I-3175000J0D01*
G01*
X101768000Y-138661000D02*
G75*
G03*
X101768000Y-138661000I-3550000J0D01*
G01*
X123650000Y-159306000D02*
G75*
G03*
X123650000Y-159306000I-1550000J0D01*
G01*
X101768000Y-105895000D02*
G75*
G03*
X101768000Y-105895000I-3550000J0D01*
G01*
X89576000Y-122148000D02*
G75*
G03*
X89576000Y-122148000I-3550000J0D01*
G01*
X88090000Y-36806000D02*
G75*
G03*
X88090000Y-36806000I-1550000J0D01*
G01*
X126152000Y-105895000D02*
G75*
G03*
X126152000Y-105895000I-3550000J0D01*
G01*
X89576000Y-89642000D02*
G75*
G03*
X89576000Y-89642000I-3550000J0D01*
G01*
X123650000Y-36806000D02*
G75*
G03*
X123650000Y-36806000I-1550000J0D01*
G01*
M02*
