%FSLAX45Y45*%
G04 Gerber Fmt 4.5, Leading zero omitted, Abs format (unit mm)*
G04 Created by KiCad (PCBNEW (6.0.0)) date 2022-08-05 10:13:34*
%MOMM*%
%LPD*%
G01*
G04 APERTURE LIST*
%TA.AperFunction,Profile*%
%ADD10C,0.100000*%
%TD*%
%ADD11C,0.200000*%
G04 APERTURE END LIST*
D10*
X9735900Y-6985400D02*
G75*
G03*
X9735900Y-6985400I-317500J0D01*
G01*
X11704600Y-5467600D02*
G75*
G03*
X11704600Y-5467600I-305000J0D01*
G01*
X8809000Y-15930600D02*
G75*
G03*
X8809000Y-15930600I-155000J0D01*
G01*
X12615200Y-13866100D02*
G75*
G03*
X12615200Y-13866100I-355000J0D01*
G01*
X11554600Y-6804600D02*
G75*
G03*
X11554600Y-6804600I-155000J0D01*
G01*
X7904000Y-3380600D02*
X12954000Y-3380600D01*
X12954000Y-3380600D02*
X12954000Y-16230600D01*
X12954000Y-16230600D02*
X7904000Y-16230600D01*
X7904000Y-16230600D02*
X7904000Y-3380600D01*
X12695200Y-5467600D02*
G75*
G03*
X12695200Y-5467600I-305000J0D01*
G01*
X11370600Y-12214800D02*
G75*
G03*
X11370600Y-12214800I-355000J0D01*
G01*
X8732800Y-5467600D02*
G75*
G03*
X8732800Y-5467600I-305000J0D01*
G01*
X10714000Y-5467600D02*
G75*
G03*
X10714000Y-5467600I-305000J0D01*
G01*
X9723400Y-5467600D02*
G75*
G03*
X9723400Y-5467600I-305000J0D01*
G01*
X12785600Y-6804600D02*
G75*
G03*
X12785600Y-6804600I-500000J0D01*
G01*
X8745300Y-6985400D02*
G75*
G03*
X8745300Y-6985400I-317500J0D01*
G01*
X10176800Y-13866100D02*
G75*
G03*
X10176800Y-13866100I-355000J0D01*
G01*
X12365000Y-15930600D02*
G75*
G03*
X12365000Y-15930600I-155000J0D01*
G01*
X10176800Y-10589500D02*
G75*
G03*
X10176800Y-10589500I-355000J0D01*
G01*
X8957600Y-12214800D02*
G75*
G03*
X8957600Y-12214800I-355000J0D01*
G01*
X8809000Y-3680600D02*
G75*
G03*
X8809000Y-3680600I-155000J0D01*
G01*
X12615200Y-10589500D02*
G75*
G03*
X12615200Y-10589500I-355000J0D01*
G01*
X8957600Y-8964200D02*
G75*
G03*
X8957600Y-8964200I-355000J0D01*
G01*
X12365000Y-3680600D02*
G75*
G03*
X12365000Y-3680600I-155000J0D01*
G01*
D11*
X8156619Y-16546076D02*
X8156619Y-16346076D01*
X8204238Y-16346076D01*
X8232809Y-16355600D01*
X8251857Y-16374648D01*
X8261381Y-16393695D01*
X8270905Y-16431790D01*
X8270905Y-16460362D01*
X8261381Y-16498457D01*
X8251857Y-16517505D01*
X8232809Y-16536552D01*
X8204238Y-16546076D01*
X8156619Y-16546076D01*
X8356619Y-16546076D02*
X8356619Y-16412743D01*
X8356619Y-16450838D02*
X8366143Y-16431790D01*
X8375667Y-16422267D01*
X8394714Y-16412743D01*
X8413762Y-16412743D01*
X8480429Y-16546076D02*
X8480429Y-16412743D01*
X8480429Y-16346076D02*
X8470905Y-16355600D01*
X8480429Y-16365124D01*
X8489952Y-16355600D01*
X8480429Y-16346076D01*
X8480429Y-16365124D01*
X8604238Y-16546076D02*
X8585190Y-16536552D01*
X8575667Y-16517505D01*
X8575667Y-16346076D01*
X8709000Y-16546076D02*
X8689952Y-16536552D01*
X8680429Y-16517505D01*
X8680429Y-16346076D01*
X8937571Y-16546076D02*
X8937571Y-16346076D01*
X9004238Y-16488933D01*
X9070905Y-16346076D01*
X9070905Y-16546076D01*
X9251857Y-16546076D02*
X9251857Y-16441314D01*
X9242333Y-16422267D01*
X9223286Y-16412743D01*
X9185190Y-16412743D01*
X9166143Y-16422267D01*
X9251857Y-16536552D02*
X9232810Y-16546076D01*
X9185190Y-16546076D01*
X9166143Y-16536552D01*
X9156619Y-16517505D01*
X9156619Y-16498457D01*
X9166143Y-16479409D01*
X9185190Y-16469886D01*
X9232810Y-16469886D01*
X9251857Y-16460362D01*
X9347095Y-16412743D02*
X9347095Y-16612743D01*
X9347095Y-16422267D02*
X9366143Y-16412743D01*
X9404238Y-16412743D01*
X9423286Y-16422267D01*
X9432810Y-16431790D01*
X9442333Y-16450838D01*
X9442333Y-16507981D01*
X9432810Y-16527028D01*
X9423286Y-16536552D01*
X9404238Y-16546076D01*
X9366143Y-16546076D01*
X9347095Y-16536552D01*
X9528048Y-16527028D02*
X9537571Y-16536552D01*
X9528048Y-16546076D01*
X9518524Y-16536552D01*
X9528048Y-16527028D01*
X9528048Y-16546076D01*
X9528048Y-16422267D02*
X9537571Y-16431790D01*
X9528048Y-16441314D01*
X9518524Y-16431790D01*
X9528048Y-16422267D01*
X9528048Y-16441314D01*
M02*
