G04 #@! TF.GenerationSoftware,KiCad,Pcbnew,(6.0.0)*
G04 #@! TF.CreationDate,2022-08-05T10:13:32-07:00*
G04 #@! TF.ProjectId,synth2-fp,73796e74-6832-42d6-9670-2e6b69636164,rev?*
G04 #@! TF.SameCoordinates,Original*
G04 #@! TF.FileFunction,Legend,Bot*
G04 #@! TF.FilePolarity,Positive*
%FSLAX46Y46*%
G04 Gerber Fmt 4.6, Leading zero omitted, Abs format (unit mm)*
G04 Created by KiCad (PCBNEW (6.0.0)) date 2022-08-05 10:13:32*
%MOMM*%
%LPD*%
G01*
G04 APERTURE LIST*
%ADD10C,0.150000*%
G04 APERTURE END LIST*
D10*
X110814571Y-158690571D02*
X110814571Y-159762000D01*
X110886000Y-159976285D01*
X111028857Y-160119142D01*
X111243142Y-160190571D01*
X111386000Y-160190571D01*
X109386000Y-160190571D02*
X110100285Y-160190571D01*
X110100285Y-158690571D01*
X108028857Y-160047714D02*
X108100285Y-160119142D01*
X108314571Y-160190571D01*
X108457428Y-160190571D01*
X108671714Y-160119142D01*
X108814571Y-159976285D01*
X108886000Y-159833428D01*
X108957428Y-159547714D01*
X108957428Y-159333428D01*
X108886000Y-159047714D01*
X108814571Y-158904857D01*
X108671714Y-158762000D01*
X108457428Y-158690571D01*
X108314571Y-158690571D01*
X108100285Y-158762000D01*
X108028857Y-158833428D01*
X106957428Y-158690571D02*
X106957428Y-159762000D01*
X107028857Y-159976285D01*
X107171714Y-160119142D01*
X107386000Y-160190571D01*
X107528857Y-160190571D01*
X105528857Y-160190571D02*
X106243142Y-160190571D01*
X106243142Y-158690571D01*
X104171714Y-160047714D02*
X104243142Y-160119142D01*
X104457428Y-160190571D01*
X104600285Y-160190571D01*
X104814571Y-160119142D01*
X104957428Y-159976285D01*
X105028857Y-159833428D01*
X105100285Y-159547714D01*
X105100285Y-159333428D01*
X105028857Y-159047714D01*
X104957428Y-158904857D01*
X104814571Y-158762000D01*
X104600285Y-158690571D01*
X104457428Y-158690571D01*
X104243142Y-158762000D01*
X104171714Y-158833428D01*
X103100285Y-158690571D02*
X103100285Y-159762000D01*
X103171714Y-159976285D01*
X103314571Y-160119142D01*
X103528857Y-160190571D01*
X103671714Y-160190571D01*
X101671714Y-160190571D02*
X102386000Y-160190571D01*
X102386000Y-158690571D01*
X100314571Y-160047714D02*
X100386000Y-160119142D01*
X100600285Y-160190571D01*
X100743142Y-160190571D01*
X100957428Y-160119142D01*
X101100285Y-159976285D01*
X101171714Y-159833428D01*
X101243142Y-159547714D01*
X101243142Y-159333428D01*
X101171714Y-159047714D01*
X101100285Y-158904857D01*
X100957428Y-158762000D01*
X100743142Y-158690571D01*
X100600285Y-158690571D01*
X100386000Y-158762000D01*
X100314571Y-158833428D01*
X99243142Y-158690571D02*
X99243142Y-159762000D01*
X99314571Y-159976285D01*
X99457428Y-160119142D01*
X99671714Y-160190571D01*
X99814571Y-160190571D01*
X97814571Y-160190571D02*
X98528857Y-160190571D01*
X98528857Y-158690571D01*
X96457428Y-160047714D02*
X96528857Y-160119142D01*
X96743142Y-160190571D01*
X96886000Y-160190571D01*
X97100285Y-160119142D01*
X97243142Y-159976285D01*
X97314571Y-159833428D01*
X97386000Y-159547714D01*
X97386000Y-159333428D01*
X97314571Y-159047714D01*
X97243142Y-158904857D01*
X97100285Y-158762000D01*
X96886000Y-158690571D01*
X96743142Y-158690571D01*
X96528857Y-158762000D01*
X96457428Y-158833428D01*
%LPC*%
M02*
