G04 #@! TF.GenerationSoftware,KiCad,Pcbnew,(6.0.0)*
G04 #@! TF.CreationDate,2022-06-27T11:42:50-07:00*
G04 #@! TF.ProjectId,sen-fp,73656e2d-6670-42e6-9b69-6361645f7063,rev?*
G04 #@! TF.SameCoordinates,Original*
G04 #@! TF.FileFunction,Legend,Top*
G04 #@! TF.FilePolarity,Positive*
%FSLAX46Y46*%
G04 Gerber Fmt 4.6, Leading zero omitted, Abs format (unit mm)*
G04 Created by KiCad (PCBNEW (6.0.0)) date 2022-06-27 11:42:50*
%MOMM*%
%LPD*%
G01*
G04 APERTURE LIST*
%ADD10C,0.150000*%
G04 APERTURE END LIST*
D10*
X145367428Y-61297428D02*
X145438857Y-61226000D01*
X145581714Y-61154571D01*
X145938857Y-61154571D01*
X146081714Y-61226000D01*
X146153142Y-61297428D01*
X146224571Y-61440285D01*
X146224571Y-61583142D01*
X146153142Y-61797428D01*
X145296000Y-62654571D01*
X146224571Y-62654571D01*
X135136000Y-79950571D02*
X136064571Y-79950571D01*
X135564571Y-80522000D01*
X135778857Y-80522000D01*
X135921714Y-80593428D01*
X135993142Y-80664857D01*
X136064571Y-80807714D01*
X136064571Y-81164857D01*
X135993142Y-81307714D01*
X135921714Y-81379142D01*
X135778857Y-81450571D01*
X135350285Y-81450571D01*
X135207428Y-81379142D01*
X135136000Y-81307714D01*
X146081714Y-80450571D02*
X146081714Y-81450571D01*
X145724571Y-79879142D02*
X145367428Y-80950571D01*
X146296000Y-80950571D01*
X142139809Y-38279380D02*
X142139809Y-37279380D01*
X142377904Y-37279380D01*
X142520761Y-37327000D01*
X142616000Y-37422238D01*
X142663619Y-37517476D01*
X142711238Y-37707952D01*
X142711238Y-37850809D01*
X142663619Y-38041285D01*
X142616000Y-38136523D01*
X142520761Y-38231761D01*
X142377904Y-38279380D01*
X142139809Y-38279380D01*
X143139809Y-38279380D02*
X143139809Y-37279380D01*
X143139809Y-37755571D02*
X143711238Y-37755571D01*
X143711238Y-38279380D02*
X143711238Y-37279380D01*
X144949333Y-38279380D02*
X144949333Y-37279380D01*
X145187428Y-37279380D01*
X145330285Y-37327000D01*
X145425523Y-37422238D01*
X145473142Y-37517476D01*
X145520761Y-37707952D01*
X145520761Y-37850809D01*
X145473142Y-38041285D01*
X145425523Y-38136523D01*
X145330285Y-38231761D01*
X145187428Y-38279380D01*
X144949333Y-38279380D01*
X146330285Y-38231761D02*
X146235047Y-38279380D01*
X146044571Y-38279380D01*
X145949333Y-38231761D01*
X145901714Y-38136523D01*
X145901714Y-37755571D01*
X145949333Y-37660333D01*
X146044571Y-37612714D01*
X146235047Y-37612714D01*
X146330285Y-37660333D01*
X146377904Y-37755571D01*
X146377904Y-37850809D01*
X145901714Y-37946047D01*
X146711238Y-37612714D02*
X146949333Y-38279380D01*
X147187428Y-37612714D01*
X147568380Y-38279380D02*
X147568380Y-37612714D01*
X147568380Y-37279380D02*
X147520761Y-37327000D01*
X147568380Y-37374619D01*
X147616000Y-37327000D01*
X147568380Y-37279380D01*
X147568380Y-37374619D01*
X148473142Y-38231761D02*
X148377904Y-38279380D01*
X148187428Y-38279380D01*
X148092190Y-38231761D01*
X148044571Y-38184142D01*
X147996952Y-38088904D01*
X147996952Y-37803190D01*
X148044571Y-37707952D01*
X148092190Y-37660333D01*
X148187428Y-37612714D01*
X148377904Y-37612714D01*
X148473142Y-37660333D01*
X149282666Y-38231761D02*
X149187428Y-38279380D01*
X148996952Y-38279380D01*
X148901714Y-38231761D01*
X148854095Y-38136523D01*
X148854095Y-37755571D01*
X148901714Y-37660333D01*
X148996952Y-37612714D01*
X149187428Y-37612714D01*
X149282666Y-37660333D01*
X149330285Y-37755571D01*
X149330285Y-37850809D01*
X148854095Y-37946047D01*
X149711238Y-38231761D02*
X149806476Y-38279380D01*
X149996952Y-38279380D01*
X150092190Y-38231761D01*
X150139809Y-38136523D01*
X150139809Y-38088904D01*
X150092190Y-37993666D01*
X149996952Y-37946047D01*
X149854095Y-37946047D01*
X149758857Y-37898428D01*
X149711238Y-37803190D01*
X149711238Y-37755571D01*
X149758857Y-37660333D01*
X149854095Y-37612714D01*
X149996952Y-37612714D01*
X150092190Y-37660333D01*
X143116000Y-39365571D02*
X143449333Y-39365571D01*
X143592190Y-39889380D02*
X143116000Y-39889380D01*
X143116000Y-38889380D01*
X143592190Y-38889380D01*
X143973142Y-39841761D02*
X144116000Y-39889380D01*
X144354095Y-39889380D01*
X144449333Y-39841761D01*
X144496952Y-39794142D01*
X144544571Y-39698904D01*
X144544571Y-39603666D01*
X144496952Y-39508428D01*
X144449333Y-39460809D01*
X144354095Y-39413190D01*
X144163619Y-39365571D01*
X144068380Y-39317952D01*
X144020761Y-39270333D01*
X143973142Y-39175095D01*
X143973142Y-39079857D01*
X144020761Y-38984619D01*
X144068380Y-38937000D01*
X144163619Y-38889380D01*
X144401714Y-38889380D01*
X144544571Y-38937000D01*
X144973142Y-39889380D02*
X144973142Y-38889380D01*
X145354095Y-38889380D01*
X145449333Y-38937000D01*
X145496952Y-38984619D01*
X145544571Y-39079857D01*
X145544571Y-39222714D01*
X145496952Y-39317952D01*
X145449333Y-39365571D01*
X145354095Y-39413190D01*
X144973142Y-39413190D01*
X146925523Y-38889380D02*
X147116000Y-38889380D01*
X147211238Y-38937000D01*
X147306476Y-39032238D01*
X147354095Y-39222714D01*
X147354095Y-39556047D01*
X147306476Y-39746523D01*
X147211238Y-39841761D01*
X147116000Y-39889380D01*
X146925523Y-39889380D01*
X146830285Y-39841761D01*
X146735047Y-39746523D01*
X146687428Y-39556047D01*
X146687428Y-39222714D01*
X146735047Y-39032238D01*
X146830285Y-38937000D01*
X146925523Y-38889380D01*
X147782666Y-38889380D02*
X147782666Y-39698904D01*
X147830285Y-39794142D01*
X147877904Y-39841761D01*
X147973142Y-39889380D01*
X148163619Y-39889380D01*
X148258857Y-39841761D01*
X148306476Y-39794142D01*
X148354095Y-39698904D01*
X148354095Y-38889380D01*
X148687428Y-38889380D02*
X149258857Y-38889380D01*
X148973142Y-39889380D02*
X148973142Y-38889380D01*
X136064571Y-62654571D02*
X135207428Y-62654571D01*
X135636000Y-62654571D02*
X135636000Y-61154571D01*
X135493142Y-61368857D01*
X135350285Y-61511714D01*
X135207428Y-61583142D01*
X146081714Y-98746571D02*
X145796000Y-98746571D01*
X145653142Y-98818000D01*
X145581714Y-98889428D01*
X145438857Y-99103714D01*
X145367428Y-99389428D01*
X145367428Y-99960857D01*
X145438857Y-100103714D01*
X145510285Y-100175142D01*
X145653142Y-100246571D01*
X145938857Y-100246571D01*
X146081714Y-100175142D01*
X146153142Y-100103714D01*
X146224571Y-99960857D01*
X146224571Y-99603714D01*
X146153142Y-99460857D01*
X146081714Y-99389428D01*
X145938857Y-99318000D01*
X145653142Y-99318000D01*
X145510285Y-99389428D01*
X145438857Y-99460857D01*
X145367428Y-99603714D01*
X135993142Y-98746571D02*
X135278857Y-98746571D01*
X135207428Y-99460857D01*
X135278857Y-99389428D01*
X135421714Y-99318000D01*
X135778857Y-99318000D01*
X135921714Y-99389428D01*
X135993142Y-99460857D01*
X136064571Y-99603714D01*
X136064571Y-99960857D01*
X135993142Y-100103714D01*
X135921714Y-100175142D01*
X135778857Y-100246571D01*
X135421714Y-100246571D01*
X135278857Y-100175142D01*
X135207428Y-100103714D01*
%LPC*%
M02*
