G04 #@! TF.GenerationSoftware,KiCad,Pcbnew,(6.0.0)*
G04 #@! TF.CreationDate,2022-06-27T11:42:50-07:00*
G04 #@! TF.ProjectId,sen-fp,73656e2d-6670-42e6-9b69-6361645f7063,rev?*
G04 #@! TF.SameCoordinates,Original*
G04 #@! TF.FileFunction,Legend,Bot*
G04 #@! TF.FilePolarity,Positive*
%FSLAX46Y46*%
G04 Gerber Fmt 4.6, Leading zero omitted, Abs format (unit mm)*
G04 Created by KiCad (PCBNEW (6.0.0)) date 2022-06-27 11:42:50*
%MOMM*%
%LPD*%
G01*
G04 APERTURE LIST*
%ADD10C,0.150000*%
G04 APERTURE END LIST*
D10*
X134679428Y-151962571D02*
X133608000Y-151962571D01*
X133393714Y-152034000D01*
X133250857Y-152176857D01*
X133179428Y-152391142D01*
X133179428Y-152534000D01*
X133179428Y-150534000D02*
X133179428Y-151248285D01*
X134679428Y-151248285D01*
X133322285Y-149176857D02*
X133250857Y-149248285D01*
X133179428Y-149462571D01*
X133179428Y-149605428D01*
X133250857Y-149819714D01*
X133393714Y-149962571D01*
X133536571Y-150034000D01*
X133822285Y-150105428D01*
X134036571Y-150105428D01*
X134322285Y-150034000D01*
X134465142Y-149962571D01*
X134608000Y-149819714D01*
X134679428Y-149605428D01*
X134679428Y-149462571D01*
X134608000Y-149248285D01*
X134536571Y-149176857D01*
X134679428Y-148105428D02*
X133608000Y-148105428D01*
X133393714Y-148176857D01*
X133250857Y-148319714D01*
X133179428Y-148534000D01*
X133179428Y-148676857D01*
X133179428Y-146676857D02*
X133179428Y-147391142D01*
X134679428Y-147391142D01*
X133322285Y-145319714D02*
X133250857Y-145391142D01*
X133179428Y-145605428D01*
X133179428Y-145748285D01*
X133250857Y-145962571D01*
X133393714Y-146105428D01*
X133536571Y-146176857D01*
X133822285Y-146248285D01*
X134036571Y-146248285D01*
X134322285Y-146176857D01*
X134465142Y-146105428D01*
X134608000Y-145962571D01*
X134679428Y-145748285D01*
X134679428Y-145605428D01*
X134608000Y-145391142D01*
X134536571Y-145319714D01*
X134679428Y-144248285D02*
X133608000Y-144248285D01*
X133393714Y-144319714D01*
X133250857Y-144462571D01*
X133179428Y-144676857D01*
X133179428Y-144819714D01*
X133179428Y-142819714D02*
X133179428Y-143534000D01*
X134679428Y-143534000D01*
X133322285Y-141462571D02*
X133250857Y-141534000D01*
X133179428Y-141748285D01*
X133179428Y-141891142D01*
X133250857Y-142105428D01*
X133393714Y-142248285D01*
X133536571Y-142319714D01*
X133822285Y-142391142D01*
X134036571Y-142391142D01*
X134322285Y-142319714D01*
X134465142Y-142248285D01*
X134608000Y-142105428D01*
X134679428Y-141891142D01*
X134679428Y-141748285D01*
X134608000Y-141534000D01*
X134536571Y-141462571D01*
X134679428Y-140391142D02*
X133608000Y-140391142D01*
X133393714Y-140462571D01*
X133250857Y-140605428D01*
X133179428Y-140819714D01*
X133179428Y-140962571D01*
X133179428Y-138962571D02*
X133179428Y-139676857D01*
X134679428Y-139676857D01*
X133322285Y-137605428D02*
X133250857Y-137676857D01*
X133179428Y-137891142D01*
X133179428Y-138034000D01*
X133250857Y-138248285D01*
X133393714Y-138391142D01*
X133536571Y-138462571D01*
X133822285Y-138534000D01*
X134036571Y-138534000D01*
X134322285Y-138462571D01*
X134465142Y-138391142D01*
X134608000Y-138248285D01*
X134679428Y-138034000D01*
X134679428Y-137891142D01*
X134608000Y-137676857D01*
X134536571Y-137605428D01*
%LPC*%
M02*
