G04 #@! TF.GenerationSoftware,KiCad,Pcbnew,(6.0.0)*
G04 #@! TF.CreationDate,2022-08-05T10:14:30-07:00*
G04 #@! TF.ProjectId,strain_guage,73747261-696e-45f6-9775-6167652e6b69,rev?*
G04 #@! TF.SameCoordinates,Original*
G04 #@! TF.FileFunction,Soldermask,Top*
G04 #@! TF.FilePolarity,Negative*
%FSLAX46Y46*%
G04 Gerber Fmt 4.6, Leading zero omitted, Abs format (unit mm)*
G04 Created by KiCad (PCBNEW (6.0.0)) date 2022-08-05 10:14:30*
%MOMM*%
%LPD*%
G01*
G04 APERTURE LIST*
G04 Aperture macros list*
%AMRoundRect*
0 Rectangle with rounded corners*
0 $1 Rounding radius*
0 $2 $3 $4 $5 $6 $7 $8 $9 X,Y pos of 4 corners*
0 Add a 4 corners polygon primitive as box body*
4,1,4,$2,$3,$4,$5,$6,$7,$8,$9,$2,$3,0*
0 Add four circle primitives for the rounded corners*
1,1,$1+$1,$2,$3*
1,1,$1+$1,$4,$5*
1,1,$1+$1,$6,$7*
1,1,$1+$1,$8,$9*
0 Add four rect primitives between the rounded corners*
20,1,$1+$1,$2,$3,$4,$5,0*
20,1,$1+$1,$4,$5,$6,$7,0*
20,1,$1+$1,$6,$7,$8,$9,0*
20,1,$1+$1,$8,$9,$2,$3,0*%
G04 Aperture macros list end*
%ADD10C,1.451000*%
%ADD11RoundRect,0.150000X-0.150000X0.825000X-0.150000X-0.825000X0.150000X-0.825000X0.150000X0.825000X0*%
%ADD12RoundRect,0.225000X0.225000X0.250000X-0.225000X0.250000X-0.225000X-0.250000X0.225000X-0.250000X0*%
%ADD13RoundRect,0.200000X-0.275000X0.200000X-0.275000X-0.200000X0.275000X-0.200000X0.275000X0.200000X0*%
%ADD14RoundRect,0.200000X0.200000X0.275000X-0.200000X0.275000X-0.200000X-0.275000X0.200000X-0.275000X0*%
%ADD15RoundRect,0.225000X-0.225000X-0.250000X0.225000X-0.250000X0.225000X0.250000X-0.225000X0.250000X0*%
%ADD16C,3.200000*%
%ADD17RoundRect,0.150000X0.150000X-0.587500X0.150000X0.587500X-0.150000X0.587500X-0.150000X-0.587500X0*%
%ADD18R,3.000000X3.000000*%
%ADD19C,3.000000*%
%ADD20C,3.650000*%
%ADD21R,1.500000X1.500000*%
%ADD22C,1.500000*%
G04 APERTURE END LIST*
D10*
X122936000Y-134366000D03*
D11*
X106426000Y-139130000D03*
X105156000Y-139130000D03*
X103886000Y-139130000D03*
X102616000Y-139130000D03*
X101346000Y-139130000D03*
X100076000Y-139130000D03*
X98806000Y-139130000D03*
X97536000Y-139130000D03*
X97536000Y-144080000D03*
X98806000Y-144080000D03*
X100076000Y-144080000D03*
X101346000Y-144080000D03*
X102616000Y-144080000D03*
X103886000Y-144080000D03*
X105156000Y-144080000D03*
X106426000Y-144080000D03*
D12*
X134887000Y-146177000D03*
X133337000Y-146177000D03*
D11*
X135636000Y-139130000D03*
X134366000Y-139130000D03*
X133096000Y-139130000D03*
X131826000Y-139130000D03*
X130556000Y-139130000D03*
X129286000Y-139130000D03*
X128016000Y-139130000D03*
X126746000Y-139130000D03*
X126746000Y-144080000D03*
X128016000Y-144080000D03*
X129286000Y-144080000D03*
X130556000Y-144080000D03*
X131826000Y-144080000D03*
X133096000Y-144080000D03*
X134366000Y-144080000D03*
X135636000Y-144080000D03*
D13*
X97536000Y-135446000D03*
X97536000Y-137096000D03*
D12*
X105677000Y-146177000D03*
X104127000Y-146177000D03*
D14*
X102806000Y-137033000D03*
X101156000Y-137033000D03*
D15*
X97396000Y-133985000D03*
X98946000Y-133985000D03*
D12*
X132728000Y-133731000D03*
X131178000Y-133731000D03*
D10*
X113411000Y-134366000D03*
D15*
X126720000Y-133858000D03*
X128270000Y-133858000D03*
D12*
X101359000Y-135509000D03*
X99809000Y-135509000D03*
D16*
X99187000Y-153797000D03*
D12*
X103518000Y-133985000D03*
X101968000Y-133985000D03*
D17*
X135194000Y-136827500D03*
X137094000Y-136827500D03*
X136144000Y-134952500D03*
D18*
X114046000Y-127127000D03*
D19*
X108966000Y-127127000D03*
X103886000Y-127127000D03*
X98806000Y-127127000D03*
D10*
X111887000Y-138049000D03*
D14*
X132016000Y-137033000D03*
X130366000Y-137033000D03*
D18*
X136017000Y-127127000D03*
D19*
X130937000Y-127127000D03*
X125857000Y-127127000D03*
X120777000Y-127127000D03*
D10*
X116586000Y-134366000D03*
D17*
X105984000Y-136827500D03*
X107884000Y-136827500D03*
X106934000Y-134952500D03*
D14*
X133730000Y-135382000D03*
X132080000Y-135382000D03*
D10*
X118110000Y-138049000D03*
D20*
X111369500Y-150360000D03*
X122799500Y-150360000D03*
D21*
X112639500Y-144010000D03*
D22*
X113909500Y-141470000D03*
X115179500Y-144010000D03*
X116449500Y-141470000D03*
X117719500Y-144010000D03*
X118989500Y-141470000D03*
X120259500Y-144010000D03*
X121529500Y-141470000D03*
D14*
X104457000Y-135509000D03*
X102807000Y-135509000D03*
D10*
X121158000Y-138049000D03*
D16*
X135509000Y-153797000D03*
D12*
X130569000Y-135382000D03*
X129019000Y-135382000D03*
D16*
X117348000Y-119761000D03*
D13*
X126746000Y-135383000D03*
X126746000Y-137033000D03*
M02*
