%FSLAX45Y45*%
G04 Gerber Fmt 4.5, Leading zero omitted, Abs format (unit mm)*
G04 Created by KiCad (PCBNEW (6.0.0)) date 2022-08-05 10:14:32*
%MOMM*%
%LPD*%
G01*
G04 APERTURE LIST*
%TA.AperFunction,Profile*%
%ADD10C,0.100000*%
%TD*%
%ADD11C,0.200000*%
%ADD12C,0.320000*%
%ADD13C,0.345000*%
G04 APERTURE END LIST*
D10*
X9563100Y-11595100D02*
X13906500Y-11595100D01*
X13906500Y-11595100D02*
X13906500Y-15735300D01*
X13906500Y-15735300D02*
X9563100Y-15735300D01*
X9563100Y-15735300D02*
X9563100Y-11595100D01*
D11*
D12*
X9758700Y-15219700D02*
X10078700Y-15539700D01*
X10078700Y-15219700D02*
X9758700Y-15539700D01*
X11574800Y-11816100D02*
X11894800Y-12136100D01*
X11894800Y-11816100D02*
X11574800Y-12136100D01*
X13390900Y-15219700D02*
X13710900Y-15539700D01*
X13710900Y-15219700D02*
X13390900Y-15539700D01*
D13*
X11309450Y-15036000D02*
G75*
G03*
X11309450Y-15036000I-172500J0D01*
G01*
X12452450Y-15036000D02*
G75*
G03*
X12452450Y-15036000I-172500J0D01*
G01*
D11*
X9815719Y-16050776D02*
X9815719Y-15850776D01*
X9863338Y-15850776D01*
X9891910Y-15860300D01*
X9910957Y-15879348D01*
X9920481Y-15898395D01*
X9930005Y-15936490D01*
X9930005Y-15965062D01*
X9920481Y-16003157D01*
X9910957Y-16022205D01*
X9891910Y-16041252D01*
X9863338Y-16050776D01*
X9815719Y-16050776D01*
X10015719Y-16050776D02*
X10015719Y-15917443D01*
X10015719Y-15955538D02*
X10025243Y-15936490D01*
X10034767Y-15926967D01*
X10053814Y-15917443D01*
X10072862Y-15917443D01*
X10139529Y-16050776D02*
X10139529Y-15917443D01*
X10139529Y-15850776D02*
X10130005Y-15860300D01*
X10139529Y-15869824D01*
X10149052Y-15860300D01*
X10139529Y-15850776D01*
X10139529Y-15869824D01*
X10263338Y-16050776D02*
X10244290Y-16041252D01*
X10234767Y-16022205D01*
X10234767Y-15850776D01*
X10368100Y-16050776D02*
X10349052Y-16041252D01*
X10339529Y-16022205D01*
X10339529Y-15850776D01*
X10596671Y-16050776D02*
X10596671Y-15850776D01*
X10663338Y-15993633D01*
X10730005Y-15850776D01*
X10730005Y-16050776D01*
X10910957Y-16050776D02*
X10910957Y-15946014D01*
X10901433Y-15926967D01*
X10882386Y-15917443D01*
X10844290Y-15917443D01*
X10825243Y-15926967D01*
X10910957Y-16041252D02*
X10891910Y-16050776D01*
X10844290Y-16050776D01*
X10825243Y-16041252D01*
X10815719Y-16022205D01*
X10815719Y-16003157D01*
X10825243Y-15984109D01*
X10844290Y-15974586D01*
X10891910Y-15974586D01*
X10910957Y-15965062D01*
X11006195Y-15917443D02*
X11006195Y-16117443D01*
X11006195Y-15926967D02*
X11025243Y-15917443D01*
X11063338Y-15917443D01*
X11082386Y-15926967D01*
X11091910Y-15936490D01*
X11101433Y-15955538D01*
X11101433Y-16012681D01*
X11091910Y-16031728D01*
X11082386Y-16041252D01*
X11063338Y-16050776D01*
X11025243Y-16050776D01*
X11006195Y-16041252D01*
X11187148Y-16031728D02*
X11196671Y-16041252D01*
X11187148Y-16050776D01*
X11177624Y-16041252D01*
X11187148Y-16031728D01*
X11187148Y-16050776D01*
X11187148Y-15926967D02*
X11196671Y-15936490D01*
X11187148Y-15946014D01*
X11177624Y-15936490D01*
X11187148Y-15926967D01*
X11187148Y-15946014D01*
X9358100Y-16280300D02*
X9558100Y-16480300D01*
X9558100Y-16280300D02*
X9358100Y-16480300D01*
X9796671Y-16270776D02*
X9920481Y-16270776D01*
X9853814Y-16346967D01*
X9882386Y-16346967D01*
X9901433Y-16356490D01*
X9910957Y-16366014D01*
X9920481Y-16385062D01*
X9920481Y-16432681D01*
X9910957Y-16451728D01*
X9901433Y-16461252D01*
X9882386Y-16470776D01*
X9825243Y-16470776D01*
X9806195Y-16461252D01*
X9796671Y-16451728D01*
X10006195Y-16451728D02*
X10015719Y-16461252D01*
X10006195Y-16470776D01*
X9996671Y-16461252D01*
X10006195Y-16451728D01*
X10006195Y-16470776D01*
X10091910Y-16289824D02*
X10101433Y-16280300D01*
X10120481Y-16270776D01*
X10168100Y-16270776D01*
X10187148Y-16280300D01*
X10196671Y-16289824D01*
X10206195Y-16308871D01*
X10206195Y-16327919D01*
X10196671Y-16356490D01*
X10082386Y-16470776D01*
X10206195Y-16470776D01*
X10330005Y-16270776D02*
X10349052Y-16270776D01*
X10368100Y-16280300D01*
X10377624Y-16289824D01*
X10387148Y-16308871D01*
X10396671Y-16346967D01*
X10396671Y-16394586D01*
X10387148Y-16432681D01*
X10377624Y-16451728D01*
X10368100Y-16461252D01*
X10349052Y-16470776D01*
X10330005Y-16470776D01*
X10310957Y-16461252D01*
X10301433Y-16451728D01*
X10291910Y-16432681D01*
X10282386Y-16394586D01*
X10282386Y-16346967D01*
X10291910Y-16308871D01*
X10301433Y-16289824D01*
X10310957Y-16280300D01*
X10330005Y-16270776D01*
X10520481Y-16270776D02*
X10539529Y-16270776D01*
X10558576Y-16280300D01*
X10568100Y-16289824D01*
X10577624Y-16308871D01*
X10587148Y-16346967D01*
X10587148Y-16394586D01*
X10577624Y-16432681D01*
X10568100Y-16451728D01*
X10558576Y-16461252D01*
X10539529Y-16470776D01*
X10520481Y-16470776D01*
X10501433Y-16461252D01*
X10491910Y-16451728D01*
X10482386Y-16432681D01*
X10472862Y-16394586D01*
X10472862Y-16346967D01*
X10482386Y-16308871D01*
X10491910Y-16289824D01*
X10501433Y-16280300D01*
X10520481Y-16270776D01*
X10672862Y-16470776D02*
X10672862Y-16337443D01*
X10672862Y-16356490D02*
X10682386Y-16346967D01*
X10701433Y-16337443D01*
X10730005Y-16337443D01*
X10749052Y-16346967D01*
X10758576Y-16366014D01*
X10758576Y-16470776D01*
X10758576Y-16366014D02*
X10768100Y-16346967D01*
X10787148Y-16337443D01*
X10815719Y-16337443D01*
X10834767Y-16346967D01*
X10844290Y-16366014D01*
X10844290Y-16470776D01*
X10939529Y-16470776D02*
X10939529Y-16337443D01*
X10939529Y-16356490D02*
X10949052Y-16346967D01*
X10968100Y-16337443D01*
X10996671Y-16337443D01*
X11015719Y-16346967D01*
X11025243Y-16366014D01*
X11025243Y-16470776D01*
X11025243Y-16366014D02*
X11034767Y-16346967D01*
X11053814Y-16337443D01*
X11082386Y-16337443D01*
X11101433Y-16346967D01*
X11110957Y-16366014D01*
X11110957Y-16470776D01*
X11501433Y-16261252D02*
X11330005Y-16518395D01*
X11758576Y-16270776D02*
X11777624Y-16270776D01*
X11796671Y-16280300D01*
X11806195Y-16289824D01*
X11815719Y-16308871D01*
X11825243Y-16346967D01*
X11825243Y-16394586D01*
X11815719Y-16432681D01*
X11806195Y-16451728D01*
X11796671Y-16461252D01*
X11777624Y-16470776D01*
X11758576Y-16470776D01*
X11739528Y-16461252D01*
X11730005Y-16451728D01*
X11720481Y-16432681D01*
X11710957Y-16394586D01*
X11710957Y-16346967D01*
X11720481Y-16308871D01*
X11730005Y-16289824D01*
X11739528Y-16280300D01*
X11758576Y-16270776D01*
X11910957Y-16451728D02*
X11920481Y-16461252D01*
X11910957Y-16470776D01*
X11901433Y-16461252D01*
X11910957Y-16451728D01*
X11910957Y-16470776D01*
X12110957Y-16470776D02*
X11996671Y-16470776D01*
X12053814Y-16470776D02*
X12053814Y-16270776D01*
X12034767Y-16299348D01*
X12015719Y-16318395D01*
X11996671Y-16327919D01*
X12187148Y-16289824D02*
X12196671Y-16280300D01*
X12215719Y-16270776D01*
X12263338Y-16270776D01*
X12282386Y-16280300D01*
X12291909Y-16289824D01*
X12301433Y-16308871D01*
X12301433Y-16327919D01*
X12291909Y-16356490D01*
X12177624Y-16470776D01*
X12301433Y-16470776D01*
X12472862Y-16270776D02*
X12434767Y-16270776D01*
X12415719Y-16280300D01*
X12406195Y-16289824D01*
X12387148Y-16318395D01*
X12377624Y-16356490D01*
X12377624Y-16432681D01*
X12387148Y-16451728D01*
X12396671Y-16461252D01*
X12415719Y-16470776D01*
X12453814Y-16470776D01*
X12472862Y-16461252D01*
X12482386Y-16451728D01*
X12491909Y-16432681D01*
X12491909Y-16385062D01*
X12482386Y-16366014D01*
X12472862Y-16356490D01*
X12453814Y-16346967D01*
X12415719Y-16346967D01*
X12396671Y-16356490D01*
X12387148Y-16366014D01*
X12377624Y-16385062D01*
X12615719Y-16270776D02*
X12634767Y-16270776D01*
X12653814Y-16280300D01*
X12663338Y-16289824D01*
X12672862Y-16308871D01*
X12682386Y-16346967D01*
X12682386Y-16394586D01*
X12672862Y-16432681D01*
X12663338Y-16451728D01*
X12653814Y-16461252D01*
X12634767Y-16470776D01*
X12615719Y-16470776D01*
X12596671Y-16461252D01*
X12587148Y-16451728D01*
X12577624Y-16432681D01*
X12568100Y-16394586D01*
X12568100Y-16346967D01*
X12577624Y-16308871D01*
X12587148Y-16289824D01*
X12596671Y-16280300D01*
X12615719Y-16270776D01*
X12758576Y-16270776D02*
X12758576Y-16308871D01*
X12834767Y-16270776D02*
X12834767Y-16308871D01*
X13130005Y-16546967D02*
X13120481Y-16537443D01*
X13101433Y-16508871D01*
X13091909Y-16489824D01*
X13082386Y-16461252D01*
X13072862Y-16413633D01*
X13072862Y-16375538D01*
X13082386Y-16327919D01*
X13091909Y-16299348D01*
X13101433Y-16280300D01*
X13120481Y-16251728D01*
X13130005Y-16242205D01*
X13187148Y-16270776D02*
X13310957Y-16270776D01*
X13244290Y-16346967D01*
X13272862Y-16346967D01*
X13291909Y-16356490D01*
X13301433Y-16366014D01*
X13310957Y-16385062D01*
X13310957Y-16432681D01*
X13301433Y-16451728D01*
X13291909Y-16461252D01*
X13272862Y-16470776D01*
X13215719Y-16470776D01*
X13196671Y-16461252D01*
X13187148Y-16451728D01*
X13549052Y-16470776D02*
X13549052Y-16270776D01*
X13634767Y-16470776D02*
X13634767Y-16366014D01*
X13625243Y-16346967D01*
X13606195Y-16337443D01*
X13577624Y-16337443D01*
X13558576Y-16346967D01*
X13549052Y-16356490D01*
X13758576Y-16470776D02*
X13739528Y-16461252D01*
X13730005Y-16451728D01*
X13720481Y-16432681D01*
X13720481Y-16375538D01*
X13730005Y-16356490D01*
X13739528Y-16346967D01*
X13758576Y-16337443D01*
X13787148Y-16337443D01*
X13806195Y-16346967D01*
X13815719Y-16356490D01*
X13825243Y-16375538D01*
X13825243Y-16432681D01*
X13815719Y-16451728D01*
X13806195Y-16461252D01*
X13787148Y-16470776D01*
X13758576Y-16470776D01*
X13939528Y-16470776D02*
X13920481Y-16461252D01*
X13910957Y-16442205D01*
X13910957Y-16270776D01*
X14091909Y-16461252D02*
X14072862Y-16470776D01*
X14034767Y-16470776D01*
X14015719Y-16461252D01*
X14006195Y-16442205D01*
X14006195Y-16366014D01*
X14015719Y-16346967D01*
X14034767Y-16337443D01*
X14072862Y-16337443D01*
X14091909Y-16346967D01*
X14101433Y-16366014D01*
X14101433Y-16385062D01*
X14006195Y-16404109D01*
X14177624Y-16461252D02*
X14196671Y-16470776D01*
X14234767Y-16470776D01*
X14253814Y-16461252D01*
X14263338Y-16442205D01*
X14263338Y-16432681D01*
X14253814Y-16413633D01*
X14234767Y-16404109D01*
X14206195Y-16404109D01*
X14187148Y-16394586D01*
X14177624Y-16375538D01*
X14177624Y-16366014D01*
X14187148Y-16346967D01*
X14206195Y-16337443D01*
X14234767Y-16337443D01*
X14253814Y-16346967D01*
X14330005Y-16546967D02*
X14339528Y-16537443D01*
X14358576Y-16508871D01*
X14368100Y-16489824D01*
X14377624Y-16461252D01*
X14387148Y-16413633D01*
X14387148Y-16375538D01*
X14377624Y-16327919D01*
X14368100Y-16299348D01*
X14358576Y-16280300D01*
X14339528Y-16251728D01*
X14330005Y-16242205D01*
X14691909Y-16546967D02*
X14682386Y-16537443D01*
X14663338Y-16508871D01*
X14653814Y-16489824D01*
X14644290Y-16461252D01*
X14634767Y-16413633D01*
X14634767Y-16375538D01*
X14644290Y-16327919D01*
X14653814Y-16299348D01*
X14663338Y-16280300D01*
X14682386Y-16251728D01*
X14691909Y-16242205D01*
X14768100Y-16337443D02*
X14768100Y-16470776D01*
X14768100Y-16356490D02*
X14777624Y-16346967D01*
X14796671Y-16337443D01*
X14825243Y-16337443D01*
X14844290Y-16346967D01*
X14853814Y-16366014D01*
X14853814Y-16470776D01*
X14977624Y-16470776D02*
X14958576Y-16461252D01*
X14949052Y-16451728D01*
X14939528Y-16432681D01*
X14939528Y-16375538D01*
X14949052Y-16356490D01*
X14958576Y-16346967D01*
X14977624Y-16337443D01*
X15006195Y-16337443D01*
X15025243Y-16346967D01*
X15034767Y-16356490D01*
X15044290Y-16375538D01*
X15044290Y-16432681D01*
X15034767Y-16451728D01*
X15025243Y-16461252D01*
X15006195Y-16470776D01*
X14977624Y-16470776D01*
X15101433Y-16337443D02*
X15177624Y-16337443D01*
X15130005Y-16270776D02*
X15130005Y-16442205D01*
X15139528Y-16461252D01*
X15158576Y-16470776D01*
X15177624Y-16470776D01*
X15396671Y-16337443D02*
X15396671Y-16537443D01*
X15396671Y-16346967D02*
X15415719Y-16337443D01*
X15453814Y-16337443D01*
X15472862Y-16346967D01*
X15482386Y-16356490D01*
X15491909Y-16375538D01*
X15491909Y-16432681D01*
X15482386Y-16451728D01*
X15472862Y-16461252D01*
X15453814Y-16470776D01*
X15415719Y-16470776D01*
X15396671Y-16461252D01*
X15606195Y-16470776D02*
X15587148Y-16461252D01*
X15577624Y-16442205D01*
X15577624Y-16270776D01*
X15768100Y-16470776D02*
X15768100Y-16366014D01*
X15758576Y-16346967D01*
X15739528Y-16337443D01*
X15701433Y-16337443D01*
X15682386Y-16346967D01*
X15768100Y-16461252D02*
X15749052Y-16470776D01*
X15701433Y-16470776D01*
X15682386Y-16461252D01*
X15672862Y-16442205D01*
X15672862Y-16423157D01*
X15682386Y-16404109D01*
X15701433Y-16394586D01*
X15749052Y-16394586D01*
X15768100Y-16385062D01*
X15834767Y-16337443D02*
X15910957Y-16337443D01*
X15863338Y-16270776D02*
X15863338Y-16442205D01*
X15872862Y-16461252D01*
X15891909Y-16470776D01*
X15910957Y-16470776D01*
X16053814Y-16461252D02*
X16034767Y-16470776D01*
X15996671Y-16470776D01*
X15977624Y-16461252D01*
X15968100Y-16442205D01*
X15968100Y-16366014D01*
X15977624Y-16346967D01*
X15996671Y-16337443D01*
X16034767Y-16337443D01*
X16053814Y-16346967D01*
X16063338Y-16366014D01*
X16063338Y-16385062D01*
X15968100Y-16404109D01*
X16234767Y-16470776D02*
X16234767Y-16270776D01*
X16234767Y-16461252D02*
X16215719Y-16470776D01*
X16177624Y-16470776D01*
X16158576Y-16461252D01*
X16149052Y-16451728D01*
X16139528Y-16432681D01*
X16139528Y-16375538D01*
X16149052Y-16356490D01*
X16158576Y-16346967D01*
X16177624Y-16337443D01*
X16215719Y-16337443D01*
X16234767Y-16346967D01*
X16310957Y-16546967D02*
X16320481Y-16537443D01*
X16339528Y-16508871D01*
X16349052Y-16489824D01*
X16358576Y-16461252D01*
X16368100Y-16413633D01*
X16368100Y-16375538D01*
X16358576Y-16327919D01*
X16349052Y-16299348D01*
X16339528Y-16280300D01*
X16320481Y-16251728D01*
X16310957Y-16242205D01*
X9558100Y-16700300D02*
G75*
G03*
X9558100Y-16700300I-100000J0D01*
G01*
X9796671Y-16590776D02*
X9920481Y-16590776D01*
X9853814Y-16666967D01*
X9882386Y-16666967D01*
X9901433Y-16676490D01*
X9910957Y-16686014D01*
X9920481Y-16705062D01*
X9920481Y-16752681D01*
X9910957Y-16771728D01*
X9901433Y-16781252D01*
X9882386Y-16790776D01*
X9825243Y-16790776D01*
X9806195Y-16781252D01*
X9796671Y-16771728D01*
X10006195Y-16771728D02*
X10015719Y-16781252D01*
X10006195Y-16790776D01*
X9996671Y-16781252D01*
X10006195Y-16771728D01*
X10006195Y-16790776D01*
X10187148Y-16657443D02*
X10187148Y-16790776D01*
X10139529Y-16581252D02*
X10091910Y-16724109D01*
X10215719Y-16724109D01*
X10387148Y-16590776D02*
X10291910Y-16590776D01*
X10282386Y-16686014D01*
X10291910Y-16676490D01*
X10310957Y-16666967D01*
X10358576Y-16666967D01*
X10377624Y-16676490D01*
X10387148Y-16686014D01*
X10396671Y-16705062D01*
X10396671Y-16752681D01*
X10387148Y-16771728D01*
X10377624Y-16781252D01*
X10358576Y-16790776D01*
X10310957Y-16790776D01*
X10291910Y-16781252D01*
X10282386Y-16771728D01*
X10520481Y-16590776D02*
X10539529Y-16590776D01*
X10558576Y-16600300D01*
X10568100Y-16609824D01*
X10577624Y-16628871D01*
X10587148Y-16666967D01*
X10587148Y-16714586D01*
X10577624Y-16752681D01*
X10568100Y-16771728D01*
X10558576Y-16781252D01*
X10539529Y-16790776D01*
X10520481Y-16790776D01*
X10501433Y-16781252D01*
X10491910Y-16771728D01*
X10482386Y-16752681D01*
X10472862Y-16714586D01*
X10472862Y-16666967D01*
X10482386Y-16628871D01*
X10491910Y-16609824D01*
X10501433Y-16600300D01*
X10520481Y-16590776D01*
X10672862Y-16790776D02*
X10672862Y-16657443D01*
X10672862Y-16676490D02*
X10682386Y-16666967D01*
X10701433Y-16657443D01*
X10730005Y-16657443D01*
X10749052Y-16666967D01*
X10758576Y-16686014D01*
X10758576Y-16790776D01*
X10758576Y-16686014D02*
X10768100Y-16666967D01*
X10787148Y-16657443D01*
X10815719Y-16657443D01*
X10834767Y-16666967D01*
X10844290Y-16686014D01*
X10844290Y-16790776D01*
X10939529Y-16790776D02*
X10939529Y-16657443D01*
X10939529Y-16676490D02*
X10949052Y-16666967D01*
X10968100Y-16657443D01*
X10996671Y-16657443D01*
X11015719Y-16666967D01*
X11025243Y-16686014D01*
X11025243Y-16790776D01*
X11025243Y-16686014D02*
X11034767Y-16666967D01*
X11053814Y-16657443D01*
X11082386Y-16657443D01*
X11101433Y-16666967D01*
X11110957Y-16686014D01*
X11110957Y-16790776D01*
X11501433Y-16581252D02*
X11330005Y-16838395D01*
X11758576Y-16590776D02*
X11777624Y-16590776D01*
X11796671Y-16600300D01*
X11806195Y-16609824D01*
X11815719Y-16628871D01*
X11825243Y-16666967D01*
X11825243Y-16714586D01*
X11815719Y-16752681D01*
X11806195Y-16771728D01*
X11796671Y-16781252D01*
X11777624Y-16790776D01*
X11758576Y-16790776D01*
X11739528Y-16781252D01*
X11730005Y-16771728D01*
X11720481Y-16752681D01*
X11710957Y-16714586D01*
X11710957Y-16666967D01*
X11720481Y-16628871D01*
X11730005Y-16609824D01*
X11739528Y-16600300D01*
X11758576Y-16590776D01*
X11910957Y-16771728D02*
X11920481Y-16781252D01*
X11910957Y-16790776D01*
X11901433Y-16781252D01*
X11910957Y-16771728D01*
X11910957Y-16790776D01*
X12110957Y-16790776D02*
X11996671Y-16790776D01*
X12053814Y-16790776D02*
X12053814Y-16590776D01*
X12034767Y-16619348D01*
X12015719Y-16638395D01*
X11996671Y-16647919D01*
X12177624Y-16590776D02*
X12301433Y-16590776D01*
X12234767Y-16666967D01*
X12263338Y-16666967D01*
X12282386Y-16676490D01*
X12291909Y-16686014D01*
X12301433Y-16705062D01*
X12301433Y-16752681D01*
X12291909Y-16771728D01*
X12282386Y-16781252D01*
X12263338Y-16790776D01*
X12206195Y-16790776D01*
X12187148Y-16781252D01*
X12177624Y-16771728D01*
X12482386Y-16590776D02*
X12387148Y-16590776D01*
X12377624Y-16686014D01*
X12387148Y-16676490D01*
X12406195Y-16666967D01*
X12453814Y-16666967D01*
X12472862Y-16676490D01*
X12482386Y-16686014D01*
X12491909Y-16705062D01*
X12491909Y-16752681D01*
X12482386Y-16771728D01*
X12472862Y-16781252D01*
X12453814Y-16790776D01*
X12406195Y-16790776D01*
X12387148Y-16781252D01*
X12377624Y-16771728D01*
X12606195Y-16676490D02*
X12587148Y-16666967D01*
X12577624Y-16657443D01*
X12568100Y-16638395D01*
X12568100Y-16628871D01*
X12577624Y-16609824D01*
X12587148Y-16600300D01*
X12606195Y-16590776D01*
X12644290Y-16590776D01*
X12663338Y-16600300D01*
X12672862Y-16609824D01*
X12682386Y-16628871D01*
X12682386Y-16638395D01*
X12672862Y-16657443D01*
X12663338Y-16666967D01*
X12644290Y-16676490D01*
X12606195Y-16676490D01*
X12587148Y-16686014D01*
X12577624Y-16695538D01*
X12568100Y-16714586D01*
X12568100Y-16752681D01*
X12577624Y-16771728D01*
X12587148Y-16781252D01*
X12606195Y-16790776D01*
X12644290Y-16790776D01*
X12663338Y-16781252D01*
X12672862Y-16771728D01*
X12682386Y-16752681D01*
X12682386Y-16714586D01*
X12672862Y-16695538D01*
X12663338Y-16686014D01*
X12644290Y-16676490D01*
X12758576Y-16590776D02*
X12758576Y-16628871D01*
X12834767Y-16590776D02*
X12834767Y-16628871D01*
X13130005Y-16866967D02*
X13120481Y-16857443D01*
X13101433Y-16828871D01*
X13091909Y-16809824D01*
X13082386Y-16781252D01*
X13072862Y-16733633D01*
X13072862Y-16695538D01*
X13082386Y-16647919D01*
X13091909Y-16619348D01*
X13101433Y-16600300D01*
X13120481Y-16571728D01*
X13130005Y-16562205D01*
X13196671Y-16609824D02*
X13206195Y-16600300D01*
X13225243Y-16590776D01*
X13272862Y-16590776D01*
X13291909Y-16600300D01*
X13301433Y-16609824D01*
X13310957Y-16628871D01*
X13310957Y-16647919D01*
X13301433Y-16676490D01*
X13187148Y-16790776D01*
X13310957Y-16790776D01*
X13549052Y-16790776D02*
X13549052Y-16590776D01*
X13634767Y-16790776D02*
X13634767Y-16686014D01*
X13625243Y-16666967D01*
X13606195Y-16657443D01*
X13577624Y-16657443D01*
X13558576Y-16666967D01*
X13549052Y-16676490D01*
X13758576Y-16790776D02*
X13739528Y-16781252D01*
X13730005Y-16771728D01*
X13720481Y-16752681D01*
X13720481Y-16695538D01*
X13730005Y-16676490D01*
X13739528Y-16666967D01*
X13758576Y-16657443D01*
X13787148Y-16657443D01*
X13806195Y-16666967D01*
X13815719Y-16676490D01*
X13825243Y-16695538D01*
X13825243Y-16752681D01*
X13815719Y-16771728D01*
X13806195Y-16781252D01*
X13787148Y-16790776D01*
X13758576Y-16790776D01*
X13939528Y-16790776D02*
X13920481Y-16781252D01*
X13910957Y-16762205D01*
X13910957Y-16590776D01*
X14091909Y-16781252D02*
X14072862Y-16790776D01*
X14034767Y-16790776D01*
X14015719Y-16781252D01*
X14006195Y-16762205D01*
X14006195Y-16686014D01*
X14015719Y-16666967D01*
X14034767Y-16657443D01*
X14072862Y-16657443D01*
X14091909Y-16666967D01*
X14101433Y-16686014D01*
X14101433Y-16705062D01*
X14006195Y-16724109D01*
X14177624Y-16781252D02*
X14196671Y-16790776D01*
X14234767Y-16790776D01*
X14253814Y-16781252D01*
X14263338Y-16762205D01*
X14263338Y-16752681D01*
X14253814Y-16733633D01*
X14234767Y-16724109D01*
X14206195Y-16724109D01*
X14187148Y-16714586D01*
X14177624Y-16695538D01*
X14177624Y-16686014D01*
X14187148Y-16666967D01*
X14206195Y-16657443D01*
X14234767Y-16657443D01*
X14253814Y-16666967D01*
X14330005Y-16866967D02*
X14339528Y-16857443D01*
X14358576Y-16828871D01*
X14368100Y-16809824D01*
X14377624Y-16781252D01*
X14387148Y-16733633D01*
X14387148Y-16695538D01*
X14377624Y-16647919D01*
X14368100Y-16619348D01*
X14358576Y-16600300D01*
X14339528Y-16571728D01*
X14330005Y-16562205D01*
X14691909Y-16866967D02*
X14682386Y-16857443D01*
X14663338Y-16828871D01*
X14653814Y-16809824D01*
X14644290Y-16781252D01*
X14634767Y-16733633D01*
X14634767Y-16695538D01*
X14644290Y-16647919D01*
X14653814Y-16619348D01*
X14663338Y-16600300D01*
X14682386Y-16571728D01*
X14691909Y-16562205D01*
X14768100Y-16657443D02*
X14768100Y-16790776D01*
X14768100Y-16676490D02*
X14777624Y-16666967D01*
X14796671Y-16657443D01*
X14825243Y-16657443D01*
X14844290Y-16666967D01*
X14853814Y-16686014D01*
X14853814Y-16790776D01*
X14977624Y-16790776D02*
X14958576Y-16781252D01*
X14949052Y-16771728D01*
X14939528Y-16752681D01*
X14939528Y-16695538D01*
X14949052Y-16676490D01*
X14958576Y-16666967D01*
X14977624Y-16657443D01*
X15006195Y-16657443D01*
X15025243Y-16666967D01*
X15034767Y-16676490D01*
X15044290Y-16695538D01*
X15044290Y-16752681D01*
X15034767Y-16771728D01*
X15025243Y-16781252D01*
X15006195Y-16790776D01*
X14977624Y-16790776D01*
X15101433Y-16657443D02*
X15177624Y-16657443D01*
X15130005Y-16590776D02*
X15130005Y-16762205D01*
X15139528Y-16781252D01*
X15158576Y-16790776D01*
X15177624Y-16790776D01*
X15396671Y-16657443D02*
X15396671Y-16857443D01*
X15396671Y-16666967D02*
X15415719Y-16657443D01*
X15453814Y-16657443D01*
X15472862Y-16666967D01*
X15482386Y-16676490D01*
X15491909Y-16695538D01*
X15491909Y-16752681D01*
X15482386Y-16771728D01*
X15472862Y-16781252D01*
X15453814Y-16790776D01*
X15415719Y-16790776D01*
X15396671Y-16781252D01*
X15606195Y-16790776D02*
X15587148Y-16781252D01*
X15577624Y-16762205D01*
X15577624Y-16590776D01*
X15768100Y-16790776D02*
X15768100Y-16686014D01*
X15758576Y-16666967D01*
X15739528Y-16657443D01*
X15701433Y-16657443D01*
X15682386Y-16666967D01*
X15768100Y-16781252D02*
X15749052Y-16790776D01*
X15701433Y-16790776D01*
X15682386Y-16781252D01*
X15672862Y-16762205D01*
X15672862Y-16743157D01*
X15682386Y-16724109D01*
X15701433Y-16714586D01*
X15749052Y-16714586D01*
X15768100Y-16705062D01*
X15834767Y-16657443D02*
X15910957Y-16657443D01*
X15863338Y-16590776D02*
X15863338Y-16762205D01*
X15872862Y-16781252D01*
X15891909Y-16790776D01*
X15910957Y-16790776D01*
X16053814Y-16781252D02*
X16034767Y-16790776D01*
X15996671Y-16790776D01*
X15977624Y-16781252D01*
X15968100Y-16762205D01*
X15968100Y-16686014D01*
X15977624Y-16666967D01*
X15996671Y-16657443D01*
X16034767Y-16657443D01*
X16053814Y-16666967D01*
X16063338Y-16686014D01*
X16063338Y-16705062D01*
X15968100Y-16724109D01*
X16234767Y-16790776D02*
X16234767Y-16590776D01*
X16234767Y-16781252D02*
X16215719Y-16790776D01*
X16177624Y-16790776D01*
X16158576Y-16781252D01*
X16149052Y-16771728D01*
X16139528Y-16752681D01*
X16139528Y-16695538D01*
X16149052Y-16676490D01*
X16158576Y-16666967D01*
X16177624Y-16657443D01*
X16215719Y-16657443D01*
X16234767Y-16666967D01*
X16310957Y-16866967D02*
X16320481Y-16857443D01*
X16339528Y-16828871D01*
X16349052Y-16809824D01*
X16358576Y-16781252D01*
X16368100Y-16733633D01*
X16368100Y-16695538D01*
X16358576Y-16647919D01*
X16349052Y-16619348D01*
X16339528Y-16600300D01*
X16320481Y-16571728D01*
X16310957Y-16562205D01*
M02*
