M48
; DRILL file {KiCad (6.0.0)} date Fri Aug  5 10:14:31 2022
; FORMAT={-:-/ absolute / metric / decimal}
; #@! TF.CreationDate,2022-08-05T10:14:31-07:00
; #@! TF.GenerationSoftware,Kicad,Pcbnew,(6.0.0)
; #@! TF.FileFunction,Plated,1,2,PTH
FMAT,2
METRIC
; #@! TA.AperFunction,Plated,PTH,ViaDrill
T1C0.400
; #@! TA.AperFunction,Plated,PTH,ComponentDrill
T2C0.889
; #@! TA.AperFunction,Plated,PTH,ComponentDrill
T3C0.900
; #@! TA.AperFunction,Plated,PTH,ComponentDrill
T4C1.520
%
G90
G05
T1
X133.096Y-141.605
X136.779Y-117.729
T2
X111.887Y-138.049
X113.411Y-134.366
X116.586Y-134.366
X118.11Y-138.049
X121.158Y-138.049
X122.936Y-134.366
T3
X112.639Y-144.01
X113.909Y-141.47
X115.179Y-144.01
X116.45Y-141.47
X117.719Y-144.01
X118.989Y-141.47
X120.259Y-144.01
X121.529Y-141.47
T4
X98.806Y-127.127
X103.886Y-127.127
X108.966Y-127.127
X114.046Y-127.127
X120.777Y-127.127
X125.857Y-127.127
X130.937Y-127.127
X136.017Y-127.127
T0
M30
