G04 #@! TF.GenerationSoftware,KiCad,Pcbnew,(6.0.0)*
G04 #@! TF.CreationDate,2022-08-05T10:14:30-07:00*
G04 #@! TF.ProjectId,strain_guage,73747261-696e-45f6-9775-6167652e6b69,rev?*
G04 #@! TF.SameCoordinates,Original*
G04 #@! TF.FileFunction,Legend,Top*
G04 #@! TF.FilePolarity,Positive*
%FSLAX46Y46*%
G04 Gerber Fmt 4.6, Leading zero omitted, Abs format (unit mm)*
G04 Created by KiCad (PCBNEW (6.0.0)) date 2022-08-05 10:14:30*
%MOMM*%
%LPD*%
G01*
G04 APERTURE LIST*
G04 Aperture macros list*
%AMRoundRect*
0 Rectangle with rounded corners*
0 $1 Rounding radius*
0 $2 $3 $4 $5 $6 $7 $8 $9 X,Y pos of 4 corners*
0 Add a 4 corners polygon primitive as box body*
4,1,4,$2,$3,$4,$5,$6,$7,$8,$9,$2,$3,0*
0 Add four circle primitives for the rounded corners*
1,1,$1+$1,$2,$3*
1,1,$1+$1,$4,$5*
1,1,$1+$1,$6,$7*
1,1,$1+$1,$8,$9*
0 Add four rect primitives between the rounded corners*
20,1,$1+$1,$2,$3,$4,$5,0*
20,1,$1+$1,$4,$5,$6,$7,0*
20,1,$1+$1,$6,$7,$8,$9,0*
20,1,$1+$1,$8,$9,$2,$3,0*%
G04 Aperture macros list end*
%ADD10C,0.150000*%
%ADD11C,0.120000*%
%ADD12C,3.650000*%
%ADD13C,1.451000*%
%ADD14RoundRect,0.150000X-0.150000X0.825000X-0.150000X-0.825000X0.150000X-0.825000X0.150000X0.825000X0*%
%ADD15RoundRect,0.225000X0.225000X0.250000X-0.225000X0.250000X-0.225000X-0.250000X0.225000X-0.250000X0*%
%ADD16RoundRect,0.200000X-0.275000X0.200000X-0.275000X-0.200000X0.275000X-0.200000X0.275000X0.200000X0*%
%ADD17RoundRect,0.200000X0.200000X0.275000X-0.200000X0.275000X-0.200000X-0.275000X0.200000X-0.275000X0*%
%ADD18RoundRect,0.225000X-0.225000X-0.250000X0.225000X-0.250000X0.225000X0.250000X-0.225000X0.250000X0*%
%ADD19C,3.200000*%
%ADD20RoundRect,0.150000X0.150000X-0.587500X0.150000X0.587500X-0.150000X0.587500X-0.150000X-0.587500X0*%
%ADD21R,3.000000X3.000000*%
%ADD22C,3.000000*%
%ADD23R,1.500000X1.500000*%
%ADD24C,1.500000*%
G04 APERTURE END LIST*
D10*
X114013285Y-121773142D02*
X113513285Y-121773142D01*
X113299000Y-120987428D02*
X114013285Y-120987428D01*
X114013285Y-122487428D01*
X113299000Y-122487428D01*
X112656142Y-121558857D02*
X111513285Y-121558857D01*
X112084714Y-120987428D02*
X112084714Y-122130285D01*
X109656142Y-121773142D02*
X109156142Y-121773142D01*
X108941857Y-120987428D02*
X109656142Y-120987428D01*
X109656142Y-122487428D01*
X108941857Y-122487428D01*
X108299000Y-121558857D02*
X107156142Y-121558857D01*
X105370428Y-121416000D02*
X104656142Y-121416000D01*
X105513285Y-120987428D02*
X105013285Y-122487428D01*
X104513285Y-120987428D01*
X104013285Y-121558857D02*
X102870428Y-121558857D01*
X101084714Y-121416000D02*
X100370428Y-121416000D01*
X101227571Y-120987428D02*
X100727571Y-122487428D01*
X100227571Y-120987428D01*
X99727571Y-121558857D02*
X98584714Y-121558857D01*
X99156142Y-120987428D02*
X99156142Y-122130285D01*
X136238285Y-121773142D02*
X135738285Y-121773142D01*
X135524000Y-120987428D02*
X136238285Y-120987428D01*
X136238285Y-122487428D01*
X135524000Y-122487428D01*
X134881142Y-121558857D02*
X133738285Y-121558857D01*
X134309714Y-120987428D02*
X134309714Y-122130285D01*
X131881142Y-121773142D02*
X131381142Y-121773142D01*
X131166857Y-120987428D02*
X131881142Y-120987428D01*
X131881142Y-122487428D01*
X131166857Y-122487428D01*
X130524000Y-121558857D02*
X129381142Y-121558857D01*
X127595428Y-121416000D02*
X126881142Y-121416000D01*
X127738285Y-120987428D02*
X127238285Y-122487428D01*
X126738285Y-120987428D01*
X126238285Y-121558857D02*
X125095428Y-121558857D01*
X123309714Y-121416000D02*
X122595428Y-121416000D01*
X123452571Y-120987428D02*
X122952571Y-122487428D01*
X122452571Y-120987428D01*
X121952571Y-121558857D02*
X120809714Y-121558857D01*
X121381142Y-120987428D02*
X121381142Y-122130285D01*
X121674095Y-131748380D02*
X122245523Y-131748380D01*
X121959809Y-132748380D02*
X121959809Y-131748380D01*
X122578857Y-132748380D02*
X122578857Y-131748380D01*
X122959809Y-131748380D01*
X123055047Y-131796000D01*
X123102666Y-131843619D01*
X123150285Y-131938857D01*
X123150285Y-132081714D01*
X123102666Y-132176952D01*
X123055047Y-132224571D01*
X122959809Y-132272190D01*
X122578857Y-132272190D01*
X123721714Y-132176952D02*
X123626476Y-132129333D01*
X123578857Y-132081714D01*
X123531238Y-131986476D01*
X123531238Y-131938857D01*
X123578857Y-131843619D01*
X123626476Y-131796000D01*
X123721714Y-131748380D01*
X123912190Y-131748380D01*
X124007428Y-131796000D01*
X124055047Y-131843619D01*
X124102666Y-131938857D01*
X124102666Y-131986476D01*
X124055047Y-132081714D01*
X124007428Y-132129333D01*
X123912190Y-132176952D01*
X123721714Y-132176952D01*
X123626476Y-132224571D01*
X123578857Y-132272190D01*
X123531238Y-132367428D01*
X123531238Y-132557904D01*
X123578857Y-132653142D01*
X123626476Y-132700761D01*
X123721714Y-132748380D01*
X123912190Y-132748380D01*
X124007428Y-132700761D01*
X124055047Y-132653142D01*
X124102666Y-132557904D01*
X124102666Y-132367428D01*
X124055047Y-132272190D01*
X124007428Y-132224571D01*
X123912190Y-132176952D01*
X107333380Y-142366904D02*
X108142904Y-142366904D01*
X108238142Y-142319285D01*
X108285761Y-142271666D01*
X108333380Y-142176428D01*
X108333380Y-141985952D01*
X108285761Y-141890714D01*
X108238142Y-141843095D01*
X108142904Y-141795476D01*
X107333380Y-141795476D01*
X107428619Y-141366904D02*
X107381000Y-141319285D01*
X107333380Y-141224047D01*
X107333380Y-140985952D01*
X107381000Y-140890714D01*
X107428619Y-140843095D01*
X107523857Y-140795476D01*
X107619095Y-140795476D01*
X107761952Y-140843095D01*
X108333380Y-141414523D01*
X108333380Y-140795476D01*
X131405333Y-146534142D02*
X131357714Y-146581761D01*
X131214857Y-146629380D01*
X131119619Y-146629380D01*
X130976761Y-146581761D01*
X130881523Y-146486523D01*
X130833904Y-146391285D01*
X130786285Y-146200809D01*
X130786285Y-146057952D01*
X130833904Y-145867476D01*
X130881523Y-145772238D01*
X130976761Y-145677000D01*
X131119619Y-145629380D01*
X131214857Y-145629380D01*
X131357714Y-145677000D01*
X131405333Y-145724619D01*
X132310095Y-145629380D02*
X131833904Y-145629380D01*
X131786285Y-146105571D01*
X131833904Y-146057952D01*
X131929142Y-146010333D01*
X132167238Y-146010333D01*
X132262476Y-146057952D01*
X132310095Y-146105571D01*
X132357714Y-146200809D01*
X132357714Y-146438904D01*
X132310095Y-146534142D01*
X132262476Y-146581761D01*
X132167238Y-146629380D01*
X131929142Y-146629380D01*
X131833904Y-146581761D01*
X131786285Y-146534142D01*
X136543380Y-142366904D02*
X137352904Y-142366904D01*
X137448142Y-142319285D01*
X137495761Y-142271666D01*
X137543380Y-142176428D01*
X137543380Y-141985952D01*
X137495761Y-141890714D01*
X137448142Y-141843095D01*
X137352904Y-141795476D01*
X136543380Y-141795476D01*
X137543380Y-140795476D02*
X137543380Y-141366904D01*
X137543380Y-141081190D02*
X136543380Y-141081190D01*
X136686238Y-141176428D01*
X136781476Y-141271666D01*
X136829095Y-141366904D01*
X96718380Y-136310666D02*
X96242190Y-136644000D01*
X96718380Y-136882095D02*
X95718380Y-136882095D01*
X95718380Y-136501142D01*
X95766000Y-136405904D01*
X95813619Y-136358285D01*
X95908857Y-136310666D01*
X96051714Y-136310666D01*
X96146952Y-136358285D01*
X96194571Y-136405904D01*
X96242190Y-136501142D01*
X96242190Y-136882095D01*
X95718380Y-135453523D02*
X95718380Y-135644000D01*
X95766000Y-135739238D01*
X95813619Y-135786857D01*
X95956476Y-135882095D01*
X96146952Y-135929714D01*
X96527904Y-135929714D01*
X96623142Y-135882095D01*
X96670761Y-135834476D01*
X96718380Y-135739238D01*
X96718380Y-135548761D01*
X96670761Y-135453523D01*
X96623142Y-135405904D01*
X96527904Y-135358285D01*
X96289809Y-135358285D01*
X96194571Y-135405904D01*
X96146952Y-135453523D01*
X96099333Y-135548761D01*
X96099333Y-135739238D01*
X96146952Y-135834476D01*
X96194571Y-135882095D01*
X96289809Y-135929714D01*
X102195333Y-146534142D02*
X102147714Y-146581761D01*
X102004857Y-146629380D01*
X101909619Y-146629380D01*
X101766761Y-146581761D01*
X101671523Y-146486523D01*
X101623904Y-146391285D01*
X101576285Y-146200809D01*
X101576285Y-146057952D01*
X101623904Y-145867476D01*
X101671523Y-145772238D01*
X101766761Y-145677000D01*
X101909619Y-145629380D01*
X102004857Y-145629380D01*
X102147714Y-145677000D01*
X102195333Y-145724619D01*
X102576285Y-145724619D02*
X102623904Y-145677000D01*
X102719142Y-145629380D01*
X102957238Y-145629380D01*
X103052476Y-145677000D01*
X103100095Y-145724619D01*
X103147714Y-145819857D01*
X103147714Y-145915095D01*
X103100095Y-146057952D01*
X102528666Y-146629380D01*
X103147714Y-146629380D01*
X104227333Y-137485380D02*
X103894000Y-137009190D01*
X103655904Y-137485380D02*
X103655904Y-136485380D01*
X104036857Y-136485380D01*
X104132095Y-136533000D01*
X104179714Y-136580619D01*
X104227333Y-136675857D01*
X104227333Y-136818714D01*
X104179714Y-136913952D01*
X104132095Y-136961571D01*
X104036857Y-137009190D01*
X103655904Y-137009190D01*
X105132095Y-136485380D02*
X104655904Y-136485380D01*
X104608285Y-136961571D01*
X104655904Y-136913952D01*
X104751142Y-136866333D01*
X104989238Y-136866333D01*
X105084476Y-136913952D01*
X105132095Y-136961571D01*
X105179714Y-137056809D01*
X105179714Y-137294904D01*
X105132095Y-137390142D01*
X105084476Y-137437761D01*
X104989238Y-137485380D01*
X104751142Y-137485380D01*
X104655904Y-137437761D01*
X104608285Y-137390142D01*
X98004333Y-132912142D02*
X97956714Y-132959761D01*
X97813857Y-133007380D01*
X97718619Y-133007380D01*
X97575761Y-132959761D01*
X97480523Y-132864523D01*
X97432904Y-132769285D01*
X97385285Y-132578809D01*
X97385285Y-132435952D01*
X97432904Y-132245476D01*
X97480523Y-132150238D01*
X97575761Y-132055000D01*
X97718619Y-132007380D01*
X97813857Y-132007380D01*
X97956714Y-132055000D01*
X98004333Y-132102619D01*
X98861476Y-132007380D02*
X98671000Y-132007380D01*
X98575761Y-132055000D01*
X98528142Y-132102619D01*
X98432904Y-132245476D01*
X98385285Y-132435952D01*
X98385285Y-132816904D01*
X98432904Y-132912142D01*
X98480523Y-132959761D01*
X98575761Y-133007380D01*
X98766238Y-133007380D01*
X98861476Y-132959761D01*
X98909095Y-132912142D01*
X98956714Y-132816904D01*
X98956714Y-132578809D01*
X98909095Y-132483571D01*
X98861476Y-132435952D01*
X98766238Y-132388333D01*
X98575761Y-132388333D01*
X98480523Y-132435952D01*
X98432904Y-132483571D01*
X98385285Y-132578809D01*
X131913333Y-132691142D02*
X131865714Y-132738761D01*
X131722857Y-132786380D01*
X131627619Y-132786380D01*
X131484761Y-132738761D01*
X131389523Y-132643523D01*
X131341904Y-132548285D01*
X131294285Y-132357809D01*
X131294285Y-132214952D01*
X131341904Y-132024476D01*
X131389523Y-131929238D01*
X131484761Y-131834000D01*
X131627619Y-131786380D01*
X131722857Y-131786380D01*
X131865714Y-131834000D01*
X131913333Y-131881619D01*
X132865714Y-132786380D02*
X132294285Y-132786380D01*
X132580000Y-132786380D02*
X132580000Y-131786380D01*
X132484761Y-131929238D01*
X132389523Y-132024476D01*
X132294285Y-132072095D01*
X112149095Y-131748380D02*
X112720523Y-131748380D01*
X112434809Y-132748380D02*
X112434809Y-131748380D01*
X113053857Y-132748380D02*
X113053857Y-131748380D01*
X113434809Y-131748380D01*
X113530047Y-131796000D01*
X113577666Y-131843619D01*
X113625285Y-131938857D01*
X113625285Y-132081714D01*
X113577666Y-132176952D01*
X113530047Y-132224571D01*
X113434809Y-132272190D01*
X113053857Y-132272190D01*
X114006238Y-131843619D02*
X114053857Y-131796000D01*
X114149095Y-131748380D01*
X114387190Y-131748380D01*
X114482428Y-131796000D01*
X114530047Y-131843619D01*
X114577666Y-131938857D01*
X114577666Y-132034095D01*
X114530047Y-132176952D01*
X113958619Y-132748380D01*
X114577666Y-132748380D01*
X127328333Y-132785142D02*
X127280714Y-132832761D01*
X127137857Y-132880380D01*
X127042619Y-132880380D01*
X126899761Y-132832761D01*
X126804523Y-132737523D01*
X126756904Y-132642285D01*
X126709285Y-132451809D01*
X126709285Y-132308952D01*
X126756904Y-132118476D01*
X126804523Y-132023238D01*
X126899761Y-131928000D01*
X127042619Y-131880380D01*
X127137857Y-131880380D01*
X127280714Y-131928000D01*
X127328333Y-131975619D01*
X127661666Y-131880380D02*
X128280714Y-131880380D01*
X127947380Y-132261333D01*
X128090238Y-132261333D01*
X128185476Y-132308952D01*
X128233095Y-132356571D01*
X128280714Y-132451809D01*
X128280714Y-132689904D01*
X128233095Y-132785142D01*
X128185476Y-132832761D01*
X128090238Y-132880380D01*
X127804523Y-132880380D01*
X127709285Y-132832761D01*
X127661666Y-132785142D01*
X100417333Y-134469142D02*
X100369714Y-134516761D01*
X100226857Y-134564380D01*
X100131619Y-134564380D01*
X99988761Y-134516761D01*
X99893523Y-134421523D01*
X99845904Y-134326285D01*
X99798285Y-134135809D01*
X99798285Y-133992952D01*
X99845904Y-133802476D01*
X99893523Y-133707238D01*
X99988761Y-133612000D01*
X100131619Y-133564380D01*
X100226857Y-133564380D01*
X100369714Y-133612000D01*
X100417333Y-133659619D01*
X100988761Y-133992952D02*
X100893523Y-133945333D01*
X100845904Y-133897714D01*
X100798285Y-133802476D01*
X100798285Y-133754857D01*
X100845904Y-133659619D01*
X100893523Y-133612000D01*
X100988761Y-133564380D01*
X101179238Y-133564380D01*
X101274476Y-133612000D01*
X101322095Y-133659619D01*
X101369714Y-133754857D01*
X101369714Y-133802476D01*
X101322095Y-133897714D01*
X101274476Y-133945333D01*
X101179238Y-133992952D01*
X100988761Y-133992952D01*
X100893523Y-134040571D01*
X100845904Y-134088190D01*
X100798285Y-134183428D01*
X100798285Y-134373904D01*
X100845904Y-134469142D01*
X100893523Y-134516761D01*
X100988761Y-134564380D01*
X101179238Y-134564380D01*
X101274476Y-134516761D01*
X101322095Y-134469142D01*
X101369714Y-134373904D01*
X101369714Y-134183428D01*
X101322095Y-134088190D01*
X101274476Y-134040571D01*
X101179238Y-133992952D01*
X98425095Y-150049380D02*
X98425095Y-149049380D01*
X98425095Y-149525571D02*
X98996523Y-149525571D01*
X98996523Y-150049380D02*
X98996523Y-149049380D01*
X99996523Y-150049380D02*
X99425095Y-150049380D01*
X99710809Y-150049380D02*
X99710809Y-149049380D01*
X99615571Y-149192238D01*
X99520333Y-149287476D01*
X99425095Y-149335095D01*
X102576333Y-132945142D02*
X102528714Y-132992761D01*
X102385857Y-133040380D01*
X102290619Y-133040380D01*
X102147761Y-132992761D01*
X102052523Y-132897523D01*
X102004904Y-132802285D01*
X101957285Y-132611809D01*
X101957285Y-132468952D01*
X102004904Y-132278476D01*
X102052523Y-132183238D01*
X102147761Y-132088000D01*
X102290619Y-132040380D01*
X102385857Y-132040380D01*
X102528714Y-132088000D01*
X102576333Y-132135619D01*
X102909666Y-132040380D02*
X103576333Y-132040380D01*
X103147761Y-133040380D01*
X136048761Y-133770619D02*
X135953523Y-133723000D01*
X135858285Y-133627761D01*
X135715428Y-133484904D01*
X135620190Y-133437285D01*
X135524952Y-133437285D01*
X135572571Y-133675380D02*
X135477333Y-133627761D01*
X135382095Y-133532523D01*
X135334476Y-133342047D01*
X135334476Y-133008714D01*
X135382095Y-132818238D01*
X135477333Y-132723000D01*
X135572571Y-132675380D01*
X135763047Y-132675380D01*
X135858285Y-132723000D01*
X135953523Y-132818238D01*
X136001142Y-133008714D01*
X136001142Y-133342047D01*
X135953523Y-133532523D01*
X135858285Y-133627761D01*
X135763047Y-133675380D01*
X135572571Y-133675380D01*
X136953523Y-133675380D02*
X136382095Y-133675380D01*
X136667809Y-133675380D02*
X136667809Y-132675380D01*
X136572571Y-132818238D01*
X136477333Y-132913476D01*
X136382095Y-132961095D01*
X96313666Y-131278380D02*
X96313666Y-131992666D01*
X96266047Y-132135523D01*
X96170809Y-132230761D01*
X96027952Y-132278380D01*
X95932714Y-132278380D01*
X96694619Y-131278380D02*
X97313666Y-131278380D01*
X96980333Y-131659333D01*
X97123190Y-131659333D01*
X97218428Y-131706952D01*
X97266047Y-131754571D01*
X97313666Y-131849809D01*
X97313666Y-132087904D01*
X97266047Y-132183142D01*
X97218428Y-132230761D01*
X97123190Y-132278380D01*
X96837476Y-132278380D01*
X96742238Y-132230761D01*
X96694619Y-132183142D01*
X108212095Y-138517380D02*
X108783523Y-138517380D01*
X108497809Y-139517380D02*
X108497809Y-138517380D01*
X109116857Y-139517380D02*
X109116857Y-138517380D01*
X109497809Y-138517380D01*
X109593047Y-138565000D01*
X109640666Y-138612619D01*
X109688285Y-138707857D01*
X109688285Y-138850714D01*
X109640666Y-138945952D01*
X109593047Y-138993571D01*
X109497809Y-139041190D01*
X109116857Y-139041190D01*
X110640666Y-139517380D02*
X110069238Y-139517380D01*
X110354952Y-139517380D02*
X110354952Y-138517380D01*
X110259714Y-138660238D01*
X110164476Y-138755476D01*
X110069238Y-138803095D01*
X133437333Y-137485380D02*
X133104000Y-137009190D01*
X132865904Y-137485380D02*
X132865904Y-136485380D01*
X133246857Y-136485380D01*
X133342095Y-136533000D01*
X133389714Y-136580619D01*
X133437333Y-136675857D01*
X133437333Y-136818714D01*
X133389714Y-136913952D01*
X133342095Y-136961571D01*
X133246857Y-137009190D01*
X132865904Y-137009190D01*
X133818285Y-136580619D02*
X133865904Y-136533000D01*
X133961142Y-136485380D01*
X134199238Y-136485380D01*
X134294476Y-136533000D01*
X134342095Y-136580619D01*
X134389714Y-136675857D01*
X134389714Y-136771095D01*
X134342095Y-136913952D01*
X133770666Y-137485380D01*
X134389714Y-137485380D01*
X137588666Y-131278380D02*
X137588666Y-131992666D01*
X137541047Y-132135523D01*
X137445809Y-132230761D01*
X137302952Y-132278380D01*
X137207714Y-132278380D01*
X138017238Y-131373619D02*
X138064857Y-131326000D01*
X138160095Y-131278380D01*
X138398190Y-131278380D01*
X138493428Y-131326000D01*
X138541047Y-131373619D01*
X138588666Y-131468857D01*
X138588666Y-131564095D01*
X138541047Y-131706952D01*
X137969619Y-132278380D01*
X138588666Y-132278380D01*
X115324095Y-131748380D02*
X115895523Y-131748380D01*
X115609809Y-132748380D02*
X115609809Y-131748380D01*
X116228857Y-132748380D02*
X116228857Y-131748380D01*
X116609809Y-131748380D01*
X116705047Y-131796000D01*
X116752666Y-131843619D01*
X116800285Y-131938857D01*
X116800285Y-132081714D01*
X116752666Y-132176952D01*
X116705047Y-132224571D01*
X116609809Y-132272190D01*
X116228857Y-132272190D01*
X117657428Y-132081714D02*
X117657428Y-132748380D01*
X117419333Y-131700761D02*
X117181238Y-132415047D01*
X117800285Y-132415047D01*
X107600761Y-133770619D02*
X107505523Y-133723000D01*
X107410285Y-133627761D01*
X107267428Y-133484904D01*
X107172190Y-133437285D01*
X107076952Y-133437285D01*
X107124571Y-133675380D02*
X107029333Y-133627761D01*
X106934095Y-133532523D01*
X106886476Y-133342047D01*
X106886476Y-133008714D01*
X106934095Y-132818238D01*
X107029333Y-132723000D01*
X107124571Y-132675380D01*
X107315047Y-132675380D01*
X107410285Y-132723000D01*
X107505523Y-132818238D01*
X107553142Y-133008714D01*
X107553142Y-133342047D01*
X107505523Y-133532523D01*
X107410285Y-133627761D01*
X107315047Y-133675380D01*
X107124571Y-133675380D01*
X107934095Y-132770619D02*
X107981714Y-132723000D01*
X108076952Y-132675380D01*
X108315047Y-132675380D01*
X108410285Y-132723000D01*
X108457904Y-132770619D01*
X108505523Y-132865857D01*
X108505523Y-132961095D01*
X108457904Y-133103952D01*
X107886476Y-133675380D01*
X108505523Y-133675380D01*
X134199333Y-134310380D02*
X133866000Y-133834190D01*
X133627904Y-134310380D02*
X133627904Y-133310380D01*
X134008857Y-133310380D01*
X134104095Y-133358000D01*
X134151714Y-133405619D01*
X134199333Y-133500857D01*
X134199333Y-133643714D01*
X134151714Y-133738952D01*
X134104095Y-133786571D01*
X134008857Y-133834190D01*
X133627904Y-133834190D01*
X135151714Y-134310380D02*
X134580285Y-134310380D01*
X134866000Y-134310380D02*
X134866000Y-133310380D01*
X134770761Y-133453238D01*
X134675523Y-133548476D01*
X134580285Y-133596095D01*
X114181095Y-138390380D02*
X114752523Y-138390380D01*
X114466809Y-139390380D02*
X114466809Y-138390380D01*
X115085857Y-139390380D02*
X115085857Y-138390380D01*
X115466809Y-138390380D01*
X115562047Y-138438000D01*
X115609666Y-138485619D01*
X115657285Y-138580857D01*
X115657285Y-138723714D01*
X115609666Y-138818952D01*
X115562047Y-138866571D01*
X115466809Y-138914190D01*
X115085857Y-138914190D01*
X116562047Y-138390380D02*
X116085857Y-138390380D01*
X116038238Y-138866571D01*
X116085857Y-138818952D01*
X116181095Y-138771333D01*
X116419190Y-138771333D01*
X116514428Y-138818952D01*
X116562047Y-138866571D01*
X116609666Y-138961809D01*
X116609666Y-139199904D01*
X116562047Y-139295142D01*
X116514428Y-139342761D01*
X116419190Y-139390380D01*
X116181095Y-139390380D01*
X116085857Y-139342761D01*
X116038238Y-139295142D01*
X116756166Y-157462380D02*
X116756166Y-158176666D01*
X116708547Y-158319523D01*
X116613309Y-158414761D01*
X116470452Y-158462380D01*
X116375214Y-158462380D01*
X117756166Y-158462380D02*
X117184738Y-158462380D01*
X117470452Y-158462380D02*
X117470452Y-157462380D01*
X117375214Y-157605238D01*
X117279976Y-157700476D01*
X117184738Y-157748095D01*
X105116333Y-134564380D02*
X104783000Y-134088190D01*
X104544904Y-134564380D02*
X104544904Y-133564380D01*
X104925857Y-133564380D01*
X105021095Y-133612000D01*
X105068714Y-133659619D01*
X105116333Y-133754857D01*
X105116333Y-133897714D01*
X105068714Y-133992952D01*
X105021095Y-134040571D01*
X104925857Y-134088190D01*
X104544904Y-134088190D01*
X105973476Y-133897714D02*
X105973476Y-134564380D01*
X105735380Y-133516761D02*
X105497285Y-134231047D01*
X106116333Y-134231047D01*
X122690095Y-138390380D02*
X123261523Y-138390380D01*
X122975809Y-139390380D02*
X122975809Y-138390380D01*
X123594857Y-139390380D02*
X123594857Y-138390380D01*
X123975809Y-138390380D01*
X124071047Y-138438000D01*
X124118666Y-138485619D01*
X124166285Y-138580857D01*
X124166285Y-138723714D01*
X124118666Y-138818952D01*
X124071047Y-138866571D01*
X123975809Y-138914190D01*
X123594857Y-138914190D01*
X124499619Y-138390380D02*
X125166285Y-138390380D01*
X124737714Y-139390380D01*
X134747095Y-150049380D02*
X134747095Y-149049380D01*
X134747095Y-149525571D02*
X135318523Y-149525571D01*
X135318523Y-150049380D02*
X135318523Y-149049380D01*
X135747095Y-149144619D02*
X135794714Y-149097000D01*
X135889952Y-149049380D01*
X136128047Y-149049380D01*
X136223285Y-149097000D01*
X136270904Y-149144619D01*
X136318523Y-149239857D01*
X136318523Y-149335095D01*
X136270904Y-149477952D01*
X135699476Y-150049380D01*
X136318523Y-150049380D01*
X129627333Y-134215142D02*
X129579714Y-134262761D01*
X129436857Y-134310380D01*
X129341619Y-134310380D01*
X129198761Y-134262761D01*
X129103523Y-134167523D01*
X129055904Y-134072285D01*
X129008285Y-133881809D01*
X129008285Y-133738952D01*
X129055904Y-133548476D01*
X129103523Y-133453238D01*
X129198761Y-133358000D01*
X129341619Y-133310380D01*
X129436857Y-133310380D01*
X129579714Y-133358000D01*
X129627333Y-133405619D01*
X130484476Y-133643714D02*
X130484476Y-134310380D01*
X130246380Y-133262761D02*
X130008285Y-133977047D01*
X130627333Y-133977047D01*
X116586095Y-116013380D02*
X116586095Y-115013380D01*
X116586095Y-115489571D02*
X117157523Y-115489571D01*
X117157523Y-116013380D02*
X117157523Y-115013380D01*
X117538476Y-115013380D02*
X118157523Y-115013380D01*
X117824190Y-115394333D01*
X117967047Y-115394333D01*
X118062285Y-115441952D01*
X118109904Y-115489571D01*
X118157523Y-115584809D01*
X118157523Y-115822904D01*
X118109904Y-115918142D01*
X118062285Y-115965761D01*
X117967047Y-116013380D01*
X117681333Y-116013380D01*
X117586095Y-115965761D01*
X117538476Y-115918142D01*
X125674380Y-136137408D02*
X125198190Y-136470742D01*
X125674380Y-136708837D02*
X124674380Y-136708837D01*
X124674380Y-136327884D01*
X124722000Y-136232646D01*
X124769619Y-136185027D01*
X124864857Y-136137408D01*
X125007714Y-136137408D01*
X125102952Y-136185027D01*
X125150571Y-136232646D01*
X125198190Y-136327884D01*
X125198190Y-136708837D01*
X124674380Y-135804075D02*
X124674380Y-135185027D01*
X125055333Y-135518361D01*
X125055333Y-135375503D01*
X125102952Y-135280265D01*
X125150571Y-135232646D01*
X125245809Y-135185027D01*
X125483904Y-135185027D01*
X125579142Y-135232646D01*
X125626761Y-135280265D01*
X125674380Y-135375503D01*
X125674380Y-135661218D01*
X125626761Y-135756456D01*
X125579142Y-135804075D01*
X124206000Y-134366000D02*
G75*
G03*
X124206000Y-134366000I-1270000J0D01*
G01*
D11*
X96921000Y-141605000D02*
X96921000Y-139655000D01*
X96921000Y-141605000D02*
X96921000Y-143555000D01*
X107041000Y-141605000D02*
X107041000Y-143555000D01*
X107041000Y-141605000D02*
X107041000Y-138155000D01*
X134252580Y-146687000D02*
X133971420Y-146687000D01*
X134252580Y-145667000D02*
X133971420Y-145667000D01*
X126131000Y-141605000D02*
X126131000Y-143555000D01*
X126131000Y-141605000D02*
X126131000Y-139655000D01*
X136251000Y-141605000D02*
X136251000Y-138155000D01*
X136251000Y-141605000D02*
X136251000Y-143555000D01*
X97013500Y-136033742D02*
X97013500Y-136508258D01*
X98058500Y-136033742D02*
X98058500Y-136508258D01*
X105042580Y-146687000D02*
X104761420Y-146687000D01*
X105042580Y-145667000D02*
X104761420Y-145667000D01*
X102218258Y-136510500D02*
X101743742Y-136510500D01*
X102218258Y-137555500D02*
X101743742Y-137555500D01*
X98030420Y-134495000D02*
X98311580Y-134495000D01*
X98030420Y-133475000D02*
X98311580Y-133475000D01*
X132093580Y-134241000D02*
X131812420Y-134241000D01*
X132093580Y-133221000D02*
X131812420Y-133221000D01*
D10*
X114681000Y-134366000D02*
G75*
G03*
X114681000Y-134366000I-1270000J0D01*
G01*
D11*
X127354420Y-133348000D02*
X127635580Y-133348000D01*
X127354420Y-134368000D02*
X127635580Y-134368000D01*
X100724580Y-136019000D02*
X100443420Y-136019000D01*
X100724580Y-134999000D02*
X100443420Y-134999000D01*
X102883580Y-133475000D02*
X102602420Y-133475000D01*
X102883580Y-134495000D02*
X102602420Y-134495000D01*
X137704000Y-135890000D02*
X137704000Y-136540000D01*
X137704000Y-135890000D02*
X137704000Y-135240000D01*
X134584000Y-135890000D02*
X134584000Y-135240000D01*
X134584000Y-135890000D02*
X134584000Y-137565000D01*
X116586000Y-130937000D02*
X116586000Y-123317000D01*
X96266000Y-123317000D02*
X96266000Y-130937000D01*
X116586000Y-130937000D02*
X96266000Y-130937000D01*
X96266000Y-124587000D02*
X116586000Y-124587000D01*
X116586000Y-123317000D02*
X96266000Y-123317000D01*
D10*
X113157000Y-138049000D02*
G75*
G03*
X113157000Y-138049000I-1270000J0D01*
G01*
D11*
X131428258Y-137555500D02*
X130953742Y-137555500D01*
X131428258Y-136510500D02*
X130953742Y-136510500D01*
X118237000Y-124587000D02*
X138557000Y-124587000D01*
X138557000Y-130937000D02*
X118237000Y-130937000D01*
X138557000Y-123317000D02*
X118237000Y-123317000D01*
X118237000Y-123317000D02*
X118237000Y-130937000D01*
X138557000Y-130937000D02*
X138557000Y-123317000D01*
D10*
X117856000Y-134366000D02*
G75*
G03*
X117856000Y-134366000I-1270000J0D01*
G01*
D11*
X108494000Y-135890000D02*
X108494000Y-136540000D01*
X108494000Y-135890000D02*
X108494000Y-135240000D01*
X105374000Y-135890000D02*
X105374000Y-135240000D01*
X105374000Y-135890000D02*
X105374000Y-137565000D01*
X133142258Y-134859500D02*
X132667742Y-134859500D01*
X133142258Y-135904500D02*
X132667742Y-135904500D01*
D10*
X119380000Y-138049000D02*
G75*
G03*
X119380000Y-138049000I-1270000J0D01*
G01*
D11*
X108639500Y-144510000D02*
X109139500Y-144010000D01*
X124939500Y-140220000D02*
X109219500Y-140220000D01*
X108639500Y-143510000D02*
X108639500Y-144510000D01*
X109139500Y-144010000D02*
X108639500Y-143510000D01*
X124949500Y-156960000D02*
X109219500Y-156960000D01*
X124949500Y-140220000D02*
X124949500Y-156960000D01*
X109219500Y-140220000D02*
X109219500Y-156960000D01*
X103869258Y-136031500D02*
X103394742Y-136031500D01*
X103869258Y-134986500D02*
X103394742Y-134986500D01*
D10*
X122428000Y-138049000D02*
G75*
G03*
X122428000Y-138049000I-1270000J0D01*
G01*
D11*
X129934580Y-135892000D02*
X129653420Y-135892000D01*
X129934580Y-134872000D02*
X129653420Y-134872000D01*
X126223500Y-135970742D02*
X126223500Y-136445258D01*
X127268500Y-135970742D02*
X127268500Y-136445258D01*
D12*
X111369500Y-150360000D03*
X122799500Y-150360000D03*
%LPC*%
D13*
X122936000Y-134366000D03*
D14*
X106426000Y-139130000D03*
X105156000Y-139130000D03*
X103886000Y-139130000D03*
X102616000Y-139130000D03*
X101346000Y-139130000D03*
X100076000Y-139130000D03*
X98806000Y-139130000D03*
X97536000Y-139130000D03*
X97536000Y-144080000D03*
X98806000Y-144080000D03*
X100076000Y-144080000D03*
X101346000Y-144080000D03*
X102616000Y-144080000D03*
X103886000Y-144080000D03*
X105156000Y-144080000D03*
X106426000Y-144080000D03*
D15*
X134887000Y-146177000D03*
X133337000Y-146177000D03*
D14*
X135636000Y-139130000D03*
X134366000Y-139130000D03*
X133096000Y-139130000D03*
X131826000Y-139130000D03*
X130556000Y-139130000D03*
X129286000Y-139130000D03*
X128016000Y-139130000D03*
X126746000Y-139130000D03*
X126746000Y-144080000D03*
X128016000Y-144080000D03*
X129286000Y-144080000D03*
X130556000Y-144080000D03*
X131826000Y-144080000D03*
X133096000Y-144080000D03*
X134366000Y-144080000D03*
X135636000Y-144080000D03*
D16*
X97536000Y-135446000D03*
X97536000Y-137096000D03*
D15*
X105677000Y-146177000D03*
X104127000Y-146177000D03*
D17*
X102806000Y-137033000D03*
X101156000Y-137033000D03*
D18*
X97396000Y-133985000D03*
X98946000Y-133985000D03*
D15*
X132728000Y-133731000D03*
X131178000Y-133731000D03*
D13*
X113411000Y-134366000D03*
D18*
X126720000Y-133858000D03*
X128270000Y-133858000D03*
D15*
X101359000Y-135509000D03*
X99809000Y-135509000D03*
D19*
X99187000Y-153797000D03*
D15*
X103518000Y-133985000D03*
X101968000Y-133985000D03*
D20*
X135194000Y-136827500D03*
X137094000Y-136827500D03*
X136144000Y-134952500D03*
D21*
X114046000Y-127127000D03*
D22*
X108966000Y-127127000D03*
X103886000Y-127127000D03*
X98806000Y-127127000D03*
D13*
X111887000Y-138049000D03*
D17*
X132016000Y-137033000D03*
X130366000Y-137033000D03*
D21*
X136017000Y-127127000D03*
D22*
X130937000Y-127127000D03*
X125857000Y-127127000D03*
X120777000Y-127127000D03*
D13*
X116586000Y-134366000D03*
D20*
X105984000Y-136827500D03*
X107884000Y-136827500D03*
X106934000Y-134952500D03*
D17*
X133730000Y-135382000D03*
X132080000Y-135382000D03*
D13*
X118110000Y-138049000D03*
D12*
X111369500Y-150360000D03*
X122799500Y-150360000D03*
D23*
X112639500Y-144010000D03*
D24*
X113909500Y-141470000D03*
X115179500Y-144010000D03*
X116449500Y-141470000D03*
X117719500Y-144010000D03*
X118989500Y-141470000D03*
X120259500Y-144010000D03*
X121529500Y-141470000D03*
D17*
X104457000Y-135509000D03*
X102807000Y-135509000D03*
D13*
X121158000Y-138049000D03*
D19*
X135509000Y-153797000D03*
D15*
X130569000Y-135382000D03*
X129019000Y-135382000D03*
D19*
X117348000Y-119761000D03*
D16*
X126746000Y-135383000D03*
X126746000Y-137033000D03*
M02*
