G04 #@! TF.GenerationSoftware,KiCad,Pcbnew,(6.0.0)*
G04 #@! TF.CreationDate,2022-08-05T10:14:30-07:00*
G04 #@! TF.ProjectId,strain_guage,73747261-696e-45f6-9775-6167652e6b69,rev?*
G04 #@! TF.SameCoordinates,Original*
G04 #@! TF.FileFunction,Copper,L2,Bot*
G04 #@! TF.FilePolarity,Positive*
%FSLAX46Y46*%
G04 Gerber Fmt 4.6, Leading zero omitted, Abs format (unit mm)*
G04 Created by KiCad (PCBNEW (6.0.0)) date 2022-08-05 10:14:30*
%MOMM*%
%LPD*%
G01*
G04 APERTURE LIST*
G04 #@! TA.AperFunction,ComponentPad*
%ADD10C,1.651000*%
G04 #@! TD*
G04 #@! TA.AperFunction,ComponentPad*
%ADD11R,3.000000X3.000000*%
G04 #@! TD*
G04 #@! TA.AperFunction,ComponentPad*
%ADD12C,3.000000*%
G04 #@! TD*
G04 #@! TA.AperFunction,WasherPad*
%ADD13C,3.650000*%
G04 #@! TD*
G04 #@! TA.AperFunction,ComponentPad*
%ADD14R,1.500000X1.500000*%
G04 #@! TD*
G04 #@! TA.AperFunction,ComponentPad*
%ADD15C,1.500000*%
G04 #@! TD*
G04 #@! TA.AperFunction,ViaPad*
%ADD16C,0.800000*%
G04 #@! TD*
G04 APERTURE END LIST*
D10*
X122936000Y-134366000D03*
X113411000Y-134366000D03*
D11*
X114046000Y-127127000D03*
D12*
X108966000Y-127127000D03*
X103886000Y-127127000D03*
X98806000Y-127127000D03*
D10*
X111887000Y-138049000D03*
D11*
X136017000Y-127127000D03*
D12*
X130937000Y-127127000D03*
X125857000Y-127127000D03*
X120777000Y-127127000D03*
D10*
X116586000Y-134366000D03*
X118110000Y-138049000D03*
D13*
X111369500Y-150360000D03*
X122799500Y-150360000D03*
D14*
X112639500Y-144010000D03*
D15*
X113909500Y-141470000D03*
X115179500Y-144010000D03*
X116449500Y-141470000D03*
X117719500Y-144010000D03*
X118989500Y-141470000D03*
X120259500Y-144010000D03*
X121529500Y-141470000D03*
D10*
X121158000Y-138049000D03*
D16*
X136779000Y-117729000D03*
X133096000Y-141605000D03*
G04 #@! TA.AperFunction,Conductor*
G36*
X138499121Y-116479002D02*
G01*
X138545614Y-116532658D01*
X138557000Y-116585000D01*
X138557000Y-156719000D01*
X138536998Y-156787121D01*
X138483342Y-156833614D01*
X138431000Y-156845000D01*
X96265000Y-156845000D01*
X96196879Y-156824998D01*
X96150386Y-156771342D01*
X96139000Y-156719000D01*
X96139000Y-153929703D01*
X97077743Y-153929703D01*
X97115268Y-154214734D01*
X97191129Y-154492036D01*
X97303923Y-154756476D01*
X97451561Y-155003161D01*
X97631313Y-155227528D01*
X97839851Y-155425423D01*
X98073317Y-155593186D01*
X98077112Y-155595195D01*
X98077113Y-155595196D01*
X98098869Y-155606715D01*
X98327392Y-155727712D01*
X98597373Y-155826511D01*
X98878264Y-155887755D01*
X98906841Y-155890004D01*
X99101282Y-155905307D01*
X99101291Y-155905307D01*
X99103739Y-155905500D01*
X99259271Y-155905500D01*
X99261407Y-155905354D01*
X99261418Y-155905354D01*
X99469548Y-155891165D01*
X99469554Y-155891164D01*
X99473825Y-155890873D01*
X99478020Y-155890004D01*
X99478022Y-155890004D01*
X99614584Y-155861723D01*
X99755342Y-155832574D01*
X100026343Y-155736607D01*
X100281812Y-155604750D01*
X100285313Y-155602289D01*
X100285317Y-155602287D01*
X100399418Y-155522095D01*
X100517023Y-155439441D01*
X100727622Y-155243740D01*
X100909713Y-155021268D01*
X101059927Y-154776142D01*
X101175483Y-154512898D01*
X101254244Y-154236406D01*
X101294751Y-153951784D01*
X101294845Y-153933951D01*
X101294867Y-153929703D01*
X133399743Y-153929703D01*
X133437268Y-154214734D01*
X133513129Y-154492036D01*
X133625923Y-154756476D01*
X133773561Y-155003161D01*
X133953313Y-155227528D01*
X134161851Y-155425423D01*
X134395317Y-155593186D01*
X134399112Y-155595195D01*
X134399113Y-155595196D01*
X134420869Y-155606715D01*
X134649392Y-155727712D01*
X134919373Y-155826511D01*
X135200264Y-155887755D01*
X135228841Y-155890004D01*
X135423282Y-155905307D01*
X135423291Y-155905307D01*
X135425739Y-155905500D01*
X135581271Y-155905500D01*
X135583407Y-155905354D01*
X135583418Y-155905354D01*
X135791548Y-155891165D01*
X135791554Y-155891164D01*
X135795825Y-155890873D01*
X135800020Y-155890004D01*
X135800022Y-155890004D01*
X135936584Y-155861723D01*
X136077342Y-155832574D01*
X136348343Y-155736607D01*
X136603812Y-155604750D01*
X136607313Y-155602289D01*
X136607317Y-155602287D01*
X136721418Y-155522095D01*
X136839023Y-155439441D01*
X137049622Y-155243740D01*
X137231713Y-155021268D01*
X137381927Y-154776142D01*
X137497483Y-154512898D01*
X137576244Y-154236406D01*
X137616751Y-153951784D01*
X137616845Y-153933951D01*
X137618235Y-153668583D01*
X137618235Y-153668576D01*
X137618257Y-153664297D01*
X137580732Y-153379266D01*
X137504871Y-153101964D01*
X137392077Y-152837524D01*
X137244439Y-152590839D01*
X137064687Y-152366472D01*
X136856149Y-152168577D01*
X136622683Y-152000814D01*
X136600843Y-151989250D01*
X136577654Y-151976972D01*
X136368608Y-151866288D01*
X136233617Y-151816888D01*
X136102658Y-151768964D01*
X136102656Y-151768963D01*
X136098627Y-151767489D01*
X135817736Y-151706245D01*
X135786685Y-151703801D01*
X135594718Y-151688693D01*
X135594709Y-151688693D01*
X135592261Y-151688500D01*
X135436729Y-151688500D01*
X135434593Y-151688646D01*
X135434582Y-151688646D01*
X135226452Y-151702835D01*
X135226446Y-151702836D01*
X135222175Y-151703127D01*
X135217980Y-151703996D01*
X135217978Y-151703996D01*
X135081417Y-151732276D01*
X134940658Y-151761426D01*
X134669657Y-151857393D01*
X134414188Y-151989250D01*
X134410687Y-151991711D01*
X134410683Y-151991713D01*
X134379578Y-152013574D01*
X134178977Y-152154559D01*
X133968378Y-152350260D01*
X133786287Y-152572732D01*
X133636073Y-152817858D01*
X133520517Y-153081102D01*
X133441756Y-153357594D01*
X133401249Y-153642216D01*
X133401227Y-153646505D01*
X133401226Y-153646512D01*
X133399765Y-153925417D01*
X133399743Y-153929703D01*
X101294867Y-153929703D01*
X101296235Y-153668583D01*
X101296235Y-153668576D01*
X101296257Y-153664297D01*
X101258732Y-153379266D01*
X101182871Y-153101964D01*
X101070077Y-152837524D01*
X100922439Y-152590839D01*
X100742687Y-152366472D01*
X100534149Y-152168577D01*
X100300683Y-152000814D01*
X100278843Y-151989250D01*
X100255654Y-151976972D01*
X100046608Y-151866288D01*
X99911617Y-151816888D01*
X99780658Y-151768964D01*
X99780656Y-151768963D01*
X99776627Y-151767489D01*
X99495736Y-151706245D01*
X99464685Y-151703801D01*
X99272718Y-151688693D01*
X99272709Y-151688693D01*
X99270261Y-151688500D01*
X99114729Y-151688500D01*
X99112593Y-151688646D01*
X99112582Y-151688646D01*
X98904452Y-151702835D01*
X98904446Y-151702836D01*
X98900175Y-151703127D01*
X98895980Y-151703996D01*
X98895978Y-151703996D01*
X98759417Y-151732276D01*
X98618658Y-151761426D01*
X98347657Y-151857393D01*
X98092188Y-151989250D01*
X98088687Y-151991711D01*
X98088683Y-151991713D01*
X98057578Y-152013574D01*
X97856977Y-152154559D01*
X97646378Y-152350260D01*
X97464287Y-152572732D01*
X97314073Y-152817858D01*
X97198517Y-153081102D01*
X97119756Y-153357594D01*
X97079249Y-153642216D01*
X97079227Y-153646505D01*
X97079226Y-153646512D01*
X97077765Y-153925417D01*
X97077743Y-153929703D01*
X96139000Y-153929703D01*
X96139000Y-150360000D01*
X109030993Y-150360000D01*
X109050999Y-150665236D01*
X109110676Y-150965250D01*
X109209001Y-151254908D01*
X109210824Y-151258604D01*
X109210827Y-151258612D01*
X109319603Y-151479184D01*
X109344294Y-151529253D01*
X109514238Y-151783593D01*
X109516952Y-151786687D01*
X109516956Y-151786693D01*
X109588523Y-151868299D01*
X109715926Y-152013574D01*
X109719015Y-152016283D01*
X109942807Y-152212544D01*
X109942813Y-152212548D01*
X109945907Y-152215262D01*
X109949333Y-152217551D01*
X109949338Y-152217555D01*
X110177210Y-152369814D01*
X110200246Y-152385206D01*
X110203949Y-152387032D01*
X110470888Y-152518673D01*
X110470896Y-152518676D01*
X110474592Y-152520499D01*
X110478506Y-152521828D01*
X110478507Y-152521828D01*
X110760337Y-152617496D01*
X110760341Y-152617497D01*
X110764250Y-152618824D01*
X110768294Y-152619628D01*
X110768300Y-152619630D01*
X111060225Y-152677698D01*
X111060231Y-152677699D01*
X111064264Y-152678501D01*
X111068369Y-152678770D01*
X111068376Y-152678771D01*
X111365381Y-152698237D01*
X111369500Y-152698507D01*
X111373619Y-152698237D01*
X111670624Y-152678771D01*
X111670631Y-152678770D01*
X111674736Y-152678501D01*
X111678769Y-152677699D01*
X111678775Y-152677698D01*
X111970700Y-152619630D01*
X111970706Y-152619628D01*
X111974750Y-152618824D01*
X111978659Y-152617497D01*
X111978663Y-152617496D01*
X112260493Y-152521828D01*
X112260494Y-152521828D01*
X112264408Y-152520499D01*
X112268104Y-152518676D01*
X112268112Y-152518673D01*
X112535051Y-152387032D01*
X112538754Y-152385206D01*
X112561790Y-152369814D01*
X112789662Y-152217555D01*
X112789667Y-152217551D01*
X112793093Y-152215262D01*
X112796187Y-152212548D01*
X112796193Y-152212544D01*
X113019985Y-152016283D01*
X113023074Y-152013574D01*
X113150477Y-151868299D01*
X113222044Y-151786693D01*
X113222048Y-151786687D01*
X113224762Y-151783593D01*
X113394706Y-151529253D01*
X113419397Y-151479184D01*
X113528173Y-151258612D01*
X113528176Y-151258604D01*
X113529999Y-151254908D01*
X113628324Y-150965250D01*
X113688001Y-150665236D01*
X113708007Y-150360000D01*
X120460993Y-150360000D01*
X120480999Y-150665236D01*
X120540676Y-150965250D01*
X120639001Y-151254908D01*
X120640824Y-151258604D01*
X120640827Y-151258612D01*
X120749603Y-151479184D01*
X120774294Y-151529253D01*
X120944238Y-151783593D01*
X120946952Y-151786687D01*
X120946956Y-151786693D01*
X121018523Y-151868299D01*
X121145926Y-152013574D01*
X121149015Y-152016283D01*
X121372807Y-152212544D01*
X121372813Y-152212548D01*
X121375907Y-152215262D01*
X121379333Y-152217551D01*
X121379338Y-152217555D01*
X121607210Y-152369814D01*
X121630246Y-152385206D01*
X121633949Y-152387032D01*
X121900888Y-152518673D01*
X121900896Y-152518676D01*
X121904592Y-152520499D01*
X121908506Y-152521828D01*
X121908507Y-152521828D01*
X122190337Y-152617496D01*
X122190341Y-152617497D01*
X122194250Y-152618824D01*
X122198294Y-152619628D01*
X122198300Y-152619630D01*
X122490225Y-152677698D01*
X122490231Y-152677699D01*
X122494264Y-152678501D01*
X122498369Y-152678770D01*
X122498376Y-152678771D01*
X122795381Y-152698237D01*
X122799500Y-152698507D01*
X122803619Y-152698237D01*
X123100624Y-152678771D01*
X123100631Y-152678770D01*
X123104736Y-152678501D01*
X123108769Y-152677699D01*
X123108775Y-152677698D01*
X123400700Y-152619630D01*
X123400706Y-152619628D01*
X123404750Y-152618824D01*
X123408659Y-152617497D01*
X123408663Y-152617496D01*
X123690493Y-152521828D01*
X123690494Y-152521828D01*
X123694408Y-152520499D01*
X123698104Y-152518676D01*
X123698112Y-152518673D01*
X123965051Y-152387032D01*
X123968754Y-152385206D01*
X123991790Y-152369814D01*
X124219662Y-152217555D01*
X124219667Y-152217551D01*
X124223093Y-152215262D01*
X124226187Y-152212548D01*
X124226193Y-152212544D01*
X124449985Y-152016283D01*
X124453074Y-152013574D01*
X124580477Y-151868299D01*
X124652044Y-151786693D01*
X124652048Y-151786687D01*
X124654762Y-151783593D01*
X124824706Y-151529253D01*
X124849397Y-151479184D01*
X124958173Y-151258612D01*
X124958176Y-151258604D01*
X124959999Y-151254908D01*
X125058324Y-150965250D01*
X125118001Y-150665236D01*
X125138007Y-150360000D01*
X125118001Y-150054764D01*
X125058324Y-149754750D01*
X124959999Y-149465092D01*
X124958176Y-149461396D01*
X124958173Y-149461388D01*
X124826532Y-149194450D01*
X124824706Y-149190747D01*
X124654762Y-148936407D01*
X124652048Y-148933313D01*
X124652044Y-148933307D01*
X124455783Y-148709515D01*
X124453074Y-148706426D01*
X124449985Y-148703717D01*
X124226193Y-148507456D01*
X124226187Y-148507452D01*
X124223093Y-148504738D01*
X124219663Y-148502446D01*
X124219662Y-148502445D01*
X123972189Y-148337089D01*
X123972187Y-148337088D01*
X123968754Y-148334794D01*
X123920247Y-148310873D01*
X123698112Y-148201327D01*
X123698104Y-148201324D01*
X123694408Y-148199501D01*
X123690493Y-148198172D01*
X123408663Y-148102504D01*
X123408659Y-148102503D01*
X123404750Y-148101176D01*
X123400706Y-148100372D01*
X123400700Y-148100370D01*
X123108775Y-148042302D01*
X123108769Y-148042301D01*
X123104736Y-148041499D01*
X123100631Y-148041230D01*
X123100624Y-148041229D01*
X122803619Y-148021763D01*
X122799500Y-148021493D01*
X122795381Y-148021763D01*
X122498376Y-148041229D01*
X122498369Y-148041230D01*
X122494264Y-148041499D01*
X122490231Y-148042301D01*
X122490225Y-148042302D01*
X122198300Y-148100370D01*
X122198294Y-148100372D01*
X122194250Y-148101176D01*
X122190341Y-148102503D01*
X122190337Y-148102504D01*
X121908507Y-148198172D01*
X121904592Y-148199501D01*
X121900896Y-148201324D01*
X121900888Y-148201327D01*
X121680316Y-148310103D01*
X121630247Y-148334794D01*
X121375907Y-148504738D01*
X121372813Y-148507452D01*
X121372807Y-148507456D01*
X121149015Y-148703717D01*
X121145926Y-148706426D01*
X121143217Y-148709515D01*
X120946956Y-148933307D01*
X120946952Y-148933313D01*
X120944238Y-148936407D01*
X120774294Y-149190747D01*
X120772468Y-149194450D01*
X120640827Y-149461388D01*
X120640824Y-149461396D01*
X120639001Y-149465092D01*
X120540676Y-149754750D01*
X120480999Y-150054764D01*
X120460993Y-150360000D01*
X113708007Y-150360000D01*
X113688001Y-150054764D01*
X113628324Y-149754750D01*
X113529999Y-149465092D01*
X113528176Y-149461396D01*
X113528173Y-149461388D01*
X113396532Y-149194450D01*
X113394706Y-149190747D01*
X113224762Y-148936407D01*
X113222048Y-148933313D01*
X113222044Y-148933307D01*
X113025783Y-148709515D01*
X113023074Y-148706426D01*
X113019985Y-148703717D01*
X112796193Y-148507456D01*
X112796187Y-148507452D01*
X112793093Y-148504738D01*
X112789663Y-148502446D01*
X112789662Y-148502445D01*
X112542189Y-148337089D01*
X112542187Y-148337088D01*
X112538754Y-148334794D01*
X112490247Y-148310873D01*
X112268112Y-148201327D01*
X112268104Y-148201324D01*
X112264408Y-148199501D01*
X112260493Y-148198172D01*
X111978663Y-148102504D01*
X111978659Y-148102503D01*
X111974750Y-148101176D01*
X111970706Y-148100372D01*
X111970700Y-148100370D01*
X111678775Y-148042302D01*
X111678769Y-148042301D01*
X111674736Y-148041499D01*
X111670631Y-148041230D01*
X111670624Y-148041229D01*
X111373619Y-148021763D01*
X111369500Y-148021493D01*
X111365381Y-148021763D01*
X111068376Y-148041229D01*
X111068369Y-148041230D01*
X111064264Y-148041499D01*
X111060231Y-148042301D01*
X111060225Y-148042302D01*
X110768300Y-148100370D01*
X110768294Y-148100372D01*
X110764250Y-148101176D01*
X110760341Y-148102503D01*
X110760337Y-148102504D01*
X110478507Y-148198172D01*
X110474592Y-148199501D01*
X110470896Y-148201324D01*
X110470888Y-148201327D01*
X110250316Y-148310103D01*
X110200247Y-148334794D01*
X109945907Y-148504738D01*
X109942813Y-148507452D01*
X109942807Y-148507456D01*
X109719015Y-148703717D01*
X109715926Y-148706426D01*
X109713217Y-148709515D01*
X109516956Y-148933307D01*
X109516952Y-148933313D01*
X109514238Y-148936407D01*
X109344294Y-149190747D01*
X109342468Y-149194450D01*
X109210827Y-149461388D01*
X109210824Y-149461396D01*
X109209001Y-149465092D01*
X109110676Y-149754750D01*
X109050999Y-150054764D01*
X109030993Y-150360000D01*
X96139000Y-150360000D01*
X96139000Y-144808134D01*
X111381000Y-144808134D01*
X111387755Y-144870316D01*
X111438885Y-145006705D01*
X111526239Y-145123261D01*
X111642795Y-145210615D01*
X111779184Y-145261745D01*
X111841366Y-145268500D01*
X113437634Y-145268500D01*
X113499816Y-145261745D01*
X113636205Y-145210615D01*
X113752761Y-145123261D01*
X113840115Y-145006705D01*
X113891245Y-144870316D01*
X113898000Y-144808134D01*
X113898000Y-144773576D01*
X113918002Y-144705455D01*
X113971658Y-144658962D01*
X114041932Y-144648858D01*
X114106512Y-144678352D01*
X114127213Y-144701305D01*
X114199623Y-144804717D01*
X114211751Y-144822038D01*
X114367462Y-144977749D01*
X114547846Y-145104056D01*
X114747424Y-145197120D01*
X114960129Y-145254115D01*
X115179500Y-145273307D01*
X115398871Y-145254115D01*
X115611576Y-145197120D01*
X115811154Y-145104056D01*
X115991538Y-144977749D01*
X116147249Y-144822038D01*
X116159378Y-144804717D01*
X116270399Y-144646162D01*
X116270400Y-144646160D01*
X116273556Y-144641653D01*
X116275879Y-144636671D01*
X116275882Y-144636666D01*
X116335305Y-144509231D01*
X116382222Y-144455946D01*
X116450499Y-144436485D01*
X116518459Y-144457027D01*
X116563695Y-144509231D01*
X116623118Y-144636666D01*
X116623121Y-144636671D01*
X116625444Y-144641653D01*
X116628600Y-144646160D01*
X116628601Y-144646162D01*
X116739623Y-144804717D01*
X116751751Y-144822038D01*
X116907462Y-144977749D01*
X117087846Y-145104056D01*
X117287424Y-145197120D01*
X117500129Y-145254115D01*
X117719500Y-145273307D01*
X117938871Y-145254115D01*
X118151576Y-145197120D01*
X118351154Y-145104056D01*
X118531538Y-144977749D01*
X118687249Y-144822038D01*
X118699378Y-144804717D01*
X118810399Y-144646162D01*
X118810400Y-144646160D01*
X118813556Y-144641653D01*
X118815879Y-144636671D01*
X118815882Y-144636666D01*
X118875305Y-144509231D01*
X118922222Y-144455946D01*
X118990499Y-144436485D01*
X119058459Y-144457027D01*
X119103695Y-144509231D01*
X119163118Y-144636666D01*
X119163121Y-144636671D01*
X119165444Y-144641653D01*
X119168600Y-144646160D01*
X119168601Y-144646162D01*
X119279623Y-144804717D01*
X119291751Y-144822038D01*
X119447462Y-144977749D01*
X119627846Y-145104056D01*
X119827424Y-145197120D01*
X120040129Y-145254115D01*
X120259500Y-145273307D01*
X120478871Y-145254115D01*
X120691576Y-145197120D01*
X120891154Y-145104056D01*
X121071538Y-144977749D01*
X121227249Y-144822038D01*
X121239378Y-144804717D01*
X121350399Y-144646162D01*
X121350400Y-144646160D01*
X121353556Y-144641653D01*
X121355879Y-144636671D01*
X121355882Y-144636666D01*
X121444295Y-144447061D01*
X121446620Y-144442076D01*
X121503615Y-144229371D01*
X121522807Y-144010000D01*
X121503615Y-143790629D01*
X121446620Y-143577924D01*
X121403085Y-143484562D01*
X121355882Y-143383334D01*
X121355879Y-143383329D01*
X121353556Y-143378347D01*
X121342826Y-143363023D01*
X121230408Y-143202473D01*
X121230406Y-143202470D01*
X121227249Y-143197962D01*
X121071538Y-143042251D01*
X120891154Y-142915944D01*
X120691576Y-142822880D01*
X120478871Y-142765885D01*
X120259500Y-142746693D01*
X120040129Y-142765885D01*
X119827424Y-142822880D01*
X119734264Y-142866321D01*
X119632834Y-142913618D01*
X119632829Y-142913621D01*
X119627847Y-142915944D01*
X119623340Y-142919100D01*
X119623338Y-142919101D01*
X119451973Y-143039092D01*
X119451970Y-143039094D01*
X119447462Y-143042251D01*
X119291751Y-143197962D01*
X119288594Y-143202470D01*
X119288592Y-143202473D01*
X119176174Y-143363023D01*
X119165444Y-143378347D01*
X119163121Y-143383329D01*
X119163118Y-143383334D01*
X119103695Y-143510769D01*
X119056778Y-143564054D01*
X118988501Y-143583515D01*
X118920541Y-143562973D01*
X118875305Y-143510769D01*
X118815882Y-143383334D01*
X118815879Y-143383329D01*
X118813556Y-143378347D01*
X118802826Y-143363023D01*
X118690408Y-143202473D01*
X118690406Y-143202470D01*
X118687249Y-143197962D01*
X118531538Y-143042251D01*
X118351154Y-142915944D01*
X118151576Y-142822880D01*
X117938871Y-142765885D01*
X117719500Y-142746693D01*
X117500129Y-142765885D01*
X117287424Y-142822880D01*
X117194264Y-142866321D01*
X117092834Y-142913618D01*
X117092829Y-142913621D01*
X117087847Y-142915944D01*
X117083340Y-142919100D01*
X117083338Y-142919101D01*
X116911973Y-143039092D01*
X116911970Y-143039094D01*
X116907462Y-143042251D01*
X116751751Y-143197962D01*
X116748594Y-143202470D01*
X116748592Y-143202473D01*
X116636174Y-143363023D01*
X116625444Y-143378347D01*
X116623121Y-143383329D01*
X116623118Y-143383334D01*
X116563695Y-143510769D01*
X116516778Y-143564054D01*
X116448501Y-143583515D01*
X116380541Y-143562973D01*
X116335305Y-143510769D01*
X116275882Y-143383334D01*
X116275879Y-143383329D01*
X116273556Y-143378347D01*
X116262826Y-143363023D01*
X116150408Y-143202473D01*
X116150406Y-143202470D01*
X116147249Y-143197962D01*
X115991538Y-143042251D01*
X115811154Y-142915944D01*
X115611576Y-142822880D01*
X115398871Y-142765885D01*
X115179500Y-142746693D01*
X114960129Y-142765885D01*
X114747424Y-142822880D01*
X114654264Y-142866321D01*
X114552834Y-142913618D01*
X114552829Y-142913621D01*
X114547847Y-142915944D01*
X114543340Y-142919100D01*
X114543338Y-142919101D01*
X114371973Y-143039092D01*
X114371970Y-143039094D01*
X114367462Y-143042251D01*
X114211751Y-143197962D01*
X114208594Y-143202470D01*
X114208592Y-143202473D01*
X114127213Y-143318695D01*
X114071756Y-143363023D01*
X114001137Y-143370332D01*
X113937776Y-143338301D01*
X113901791Y-143277100D01*
X113898000Y-143246424D01*
X113898000Y-143211866D01*
X113891245Y-143149684D01*
X113840115Y-143013295D01*
X113779808Y-142932827D01*
X113754961Y-142866321D01*
X113770014Y-142796939D01*
X113820189Y-142746709D01*
X113891619Y-142731743D01*
X113904018Y-142732828D01*
X113904025Y-142732828D01*
X113909500Y-142733307D01*
X114128871Y-142714115D01*
X114341576Y-142657120D01*
X114541154Y-142564056D01*
X114603842Y-142520161D01*
X115763893Y-142520161D01*
X115773187Y-142532175D01*
X115813588Y-142560464D01*
X115823084Y-142565947D01*
X116012613Y-142654326D01*
X116022905Y-142658072D01*
X116224901Y-142712196D01*
X116235696Y-142714099D01*
X116444025Y-142732326D01*
X116454975Y-142732326D01*
X116663304Y-142714099D01*
X116674099Y-142712196D01*
X116876095Y-142658072D01*
X116886387Y-142654326D01*
X117075916Y-142565947D01*
X117085412Y-142560464D01*
X117126648Y-142531590D01*
X117135023Y-142521112D01*
X117127957Y-142507668D01*
X116462311Y-141842021D01*
X116448368Y-141834408D01*
X116446534Y-141834539D01*
X116439920Y-141838790D01*
X115770320Y-142508391D01*
X115763893Y-142520161D01*
X114603842Y-142520161D01*
X114721538Y-142437749D01*
X114877249Y-142282038D01*
X114971700Y-142147149D01*
X115000399Y-142106162D01*
X115000400Y-142106160D01*
X115003556Y-142101653D01*
X115005879Y-142096671D01*
X115005882Y-142096666D01*
X115065581Y-141968640D01*
X115112498Y-141915355D01*
X115180776Y-141895894D01*
X115248736Y-141916436D01*
X115293971Y-141968640D01*
X115353554Y-142096417D01*
X115359034Y-142105907D01*
X115387911Y-142147149D01*
X115398387Y-142155523D01*
X115411834Y-142148455D01*
X116077479Y-141482811D01*
X116083856Y-141471132D01*
X116813908Y-141471132D01*
X116814039Y-141472966D01*
X116818290Y-141479580D01*
X117487891Y-142149180D01*
X117499661Y-142155607D01*
X117511676Y-142146311D01*
X117539966Y-142105907D01*
X117545446Y-142096417D01*
X117605029Y-141968640D01*
X117651946Y-141915355D01*
X117720224Y-141895894D01*
X117788184Y-141916436D01*
X117833419Y-141968640D01*
X117893118Y-142096666D01*
X117893121Y-142096671D01*
X117895444Y-142101653D01*
X117898600Y-142106160D01*
X117898601Y-142106162D01*
X117927301Y-142147149D01*
X118021751Y-142282038D01*
X118177462Y-142437749D01*
X118357846Y-142564056D01*
X118557424Y-142657120D01*
X118770129Y-142714115D01*
X118989500Y-142733307D01*
X119208871Y-142714115D01*
X119421576Y-142657120D01*
X119621154Y-142564056D01*
X119801538Y-142437749D01*
X119957249Y-142282038D01*
X120051700Y-142147149D01*
X120080399Y-142106162D01*
X120080400Y-142106160D01*
X120083556Y-142101653D01*
X120085879Y-142096671D01*
X120085882Y-142096666D01*
X120145305Y-141969231D01*
X120192222Y-141915946D01*
X120260499Y-141896485D01*
X120328459Y-141917027D01*
X120373695Y-141969231D01*
X120433118Y-142096666D01*
X120433121Y-142096671D01*
X120435444Y-142101653D01*
X120438600Y-142106160D01*
X120438601Y-142106162D01*
X120467301Y-142147149D01*
X120561751Y-142282038D01*
X120717462Y-142437749D01*
X120897846Y-142564056D01*
X121097424Y-142657120D01*
X121310129Y-142714115D01*
X121529500Y-142733307D01*
X121748871Y-142714115D01*
X121961576Y-142657120D01*
X122161154Y-142564056D01*
X122341538Y-142437749D01*
X122497249Y-142282038D01*
X122591700Y-142147149D01*
X122620399Y-142106162D01*
X122620400Y-142106160D01*
X122623556Y-142101653D01*
X122625879Y-142096671D01*
X122625882Y-142096666D01*
X122709648Y-141917027D01*
X122716620Y-141902076D01*
X122773615Y-141689371D01*
X122792807Y-141470000D01*
X122773615Y-141250629D01*
X122716620Y-141037924D01*
X122625998Y-140843583D01*
X122625882Y-140843334D01*
X122625879Y-140843329D01*
X122623556Y-140838347D01*
X122592286Y-140793689D01*
X122500408Y-140662473D01*
X122500406Y-140662470D01*
X122497249Y-140657962D01*
X122341538Y-140502251D01*
X122161154Y-140375944D01*
X121961576Y-140282880D01*
X121748871Y-140225885D01*
X121529500Y-140206693D01*
X121310129Y-140225885D01*
X121097424Y-140282880D01*
X121004062Y-140326415D01*
X120902834Y-140373618D01*
X120902829Y-140373621D01*
X120897847Y-140375944D01*
X120893340Y-140379100D01*
X120893338Y-140379101D01*
X120721973Y-140499092D01*
X120721970Y-140499094D01*
X120717462Y-140502251D01*
X120561751Y-140657962D01*
X120558594Y-140662470D01*
X120558592Y-140662473D01*
X120466714Y-140793689D01*
X120435444Y-140838347D01*
X120433121Y-140843329D01*
X120433118Y-140843334D01*
X120373695Y-140970769D01*
X120326778Y-141024054D01*
X120258501Y-141043515D01*
X120190541Y-141022973D01*
X120145305Y-140970769D01*
X120085882Y-140843334D01*
X120085879Y-140843329D01*
X120083556Y-140838347D01*
X120052286Y-140793689D01*
X119960408Y-140662473D01*
X119960406Y-140662470D01*
X119957249Y-140657962D01*
X119801538Y-140502251D01*
X119621154Y-140375944D01*
X119421576Y-140282880D01*
X119208871Y-140225885D01*
X118989500Y-140206693D01*
X118770129Y-140225885D01*
X118557424Y-140282880D01*
X118464062Y-140326415D01*
X118362834Y-140373618D01*
X118362829Y-140373621D01*
X118357847Y-140375944D01*
X118353340Y-140379100D01*
X118353338Y-140379101D01*
X118181973Y-140499092D01*
X118181970Y-140499094D01*
X118177462Y-140502251D01*
X118021751Y-140657962D01*
X118018594Y-140662470D01*
X118018592Y-140662473D01*
X117926714Y-140793689D01*
X117895444Y-140838347D01*
X117893121Y-140843329D01*
X117893118Y-140843334D01*
X117833419Y-140971360D01*
X117786502Y-141024645D01*
X117718224Y-141044106D01*
X117650264Y-141023564D01*
X117605029Y-140971360D01*
X117545446Y-140843583D01*
X117539966Y-140834093D01*
X117511089Y-140792851D01*
X117500613Y-140784477D01*
X117487166Y-140791545D01*
X116821521Y-141457189D01*
X116813908Y-141471132D01*
X116083856Y-141471132D01*
X116085092Y-141468868D01*
X116084961Y-141467034D01*
X116080710Y-141460420D01*
X115411109Y-140790820D01*
X115399339Y-140784393D01*
X115387324Y-140793689D01*
X115359034Y-140834093D01*
X115353554Y-140843583D01*
X115293971Y-140971360D01*
X115247054Y-141024645D01*
X115178776Y-141044106D01*
X115110816Y-141023564D01*
X115065581Y-140971360D01*
X115005882Y-140843334D01*
X115005879Y-140843329D01*
X115003556Y-140838347D01*
X114972286Y-140793689D01*
X114880408Y-140662473D01*
X114880406Y-140662470D01*
X114877249Y-140657962D01*
X114721538Y-140502251D01*
X114602483Y-140418887D01*
X115763977Y-140418887D01*
X115771045Y-140432334D01*
X116436689Y-141097979D01*
X116450632Y-141105592D01*
X116452466Y-141105461D01*
X116459080Y-141101210D01*
X117128680Y-140431609D01*
X117135107Y-140419839D01*
X117125813Y-140407825D01*
X117085412Y-140379536D01*
X117075916Y-140374053D01*
X116886387Y-140285674D01*
X116876095Y-140281928D01*
X116674099Y-140227804D01*
X116663304Y-140225901D01*
X116454975Y-140207674D01*
X116444025Y-140207674D01*
X116235696Y-140225901D01*
X116224901Y-140227804D01*
X116022905Y-140281928D01*
X116012613Y-140285674D01*
X115823083Y-140374054D01*
X115813593Y-140379534D01*
X115772351Y-140408411D01*
X115763977Y-140418887D01*
X114602483Y-140418887D01*
X114541154Y-140375944D01*
X114341576Y-140282880D01*
X114128871Y-140225885D01*
X113909500Y-140206693D01*
X113690129Y-140225885D01*
X113477424Y-140282880D01*
X113384062Y-140326415D01*
X113282834Y-140373618D01*
X113282829Y-140373621D01*
X113277847Y-140375944D01*
X113273340Y-140379100D01*
X113273338Y-140379101D01*
X113101973Y-140499092D01*
X113101970Y-140499094D01*
X113097462Y-140502251D01*
X112941751Y-140657962D01*
X112938594Y-140662470D01*
X112938592Y-140662473D01*
X112846714Y-140793689D01*
X112815444Y-140838347D01*
X112813121Y-140843329D01*
X112813118Y-140843334D01*
X112813002Y-140843583D01*
X112722380Y-141037924D01*
X112665385Y-141250629D01*
X112646193Y-141470000D01*
X112665385Y-141689371D01*
X112722380Y-141902076D01*
X112729352Y-141917027D01*
X112813118Y-142096666D01*
X112813121Y-142096671D01*
X112815444Y-142101653D01*
X112818600Y-142106160D01*
X112818601Y-142106162D01*
X112847301Y-142147149D01*
X112941751Y-142282038D01*
X113097462Y-142437749D01*
X113101971Y-142440906D01*
X113101973Y-142440908D01*
X113218194Y-142522287D01*
X113262522Y-142577744D01*
X113269831Y-142648364D01*
X113237800Y-142711724D01*
X113176599Y-142747709D01*
X113145923Y-142751500D01*
X111841366Y-142751500D01*
X111779184Y-142758255D01*
X111642795Y-142809385D01*
X111526239Y-142896739D01*
X111438885Y-143013295D01*
X111387755Y-143149684D01*
X111381000Y-143211866D01*
X111381000Y-144808134D01*
X96139000Y-144808134D01*
X96139000Y-138049000D01*
X110547904Y-138049000D01*
X110568248Y-138281532D01*
X110628661Y-138506998D01*
X110630983Y-138511978D01*
X110630984Y-138511980D01*
X110724983Y-138713561D01*
X110724986Y-138713566D01*
X110727309Y-138718548D01*
X110861193Y-138909754D01*
X111026246Y-139074807D01*
X111030754Y-139077964D01*
X111030757Y-139077966D01*
X111212943Y-139205534D01*
X111217452Y-139208691D01*
X111222434Y-139211014D01*
X111222439Y-139211017D01*
X111424020Y-139305016D01*
X111429002Y-139307339D01*
X111434310Y-139308761D01*
X111434312Y-139308762D01*
X111649153Y-139366328D01*
X111649155Y-139366328D01*
X111654468Y-139367752D01*
X111887000Y-139388096D01*
X112119532Y-139367752D01*
X112124845Y-139366328D01*
X112124847Y-139366328D01*
X112339688Y-139308762D01*
X112339690Y-139308761D01*
X112344998Y-139307339D01*
X112349980Y-139305016D01*
X112551561Y-139211017D01*
X112551566Y-139211014D01*
X112556548Y-139208691D01*
X112561057Y-139205534D01*
X112743243Y-139077966D01*
X112743246Y-139077964D01*
X112747754Y-139074807D01*
X112912807Y-138909754D01*
X113046691Y-138718548D01*
X113049014Y-138713566D01*
X113049017Y-138713561D01*
X113143016Y-138511980D01*
X113143017Y-138511978D01*
X113145339Y-138506998D01*
X113205752Y-138281532D01*
X113226096Y-138049000D01*
X116770904Y-138049000D01*
X116791248Y-138281532D01*
X116851661Y-138506998D01*
X116853983Y-138511978D01*
X116853984Y-138511980D01*
X116947983Y-138713561D01*
X116947986Y-138713566D01*
X116950309Y-138718548D01*
X117084193Y-138909754D01*
X117249246Y-139074807D01*
X117253754Y-139077964D01*
X117253757Y-139077966D01*
X117435943Y-139205534D01*
X117440452Y-139208691D01*
X117445434Y-139211014D01*
X117445439Y-139211017D01*
X117647020Y-139305016D01*
X117652002Y-139307339D01*
X117657310Y-139308761D01*
X117657312Y-139308762D01*
X117872153Y-139366328D01*
X117872155Y-139366328D01*
X117877468Y-139367752D01*
X118110000Y-139388096D01*
X118342532Y-139367752D01*
X118347845Y-139366328D01*
X118347847Y-139366328D01*
X118562688Y-139308762D01*
X118562690Y-139308761D01*
X118567998Y-139307339D01*
X118572980Y-139305016D01*
X118774561Y-139211017D01*
X118774566Y-139211014D01*
X118779548Y-139208691D01*
X118784057Y-139205534D01*
X118966243Y-139077966D01*
X118966246Y-139077964D01*
X118970754Y-139074807D01*
X119135807Y-138909754D01*
X119269691Y-138718548D01*
X119272014Y-138713566D01*
X119272017Y-138713561D01*
X119366016Y-138511980D01*
X119366017Y-138511978D01*
X119368339Y-138506998D01*
X119428752Y-138281532D01*
X119449096Y-138049000D01*
X119818904Y-138049000D01*
X119839248Y-138281532D01*
X119899661Y-138506998D01*
X119901983Y-138511978D01*
X119901984Y-138511980D01*
X119995983Y-138713561D01*
X119995986Y-138713566D01*
X119998309Y-138718548D01*
X120132193Y-138909754D01*
X120297246Y-139074807D01*
X120301754Y-139077964D01*
X120301757Y-139077966D01*
X120483943Y-139205534D01*
X120488452Y-139208691D01*
X120493434Y-139211014D01*
X120493439Y-139211017D01*
X120695020Y-139305016D01*
X120700002Y-139307339D01*
X120705310Y-139308761D01*
X120705312Y-139308762D01*
X120920153Y-139366328D01*
X120920155Y-139366328D01*
X120925468Y-139367752D01*
X121158000Y-139388096D01*
X121390532Y-139367752D01*
X121395845Y-139366328D01*
X121395847Y-139366328D01*
X121610688Y-139308762D01*
X121610690Y-139308761D01*
X121615998Y-139307339D01*
X121620980Y-139305016D01*
X121822561Y-139211017D01*
X121822566Y-139211014D01*
X121827548Y-139208691D01*
X121832057Y-139205534D01*
X122014243Y-139077966D01*
X122014246Y-139077964D01*
X122018754Y-139074807D01*
X122183807Y-138909754D01*
X122317691Y-138718548D01*
X122320014Y-138713566D01*
X122320017Y-138713561D01*
X122414016Y-138511980D01*
X122414017Y-138511978D01*
X122416339Y-138506998D01*
X122476752Y-138281532D01*
X122497096Y-138049000D01*
X122476752Y-137816468D01*
X122416339Y-137591002D01*
X122414016Y-137586020D01*
X122320017Y-137384439D01*
X122320014Y-137384434D01*
X122317691Y-137379452D01*
X122183807Y-137188246D01*
X122018754Y-137023193D01*
X122014246Y-137020036D01*
X122014243Y-137020034D01*
X121832057Y-136892466D01*
X121832055Y-136892465D01*
X121827548Y-136889309D01*
X121822566Y-136886986D01*
X121822561Y-136886983D01*
X121620980Y-136792984D01*
X121620978Y-136792983D01*
X121615998Y-136790661D01*
X121610690Y-136789239D01*
X121610688Y-136789238D01*
X121395847Y-136731672D01*
X121395845Y-136731672D01*
X121390532Y-136730248D01*
X121158000Y-136709904D01*
X120925468Y-136730248D01*
X120920155Y-136731672D01*
X120920153Y-136731672D01*
X120705312Y-136789238D01*
X120705310Y-136789239D01*
X120700002Y-136790661D01*
X120695022Y-136792983D01*
X120695020Y-136792984D01*
X120493439Y-136886983D01*
X120493434Y-136886986D01*
X120488452Y-136889309D01*
X120483945Y-136892465D01*
X120483943Y-136892466D01*
X120301757Y-137020034D01*
X120301754Y-137020036D01*
X120297246Y-137023193D01*
X120132193Y-137188246D01*
X119998309Y-137379452D01*
X119995986Y-137384434D01*
X119995983Y-137384439D01*
X119901984Y-137586020D01*
X119899661Y-137591002D01*
X119839248Y-137816468D01*
X119818904Y-138049000D01*
X119449096Y-138049000D01*
X119428752Y-137816468D01*
X119368339Y-137591002D01*
X119366016Y-137586020D01*
X119272017Y-137384439D01*
X119272014Y-137384434D01*
X119269691Y-137379452D01*
X119135807Y-137188246D01*
X118970754Y-137023193D01*
X118966246Y-137020036D01*
X118966243Y-137020034D01*
X118784057Y-136892466D01*
X118784055Y-136892465D01*
X118779548Y-136889309D01*
X118774566Y-136886986D01*
X118774561Y-136886983D01*
X118572980Y-136792984D01*
X118572978Y-136792983D01*
X118567998Y-136790661D01*
X118562690Y-136789239D01*
X118562688Y-136789238D01*
X118347847Y-136731672D01*
X118347845Y-136731672D01*
X118342532Y-136730248D01*
X118110000Y-136709904D01*
X117877468Y-136730248D01*
X117872155Y-136731672D01*
X117872153Y-136731672D01*
X117657312Y-136789238D01*
X117657310Y-136789239D01*
X117652002Y-136790661D01*
X117647022Y-136792983D01*
X117647020Y-136792984D01*
X117445439Y-136886983D01*
X117445434Y-136886986D01*
X117440452Y-136889309D01*
X117435945Y-136892465D01*
X117435943Y-136892466D01*
X117253757Y-137020034D01*
X117253754Y-137020036D01*
X117249246Y-137023193D01*
X117084193Y-137188246D01*
X116950309Y-137379452D01*
X116947986Y-137384434D01*
X116947983Y-137384439D01*
X116853984Y-137586020D01*
X116851661Y-137591002D01*
X116791248Y-137816468D01*
X116770904Y-138049000D01*
X113226096Y-138049000D01*
X113205752Y-137816468D01*
X113145339Y-137591002D01*
X113143016Y-137586020D01*
X113049017Y-137384439D01*
X113049014Y-137384434D01*
X113046691Y-137379452D01*
X112912807Y-137188246D01*
X112747754Y-137023193D01*
X112743246Y-137020036D01*
X112743243Y-137020034D01*
X112561057Y-136892466D01*
X112561055Y-136892465D01*
X112556548Y-136889309D01*
X112551566Y-136886986D01*
X112551561Y-136886983D01*
X112349980Y-136792984D01*
X112349978Y-136792983D01*
X112344998Y-136790661D01*
X112339690Y-136789239D01*
X112339688Y-136789238D01*
X112124847Y-136731672D01*
X112124845Y-136731672D01*
X112119532Y-136730248D01*
X111887000Y-136709904D01*
X111654468Y-136730248D01*
X111649155Y-136731672D01*
X111649153Y-136731672D01*
X111434312Y-136789238D01*
X111434310Y-136789239D01*
X111429002Y-136790661D01*
X111424022Y-136792983D01*
X111424020Y-136792984D01*
X111222439Y-136886983D01*
X111222434Y-136886986D01*
X111217452Y-136889309D01*
X111212945Y-136892465D01*
X111212943Y-136892466D01*
X111030757Y-137020034D01*
X111030754Y-137020036D01*
X111026246Y-137023193D01*
X110861193Y-137188246D01*
X110727309Y-137379452D01*
X110724986Y-137384434D01*
X110724983Y-137384439D01*
X110630984Y-137586020D01*
X110628661Y-137591002D01*
X110568248Y-137816468D01*
X110547904Y-138049000D01*
X96139000Y-138049000D01*
X96139000Y-134366000D01*
X112071904Y-134366000D01*
X112092248Y-134598532D01*
X112152661Y-134823998D01*
X112154983Y-134828978D01*
X112154984Y-134828980D01*
X112248983Y-135030561D01*
X112248986Y-135030566D01*
X112251309Y-135035548D01*
X112254465Y-135040055D01*
X112254466Y-135040057D01*
X112296010Y-135099387D01*
X112385193Y-135226754D01*
X112550246Y-135391807D01*
X112554754Y-135394964D01*
X112554757Y-135394966D01*
X112736325Y-135522101D01*
X112741452Y-135525691D01*
X112746434Y-135528014D01*
X112746439Y-135528017D01*
X112947008Y-135621544D01*
X112953002Y-135624339D01*
X112958310Y-135625761D01*
X112958312Y-135625762D01*
X113173153Y-135683328D01*
X113173155Y-135683328D01*
X113178468Y-135684752D01*
X113411000Y-135705096D01*
X113643532Y-135684752D01*
X113648845Y-135683328D01*
X113648847Y-135683328D01*
X113863688Y-135625762D01*
X113863690Y-135625761D01*
X113868998Y-135624339D01*
X113874992Y-135621544D01*
X114075561Y-135528017D01*
X114075566Y-135528014D01*
X114080548Y-135525691D01*
X114085675Y-135522101D01*
X114159553Y-135470371D01*
X115846183Y-135470371D01*
X115855480Y-135482387D01*
X115912198Y-135522101D01*
X115921684Y-135527579D01*
X116123192Y-135621544D01*
X116133484Y-135625290D01*
X116348241Y-135682834D01*
X116359036Y-135684737D01*
X116580525Y-135704115D01*
X116591475Y-135704115D01*
X116812964Y-135684737D01*
X116823759Y-135682834D01*
X117038516Y-135625290D01*
X117048808Y-135621544D01*
X117250316Y-135527579D01*
X117259802Y-135522101D01*
X117317358Y-135481801D01*
X117325733Y-135471323D01*
X117318665Y-135457875D01*
X116598812Y-134738022D01*
X116584868Y-134730408D01*
X116583035Y-134730539D01*
X116576420Y-134734790D01*
X115852613Y-135458597D01*
X115846183Y-135470371D01*
X114159553Y-135470371D01*
X114267243Y-135394966D01*
X114267246Y-135394964D01*
X114271754Y-135391807D01*
X114436807Y-135226754D01*
X114525991Y-135099387D01*
X114567534Y-135040057D01*
X114567535Y-135040055D01*
X114570691Y-135035548D01*
X114573014Y-135030566D01*
X114573017Y-135030561D01*
X114667016Y-134828980D01*
X114667017Y-134828978D01*
X114669339Y-134823998D01*
X114729752Y-134598532D01*
X114749617Y-134371475D01*
X115247885Y-134371475D01*
X115267263Y-134592964D01*
X115269166Y-134603759D01*
X115326710Y-134818516D01*
X115330456Y-134828808D01*
X115424421Y-135030316D01*
X115429899Y-135039802D01*
X115470199Y-135097358D01*
X115480677Y-135105733D01*
X115494125Y-135098665D01*
X116213978Y-134378812D01*
X116220356Y-134367132D01*
X116950408Y-134367132D01*
X116950539Y-134368965D01*
X116954790Y-134375580D01*
X117678597Y-135099387D01*
X117690371Y-135105817D01*
X117702387Y-135096520D01*
X117742101Y-135039802D01*
X117747579Y-135030316D01*
X117841544Y-134828808D01*
X117845290Y-134818516D01*
X117902834Y-134603759D01*
X117904737Y-134592964D01*
X117924115Y-134371475D01*
X117924115Y-134366000D01*
X121596904Y-134366000D01*
X121617248Y-134598532D01*
X121677661Y-134823998D01*
X121679983Y-134828978D01*
X121679984Y-134828980D01*
X121773983Y-135030561D01*
X121773986Y-135030566D01*
X121776309Y-135035548D01*
X121779465Y-135040055D01*
X121779466Y-135040057D01*
X121821010Y-135099387D01*
X121910193Y-135226754D01*
X122075246Y-135391807D01*
X122079754Y-135394964D01*
X122079757Y-135394966D01*
X122261325Y-135522101D01*
X122266452Y-135525691D01*
X122271434Y-135528014D01*
X122271439Y-135528017D01*
X122472008Y-135621544D01*
X122478002Y-135624339D01*
X122483310Y-135625761D01*
X122483312Y-135625762D01*
X122698153Y-135683328D01*
X122698155Y-135683328D01*
X122703468Y-135684752D01*
X122936000Y-135705096D01*
X123168532Y-135684752D01*
X123173845Y-135683328D01*
X123173847Y-135683328D01*
X123388688Y-135625762D01*
X123388690Y-135625761D01*
X123393998Y-135624339D01*
X123399992Y-135621544D01*
X123600561Y-135528017D01*
X123600566Y-135528014D01*
X123605548Y-135525691D01*
X123610675Y-135522101D01*
X123792243Y-135394966D01*
X123792246Y-135394964D01*
X123796754Y-135391807D01*
X123961807Y-135226754D01*
X124050991Y-135099387D01*
X124092534Y-135040057D01*
X124092535Y-135040055D01*
X124095691Y-135035548D01*
X124098014Y-135030566D01*
X124098017Y-135030561D01*
X124192016Y-134828980D01*
X124192017Y-134828978D01*
X124194339Y-134823998D01*
X124254752Y-134598532D01*
X124275096Y-134366000D01*
X124254752Y-134133468D01*
X124194339Y-133908002D01*
X124098131Y-133701684D01*
X124098017Y-133701439D01*
X124098014Y-133701434D01*
X124095691Y-133696452D01*
X124051496Y-133633335D01*
X123964966Y-133509757D01*
X123964964Y-133509754D01*
X123961807Y-133505246D01*
X123796754Y-133340193D01*
X123792246Y-133337036D01*
X123792243Y-133337034D01*
X123610057Y-133209466D01*
X123610055Y-133209465D01*
X123605548Y-133206309D01*
X123600566Y-133203986D01*
X123600561Y-133203983D01*
X123398980Y-133109984D01*
X123398978Y-133109983D01*
X123393998Y-133107661D01*
X123388690Y-133106239D01*
X123388688Y-133106238D01*
X123173847Y-133048672D01*
X123173845Y-133048672D01*
X123168532Y-133047248D01*
X122936000Y-133026904D01*
X122703468Y-133047248D01*
X122698155Y-133048672D01*
X122698153Y-133048672D01*
X122483312Y-133106238D01*
X122483310Y-133106239D01*
X122478002Y-133107661D01*
X122473022Y-133109983D01*
X122473020Y-133109984D01*
X122271439Y-133203983D01*
X122271434Y-133203986D01*
X122266452Y-133206309D01*
X122261945Y-133209465D01*
X122261943Y-133209466D01*
X122079757Y-133337034D01*
X122079754Y-133337036D01*
X122075246Y-133340193D01*
X121910193Y-133505246D01*
X121907036Y-133509754D01*
X121907034Y-133509757D01*
X121820504Y-133633335D01*
X121776309Y-133696452D01*
X121773986Y-133701434D01*
X121773983Y-133701439D01*
X121773869Y-133701684D01*
X121677661Y-133908002D01*
X121617248Y-134133468D01*
X121596904Y-134366000D01*
X117924115Y-134366000D01*
X117924115Y-134360525D01*
X117904737Y-134139036D01*
X117902834Y-134128241D01*
X117845290Y-133913484D01*
X117841544Y-133903192D01*
X117747579Y-133701684D01*
X117742101Y-133692198D01*
X117701801Y-133634642D01*
X117691323Y-133626267D01*
X117677875Y-133633335D01*
X116958022Y-134353188D01*
X116950408Y-134367132D01*
X116220356Y-134367132D01*
X116221592Y-134364868D01*
X116221461Y-134363035D01*
X116217210Y-134356420D01*
X115493403Y-133632613D01*
X115481629Y-133626183D01*
X115469613Y-133635480D01*
X115429899Y-133692198D01*
X115424421Y-133701684D01*
X115330456Y-133903192D01*
X115326710Y-133913484D01*
X115269166Y-134128241D01*
X115267263Y-134139036D01*
X115247885Y-134360525D01*
X115247885Y-134371475D01*
X114749617Y-134371475D01*
X114750096Y-134366000D01*
X114729752Y-134133468D01*
X114669339Y-133908002D01*
X114573131Y-133701684D01*
X114573017Y-133701439D01*
X114573014Y-133701434D01*
X114570691Y-133696452D01*
X114526496Y-133633335D01*
X114439966Y-133509757D01*
X114439964Y-133509754D01*
X114436807Y-133505246D01*
X114271754Y-133340193D01*
X114267246Y-133337036D01*
X114267243Y-133337034D01*
X114158194Y-133260677D01*
X115846267Y-133260677D01*
X115853335Y-133274125D01*
X116573188Y-133993978D01*
X116587132Y-134001592D01*
X116588965Y-134001461D01*
X116595580Y-133997210D01*
X117319387Y-133273403D01*
X117325817Y-133261629D01*
X117316520Y-133249613D01*
X117259802Y-133209899D01*
X117250316Y-133204421D01*
X117048808Y-133110456D01*
X117038516Y-133106710D01*
X116823759Y-133049166D01*
X116812964Y-133047263D01*
X116591475Y-133027885D01*
X116580525Y-133027885D01*
X116359036Y-133047263D01*
X116348241Y-133049166D01*
X116133484Y-133106710D01*
X116123192Y-133110456D01*
X115921684Y-133204421D01*
X115912198Y-133209899D01*
X115854642Y-133250199D01*
X115846267Y-133260677D01*
X114158194Y-133260677D01*
X114085057Y-133209466D01*
X114085055Y-133209465D01*
X114080548Y-133206309D01*
X114075566Y-133203986D01*
X114075561Y-133203983D01*
X113873980Y-133109984D01*
X113873978Y-133109983D01*
X113868998Y-133107661D01*
X113863690Y-133106239D01*
X113863688Y-133106238D01*
X113648847Y-133048672D01*
X113648845Y-133048672D01*
X113643532Y-133047248D01*
X113411000Y-133026904D01*
X113178468Y-133047248D01*
X113173155Y-133048672D01*
X113173153Y-133048672D01*
X112958312Y-133106238D01*
X112958310Y-133106239D01*
X112953002Y-133107661D01*
X112948022Y-133109983D01*
X112948020Y-133109984D01*
X112746439Y-133203983D01*
X112746434Y-133203986D01*
X112741452Y-133206309D01*
X112736945Y-133209465D01*
X112736943Y-133209466D01*
X112554757Y-133337034D01*
X112554754Y-133337036D01*
X112550246Y-133340193D01*
X112385193Y-133505246D01*
X112382036Y-133509754D01*
X112382034Y-133509757D01*
X112295504Y-133633335D01*
X112251309Y-133696452D01*
X112248986Y-133701434D01*
X112248983Y-133701439D01*
X112248869Y-133701684D01*
X112152661Y-133908002D01*
X112092248Y-134133468D01*
X112071904Y-134366000D01*
X96139000Y-134366000D01*
X96139000Y-127105918D01*
X96792917Y-127105918D01*
X96808682Y-127379320D01*
X96809507Y-127383525D01*
X96809508Y-127383533D01*
X96820127Y-127437657D01*
X96861405Y-127648053D01*
X96862792Y-127652103D01*
X96862793Y-127652108D01*
X96883605Y-127712895D01*
X96950112Y-127907144D01*
X97073160Y-128151799D01*
X97075586Y-128155328D01*
X97075589Y-128155334D01*
X97225843Y-128373953D01*
X97228274Y-128377490D01*
X97412582Y-128580043D01*
X97622675Y-128755707D01*
X97626316Y-128757991D01*
X97851024Y-128898951D01*
X97851028Y-128898953D01*
X97854664Y-128901234D01*
X97922544Y-128931883D01*
X98100345Y-129012164D01*
X98100349Y-129012166D01*
X98104257Y-129013930D01*
X98108377Y-129015150D01*
X98108376Y-129015150D01*
X98362723Y-129090491D01*
X98362727Y-129090492D01*
X98366836Y-129091709D01*
X98371070Y-129092357D01*
X98371075Y-129092358D01*
X98633298Y-129132483D01*
X98633300Y-129132483D01*
X98637540Y-129133132D01*
X98776912Y-129135322D01*
X98907071Y-129137367D01*
X98907077Y-129137367D01*
X98911362Y-129137434D01*
X99183235Y-129104534D01*
X99448127Y-129035041D01*
X99452087Y-129033401D01*
X99452092Y-129033399D01*
X99574631Y-128982641D01*
X99701136Y-128930241D01*
X99937582Y-128792073D01*
X100153089Y-128623094D01*
X100194809Y-128580043D01*
X100340686Y-128429509D01*
X100343669Y-128426431D01*
X100346202Y-128422983D01*
X100346206Y-128422978D01*
X100503257Y-128209178D01*
X100505795Y-128205723D01*
X100533154Y-128155334D01*
X100634418Y-127968830D01*
X100634419Y-127968828D01*
X100636468Y-127965054D01*
X100733269Y-127708877D01*
X100794407Y-127441933D01*
X100818751Y-127169161D01*
X100819193Y-127127000D01*
X100817756Y-127105918D01*
X101872917Y-127105918D01*
X101888682Y-127379320D01*
X101889507Y-127383525D01*
X101889508Y-127383533D01*
X101900127Y-127437657D01*
X101941405Y-127648053D01*
X101942792Y-127652103D01*
X101942793Y-127652108D01*
X101963605Y-127712895D01*
X102030112Y-127907144D01*
X102153160Y-128151799D01*
X102155586Y-128155328D01*
X102155589Y-128155334D01*
X102305843Y-128373953D01*
X102308274Y-128377490D01*
X102492582Y-128580043D01*
X102702675Y-128755707D01*
X102706316Y-128757991D01*
X102931024Y-128898951D01*
X102931028Y-128898953D01*
X102934664Y-128901234D01*
X103002544Y-128931883D01*
X103180345Y-129012164D01*
X103180349Y-129012166D01*
X103184257Y-129013930D01*
X103188377Y-129015150D01*
X103188376Y-129015150D01*
X103442723Y-129090491D01*
X103442727Y-129090492D01*
X103446836Y-129091709D01*
X103451070Y-129092357D01*
X103451075Y-129092358D01*
X103713298Y-129132483D01*
X103713300Y-129132483D01*
X103717540Y-129133132D01*
X103856912Y-129135322D01*
X103987071Y-129137367D01*
X103987077Y-129137367D01*
X103991362Y-129137434D01*
X104263235Y-129104534D01*
X104528127Y-129035041D01*
X104532087Y-129033401D01*
X104532092Y-129033399D01*
X104654631Y-128982641D01*
X104781136Y-128930241D01*
X105017582Y-128792073D01*
X105233089Y-128623094D01*
X105274809Y-128580043D01*
X105420686Y-128429509D01*
X105423669Y-128426431D01*
X105426202Y-128422983D01*
X105426206Y-128422978D01*
X105583257Y-128209178D01*
X105585795Y-128205723D01*
X105613154Y-128155334D01*
X105714418Y-127968830D01*
X105714419Y-127968828D01*
X105716468Y-127965054D01*
X105813269Y-127708877D01*
X105874407Y-127441933D01*
X105898751Y-127169161D01*
X105899193Y-127127000D01*
X105897756Y-127105918D01*
X106952917Y-127105918D01*
X106968682Y-127379320D01*
X106969507Y-127383525D01*
X106969508Y-127383533D01*
X106980127Y-127437657D01*
X107021405Y-127648053D01*
X107022792Y-127652103D01*
X107022793Y-127652108D01*
X107043605Y-127712895D01*
X107110112Y-127907144D01*
X107233160Y-128151799D01*
X107235586Y-128155328D01*
X107235589Y-128155334D01*
X107385843Y-128373953D01*
X107388274Y-128377490D01*
X107572582Y-128580043D01*
X107782675Y-128755707D01*
X107786316Y-128757991D01*
X108011024Y-128898951D01*
X108011028Y-128898953D01*
X108014664Y-128901234D01*
X108082544Y-128931883D01*
X108260345Y-129012164D01*
X108260349Y-129012166D01*
X108264257Y-129013930D01*
X108268377Y-129015150D01*
X108268376Y-129015150D01*
X108522723Y-129090491D01*
X108522727Y-129090492D01*
X108526836Y-129091709D01*
X108531070Y-129092357D01*
X108531075Y-129092358D01*
X108793298Y-129132483D01*
X108793300Y-129132483D01*
X108797540Y-129133132D01*
X108936912Y-129135322D01*
X109067071Y-129137367D01*
X109067077Y-129137367D01*
X109071362Y-129137434D01*
X109343235Y-129104534D01*
X109608127Y-129035041D01*
X109612087Y-129033401D01*
X109612092Y-129033399D01*
X109734631Y-128982641D01*
X109861136Y-128930241D01*
X110097582Y-128792073D01*
X110246720Y-128675134D01*
X112037500Y-128675134D01*
X112044255Y-128737316D01*
X112095385Y-128873705D01*
X112182739Y-128990261D01*
X112299295Y-129077615D01*
X112435684Y-129128745D01*
X112497866Y-129135500D01*
X115594134Y-129135500D01*
X115656316Y-129128745D01*
X115792705Y-129077615D01*
X115909261Y-128990261D01*
X115996615Y-128873705D01*
X116047745Y-128737316D01*
X116054500Y-128675134D01*
X116054500Y-127105918D01*
X118763917Y-127105918D01*
X118779682Y-127379320D01*
X118780507Y-127383525D01*
X118780508Y-127383533D01*
X118791127Y-127437657D01*
X118832405Y-127648053D01*
X118833792Y-127652103D01*
X118833793Y-127652108D01*
X118854605Y-127712895D01*
X118921112Y-127907144D01*
X119044160Y-128151799D01*
X119046586Y-128155328D01*
X119046589Y-128155334D01*
X119196843Y-128373953D01*
X119199274Y-128377490D01*
X119383582Y-128580043D01*
X119593675Y-128755707D01*
X119597316Y-128757991D01*
X119822024Y-128898951D01*
X119822028Y-128898953D01*
X119825664Y-128901234D01*
X119893544Y-128931883D01*
X120071345Y-129012164D01*
X120071349Y-129012166D01*
X120075257Y-129013930D01*
X120079377Y-129015150D01*
X120079376Y-129015150D01*
X120333723Y-129090491D01*
X120333727Y-129090492D01*
X120337836Y-129091709D01*
X120342070Y-129092357D01*
X120342075Y-129092358D01*
X120604298Y-129132483D01*
X120604300Y-129132483D01*
X120608540Y-129133132D01*
X120747912Y-129135322D01*
X120878071Y-129137367D01*
X120878077Y-129137367D01*
X120882362Y-129137434D01*
X121154235Y-129104534D01*
X121419127Y-129035041D01*
X121423087Y-129033401D01*
X121423092Y-129033399D01*
X121545631Y-128982641D01*
X121672136Y-128930241D01*
X121908582Y-128792073D01*
X122124089Y-128623094D01*
X122165809Y-128580043D01*
X122311686Y-128429509D01*
X122314669Y-128426431D01*
X122317202Y-128422983D01*
X122317206Y-128422978D01*
X122474257Y-128209178D01*
X122476795Y-128205723D01*
X122504154Y-128155334D01*
X122605418Y-127968830D01*
X122605419Y-127968828D01*
X122607468Y-127965054D01*
X122704269Y-127708877D01*
X122765407Y-127441933D01*
X122789751Y-127169161D01*
X122790193Y-127127000D01*
X122788756Y-127105918D01*
X123843917Y-127105918D01*
X123859682Y-127379320D01*
X123860507Y-127383525D01*
X123860508Y-127383533D01*
X123871127Y-127437657D01*
X123912405Y-127648053D01*
X123913792Y-127652103D01*
X123913793Y-127652108D01*
X123934605Y-127712895D01*
X124001112Y-127907144D01*
X124124160Y-128151799D01*
X124126586Y-128155328D01*
X124126589Y-128155334D01*
X124276843Y-128373953D01*
X124279274Y-128377490D01*
X124463582Y-128580043D01*
X124673675Y-128755707D01*
X124677316Y-128757991D01*
X124902024Y-128898951D01*
X124902028Y-128898953D01*
X124905664Y-128901234D01*
X124973544Y-128931883D01*
X125151345Y-129012164D01*
X125151349Y-129012166D01*
X125155257Y-129013930D01*
X125159377Y-129015150D01*
X125159376Y-129015150D01*
X125413723Y-129090491D01*
X125413727Y-129090492D01*
X125417836Y-129091709D01*
X125422070Y-129092357D01*
X125422075Y-129092358D01*
X125684298Y-129132483D01*
X125684300Y-129132483D01*
X125688540Y-129133132D01*
X125827912Y-129135322D01*
X125958071Y-129137367D01*
X125958077Y-129137367D01*
X125962362Y-129137434D01*
X126234235Y-129104534D01*
X126499127Y-129035041D01*
X126503087Y-129033401D01*
X126503092Y-129033399D01*
X126625631Y-128982641D01*
X126752136Y-128930241D01*
X126988582Y-128792073D01*
X127204089Y-128623094D01*
X127245809Y-128580043D01*
X127391686Y-128429509D01*
X127394669Y-128426431D01*
X127397202Y-128422983D01*
X127397206Y-128422978D01*
X127554257Y-128209178D01*
X127556795Y-128205723D01*
X127584154Y-128155334D01*
X127685418Y-127968830D01*
X127685419Y-127968828D01*
X127687468Y-127965054D01*
X127784269Y-127708877D01*
X127845407Y-127441933D01*
X127869751Y-127169161D01*
X127870193Y-127127000D01*
X127868756Y-127105918D01*
X128923917Y-127105918D01*
X128939682Y-127379320D01*
X128940507Y-127383525D01*
X128940508Y-127383533D01*
X128951127Y-127437657D01*
X128992405Y-127648053D01*
X128993792Y-127652103D01*
X128993793Y-127652108D01*
X129014605Y-127712895D01*
X129081112Y-127907144D01*
X129204160Y-128151799D01*
X129206586Y-128155328D01*
X129206589Y-128155334D01*
X129356843Y-128373953D01*
X129359274Y-128377490D01*
X129543582Y-128580043D01*
X129753675Y-128755707D01*
X129757316Y-128757991D01*
X129982024Y-128898951D01*
X129982028Y-128898953D01*
X129985664Y-128901234D01*
X130053544Y-128931883D01*
X130231345Y-129012164D01*
X130231349Y-129012166D01*
X130235257Y-129013930D01*
X130239377Y-129015150D01*
X130239376Y-129015150D01*
X130493723Y-129090491D01*
X130493727Y-129090492D01*
X130497836Y-129091709D01*
X130502070Y-129092357D01*
X130502075Y-129092358D01*
X130764298Y-129132483D01*
X130764300Y-129132483D01*
X130768540Y-129133132D01*
X130907912Y-129135322D01*
X131038071Y-129137367D01*
X131038077Y-129137367D01*
X131042362Y-129137434D01*
X131314235Y-129104534D01*
X131579127Y-129035041D01*
X131583087Y-129033401D01*
X131583092Y-129033399D01*
X131705631Y-128982641D01*
X131832136Y-128930241D01*
X132068582Y-128792073D01*
X132217720Y-128675134D01*
X134008500Y-128675134D01*
X134015255Y-128737316D01*
X134066385Y-128873705D01*
X134153739Y-128990261D01*
X134270295Y-129077615D01*
X134406684Y-129128745D01*
X134468866Y-129135500D01*
X137565134Y-129135500D01*
X137627316Y-129128745D01*
X137763705Y-129077615D01*
X137880261Y-128990261D01*
X137967615Y-128873705D01*
X138018745Y-128737316D01*
X138025500Y-128675134D01*
X138025500Y-125578866D01*
X138018745Y-125516684D01*
X137967615Y-125380295D01*
X137880261Y-125263739D01*
X137763705Y-125176385D01*
X137627316Y-125125255D01*
X137565134Y-125118500D01*
X134468866Y-125118500D01*
X134406684Y-125125255D01*
X134270295Y-125176385D01*
X134153739Y-125263739D01*
X134066385Y-125380295D01*
X134015255Y-125516684D01*
X134008500Y-125578866D01*
X134008500Y-128675134D01*
X132217720Y-128675134D01*
X132284089Y-128623094D01*
X132325809Y-128580043D01*
X132471686Y-128429509D01*
X132474669Y-128426431D01*
X132477202Y-128422983D01*
X132477206Y-128422978D01*
X132634257Y-128209178D01*
X132636795Y-128205723D01*
X132664154Y-128155334D01*
X132765418Y-127968830D01*
X132765419Y-127968828D01*
X132767468Y-127965054D01*
X132864269Y-127708877D01*
X132925407Y-127441933D01*
X132949751Y-127169161D01*
X132950193Y-127127000D01*
X132931567Y-126853778D01*
X132876032Y-126585612D01*
X132784617Y-126327465D01*
X132659013Y-126084112D01*
X132649040Y-126069921D01*
X132504008Y-125863562D01*
X132501545Y-125860057D01*
X132315125Y-125659445D01*
X132311810Y-125656731D01*
X132311806Y-125656728D01*
X132150304Y-125524540D01*
X132103205Y-125485990D01*
X131869704Y-125342901D01*
X131865768Y-125341173D01*
X131622873Y-125234549D01*
X131622869Y-125234548D01*
X131618945Y-125232825D01*
X131355566Y-125157800D01*
X131351324Y-125157196D01*
X131351318Y-125157195D01*
X131146387Y-125128029D01*
X131084443Y-125119213D01*
X130940589Y-125118460D01*
X130814877Y-125117802D01*
X130814871Y-125117802D01*
X130810591Y-125117780D01*
X130806347Y-125118339D01*
X130806343Y-125118339D01*
X130732741Y-125128029D01*
X130539078Y-125153525D01*
X130534938Y-125154658D01*
X130534936Y-125154658D01*
X130467037Y-125173233D01*
X130274928Y-125225788D01*
X130270980Y-125227472D01*
X130026982Y-125331546D01*
X130026978Y-125331548D01*
X130023030Y-125333232D01*
X130003125Y-125345145D01*
X129791725Y-125471664D01*
X129791721Y-125471667D01*
X129788043Y-125473868D01*
X129574318Y-125645094D01*
X129385808Y-125843742D01*
X129226002Y-126066136D01*
X129097857Y-126308161D01*
X129096385Y-126312184D01*
X129096383Y-126312188D01*
X129089314Y-126331506D01*
X129003743Y-126565337D01*
X128945404Y-126832907D01*
X128923917Y-127105918D01*
X127868756Y-127105918D01*
X127851567Y-126853778D01*
X127796032Y-126585612D01*
X127704617Y-126327465D01*
X127579013Y-126084112D01*
X127569040Y-126069921D01*
X127424008Y-125863562D01*
X127421545Y-125860057D01*
X127235125Y-125659445D01*
X127231810Y-125656731D01*
X127231806Y-125656728D01*
X127070304Y-125524540D01*
X127023205Y-125485990D01*
X126789704Y-125342901D01*
X126785768Y-125341173D01*
X126542873Y-125234549D01*
X126542869Y-125234548D01*
X126538945Y-125232825D01*
X126275566Y-125157800D01*
X126271324Y-125157196D01*
X126271318Y-125157195D01*
X126066387Y-125128029D01*
X126004443Y-125119213D01*
X125860589Y-125118460D01*
X125734877Y-125117802D01*
X125734871Y-125117802D01*
X125730591Y-125117780D01*
X125726347Y-125118339D01*
X125726343Y-125118339D01*
X125652741Y-125128029D01*
X125459078Y-125153525D01*
X125454938Y-125154658D01*
X125454936Y-125154658D01*
X125387037Y-125173233D01*
X125194928Y-125225788D01*
X125190980Y-125227472D01*
X124946982Y-125331546D01*
X124946978Y-125331548D01*
X124943030Y-125333232D01*
X124923125Y-125345145D01*
X124711725Y-125471664D01*
X124711721Y-125471667D01*
X124708043Y-125473868D01*
X124494318Y-125645094D01*
X124305808Y-125843742D01*
X124146002Y-126066136D01*
X124017857Y-126308161D01*
X124016385Y-126312184D01*
X124016383Y-126312188D01*
X124009314Y-126331506D01*
X123923743Y-126565337D01*
X123865404Y-126832907D01*
X123843917Y-127105918D01*
X122788756Y-127105918D01*
X122771567Y-126853778D01*
X122716032Y-126585612D01*
X122624617Y-126327465D01*
X122499013Y-126084112D01*
X122489040Y-126069921D01*
X122344008Y-125863562D01*
X122341545Y-125860057D01*
X122155125Y-125659445D01*
X122151810Y-125656731D01*
X122151806Y-125656728D01*
X121990304Y-125524540D01*
X121943205Y-125485990D01*
X121709704Y-125342901D01*
X121705768Y-125341173D01*
X121462873Y-125234549D01*
X121462869Y-125234548D01*
X121458945Y-125232825D01*
X121195566Y-125157800D01*
X121191324Y-125157196D01*
X121191318Y-125157195D01*
X120986387Y-125128029D01*
X120924443Y-125119213D01*
X120780589Y-125118460D01*
X120654877Y-125117802D01*
X120654871Y-125117802D01*
X120650591Y-125117780D01*
X120646347Y-125118339D01*
X120646343Y-125118339D01*
X120572741Y-125128029D01*
X120379078Y-125153525D01*
X120374938Y-125154658D01*
X120374936Y-125154658D01*
X120307037Y-125173233D01*
X120114928Y-125225788D01*
X120110980Y-125227472D01*
X119866982Y-125331546D01*
X119866978Y-125331548D01*
X119863030Y-125333232D01*
X119843125Y-125345145D01*
X119631725Y-125471664D01*
X119631721Y-125471667D01*
X119628043Y-125473868D01*
X119414318Y-125645094D01*
X119225808Y-125843742D01*
X119066002Y-126066136D01*
X118937857Y-126308161D01*
X118936385Y-126312184D01*
X118936383Y-126312188D01*
X118929314Y-126331506D01*
X118843743Y-126565337D01*
X118785404Y-126832907D01*
X118763917Y-127105918D01*
X116054500Y-127105918D01*
X116054500Y-125578866D01*
X116047745Y-125516684D01*
X115996615Y-125380295D01*
X115909261Y-125263739D01*
X115792705Y-125176385D01*
X115656316Y-125125255D01*
X115594134Y-125118500D01*
X112497866Y-125118500D01*
X112435684Y-125125255D01*
X112299295Y-125176385D01*
X112182739Y-125263739D01*
X112095385Y-125380295D01*
X112044255Y-125516684D01*
X112037500Y-125578866D01*
X112037500Y-128675134D01*
X110246720Y-128675134D01*
X110313089Y-128623094D01*
X110354809Y-128580043D01*
X110500686Y-128429509D01*
X110503669Y-128426431D01*
X110506202Y-128422983D01*
X110506206Y-128422978D01*
X110663257Y-128209178D01*
X110665795Y-128205723D01*
X110693154Y-128155334D01*
X110794418Y-127968830D01*
X110794419Y-127968828D01*
X110796468Y-127965054D01*
X110893269Y-127708877D01*
X110954407Y-127441933D01*
X110978751Y-127169161D01*
X110979193Y-127127000D01*
X110960567Y-126853778D01*
X110905032Y-126585612D01*
X110813617Y-126327465D01*
X110688013Y-126084112D01*
X110678040Y-126069921D01*
X110533008Y-125863562D01*
X110530545Y-125860057D01*
X110344125Y-125659445D01*
X110340810Y-125656731D01*
X110340806Y-125656728D01*
X110179304Y-125524540D01*
X110132205Y-125485990D01*
X109898704Y-125342901D01*
X109894768Y-125341173D01*
X109651873Y-125234549D01*
X109651869Y-125234548D01*
X109647945Y-125232825D01*
X109384566Y-125157800D01*
X109380324Y-125157196D01*
X109380318Y-125157195D01*
X109175387Y-125128029D01*
X109113443Y-125119213D01*
X108969589Y-125118460D01*
X108843877Y-125117802D01*
X108843871Y-125117802D01*
X108839591Y-125117780D01*
X108835347Y-125118339D01*
X108835343Y-125118339D01*
X108761741Y-125128029D01*
X108568078Y-125153525D01*
X108563938Y-125154658D01*
X108563936Y-125154658D01*
X108496037Y-125173233D01*
X108303928Y-125225788D01*
X108299980Y-125227472D01*
X108055982Y-125331546D01*
X108055978Y-125331548D01*
X108052030Y-125333232D01*
X108032125Y-125345145D01*
X107820725Y-125471664D01*
X107820721Y-125471667D01*
X107817043Y-125473868D01*
X107603318Y-125645094D01*
X107414808Y-125843742D01*
X107255002Y-126066136D01*
X107126857Y-126308161D01*
X107125385Y-126312184D01*
X107125383Y-126312188D01*
X107118314Y-126331506D01*
X107032743Y-126565337D01*
X106974404Y-126832907D01*
X106952917Y-127105918D01*
X105897756Y-127105918D01*
X105880567Y-126853778D01*
X105825032Y-126585612D01*
X105733617Y-126327465D01*
X105608013Y-126084112D01*
X105598040Y-126069921D01*
X105453008Y-125863562D01*
X105450545Y-125860057D01*
X105264125Y-125659445D01*
X105260810Y-125656731D01*
X105260806Y-125656728D01*
X105099304Y-125524540D01*
X105052205Y-125485990D01*
X104818704Y-125342901D01*
X104814768Y-125341173D01*
X104571873Y-125234549D01*
X104571869Y-125234548D01*
X104567945Y-125232825D01*
X104304566Y-125157800D01*
X104300324Y-125157196D01*
X104300318Y-125157195D01*
X104095387Y-125128029D01*
X104033443Y-125119213D01*
X103889589Y-125118460D01*
X103763877Y-125117802D01*
X103763871Y-125117802D01*
X103759591Y-125117780D01*
X103755347Y-125118339D01*
X103755343Y-125118339D01*
X103681741Y-125128029D01*
X103488078Y-125153525D01*
X103483938Y-125154658D01*
X103483936Y-125154658D01*
X103416037Y-125173233D01*
X103223928Y-125225788D01*
X103219980Y-125227472D01*
X102975982Y-125331546D01*
X102975978Y-125331548D01*
X102972030Y-125333232D01*
X102952125Y-125345145D01*
X102740725Y-125471664D01*
X102740721Y-125471667D01*
X102737043Y-125473868D01*
X102523318Y-125645094D01*
X102334808Y-125843742D01*
X102175002Y-126066136D01*
X102046857Y-126308161D01*
X102045385Y-126312184D01*
X102045383Y-126312188D01*
X102038314Y-126331506D01*
X101952743Y-126565337D01*
X101894404Y-126832907D01*
X101872917Y-127105918D01*
X100817756Y-127105918D01*
X100800567Y-126853778D01*
X100745032Y-126585612D01*
X100653617Y-126327465D01*
X100528013Y-126084112D01*
X100518040Y-126069921D01*
X100373008Y-125863562D01*
X100370545Y-125860057D01*
X100184125Y-125659445D01*
X100180810Y-125656731D01*
X100180806Y-125656728D01*
X100019304Y-125524540D01*
X99972205Y-125485990D01*
X99738704Y-125342901D01*
X99734768Y-125341173D01*
X99491873Y-125234549D01*
X99491869Y-125234548D01*
X99487945Y-125232825D01*
X99224566Y-125157800D01*
X99220324Y-125157196D01*
X99220318Y-125157195D01*
X99015387Y-125128029D01*
X98953443Y-125119213D01*
X98809589Y-125118460D01*
X98683877Y-125117802D01*
X98683871Y-125117802D01*
X98679591Y-125117780D01*
X98675347Y-125118339D01*
X98675343Y-125118339D01*
X98601741Y-125128029D01*
X98408078Y-125153525D01*
X98403938Y-125154658D01*
X98403936Y-125154658D01*
X98336037Y-125173233D01*
X98143928Y-125225788D01*
X98139980Y-125227472D01*
X97895982Y-125331546D01*
X97895978Y-125331548D01*
X97892030Y-125333232D01*
X97872125Y-125345145D01*
X97660725Y-125471664D01*
X97660721Y-125471667D01*
X97657043Y-125473868D01*
X97443318Y-125645094D01*
X97254808Y-125843742D01*
X97095002Y-126066136D01*
X96966857Y-126308161D01*
X96965385Y-126312184D01*
X96965383Y-126312188D01*
X96958314Y-126331506D01*
X96872743Y-126565337D01*
X96814404Y-126832907D01*
X96792917Y-127105918D01*
X96139000Y-127105918D01*
X96139000Y-119893703D01*
X115238743Y-119893703D01*
X115276268Y-120178734D01*
X115352129Y-120456036D01*
X115464923Y-120720476D01*
X115612561Y-120967161D01*
X115792313Y-121191528D01*
X116000851Y-121389423D01*
X116234317Y-121557186D01*
X116238112Y-121559195D01*
X116238113Y-121559196D01*
X116259869Y-121570715D01*
X116488392Y-121691712D01*
X116758373Y-121790511D01*
X117039264Y-121851755D01*
X117067841Y-121854004D01*
X117262282Y-121869307D01*
X117262291Y-121869307D01*
X117264739Y-121869500D01*
X117420271Y-121869500D01*
X117422407Y-121869354D01*
X117422418Y-121869354D01*
X117630548Y-121855165D01*
X117630554Y-121855164D01*
X117634825Y-121854873D01*
X117639020Y-121854004D01*
X117639022Y-121854004D01*
X117775584Y-121825723D01*
X117916342Y-121796574D01*
X118187343Y-121700607D01*
X118442812Y-121568750D01*
X118446313Y-121566289D01*
X118446317Y-121566287D01*
X118560418Y-121486095D01*
X118678023Y-121403441D01*
X118888622Y-121207740D01*
X119070713Y-120985268D01*
X119220927Y-120740142D01*
X119336483Y-120476898D01*
X119415244Y-120200406D01*
X119455751Y-119915784D01*
X119455845Y-119897951D01*
X119457235Y-119632583D01*
X119457235Y-119632576D01*
X119457257Y-119628297D01*
X119419732Y-119343266D01*
X119343871Y-119065964D01*
X119231077Y-118801524D01*
X119083439Y-118554839D01*
X118903687Y-118330472D01*
X118695149Y-118132577D01*
X118461683Y-117964814D01*
X118439843Y-117953250D01*
X118416654Y-117940972D01*
X118207608Y-117830288D01*
X117937627Y-117731489D01*
X117656736Y-117670245D01*
X117625685Y-117667801D01*
X117433718Y-117652693D01*
X117433709Y-117652693D01*
X117431261Y-117652500D01*
X117275729Y-117652500D01*
X117273593Y-117652646D01*
X117273582Y-117652646D01*
X117065452Y-117666835D01*
X117065446Y-117666836D01*
X117061175Y-117667127D01*
X117056980Y-117667996D01*
X117056978Y-117667996D01*
X116920416Y-117696277D01*
X116779658Y-117725426D01*
X116508657Y-117821393D01*
X116253188Y-117953250D01*
X116249687Y-117955711D01*
X116249683Y-117955713D01*
X116239594Y-117962804D01*
X116017977Y-118118559D01*
X115807378Y-118314260D01*
X115625287Y-118536732D01*
X115475073Y-118781858D01*
X115359517Y-119045102D01*
X115280756Y-119321594D01*
X115240249Y-119606216D01*
X115240227Y-119610505D01*
X115240226Y-119610512D01*
X115238765Y-119889417D01*
X115238743Y-119893703D01*
X96139000Y-119893703D01*
X96139000Y-116585000D01*
X96159002Y-116516879D01*
X96212658Y-116470386D01*
X96265000Y-116459000D01*
X138431000Y-116459000D01*
X138499121Y-116479002D01*
G37*
G04 #@! TD.AperFunction*
M02*
