G04 #@! TF.GenerationSoftware,KiCad,Pcbnew,(6.0.0)*
G04 #@! TF.CreationDate,2022-06-27T08:37:13-07:00*
G04 #@! TF.ProjectId,sen,73656e2e-6b69-4636-9164-5f7063625858,rev?*
G04 #@! TF.SameCoordinates,Original*
G04 #@! TF.FileFunction,Paste,Top*
G04 #@! TF.FilePolarity,Positive*
%FSLAX46Y46*%
G04 Gerber Fmt 4.6, Leading zero omitted, Abs format (unit mm)*
G04 Created by KiCad (PCBNEW (6.0.0)) date 2022-06-27 08:37:13*
%MOMM*%
%LPD*%
G01*
G04 APERTURE LIST*
G04 Aperture macros list*
%AMRoundRect*
0 Rectangle with rounded corners*
0 $1 Rounding radius*
0 $2 $3 $4 $5 $6 $7 $8 $9 X,Y pos of 4 corners*
0 Add a 4 corners polygon primitive as box body*
4,1,4,$2,$3,$4,$5,$6,$7,$8,$9,$2,$3,0*
0 Add four circle primitives for the rounded corners*
1,1,$1+$1,$2,$3*
1,1,$1+$1,$4,$5*
1,1,$1+$1,$6,$7*
1,1,$1+$1,$8,$9*
0 Add four rect primitives between the rounded corners*
20,1,$1+$1,$2,$3,$4,$5,0*
20,1,$1+$1,$4,$5,$6,$7,0*
20,1,$1+$1,$6,$7,$8,$9,0*
20,1,$1+$1,$8,$9,$2,$3,0*%
G04 Aperture macros list end*
%ADD10RoundRect,0.250000X-0.250000X-0.475000X0.250000X-0.475000X0.250000X0.475000X-0.250000X0.475000X0*%
%ADD11RoundRect,0.200000X0.275000X-0.200000X0.275000X0.200000X-0.275000X0.200000X-0.275000X-0.200000X0*%
%ADD12RoundRect,0.200000X0.200000X0.275000X-0.200000X0.275000X-0.200000X-0.275000X0.200000X-0.275000X0*%
%ADD13RoundRect,0.200000X-0.200000X-0.275000X0.200000X-0.275000X0.200000X0.275000X-0.200000X0.275000X0*%
%ADD14RoundRect,0.225000X0.225000X0.250000X-0.225000X0.250000X-0.225000X-0.250000X0.225000X-0.250000X0*%
%ADD15RoundRect,0.100000X0.637500X0.100000X-0.637500X0.100000X-0.637500X-0.100000X0.637500X-0.100000X0*%
%ADD16RoundRect,0.150000X0.825000X0.150000X-0.825000X0.150000X-0.825000X-0.150000X0.825000X-0.150000X0*%
%ADD17RoundRect,0.250000X0.250000X0.475000X-0.250000X0.475000X-0.250000X-0.475000X0.250000X-0.475000X0*%
%ADD18RoundRect,0.225000X-0.225000X-0.250000X0.225000X-0.250000X0.225000X0.250000X-0.225000X0.250000X0*%
%ADD19R,0.900000X1.200000*%
G04 APERTURE END LIST*
D10*
X155358048Y-128270000D03*
X157258048Y-128270000D03*
D11*
X144878048Y-55943000D03*
X144878048Y-54293000D03*
D12*
X162467048Y-40894000D03*
X160817048Y-40894000D03*
D13*
X147990048Y-109200000D03*
X149640048Y-109200000D03*
D14*
X159623048Y-44704000D03*
X158073048Y-44704000D03*
D13*
X144561048Y-40894000D03*
X146211048Y-40894000D03*
D15*
X157646548Y-108193000D03*
X157646548Y-107543000D03*
X157646548Y-106893000D03*
X157646548Y-106243000D03*
X157646548Y-105593000D03*
X157646548Y-104943000D03*
X157646548Y-104293000D03*
X157646548Y-103643000D03*
X151921548Y-103643000D03*
X151921548Y-104293000D03*
X151921548Y-104943000D03*
X151921548Y-105593000D03*
X151921548Y-106243000D03*
X151921548Y-106893000D03*
X151921548Y-107543000D03*
X151921548Y-108193000D03*
D11*
X155038048Y-93535000D03*
X155038048Y-91885000D03*
D14*
X159623048Y-82296000D03*
X158073048Y-82296000D03*
D11*
X144878048Y-74485000D03*
X144878048Y-72835000D03*
D13*
X144561048Y-80518000D03*
X146211048Y-80518000D03*
D11*
X144878048Y-93535000D03*
X144878048Y-91885000D03*
D12*
X162467048Y-59690000D03*
X160817048Y-59690000D03*
D14*
X148955048Y-44704000D03*
X147405048Y-44704000D03*
D13*
X144561048Y-42926000D03*
X146211048Y-42926000D03*
D16*
X155989048Y-67310000D03*
X155989048Y-66040000D03*
X155989048Y-64770000D03*
X155989048Y-63500000D03*
X155989048Y-62230000D03*
X155989048Y-60960000D03*
X155989048Y-59690000D03*
X151039048Y-59690000D03*
X151039048Y-60960000D03*
X151039048Y-62230000D03*
X151039048Y-63500000D03*
X151039048Y-64770000D03*
X151039048Y-66040000D03*
X151039048Y-67310000D03*
X155989048Y-86106000D03*
X155989048Y-84836000D03*
X155989048Y-83566000D03*
X155989048Y-82296000D03*
X155989048Y-81026000D03*
X155989048Y-79756000D03*
X155989048Y-78486000D03*
X151039048Y-78486000D03*
X151039048Y-79756000D03*
X151039048Y-81026000D03*
X151039048Y-82296000D03*
X151039048Y-83566000D03*
X151039048Y-84836000D03*
X151039048Y-86106000D03*
D11*
X155038048Y-74739000D03*
X155038048Y-73089000D03*
D10*
X149770048Y-128270000D03*
X151670048Y-128270000D03*
D13*
X147990048Y-106660000D03*
X149640048Y-106660000D03*
D12*
X162467048Y-78486000D03*
X160817048Y-78486000D03*
X162467048Y-42418000D03*
X160817048Y-42418000D03*
X162467048Y-80010000D03*
X160817048Y-80010000D03*
D17*
X158528048Y-96520000D03*
X156628048Y-96520000D03*
D18*
X157311048Y-101600000D03*
X158861048Y-101600000D03*
D11*
X155038048Y-55943000D03*
X155038048Y-54293000D03*
D19*
X144752048Y-128270000D03*
X148052048Y-128270000D03*
X158976048Y-128270000D03*
X162276048Y-128270000D03*
D12*
X155736048Y-101600000D03*
X154086048Y-101600000D03*
D14*
X148955048Y-63500000D03*
X147405048Y-63500000D03*
D16*
X155989048Y-48514000D03*
X155989048Y-47244000D03*
X155989048Y-45974000D03*
X155989048Y-44704000D03*
X155989048Y-43434000D03*
X155989048Y-42164000D03*
X155989048Y-40894000D03*
X151039048Y-40894000D03*
X151039048Y-42164000D03*
X151039048Y-43434000D03*
X151039048Y-44704000D03*
X151039048Y-45974000D03*
X151039048Y-47244000D03*
X151039048Y-48514000D03*
D13*
X144561048Y-61722000D03*
X146211048Y-61722000D03*
D14*
X148955048Y-82296000D03*
X147405048Y-82296000D03*
D13*
X144561048Y-59690000D03*
X146211048Y-59690000D03*
D14*
X159623048Y-63500000D03*
X158073048Y-63500000D03*
D13*
X144561048Y-78486000D03*
X146211048Y-78486000D03*
D12*
X162467048Y-61214000D03*
X160817048Y-61214000D03*
M02*
