G04 #@! TF.GenerationSoftware,KiCad,Pcbnew,(6.0.0)*
G04 #@! TF.CreationDate,2022-06-27T08:37:13-07:00*
G04 #@! TF.ProjectId,sen,73656e2e-6b69-4636-9164-5f7063625858,rev?*
G04 #@! TF.SameCoordinates,Original*
G04 #@! TF.FileFunction,Legend,Top*
G04 #@! TF.FilePolarity,Positive*
%FSLAX46Y46*%
G04 Gerber Fmt 4.6, Leading zero omitted, Abs format (unit mm)*
G04 Created by KiCad (PCBNEW (6.0.0)) date 2022-06-27 08:37:13*
%MOMM*%
%LPD*%
G01*
G04 APERTURE LIST*
G04 Aperture macros list*
%AMRoundRect*
0 Rectangle with rounded corners*
0 $1 Rounding radius*
0 $2 $3 $4 $5 $6 $7 $8 $9 X,Y pos of 4 corners*
0 Add a 4 corners polygon primitive as box body*
4,1,4,$2,$3,$4,$5,$6,$7,$8,$9,$2,$3,0*
0 Add four circle primitives for the rounded corners*
1,1,$1+$1,$2,$3*
1,1,$1+$1,$4,$5*
1,1,$1+$1,$6,$7*
1,1,$1+$1,$8,$9*
0 Add four rect primitives between the rounded corners*
20,1,$1+$1,$2,$3,$4,$5,0*
20,1,$1+$1,$4,$5,$6,$7,0*
20,1,$1+$1,$6,$7,$8,$9,0*
20,1,$1+$1,$8,$9,$2,$3,0*%
G04 Aperture macros list end*
%ADD10C,0.150000*%
%ADD11C,0.120000*%
%ADD12R,1.800000X1.800000*%
%ADD13C,1.800000*%
%ADD14R,1.930000X1.830000*%
%ADD15C,2.130000*%
%ADD16RoundRect,0.250000X-0.250000X-0.475000X0.250000X-0.475000X0.250000X0.475000X-0.250000X0.475000X0*%
%ADD17R,1.700000X1.700000*%
%ADD18O,1.700000X1.700000*%
%ADD19RoundRect,0.200000X0.275000X-0.200000X0.275000X0.200000X-0.275000X0.200000X-0.275000X-0.200000X0*%
%ADD20RoundRect,0.200000X0.200000X0.275000X-0.200000X0.275000X-0.200000X-0.275000X0.200000X-0.275000X0*%
%ADD21RoundRect,0.200000X-0.200000X-0.275000X0.200000X-0.275000X0.200000X0.275000X-0.200000X0.275000X0*%
%ADD22RoundRect,0.225000X0.225000X0.250000X-0.225000X0.250000X-0.225000X-0.250000X0.225000X-0.250000X0*%
%ADD23R,1.500000X2.300000*%
%ADD24O,1.500000X2.300000*%
%ADD25RoundRect,0.100000X0.637500X0.100000X-0.637500X0.100000X-0.637500X-0.100000X0.637500X-0.100000X0*%
%ADD26RoundRect,0.150000X0.825000X0.150000X-0.825000X0.150000X-0.825000X-0.150000X0.825000X-0.150000X0*%
%ADD27RoundRect,0.250000X0.250000X0.475000X-0.250000X0.475000X-0.250000X-0.475000X0.250000X-0.475000X0*%
%ADD28RoundRect,0.225000X-0.225000X-0.250000X0.225000X-0.250000X0.225000X0.250000X-0.225000X0.250000X0*%
%ADD29RoundRect,0.250000X0.600000X-0.600000X0.600000X0.600000X-0.600000X0.600000X-0.600000X-0.600000X0*%
%ADD30C,1.700000*%
%ADD31R,0.900000X1.200000*%
G04 APERTURE END LIST*
D10*
X156141381Y-126947142D02*
X156093762Y-126994761D01*
X155950905Y-127042380D01*
X155855667Y-127042380D01*
X155712809Y-126994761D01*
X155617571Y-126899523D01*
X155569952Y-126804285D01*
X155522333Y-126613809D01*
X155522333Y-126470952D01*
X155569952Y-126280476D01*
X155617571Y-126185238D01*
X155712809Y-126090000D01*
X155855667Y-126042380D01*
X155950905Y-126042380D01*
X156093762Y-126090000D01*
X156141381Y-126137619D01*
X156522333Y-126137619D02*
X156569952Y-126090000D01*
X156665190Y-126042380D01*
X156903286Y-126042380D01*
X156998524Y-126090000D01*
X157046143Y-126137619D01*
X157093762Y-126232857D01*
X157093762Y-126328095D01*
X157046143Y-126470952D01*
X156474714Y-127042380D01*
X157093762Y-127042380D01*
X160800714Y-93202380D02*
X160800714Y-93916666D01*
X160753095Y-94059523D01*
X160657857Y-94154761D01*
X160515000Y-94202380D01*
X160419762Y-94202380D01*
X161705476Y-93535714D02*
X161705476Y-94202380D01*
X161467381Y-93154761D02*
X161229286Y-93869047D01*
X161848333Y-93869047D01*
X143900428Y-55760857D02*
X143424238Y-56094190D01*
X143900428Y-56332285D02*
X142900428Y-56332285D01*
X142900428Y-55951333D01*
X142948048Y-55856095D01*
X142995667Y-55808476D01*
X143090905Y-55760857D01*
X143233762Y-55760857D01*
X143329000Y-55808476D01*
X143376619Y-55856095D01*
X143424238Y-55951333D01*
X143424238Y-56332285D01*
X143900428Y-54808476D02*
X143900428Y-55379904D01*
X143900428Y-55094190D02*
X142900428Y-55094190D01*
X143043286Y-55189428D01*
X143138524Y-55284666D01*
X143186143Y-55379904D01*
X143900428Y-54332285D02*
X143900428Y-54141809D01*
X143852809Y-54046571D01*
X143805190Y-53998952D01*
X143662333Y-53903714D01*
X143471857Y-53856095D01*
X143090905Y-53856095D01*
X142995667Y-53903714D01*
X142948048Y-53951333D01*
X142900428Y-54046571D01*
X142900428Y-54237047D01*
X142948048Y-54332285D01*
X142995667Y-54379904D01*
X143090905Y-54427523D01*
X143329000Y-54427523D01*
X143424238Y-54379904D01*
X143471857Y-54332285D01*
X143519476Y-54237047D01*
X143519476Y-54046571D01*
X143471857Y-53951333D01*
X143424238Y-53903714D01*
X143329000Y-53856095D01*
X160999190Y-42776380D02*
X160665857Y-42300190D01*
X160427762Y-42776380D02*
X160427762Y-41776380D01*
X160808714Y-41776380D01*
X160903952Y-41824000D01*
X160951571Y-41871619D01*
X160999190Y-41966857D01*
X160999190Y-42109714D01*
X160951571Y-42204952D01*
X160903952Y-42252571D01*
X160808714Y-42300190D01*
X160427762Y-42300190D01*
X161951571Y-42776380D02*
X161380143Y-42776380D01*
X161665857Y-42776380D02*
X161665857Y-41776380D01*
X161570619Y-41919238D01*
X161475381Y-42014476D01*
X161380143Y-42062095D01*
X162856333Y-41776380D02*
X162380143Y-41776380D01*
X162332524Y-42252571D01*
X162380143Y-42204952D01*
X162475381Y-42157333D01*
X162713476Y-42157333D01*
X162808714Y-42204952D01*
X162856333Y-42252571D01*
X162903952Y-42347809D01*
X162903952Y-42585904D01*
X162856333Y-42681142D01*
X162808714Y-42728761D01*
X162713476Y-42776380D01*
X162475381Y-42776380D01*
X162380143Y-42728761D01*
X162332524Y-42681142D01*
X148648381Y-108222380D02*
X148315048Y-107746190D01*
X148076952Y-108222380D02*
X148076952Y-107222380D01*
X148457905Y-107222380D01*
X148553143Y-107270000D01*
X148600762Y-107317619D01*
X148648381Y-107412857D01*
X148648381Y-107555714D01*
X148600762Y-107650952D01*
X148553143Y-107698571D01*
X148457905Y-107746190D01*
X148076952Y-107746190D01*
X148981714Y-107222380D02*
X149600762Y-107222380D01*
X149267428Y-107603333D01*
X149410286Y-107603333D01*
X149505524Y-107650952D01*
X149553143Y-107698571D01*
X149600762Y-107793809D01*
X149600762Y-108031904D01*
X149553143Y-108127142D01*
X149505524Y-108174761D01*
X149410286Y-108222380D01*
X149124571Y-108222380D01*
X149029333Y-108174761D01*
X148981714Y-108127142D01*
X158681381Y-46491142D02*
X158633762Y-46538761D01*
X158490905Y-46586380D01*
X158395667Y-46586380D01*
X158252809Y-46538761D01*
X158157571Y-46443523D01*
X158109952Y-46348285D01*
X158062333Y-46157809D01*
X158062333Y-46014952D01*
X158109952Y-45824476D01*
X158157571Y-45729238D01*
X158252809Y-45634000D01*
X158395667Y-45586380D01*
X158490905Y-45586380D01*
X158633762Y-45634000D01*
X158681381Y-45681619D01*
X159014714Y-45586380D02*
X159681381Y-45586380D01*
X159252809Y-46586380D01*
X144743190Y-39916380D02*
X144409857Y-39440190D01*
X144171762Y-39916380D02*
X144171762Y-38916380D01*
X144552714Y-38916380D01*
X144647952Y-38964000D01*
X144695571Y-39011619D01*
X144743190Y-39106857D01*
X144743190Y-39249714D01*
X144695571Y-39344952D01*
X144647952Y-39392571D01*
X144552714Y-39440190D01*
X144171762Y-39440190D01*
X145695571Y-39916380D02*
X145124143Y-39916380D01*
X145409857Y-39916380D02*
X145409857Y-38916380D01*
X145314619Y-39059238D01*
X145219381Y-39154476D01*
X145124143Y-39202095D01*
X146028905Y-38916380D02*
X146647952Y-38916380D01*
X146314619Y-39297333D01*
X146457476Y-39297333D01*
X146552714Y-39344952D01*
X146600333Y-39392571D01*
X146647952Y-39487809D01*
X146647952Y-39725904D01*
X146600333Y-39821142D01*
X146552714Y-39868761D01*
X146457476Y-39916380D01*
X146171762Y-39916380D01*
X146076524Y-39868761D01*
X146028905Y-39821142D01*
X155834143Y-131296880D02*
X155834143Y-132106404D01*
X155881762Y-132201642D01*
X155929381Y-132249261D01*
X156024619Y-132296880D01*
X156215095Y-132296880D01*
X156310333Y-132249261D01*
X156357952Y-132201642D01*
X156405571Y-132106404D01*
X156405571Y-131296880D01*
X157405571Y-132296880D02*
X156834143Y-132296880D01*
X157119857Y-132296880D02*
X157119857Y-131296880D01*
X157024619Y-131439738D01*
X156929381Y-131534976D01*
X156834143Y-131582595D01*
X154022143Y-108820380D02*
X154022143Y-109629904D01*
X154069762Y-109725142D01*
X154117381Y-109772761D01*
X154212619Y-109820380D01*
X154403095Y-109820380D01*
X154498333Y-109772761D01*
X154545952Y-109725142D01*
X154593571Y-109629904D01*
X154593571Y-108820380D01*
X155022143Y-108915619D02*
X155069762Y-108868000D01*
X155165000Y-108820380D01*
X155403095Y-108820380D01*
X155498333Y-108868000D01*
X155545952Y-108915619D01*
X155593571Y-109010857D01*
X155593571Y-109106095D01*
X155545952Y-109248952D01*
X154974524Y-109820380D01*
X155593571Y-109820380D01*
X154060428Y-93352857D02*
X153584238Y-93686190D01*
X154060428Y-93924285D02*
X153060428Y-93924285D01*
X153060428Y-93543333D01*
X153108048Y-93448095D01*
X153155667Y-93400476D01*
X153250905Y-93352857D01*
X153393762Y-93352857D01*
X153489000Y-93400476D01*
X153536619Y-93448095D01*
X153584238Y-93543333D01*
X153584238Y-93924285D01*
X154060428Y-92400476D02*
X154060428Y-92971904D01*
X154060428Y-92686190D02*
X153060428Y-92686190D01*
X153203286Y-92781428D01*
X153298524Y-92876666D01*
X153346143Y-92971904D01*
X153489000Y-91829047D02*
X153441381Y-91924285D01*
X153393762Y-91971904D01*
X153298524Y-92019523D01*
X153250905Y-92019523D01*
X153155667Y-91971904D01*
X153108048Y-91924285D01*
X153060428Y-91829047D01*
X153060428Y-91638571D01*
X153108048Y-91543333D01*
X153155667Y-91495714D01*
X153250905Y-91448095D01*
X153298524Y-91448095D01*
X153393762Y-91495714D01*
X153441381Y-91543333D01*
X153489000Y-91638571D01*
X153489000Y-91829047D01*
X153536619Y-91924285D01*
X153584238Y-91971904D01*
X153679476Y-92019523D01*
X153869952Y-92019523D01*
X153965190Y-91971904D01*
X154012809Y-91924285D01*
X154060428Y-91829047D01*
X154060428Y-91638571D01*
X154012809Y-91543333D01*
X153965190Y-91495714D01*
X153869952Y-91448095D01*
X153679476Y-91448095D01*
X153584238Y-91495714D01*
X153536619Y-91543333D01*
X153489000Y-91638571D01*
X158173381Y-82940142D02*
X158125762Y-82987761D01*
X157982905Y-83035380D01*
X157887667Y-83035380D01*
X157744809Y-82987761D01*
X157649571Y-82892523D01*
X157601952Y-82797285D01*
X157554333Y-82606809D01*
X157554333Y-82463952D01*
X157601952Y-82273476D01*
X157649571Y-82178238D01*
X157744809Y-82083000D01*
X157887667Y-82035380D01*
X157982905Y-82035380D01*
X158125762Y-82083000D01*
X158173381Y-82130619D01*
X159078143Y-82035380D02*
X158601952Y-82035380D01*
X158554333Y-82511571D01*
X158601952Y-82463952D01*
X158697190Y-82416333D01*
X158935286Y-82416333D01*
X159030524Y-82463952D01*
X159078143Y-82511571D01*
X159125762Y-82606809D01*
X159125762Y-82844904D01*
X159078143Y-82940142D01*
X159030524Y-82987761D01*
X158935286Y-83035380D01*
X158697190Y-83035380D01*
X158601952Y-82987761D01*
X158554333Y-82940142D01*
X143900428Y-74302857D02*
X143424238Y-74636190D01*
X143900428Y-74874285D02*
X142900428Y-74874285D01*
X142900428Y-74493333D01*
X142948048Y-74398095D01*
X142995667Y-74350476D01*
X143090905Y-74302857D01*
X143233762Y-74302857D01*
X143329000Y-74350476D01*
X143376619Y-74398095D01*
X143424238Y-74493333D01*
X143424238Y-74874285D01*
X142995667Y-73921904D02*
X142948048Y-73874285D01*
X142900428Y-73779047D01*
X142900428Y-73540952D01*
X142948048Y-73445714D01*
X142995667Y-73398095D01*
X143090905Y-73350476D01*
X143186143Y-73350476D01*
X143329000Y-73398095D01*
X143900428Y-73969523D01*
X143900428Y-73350476D01*
X142900428Y-72731428D02*
X142900428Y-72636190D01*
X142948048Y-72540952D01*
X142995667Y-72493333D01*
X143090905Y-72445714D01*
X143281381Y-72398095D01*
X143519476Y-72398095D01*
X143709952Y-72445714D01*
X143805190Y-72493333D01*
X143852809Y-72540952D01*
X143900428Y-72636190D01*
X143900428Y-72731428D01*
X143852809Y-72826666D01*
X143805190Y-72874285D01*
X143709952Y-72921904D01*
X143519476Y-72969523D01*
X143281381Y-72969523D01*
X143090905Y-72921904D01*
X142995667Y-72874285D01*
X142948048Y-72826666D01*
X142900428Y-72731428D01*
X145219381Y-79540380D02*
X144886048Y-79064190D01*
X144647952Y-79540380D02*
X144647952Y-78540380D01*
X145028905Y-78540380D01*
X145124143Y-78588000D01*
X145171762Y-78635619D01*
X145219381Y-78730857D01*
X145219381Y-78873714D01*
X145171762Y-78968952D01*
X145124143Y-79016571D01*
X145028905Y-79064190D01*
X144647952Y-79064190D01*
X146076524Y-78873714D02*
X146076524Y-79540380D01*
X145838428Y-78492761D02*
X145600333Y-79207047D01*
X146219381Y-79207047D01*
X143900428Y-93352857D02*
X143424238Y-93686190D01*
X143900428Y-93924285D02*
X142900428Y-93924285D01*
X142900428Y-93543333D01*
X142948048Y-93448095D01*
X142995667Y-93400476D01*
X143090905Y-93352857D01*
X143233762Y-93352857D01*
X143329000Y-93400476D01*
X143376619Y-93448095D01*
X143424238Y-93543333D01*
X143424238Y-93924285D01*
X143900428Y-92400476D02*
X143900428Y-92971904D01*
X143900428Y-92686190D02*
X142900428Y-92686190D01*
X143043286Y-92781428D01*
X143138524Y-92876666D01*
X143186143Y-92971904D01*
X142900428Y-91543333D02*
X142900428Y-91733809D01*
X142948048Y-91829047D01*
X142995667Y-91876666D01*
X143138524Y-91971904D01*
X143329000Y-92019523D01*
X143709952Y-92019523D01*
X143805190Y-91971904D01*
X143852809Y-91924285D01*
X143900428Y-91829047D01*
X143900428Y-91638571D01*
X143852809Y-91543333D01*
X143805190Y-91495714D01*
X143709952Y-91448095D01*
X143471857Y-91448095D01*
X143376619Y-91495714D01*
X143329000Y-91543333D01*
X143281381Y-91638571D01*
X143281381Y-91829047D01*
X143329000Y-91924285D01*
X143376619Y-91971904D01*
X143471857Y-92019523D01*
X160999190Y-61572380D02*
X160665857Y-61096190D01*
X160427762Y-61572380D02*
X160427762Y-60572380D01*
X160808714Y-60572380D01*
X160903952Y-60620000D01*
X160951571Y-60667619D01*
X160999190Y-60762857D01*
X160999190Y-60905714D01*
X160951571Y-61000952D01*
X160903952Y-61048571D01*
X160808714Y-61096190D01*
X160427762Y-61096190D01*
X161951571Y-61572380D02*
X161380143Y-61572380D01*
X161665857Y-61572380D02*
X161665857Y-60572380D01*
X161570619Y-60715238D01*
X161475381Y-60810476D01*
X161380143Y-60858095D01*
X162903952Y-61572380D02*
X162332524Y-61572380D01*
X162618238Y-61572380D02*
X162618238Y-60572380D01*
X162523000Y-60715238D01*
X162427762Y-60810476D01*
X162332524Y-60858095D01*
X147537190Y-46491142D02*
X147489571Y-46538761D01*
X147346714Y-46586380D01*
X147251476Y-46586380D01*
X147108619Y-46538761D01*
X147013381Y-46443523D01*
X146965762Y-46348285D01*
X146918143Y-46157809D01*
X146918143Y-46014952D01*
X146965762Y-45824476D01*
X147013381Y-45729238D01*
X147108619Y-45634000D01*
X147251476Y-45586380D01*
X147346714Y-45586380D01*
X147489571Y-45634000D01*
X147537190Y-45681619D01*
X148489571Y-46586380D02*
X147918143Y-46586380D01*
X148203857Y-46586380D02*
X148203857Y-45586380D01*
X148108619Y-45729238D01*
X148013381Y-45824476D01*
X147918143Y-45872095D01*
X149108619Y-45586380D02*
X149203857Y-45586380D01*
X149299095Y-45634000D01*
X149346714Y-45681619D01*
X149394333Y-45776857D01*
X149441952Y-45967333D01*
X149441952Y-46205428D01*
X149394333Y-46395904D01*
X149346714Y-46491142D01*
X149299095Y-46538761D01*
X149203857Y-46586380D01*
X149108619Y-46586380D01*
X149013381Y-46538761D01*
X148965762Y-46491142D01*
X148918143Y-46395904D01*
X148870524Y-46205428D01*
X148870524Y-45967333D01*
X148918143Y-45776857D01*
X148965762Y-45681619D01*
X149013381Y-45634000D01*
X149108619Y-45586380D01*
X145560714Y-93202380D02*
X145560714Y-93916666D01*
X145513095Y-94059523D01*
X145417857Y-94154761D01*
X145275000Y-94202380D01*
X145179762Y-94202380D01*
X146513095Y-93202380D02*
X146036905Y-93202380D01*
X145989286Y-93678571D01*
X146036905Y-93630952D01*
X146132143Y-93583333D01*
X146370238Y-93583333D01*
X146465476Y-93630952D01*
X146513095Y-93678571D01*
X146560714Y-93773809D01*
X146560714Y-94011904D01*
X146513095Y-94107142D01*
X146465476Y-94154761D01*
X146370238Y-94202380D01*
X146132143Y-94202380D01*
X146036905Y-94154761D01*
X145989286Y-94107142D01*
X145219381Y-41948380D02*
X144886048Y-41472190D01*
X144647952Y-41948380D02*
X144647952Y-40948380D01*
X145028905Y-40948380D01*
X145124143Y-40996000D01*
X145171762Y-41043619D01*
X145219381Y-41138857D01*
X145219381Y-41281714D01*
X145171762Y-41376952D01*
X145124143Y-41424571D01*
X145028905Y-41472190D01*
X144647952Y-41472190D01*
X145552714Y-40948380D02*
X146219381Y-40948380D01*
X145790809Y-41948380D01*
X152752143Y-68232380D02*
X152752143Y-69041904D01*
X152799762Y-69137142D01*
X152847381Y-69184761D01*
X152942619Y-69232380D01*
X153133095Y-69232380D01*
X153228333Y-69184761D01*
X153275952Y-69137142D01*
X153323571Y-69041904D01*
X153323571Y-68232380D01*
X154228333Y-68565714D02*
X154228333Y-69232380D01*
X153990238Y-68184761D02*
X153752143Y-68899047D01*
X154371190Y-68899047D01*
X152752143Y-87028380D02*
X152752143Y-87837904D01*
X152799762Y-87933142D01*
X152847381Y-87980761D01*
X152942619Y-88028380D01*
X153133095Y-88028380D01*
X153228333Y-87980761D01*
X153275952Y-87933142D01*
X153323571Y-87837904D01*
X153323571Y-87028380D01*
X153704524Y-87028380D02*
X154323571Y-87028380D01*
X153990238Y-87409333D01*
X154133095Y-87409333D01*
X154228333Y-87456952D01*
X154275952Y-87504571D01*
X154323571Y-87599809D01*
X154323571Y-87837904D01*
X154275952Y-87933142D01*
X154228333Y-87980761D01*
X154133095Y-88028380D01*
X153847381Y-88028380D01*
X153752143Y-87980761D01*
X153704524Y-87933142D01*
X154060428Y-74556857D02*
X153584238Y-74890190D01*
X154060428Y-75128285D02*
X153060428Y-75128285D01*
X153060428Y-74747333D01*
X153108048Y-74652095D01*
X153155667Y-74604476D01*
X153250905Y-74556857D01*
X153393762Y-74556857D01*
X153489000Y-74604476D01*
X153536619Y-74652095D01*
X153584238Y-74747333D01*
X153584238Y-75128285D01*
X154060428Y-73604476D02*
X154060428Y-74175904D01*
X154060428Y-73890190D02*
X153060428Y-73890190D01*
X153203286Y-73985428D01*
X153298524Y-74080666D01*
X153346143Y-74175904D01*
X153060428Y-73271142D02*
X153060428Y-72604476D01*
X154060428Y-73033047D01*
X150553381Y-126947142D02*
X150505762Y-126994761D01*
X150362905Y-127042380D01*
X150267667Y-127042380D01*
X150124809Y-126994761D01*
X150029571Y-126899523D01*
X149981952Y-126804285D01*
X149934333Y-126613809D01*
X149934333Y-126470952D01*
X149981952Y-126280476D01*
X150029571Y-126185238D01*
X150124809Y-126090000D01*
X150267667Y-126042380D01*
X150362905Y-126042380D01*
X150505762Y-126090000D01*
X150553381Y-126137619D01*
X151505762Y-127042380D02*
X150934333Y-127042380D01*
X151220048Y-127042380D02*
X151220048Y-126042380D01*
X151124809Y-126185238D01*
X151029571Y-126280476D01*
X150934333Y-126328095D01*
X148648381Y-105682380D02*
X148315048Y-105206190D01*
X148076952Y-105682380D02*
X148076952Y-104682380D01*
X148457905Y-104682380D01*
X148553143Y-104730000D01*
X148600762Y-104777619D01*
X148648381Y-104872857D01*
X148648381Y-105015714D01*
X148600762Y-105110952D01*
X148553143Y-105158571D01*
X148457905Y-105206190D01*
X148076952Y-105206190D01*
X149029333Y-104777619D02*
X149076952Y-104730000D01*
X149172190Y-104682380D01*
X149410286Y-104682380D01*
X149505524Y-104730000D01*
X149553143Y-104777619D01*
X149600762Y-104872857D01*
X149600762Y-104968095D01*
X149553143Y-105110952D01*
X148981714Y-105682380D01*
X149600762Y-105682380D01*
X160999190Y-80368380D02*
X160665857Y-79892190D01*
X160427762Y-80368380D02*
X160427762Y-79368380D01*
X160808714Y-79368380D01*
X160903952Y-79416000D01*
X160951571Y-79463619D01*
X160999190Y-79558857D01*
X160999190Y-79701714D01*
X160951571Y-79796952D01*
X160903952Y-79844571D01*
X160808714Y-79892190D01*
X160427762Y-79892190D01*
X161951571Y-80368380D02*
X161380143Y-80368380D01*
X161665857Y-80368380D02*
X161665857Y-79368380D01*
X161570619Y-79511238D01*
X161475381Y-79606476D01*
X161380143Y-79654095D01*
X162332524Y-79463619D02*
X162380143Y-79416000D01*
X162475381Y-79368380D01*
X162713476Y-79368380D01*
X162808714Y-79416000D01*
X162856333Y-79463619D01*
X162903952Y-79558857D01*
X162903952Y-79654095D01*
X162856333Y-79796952D01*
X162284905Y-80368380D01*
X162903952Y-80368380D01*
X161475381Y-44300380D02*
X161142048Y-43824190D01*
X160903952Y-44300380D02*
X160903952Y-43300380D01*
X161284905Y-43300380D01*
X161380143Y-43348000D01*
X161427762Y-43395619D01*
X161475381Y-43490857D01*
X161475381Y-43633714D01*
X161427762Y-43728952D01*
X161380143Y-43776571D01*
X161284905Y-43824190D01*
X160903952Y-43824190D01*
X161951571Y-44300380D02*
X162142048Y-44300380D01*
X162237286Y-44252761D01*
X162284905Y-44205142D01*
X162380143Y-44062285D01*
X162427762Y-43871809D01*
X162427762Y-43490857D01*
X162380143Y-43395619D01*
X162332524Y-43348000D01*
X162237286Y-43300380D01*
X162046809Y-43300380D01*
X161951571Y-43348000D01*
X161903952Y-43395619D01*
X161856333Y-43490857D01*
X161856333Y-43728952D01*
X161903952Y-43824190D01*
X161951571Y-43871809D01*
X162046809Y-43919428D01*
X162237286Y-43919428D01*
X162332524Y-43871809D01*
X162380143Y-43824190D01*
X162427762Y-43728952D01*
X161475381Y-81892380D02*
X161142048Y-81416190D01*
X160903952Y-81892380D02*
X160903952Y-80892380D01*
X161284905Y-80892380D01*
X161380143Y-80940000D01*
X161427762Y-80987619D01*
X161475381Y-81082857D01*
X161475381Y-81225714D01*
X161427762Y-81320952D01*
X161380143Y-81368571D01*
X161284905Y-81416190D01*
X160903952Y-81416190D01*
X162332524Y-80892380D02*
X162142048Y-80892380D01*
X162046809Y-80940000D01*
X161999190Y-80987619D01*
X161903952Y-81130476D01*
X161856333Y-81320952D01*
X161856333Y-81701904D01*
X161903952Y-81797142D01*
X161951571Y-81844761D01*
X162046809Y-81892380D01*
X162237286Y-81892380D01*
X162332524Y-81844761D01*
X162380143Y-81797142D01*
X162427762Y-81701904D01*
X162427762Y-81463809D01*
X162380143Y-81368571D01*
X162332524Y-81320952D01*
X162237286Y-81273333D01*
X162046809Y-81273333D01*
X161951571Y-81320952D01*
X161903952Y-81368571D01*
X161856333Y-81463809D01*
X157411381Y-98557142D02*
X157363762Y-98604761D01*
X157220905Y-98652380D01*
X157125667Y-98652380D01*
X156982809Y-98604761D01*
X156887571Y-98509523D01*
X156839952Y-98414285D01*
X156792333Y-98223809D01*
X156792333Y-98080952D01*
X156839952Y-97890476D01*
X156887571Y-97795238D01*
X156982809Y-97700000D01*
X157125667Y-97652380D01*
X157220905Y-97652380D01*
X157363762Y-97700000D01*
X157411381Y-97747619D01*
X157744714Y-97652380D02*
X158363762Y-97652380D01*
X158030428Y-98033333D01*
X158173286Y-98033333D01*
X158268524Y-98080952D01*
X158316143Y-98128571D01*
X158363762Y-98223809D01*
X158363762Y-98461904D01*
X158316143Y-98557142D01*
X158268524Y-98604761D01*
X158173286Y-98652380D01*
X157887571Y-98652380D01*
X157792333Y-98604761D01*
X157744714Y-98557142D01*
X157919381Y-100527142D02*
X157871762Y-100574761D01*
X157728905Y-100622380D01*
X157633667Y-100622380D01*
X157490809Y-100574761D01*
X157395571Y-100479523D01*
X157347952Y-100384285D01*
X157300333Y-100193809D01*
X157300333Y-100050952D01*
X157347952Y-99860476D01*
X157395571Y-99765238D01*
X157490809Y-99670000D01*
X157633667Y-99622380D01*
X157728905Y-99622380D01*
X157871762Y-99670000D01*
X157919381Y-99717619D01*
X158776524Y-99955714D02*
X158776524Y-100622380D01*
X158538428Y-99574761D02*
X158300333Y-100289047D01*
X158919381Y-100289047D01*
X154060428Y-55760857D02*
X153584238Y-56094190D01*
X154060428Y-56332285D02*
X153060428Y-56332285D01*
X153060428Y-55951333D01*
X153108048Y-55856095D01*
X153155667Y-55808476D01*
X153250905Y-55760857D01*
X153393762Y-55760857D01*
X153489000Y-55808476D01*
X153536619Y-55856095D01*
X153584238Y-55951333D01*
X153584238Y-56332285D01*
X153155667Y-55379904D02*
X153108048Y-55332285D01*
X153060428Y-55237047D01*
X153060428Y-54998952D01*
X153108048Y-54903714D01*
X153155667Y-54856095D01*
X153250905Y-54808476D01*
X153346143Y-54808476D01*
X153489000Y-54856095D01*
X154060428Y-55427523D01*
X154060428Y-54808476D01*
X154060428Y-53856095D02*
X154060428Y-54427523D01*
X154060428Y-54141809D02*
X153060428Y-54141809D01*
X153203286Y-54237047D01*
X153298524Y-54332285D01*
X153346143Y-54427523D01*
X161983428Y-134689833D02*
X162697714Y-134689833D01*
X162840571Y-134737452D01*
X162935809Y-134832690D01*
X162983428Y-134975547D01*
X162983428Y-135070785D01*
X162983428Y-133689833D02*
X162983428Y-134261261D01*
X162983428Y-133975547D02*
X161983428Y-133975547D01*
X162126286Y-134070785D01*
X162221524Y-134166023D01*
X162269143Y-134261261D01*
X145663952Y-126722380D02*
X145663952Y-125722380D01*
X145902048Y-125722380D01*
X146044905Y-125770000D01*
X146140143Y-125865238D01*
X146187762Y-125960476D01*
X146235381Y-126150952D01*
X146235381Y-126293809D01*
X146187762Y-126484285D01*
X146140143Y-126579523D01*
X146044905Y-126674761D01*
X145902048Y-126722380D01*
X145663952Y-126722380D01*
X147187762Y-126722380D02*
X146616333Y-126722380D01*
X146902048Y-126722380D02*
X146902048Y-125722380D01*
X146806809Y-125865238D01*
X146711571Y-125960476D01*
X146616333Y-126008095D01*
X147089714Y-126227380D02*
X147089714Y-126941666D01*
X147042095Y-127084523D01*
X146946857Y-127179761D01*
X146804000Y-127227380D01*
X146708762Y-127227380D01*
X147518286Y-126322619D02*
X147565905Y-126275000D01*
X147661143Y-126227380D01*
X147899238Y-126227380D01*
X147994476Y-126275000D01*
X148042095Y-126322619D01*
X148089714Y-126417857D01*
X148089714Y-126513095D01*
X148042095Y-126655952D01*
X147470667Y-127227380D01*
X148089714Y-127227380D01*
X159887952Y-126722380D02*
X159887952Y-125722380D01*
X160126048Y-125722380D01*
X160268905Y-125770000D01*
X160364143Y-125865238D01*
X160411762Y-125960476D01*
X160459381Y-126150952D01*
X160459381Y-126293809D01*
X160411762Y-126484285D01*
X160364143Y-126579523D01*
X160268905Y-126674761D01*
X160126048Y-126722380D01*
X159887952Y-126722380D01*
X160840333Y-125817619D02*
X160887952Y-125770000D01*
X160983190Y-125722380D01*
X161221286Y-125722380D01*
X161316524Y-125770000D01*
X161364143Y-125817619D01*
X161411762Y-125912857D01*
X161411762Y-126008095D01*
X161364143Y-126150952D01*
X160792714Y-126722380D01*
X161411762Y-126722380D01*
X154744381Y-103482380D02*
X154411048Y-103006190D01*
X154172952Y-103482380D02*
X154172952Y-102482380D01*
X154553905Y-102482380D01*
X154649143Y-102530000D01*
X154696762Y-102577619D01*
X154744381Y-102672857D01*
X154744381Y-102815714D01*
X154696762Y-102910952D01*
X154649143Y-102958571D01*
X154553905Y-103006190D01*
X154172952Y-103006190D01*
X155696762Y-103482380D02*
X155125333Y-103482380D01*
X155411048Y-103482380D02*
X155411048Y-102482380D01*
X155315809Y-102625238D01*
X155220571Y-102720476D01*
X155125333Y-102768095D01*
X148013381Y-65287142D02*
X147965762Y-65334761D01*
X147822905Y-65382380D01*
X147727667Y-65382380D01*
X147584809Y-65334761D01*
X147489571Y-65239523D01*
X147441952Y-65144285D01*
X147394333Y-64953809D01*
X147394333Y-64810952D01*
X147441952Y-64620476D01*
X147489571Y-64525238D01*
X147584809Y-64430000D01*
X147727667Y-64382380D01*
X147822905Y-64382380D01*
X147965762Y-64430000D01*
X148013381Y-64477619D01*
X148870524Y-64382380D02*
X148680048Y-64382380D01*
X148584809Y-64430000D01*
X148537190Y-64477619D01*
X148441952Y-64620476D01*
X148394333Y-64810952D01*
X148394333Y-65191904D01*
X148441952Y-65287142D01*
X148489571Y-65334761D01*
X148584809Y-65382380D01*
X148775286Y-65382380D01*
X148870524Y-65334761D01*
X148918143Y-65287142D01*
X148965762Y-65191904D01*
X148965762Y-64953809D01*
X148918143Y-64858571D01*
X148870524Y-64810952D01*
X148775286Y-64763333D01*
X148584809Y-64763333D01*
X148489571Y-64810952D01*
X148441952Y-64858571D01*
X148394333Y-64953809D01*
X152752143Y-49436380D02*
X152752143Y-50245904D01*
X152799762Y-50341142D01*
X152847381Y-50388761D01*
X152942619Y-50436380D01*
X153133095Y-50436380D01*
X153228333Y-50388761D01*
X153275952Y-50341142D01*
X153323571Y-50245904D01*
X153323571Y-49436380D01*
X154275952Y-49436380D02*
X153799762Y-49436380D01*
X153752143Y-49912571D01*
X153799762Y-49864952D01*
X153895000Y-49817333D01*
X154133095Y-49817333D01*
X154228333Y-49864952D01*
X154275952Y-49912571D01*
X154323571Y-50007809D01*
X154323571Y-50245904D01*
X154275952Y-50341142D01*
X154228333Y-50388761D01*
X154133095Y-50436380D01*
X153895000Y-50436380D01*
X153799762Y-50388761D01*
X153752143Y-50341142D01*
X145219381Y-60744380D02*
X144886048Y-60268190D01*
X144647952Y-60744380D02*
X144647952Y-59744380D01*
X145028905Y-59744380D01*
X145124143Y-59792000D01*
X145171762Y-59839619D01*
X145219381Y-59934857D01*
X145219381Y-60077714D01*
X145171762Y-60172952D01*
X145124143Y-60220571D01*
X145028905Y-60268190D01*
X144647952Y-60268190D01*
X145790809Y-60172952D02*
X145695571Y-60125333D01*
X145647952Y-60077714D01*
X145600333Y-59982476D01*
X145600333Y-59934857D01*
X145647952Y-59839619D01*
X145695571Y-59792000D01*
X145790809Y-59744380D01*
X145981286Y-59744380D01*
X146076524Y-59792000D01*
X146124143Y-59839619D01*
X146171762Y-59934857D01*
X146171762Y-59982476D01*
X146124143Y-60077714D01*
X146076524Y-60125333D01*
X145981286Y-60172952D01*
X145790809Y-60172952D01*
X145695571Y-60220571D01*
X145647952Y-60268190D01*
X145600333Y-60363428D01*
X145600333Y-60553904D01*
X145647952Y-60649142D01*
X145695571Y-60696761D01*
X145790809Y-60744380D01*
X145981286Y-60744380D01*
X146076524Y-60696761D01*
X146124143Y-60649142D01*
X146171762Y-60553904D01*
X146171762Y-60363428D01*
X146124143Y-60268190D01*
X146076524Y-60220571D01*
X145981286Y-60172952D01*
X148013381Y-84083142D02*
X147965762Y-84130761D01*
X147822905Y-84178380D01*
X147727667Y-84178380D01*
X147584809Y-84130761D01*
X147489571Y-84035523D01*
X147441952Y-83940285D01*
X147394333Y-83749809D01*
X147394333Y-83606952D01*
X147441952Y-83416476D01*
X147489571Y-83321238D01*
X147584809Y-83226000D01*
X147727667Y-83178380D01*
X147822905Y-83178380D01*
X147965762Y-83226000D01*
X148013381Y-83273619D01*
X148584809Y-83606952D02*
X148489571Y-83559333D01*
X148441952Y-83511714D01*
X148394333Y-83416476D01*
X148394333Y-83368857D01*
X148441952Y-83273619D01*
X148489571Y-83226000D01*
X148584809Y-83178380D01*
X148775286Y-83178380D01*
X148870524Y-83226000D01*
X148918143Y-83273619D01*
X148965762Y-83368857D01*
X148965762Y-83416476D01*
X148918143Y-83511714D01*
X148870524Y-83559333D01*
X148775286Y-83606952D01*
X148584809Y-83606952D01*
X148489571Y-83654571D01*
X148441952Y-83702190D01*
X148394333Y-83797428D01*
X148394333Y-83987904D01*
X148441952Y-84083142D01*
X148489571Y-84130761D01*
X148584809Y-84178380D01*
X148775286Y-84178380D01*
X148870524Y-84130761D01*
X148918143Y-84083142D01*
X148965762Y-83987904D01*
X148965762Y-83797428D01*
X148918143Y-83702190D01*
X148870524Y-83654571D01*
X148775286Y-83606952D01*
X144743190Y-58712380D02*
X144409857Y-58236190D01*
X144171762Y-58712380D02*
X144171762Y-57712380D01*
X144552714Y-57712380D01*
X144647952Y-57760000D01*
X144695571Y-57807619D01*
X144743190Y-57902857D01*
X144743190Y-58045714D01*
X144695571Y-58140952D01*
X144647952Y-58188571D01*
X144552714Y-58236190D01*
X144171762Y-58236190D01*
X145695571Y-58712380D02*
X145124143Y-58712380D01*
X145409857Y-58712380D02*
X145409857Y-57712380D01*
X145314619Y-57855238D01*
X145219381Y-57950476D01*
X145124143Y-57998095D01*
X146552714Y-58045714D02*
X146552714Y-58712380D01*
X146314619Y-57664761D02*
X146076524Y-58379047D01*
X146695571Y-58379047D01*
X158681381Y-65287142D02*
X158633762Y-65334761D01*
X158490905Y-65382380D01*
X158395667Y-65382380D01*
X158252809Y-65334761D01*
X158157571Y-65239523D01*
X158109952Y-65144285D01*
X158062333Y-64953809D01*
X158062333Y-64810952D01*
X158109952Y-64620476D01*
X158157571Y-64525238D01*
X158252809Y-64430000D01*
X158395667Y-64382380D01*
X158490905Y-64382380D01*
X158633762Y-64430000D01*
X158681381Y-64477619D01*
X159157571Y-65382380D02*
X159348048Y-65382380D01*
X159443286Y-65334761D01*
X159490905Y-65287142D01*
X159586143Y-65144285D01*
X159633762Y-64953809D01*
X159633762Y-64572857D01*
X159586143Y-64477619D01*
X159538524Y-64430000D01*
X159443286Y-64382380D01*
X159252809Y-64382380D01*
X159157571Y-64430000D01*
X159109952Y-64477619D01*
X159062333Y-64572857D01*
X159062333Y-64810952D01*
X159109952Y-64906190D01*
X159157571Y-64953809D01*
X159252809Y-65001428D01*
X159443286Y-65001428D01*
X159538524Y-64953809D01*
X159586143Y-64906190D01*
X159633762Y-64810952D01*
X144743190Y-77508380D02*
X144409857Y-77032190D01*
X144171762Y-77508380D02*
X144171762Y-76508380D01*
X144552714Y-76508380D01*
X144647952Y-76556000D01*
X144695571Y-76603619D01*
X144743190Y-76698857D01*
X144743190Y-76841714D01*
X144695571Y-76936952D01*
X144647952Y-76984571D01*
X144552714Y-77032190D01*
X144171762Y-77032190D01*
X145695571Y-77508380D02*
X145124143Y-77508380D01*
X145409857Y-77508380D02*
X145409857Y-76508380D01*
X145314619Y-76651238D01*
X145219381Y-76746476D01*
X145124143Y-76794095D01*
X146314619Y-76508380D02*
X146409857Y-76508380D01*
X146505095Y-76556000D01*
X146552714Y-76603619D01*
X146600333Y-76698857D01*
X146647952Y-76889333D01*
X146647952Y-77127428D01*
X146600333Y-77317904D01*
X146552714Y-77413142D01*
X146505095Y-77460761D01*
X146409857Y-77508380D01*
X146314619Y-77508380D01*
X146219381Y-77460761D01*
X146171762Y-77413142D01*
X146124143Y-77317904D01*
X146076524Y-77127428D01*
X146076524Y-76889333D01*
X146124143Y-76698857D01*
X146171762Y-76603619D01*
X146219381Y-76556000D01*
X146314619Y-76508380D01*
X161475381Y-63096380D02*
X161142048Y-62620190D01*
X160903952Y-63096380D02*
X160903952Y-62096380D01*
X161284905Y-62096380D01*
X161380143Y-62144000D01*
X161427762Y-62191619D01*
X161475381Y-62286857D01*
X161475381Y-62429714D01*
X161427762Y-62524952D01*
X161380143Y-62572571D01*
X161284905Y-62620190D01*
X160903952Y-62620190D01*
X162380143Y-62096380D02*
X161903952Y-62096380D01*
X161856333Y-62572571D01*
X161903952Y-62524952D01*
X161999190Y-62477333D01*
X162237286Y-62477333D01*
X162332524Y-62524952D01*
X162380143Y-62572571D01*
X162427762Y-62667809D01*
X162427762Y-62905904D01*
X162380143Y-63001142D01*
X162332524Y-63048761D01*
X162237286Y-63096380D01*
X161999190Y-63096380D01*
X161903952Y-63048761D01*
X161856333Y-63001142D01*
D11*
X156046796Y-127535000D02*
X156569300Y-127535000D01*
X156046796Y-129005000D02*
X156569300Y-129005000D01*
X161134048Y-95190000D02*
X162464048Y-95190000D01*
X159804048Y-97790000D02*
X159804048Y-113090000D01*
X162464048Y-97790000D02*
X162464048Y-113090000D01*
X159804048Y-113090000D02*
X162464048Y-113090000D01*
X162464048Y-95190000D02*
X162464048Y-96520000D01*
X159804048Y-97790000D02*
X162464048Y-97790000D01*
X144355548Y-55355258D02*
X144355548Y-54880742D01*
X145400548Y-55355258D02*
X145400548Y-54880742D01*
X161879306Y-40371500D02*
X161404790Y-40371500D01*
X161879306Y-41416500D02*
X161404790Y-41416500D01*
X148577790Y-108677500D02*
X149052306Y-108677500D01*
X148577790Y-109722500D02*
X149052306Y-109722500D01*
X158988628Y-44194000D02*
X158707468Y-44194000D01*
X158988628Y-45214000D02*
X158707468Y-45214000D01*
X145148790Y-40371500D02*
X145623306Y-40371500D01*
X145148790Y-41416500D02*
X145623306Y-41416500D01*
X150913048Y-126780500D02*
X150913048Y-118160500D01*
X162874048Y-119160500D02*
X162874048Y-117920500D01*
X162634048Y-118160500D02*
X150913048Y-118160500D01*
X162634048Y-126780500D02*
X162634048Y-118160500D01*
X162874048Y-117920500D02*
X161634048Y-117920500D01*
X162634048Y-126780500D02*
X150913048Y-126780500D01*
X154784048Y-108653000D02*
X158384048Y-108653000D01*
X154784048Y-108653000D02*
X152584048Y-108653000D01*
X154784048Y-103183000D02*
X156984048Y-103183000D01*
X154784048Y-103183000D02*
X152584048Y-103183000D01*
X154515548Y-92947258D02*
X154515548Y-92472742D01*
X155560548Y-92947258D02*
X155560548Y-92472742D01*
X158988628Y-81786000D02*
X158707468Y-81786000D01*
X158988628Y-82806000D02*
X158707468Y-82806000D01*
X144355548Y-73897258D02*
X144355548Y-73422742D01*
X145400548Y-73897258D02*
X145400548Y-73422742D01*
X145148790Y-81040500D02*
X145623306Y-81040500D01*
X145148790Y-79995500D02*
X145623306Y-79995500D01*
X144355548Y-92947258D02*
X144355548Y-92472742D01*
X145400548Y-92947258D02*
X145400548Y-92472742D01*
X161879306Y-60212500D02*
X161404790Y-60212500D01*
X161879306Y-59167500D02*
X161404790Y-59167500D01*
X148320628Y-45214000D02*
X148039468Y-45214000D01*
X148320628Y-44194000D02*
X148039468Y-44194000D01*
X145894048Y-95190000D02*
X147224048Y-95190000D01*
X147224048Y-95190000D02*
X147224048Y-96520000D01*
X144564048Y-97790000D02*
X147224048Y-97790000D01*
X144564048Y-113090000D02*
X147224048Y-113090000D01*
X147224048Y-97790000D02*
X147224048Y-113090000D01*
X144564048Y-97790000D02*
X144564048Y-113090000D01*
X145148790Y-42403500D02*
X145623306Y-42403500D01*
X145148790Y-43448500D02*
X145623306Y-43448500D01*
X153514048Y-67935000D02*
X151564048Y-67935000D01*
X153514048Y-59065000D02*
X151564048Y-59065000D01*
X153514048Y-59065000D02*
X155464048Y-59065000D01*
X153514048Y-67935000D02*
X156964048Y-67935000D01*
X153514048Y-86731000D02*
X151564048Y-86731000D01*
X153514048Y-77861000D02*
X151564048Y-77861000D01*
X153514048Y-77861000D02*
X155464048Y-77861000D01*
X153514048Y-86731000D02*
X156964048Y-86731000D01*
X154515548Y-74151258D02*
X154515548Y-73676742D01*
X155560548Y-74151258D02*
X155560548Y-73676742D01*
X150458796Y-129005000D02*
X150981300Y-129005000D01*
X150458796Y-127535000D02*
X150981300Y-127535000D01*
X148577790Y-106137500D02*
X149052306Y-106137500D01*
X148577790Y-107182500D02*
X149052306Y-107182500D01*
X161879306Y-77963500D02*
X161404790Y-77963500D01*
X161879306Y-79008500D02*
X161404790Y-79008500D01*
X161879306Y-41895500D02*
X161404790Y-41895500D01*
X161879306Y-42940500D02*
X161404790Y-42940500D01*
X161879306Y-79487500D02*
X161404790Y-79487500D01*
X161879306Y-80532500D02*
X161404790Y-80532500D01*
X157839300Y-95785000D02*
X157316796Y-95785000D01*
X157839300Y-97255000D02*
X157316796Y-97255000D01*
X157945468Y-102110000D02*
X158226628Y-102110000D01*
X157945468Y-101090000D02*
X158226628Y-101090000D01*
X154515548Y-55355258D02*
X154515548Y-54880742D01*
X155560548Y-55355258D02*
X155560548Y-54880742D01*
X162377048Y-137733500D02*
X155437048Y-137733500D01*
X163677048Y-139043500D02*
X143097048Y-139043500D01*
X151337048Y-137733500D02*
X144397048Y-137733500D01*
X163677048Y-129923500D02*
X163677048Y-139043500D01*
X144397048Y-131233500D02*
X162377048Y-131233500D01*
X155437048Y-137733500D02*
X155437048Y-139043500D01*
X148807048Y-140433500D02*
X148307048Y-139433500D01*
X143097048Y-129923500D02*
X163677048Y-129923500D01*
X151337048Y-139043500D02*
X151337048Y-137733500D01*
X147807048Y-140433500D02*
X148807048Y-140433500D01*
X155437048Y-137733500D02*
X155437048Y-137733500D01*
X162377048Y-131233500D02*
X162377048Y-137733500D01*
X143097048Y-139043500D02*
X143097048Y-129923500D01*
X144397048Y-137733500D02*
X144397048Y-131233500D01*
X148307048Y-139433500D02*
X147807048Y-140433500D01*
X144152048Y-129270000D02*
X148052048Y-129270000D01*
X144152048Y-127270000D02*
X148052048Y-127270000D01*
X144152048Y-127270000D02*
X144152048Y-129270000D01*
X147423048Y-123175000D02*
X147423048Y-125775000D01*
X144823048Y-125775000D02*
X144823048Y-118035000D01*
X150023048Y-123175000D02*
X150023048Y-118035000D01*
X150023048Y-118035000D02*
X144823048Y-118035000D01*
X150023048Y-125775000D02*
X148693048Y-125775000D01*
X150023048Y-123175000D02*
X147423048Y-123175000D01*
X150023048Y-124445000D02*
X150023048Y-125775000D01*
X147423048Y-125775000D02*
X144823048Y-125775000D01*
X158376048Y-127270000D02*
X162276048Y-127270000D01*
X158376048Y-127270000D02*
X158376048Y-129270000D01*
X158376048Y-129270000D02*
X162276048Y-129270000D01*
X155148306Y-101077500D02*
X154673790Y-101077500D01*
X155148306Y-102122500D02*
X154673790Y-102122500D01*
X148320628Y-64010000D02*
X148039468Y-64010000D01*
X148320628Y-62990000D02*
X148039468Y-62990000D01*
X153514048Y-40269000D02*
X151564048Y-40269000D01*
X153514048Y-40269000D02*
X155464048Y-40269000D01*
X153514048Y-49139000D02*
X156964048Y-49139000D01*
X153514048Y-49139000D02*
X151564048Y-49139000D01*
X145148790Y-62244500D02*
X145623306Y-62244500D01*
X145148790Y-61199500D02*
X145623306Y-61199500D01*
X148320628Y-82806000D02*
X148039468Y-82806000D01*
X148320628Y-81786000D02*
X148039468Y-81786000D01*
X145148790Y-60212500D02*
X145623306Y-60212500D01*
X145148790Y-59167500D02*
X145623306Y-59167500D01*
X158988628Y-62990000D02*
X158707468Y-62990000D01*
X158988628Y-64010000D02*
X158707468Y-64010000D01*
X145148790Y-79008500D02*
X145623306Y-79008500D01*
X145148790Y-77963500D02*
X145623306Y-77963500D01*
X161879306Y-61736500D02*
X161404790Y-61736500D01*
X161879306Y-60691500D02*
X161404790Y-60691500D01*
%LPC*%
D12*
X147159048Y-93472000D03*
D13*
X149699048Y-93472000D03*
D14*
X158594048Y-71058000D03*
D15*
X158594048Y-59658000D03*
X158594048Y-67958000D03*
D14*
X148434048Y-52262000D03*
D15*
X148434048Y-40862000D03*
X148434048Y-49162000D03*
D12*
X147159048Y-74422000D03*
D13*
X149699048Y-74422000D03*
D14*
X148434048Y-89854000D03*
D15*
X148434048Y-78454000D03*
X148434048Y-86754000D03*
D12*
X147159048Y-55880000D03*
D13*
X149699048Y-55880000D03*
D14*
X148434048Y-71058000D03*
D15*
X148434048Y-59658000D03*
X148434048Y-67958000D03*
D14*
X158594048Y-52262000D03*
D15*
X158594048Y-40862000D03*
X158594048Y-49162000D03*
D12*
X157319048Y-55880000D03*
D13*
X159859048Y-55880000D03*
D14*
X158594048Y-89854000D03*
D15*
X158594048Y-78454000D03*
X158594048Y-86754000D03*
D12*
X157319048Y-93472000D03*
D13*
X159859048Y-93472000D03*
D12*
X157319048Y-74676000D03*
D13*
X159859048Y-74676000D03*
D16*
X155358048Y-128270000D03*
X157258048Y-128270000D03*
D17*
X161134048Y-96520000D03*
D18*
X161134048Y-99060000D03*
X161134048Y-101600000D03*
X161134048Y-104140000D03*
X161134048Y-106680000D03*
X161134048Y-109220000D03*
X161134048Y-111760000D03*
D19*
X144878048Y-55943000D03*
X144878048Y-54293000D03*
D20*
X162467048Y-40894000D03*
X160817048Y-40894000D03*
D21*
X147990048Y-109200000D03*
X149640048Y-109200000D03*
D22*
X159623048Y-44704000D03*
X158073048Y-44704000D03*
D21*
X144561048Y-40894000D03*
X146211048Y-40894000D03*
D23*
X159263048Y-120220500D03*
D24*
X156723048Y-120220500D03*
X154183048Y-120220500D03*
D25*
X157646548Y-108193000D03*
X157646548Y-107543000D03*
X157646548Y-106893000D03*
X157646548Y-106243000D03*
X157646548Y-105593000D03*
X157646548Y-104943000D03*
X157646548Y-104293000D03*
X157646548Y-103643000D03*
X151921548Y-103643000D03*
X151921548Y-104293000D03*
X151921548Y-104943000D03*
X151921548Y-105593000D03*
X151921548Y-106243000D03*
X151921548Y-106893000D03*
X151921548Y-107543000D03*
X151921548Y-108193000D03*
D19*
X155038048Y-93535000D03*
X155038048Y-91885000D03*
D22*
X159623048Y-82296000D03*
X158073048Y-82296000D03*
D19*
X144878048Y-74485000D03*
X144878048Y-72835000D03*
D21*
X144561048Y-80518000D03*
X146211048Y-80518000D03*
D19*
X144878048Y-93535000D03*
X144878048Y-91885000D03*
D20*
X162467048Y-59690000D03*
X160817048Y-59690000D03*
D22*
X148955048Y-44704000D03*
X147405048Y-44704000D03*
D17*
X145894048Y-96520000D03*
D18*
X145894048Y-99060000D03*
X145894048Y-101600000D03*
X145894048Y-104140000D03*
X145894048Y-106680000D03*
X145894048Y-109220000D03*
X145894048Y-111760000D03*
D21*
X144561048Y-42926000D03*
X146211048Y-42926000D03*
D26*
X155989048Y-67310000D03*
X155989048Y-66040000D03*
X155989048Y-64770000D03*
X155989048Y-63500000D03*
X155989048Y-62230000D03*
X155989048Y-60960000D03*
X155989048Y-59690000D03*
X151039048Y-59690000D03*
X151039048Y-60960000D03*
X151039048Y-62230000D03*
X151039048Y-63500000D03*
X151039048Y-64770000D03*
X151039048Y-66040000D03*
X151039048Y-67310000D03*
X155989048Y-86106000D03*
X155989048Y-84836000D03*
X155989048Y-83566000D03*
X155989048Y-82296000D03*
X155989048Y-81026000D03*
X155989048Y-79756000D03*
X155989048Y-78486000D03*
X151039048Y-78486000D03*
X151039048Y-79756000D03*
X151039048Y-81026000D03*
X151039048Y-82296000D03*
X151039048Y-83566000D03*
X151039048Y-84836000D03*
X151039048Y-86106000D03*
D19*
X155038048Y-74739000D03*
X155038048Y-73089000D03*
D16*
X149770048Y-128270000D03*
X151670048Y-128270000D03*
D21*
X147990048Y-106660000D03*
X149640048Y-106660000D03*
D20*
X162467048Y-78486000D03*
X160817048Y-78486000D03*
X162467048Y-42418000D03*
X160817048Y-42418000D03*
X162467048Y-80010000D03*
X160817048Y-80010000D03*
D27*
X158528048Y-96520000D03*
X156628048Y-96520000D03*
D28*
X157311048Y-101600000D03*
X158861048Y-101600000D03*
D19*
X155038048Y-55943000D03*
X155038048Y-54293000D03*
D29*
X148307048Y-135753500D03*
D30*
X148307048Y-133213500D03*
X150847048Y-135753500D03*
X150847048Y-133213500D03*
X153387048Y-135753500D03*
X153387048Y-133213500D03*
X155927048Y-135753500D03*
X155927048Y-133213500D03*
X158467048Y-135753500D03*
X158467048Y-133213500D03*
D31*
X144752048Y-128270000D03*
X148052048Y-128270000D03*
D17*
X148693048Y-124445000D03*
D18*
X146153048Y-124445000D03*
X148693048Y-121905000D03*
X146153048Y-121905000D03*
X148693048Y-119365000D03*
X146153048Y-119365000D03*
D31*
X158976048Y-128270000D03*
X162276048Y-128270000D03*
D20*
X155736048Y-101600000D03*
X154086048Y-101600000D03*
D22*
X148955048Y-63500000D03*
X147405048Y-63500000D03*
D26*
X155989048Y-48514000D03*
X155989048Y-47244000D03*
X155989048Y-45974000D03*
X155989048Y-44704000D03*
X155989048Y-43434000D03*
X155989048Y-42164000D03*
X155989048Y-40894000D03*
X151039048Y-40894000D03*
X151039048Y-42164000D03*
X151039048Y-43434000D03*
X151039048Y-44704000D03*
X151039048Y-45974000D03*
X151039048Y-47244000D03*
X151039048Y-48514000D03*
D21*
X144561048Y-61722000D03*
X146211048Y-61722000D03*
D22*
X148955048Y-82296000D03*
X147405048Y-82296000D03*
D21*
X144561048Y-59690000D03*
X146211048Y-59690000D03*
D22*
X159623048Y-63500000D03*
X158073048Y-63500000D03*
D21*
X144561048Y-78486000D03*
X146211048Y-78486000D03*
D20*
X162467048Y-61214000D03*
X160817048Y-61214000D03*
M02*
