G04 #@! TF.GenerationSoftware,KiCad,Pcbnew,(6.0.0)*
G04 #@! TF.CreationDate,2022-06-27T08:37:13-07:00*
G04 #@! TF.ProjectId,sen,73656e2e-6b69-4636-9164-5f7063625858,rev?*
G04 #@! TF.SameCoordinates,Original*
G04 #@! TF.FileFunction,Soldermask,Top*
G04 #@! TF.FilePolarity,Negative*
%FSLAX46Y46*%
G04 Gerber Fmt 4.6, Leading zero omitted, Abs format (unit mm)*
G04 Created by KiCad (PCBNEW (6.0.0)) date 2022-06-27 08:37:13*
%MOMM*%
%LPD*%
G01*
G04 APERTURE LIST*
G04 Aperture macros list*
%AMRoundRect*
0 Rectangle with rounded corners*
0 $1 Rounding radius*
0 $2 $3 $4 $5 $6 $7 $8 $9 X,Y pos of 4 corners*
0 Add a 4 corners polygon primitive as box body*
4,1,4,$2,$3,$4,$5,$6,$7,$8,$9,$2,$3,0*
0 Add four circle primitives for the rounded corners*
1,1,$1+$1,$2,$3*
1,1,$1+$1,$4,$5*
1,1,$1+$1,$6,$7*
1,1,$1+$1,$8,$9*
0 Add four rect primitives between the rounded corners*
20,1,$1+$1,$2,$3,$4,$5,0*
20,1,$1+$1,$4,$5,$6,$7,0*
20,1,$1+$1,$6,$7,$8,$9,0*
20,1,$1+$1,$8,$9,$2,$3,0*%
G04 Aperture macros list end*
%ADD10R,1.800000X1.800000*%
%ADD11C,1.800000*%
%ADD12R,1.930000X1.830000*%
%ADD13C,2.130000*%
%ADD14RoundRect,0.250000X-0.250000X-0.475000X0.250000X-0.475000X0.250000X0.475000X-0.250000X0.475000X0*%
%ADD15R,1.700000X1.700000*%
%ADD16O,1.700000X1.700000*%
%ADD17RoundRect,0.200000X0.275000X-0.200000X0.275000X0.200000X-0.275000X0.200000X-0.275000X-0.200000X0*%
%ADD18RoundRect,0.200000X0.200000X0.275000X-0.200000X0.275000X-0.200000X-0.275000X0.200000X-0.275000X0*%
%ADD19RoundRect,0.200000X-0.200000X-0.275000X0.200000X-0.275000X0.200000X0.275000X-0.200000X0.275000X0*%
%ADD20RoundRect,0.225000X0.225000X0.250000X-0.225000X0.250000X-0.225000X-0.250000X0.225000X-0.250000X0*%
%ADD21R,1.500000X2.300000*%
%ADD22O,1.500000X2.300000*%
%ADD23RoundRect,0.100000X0.637500X0.100000X-0.637500X0.100000X-0.637500X-0.100000X0.637500X-0.100000X0*%
%ADD24RoundRect,0.150000X0.825000X0.150000X-0.825000X0.150000X-0.825000X-0.150000X0.825000X-0.150000X0*%
%ADD25RoundRect,0.250000X0.250000X0.475000X-0.250000X0.475000X-0.250000X-0.475000X0.250000X-0.475000X0*%
%ADD26RoundRect,0.225000X-0.225000X-0.250000X0.225000X-0.250000X0.225000X0.250000X-0.225000X0.250000X0*%
%ADD27RoundRect,0.250000X0.600000X-0.600000X0.600000X0.600000X-0.600000X0.600000X-0.600000X-0.600000X0*%
%ADD28C,1.700000*%
%ADD29R,0.900000X1.200000*%
G04 APERTURE END LIST*
D10*
X147159048Y-93472000D03*
D11*
X149699048Y-93472000D03*
D12*
X158594048Y-71058000D03*
D13*
X158594048Y-59658000D03*
X158594048Y-67958000D03*
D12*
X148434048Y-52262000D03*
D13*
X148434048Y-40862000D03*
X148434048Y-49162000D03*
D10*
X147159048Y-74422000D03*
D11*
X149699048Y-74422000D03*
D12*
X148434048Y-89854000D03*
D13*
X148434048Y-78454000D03*
X148434048Y-86754000D03*
D10*
X147159048Y-55880000D03*
D11*
X149699048Y-55880000D03*
D12*
X148434048Y-71058000D03*
D13*
X148434048Y-59658000D03*
X148434048Y-67958000D03*
D12*
X158594048Y-52262000D03*
D13*
X158594048Y-40862000D03*
X158594048Y-49162000D03*
D10*
X157319048Y-55880000D03*
D11*
X159859048Y-55880000D03*
D12*
X158594048Y-89854000D03*
D13*
X158594048Y-78454000D03*
X158594048Y-86754000D03*
D10*
X157319048Y-93472000D03*
D11*
X159859048Y-93472000D03*
D10*
X157319048Y-74676000D03*
D11*
X159859048Y-74676000D03*
D14*
X155358048Y-128270000D03*
X157258048Y-128270000D03*
D15*
X161134048Y-96520000D03*
D16*
X161134048Y-99060000D03*
X161134048Y-101600000D03*
X161134048Y-104140000D03*
X161134048Y-106680000D03*
X161134048Y-109220000D03*
X161134048Y-111760000D03*
D17*
X144878048Y-55943000D03*
X144878048Y-54293000D03*
D18*
X162467048Y-40894000D03*
X160817048Y-40894000D03*
D19*
X147990048Y-109200000D03*
X149640048Y-109200000D03*
D20*
X159623048Y-44704000D03*
X158073048Y-44704000D03*
D19*
X144561048Y-40894000D03*
X146211048Y-40894000D03*
D21*
X159263048Y-120220500D03*
D22*
X156723048Y-120220500D03*
X154183048Y-120220500D03*
D23*
X157646548Y-108193000D03*
X157646548Y-107543000D03*
X157646548Y-106893000D03*
X157646548Y-106243000D03*
X157646548Y-105593000D03*
X157646548Y-104943000D03*
X157646548Y-104293000D03*
X157646548Y-103643000D03*
X151921548Y-103643000D03*
X151921548Y-104293000D03*
X151921548Y-104943000D03*
X151921548Y-105593000D03*
X151921548Y-106243000D03*
X151921548Y-106893000D03*
X151921548Y-107543000D03*
X151921548Y-108193000D03*
D17*
X155038048Y-93535000D03*
X155038048Y-91885000D03*
D20*
X159623048Y-82296000D03*
X158073048Y-82296000D03*
D17*
X144878048Y-74485000D03*
X144878048Y-72835000D03*
D19*
X144561048Y-80518000D03*
X146211048Y-80518000D03*
D17*
X144878048Y-93535000D03*
X144878048Y-91885000D03*
D18*
X162467048Y-59690000D03*
X160817048Y-59690000D03*
D20*
X148955048Y-44704000D03*
X147405048Y-44704000D03*
D15*
X145894048Y-96520000D03*
D16*
X145894048Y-99060000D03*
X145894048Y-101600000D03*
X145894048Y-104140000D03*
X145894048Y-106680000D03*
X145894048Y-109220000D03*
X145894048Y-111760000D03*
D19*
X144561048Y-42926000D03*
X146211048Y-42926000D03*
D24*
X155989048Y-67310000D03*
X155989048Y-66040000D03*
X155989048Y-64770000D03*
X155989048Y-63500000D03*
X155989048Y-62230000D03*
X155989048Y-60960000D03*
X155989048Y-59690000D03*
X151039048Y-59690000D03*
X151039048Y-60960000D03*
X151039048Y-62230000D03*
X151039048Y-63500000D03*
X151039048Y-64770000D03*
X151039048Y-66040000D03*
X151039048Y-67310000D03*
X155989048Y-86106000D03*
X155989048Y-84836000D03*
X155989048Y-83566000D03*
X155989048Y-82296000D03*
X155989048Y-81026000D03*
X155989048Y-79756000D03*
X155989048Y-78486000D03*
X151039048Y-78486000D03*
X151039048Y-79756000D03*
X151039048Y-81026000D03*
X151039048Y-82296000D03*
X151039048Y-83566000D03*
X151039048Y-84836000D03*
X151039048Y-86106000D03*
D17*
X155038048Y-74739000D03*
X155038048Y-73089000D03*
D14*
X149770048Y-128270000D03*
X151670048Y-128270000D03*
D19*
X147990048Y-106660000D03*
X149640048Y-106660000D03*
D18*
X162467048Y-78486000D03*
X160817048Y-78486000D03*
X162467048Y-42418000D03*
X160817048Y-42418000D03*
X162467048Y-80010000D03*
X160817048Y-80010000D03*
D25*
X158528048Y-96520000D03*
X156628048Y-96520000D03*
D26*
X157311048Y-101600000D03*
X158861048Y-101600000D03*
D17*
X155038048Y-55943000D03*
X155038048Y-54293000D03*
D27*
X148307048Y-135753500D03*
D28*
X148307048Y-133213500D03*
X150847048Y-135753500D03*
X150847048Y-133213500D03*
X153387048Y-135753500D03*
X153387048Y-133213500D03*
X155927048Y-135753500D03*
X155927048Y-133213500D03*
X158467048Y-135753500D03*
X158467048Y-133213500D03*
D29*
X144752048Y-128270000D03*
X148052048Y-128270000D03*
D15*
X148693048Y-124445000D03*
D16*
X146153048Y-124445000D03*
X148693048Y-121905000D03*
X146153048Y-121905000D03*
X148693048Y-119365000D03*
X146153048Y-119365000D03*
D29*
X158976048Y-128270000D03*
X162276048Y-128270000D03*
D18*
X155736048Y-101600000D03*
X154086048Y-101600000D03*
D20*
X148955048Y-63500000D03*
X147405048Y-63500000D03*
D24*
X155989048Y-48514000D03*
X155989048Y-47244000D03*
X155989048Y-45974000D03*
X155989048Y-44704000D03*
X155989048Y-43434000D03*
X155989048Y-42164000D03*
X155989048Y-40894000D03*
X151039048Y-40894000D03*
X151039048Y-42164000D03*
X151039048Y-43434000D03*
X151039048Y-44704000D03*
X151039048Y-45974000D03*
X151039048Y-47244000D03*
X151039048Y-48514000D03*
D19*
X144561048Y-61722000D03*
X146211048Y-61722000D03*
D20*
X148955048Y-82296000D03*
X147405048Y-82296000D03*
D19*
X144561048Y-59690000D03*
X146211048Y-59690000D03*
D20*
X159623048Y-63500000D03*
X158073048Y-63500000D03*
D19*
X144561048Y-78486000D03*
X146211048Y-78486000D03*
D18*
X162467048Y-61214000D03*
X160817048Y-61214000D03*
M02*
