G04 #@! TF.GenerationSoftware,KiCad,Pcbnew,(6.0.0)*
G04 #@! TF.CreationDate,2022-06-27T08:37:13-07:00*
G04 #@! TF.ProjectId,sen,73656e2e-6b69-4636-9164-5f7063625858,rev?*
G04 #@! TF.SameCoordinates,Original*
G04 #@! TF.FileFunction,Legend,Bot*
G04 #@! TF.FilePolarity,Positive*
%FSLAX46Y46*%
G04 Gerber Fmt 4.6, Leading zero omitted, Abs format (unit mm)*
G04 Created by KiCad (PCBNEW (6.0.0)) date 2022-06-27 08:37:13*
%MOMM*%
%LPD*%
G01*
G04 APERTURE LIST*
G04 Aperture macros list*
%AMRoundRect*
0 Rectangle with rounded corners*
0 $1 Rounding radius*
0 $2 $3 $4 $5 $6 $7 $8 $9 X,Y pos of 4 corners*
0 Add a 4 corners polygon primitive as box body*
4,1,4,$2,$3,$4,$5,$6,$7,$8,$9,$2,$3,0*
0 Add four circle primitives for the rounded corners*
1,1,$1+$1,$2,$3*
1,1,$1+$1,$4,$5*
1,1,$1+$1,$6,$7*
1,1,$1+$1,$8,$9*
0 Add four rect primitives between the rounded corners*
20,1,$1+$1,$2,$3,$4,$5,0*
20,1,$1+$1,$4,$5,$6,$7,0*
20,1,$1+$1,$6,$7,$8,$9,0*
20,1,$1+$1,$8,$9,$2,$3,0*%
G04 Aperture macros list end*
%ADD10C,0.150000*%
%ADD11C,0.120000*%
%ADD12R,1.800000X1.800000*%
%ADD13C,1.800000*%
%ADD14R,1.930000X1.830000*%
%ADD15C,2.130000*%
%ADD16R,1.700000X1.700000*%
%ADD17O,1.700000X1.700000*%
%ADD18R,1.500000X2.300000*%
%ADD19O,1.500000X2.300000*%
%ADD20RoundRect,0.250000X0.600000X-0.600000X0.600000X0.600000X-0.600000X0.600000X-0.600000X-0.600000X0*%
%ADD21C,1.700000*%
G04 APERTURE END LIST*
D10*
X149167143Y-96376380D02*
X149167143Y-95376380D01*
X148929048Y-95376380D01*
X148786190Y-95424000D01*
X148690952Y-95519238D01*
X148643333Y-95614476D01*
X148595714Y-95804952D01*
X148595714Y-95947809D01*
X148643333Y-96138285D01*
X148690952Y-96233523D01*
X148786190Y-96328761D01*
X148929048Y-96376380D01*
X149167143Y-96376380D01*
X148262381Y-95376380D02*
X147643333Y-95376380D01*
X147976667Y-95757333D01*
X147833809Y-95757333D01*
X147738571Y-95804952D01*
X147690952Y-95852571D01*
X147643333Y-95947809D01*
X147643333Y-96185904D01*
X147690952Y-96281142D01*
X147738571Y-96328761D01*
X147833809Y-96376380D01*
X148119524Y-96376380D01*
X148214762Y-96328761D01*
X148262381Y-96281142D01*
X158927381Y-62698380D02*
X158927381Y-63412666D01*
X158975000Y-63555523D01*
X159070238Y-63650761D01*
X159213095Y-63698380D01*
X159308333Y-63698380D01*
X158546428Y-62698380D02*
X157879762Y-62698380D01*
X158308333Y-63698380D01*
X144991381Y-51777380D02*
X144991381Y-52491666D01*
X145039000Y-52634523D01*
X145134238Y-52729761D01*
X145277095Y-52777380D01*
X145372333Y-52777380D01*
X144467571Y-52777380D02*
X144277095Y-52777380D01*
X144181857Y-52729761D01*
X144134238Y-52682142D01*
X144039000Y-52539285D01*
X143991381Y-52348809D01*
X143991381Y-51967857D01*
X144039000Y-51872619D01*
X144086619Y-51825000D01*
X144181857Y-51777380D01*
X144372333Y-51777380D01*
X144467571Y-51825000D01*
X144515190Y-51872619D01*
X144562809Y-51967857D01*
X144562809Y-52205952D01*
X144515190Y-52301190D01*
X144467571Y-52348809D01*
X144372333Y-52396428D01*
X144181857Y-52396428D01*
X144086619Y-52348809D01*
X144039000Y-52301190D01*
X143991381Y-52205952D01*
X149263630Y-72886721D02*
X149263630Y-71886721D01*
X149025535Y-71886721D01*
X148882677Y-71934341D01*
X148787439Y-72029579D01*
X148739820Y-72124817D01*
X148692201Y-72315293D01*
X148692201Y-72458150D01*
X148739820Y-72648626D01*
X148787439Y-72743864D01*
X148882677Y-72839102D01*
X149025535Y-72886721D01*
X149263630Y-72886721D01*
X148358868Y-71886721D02*
X147692201Y-71886721D01*
X148120773Y-72886721D01*
X145245381Y-89369380D02*
X145245381Y-90083666D01*
X145293000Y-90226523D01*
X145388238Y-90321761D01*
X145531095Y-90369380D01*
X145626333Y-90369380D01*
X144340619Y-89369380D02*
X144531095Y-89369380D01*
X144626333Y-89417000D01*
X144673952Y-89464619D01*
X144769190Y-89607476D01*
X144816809Y-89797952D01*
X144816809Y-90178904D01*
X144769190Y-90274142D01*
X144721571Y-90321761D01*
X144626333Y-90369380D01*
X144435857Y-90369380D01*
X144340619Y-90321761D01*
X144293000Y-90274142D01*
X144245381Y-90178904D01*
X144245381Y-89940809D01*
X144293000Y-89845571D01*
X144340619Y-89797952D01*
X144435857Y-89750333D01*
X144626333Y-89750333D01*
X144721571Y-89797952D01*
X144769190Y-89845571D01*
X144816809Y-89940809D01*
X149167143Y-59292380D02*
X149167143Y-58292380D01*
X148929048Y-58292380D01*
X148786190Y-58340000D01*
X148690952Y-58435238D01*
X148643333Y-58530476D01*
X148595714Y-58720952D01*
X148595714Y-58863809D01*
X148643333Y-59054285D01*
X148690952Y-59149523D01*
X148786190Y-59244761D01*
X148929048Y-59292380D01*
X149167143Y-59292380D01*
X147738571Y-58292380D02*
X147929048Y-58292380D01*
X148024286Y-58340000D01*
X148071905Y-58387619D01*
X148167143Y-58530476D01*
X148214762Y-58720952D01*
X148214762Y-59101904D01*
X148167143Y-59197142D01*
X148119524Y-59244761D01*
X148024286Y-59292380D01*
X147833809Y-59292380D01*
X147738571Y-59244761D01*
X147690952Y-59197142D01*
X147643333Y-59101904D01*
X147643333Y-58863809D01*
X147690952Y-58768571D01*
X147738571Y-58720952D01*
X147833809Y-58673333D01*
X148024286Y-58673333D01*
X148119524Y-58720952D01*
X148167143Y-58768571D01*
X148214762Y-58863809D01*
X145213571Y-69430380D02*
X145213571Y-70144666D01*
X145261190Y-70287523D01*
X145356428Y-70382761D01*
X145499286Y-70430380D01*
X145594524Y-70430380D01*
X144213571Y-70430380D02*
X144785000Y-70430380D01*
X144499286Y-70430380D02*
X144499286Y-69430380D01*
X144594524Y-69573238D01*
X144689762Y-69668476D01*
X144785000Y-69716095D01*
X143594524Y-69430380D02*
X143499286Y-69430380D01*
X143404048Y-69478000D01*
X143356428Y-69525619D01*
X143308809Y-69620857D01*
X143261190Y-69811333D01*
X143261190Y-70049428D01*
X143308809Y-70239904D01*
X143356428Y-70335142D01*
X143404048Y-70382761D01*
X143499286Y-70430380D01*
X143594524Y-70430380D01*
X143689762Y-70382761D01*
X143737381Y-70335142D01*
X143785000Y-70239904D01*
X143832619Y-70049428D01*
X143832619Y-69811333D01*
X143785000Y-69620857D01*
X143737381Y-69525619D01*
X143689762Y-69478000D01*
X143594524Y-69430380D01*
X159657571Y-44664380D02*
X159657571Y-45378666D01*
X159705190Y-45521523D01*
X159800428Y-45616761D01*
X159943286Y-45664380D01*
X160038524Y-45664380D01*
X158657571Y-45664380D02*
X159229000Y-45664380D01*
X158943286Y-45664380D02*
X158943286Y-44664380D01*
X159038524Y-44807238D01*
X159133762Y-44902476D01*
X159229000Y-44950095D01*
X157705190Y-45664380D02*
X158276619Y-45664380D01*
X157990905Y-45664380D02*
X157990905Y-44664380D01*
X158086143Y-44807238D01*
X158181381Y-44902476D01*
X158276619Y-44950095D01*
X159423630Y-54344721D02*
X159423630Y-53344721D01*
X159185535Y-53344721D01*
X159042677Y-53392341D01*
X158947439Y-53487579D01*
X158899820Y-53582817D01*
X158852201Y-53773293D01*
X158852201Y-53916150D01*
X158899820Y-54106626D01*
X158947439Y-54201864D01*
X159042677Y-54297102D01*
X159185535Y-54344721D01*
X159423630Y-54344721D01*
X158280773Y-53773293D02*
X158376011Y-53725674D01*
X158423630Y-53678055D01*
X158471249Y-53582817D01*
X158471249Y-53535198D01*
X158423630Y-53439960D01*
X158376011Y-53392341D01*
X158280773Y-53344721D01*
X158090296Y-53344721D01*
X157995058Y-53392341D01*
X157947439Y-53439960D01*
X157899820Y-53535198D01*
X157899820Y-53582817D01*
X157947439Y-53678055D01*
X157995058Y-53725674D01*
X158090296Y-53773293D01*
X158280773Y-53773293D01*
X158376011Y-53820912D01*
X158423630Y-53868531D01*
X158471249Y-53963769D01*
X158471249Y-54154245D01*
X158423630Y-54249483D01*
X158376011Y-54297102D01*
X158280773Y-54344721D01*
X158090296Y-54344721D01*
X157995058Y-54297102D01*
X157947439Y-54249483D01*
X157899820Y-54154245D01*
X157899820Y-53963769D01*
X157947439Y-53868531D01*
X157995058Y-53820912D01*
X158090296Y-53773293D01*
X161975381Y-82764380D02*
X161975381Y-83478666D01*
X162023000Y-83621523D01*
X162118238Y-83716761D01*
X162261095Y-83764380D01*
X162356333Y-83764380D01*
X161356333Y-83192952D02*
X161451571Y-83145333D01*
X161499190Y-83097714D01*
X161546809Y-83002476D01*
X161546809Y-82954857D01*
X161499190Y-82859619D01*
X161451571Y-82812000D01*
X161356333Y-82764380D01*
X161165857Y-82764380D01*
X161070619Y-82812000D01*
X161023000Y-82859619D01*
X160975381Y-82954857D01*
X160975381Y-83002476D01*
X161023000Y-83097714D01*
X161070619Y-83145333D01*
X161165857Y-83192952D01*
X161356333Y-83192952D01*
X161451571Y-83240571D01*
X161499190Y-83288190D01*
X161546809Y-83383428D01*
X161546809Y-83573904D01*
X161499190Y-83669142D01*
X161451571Y-83716761D01*
X161356333Y-83764380D01*
X161165857Y-83764380D01*
X161070619Y-83716761D01*
X161023000Y-83669142D01*
X160975381Y-83573904D01*
X160975381Y-83383428D01*
X161023000Y-83288190D01*
X161070619Y-83240571D01*
X161165857Y-83192952D01*
X159327143Y-96376380D02*
X159327143Y-95376380D01*
X159089048Y-95376380D01*
X158946190Y-95424000D01*
X158850952Y-95519238D01*
X158803333Y-95614476D01*
X158755714Y-95804952D01*
X158755714Y-95947809D01*
X158803333Y-96138285D01*
X158850952Y-96233523D01*
X158946190Y-96328761D01*
X159089048Y-96376380D01*
X159327143Y-96376380D01*
X157850952Y-95376380D02*
X158327143Y-95376380D01*
X158374762Y-95852571D01*
X158327143Y-95804952D01*
X158231905Y-95757333D01*
X157993809Y-95757333D01*
X157898571Y-95804952D01*
X157850952Y-95852571D01*
X157803333Y-95947809D01*
X157803333Y-96185904D01*
X157850952Y-96281142D01*
X157898571Y-96328761D01*
X157993809Y-96376380D01*
X158231905Y-96376380D01*
X158327143Y-96328761D01*
X158374762Y-96281142D01*
X159423630Y-73140721D02*
X159423630Y-72140721D01*
X159185535Y-72140721D01*
X159042677Y-72188341D01*
X158947439Y-72283579D01*
X158899820Y-72378817D01*
X158852201Y-72569293D01*
X158852201Y-72712150D01*
X158899820Y-72902626D01*
X158947439Y-72997864D01*
X159042677Y-73093102D01*
X159185535Y-73140721D01*
X159423630Y-73140721D01*
X157995058Y-72474055D02*
X157995058Y-73140721D01*
X158233154Y-72093102D02*
X158471249Y-72807388D01*
X157852201Y-72807388D01*
D11*
X146869048Y-92392000D02*
X146869048Y-92236000D01*
X146869048Y-94708000D02*
X146869048Y-94552000D01*
X150101383Y-92393392D02*
G75*
G03*
X146869048Y-92236484I-1672335J-1078609D01*
G01*
X149470178Y-92392163D02*
G75*
G03*
X147388087Y-92392000I-1041130J-1079837D01*
G01*
X146869048Y-94707516D02*
G75*
G03*
X150101383Y-94550608I1560000J1235517D01*
G01*
X147388087Y-94552000D02*
G75*
G03*
X149470178Y-94551837I1040961J1080000D01*
G01*
X157534048Y-72058000D02*
X158394048Y-72058000D01*
X158094048Y-58578000D02*
X154094048Y-58578000D01*
X163094048Y-69078000D02*
X158944048Y-69078000D01*
X163094048Y-58578000D02*
X159094048Y-58578000D01*
X154094048Y-69078000D02*
X154094048Y-58578000D01*
X163094048Y-69078000D02*
X163094048Y-58578000D01*
X158244048Y-69078000D02*
X154094048Y-69078000D01*
X157534048Y-72058000D02*
X157534048Y-71258000D01*
X160394048Y-64578000D02*
G75*
G03*
X160394048Y-64578000I-1800000J0D01*
G01*
X147374048Y-53262000D02*
X147374048Y-52462000D01*
X152934048Y-39782000D02*
X148934048Y-39782000D01*
X143934048Y-50282000D02*
X143934048Y-39782000D01*
X152934048Y-50282000D02*
X148784048Y-50282000D01*
X147374048Y-53262000D02*
X148234048Y-53262000D01*
X148084048Y-50282000D02*
X143934048Y-50282000D01*
X147934048Y-39782000D02*
X143934048Y-39782000D01*
X152934048Y-50282000D02*
X152934048Y-39782000D01*
X150234048Y-45782000D02*
G75*
G03*
X150234048Y-45782000I-1800000J0D01*
G01*
X146869048Y-73342000D02*
X146869048Y-73186000D01*
X146869048Y-75658000D02*
X146869048Y-75502000D01*
X147388087Y-75502000D02*
G75*
G03*
X149470178Y-75501837I1040961J1080000D01*
G01*
X149470178Y-73342163D02*
G75*
G03*
X147388087Y-73342000I-1041130J-1079837D01*
G01*
X150101383Y-73343392D02*
G75*
G03*
X146869048Y-73186484I-1672335J-1078609D01*
G01*
X146869048Y-75657516D02*
G75*
G03*
X150101383Y-75500608I1560000J1235517D01*
G01*
X147934048Y-77374000D02*
X143934048Y-77374000D01*
X148084048Y-87874000D02*
X143934048Y-87874000D01*
X147374048Y-90854000D02*
X147374048Y-90054000D01*
X152934048Y-87874000D02*
X152934048Y-77374000D01*
X152934048Y-87874000D02*
X148784048Y-87874000D01*
X152934048Y-77374000D02*
X148934048Y-77374000D01*
X143934048Y-87874000D02*
X143934048Y-77374000D01*
X147374048Y-90854000D02*
X148234048Y-90854000D01*
X150234048Y-83374000D02*
G75*
G03*
X150234048Y-83374000I-1800000J0D01*
G01*
X146869048Y-54800000D02*
X146869048Y-54644000D01*
X146869048Y-57116000D02*
X146869048Y-56960000D01*
X149470178Y-54800163D02*
G75*
G03*
X147388087Y-54800000I-1041130J-1079837D01*
G01*
X146869048Y-57115516D02*
G75*
G03*
X150101383Y-56958608I1560000J1235517D01*
G01*
X150101383Y-54801392D02*
G75*
G03*
X146869048Y-54644484I-1672335J-1078609D01*
G01*
X147388087Y-56960000D02*
G75*
G03*
X149470178Y-56959837I1040961J1080000D01*
G01*
X147934048Y-58578000D02*
X143934048Y-58578000D01*
X152934048Y-58578000D02*
X148934048Y-58578000D01*
X147374048Y-72058000D02*
X148234048Y-72058000D01*
X152934048Y-69078000D02*
X152934048Y-58578000D01*
X152934048Y-69078000D02*
X148784048Y-69078000D01*
X143934048Y-69078000D02*
X143934048Y-58578000D01*
X147374048Y-72058000D02*
X147374048Y-71258000D01*
X148084048Y-69078000D02*
X143934048Y-69078000D01*
X150234048Y-64578000D02*
G75*
G03*
X150234048Y-64578000I-1800000J0D01*
G01*
X158094048Y-39782000D02*
X154094048Y-39782000D01*
X158244048Y-50282000D02*
X154094048Y-50282000D01*
X154094048Y-50282000D02*
X154094048Y-39782000D01*
X157534048Y-53262000D02*
X157534048Y-52462000D01*
X157534048Y-53262000D02*
X158394048Y-53262000D01*
X163094048Y-39782000D02*
X159094048Y-39782000D01*
X163094048Y-50282000D02*
X163094048Y-39782000D01*
X163094048Y-50282000D02*
X158944048Y-50282000D01*
X160394048Y-45782000D02*
G75*
G03*
X160394048Y-45782000I-1800000J0D01*
G01*
X157029048Y-54800000D02*
X157029048Y-54644000D01*
X157029048Y-57116000D02*
X157029048Y-56960000D01*
X157029048Y-57115516D02*
G75*
G03*
X160261383Y-56958608I1560000J1235517D01*
G01*
X159630178Y-54800163D02*
G75*
G03*
X157548087Y-54800000I-1041130J-1079837D01*
G01*
X157548087Y-56960000D02*
G75*
G03*
X159630178Y-56959837I1040961J1080000D01*
G01*
X160261383Y-54801392D02*
G75*
G03*
X157029048Y-54644484I-1672335J-1078609D01*
G01*
X154094048Y-87874000D02*
X154094048Y-77374000D01*
X158094048Y-77374000D02*
X154094048Y-77374000D01*
X163094048Y-87874000D02*
X158944048Y-87874000D01*
X158244048Y-87874000D02*
X154094048Y-87874000D01*
X157534048Y-90854000D02*
X157534048Y-90054000D01*
X163094048Y-77374000D02*
X159094048Y-77374000D01*
X157534048Y-90854000D02*
X158394048Y-90854000D01*
X163094048Y-87874000D02*
X163094048Y-77374000D01*
X160394048Y-83374000D02*
G75*
G03*
X160394048Y-83374000I-1800000J0D01*
G01*
X157029048Y-92392000D02*
X157029048Y-92236000D01*
X157029048Y-94708000D02*
X157029048Y-94552000D01*
X157548087Y-94552000D02*
G75*
G03*
X159630178Y-94551837I1040961J1080000D01*
G01*
X157029048Y-94707516D02*
G75*
G03*
X160261383Y-94550608I1560000J1235517D01*
G01*
X160261383Y-92393392D02*
G75*
G03*
X157029048Y-92236484I-1672335J-1078609D01*
G01*
X159630178Y-92392163D02*
G75*
G03*
X157548087Y-92392000I-1041130J-1079837D01*
G01*
X157029048Y-75912000D02*
X157029048Y-75756000D01*
X157029048Y-73596000D02*
X157029048Y-73440000D01*
X160261383Y-73597392D02*
G75*
G03*
X157029048Y-73440484I-1672335J-1078609D01*
G01*
X159630178Y-73596163D02*
G75*
G03*
X157548087Y-73596000I-1041130J-1079837D01*
G01*
X157029048Y-75911516D02*
G75*
G03*
X160261383Y-75754608I1560000J1235517D01*
G01*
X157548087Y-75756000D02*
G75*
G03*
X159630178Y-75755837I1040961J1080000D01*
G01*
%LPC*%
D12*
X147159048Y-93472000D03*
D13*
X149699048Y-93472000D03*
D14*
X158594048Y-71058000D03*
D15*
X158594048Y-59658000D03*
X158594048Y-67958000D03*
D14*
X148434048Y-52262000D03*
D15*
X148434048Y-40862000D03*
X148434048Y-49162000D03*
D12*
X147159048Y-74422000D03*
D13*
X149699048Y-74422000D03*
D14*
X148434048Y-89854000D03*
D15*
X148434048Y-78454000D03*
X148434048Y-86754000D03*
D12*
X147159048Y-55880000D03*
D13*
X149699048Y-55880000D03*
D14*
X148434048Y-71058000D03*
D15*
X148434048Y-59658000D03*
X148434048Y-67958000D03*
D14*
X158594048Y-52262000D03*
D15*
X158594048Y-40862000D03*
X158594048Y-49162000D03*
D12*
X157319048Y-55880000D03*
D13*
X159859048Y-55880000D03*
D14*
X158594048Y-89854000D03*
D15*
X158594048Y-78454000D03*
X158594048Y-86754000D03*
D12*
X157319048Y-93472000D03*
D13*
X159859048Y-93472000D03*
D12*
X157319048Y-74676000D03*
D13*
X159859048Y-74676000D03*
D16*
X161134048Y-96520000D03*
D17*
X161134048Y-99060000D03*
X161134048Y-101600000D03*
X161134048Y-104140000D03*
X161134048Y-106680000D03*
X161134048Y-109220000D03*
X161134048Y-111760000D03*
D18*
X159263048Y-120220500D03*
D19*
X156723048Y-120220500D03*
X154183048Y-120220500D03*
D16*
X145894048Y-96520000D03*
D17*
X145894048Y-99060000D03*
X145894048Y-101600000D03*
X145894048Y-104140000D03*
X145894048Y-106680000D03*
X145894048Y-109220000D03*
X145894048Y-111760000D03*
D20*
X148307048Y-135753500D03*
D21*
X148307048Y-133213500D03*
X150847048Y-135753500D03*
X150847048Y-133213500D03*
X153387048Y-135753500D03*
X153387048Y-133213500D03*
X155927048Y-135753500D03*
X155927048Y-133213500D03*
X158467048Y-135753500D03*
X158467048Y-133213500D03*
D16*
X148693048Y-124445000D03*
D17*
X146153048Y-124445000D03*
X148693048Y-121905000D03*
X146153048Y-121905000D03*
X148693048Y-119365000D03*
X146153048Y-119365000D03*
M02*
