M48
; DRILL file {KiCad (6.0.0)} date Mon Jun 27 08:37:15 2022
; FORMAT={-:-/ absolute / metric / decimal}
; #@! TF.CreationDate,2022-06-27T08:37:15-07:00
; #@! TF.GenerationSoftware,Kicad,Pcbnew,(6.0.0)
; #@! TF.FileFunction,Plated,1,2,PTH
FMAT,2
METRIC
; #@! TA.AperFunction,Plated,PTH,ViaDrill
T1C0.400
; #@! TA.AperFunction,Plated,PTH,ComponentDrill
T2C0.900
; #@! TA.AperFunction,Plated,PTH,ComponentDrill
T3C1.000
; #@! TA.AperFunction,Plated,PTH,ComponentDrill
T4C1.220
; #@! TA.AperFunction,Plated,PTH,ComponentDrill
T5C1.420
; #@! TA.AperFunction,Plated,PTH,ComponentDrill
T6C1.430
%
G90
G05
T1
X144.878Y-52.832
X144.878Y-71.374
X144.878Y-90.424
X148.18Y-115.062
X148.942Y-43.18
X148.942Y-45.974
X148.942Y-64.77
X148.942Y-83.566
X149.196Y-61.976
X149.196Y-80.772
X149.704Y-126.746
X150.647Y-104.681
X150.721Y-105.678
X153.514Y-106.172
X154.276Y-40.878
X154.276Y-42.164
X154.276Y-45.974
X154.276Y-59.69
X154.276Y-60.96
X154.276Y-64.77
X154.276Y-78.486
X154.276Y-79.756
X154.276Y-83.566
X154.784Y-107.543
X156.054Y-104.648
X156.054Y-105.664
X156.054Y-106.68
X158.086Y-45.974
X159.606Y-83.562
X159.61Y-64.77
X160.88Y-43.688
X160.88Y-62.484
X160.88Y-81.28
X162.15Y-46.482
T2
X147.159Y-55.88
X147.159Y-74.422
X147.159Y-93.472
X149.699Y-55.88
X149.699Y-74.422
X149.699Y-93.472
X157.319Y-55.88
X157.319Y-74.676
X157.319Y-93.472
X159.859Y-55.88
X159.859Y-74.676
X159.859Y-93.472
T3
X145.894Y-96.52
X145.894Y-99.06
X145.894Y-101.6
X145.894Y-104.14
X145.894Y-106.68
X145.894Y-109.22
X145.894Y-111.76
X146.153Y-119.365
X146.153Y-121.905
X146.153Y-124.445
X148.307Y-133.213
X148.307Y-135.754
X148.693Y-119.365
X148.693Y-121.905
X148.693Y-124.445
X150.847Y-133.213
X150.847Y-135.754
X153.387Y-133.213
X153.387Y-135.754
X154.183Y-120.221
X155.927Y-133.213
X155.927Y-135.754
X156.723Y-120.221
X158.467Y-133.213
X158.467Y-135.754
X159.263Y-120.221
X161.134Y-96.52
X161.134Y-99.06
X161.134Y-101.6
X161.134Y-104.14
X161.134Y-106.68
X161.134Y-109.22
X161.134Y-111.76
T4
X148.434Y-52.262
X148.434Y-71.058
X148.434Y-89.854
X158.594Y-52.262
X158.594Y-71.058
X158.594Y-89.854
T5
X148.434Y-49.162
X148.434Y-67.958
X148.434Y-86.754
X158.594Y-49.162
X158.594Y-67.958
X158.594Y-86.754
T6
X148.434Y-40.862
X148.434Y-59.658
X148.434Y-78.454
X158.594Y-40.862
X158.594Y-59.658
X158.594Y-78.454
T0
M30
