M48
; DRILL file {KiCad (6.0.0)} date Fri Aug  5 10:15:00 2022
; FORMAT={-:-/ absolute / metric / decimal}
; #@! TF.CreationDate,2022-08-05T10:15:00-07:00
; #@! TF.GenerationSoftware,Kicad,Pcbnew,(6.0.0)
; #@! TF.FileFunction,Plated,1,4,PTH
FMAT,2
METRIC
; #@! TA.AperFunction,Plated,PTH,ViaDrill
T1C0.400
; #@! TA.AperFunction,Plated,PTH,ComponentDrill
T2C0.550
; #@! TA.AperFunction,Plated,PTH,ComponentDrill
T3C0.800
; #@! TA.AperFunction,Plated,PTH,ComponentDrill
T4C0.900
; #@! TA.AperFunction,Plated,PTH,ComponentDrill
T5C1.000
; #@! TA.AperFunction,Plated,PTH,ComponentDrill
T6C1.100
; #@! TA.AperFunction,Plated,PTH,ComponentDrill
T7C1.200
; #@! TA.AperFunction,Plated,PTH,ComponentDrill
T8C1.220
; #@! TA.AperFunction,Plated,PTH,ComponentDrill
T9C1.420
; #@! TA.AperFunction,Plated,PTH,ComponentDrill
T10C1.430
; #@! TA.AperFunction,Plated,PTH,ComponentDrill
T11C1.600
%
G90
G05
T1
X126.2Y-139.2
X126.6Y-129.7
X127.1Y-76.5
X128.2Y-74.6
X128.7Y-124.8
X129.0Y-116.5
X129.6Y-132.8
X131.1Y-121.4
X132.1Y-94.8
X132.4Y-138.0
X132.7Y-93.9
X136.2Y-112.1
X140.5Y-116.4
X142.1Y-98.3
X142.525Y-104.275
X143.2Y-117.2
X143.6Y-135.1
X147.5Y-119.6
X151.9Y-93.1
X152.9Y-70.4
X156.107Y-97.848
X160.4Y-111.7
X160.4Y-128.1
X162.1Y-126.3
X162.2Y-64.3
X162.6Y-109.7
X164.469Y-115.831
X168.0Y-111.6
X172.25Y-113.65
T2
X139.76Y-126.4
X140.4Y-141.4
X144.2Y-141.4
X144.84Y-126.4
X164.06Y-126.4
X164.7Y-141.4
X168.5Y-141.4
X169.14Y-126.4
T3
X125.222Y-73.197
X125.222Y-75.737
X125.222Y-78.277
X125.222Y-80.817
X125.222Y-83.357
X125.222Y-85.897
X125.222Y-88.437
X125.222Y-90.977
X132.842Y-73.197
X132.842Y-75.737
X132.842Y-78.277
X132.842Y-80.817
X132.842Y-83.357
X132.842Y-85.897
X132.842Y-88.437
X132.842Y-90.977
X138.48Y-93.675
X138.48Y-96.215
X138.48Y-98.755
X138.48Y-101.295
X138.48Y-103.835
X138.48Y-106.375
X138.48Y-108.915
X146.1Y-93.675
X146.1Y-96.215
X146.1Y-98.755
X146.1Y-101.295
X146.1Y-103.835
X146.1Y-106.375
X146.1Y-108.915
T4
X137.235Y-62.5
X139.775Y-62.5
T5
X127.403Y-107.833
X127.403Y-140.599
X129.903Y-107.833
X129.903Y-140.599
X132.403Y-107.833
X132.403Y-140.599
X139.849Y-124.343
X142.349Y-124.343
X144.849Y-124.343
X146.9Y-63.9
X146.9Y-66.44
X146.9Y-68.98
X149.44Y-63.9
X149.44Y-66.44
X149.44Y-68.98
X151.787Y-107.833
X151.787Y-140.599
X153.012Y-115.32
X153.012Y-117.86
X153.012Y-120.4
X153.012Y-122.94
X153.012Y-125.48
X154.287Y-107.833
X154.287Y-140.599
X155.552Y-115.32
X155.552Y-117.86
X155.552Y-120.4
X155.552Y-122.94
X155.552Y-125.48
X156.787Y-107.833
X156.787Y-140.599
X163.979Y-91.323
X163.979Y-124.343
X166.479Y-91.323
X166.479Y-124.343
X168.979Y-91.323
X168.979Y-124.343
T7
X129.649Y-62.484
T8
X128.633Y-55.564
X138.539Y-55.564
X148.445Y-55.564
X158.351Y-55.564
X168.257Y-55.564
T9
X128.633Y-52.464
X138.539Y-52.464
X148.445Y-52.464
X158.351Y-52.464
X168.257Y-52.464
T10
X128.633Y-44.164
X138.539Y-44.164
X148.445Y-44.164
X158.351Y-44.164
X168.257Y-44.164
T11
X126.113Y-58.948
X126.113Y-66.02
X133.184Y-58.948
X133.184Y-66.02
T6
X125.103Y-99.983G85X125.103Y-100.683
G05
X125.103Y-132.749G85X125.103Y-133.449
G05
X134.703Y-99.983G85X134.703Y-100.683
G05
X134.703Y-132.749G85X134.703Y-133.449
G05
X137.549Y-116.493G85X137.549Y-117.193
G05
X147.149Y-116.493G85X147.149Y-117.193
G05
X149.487Y-99.983G85X149.487Y-100.683
G05
X149.487Y-132.749G85X149.487Y-133.449
G05
X159.087Y-99.983G85X159.087Y-100.683
G05
X159.087Y-132.749G85X159.087Y-133.449
G05
X161.679Y-83.473G85X161.679Y-84.173
G05
X161.679Y-116.493G85X161.679Y-117.193
G05
X171.279Y-83.473G85X171.279Y-84.173
G05
X171.279Y-116.493G85X171.279Y-117.193
G05
T7
X158.851Y-59.6G85X157.851Y-59.6
G05
X158.851Y-64.3G85X157.851Y-64.3
G05
X158.851Y-69.0G85X157.851Y-69.0
G05
X167.757Y-59.562G85X168.757Y-59.562
G05
X167.757Y-64.262G85X168.757Y-64.262
G05
X167.757Y-68.962G85X168.757Y-68.962
G05
T0
M30
