G04 #@! TF.GenerationSoftware,KiCad,Pcbnew,(6.0.0)*
G04 #@! TF.CreationDate,2022-08-05T10:14:58-07:00*
G04 #@! TF.ProjectId,synth,73796e74-682e-46b6-9963-61645f706362,rev?*
G04 #@! TF.SameCoordinates,Original*
G04 #@! TF.FileFunction,Soldermask,Top*
G04 #@! TF.FilePolarity,Negative*
%FSLAX46Y46*%
G04 Gerber Fmt 4.6, Leading zero omitted, Abs format (unit mm)*
G04 Created by KiCad (PCBNEW (6.0.0)) date 2022-08-05 10:14:58*
%MOMM*%
%LPD*%
G01*
G04 APERTURE LIST*
G04 Aperture macros list*
%AMRoundRect*
0 Rectangle with rounded corners*
0 $1 Rounding radius*
0 $2 $3 $4 $5 $6 $7 $8 $9 X,Y pos of 4 corners*
0 Add a 4 corners polygon primitive as box body*
4,1,4,$2,$3,$4,$5,$6,$7,$8,$9,$2,$3,0*
0 Add four circle primitives for the rounded corners*
1,1,$1+$1,$2,$3*
1,1,$1+$1,$4,$5*
1,1,$1+$1,$6,$7*
1,1,$1+$1,$8,$9*
0 Add four rect primitives between the rounded corners*
20,1,$1+$1,$2,$3,$4,$5,0*
20,1,$1+$1,$4,$5,$6,$7,0*
20,1,$1+$1,$6,$7,$8,$9,0*
20,1,$1+$1,$8,$9,$2,$3,0*%
G04 Aperture macros list end*
%ADD10RoundRect,0.225000X0.250000X-0.225000X0.250000X0.225000X-0.250000X0.225000X-0.250000X-0.225000X0*%
%ADD11RoundRect,0.150000X0.150000X-0.825000X0.150000X0.825000X-0.150000X0.825000X-0.150000X-0.825000X0*%
%ADD12RoundRect,0.200000X0.275000X-0.200000X0.275000X0.200000X-0.275000X0.200000X-0.275000X-0.200000X0*%
%ADD13RoundRect,0.225000X0.225000X0.250000X-0.225000X0.250000X-0.225000X-0.250000X0.225000X-0.250000X0*%
%ADD14RoundRect,0.225000X-0.250000X0.225000X-0.250000X-0.225000X0.250000X-0.225000X0.250000X0.225000X0*%
%ADD15RoundRect,0.200000X-0.200000X-0.275000X0.200000X-0.275000X0.200000X0.275000X-0.200000X0.275000X0*%
%ADD16RoundRect,0.200000X-0.275000X0.200000X-0.275000X-0.200000X0.275000X-0.200000X0.275000X0.200000X0*%
%ADD17RoundRect,0.250000X-0.475000X0.250000X-0.475000X-0.250000X0.475000X-0.250000X0.475000X0.250000X0*%
%ADD18RoundRect,0.200000X0.200000X0.275000X-0.200000X0.275000X-0.200000X-0.275000X0.200000X-0.275000X0*%
%ADD19RoundRect,0.225000X-0.225000X-0.250000X0.225000X-0.250000X0.225000X0.250000X-0.225000X0.250000X0*%
%ADD20RoundRect,0.250000X-0.600000X-0.600000X0.600000X-0.600000X0.600000X0.600000X-0.600000X0.600000X0*%
%ADD21C,1.700000*%
%ADD22RoundRect,0.150000X0.150000X-0.587500X0.150000X0.587500X-0.150000X0.587500X-0.150000X-0.587500X0*%
%ADD23R,0.900000X1.200000*%
%ADD24RoundRect,0.150000X0.587500X0.150000X-0.587500X0.150000X-0.587500X-0.150000X0.587500X-0.150000X0*%
%ADD25R,1.200000X0.900000*%
%ADD26RoundRect,0.250000X0.600000X0.600000X-0.600000X0.600000X-0.600000X-0.600000X0.600000X-0.600000X0*%
%ADD27R,1.300000X1.300000*%
%ADD28R,1.300000X2.000000*%
%ADD29RoundRect,0.150000X-0.150000X0.825000X-0.150000X-0.825000X0.150000X-0.825000X0.150000X0.825000X0*%
%ADD30R,2.000000X1.300000*%
%ADD31RoundRect,0.250000X0.475000X-0.250000X0.475000X0.250000X-0.475000X0.250000X-0.475000X-0.250000X0*%
%ADD32O,2.720000X3.240000*%
%ADD33R,1.800000X1.800000*%
%ADD34C,1.800000*%
%ADD35C,2.000000*%
%ADD36C,2.500000*%
%ADD37R,1.600000X1.600000*%
%ADD38O,1.600000X1.600000*%
%ADD39R,1.930000X1.830000*%
%ADD40C,2.130000*%
%ADD41RoundRect,0.287500X0.287500X-0.287500X0.287500X0.287500X-0.287500X0.287500X-0.287500X-0.287500X0*%
%ADD42C,1.150000*%
%ADD43C,3.100000*%
G04 APERTURE END LIST*
D10*
X140600000Y-95575000D03*
X140600000Y-94025000D03*
D11*
X140395000Y-119075000D03*
X141665000Y-119075000D03*
X142935000Y-119075000D03*
X144205000Y-119075000D03*
X144205000Y-114125000D03*
X142935000Y-114125000D03*
X141665000Y-114125000D03*
X140395000Y-114125000D03*
D12*
X127422000Y-91762000D03*
X127422000Y-90112000D03*
D13*
X129675000Y-120700000D03*
X128125000Y-120700000D03*
X141875000Y-109200000D03*
X140325000Y-109200000D03*
D14*
X162600000Y-106825000D03*
X162600000Y-108375000D03*
D15*
X138475000Y-112100000D03*
X140125000Y-112100000D03*
D13*
X167475000Y-106900000D03*
X165925000Y-106900000D03*
D16*
X166000000Y-103650000D03*
X166000000Y-105300000D03*
D17*
X160500000Y-106650000D03*
X160500000Y-108550000D03*
D18*
X153628000Y-102172000D03*
X151978000Y-102172000D03*
D10*
X168800000Y-122314000D03*
X168800000Y-120764000D03*
D19*
X141525000Y-126400000D03*
X143075000Y-126400000D03*
D20*
X146900000Y-63900000D03*
D21*
X149440000Y-63900000D03*
X146900000Y-66440000D03*
X149440000Y-66440000D03*
X146900000Y-68980000D03*
X149440000Y-68980000D03*
D12*
X125838618Y-48577000D03*
X125838618Y-46927000D03*
D18*
X128306000Y-111528000D03*
X126656000Y-111528000D03*
D11*
X152295000Y-100075000D03*
X153565000Y-100075000D03*
X154835000Y-100075000D03*
X156105000Y-100075000D03*
X156105000Y-95125000D03*
X154835000Y-95125000D03*
X153565000Y-95125000D03*
X152295000Y-95125000D03*
D16*
X152041000Y-103760000D03*
X152041000Y-105410000D03*
D15*
X129213000Y-89037000D03*
X130863000Y-89037000D03*
D11*
X125195000Y-118575000D03*
X126465000Y-118575000D03*
X127735000Y-118575000D03*
X129005000Y-118575000D03*
X129005000Y-113625000D03*
X127735000Y-113625000D03*
X126465000Y-113625000D03*
X125195000Y-113625000D03*
D22*
X164350000Y-118537500D03*
X166250000Y-118537500D03*
X165300000Y-116662500D03*
D16*
X129900000Y-109900000D03*
X129900000Y-111550000D03*
D10*
X157800000Y-96175000D03*
X157800000Y-94625000D03*
D23*
X134150000Y-123000000D03*
X137450000Y-123000000D03*
D16*
X142300000Y-99575000D03*
X142300000Y-101225000D03*
D19*
X137225000Y-113700000D03*
X138775000Y-113700000D03*
D10*
X170815000Y-45733000D03*
X170815000Y-44183000D03*
D18*
X129328000Y-136772000D03*
X127678000Y-136772000D03*
D16*
X129276000Y-90512000D03*
X129276000Y-92162000D03*
D24*
X130329500Y-124514000D03*
X130329500Y-122614000D03*
X128454500Y-123564000D03*
D10*
X130800000Y-79575000D03*
X130800000Y-78025000D03*
D15*
X126656000Y-110004000D03*
X128306000Y-110004000D03*
X129075000Y-126104000D03*
X130725000Y-126104000D03*
X125005000Y-120700000D03*
X126655000Y-120700000D03*
D13*
X130813000Y-87436000D03*
X129263000Y-87436000D03*
D25*
X160400000Y-129750000D03*
X160400000Y-126450000D03*
D16*
X130800000Y-81277000D03*
X130800000Y-82927000D03*
D15*
X170275000Y-141400000D03*
X171925000Y-141400000D03*
D16*
X127422000Y-83912000D03*
X127422000Y-85562000D03*
D18*
X155152000Y-93028000D03*
X153502000Y-93028000D03*
D16*
X155400000Y-103775000D03*
X155400000Y-105425000D03*
D12*
X138100000Y-135925000D03*
X138100000Y-134275000D03*
D26*
X155552500Y-125480000D03*
D21*
X153012500Y-125480000D03*
X155552500Y-122940000D03*
X153012500Y-122940000D03*
X155552500Y-120400000D03*
X153012500Y-120400000D03*
X155552500Y-117860000D03*
X153012500Y-117860000D03*
X155552500Y-115320000D03*
X153012500Y-115320000D03*
D27*
X145450000Y-131950000D03*
D28*
X139950000Y-130800000D03*
D27*
X145450000Y-129650000D03*
D29*
X168205000Y-109125000D03*
X166935000Y-109125000D03*
X165665000Y-109125000D03*
X164395000Y-109125000D03*
X164395000Y-114075000D03*
X165665000Y-114075000D03*
X166935000Y-114075000D03*
X168205000Y-114075000D03*
D16*
X130822000Y-90512000D03*
X130822000Y-92162000D03*
D14*
X126090000Y-126091000D03*
X126090000Y-127641000D03*
D11*
X127995000Y-134675000D03*
X129265000Y-134675000D03*
X130535000Y-134675000D03*
X131805000Y-134675000D03*
X131805000Y-129725000D03*
X130535000Y-129725000D03*
X129265000Y-129725000D03*
X127995000Y-129725000D03*
D13*
X146675000Y-121200000D03*
X145125000Y-121200000D03*
D10*
X134900000Y-90975000D03*
X134900000Y-89425000D03*
D27*
X130950000Y-97250000D03*
D30*
X129800000Y-102750000D03*
D27*
X128650000Y-97250000D03*
D10*
X165862000Y-45733000D03*
X165862000Y-44183000D03*
X170000000Y-113375000D03*
X170000000Y-111825000D03*
D12*
X170500000Y-122364000D03*
X170500000Y-120714000D03*
D18*
X130725000Y-127628000D03*
X129075000Y-127628000D03*
D12*
X143900000Y-95625000D03*
X143900000Y-93975000D03*
X165600000Y-122364000D03*
X165600000Y-120714000D03*
D13*
X172375000Y-126400000D03*
X170825000Y-126400000D03*
D16*
X140600000Y-99575000D03*
X140600000Y-101225000D03*
X143900000Y-99575000D03*
X143900000Y-101225000D03*
D15*
X129213000Y-85700000D03*
X130863000Y-85700000D03*
D16*
X164900000Y-62275000D03*
X164900000Y-63925000D03*
D27*
X145450000Y-137350000D03*
D28*
X139950000Y-136200000D03*
D27*
X145450000Y-135050000D03*
D18*
X129325000Y-138300000D03*
X127675000Y-138300000D03*
D15*
X144475000Y-112100000D03*
X146125000Y-112100000D03*
D12*
X125838618Y-45529000D03*
X125838618Y-43879000D03*
D25*
X160500000Y-110150000D03*
X160500000Y-113450000D03*
D10*
X167200000Y-122314000D03*
X167200000Y-120764000D03*
D25*
X140900000Y-106050000D03*
X140900000Y-102750000D03*
D16*
X164900000Y-65375000D03*
X164900000Y-67025000D03*
D12*
X163957000Y-122364000D03*
X163957000Y-120714000D03*
D15*
X141475000Y-112100000D03*
X143125000Y-112100000D03*
D12*
X170815000Y-48831000D03*
X170815000Y-47181000D03*
X164900000Y-70125000D03*
X164900000Y-68475000D03*
D14*
X127422000Y-80862000D03*
X127422000Y-82412000D03*
D12*
X124206000Y-45529000D03*
X124206000Y-43879000D03*
D14*
X125100000Y-110025000D03*
X125100000Y-111575000D03*
D16*
X129222000Y-81277000D03*
X129222000Y-82927000D03*
D23*
X137450000Y-120600000D03*
X134150000Y-120600000D03*
D25*
X143500000Y-106050000D03*
X143500000Y-102750000D03*
D13*
X132326000Y-136772000D03*
X130776000Y-136772000D03*
D10*
X150600000Y-96175000D03*
X150600000Y-94625000D03*
D12*
X153721000Y-105436000D03*
X153721000Y-103786000D03*
D16*
X127614000Y-126041000D03*
X127614000Y-127691000D03*
D15*
X145875000Y-141400000D03*
X147525000Y-141400000D03*
D13*
X144075000Y-107600000D03*
X142525000Y-107600000D03*
D12*
X126200000Y-137825000D03*
X126200000Y-136175000D03*
D15*
X135075000Y-125000000D03*
X136725000Y-125000000D03*
D12*
X169164000Y-48831000D03*
X169164000Y-47181000D03*
X170000000Y-110250000D03*
X170000000Y-108600000D03*
D31*
X160400000Y-124850000D03*
X160400000Y-122950000D03*
D16*
X138100000Y-131175000D03*
X138100000Y-132825000D03*
X127422000Y-87012000D03*
X127422000Y-88662000D03*
D15*
X141850000Y-121200000D03*
X143500000Y-121200000D03*
D32*
X171278618Y-116843000D03*
X161678618Y-116843000D03*
D33*
X168978618Y-124343000D03*
D34*
X166478618Y-124343000D03*
X163978618Y-124343000D03*
D35*
X129648618Y-62484000D03*
D36*
X126113084Y-66019534D03*
X126113084Y-58948466D03*
X133184152Y-58948466D03*
X133184152Y-66019534D03*
D32*
X161678618Y-83823000D03*
X171278618Y-83823000D03*
D33*
X168978618Y-91323000D03*
D34*
X166478618Y-91323000D03*
X163978618Y-91323000D03*
D33*
X139775000Y-62500000D03*
D34*
X137235000Y-62500000D03*
D37*
X125222000Y-90977000D03*
D38*
X125222000Y-88437000D03*
X125222000Y-85897000D03*
X125222000Y-83357000D03*
X125222000Y-80817000D03*
X125222000Y-78277000D03*
X125222000Y-75737000D03*
X125222000Y-73197000D03*
X132842000Y-73197000D03*
X132842000Y-75737000D03*
X132842000Y-78277000D03*
X132842000Y-80817000D03*
X132842000Y-83357000D03*
X132842000Y-85897000D03*
X132842000Y-88437000D03*
X132842000Y-90977000D03*
D39*
X148444618Y-55564000D03*
D40*
X148444618Y-44164000D03*
X148444618Y-52464000D03*
D32*
X137548618Y-116843000D03*
X147148618Y-116843000D03*
D33*
X144848618Y-124343000D03*
D34*
X142348618Y-124343000D03*
X139848618Y-124343000D03*
D37*
X146100000Y-93675000D03*
D38*
X146100000Y-96215000D03*
X146100000Y-98755000D03*
X146100000Y-101295000D03*
X146100000Y-103835000D03*
X146100000Y-106375000D03*
X146100000Y-108915000D03*
X138480000Y-108915000D03*
X138480000Y-106375000D03*
X138480000Y-103835000D03*
X138480000Y-101295000D03*
X138480000Y-98755000D03*
X138480000Y-96215000D03*
X138480000Y-93675000D03*
D32*
X134702618Y-133099000D03*
X125102618Y-133099000D03*
D33*
X132402618Y-140599000D03*
D34*
X129902618Y-140599000D03*
X127402618Y-140599000D03*
D41*
X144200000Y-141400000D03*
D42*
X140400000Y-141400000D03*
X144840000Y-126400000D03*
X139760000Y-126400000D03*
D41*
X168500000Y-141400000D03*
D42*
X164700000Y-141400000D03*
X169140000Y-126400000D03*
X164060000Y-126400000D03*
D32*
X149486618Y-100333000D03*
X159086618Y-100333000D03*
D33*
X156786618Y-107833000D03*
D34*
X154286618Y-107833000D03*
X151786618Y-107833000D03*
D32*
X159086618Y-133099000D03*
X149486618Y-133099000D03*
D33*
X156786618Y-140599000D03*
D34*
X154286618Y-140599000D03*
X151786618Y-140599000D03*
D43*
X168256618Y-68962000D03*
X168256618Y-64262000D03*
X168256618Y-59562000D03*
D39*
X128632618Y-55564000D03*
D40*
X128632618Y-44164000D03*
X128632618Y-52464000D03*
D43*
X158350618Y-59600000D03*
X158350618Y-64300000D03*
X158350618Y-69000000D03*
D39*
X158350618Y-55564000D03*
D40*
X158350618Y-44164000D03*
X158350618Y-52464000D03*
D39*
X138538618Y-55564000D03*
D40*
X138538618Y-44164000D03*
X138538618Y-52464000D03*
D32*
X134702618Y-100333000D03*
X125102618Y-100333000D03*
D33*
X132402618Y-107833000D03*
D34*
X129902618Y-107833000D03*
X127402618Y-107833000D03*
D39*
X168256618Y-55564000D03*
D40*
X168256618Y-44164000D03*
X168256618Y-52464000D03*
M02*
