G04 #@! TF.GenerationSoftware,KiCad,Pcbnew,(6.0.0)*
G04 #@! TF.CreationDate,2022-08-05T10:14:58-07:00*
G04 #@! TF.ProjectId,synth,73796e74-682e-46b6-9963-61645f706362,rev?*
G04 #@! TF.SameCoordinates,Original*
G04 #@! TF.FileFunction,Legend,Bot*
G04 #@! TF.FilePolarity,Positive*
%FSLAX46Y46*%
G04 Gerber Fmt 4.6, Leading zero omitted, Abs format (unit mm)*
G04 Created by KiCad (PCBNEW (6.0.0)) date 2022-08-05 10:14:58*
%MOMM*%
%LPD*%
G01*
G04 APERTURE LIST*
G04 Aperture macros list*
%AMRoundRect*
0 Rectangle with rounded corners*
0 $1 Rounding radius*
0 $2 $3 $4 $5 $6 $7 $8 $9 X,Y pos of 4 corners*
0 Add a 4 corners polygon primitive as box body*
4,1,4,$2,$3,$4,$5,$6,$7,$8,$9,$2,$3,0*
0 Add four circle primitives for the rounded corners*
1,1,$1+$1,$2,$3*
1,1,$1+$1,$4,$5*
1,1,$1+$1,$6,$7*
1,1,$1+$1,$8,$9*
0 Add four rect primitives between the rounded corners*
20,1,$1+$1,$2,$3,$4,$5,0*
20,1,$1+$1,$4,$5,$6,$7,0*
20,1,$1+$1,$6,$7,$8,$9,0*
20,1,$1+$1,$8,$9,$2,$3,0*%
G04 Aperture macros list end*
%ADD10C,0.150000*%
%ADD11C,0.120000*%
%ADD12C,0.125000*%
%ADD13RoundRect,0.250000X-0.600000X-0.600000X0.600000X-0.600000X0.600000X0.600000X-0.600000X0.600000X0*%
%ADD14C,1.700000*%
%ADD15RoundRect,0.250000X0.600000X0.600000X-0.600000X0.600000X-0.600000X-0.600000X0.600000X-0.600000X0*%
%ADD16O,2.720000X3.240000*%
%ADD17R,1.800000X1.800000*%
%ADD18C,1.800000*%
%ADD19C,2.000000*%
%ADD20C,2.500000*%
%ADD21R,1.600000X1.600000*%
%ADD22O,1.600000X1.600000*%
%ADD23R,1.930000X1.830000*%
%ADD24C,2.130000*%
%ADD25RoundRect,0.287500X0.287500X-0.287500X0.287500X0.287500X-0.287500X0.287500X-0.287500X-0.287500X0*%
%ADD26C,1.150000*%
%ADD27C,3.100000*%
G04 APERTURE END LIST*
D10*
X161252380Y-121004761D02*
X160776190Y-120671428D01*
X161252380Y-120433333D02*
X160252380Y-120433333D01*
X160252380Y-120814285D01*
X160300000Y-120909523D01*
X160347619Y-120957142D01*
X160442857Y-121004761D01*
X160585714Y-121004761D01*
X160680952Y-120957142D01*
X160728571Y-120909523D01*
X160776190Y-120814285D01*
X160776190Y-120433333D01*
X160252380Y-121290476D02*
X161252380Y-121623809D01*
X160252380Y-121957142D01*
X161252380Y-122338095D02*
X161252380Y-122528571D01*
X161204761Y-122623809D01*
X161157142Y-122671428D01*
X161014285Y-122766666D01*
X160823809Y-122814285D01*
X160442857Y-122814285D01*
X160347619Y-122766666D01*
X160300000Y-122719047D01*
X160252380Y-122623809D01*
X160252380Y-122433333D01*
X160300000Y-122338095D01*
X160347619Y-122290476D01*
X160442857Y-122242857D01*
X160680952Y-122242857D01*
X160776190Y-122290476D01*
X160823809Y-122338095D01*
X160871428Y-122433333D01*
X160871428Y-122623809D01*
X160823809Y-122719047D01*
X160776190Y-122766666D01*
X160680952Y-122814285D01*
X131897891Y-60706131D02*
X131392815Y-61211207D01*
X131325471Y-61345894D01*
X131325471Y-61480581D01*
X131392815Y-61615268D01*
X131460158Y-61682611D01*
X130820395Y-61042848D02*
X130685708Y-60908161D01*
X130652036Y-60807146D01*
X130652036Y-60739802D01*
X130685708Y-60571444D01*
X130786723Y-60403085D01*
X131056097Y-60133711D01*
X131157112Y-60100039D01*
X131224456Y-60100039D01*
X131325471Y-60133711D01*
X131460158Y-60268398D01*
X131493830Y-60369413D01*
X131493830Y-60436757D01*
X131460158Y-60537772D01*
X131291799Y-60706131D01*
X131190784Y-60739802D01*
X131123441Y-60739802D01*
X131022425Y-60706131D01*
X130887738Y-60571444D01*
X130854067Y-60470428D01*
X130854067Y-60403085D01*
X130887738Y-60302070D01*
X174070998Y-83541571D02*
X173594808Y-83208238D01*
X174070998Y-82970142D02*
X173070998Y-82970142D01*
X173070998Y-83351095D01*
X173118618Y-83446333D01*
X173166237Y-83493952D01*
X173261475Y-83541571D01*
X173404332Y-83541571D01*
X173499570Y-83493952D01*
X173547189Y-83446333D01*
X173594808Y-83351095D01*
X173594808Y-82970142D01*
X173070998Y-83827285D02*
X174070998Y-84160619D01*
X173070998Y-84493952D01*
X174070998Y-85351095D02*
X174070998Y-84779666D01*
X174070998Y-85065380D02*
X173070998Y-85065380D01*
X173213856Y-84970142D01*
X173309094Y-84874904D01*
X173356713Y-84779666D01*
X173070998Y-85970142D02*
X173070998Y-86065380D01*
X173118618Y-86160619D01*
X173166237Y-86208238D01*
X173261475Y-86255857D01*
X173451951Y-86303476D01*
X173690046Y-86303476D01*
X173880522Y-86255857D01*
X173975760Y-86208238D01*
X174023379Y-86160619D01*
X174070998Y-86065380D01*
X174070998Y-85970142D01*
X174023379Y-85874904D01*
X173975760Y-85827285D01*
X173880522Y-85779666D01*
X173690046Y-85732047D01*
X173451951Y-85732047D01*
X173261475Y-85779666D01*
X173166237Y-85827285D01*
X173118618Y-85874904D01*
X173070998Y-85970142D01*
X139243095Y-59992380D02*
X139243095Y-58992380D01*
X139005000Y-58992380D01*
X138862142Y-59040000D01*
X138766904Y-59135238D01*
X138719285Y-59230476D01*
X138671666Y-59420952D01*
X138671666Y-59563809D01*
X138719285Y-59754285D01*
X138766904Y-59849523D01*
X138862142Y-59944761D01*
X139005000Y-59992380D01*
X139243095Y-59992380D01*
X137766904Y-58992380D02*
X138243095Y-58992380D01*
X138290714Y-59468571D01*
X138243095Y-59420952D01*
X138147857Y-59373333D01*
X137909761Y-59373333D01*
X137814523Y-59420952D01*
X137766904Y-59468571D01*
X137719285Y-59563809D01*
X137719285Y-59801904D01*
X137766904Y-59897142D01*
X137814523Y-59944761D01*
X137909761Y-59992380D01*
X138147857Y-59992380D01*
X138243095Y-59944761D01*
X138290714Y-59897142D01*
X130301904Y-93521380D02*
X130301904Y-94330904D01*
X130254285Y-94426142D01*
X130206666Y-94473761D01*
X130111428Y-94521380D01*
X129920952Y-94521380D01*
X129825714Y-94473761D01*
X129778095Y-94426142D01*
X129730476Y-94330904D01*
X129730476Y-93521380D01*
X128825714Y-93854714D02*
X128825714Y-94521380D01*
X129063809Y-93473761D02*
X129301904Y-94188047D01*
X128682857Y-94188047D01*
X144747951Y-53936380D02*
X144747951Y-54650666D01*
X144795570Y-54793523D01*
X144890808Y-54888761D01*
X145033665Y-54936380D01*
X145128903Y-54936380D01*
X144366998Y-53936380D02*
X143747951Y-53936380D01*
X144081284Y-54317333D01*
X143938427Y-54317333D01*
X143843189Y-54364952D01*
X143795570Y-54412571D01*
X143747951Y-54507809D01*
X143747951Y-54745904D01*
X143795570Y-54841142D01*
X143843189Y-54888761D01*
X143938427Y-54936380D01*
X144224141Y-54936380D01*
X144319379Y-54888761D01*
X144366998Y-54841142D01*
X148552380Y-121304761D02*
X148076190Y-120971428D01*
X148552380Y-120733333D02*
X147552380Y-120733333D01*
X147552380Y-121114285D01*
X147600000Y-121209523D01*
X147647619Y-121257142D01*
X147742857Y-121304761D01*
X147885714Y-121304761D01*
X147980952Y-121257142D01*
X148028571Y-121209523D01*
X148076190Y-121114285D01*
X148076190Y-120733333D01*
X147552380Y-121590476D02*
X148552380Y-121923809D01*
X147552380Y-122257142D01*
X147552380Y-123066666D02*
X147552380Y-122590476D01*
X148028571Y-122542857D01*
X147980952Y-122590476D01*
X147933333Y-122685714D01*
X147933333Y-122923809D01*
X147980952Y-123019047D01*
X148028571Y-123066666D01*
X148123809Y-123114285D01*
X148361904Y-123114285D01*
X148457142Y-123066666D01*
X148504761Y-123019047D01*
X148552380Y-122923809D01*
X148552380Y-122685714D01*
X148504761Y-122590476D01*
X148457142Y-122542857D01*
X142961904Y-90952380D02*
X142961904Y-91761904D01*
X142914285Y-91857142D01*
X142866666Y-91904761D01*
X142771428Y-91952380D01*
X142580952Y-91952380D01*
X142485714Y-91904761D01*
X142438095Y-91857142D01*
X142390476Y-91761904D01*
X142390476Y-90952380D01*
X142009523Y-90952380D02*
X141390476Y-90952380D01*
X141723809Y-91333333D01*
X141580952Y-91333333D01*
X141485714Y-91380952D01*
X141438095Y-91428571D01*
X141390476Y-91523809D01*
X141390476Y-91761904D01*
X141438095Y-91857142D01*
X141485714Y-91904761D01*
X141580952Y-91952380D01*
X141866666Y-91952380D01*
X141961904Y-91904761D01*
X142009523Y-91857142D01*
X136052380Y-137504761D02*
X135576190Y-137171428D01*
X136052380Y-136933333D02*
X135052380Y-136933333D01*
X135052380Y-137314285D01*
X135100000Y-137409523D01*
X135147619Y-137457142D01*
X135242857Y-137504761D01*
X135385714Y-137504761D01*
X135480952Y-137457142D01*
X135528571Y-137409523D01*
X135576190Y-137314285D01*
X135576190Y-136933333D01*
X135052380Y-137790476D02*
X136052380Y-138123809D01*
X135052380Y-138457142D01*
X136052380Y-139314285D02*
X136052380Y-138742857D01*
X136052380Y-139028571D02*
X135052380Y-139028571D01*
X135195238Y-138933333D01*
X135290476Y-138838095D01*
X135338095Y-138742857D01*
X143161904Y-126652380D02*
X143161904Y-127461904D01*
X143114285Y-127557142D01*
X143066666Y-127604761D01*
X142971428Y-127652380D01*
X142780952Y-127652380D01*
X142685714Y-127604761D01*
X142638095Y-127557142D01*
X142590476Y-127461904D01*
X142590476Y-126652380D01*
X141590476Y-127652380D02*
X142161904Y-127652380D01*
X141876190Y-127652380D02*
X141876190Y-126652380D01*
X141971428Y-126795238D01*
X142066666Y-126890476D01*
X142161904Y-126938095D01*
X166152380Y-125938095D02*
X166961904Y-125938095D01*
X167057142Y-125985714D01*
X167104761Y-126033333D01*
X167152380Y-126128571D01*
X167152380Y-126319047D01*
X167104761Y-126414285D01*
X167057142Y-126461904D01*
X166961904Y-126509523D01*
X166152380Y-126509523D01*
X166247619Y-126938095D02*
X166200000Y-126985714D01*
X166152380Y-127080952D01*
X166152380Y-127319047D01*
X166200000Y-127414285D01*
X166247619Y-127461904D01*
X166342857Y-127509523D01*
X166438095Y-127509523D01*
X166580952Y-127461904D01*
X167152380Y-126890476D01*
X167152380Y-127509523D01*
X149152380Y-104904761D02*
X148676190Y-104571428D01*
X149152380Y-104333333D02*
X148152380Y-104333333D01*
X148152380Y-104714285D01*
X148200000Y-104809523D01*
X148247619Y-104857142D01*
X148342857Y-104904761D01*
X148485714Y-104904761D01*
X148580952Y-104857142D01*
X148628571Y-104809523D01*
X148676190Y-104714285D01*
X148676190Y-104333333D01*
X148152380Y-105190476D02*
X149152380Y-105523809D01*
X148152380Y-105857142D01*
X148580952Y-106333333D02*
X148533333Y-106238095D01*
X148485714Y-106190476D01*
X148390476Y-106142857D01*
X148342857Y-106142857D01*
X148247619Y-106190476D01*
X148200000Y-106238095D01*
X148152380Y-106333333D01*
X148152380Y-106523809D01*
X148200000Y-106619047D01*
X148247619Y-106666666D01*
X148342857Y-106714285D01*
X148390476Y-106714285D01*
X148485714Y-106666666D01*
X148533333Y-106619047D01*
X148580952Y-106523809D01*
X148580952Y-106333333D01*
X148628571Y-106238095D01*
X148676190Y-106190476D01*
X148771428Y-106142857D01*
X148961904Y-106142857D01*
X149057142Y-106190476D01*
X149104761Y-106238095D01*
X149152380Y-106333333D01*
X149152380Y-106523809D01*
X149104761Y-106619047D01*
X149057142Y-106666666D01*
X148961904Y-106714285D01*
X148771428Y-106714285D01*
X148676190Y-106666666D01*
X148628571Y-106619047D01*
X148580952Y-106523809D01*
X160452380Y-137704761D02*
X159976190Y-137371428D01*
X160452380Y-137133333D02*
X159452380Y-137133333D01*
X159452380Y-137514285D01*
X159500000Y-137609523D01*
X159547619Y-137657142D01*
X159642857Y-137704761D01*
X159785714Y-137704761D01*
X159880952Y-137657142D01*
X159928571Y-137609523D01*
X159976190Y-137514285D01*
X159976190Y-137133333D01*
X159452380Y-137990476D02*
X160452380Y-138323809D01*
X159452380Y-138657142D01*
X159547619Y-138942857D02*
X159500000Y-138990476D01*
X159452380Y-139085714D01*
X159452380Y-139323809D01*
X159500000Y-139419047D01*
X159547619Y-139466666D01*
X159642857Y-139514285D01*
X159738095Y-139514285D01*
X159880952Y-139466666D01*
X160452380Y-138895238D01*
X160452380Y-139514285D01*
X163704761Y-68045357D02*
X163752380Y-68188214D01*
X163752380Y-68426309D01*
X163704761Y-68521547D01*
X163657142Y-68569166D01*
X163561904Y-68616785D01*
X163466666Y-68616785D01*
X163371428Y-68569166D01*
X163323809Y-68521547D01*
X163276190Y-68426309D01*
X163228571Y-68235833D01*
X163180952Y-68140595D01*
X163133333Y-68092976D01*
X163038095Y-68045357D01*
X162942857Y-68045357D01*
X162847619Y-68092976D01*
X162800000Y-68140595D01*
X162752380Y-68235833D01*
X162752380Y-68473928D01*
X162800000Y-68616785D01*
X162752380Y-68950119D02*
X163752380Y-69188214D01*
X163038095Y-69378690D01*
X163752380Y-69569166D01*
X162752380Y-69807261D01*
X162847619Y-70140595D02*
X162800000Y-70188214D01*
X162752380Y-70283452D01*
X162752380Y-70521547D01*
X162800000Y-70616785D01*
X162847619Y-70664404D01*
X162942857Y-70712023D01*
X163038095Y-70712023D01*
X163180952Y-70664404D01*
X163752380Y-70092976D01*
X163752380Y-70712023D01*
X124935951Y-53936380D02*
X124935951Y-54650666D01*
X124983570Y-54793523D01*
X125078808Y-54888761D01*
X125221665Y-54936380D01*
X125316903Y-54936380D01*
X124031189Y-53936380D02*
X124221665Y-53936380D01*
X124316903Y-53984000D01*
X124364522Y-54031619D01*
X124459760Y-54174476D01*
X124507379Y-54364952D01*
X124507379Y-54745904D01*
X124459760Y-54841142D01*
X124412141Y-54888761D01*
X124316903Y-54936380D01*
X124126427Y-54936380D01*
X124031189Y-54888761D01*
X123983570Y-54841142D01*
X123935951Y-54745904D01*
X123935951Y-54507809D01*
X123983570Y-54412571D01*
X124031189Y-54364952D01*
X124126427Y-54317333D01*
X124316903Y-54317333D01*
X124412141Y-54364952D01*
X124459760Y-54412571D01*
X124507379Y-54507809D01*
X153904761Y-67387976D02*
X153952380Y-67530833D01*
X153952380Y-67768928D01*
X153904761Y-67864166D01*
X153857142Y-67911785D01*
X153761904Y-67959404D01*
X153666666Y-67959404D01*
X153571428Y-67911785D01*
X153523809Y-67864166D01*
X153476190Y-67768928D01*
X153428571Y-67578452D01*
X153380952Y-67483214D01*
X153333333Y-67435595D01*
X153238095Y-67387976D01*
X153142857Y-67387976D01*
X153047619Y-67435595D01*
X153000000Y-67483214D01*
X152952380Y-67578452D01*
X152952380Y-67816547D01*
X153000000Y-67959404D01*
X152952380Y-68292738D02*
X153952380Y-68530833D01*
X153238095Y-68721309D01*
X153952380Y-68911785D01*
X152952380Y-69149880D01*
X153952380Y-70054642D02*
X153952380Y-69483214D01*
X153952380Y-69768928D02*
X152952380Y-69768928D01*
X153095238Y-69673690D01*
X153190476Y-69578452D01*
X153238095Y-69483214D01*
X154653951Y-53936380D02*
X154653951Y-54650666D01*
X154701570Y-54793523D01*
X154796808Y-54888761D01*
X154939665Y-54936380D01*
X155034903Y-54936380D01*
X153653951Y-54936380D02*
X154225379Y-54936380D01*
X153939665Y-54936380D02*
X153939665Y-53936380D01*
X154034903Y-54079238D01*
X154130141Y-54174476D01*
X154225379Y-54222095D01*
X134841951Y-53936380D02*
X134841951Y-54650666D01*
X134889570Y-54793523D01*
X134984808Y-54888761D01*
X135127665Y-54936380D01*
X135222903Y-54936380D01*
X134413379Y-54031619D02*
X134365760Y-53984000D01*
X134270522Y-53936380D01*
X134032427Y-53936380D01*
X133937189Y-53984000D01*
X133889570Y-54031619D01*
X133841951Y-54126857D01*
X133841951Y-54222095D01*
X133889570Y-54364952D01*
X134460998Y-54936380D01*
X133841951Y-54936380D01*
X136052380Y-104304761D02*
X135576190Y-103971428D01*
X136052380Y-103733333D02*
X135052380Y-103733333D01*
X135052380Y-104114285D01*
X135100000Y-104209523D01*
X135147619Y-104257142D01*
X135242857Y-104304761D01*
X135385714Y-104304761D01*
X135480952Y-104257142D01*
X135528571Y-104209523D01*
X135576190Y-104114285D01*
X135576190Y-103733333D01*
X135052380Y-104590476D02*
X136052380Y-104923809D01*
X135052380Y-105257142D01*
X135052380Y-105495238D02*
X135052380Y-106161904D01*
X136052380Y-105733333D01*
X164559951Y-53936380D02*
X164559951Y-54650666D01*
X164607570Y-54793523D01*
X164702808Y-54888761D01*
X164845665Y-54936380D01*
X164940903Y-54936380D01*
X163655189Y-54269714D02*
X163655189Y-54936380D01*
X163893284Y-53888761D02*
X164131379Y-54603047D01*
X163512332Y-54603047D01*
D11*
X164818618Y-123463000D02*
X165648618Y-123463000D01*
X171348618Y-114933000D02*
X171348618Y-111873000D01*
X161608618Y-123463000D02*
X161608618Y-118743000D01*
X167268618Y-123463000D02*
X167798618Y-123463000D01*
X161608618Y-111873000D02*
X171348618Y-111873000D01*
X170168618Y-123463000D02*
X171348618Y-123463000D01*
X161608618Y-123463000D02*
X163098618Y-123463000D01*
X161608618Y-114933000D02*
X161608618Y-111873000D01*
X171358618Y-123463000D02*
X171358618Y-118743000D01*
X134648618Y-62484000D02*
G75*
G03*
X134648618Y-62484000I-5000000J0D01*
G01*
X161608618Y-81913000D02*
X161608618Y-78853000D01*
X170168618Y-90443000D02*
X171348618Y-90443000D01*
X161608618Y-90443000D02*
X163098618Y-90443000D01*
X164818618Y-90443000D02*
X165648618Y-90443000D01*
X167268618Y-90443000D02*
X167798618Y-90443000D01*
X161608618Y-90443000D02*
X161608618Y-85723000D01*
X171358618Y-90443000D02*
X171358618Y-85723000D01*
X171348618Y-81913000D02*
X171348618Y-78853000D01*
X161608618Y-78853000D02*
X171348618Y-78853000D01*
X140065000Y-63580000D02*
X140065000Y-63736000D01*
X140065000Y-61264000D02*
X140065000Y-61420000D01*
X140065000Y-61264484D02*
G75*
G03*
X136832665Y-61421392I-1560000J-1235517D01*
G01*
X139545961Y-61420000D02*
G75*
G03*
X137463870Y-61420163I-1040961J-1080000D01*
G01*
X137463870Y-63579837D02*
G75*
G03*
X139545961Y-63580000I1041130J1079837D01*
G01*
X136832665Y-63578608D02*
G75*
G03*
X140065000Y-63735516I1672335J1078609D01*
G01*
X131682000Y-71867000D02*
X131682000Y-92307000D01*
X126382000Y-71867000D02*
X131682000Y-71867000D01*
X128032000Y-92307000D02*
X126382000Y-92307000D01*
X131682000Y-92307000D02*
X130032000Y-92307000D01*
X126382000Y-92307000D02*
X126382000Y-71867000D01*
X130032000Y-92307000D02*
G75*
G03*
X128032000Y-92307000I-1000000J0D01*
G01*
X147944618Y-43084000D02*
X143944618Y-43084000D01*
X152944618Y-53584000D02*
X152944618Y-43084000D01*
X143944618Y-53584000D02*
X143944618Y-43084000D01*
X147384618Y-56564000D02*
X148244618Y-56564000D01*
X152944618Y-43084000D02*
X148944618Y-43084000D01*
X147384618Y-56564000D02*
X147384618Y-55764000D01*
X152944618Y-53584000D02*
X148794618Y-53584000D01*
X148094618Y-53584000D02*
X143944618Y-53584000D01*
X150244618Y-49084000D02*
G75*
G03*
X150244618Y-49084000I-1800000J0D01*
G01*
X146038618Y-123463000D02*
X147218618Y-123463000D01*
X137478618Y-114933000D02*
X137478618Y-111873000D01*
X137478618Y-123463000D02*
X137478618Y-118743000D01*
X137478618Y-111873000D02*
X147218618Y-111873000D01*
X147218618Y-114933000D02*
X147218618Y-111873000D01*
X137478618Y-123463000D02*
X138968618Y-123463000D01*
X147228618Y-123463000D02*
X147228618Y-118743000D01*
X143138618Y-123463000D02*
X143668618Y-123463000D01*
X140688618Y-123463000D02*
X141518618Y-123463000D01*
X139640000Y-110245000D02*
X139640000Y-92345000D01*
X143290000Y-92345000D02*
X144940000Y-92345000D01*
X144940000Y-110245000D02*
X139640000Y-110245000D01*
X144940000Y-92345000D02*
X144940000Y-110245000D01*
X139640000Y-92345000D02*
X141290000Y-92345000D01*
X141290000Y-92345000D02*
G75*
G03*
X143290000Y-92345000I1000000J0D01*
G01*
X130692618Y-139719000D02*
X131222618Y-139719000D01*
X134772618Y-131189000D02*
X134772618Y-128129000D01*
X125032618Y-139719000D02*
X126522618Y-139719000D01*
X125032618Y-139719000D02*
X125032618Y-134999000D01*
X125032618Y-128129000D02*
X134772618Y-128129000D01*
X133592618Y-139719000D02*
X134772618Y-139719000D01*
X128242618Y-139719000D02*
X129072618Y-139719000D01*
X125032618Y-131189000D02*
X125032618Y-128129000D01*
X134782618Y-139719000D02*
X134782618Y-134999000D01*
X147310000Y-128890000D02*
X147310000Y-136330000D01*
X137290000Y-138910000D02*
X137290000Y-128890000D01*
X137290000Y-128890000D02*
X147310000Y-128890000D01*
X144730000Y-138910000D02*
X137290000Y-138910000D01*
X147310000Y-136330000D02*
X144730000Y-138910000D01*
X169030000Y-138910000D02*
X161590000Y-138910000D01*
X171610000Y-128890000D02*
X171610000Y-136330000D01*
X161590000Y-128890000D02*
X171610000Y-128890000D01*
X171610000Y-136330000D02*
X169030000Y-138910000D01*
X161590000Y-138910000D02*
X161590000Y-128890000D01*
X159156618Y-98423000D02*
X159156618Y-95363000D01*
X149416618Y-95363000D02*
X159156618Y-95363000D01*
X155076618Y-106953000D02*
X155606618Y-106953000D01*
X159166618Y-106953000D02*
X159166618Y-102233000D01*
X149416618Y-106953000D02*
X150906618Y-106953000D01*
X157976618Y-106953000D02*
X159156618Y-106953000D01*
X149416618Y-106953000D02*
X149416618Y-102233000D01*
X149416618Y-98423000D02*
X149416618Y-95363000D01*
X152626618Y-106953000D02*
X153456618Y-106953000D01*
X149416618Y-139719000D02*
X149416618Y-134999000D01*
X149416618Y-128129000D02*
X159156618Y-128129000D01*
X159156618Y-131189000D02*
X159156618Y-128129000D01*
X149416618Y-139719000D02*
X150906618Y-139719000D01*
X155076618Y-139719000D02*
X155606618Y-139719000D01*
X149416618Y-131189000D02*
X149416618Y-128129000D01*
X157976618Y-139719000D02*
X159156618Y-139719000D01*
X159166618Y-139719000D02*
X159166618Y-134999000D01*
X152626618Y-139719000D02*
X153456618Y-139719000D01*
D12*
X164356618Y-70862000D02*
X172156618Y-70862000D01*
X172256618Y-70762000D02*
X172256618Y-57762000D01*
X164256618Y-57762000D02*
X164256618Y-70762000D01*
X172156618Y-57662000D02*
X164356618Y-57662000D01*
X164256118Y-70739000D02*
G75*
G03*
X164383118Y-70866000I126999J-1D01*
G01*
X172130118Y-70866000D02*
G75*
G03*
X172257118Y-70739000I1J126999D01*
G01*
X164383118Y-57658000D02*
G75*
G03*
X164256118Y-57785000I-1J-126999D01*
G01*
X172257118Y-57785000D02*
G75*
G03*
X172130118Y-57658000I-126999J1D01*
G01*
X171256618Y-64262000D02*
G75*
G03*
X171256618Y-64262000I-3000000J0D01*
G01*
D11*
X133132618Y-43084000D02*
X129132618Y-43084000D01*
X128282618Y-53584000D02*
X124132618Y-53584000D01*
X124132618Y-53584000D02*
X124132618Y-43084000D01*
X127572618Y-56564000D02*
X127572618Y-55764000D01*
X128132618Y-43084000D02*
X124132618Y-43084000D01*
X133132618Y-53584000D02*
X128982618Y-53584000D01*
X127572618Y-56564000D02*
X128432618Y-56564000D01*
X133132618Y-53584000D02*
X133132618Y-43084000D01*
X130432618Y-49084000D02*
G75*
G03*
X130432618Y-49084000I-1800000J0D01*
G01*
D12*
X162250618Y-57700000D02*
X154450618Y-57700000D01*
X162350618Y-70800000D02*
X162350618Y-57800000D01*
X154450618Y-70900000D02*
X162250618Y-70900000D01*
X154350618Y-57800000D02*
X154350618Y-70800000D01*
X162224118Y-70904000D02*
G75*
G03*
X162351118Y-70777000I1J126999D01*
G01*
X162351118Y-57823000D02*
G75*
G03*
X162224118Y-57696000I-126999J1D01*
G01*
X154477118Y-57696000D02*
G75*
G03*
X154350118Y-57823000I-1J-126999D01*
G01*
X154350118Y-70777000D02*
G75*
G03*
X154477118Y-70904000I126999J-1D01*
G01*
X161350618Y-64300000D02*
G75*
G03*
X161350618Y-64300000I-3000000J0D01*
G01*
D11*
X157850618Y-43084000D02*
X153850618Y-43084000D01*
X153850618Y-53584000D02*
X153850618Y-43084000D01*
X162850618Y-43084000D02*
X158850618Y-43084000D01*
X157290618Y-56564000D02*
X158150618Y-56564000D01*
X157290618Y-56564000D02*
X157290618Y-55764000D01*
X162850618Y-53584000D02*
X158700618Y-53584000D01*
X162850618Y-53584000D02*
X162850618Y-43084000D01*
X158000618Y-53584000D02*
X153850618Y-53584000D01*
X160150618Y-49084000D02*
G75*
G03*
X160150618Y-49084000I-1800000J0D01*
G01*
X138188618Y-53584000D02*
X134038618Y-53584000D01*
X137478618Y-56564000D02*
X138338618Y-56564000D01*
X143038618Y-53584000D02*
X143038618Y-43084000D01*
X143038618Y-43084000D02*
X139038618Y-43084000D01*
X143038618Y-53584000D02*
X138888618Y-53584000D01*
X138038618Y-43084000D02*
X134038618Y-43084000D01*
X134038618Y-53584000D02*
X134038618Y-43084000D01*
X137478618Y-56564000D02*
X137478618Y-55764000D01*
X140338618Y-49084000D02*
G75*
G03*
X140338618Y-49084000I-1800000J0D01*
G01*
X134782618Y-106953000D02*
X134782618Y-102233000D01*
X130692618Y-106953000D02*
X131222618Y-106953000D01*
X128242618Y-106953000D02*
X129072618Y-106953000D01*
X125032618Y-98423000D02*
X125032618Y-95363000D01*
X133592618Y-106953000D02*
X134772618Y-106953000D01*
X134772618Y-98423000D02*
X134772618Y-95363000D01*
X125032618Y-95363000D02*
X134772618Y-95363000D01*
X125032618Y-106953000D02*
X125032618Y-102233000D01*
X125032618Y-106953000D02*
X126522618Y-106953000D01*
X172756618Y-53584000D02*
X172756618Y-43084000D01*
X167906618Y-53584000D02*
X163756618Y-53584000D01*
X167756618Y-43084000D02*
X163756618Y-43084000D01*
X167196618Y-56564000D02*
X167196618Y-55764000D01*
X172756618Y-43084000D02*
X168756618Y-43084000D01*
X163756618Y-53584000D02*
X163756618Y-43084000D01*
X172756618Y-53584000D02*
X168606618Y-53584000D01*
X167196618Y-56564000D02*
X168056618Y-56564000D01*
X170056618Y-49084000D02*
G75*
G03*
X170056618Y-49084000I-1800000J0D01*
G01*
%LPC*%
D13*
X146900000Y-63900000D03*
D14*
X149440000Y-63900000D03*
X146900000Y-66440000D03*
X149440000Y-66440000D03*
X146900000Y-68980000D03*
X149440000Y-68980000D03*
D15*
X155552500Y-125480000D03*
D14*
X153012500Y-125480000D03*
X155552500Y-122940000D03*
X153012500Y-122940000D03*
X155552500Y-120400000D03*
X153012500Y-120400000D03*
X155552500Y-117860000D03*
X153012500Y-117860000D03*
X155552500Y-115320000D03*
X153012500Y-115320000D03*
D16*
X171278618Y-116843000D03*
X161678618Y-116843000D03*
D17*
X168978618Y-124343000D03*
D18*
X166478618Y-124343000D03*
X163978618Y-124343000D03*
D19*
X129648618Y-62484000D03*
D20*
X126113084Y-66019534D03*
X126113084Y-58948466D03*
X133184152Y-58948466D03*
X133184152Y-66019534D03*
D16*
X161678618Y-83823000D03*
X171278618Y-83823000D03*
D17*
X168978618Y-91323000D03*
D18*
X166478618Y-91323000D03*
X163978618Y-91323000D03*
D17*
X139775000Y-62500000D03*
D18*
X137235000Y-62500000D03*
D21*
X125222000Y-90977000D03*
D22*
X125222000Y-88437000D03*
X125222000Y-85897000D03*
X125222000Y-83357000D03*
X125222000Y-80817000D03*
X125222000Y-78277000D03*
X125222000Y-75737000D03*
X125222000Y-73197000D03*
X132842000Y-73197000D03*
X132842000Y-75737000D03*
X132842000Y-78277000D03*
X132842000Y-80817000D03*
X132842000Y-83357000D03*
X132842000Y-85897000D03*
X132842000Y-88437000D03*
X132842000Y-90977000D03*
D23*
X148444618Y-55564000D03*
D24*
X148444618Y-44164000D03*
X148444618Y-52464000D03*
D16*
X137548618Y-116843000D03*
X147148618Y-116843000D03*
D17*
X144848618Y-124343000D03*
D18*
X142348618Y-124343000D03*
X139848618Y-124343000D03*
D21*
X146100000Y-93675000D03*
D22*
X146100000Y-96215000D03*
X146100000Y-98755000D03*
X146100000Y-101295000D03*
X146100000Y-103835000D03*
X146100000Y-106375000D03*
X146100000Y-108915000D03*
X138480000Y-108915000D03*
X138480000Y-106375000D03*
X138480000Y-103835000D03*
X138480000Y-101295000D03*
X138480000Y-98755000D03*
X138480000Y-96215000D03*
X138480000Y-93675000D03*
D16*
X134702618Y-133099000D03*
X125102618Y-133099000D03*
D17*
X132402618Y-140599000D03*
D18*
X129902618Y-140599000D03*
X127402618Y-140599000D03*
D25*
X144200000Y-141400000D03*
D26*
X140400000Y-141400000D03*
X144840000Y-126400000D03*
X139760000Y-126400000D03*
D25*
X168500000Y-141400000D03*
D26*
X164700000Y-141400000D03*
X169140000Y-126400000D03*
X164060000Y-126400000D03*
D16*
X149486618Y-100333000D03*
X159086618Y-100333000D03*
D17*
X156786618Y-107833000D03*
D18*
X154286618Y-107833000D03*
X151786618Y-107833000D03*
D16*
X159086618Y-133099000D03*
X149486618Y-133099000D03*
D17*
X156786618Y-140599000D03*
D18*
X154286618Y-140599000D03*
X151786618Y-140599000D03*
D27*
X168256618Y-68962000D03*
X168256618Y-64262000D03*
X168256618Y-59562000D03*
D23*
X128632618Y-55564000D03*
D24*
X128632618Y-44164000D03*
X128632618Y-52464000D03*
D27*
X158350618Y-59600000D03*
X158350618Y-64300000D03*
X158350618Y-69000000D03*
D23*
X158350618Y-55564000D03*
D24*
X158350618Y-44164000D03*
X158350618Y-52464000D03*
D23*
X138538618Y-55564000D03*
D24*
X138538618Y-44164000D03*
X138538618Y-52464000D03*
D16*
X134702618Y-100333000D03*
X125102618Y-100333000D03*
D17*
X132402618Y-107833000D03*
D18*
X129902618Y-107833000D03*
X127402618Y-107833000D03*
D23*
X168256618Y-55564000D03*
D24*
X168256618Y-44164000D03*
X168256618Y-52464000D03*
M02*
