G04 #@! TF.GenerationSoftware,KiCad,Pcbnew,(6.0.0)*
G04 #@! TF.CreationDate,2022-08-05T10:14:58-07:00*
G04 #@! TF.ProjectId,synth,73796e74-682e-46b6-9963-61645f706362,rev?*
G04 #@! TF.SameCoordinates,Original*
G04 #@! TF.FileFunction,Legend,Top*
G04 #@! TF.FilePolarity,Positive*
%FSLAX46Y46*%
G04 Gerber Fmt 4.6, Leading zero omitted, Abs format (unit mm)*
G04 Created by KiCad (PCBNEW (6.0.0)) date 2022-08-05 10:14:58*
%MOMM*%
%LPD*%
G01*
G04 APERTURE LIST*
G04 Aperture macros list*
%AMRoundRect*
0 Rectangle with rounded corners*
0 $1 Rounding radius*
0 $2 $3 $4 $5 $6 $7 $8 $9 X,Y pos of 4 corners*
0 Add a 4 corners polygon primitive as box body*
4,1,4,$2,$3,$4,$5,$6,$7,$8,$9,$2,$3,0*
0 Add four circle primitives for the rounded corners*
1,1,$1+$1,$2,$3*
1,1,$1+$1,$4,$5*
1,1,$1+$1,$6,$7*
1,1,$1+$1,$8,$9*
0 Add four rect primitives between the rounded corners*
20,1,$1+$1,$2,$3,$4,$5,0*
20,1,$1+$1,$4,$5,$6,$7,0*
20,1,$1+$1,$6,$7,$8,$9,0*
20,1,$1+$1,$8,$9,$2,$3,0*%
G04 Aperture macros list end*
%ADD10C,0.300000*%
%ADD11C,0.150000*%
%ADD12C,0.120000*%
%ADD13RoundRect,0.225000X0.250000X-0.225000X0.250000X0.225000X-0.250000X0.225000X-0.250000X-0.225000X0*%
%ADD14RoundRect,0.150000X0.150000X-0.825000X0.150000X0.825000X-0.150000X0.825000X-0.150000X-0.825000X0*%
%ADD15RoundRect,0.200000X0.275000X-0.200000X0.275000X0.200000X-0.275000X0.200000X-0.275000X-0.200000X0*%
%ADD16RoundRect,0.225000X0.225000X0.250000X-0.225000X0.250000X-0.225000X-0.250000X0.225000X-0.250000X0*%
%ADD17RoundRect,0.225000X-0.250000X0.225000X-0.250000X-0.225000X0.250000X-0.225000X0.250000X0.225000X0*%
%ADD18RoundRect,0.200000X-0.200000X-0.275000X0.200000X-0.275000X0.200000X0.275000X-0.200000X0.275000X0*%
%ADD19RoundRect,0.200000X-0.275000X0.200000X-0.275000X-0.200000X0.275000X-0.200000X0.275000X0.200000X0*%
%ADD20RoundRect,0.250000X-0.475000X0.250000X-0.475000X-0.250000X0.475000X-0.250000X0.475000X0.250000X0*%
%ADD21RoundRect,0.200000X0.200000X0.275000X-0.200000X0.275000X-0.200000X-0.275000X0.200000X-0.275000X0*%
%ADD22RoundRect,0.225000X-0.225000X-0.250000X0.225000X-0.250000X0.225000X0.250000X-0.225000X0.250000X0*%
%ADD23RoundRect,0.250000X-0.600000X-0.600000X0.600000X-0.600000X0.600000X0.600000X-0.600000X0.600000X0*%
%ADD24C,1.700000*%
%ADD25RoundRect,0.150000X0.150000X-0.587500X0.150000X0.587500X-0.150000X0.587500X-0.150000X-0.587500X0*%
%ADD26R,0.900000X1.200000*%
%ADD27RoundRect,0.150000X0.587500X0.150000X-0.587500X0.150000X-0.587500X-0.150000X0.587500X-0.150000X0*%
%ADD28R,1.200000X0.900000*%
%ADD29RoundRect,0.250000X0.600000X0.600000X-0.600000X0.600000X-0.600000X-0.600000X0.600000X-0.600000X0*%
%ADD30R,1.300000X1.300000*%
%ADD31R,1.300000X2.000000*%
%ADD32RoundRect,0.150000X-0.150000X0.825000X-0.150000X-0.825000X0.150000X-0.825000X0.150000X0.825000X0*%
%ADD33R,2.000000X1.300000*%
%ADD34RoundRect,0.250000X0.475000X-0.250000X0.475000X0.250000X-0.475000X0.250000X-0.475000X-0.250000X0*%
%ADD35O,2.720000X3.240000*%
%ADD36R,1.800000X1.800000*%
%ADD37C,1.800000*%
%ADD38C,2.000000*%
%ADD39C,2.500000*%
%ADD40R,1.600000X1.600000*%
%ADD41O,1.600000X1.600000*%
%ADD42R,1.930000X1.830000*%
%ADD43C,2.130000*%
%ADD44RoundRect,0.287500X0.287500X-0.287500X0.287500X0.287500X-0.287500X0.287500X-0.287500X-0.287500X0*%
%ADD45C,1.150000*%
%ADD46C,3.100000*%
G04 APERTURE END LIST*
D10*
X140409285Y-128278571D02*
X139909285Y-127564285D01*
X139552142Y-128278571D02*
X139552142Y-126778571D01*
X140123571Y-126778571D01*
X140266428Y-126850000D01*
X140337857Y-126921428D01*
X140409285Y-127064285D01*
X140409285Y-127278571D01*
X140337857Y-127421428D01*
X140266428Y-127492857D01*
X140123571Y-127564285D01*
X139552142Y-127564285D01*
X140980714Y-127850000D02*
X141695000Y-127850000D01*
X140837857Y-128278571D02*
X141337857Y-126778571D01*
X141837857Y-128278571D01*
X142337857Y-128278571D02*
X142337857Y-126778571D01*
X143195000Y-128278571D01*
X143195000Y-126778571D01*
X144695000Y-126850000D02*
X144552142Y-126778571D01*
X144337857Y-126778571D01*
X144123571Y-126850000D01*
X143980714Y-126992857D01*
X143909285Y-127135714D01*
X143837857Y-127421428D01*
X143837857Y-127635714D01*
X143909285Y-127921428D01*
X143980714Y-128064285D01*
X144123571Y-128207142D01*
X144337857Y-128278571D01*
X144480714Y-128278571D01*
X144695000Y-128207142D01*
X144766428Y-128135714D01*
X144766428Y-127635714D01*
X144480714Y-127635714D01*
X145409285Y-127492857D02*
X145909285Y-127492857D01*
X146123571Y-128278571D02*
X145409285Y-128278571D01*
X145409285Y-126778571D01*
X146123571Y-126778571D01*
X136380714Y-77313928D02*
X136452142Y-77242500D01*
X136595000Y-77171071D01*
X136952142Y-77171071D01*
X137095000Y-77242500D01*
X137166428Y-77313928D01*
X137237857Y-77456785D01*
X137237857Y-77599642D01*
X137166428Y-77813928D01*
X136309285Y-78671071D01*
X137237857Y-78671071D01*
X138166428Y-77171071D02*
X138309285Y-77171071D01*
X138452142Y-77242500D01*
X138523571Y-77313928D01*
X138595000Y-77456785D01*
X138666428Y-77742500D01*
X138666428Y-78099642D01*
X138595000Y-78385357D01*
X138523571Y-78528214D01*
X138452142Y-78599642D01*
X138309285Y-78671071D01*
X138166428Y-78671071D01*
X138023571Y-78599642D01*
X137952142Y-78528214D01*
X137880714Y-78385357D01*
X137809285Y-78099642D01*
X137809285Y-77742500D01*
X137880714Y-77456785D01*
X137952142Y-77313928D01*
X138023571Y-77242500D01*
X138166428Y-77171071D01*
X139237857Y-77313928D02*
X139309285Y-77242500D01*
X139452142Y-77171071D01*
X139809285Y-77171071D01*
X139952142Y-77242500D01*
X140023571Y-77313928D01*
X140095000Y-77456785D01*
X140095000Y-77599642D01*
X140023571Y-77813928D01*
X139166428Y-78671071D01*
X140095000Y-78671071D01*
X140666428Y-77313928D02*
X140737857Y-77242500D01*
X140880714Y-77171071D01*
X141237857Y-77171071D01*
X141380714Y-77242500D01*
X141452142Y-77313928D01*
X141523571Y-77456785D01*
X141523571Y-77599642D01*
X141452142Y-77813928D01*
X140595000Y-78671071D01*
X141523571Y-78671071D01*
X143809285Y-77885357D02*
X144023571Y-77956785D01*
X144095000Y-78028214D01*
X144166428Y-78171071D01*
X144166428Y-78385357D01*
X144095000Y-78528214D01*
X144023571Y-78599642D01*
X143880714Y-78671071D01*
X143309285Y-78671071D01*
X143309285Y-77171071D01*
X143809285Y-77171071D01*
X143952142Y-77242500D01*
X144023571Y-77313928D01*
X144095000Y-77456785D01*
X144095000Y-77599642D01*
X144023571Y-77742500D01*
X143952142Y-77813928D01*
X143809285Y-77885357D01*
X143309285Y-77885357D01*
X144809285Y-78671071D02*
X144809285Y-77171071D01*
X145309285Y-78242500D01*
X145809285Y-77171071D01*
X145809285Y-78671071D01*
X147595000Y-78599642D02*
X147809285Y-78671071D01*
X148166428Y-78671071D01*
X148309285Y-78599642D01*
X148380714Y-78528214D01*
X148452142Y-78385357D01*
X148452142Y-78242500D01*
X148380714Y-78099642D01*
X148309285Y-78028214D01*
X148166428Y-77956785D01*
X147880714Y-77885357D01*
X147737857Y-77813928D01*
X147666428Y-77742500D01*
X147595000Y-77599642D01*
X147595000Y-77456785D01*
X147666428Y-77313928D01*
X147737857Y-77242500D01*
X147880714Y-77171071D01*
X148237857Y-77171071D01*
X148452142Y-77242500D01*
X148952142Y-77671071D02*
X149309285Y-78671071D01*
X149666428Y-77671071D02*
X149309285Y-78671071D01*
X149166428Y-79028214D01*
X149095000Y-79099642D01*
X148952142Y-79171071D01*
X150237857Y-77671071D02*
X150237857Y-78671071D01*
X150237857Y-77813928D02*
X150309285Y-77742500D01*
X150452142Y-77671071D01*
X150666428Y-77671071D01*
X150809285Y-77742500D01*
X150880714Y-77885357D01*
X150880714Y-78671071D01*
X151380714Y-77671071D02*
X151952142Y-77671071D01*
X151595000Y-77171071D02*
X151595000Y-78456785D01*
X151666428Y-78599642D01*
X151809285Y-78671071D01*
X151952142Y-78671071D01*
X152452142Y-78671071D02*
X152452142Y-77171071D01*
X153095000Y-78671071D02*
X153095000Y-77885357D01*
X153023571Y-77742500D01*
X152880714Y-77671071D01*
X152666428Y-77671071D01*
X152523571Y-77742500D01*
X152452142Y-77813928D01*
X155809285Y-78671071D02*
X155309285Y-77956785D01*
X154952142Y-78671071D02*
X154952142Y-77171071D01*
X155523571Y-77171071D01*
X155666428Y-77242500D01*
X155737857Y-77313928D01*
X155809285Y-77456785D01*
X155809285Y-77671071D01*
X155737857Y-77813928D01*
X155666428Y-77885357D01*
X155523571Y-77956785D01*
X154952142Y-77956785D01*
X157023571Y-78599642D02*
X156880714Y-78671071D01*
X156595000Y-78671071D01*
X156452142Y-78599642D01*
X156380714Y-78456785D01*
X156380714Y-77885357D01*
X156452142Y-77742500D01*
X156595000Y-77671071D01*
X156880714Y-77671071D01*
X157023571Y-77742500D01*
X157095000Y-77885357D01*
X157095000Y-78028214D01*
X156380714Y-78171071D01*
X157595000Y-77671071D02*
X157952142Y-78671071D01*
X158309285Y-77671071D01*
X160737857Y-77171071D02*
X160023571Y-77171071D01*
X159952142Y-77885357D01*
X160023571Y-77813928D01*
X160166428Y-77742500D01*
X160523571Y-77742500D01*
X160666428Y-77813928D01*
X160737857Y-77885357D01*
X160809285Y-78028214D01*
X160809285Y-78385357D01*
X160737857Y-78528214D01*
X160666428Y-78599642D01*
X160523571Y-78671071D01*
X160166428Y-78671071D01*
X160023571Y-78599642D01*
X159952142Y-78528214D01*
X136380714Y-80657500D02*
X137095000Y-80657500D01*
X136237857Y-81086071D02*
X136737857Y-79586071D01*
X137237857Y-81086071D01*
X137952142Y-81086071D02*
X137809285Y-81014642D01*
X137737857Y-80871785D01*
X137737857Y-79586071D01*
X139095000Y-81014642D02*
X138952142Y-81086071D01*
X138666428Y-81086071D01*
X138523571Y-81014642D01*
X138452142Y-80871785D01*
X138452142Y-80300357D01*
X138523571Y-80157500D01*
X138666428Y-80086071D01*
X138952142Y-80086071D01*
X139095000Y-80157500D01*
X139166428Y-80300357D01*
X139166428Y-80443214D01*
X138452142Y-80586071D01*
X139666428Y-81086071D02*
X140452142Y-80086071D01*
X139666428Y-80086071D02*
X140452142Y-81086071D01*
X142166428Y-81086071D02*
X142166428Y-79586071D01*
X142523571Y-79586071D01*
X142737857Y-79657500D01*
X142880714Y-79800357D01*
X142952142Y-79943214D01*
X143023571Y-80228928D01*
X143023571Y-80443214D01*
X142952142Y-80728928D01*
X142880714Y-80871785D01*
X142737857Y-81014642D01*
X142523571Y-81086071D01*
X142166428Y-81086071D01*
X144237857Y-81014642D02*
X144095000Y-81086071D01*
X143809285Y-81086071D01*
X143666428Y-81014642D01*
X143595000Y-80871785D01*
X143595000Y-80300357D01*
X143666428Y-80157500D01*
X143809285Y-80086071D01*
X144095000Y-80086071D01*
X144237857Y-80157500D01*
X144309285Y-80300357D01*
X144309285Y-80443214D01*
X143595000Y-80586071D01*
X145452142Y-80300357D02*
X145666428Y-80371785D01*
X145737857Y-80443214D01*
X145809285Y-80586071D01*
X145809285Y-80800357D01*
X145737857Y-80943214D01*
X145666428Y-81014642D01*
X145523571Y-81086071D01*
X144952142Y-81086071D01*
X144952142Y-79586071D01*
X145452142Y-79586071D01*
X145595000Y-79657500D01*
X145666428Y-79728928D01*
X145737857Y-79871785D01*
X145737857Y-80014642D01*
X145666428Y-80157500D01*
X145595000Y-80228928D01*
X145452142Y-80300357D01*
X144952142Y-80300357D01*
X146666428Y-81086071D02*
X146523571Y-81014642D01*
X146452142Y-80943214D01*
X146380714Y-80800357D01*
X146380714Y-80371785D01*
X146452142Y-80228928D01*
X146523571Y-80157500D01*
X146666428Y-80086071D01*
X146880714Y-80086071D01*
X147023571Y-80157500D01*
X147095000Y-80228928D01*
X147166428Y-80371785D01*
X147166428Y-80800357D01*
X147095000Y-80943214D01*
X147023571Y-81014642D01*
X146880714Y-81086071D01*
X146666428Y-81086071D01*
X147809285Y-80086071D02*
X147809285Y-81086071D01*
X147809285Y-80228928D02*
X147880714Y-80157500D01*
X148023571Y-80086071D01*
X148237857Y-80086071D01*
X148380714Y-80157500D01*
X148452142Y-80300357D01*
X148452142Y-81086071D01*
X149166428Y-81086071D02*
X149166428Y-80086071D01*
X149166428Y-79586071D02*
X149095000Y-79657500D01*
X149166428Y-79728928D01*
X149237857Y-79657500D01*
X149166428Y-79586071D01*
X149166428Y-79728928D01*
X139237857Y-138878571D02*
X139523571Y-138878571D01*
X139666428Y-138950000D01*
X139809285Y-139092857D01*
X139880714Y-139378571D01*
X139880714Y-139878571D01*
X139809285Y-140164285D01*
X139666428Y-140307142D01*
X139523571Y-140378571D01*
X139237857Y-140378571D01*
X139095000Y-140307142D01*
X138952142Y-140164285D01*
X138880714Y-139878571D01*
X138880714Y-139378571D01*
X138952142Y-139092857D01*
X139095000Y-138950000D01*
X139237857Y-138878571D01*
X141023571Y-139592857D02*
X140523571Y-139592857D01*
X140523571Y-140378571D02*
X140523571Y-138878571D01*
X141237857Y-138878571D01*
X142309285Y-139592857D02*
X141809285Y-139592857D01*
X141809285Y-140378571D02*
X141809285Y-138878571D01*
X142523571Y-138878571D01*
X143023571Y-140307142D02*
X143237857Y-140378571D01*
X143595000Y-140378571D01*
X143737857Y-140307142D01*
X143809285Y-140235714D01*
X143880714Y-140092857D01*
X143880714Y-139950000D01*
X143809285Y-139807142D01*
X143737857Y-139735714D01*
X143595000Y-139664285D01*
X143309285Y-139592857D01*
X143166428Y-139521428D01*
X143095000Y-139450000D01*
X143023571Y-139307142D01*
X143023571Y-139164285D01*
X143095000Y-139021428D01*
X143166428Y-138950000D01*
X143309285Y-138878571D01*
X143666428Y-138878571D01*
X143880714Y-138950000D01*
X144523571Y-139592857D02*
X145023571Y-139592857D01*
X145237857Y-140378571D02*
X144523571Y-140378571D01*
X144523571Y-138878571D01*
X145237857Y-138878571D01*
X145666428Y-138878571D02*
X146523571Y-138878571D01*
X146095000Y-140378571D02*
X146095000Y-138878571D01*
X127042857Y-105678571D02*
X127042857Y-104178571D01*
X127614285Y-104178571D01*
X127757142Y-104250000D01*
X127828571Y-104321428D01*
X127900000Y-104464285D01*
X127900000Y-104678571D01*
X127828571Y-104821428D01*
X127757142Y-104892857D01*
X127614285Y-104964285D01*
X127042857Y-104964285D01*
X128542857Y-105678571D02*
X128542857Y-104178571D01*
X129042857Y-104178571D02*
X129900000Y-104178571D01*
X129471428Y-105678571D02*
X129471428Y-104178571D01*
X131257142Y-105535714D02*
X131185714Y-105607142D01*
X130971428Y-105678571D01*
X130828571Y-105678571D01*
X130614285Y-105607142D01*
X130471428Y-105464285D01*
X130400000Y-105321428D01*
X130328571Y-105035714D01*
X130328571Y-104821428D01*
X130400000Y-104535714D01*
X130471428Y-104392857D01*
X130614285Y-104250000D01*
X130828571Y-104178571D01*
X130971428Y-104178571D01*
X131185714Y-104250000D01*
X131257142Y-104321428D01*
X131900000Y-105678571D02*
X131900000Y-104178571D01*
X131900000Y-104892857D02*
X132757142Y-104892857D01*
X132757142Y-105678571D02*
X132757142Y-104178571D01*
D11*
X140957142Y-92542857D02*
X141004761Y-92590476D01*
X141052380Y-92733333D01*
X141052380Y-92828571D01*
X141004761Y-92971428D01*
X140909523Y-93066666D01*
X140814285Y-93114285D01*
X140623809Y-93161904D01*
X140480952Y-93161904D01*
X140290476Y-93114285D01*
X140195238Y-93066666D01*
X140100000Y-92971428D01*
X140052380Y-92828571D01*
X140052380Y-92733333D01*
X140100000Y-92590476D01*
X140147619Y-92542857D01*
X141052380Y-91590476D02*
X141052380Y-92161904D01*
X141052380Y-91876190D02*
X140052380Y-91876190D01*
X140195238Y-91971428D01*
X140290476Y-92066666D01*
X140338095Y-92161904D01*
X140480952Y-91019047D02*
X140433333Y-91114285D01*
X140385714Y-91161904D01*
X140290476Y-91209523D01*
X140242857Y-91209523D01*
X140147619Y-91161904D01*
X140100000Y-91114285D01*
X140052380Y-91019047D01*
X140052380Y-90828571D01*
X140100000Y-90733333D01*
X140147619Y-90685714D01*
X140242857Y-90638095D01*
X140290476Y-90638095D01*
X140385714Y-90685714D01*
X140433333Y-90733333D01*
X140480952Y-90828571D01*
X140480952Y-91019047D01*
X140528571Y-91114285D01*
X140576190Y-91161904D01*
X140671428Y-91209523D01*
X140861904Y-91209523D01*
X140957142Y-91161904D01*
X141004761Y-91114285D01*
X141052380Y-91019047D01*
X141052380Y-90828571D01*
X141004761Y-90733333D01*
X140957142Y-90685714D01*
X140861904Y-90638095D01*
X140671428Y-90638095D01*
X140576190Y-90685714D01*
X140528571Y-90733333D01*
X140480952Y-90828571D01*
X145152380Y-115061904D02*
X145961904Y-115061904D01*
X146057142Y-115014285D01*
X146104761Y-114966666D01*
X146152380Y-114871428D01*
X146152380Y-114680952D01*
X146104761Y-114585714D01*
X146057142Y-114538095D01*
X145961904Y-114490476D01*
X145152380Y-114490476D01*
X145580952Y-113871428D02*
X145533333Y-113966666D01*
X145485714Y-114014285D01*
X145390476Y-114061904D01*
X145342857Y-114061904D01*
X145247619Y-114014285D01*
X145200000Y-113966666D01*
X145152380Y-113871428D01*
X145152380Y-113680952D01*
X145200000Y-113585714D01*
X145247619Y-113538095D01*
X145342857Y-113490476D01*
X145390476Y-113490476D01*
X145485714Y-113538095D01*
X145533333Y-113585714D01*
X145580952Y-113680952D01*
X145580952Y-113871428D01*
X145628571Y-113966666D01*
X145676190Y-114014285D01*
X145771428Y-114061904D01*
X145961904Y-114061904D01*
X146057142Y-114014285D01*
X146104761Y-113966666D01*
X146152380Y-113871428D01*
X146152380Y-113680952D01*
X146104761Y-113585714D01*
X146057142Y-113538095D01*
X145961904Y-113490476D01*
X145771428Y-113490476D01*
X145676190Y-113538095D01*
X145628571Y-113585714D01*
X145580952Y-113680952D01*
X127952380Y-94542857D02*
X127476190Y-94876190D01*
X127952380Y-95114285D02*
X126952380Y-95114285D01*
X126952380Y-94733333D01*
X127000000Y-94638095D01*
X127047619Y-94590476D01*
X127142857Y-94542857D01*
X127285714Y-94542857D01*
X127380952Y-94590476D01*
X127428571Y-94638095D01*
X127476190Y-94733333D01*
X127476190Y-95114285D01*
X127952380Y-93590476D02*
X127952380Y-94161904D01*
X127952380Y-93876190D02*
X126952380Y-93876190D01*
X127095238Y-93971428D01*
X127190476Y-94066666D01*
X127238095Y-94161904D01*
X126952380Y-93257142D02*
X126952380Y-92590476D01*
X127952380Y-93019047D01*
X127657142Y-122457142D02*
X127609523Y-122504761D01*
X127466666Y-122552380D01*
X127371428Y-122552380D01*
X127228571Y-122504761D01*
X127133333Y-122409523D01*
X127085714Y-122314285D01*
X127038095Y-122123809D01*
X127038095Y-121980952D01*
X127085714Y-121790476D01*
X127133333Y-121695238D01*
X127228571Y-121600000D01*
X127371428Y-121552380D01*
X127466666Y-121552380D01*
X127609523Y-121600000D01*
X127657142Y-121647619D01*
X128609523Y-122552380D02*
X128038095Y-122552380D01*
X128323809Y-122552380D02*
X128323809Y-121552380D01*
X128228571Y-121695238D01*
X128133333Y-121790476D01*
X128038095Y-121838095D01*
X129466666Y-121552380D02*
X129276190Y-121552380D01*
X129180952Y-121600000D01*
X129133333Y-121647619D01*
X129038095Y-121790476D01*
X128990476Y-121980952D01*
X128990476Y-122361904D01*
X129038095Y-122457142D01*
X129085714Y-122504761D01*
X129180952Y-122552380D01*
X129371428Y-122552380D01*
X129466666Y-122504761D01*
X129514285Y-122457142D01*
X129561904Y-122361904D01*
X129561904Y-122123809D01*
X129514285Y-122028571D01*
X129466666Y-121980952D01*
X129371428Y-121933333D01*
X129180952Y-121933333D01*
X129085714Y-121980952D01*
X129038095Y-122028571D01*
X128990476Y-122123809D01*
X143333333Y-109557142D02*
X143285714Y-109604761D01*
X143142857Y-109652380D01*
X143047619Y-109652380D01*
X142904761Y-109604761D01*
X142809523Y-109509523D01*
X142761904Y-109414285D01*
X142714285Y-109223809D01*
X142714285Y-109080952D01*
X142761904Y-108890476D01*
X142809523Y-108795238D01*
X142904761Y-108700000D01*
X143047619Y-108652380D01*
X143142857Y-108652380D01*
X143285714Y-108700000D01*
X143333333Y-108747619D01*
X143809523Y-109652380D02*
X144000000Y-109652380D01*
X144095238Y-109604761D01*
X144142857Y-109557142D01*
X144238095Y-109414285D01*
X144285714Y-109223809D01*
X144285714Y-108842857D01*
X144238095Y-108747619D01*
X144190476Y-108700000D01*
X144095238Y-108652380D01*
X143904761Y-108652380D01*
X143809523Y-108700000D01*
X143761904Y-108747619D01*
X143714285Y-108842857D01*
X143714285Y-109080952D01*
X143761904Y-109176190D01*
X143809523Y-109223809D01*
X143904761Y-109271428D01*
X144095238Y-109271428D01*
X144190476Y-109223809D01*
X144238095Y-109176190D01*
X144285714Y-109080952D01*
X162957142Y-105042857D02*
X163004761Y-105090476D01*
X163052380Y-105233333D01*
X163052380Y-105328571D01*
X163004761Y-105471428D01*
X162909523Y-105566666D01*
X162814285Y-105614285D01*
X162623809Y-105661904D01*
X162480952Y-105661904D01*
X162290476Y-105614285D01*
X162195238Y-105566666D01*
X162100000Y-105471428D01*
X162052380Y-105328571D01*
X162052380Y-105233333D01*
X162100000Y-105090476D01*
X162147619Y-105042857D01*
X163052380Y-104090476D02*
X163052380Y-104661904D01*
X163052380Y-104376190D02*
X162052380Y-104376190D01*
X162195238Y-104471428D01*
X162290476Y-104566666D01*
X162338095Y-104661904D01*
X162147619Y-103709523D02*
X162100000Y-103661904D01*
X162052380Y-103566666D01*
X162052380Y-103328571D01*
X162100000Y-103233333D01*
X162147619Y-103185714D01*
X162242857Y-103138095D01*
X162338095Y-103138095D01*
X162480952Y-103185714D01*
X163052380Y-103757142D01*
X163052380Y-103138095D01*
X138557142Y-111252380D02*
X138223809Y-110776190D01*
X137985714Y-111252380D02*
X137985714Y-110252380D01*
X138366666Y-110252380D01*
X138461904Y-110300000D01*
X138509523Y-110347619D01*
X138557142Y-110442857D01*
X138557142Y-110585714D01*
X138509523Y-110680952D01*
X138461904Y-110728571D01*
X138366666Y-110776190D01*
X137985714Y-110776190D01*
X138890476Y-110252380D02*
X139509523Y-110252380D01*
X139176190Y-110633333D01*
X139319047Y-110633333D01*
X139414285Y-110680952D01*
X139461904Y-110728571D01*
X139509523Y-110823809D01*
X139509523Y-111061904D01*
X139461904Y-111157142D01*
X139414285Y-111204761D01*
X139319047Y-111252380D01*
X139033333Y-111252380D01*
X138938095Y-111204761D01*
X138890476Y-111157142D01*
X139842857Y-110252380D02*
X140509523Y-110252380D01*
X140080952Y-111252380D01*
X169057142Y-107257142D02*
X169009523Y-107304761D01*
X168866666Y-107352380D01*
X168771428Y-107352380D01*
X168628571Y-107304761D01*
X168533333Y-107209523D01*
X168485714Y-107114285D01*
X168438095Y-106923809D01*
X168438095Y-106780952D01*
X168485714Y-106590476D01*
X168533333Y-106495238D01*
X168628571Y-106400000D01*
X168771428Y-106352380D01*
X168866666Y-106352380D01*
X169009523Y-106400000D01*
X169057142Y-106447619D01*
X170009523Y-107352380D02*
X169438095Y-107352380D01*
X169723809Y-107352380D02*
X169723809Y-106352380D01*
X169628571Y-106495238D01*
X169533333Y-106590476D01*
X169438095Y-106638095D01*
X170628571Y-106352380D02*
X170723809Y-106352380D01*
X170819047Y-106400000D01*
X170866666Y-106447619D01*
X170914285Y-106542857D01*
X170961904Y-106733333D01*
X170961904Y-106971428D01*
X170914285Y-107161904D01*
X170866666Y-107257142D01*
X170819047Y-107304761D01*
X170723809Y-107352380D01*
X170628571Y-107352380D01*
X170533333Y-107304761D01*
X170485714Y-107257142D01*
X170438095Y-107161904D01*
X170390476Y-106971428D01*
X170390476Y-106733333D01*
X170438095Y-106542857D01*
X170485714Y-106447619D01*
X170533333Y-106400000D01*
X170628571Y-106352380D01*
X167952380Y-105042857D02*
X167476190Y-105376190D01*
X167952380Y-105614285D02*
X166952380Y-105614285D01*
X166952380Y-105233333D01*
X167000000Y-105138095D01*
X167047619Y-105090476D01*
X167142857Y-105042857D01*
X167285714Y-105042857D01*
X167380952Y-105090476D01*
X167428571Y-105138095D01*
X167476190Y-105233333D01*
X167476190Y-105614285D01*
X166952380Y-104709523D02*
X166952380Y-104090476D01*
X167333333Y-104423809D01*
X167333333Y-104280952D01*
X167380952Y-104185714D01*
X167428571Y-104138095D01*
X167523809Y-104090476D01*
X167761904Y-104090476D01*
X167857142Y-104138095D01*
X167904761Y-104185714D01*
X167952380Y-104280952D01*
X167952380Y-104566666D01*
X167904761Y-104661904D01*
X167857142Y-104709523D01*
X166952380Y-103757142D02*
X166952380Y-103138095D01*
X167333333Y-103471428D01*
X167333333Y-103328571D01*
X167380952Y-103233333D01*
X167428571Y-103185714D01*
X167523809Y-103138095D01*
X167761904Y-103138095D01*
X167857142Y-103185714D01*
X167904761Y-103233333D01*
X167952380Y-103328571D01*
X167952380Y-103614285D01*
X167904761Y-103709523D01*
X167857142Y-103757142D01*
X160857142Y-105042857D02*
X160904761Y-105090476D01*
X160952380Y-105233333D01*
X160952380Y-105328571D01*
X160904761Y-105471428D01*
X160809523Y-105566666D01*
X160714285Y-105614285D01*
X160523809Y-105661904D01*
X160380952Y-105661904D01*
X160190476Y-105614285D01*
X160095238Y-105566666D01*
X160000000Y-105471428D01*
X159952380Y-105328571D01*
X159952380Y-105233333D01*
X160000000Y-105090476D01*
X160047619Y-105042857D01*
X160047619Y-104661904D02*
X160000000Y-104614285D01*
X159952380Y-104519047D01*
X159952380Y-104280952D01*
X160000000Y-104185714D01*
X160047619Y-104138095D01*
X160142857Y-104090476D01*
X160238095Y-104090476D01*
X160380952Y-104138095D01*
X160952380Y-104709523D01*
X160952380Y-104090476D01*
X160952380Y-103614285D02*
X160952380Y-103423809D01*
X160904761Y-103328571D01*
X160857142Y-103280952D01*
X160714285Y-103185714D01*
X160523809Y-103138095D01*
X160142857Y-103138095D01*
X160047619Y-103185714D01*
X160000000Y-103233333D01*
X159952380Y-103328571D01*
X159952380Y-103519047D01*
X160000000Y-103614285D01*
X160047619Y-103661904D01*
X160142857Y-103709523D01*
X160380952Y-103709523D01*
X160476190Y-103661904D01*
X160523809Y-103614285D01*
X160571428Y-103519047D01*
X160571428Y-103328571D01*
X160523809Y-103233333D01*
X160476190Y-103185714D01*
X160380952Y-103138095D01*
X155057142Y-102652380D02*
X154723809Y-102176190D01*
X154485714Y-102652380D02*
X154485714Y-101652380D01*
X154866666Y-101652380D01*
X154961904Y-101700000D01*
X155009523Y-101747619D01*
X155057142Y-101842857D01*
X155057142Y-101985714D01*
X155009523Y-102080952D01*
X154961904Y-102128571D01*
X154866666Y-102176190D01*
X154485714Y-102176190D01*
X156009523Y-102652380D02*
X155438095Y-102652380D01*
X155723809Y-102652380D02*
X155723809Y-101652380D01*
X155628571Y-101795238D01*
X155533333Y-101890476D01*
X155438095Y-101938095D01*
X156485714Y-102652380D02*
X156676190Y-102652380D01*
X156771428Y-102604761D01*
X156819047Y-102557142D01*
X156914285Y-102414285D01*
X156961904Y-102223809D01*
X156961904Y-101842857D01*
X156914285Y-101747619D01*
X156866666Y-101700000D01*
X156771428Y-101652380D01*
X156580952Y-101652380D01*
X156485714Y-101700000D01*
X156438095Y-101747619D01*
X156390476Y-101842857D01*
X156390476Y-102080952D01*
X156438095Y-102176190D01*
X156485714Y-102223809D01*
X156580952Y-102271428D01*
X156771428Y-102271428D01*
X156866666Y-102223809D01*
X156914285Y-102176190D01*
X156961904Y-102080952D01*
X169157142Y-119342857D02*
X169204761Y-119390476D01*
X169252380Y-119533333D01*
X169252380Y-119628571D01*
X169204761Y-119771428D01*
X169109523Y-119866666D01*
X169014285Y-119914285D01*
X168823809Y-119961904D01*
X168680952Y-119961904D01*
X168490476Y-119914285D01*
X168395238Y-119866666D01*
X168300000Y-119771428D01*
X168252380Y-119628571D01*
X168252380Y-119533333D01*
X168300000Y-119390476D01*
X168347619Y-119342857D01*
X168252380Y-119009523D02*
X168252380Y-118390476D01*
X168633333Y-118723809D01*
X168633333Y-118580952D01*
X168680952Y-118485714D01*
X168728571Y-118438095D01*
X168823809Y-118390476D01*
X169061904Y-118390476D01*
X169157142Y-118438095D01*
X169204761Y-118485714D01*
X169252380Y-118580952D01*
X169252380Y-118866666D01*
X169204761Y-118961904D01*
X169157142Y-119009523D01*
X168252380Y-118057142D02*
X168252380Y-117438095D01*
X168633333Y-117771428D01*
X168633333Y-117628571D01*
X168680952Y-117533333D01*
X168728571Y-117485714D01*
X168823809Y-117438095D01*
X169061904Y-117438095D01*
X169157142Y-117485714D01*
X169204761Y-117533333D01*
X169252380Y-117628571D01*
X169252380Y-117914285D01*
X169204761Y-118009523D01*
X169157142Y-118057142D01*
X146533333Y-126857142D02*
X146485714Y-126904761D01*
X146342857Y-126952380D01*
X146247619Y-126952380D01*
X146104761Y-126904761D01*
X146009523Y-126809523D01*
X145961904Y-126714285D01*
X145914285Y-126523809D01*
X145914285Y-126380952D01*
X145961904Y-126190476D01*
X146009523Y-126095238D01*
X146104761Y-126000000D01*
X146247619Y-125952380D01*
X146342857Y-125952380D01*
X146485714Y-126000000D01*
X146533333Y-126047619D01*
X147390476Y-125952380D02*
X147200000Y-125952380D01*
X147104761Y-126000000D01*
X147057142Y-126047619D01*
X146961904Y-126190476D01*
X146914285Y-126380952D01*
X146914285Y-126761904D01*
X146961904Y-126857142D01*
X147009523Y-126904761D01*
X147104761Y-126952380D01*
X147295238Y-126952380D01*
X147390476Y-126904761D01*
X147438095Y-126857142D01*
X147485714Y-126761904D01*
X147485714Y-126523809D01*
X147438095Y-126428571D01*
X147390476Y-126380952D01*
X147295238Y-126333333D01*
X147104761Y-126333333D01*
X147009523Y-126380952D01*
X146961904Y-126428571D01*
X146914285Y-126523809D01*
X147836666Y-57252380D02*
X147836666Y-57966666D01*
X147789047Y-58109523D01*
X147693809Y-58204761D01*
X147550952Y-58252380D01*
X147455714Y-58252380D01*
X148789047Y-57252380D02*
X148312857Y-57252380D01*
X148265238Y-57728571D01*
X148312857Y-57680952D01*
X148408095Y-57633333D01*
X148646190Y-57633333D01*
X148741428Y-57680952D01*
X148789047Y-57728571D01*
X148836666Y-57823809D01*
X148836666Y-58061904D01*
X148789047Y-58157142D01*
X148741428Y-58204761D01*
X148646190Y-58252380D01*
X148408095Y-58252380D01*
X148312857Y-58204761D01*
X148265238Y-58157142D01*
X126352380Y-51342857D02*
X125876190Y-51676190D01*
X126352380Y-51914285D02*
X125352380Y-51914285D01*
X125352380Y-51533333D01*
X125400000Y-51438095D01*
X125447619Y-51390476D01*
X125542857Y-51342857D01*
X125685714Y-51342857D01*
X125780952Y-51390476D01*
X125828571Y-51438095D01*
X125876190Y-51533333D01*
X125876190Y-51914285D01*
X125685714Y-50485714D02*
X126352380Y-50485714D01*
X125304761Y-50723809D02*
X126019047Y-50961904D01*
X126019047Y-50342857D01*
X125352380Y-50057142D02*
X125352380Y-49438095D01*
X125733333Y-49771428D01*
X125733333Y-49628571D01*
X125780952Y-49533333D01*
X125828571Y-49485714D01*
X125923809Y-49438095D01*
X126161904Y-49438095D01*
X126257142Y-49485714D01*
X126304761Y-49533333D01*
X126352380Y-49628571D01*
X126352380Y-49914285D01*
X126304761Y-50009523D01*
X126257142Y-50057142D01*
X130657142Y-113352380D02*
X130323809Y-112876190D01*
X130085714Y-113352380D02*
X130085714Y-112352380D01*
X130466666Y-112352380D01*
X130561904Y-112400000D01*
X130609523Y-112447619D01*
X130657142Y-112542857D01*
X130657142Y-112685714D01*
X130609523Y-112780952D01*
X130561904Y-112828571D01*
X130466666Y-112876190D01*
X130085714Y-112876190D01*
X130990476Y-112352380D02*
X131609523Y-112352380D01*
X131276190Y-112733333D01*
X131419047Y-112733333D01*
X131514285Y-112780952D01*
X131561904Y-112828571D01*
X131609523Y-112923809D01*
X131609523Y-113161904D01*
X131561904Y-113257142D01*
X131514285Y-113304761D01*
X131419047Y-113352380D01*
X131133333Y-113352380D01*
X131038095Y-113304761D01*
X130990476Y-113257142D01*
X132466666Y-112685714D02*
X132466666Y-113352380D01*
X132228571Y-112304761D02*
X131990476Y-113019047D01*
X132609523Y-113019047D01*
X157052380Y-99538095D02*
X157861904Y-99538095D01*
X157957142Y-99490476D01*
X158004761Y-99442857D01*
X158052380Y-99347619D01*
X158052380Y-99157142D01*
X158004761Y-99061904D01*
X157957142Y-99014285D01*
X157861904Y-98966666D01*
X157052380Y-98966666D01*
X158052380Y-97966666D02*
X158052380Y-98538095D01*
X158052380Y-98252380D02*
X157052380Y-98252380D01*
X157195238Y-98347619D01*
X157290476Y-98442857D01*
X157338095Y-98538095D01*
X157052380Y-97347619D02*
X157052380Y-97252380D01*
X157100000Y-97157142D01*
X157147619Y-97109523D01*
X157242857Y-97061904D01*
X157433333Y-97014285D01*
X157671428Y-97014285D01*
X157861904Y-97061904D01*
X157957142Y-97109523D01*
X158004761Y-97157142D01*
X158052380Y-97252380D01*
X158052380Y-97347619D01*
X158004761Y-97442857D01*
X157957142Y-97490476D01*
X157861904Y-97538095D01*
X157671428Y-97585714D01*
X157433333Y-97585714D01*
X157242857Y-97538095D01*
X157147619Y-97490476D01*
X157100000Y-97442857D01*
X157052380Y-97347619D01*
X151378142Y-106863380D02*
X151044809Y-106387190D01*
X150806714Y-106863380D02*
X150806714Y-105863380D01*
X151187666Y-105863380D01*
X151282904Y-105911000D01*
X151330523Y-105958619D01*
X151378142Y-106053857D01*
X151378142Y-106196714D01*
X151330523Y-106291952D01*
X151282904Y-106339571D01*
X151187666Y-106387190D01*
X150806714Y-106387190D01*
X151759095Y-105958619D02*
X151806714Y-105911000D01*
X151901952Y-105863380D01*
X152140047Y-105863380D01*
X152235285Y-105911000D01*
X152282904Y-105958619D01*
X152330523Y-106053857D01*
X152330523Y-106149095D01*
X152282904Y-106291952D01*
X151711476Y-106863380D01*
X152330523Y-106863380D01*
X152806714Y-106863380D02*
X152997190Y-106863380D01*
X153092428Y-106815761D01*
X153140047Y-106768142D01*
X153235285Y-106625285D01*
X153282904Y-106434809D01*
X153282904Y-106053857D01*
X153235285Y-105958619D01*
X153187666Y-105911000D01*
X153092428Y-105863380D01*
X152901952Y-105863380D01*
X152806714Y-105911000D01*
X152759095Y-105958619D01*
X152711476Y-106053857D01*
X152711476Y-106291952D01*
X152759095Y-106387190D01*
X152806714Y-106434809D01*
X152901952Y-106482428D01*
X153092428Y-106482428D01*
X153187666Y-106434809D01*
X153235285Y-106387190D01*
X153282904Y-106291952D01*
X128852380Y-89466666D02*
X128376190Y-89800000D01*
X128852380Y-90038095D02*
X127852380Y-90038095D01*
X127852380Y-89657142D01*
X127900000Y-89561904D01*
X127947619Y-89514285D01*
X128042857Y-89466666D01*
X128185714Y-89466666D01*
X128280952Y-89514285D01*
X128328571Y-89561904D01*
X128376190Y-89657142D01*
X128376190Y-90038095D01*
X127852380Y-89133333D02*
X127852380Y-88466666D01*
X128852380Y-88895238D01*
X123352380Y-116861904D02*
X124161904Y-116861904D01*
X124257142Y-116814285D01*
X124304761Y-116766666D01*
X124352380Y-116671428D01*
X124352380Y-116480952D01*
X124304761Y-116385714D01*
X124257142Y-116338095D01*
X124161904Y-116290476D01*
X123352380Y-116290476D01*
X123352380Y-115909523D02*
X123352380Y-115242857D01*
X124352380Y-115671428D01*
X168052380Y-116938095D02*
X167052380Y-116938095D01*
X167052380Y-116700000D01*
X167100000Y-116557142D01*
X167195238Y-116461904D01*
X167290476Y-116414285D01*
X167480952Y-116366666D01*
X167623809Y-116366666D01*
X167814285Y-116414285D01*
X167909523Y-116461904D01*
X168004761Y-116557142D01*
X168052380Y-116700000D01*
X168052380Y-116938095D01*
X167052380Y-115509523D02*
X167052380Y-115700000D01*
X167100000Y-115795238D01*
X167147619Y-115842857D01*
X167290476Y-115938095D01*
X167480952Y-115985714D01*
X167861904Y-115985714D01*
X167957142Y-115938095D01*
X168004761Y-115890476D01*
X168052380Y-115795238D01*
X168052380Y-115604761D01*
X168004761Y-115509523D01*
X167957142Y-115461904D01*
X167861904Y-115414285D01*
X167623809Y-115414285D01*
X167528571Y-115461904D01*
X167480952Y-115509523D01*
X167433333Y-115604761D01*
X167433333Y-115795238D01*
X167480952Y-115890476D01*
X167528571Y-115938095D01*
X167623809Y-115985714D01*
X131852380Y-111442857D02*
X131376190Y-111776190D01*
X131852380Y-112014285D02*
X130852380Y-112014285D01*
X130852380Y-111633333D01*
X130900000Y-111538095D01*
X130947619Y-111490476D01*
X131042857Y-111442857D01*
X131185714Y-111442857D01*
X131280952Y-111490476D01*
X131328571Y-111538095D01*
X131376190Y-111633333D01*
X131376190Y-112014285D01*
X130852380Y-111109523D02*
X130852380Y-110490476D01*
X131233333Y-110823809D01*
X131233333Y-110680952D01*
X131280952Y-110585714D01*
X131328571Y-110538095D01*
X131423809Y-110490476D01*
X131661904Y-110490476D01*
X131757142Y-110538095D01*
X131804761Y-110585714D01*
X131852380Y-110680952D01*
X131852380Y-110966666D01*
X131804761Y-111061904D01*
X131757142Y-111109523D01*
X131280952Y-109919047D02*
X131233333Y-110014285D01*
X131185714Y-110061904D01*
X131090476Y-110109523D01*
X131042857Y-110109523D01*
X130947619Y-110061904D01*
X130900000Y-110014285D01*
X130852380Y-109919047D01*
X130852380Y-109728571D01*
X130900000Y-109633333D01*
X130947619Y-109585714D01*
X131042857Y-109538095D01*
X131090476Y-109538095D01*
X131185714Y-109585714D01*
X131233333Y-109633333D01*
X131280952Y-109728571D01*
X131280952Y-109919047D01*
X131328571Y-110014285D01*
X131376190Y-110061904D01*
X131471428Y-110109523D01*
X131661904Y-110109523D01*
X131757142Y-110061904D01*
X131804761Y-110014285D01*
X131852380Y-109919047D01*
X131852380Y-109728571D01*
X131804761Y-109633333D01*
X131757142Y-109585714D01*
X131661904Y-109538095D01*
X131471428Y-109538095D01*
X131376190Y-109585714D01*
X131328571Y-109633333D01*
X131280952Y-109728571D01*
X159657142Y-96042857D02*
X159704761Y-96090476D01*
X159752380Y-96233333D01*
X159752380Y-96328571D01*
X159704761Y-96471428D01*
X159609523Y-96566666D01*
X159514285Y-96614285D01*
X159323809Y-96661904D01*
X159180952Y-96661904D01*
X158990476Y-96614285D01*
X158895238Y-96566666D01*
X158800000Y-96471428D01*
X158752380Y-96328571D01*
X158752380Y-96233333D01*
X158800000Y-96090476D01*
X158847619Y-96042857D01*
X158847619Y-95661904D02*
X158800000Y-95614285D01*
X158752380Y-95519047D01*
X158752380Y-95280952D01*
X158800000Y-95185714D01*
X158847619Y-95138095D01*
X158942857Y-95090476D01*
X159038095Y-95090476D01*
X159180952Y-95138095D01*
X159752380Y-95709523D01*
X159752380Y-95090476D01*
X158847619Y-94709523D02*
X158800000Y-94661904D01*
X158752380Y-94566666D01*
X158752380Y-94328571D01*
X158800000Y-94233333D01*
X158847619Y-94185714D01*
X158942857Y-94138095D01*
X159038095Y-94138095D01*
X159180952Y-94185714D01*
X159752380Y-94757142D01*
X159752380Y-94138095D01*
X133252380Y-123738095D02*
X132252380Y-123738095D01*
X132252380Y-123500000D01*
X132300000Y-123357142D01*
X132395238Y-123261904D01*
X132490476Y-123214285D01*
X132680952Y-123166666D01*
X132823809Y-123166666D01*
X133014285Y-123214285D01*
X133109523Y-123261904D01*
X133204761Y-123357142D01*
X133252380Y-123500000D01*
X133252380Y-123738095D01*
X132252380Y-122833333D02*
X132252380Y-122214285D01*
X132633333Y-122547619D01*
X132633333Y-122404761D01*
X132680952Y-122309523D01*
X132728571Y-122261904D01*
X132823809Y-122214285D01*
X133061904Y-122214285D01*
X133157142Y-122261904D01*
X133204761Y-122309523D01*
X133252380Y-122404761D01*
X133252380Y-122690476D01*
X133204761Y-122785714D01*
X133157142Y-122833333D01*
X142852380Y-98142857D02*
X142376190Y-98476190D01*
X142852380Y-98714285D02*
X141852380Y-98714285D01*
X141852380Y-98333333D01*
X141900000Y-98238095D01*
X141947619Y-98190476D01*
X142042857Y-98142857D01*
X142185714Y-98142857D01*
X142280952Y-98190476D01*
X142328571Y-98238095D01*
X142376190Y-98333333D01*
X142376190Y-98714285D01*
X141947619Y-97761904D02*
X141900000Y-97714285D01*
X141852380Y-97619047D01*
X141852380Y-97380952D01*
X141900000Y-97285714D01*
X141947619Y-97238095D01*
X142042857Y-97190476D01*
X142138095Y-97190476D01*
X142280952Y-97238095D01*
X142852380Y-97809523D01*
X142852380Y-97190476D01*
X142280952Y-96619047D02*
X142233333Y-96714285D01*
X142185714Y-96761904D01*
X142090476Y-96809523D01*
X142042857Y-96809523D01*
X141947619Y-96761904D01*
X141900000Y-96714285D01*
X141852380Y-96619047D01*
X141852380Y-96428571D01*
X141900000Y-96333333D01*
X141947619Y-96285714D01*
X142042857Y-96238095D01*
X142090476Y-96238095D01*
X142185714Y-96285714D01*
X142233333Y-96333333D01*
X142280952Y-96428571D01*
X142280952Y-96619047D01*
X142328571Y-96714285D01*
X142376190Y-96761904D01*
X142471428Y-96809523D01*
X142661904Y-96809523D01*
X142757142Y-96761904D01*
X142804761Y-96714285D01*
X142852380Y-96619047D01*
X142852380Y-96428571D01*
X142804761Y-96333333D01*
X142757142Y-96285714D01*
X142661904Y-96238095D01*
X142471428Y-96238095D01*
X142376190Y-96285714D01*
X142328571Y-96333333D01*
X142280952Y-96428571D01*
X135433333Y-114157142D02*
X135385714Y-114204761D01*
X135242857Y-114252380D01*
X135147619Y-114252380D01*
X135004761Y-114204761D01*
X134909523Y-114109523D01*
X134861904Y-114014285D01*
X134814285Y-113823809D01*
X134814285Y-113680952D01*
X134861904Y-113490476D01*
X134909523Y-113395238D01*
X135004761Y-113300000D01*
X135147619Y-113252380D01*
X135242857Y-113252380D01*
X135385714Y-113300000D01*
X135433333Y-113347619D01*
X135766666Y-113252380D02*
X136385714Y-113252380D01*
X136052380Y-113633333D01*
X136195238Y-113633333D01*
X136290476Y-113680952D01*
X136338095Y-113728571D01*
X136385714Y-113823809D01*
X136385714Y-114061904D01*
X136338095Y-114157142D01*
X136290476Y-114204761D01*
X136195238Y-114252380D01*
X135909523Y-114252380D01*
X135814285Y-114204761D01*
X135766666Y-114157142D01*
X172657142Y-45642857D02*
X172704761Y-45690476D01*
X172752380Y-45833333D01*
X172752380Y-45928571D01*
X172704761Y-46071428D01*
X172609523Y-46166666D01*
X172514285Y-46214285D01*
X172323809Y-46261904D01*
X172180952Y-46261904D01*
X171990476Y-46214285D01*
X171895238Y-46166666D01*
X171800000Y-46071428D01*
X171752380Y-45928571D01*
X171752380Y-45833333D01*
X171800000Y-45690476D01*
X171847619Y-45642857D01*
X171847619Y-45261904D02*
X171800000Y-45214285D01*
X171752380Y-45119047D01*
X171752380Y-44880952D01*
X171800000Y-44785714D01*
X171847619Y-44738095D01*
X171942857Y-44690476D01*
X172038095Y-44690476D01*
X172180952Y-44738095D01*
X172752380Y-45309523D01*
X172752380Y-44690476D01*
X171752380Y-44357142D02*
X171752380Y-43738095D01*
X172133333Y-44071428D01*
X172133333Y-43928571D01*
X172180952Y-43833333D01*
X172228571Y-43785714D01*
X172323809Y-43738095D01*
X172561904Y-43738095D01*
X172657142Y-43785714D01*
X172704761Y-43833333D01*
X172752380Y-43928571D01*
X172752380Y-44214285D01*
X172704761Y-44309523D01*
X172657142Y-44357142D01*
X133957142Y-136452380D02*
X133623809Y-135976190D01*
X133385714Y-136452380D02*
X133385714Y-135452380D01*
X133766666Y-135452380D01*
X133861904Y-135500000D01*
X133909523Y-135547619D01*
X133957142Y-135642857D01*
X133957142Y-135785714D01*
X133909523Y-135880952D01*
X133861904Y-135928571D01*
X133766666Y-135976190D01*
X133385714Y-135976190D01*
X134909523Y-136452380D02*
X134338095Y-136452380D01*
X134623809Y-136452380D02*
X134623809Y-135452380D01*
X134528571Y-135595238D01*
X134433333Y-135690476D01*
X134338095Y-135738095D01*
X135528571Y-135452380D02*
X135623809Y-135452380D01*
X135719047Y-135500000D01*
X135766666Y-135547619D01*
X135814285Y-135642857D01*
X135861904Y-135833333D01*
X135861904Y-136071428D01*
X135814285Y-136261904D01*
X135766666Y-136357142D01*
X135719047Y-136404761D01*
X135623809Y-136452380D01*
X135528571Y-136452380D01*
X135433333Y-136404761D01*
X135385714Y-136357142D01*
X135338095Y-136261904D01*
X135290476Y-136071428D01*
X135290476Y-135833333D01*
X135338095Y-135642857D01*
X135385714Y-135547619D01*
X135433333Y-135500000D01*
X135528571Y-135452380D01*
X129718998Y-93901666D02*
X129242808Y-94235000D01*
X129718998Y-94473095D02*
X128718998Y-94473095D01*
X128718998Y-94092142D01*
X128766618Y-93996904D01*
X128814237Y-93949285D01*
X128909475Y-93901666D01*
X129052332Y-93901666D01*
X129147570Y-93949285D01*
X129195189Y-93996904D01*
X129242808Y-94092142D01*
X129242808Y-94473095D01*
X129718998Y-92949285D02*
X129718998Y-93520714D01*
X129718998Y-93235000D02*
X128718998Y-93235000D01*
X128861856Y-93330238D01*
X128957094Y-93425476D01*
X129004713Y-93520714D01*
X132147619Y-123595238D02*
X132100000Y-123690476D01*
X132004761Y-123785714D01*
X131861904Y-123928571D01*
X131814285Y-124023809D01*
X131814285Y-124119047D01*
X132052380Y-124071428D02*
X132004761Y-124166666D01*
X131909523Y-124261904D01*
X131719047Y-124309523D01*
X131385714Y-124309523D01*
X131195238Y-124261904D01*
X131100000Y-124166666D01*
X131052380Y-124071428D01*
X131052380Y-123880952D01*
X131100000Y-123785714D01*
X131195238Y-123690476D01*
X131385714Y-123642857D01*
X131719047Y-123642857D01*
X131909523Y-123690476D01*
X132004761Y-123785714D01*
X132052380Y-123880952D01*
X132052380Y-124071428D01*
X132052380Y-122690476D02*
X132052380Y-123261904D01*
X132052380Y-122976190D02*
X131052380Y-122976190D01*
X131195238Y-123071428D01*
X131290476Y-123166666D01*
X131338095Y-123261904D01*
X131157142Y-76366666D02*
X131204761Y-76414285D01*
X131252380Y-76557142D01*
X131252380Y-76652380D01*
X131204761Y-76795238D01*
X131109523Y-76890476D01*
X131014285Y-76938095D01*
X130823809Y-76985714D01*
X130680952Y-76985714D01*
X130490476Y-76938095D01*
X130395238Y-76890476D01*
X130300000Y-76795238D01*
X130252380Y-76652380D01*
X130252380Y-76557142D01*
X130300000Y-76414285D01*
X130347619Y-76366666D01*
X130252380Y-76033333D02*
X130252380Y-75366666D01*
X131252380Y-75795238D01*
X124457142Y-109152380D02*
X124123809Y-108676190D01*
X123885714Y-109152380D02*
X123885714Y-108152380D01*
X124266666Y-108152380D01*
X124361904Y-108200000D01*
X124409523Y-108247619D01*
X124457142Y-108342857D01*
X124457142Y-108485714D01*
X124409523Y-108580952D01*
X124361904Y-108628571D01*
X124266666Y-108676190D01*
X123885714Y-108676190D01*
X124790476Y-108152380D02*
X125409523Y-108152380D01*
X125076190Y-108533333D01*
X125219047Y-108533333D01*
X125314285Y-108580952D01*
X125361904Y-108628571D01*
X125409523Y-108723809D01*
X125409523Y-108961904D01*
X125361904Y-109057142D01*
X125314285Y-109104761D01*
X125219047Y-109152380D01*
X124933333Y-109152380D01*
X124838095Y-109104761D01*
X124790476Y-109057142D01*
X125885714Y-109152380D02*
X126076190Y-109152380D01*
X126171428Y-109104761D01*
X126219047Y-109057142D01*
X126314285Y-108914285D01*
X126361904Y-108723809D01*
X126361904Y-108342857D01*
X126314285Y-108247619D01*
X126266666Y-108200000D01*
X126171428Y-108152380D01*
X125980952Y-108152380D01*
X125885714Y-108200000D01*
X125838095Y-108247619D01*
X125790476Y-108342857D01*
X125790476Y-108580952D01*
X125838095Y-108676190D01*
X125885714Y-108723809D01*
X125980952Y-108771428D01*
X126171428Y-108771428D01*
X126266666Y-108723809D01*
X126314285Y-108676190D01*
X126361904Y-108580952D01*
X132157142Y-126652380D02*
X131823809Y-126176190D01*
X131585714Y-126652380D02*
X131585714Y-125652380D01*
X131966666Y-125652380D01*
X132061904Y-125700000D01*
X132109523Y-125747619D01*
X132157142Y-125842857D01*
X132157142Y-125985714D01*
X132109523Y-126080952D01*
X132061904Y-126128571D01*
X131966666Y-126176190D01*
X131585714Y-126176190D01*
X132538095Y-125747619D02*
X132585714Y-125700000D01*
X132680952Y-125652380D01*
X132919047Y-125652380D01*
X133014285Y-125700000D01*
X133061904Y-125747619D01*
X133109523Y-125842857D01*
X133109523Y-125938095D01*
X133061904Y-126080952D01*
X132490476Y-126652380D01*
X133109523Y-126652380D01*
X133966666Y-125985714D02*
X133966666Y-126652380D01*
X133728571Y-125604761D02*
X133490476Y-126319047D01*
X134109523Y-126319047D01*
X124657142Y-122552380D02*
X124323809Y-122076190D01*
X124085714Y-122552380D02*
X124085714Y-121552380D01*
X124466666Y-121552380D01*
X124561904Y-121600000D01*
X124609523Y-121647619D01*
X124657142Y-121742857D01*
X124657142Y-121885714D01*
X124609523Y-121980952D01*
X124561904Y-122028571D01*
X124466666Y-122076190D01*
X124085714Y-122076190D01*
X125038095Y-121647619D02*
X125085714Y-121600000D01*
X125180952Y-121552380D01*
X125419047Y-121552380D01*
X125514285Y-121600000D01*
X125561904Y-121647619D01*
X125609523Y-121742857D01*
X125609523Y-121838095D01*
X125561904Y-121980952D01*
X124990476Y-122552380D01*
X125609523Y-122552380D01*
X126228571Y-121552380D02*
X126323809Y-121552380D01*
X126419047Y-121600000D01*
X126466666Y-121647619D01*
X126514285Y-121742857D01*
X126561904Y-121933333D01*
X126561904Y-122171428D01*
X126514285Y-122361904D01*
X126466666Y-122457142D01*
X126419047Y-122504761D01*
X126323809Y-122552380D01*
X126228571Y-122552380D01*
X126133333Y-122504761D01*
X126085714Y-122457142D01*
X126038095Y-122361904D01*
X125990476Y-122171428D01*
X125990476Y-121933333D01*
X126038095Y-121742857D01*
X126085714Y-121647619D01*
X126133333Y-121600000D01*
X126228571Y-121552380D01*
X128657142Y-87466666D02*
X128704761Y-87514285D01*
X128752380Y-87657142D01*
X128752380Y-87752380D01*
X128704761Y-87895238D01*
X128609523Y-87990476D01*
X128514285Y-88038095D01*
X128323809Y-88085714D01*
X128180952Y-88085714D01*
X127990476Y-88038095D01*
X127895238Y-87990476D01*
X127800000Y-87895238D01*
X127752380Y-87752380D01*
X127752380Y-87657142D01*
X127800000Y-87514285D01*
X127847619Y-87466666D01*
X127752380Y-86561904D02*
X127752380Y-87038095D01*
X128228571Y-87085714D01*
X128180952Y-87038095D01*
X128133333Y-86942857D01*
X128133333Y-86704761D01*
X128180952Y-86609523D01*
X128228571Y-86561904D01*
X128323809Y-86514285D01*
X128561904Y-86514285D01*
X128657142Y-86561904D01*
X128704761Y-86609523D01*
X128752380Y-86704761D01*
X128752380Y-86942857D01*
X128704761Y-87038095D01*
X128657142Y-87085714D01*
X162652380Y-129614285D02*
X161652380Y-129614285D01*
X161652380Y-129376190D01*
X161700000Y-129233333D01*
X161795238Y-129138095D01*
X161890476Y-129090476D01*
X162080952Y-129042857D01*
X162223809Y-129042857D01*
X162414285Y-129090476D01*
X162509523Y-129138095D01*
X162604761Y-129233333D01*
X162652380Y-129376190D01*
X162652380Y-129614285D01*
X162652380Y-128090476D02*
X162652380Y-128661904D01*
X162652380Y-128376190D02*
X161652380Y-128376190D01*
X161795238Y-128471428D01*
X161890476Y-128566666D01*
X161938095Y-128661904D01*
X161652380Y-127471428D02*
X161652380Y-127376190D01*
X161700000Y-127280952D01*
X161747619Y-127233333D01*
X161842857Y-127185714D01*
X162033333Y-127138095D01*
X162271428Y-127138095D01*
X162461904Y-127185714D01*
X162557142Y-127233333D01*
X162604761Y-127280952D01*
X162652380Y-127376190D01*
X162652380Y-127471428D01*
X162604761Y-127566666D01*
X162557142Y-127614285D01*
X162461904Y-127661904D01*
X162271428Y-127709523D01*
X162033333Y-127709523D01*
X161842857Y-127661904D01*
X161747619Y-127614285D01*
X161700000Y-127566666D01*
X161652380Y-127471428D01*
X135052380Y-82842857D02*
X134576190Y-83176190D01*
X135052380Y-83414285D02*
X134052380Y-83414285D01*
X134052380Y-83033333D01*
X134100000Y-82938095D01*
X134147619Y-82890476D01*
X134242857Y-82842857D01*
X134385714Y-82842857D01*
X134480952Y-82890476D01*
X134528571Y-82938095D01*
X134576190Y-83033333D01*
X134576190Y-83414285D01*
X135052380Y-81890476D02*
X135052380Y-82461904D01*
X135052380Y-82176190D02*
X134052380Y-82176190D01*
X134195238Y-82271428D01*
X134290476Y-82366666D01*
X134338095Y-82461904D01*
X134052380Y-80985714D02*
X134052380Y-81461904D01*
X134528571Y-81509523D01*
X134480952Y-81461904D01*
X134433333Y-81366666D01*
X134433333Y-81128571D01*
X134480952Y-81033333D01*
X134528571Y-80985714D01*
X134623809Y-80938095D01*
X134861904Y-80938095D01*
X134957142Y-80985714D01*
X135004761Y-81033333D01*
X135052380Y-81128571D01*
X135052380Y-81366666D01*
X135004761Y-81461904D01*
X134957142Y-81509523D01*
X170457142Y-140452380D02*
X170123809Y-139976190D01*
X169885714Y-140452380D02*
X169885714Y-139452380D01*
X170266666Y-139452380D01*
X170361904Y-139500000D01*
X170409523Y-139547619D01*
X170457142Y-139642857D01*
X170457142Y-139785714D01*
X170409523Y-139880952D01*
X170361904Y-139928571D01*
X170266666Y-139976190D01*
X169885714Y-139976190D01*
X171409523Y-140452380D02*
X170838095Y-140452380D01*
X171123809Y-140452380D02*
X171123809Y-139452380D01*
X171028571Y-139595238D01*
X170933333Y-139690476D01*
X170838095Y-139738095D01*
X171742857Y-139452380D02*
X172361904Y-139452380D01*
X172028571Y-139833333D01*
X172171428Y-139833333D01*
X172266666Y-139880952D01*
X172314285Y-139928571D01*
X172361904Y-140023809D01*
X172361904Y-140261904D01*
X172314285Y-140357142D01*
X172266666Y-140404761D01*
X172171428Y-140452380D01*
X171885714Y-140452380D01*
X171790476Y-140404761D01*
X171742857Y-140357142D01*
X126852380Y-85289857D02*
X126376190Y-85623190D01*
X126852380Y-85861285D02*
X125852380Y-85861285D01*
X125852380Y-85480333D01*
X125900000Y-85385095D01*
X125947619Y-85337476D01*
X126042857Y-85289857D01*
X126185714Y-85289857D01*
X126280952Y-85337476D01*
X126328571Y-85385095D01*
X126376190Y-85480333D01*
X126376190Y-85861285D01*
X125947619Y-84908904D02*
X125900000Y-84861285D01*
X125852380Y-84766047D01*
X125852380Y-84527952D01*
X125900000Y-84432714D01*
X125947619Y-84385095D01*
X126042857Y-84337476D01*
X126138095Y-84337476D01*
X126280952Y-84385095D01*
X126852380Y-84956523D01*
X126852380Y-84337476D01*
X125947619Y-83956523D02*
X125900000Y-83908904D01*
X125852380Y-83813666D01*
X125852380Y-83575571D01*
X125900000Y-83480333D01*
X125947619Y-83432714D01*
X126042857Y-83385095D01*
X126138095Y-83385095D01*
X126280952Y-83432714D01*
X126852380Y-84004142D01*
X126852380Y-83385095D01*
X156678142Y-93463380D02*
X156344809Y-92987190D01*
X156106714Y-93463380D02*
X156106714Y-92463380D01*
X156487666Y-92463380D01*
X156582904Y-92511000D01*
X156630523Y-92558619D01*
X156678142Y-92653857D01*
X156678142Y-92796714D01*
X156630523Y-92891952D01*
X156582904Y-92939571D01*
X156487666Y-92987190D01*
X156106714Y-92987190D01*
X157535285Y-92796714D02*
X157535285Y-93463380D01*
X157297190Y-92415761D02*
X157059095Y-93130047D01*
X157678142Y-93130047D01*
X158249571Y-92463380D02*
X158344809Y-92463380D01*
X158440047Y-92511000D01*
X158487666Y-92558619D01*
X158535285Y-92653857D01*
X158582904Y-92844333D01*
X158582904Y-93082428D01*
X158535285Y-93272904D01*
X158487666Y-93368142D01*
X158440047Y-93415761D01*
X158344809Y-93463380D01*
X158249571Y-93463380D01*
X158154333Y-93415761D01*
X158106714Y-93368142D01*
X158059095Y-93272904D01*
X158011476Y-93082428D01*
X158011476Y-92844333D01*
X158059095Y-92653857D01*
X158106714Y-92558619D01*
X158154333Y-92511000D01*
X158249571Y-92463380D01*
X157252380Y-105242857D02*
X156776190Y-105576190D01*
X157252380Y-105814285D02*
X156252380Y-105814285D01*
X156252380Y-105433333D01*
X156300000Y-105338095D01*
X156347619Y-105290476D01*
X156442857Y-105242857D01*
X156585714Y-105242857D01*
X156680952Y-105290476D01*
X156728571Y-105338095D01*
X156776190Y-105433333D01*
X156776190Y-105814285D01*
X156252380Y-104338095D02*
X156252380Y-104814285D01*
X156728571Y-104861904D01*
X156680952Y-104814285D01*
X156633333Y-104719047D01*
X156633333Y-104480952D01*
X156680952Y-104385714D01*
X156728571Y-104338095D01*
X156823809Y-104290476D01*
X157061904Y-104290476D01*
X157157142Y-104338095D01*
X157204761Y-104385714D01*
X157252380Y-104480952D01*
X157252380Y-104719047D01*
X157204761Y-104814285D01*
X157157142Y-104861904D01*
X156585714Y-103433333D02*
X157252380Y-103433333D01*
X156204761Y-103671428D02*
X156919047Y-103909523D01*
X156919047Y-103290476D01*
X138552380Y-138742857D02*
X138076190Y-139076190D01*
X138552380Y-139314285D02*
X137552380Y-139314285D01*
X137552380Y-138933333D01*
X137600000Y-138838095D01*
X137647619Y-138790476D01*
X137742857Y-138742857D01*
X137885714Y-138742857D01*
X137980952Y-138790476D01*
X138028571Y-138838095D01*
X138076190Y-138933333D01*
X138076190Y-139314285D01*
X137647619Y-138361904D02*
X137600000Y-138314285D01*
X137552380Y-138219047D01*
X137552380Y-137980952D01*
X137600000Y-137885714D01*
X137647619Y-137838095D01*
X137742857Y-137790476D01*
X137838095Y-137790476D01*
X137980952Y-137838095D01*
X138552380Y-138409523D01*
X138552380Y-137790476D01*
X137552380Y-136885714D02*
X137552380Y-137361904D01*
X138028571Y-137409523D01*
X137980952Y-137361904D01*
X137933333Y-137266666D01*
X137933333Y-137028571D01*
X137980952Y-136933333D01*
X138028571Y-136885714D01*
X138123809Y-136838095D01*
X138361904Y-136838095D01*
X138457142Y-136885714D01*
X138504761Y-136933333D01*
X138552380Y-137028571D01*
X138552380Y-137266666D01*
X138504761Y-137361904D01*
X138457142Y-137409523D01*
X153949166Y-131032380D02*
X153949166Y-131746666D01*
X153901547Y-131889523D01*
X153806309Y-131984761D01*
X153663452Y-132032380D01*
X153568214Y-132032380D01*
X154330119Y-131032380D02*
X154996785Y-131032380D01*
X154568214Y-132032380D01*
X147452380Y-130295238D02*
X146976190Y-130628571D01*
X147452380Y-130866666D02*
X146452380Y-130866666D01*
X146452380Y-130485714D01*
X146500000Y-130390476D01*
X146547619Y-130342857D01*
X146642857Y-130295238D01*
X146785714Y-130295238D01*
X146880952Y-130342857D01*
X146928571Y-130390476D01*
X146976190Y-130485714D01*
X146976190Y-130866666D01*
X146452380Y-130009523D02*
X147452380Y-129676190D01*
X146452380Y-129342857D01*
X146452380Y-128580952D02*
X146452380Y-128771428D01*
X146500000Y-128866666D01*
X146547619Y-128914285D01*
X146690476Y-129009523D01*
X146880952Y-129057142D01*
X147261904Y-129057142D01*
X147357142Y-129009523D01*
X147404761Y-128961904D01*
X147452380Y-128866666D01*
X147452380Y-128676190D01*
X147404761Y-128580952D01*
X147357142Y-128533333D01*
X147261904Y-128485714D01*
X147023809Y-128485714D01*
X146928571Y-128533333D01*
X146880952Y-128580952D01*
X146833333Y-128676190D01*
X146833333Y-128866666D01*
X146880952Y-128961904D01*
X146928571Y-129009523D01*
X147023809Y-129057142D01*
X162452380Y-115061904D02*
X163261904Y-115061904D01*
X163357142Y-115014285D01*
X163404761Y-114966666D01*
X163452380Y-114871428D01*
X163452380Y-114680952D01*
X163404761Y-114585714D01*
X163357142Y-114538095D01*
X163261904Y-114490476D01*
X162452380Y-114490476D01*
X162452380Y-113585714D02*
X162452380Y-113776190D01*
X162500000Y-113871428D01*
X162547619Y-113919047D01*
X162690476Y-114014285D01*
X162880952Y-114061904D01*
X163261904Y-114061904D01*
X163357142Y-114014285D01*
X163404761Y-113966666D01*
X163452380Y-113871428D01*
X163452380Y-113680952D01*
X163404761Y-113585714D01*
X163357142Y-113538095D01*
X163261904Y-113490476D01*
X163023809Y-113490476D01*
X162928571Y-113538095D01*
X162880952Y-113585714D01*
X162833333Y-113680952D01*
X162833333Y-113871428D01*
X162880952Y-113966666D01*
X162928571Y-114014285D01*
X163023809Y-114061904D01*
X131240998Y-93901666D02*
X130764808Y-94235000D01*
X131240998Y-94473095D02*
X130240998Y-94473095D01*
X130240998Y-94092142D01*
X130288618Y-93996904D01*
X130336237Y-93949285D01*
X130431475Y-93901666D01*
X130574332Y-93901666D01*
X130669570Y-93949285D01*
X130717189Y-93996904D01*
X130764808Y-94092142D01*
X130764808Y-94473095D01*
X130240998Y-93044523D02*
X130240998Y-93235000D01*
X130288618Y-93330238D01*
X130336237Y-93377857D01*
X130479094Y-93473095D01*
X130669570Y-93520714D01*
X131050522Y-93520714D01*
X131145760Y-93473095D01*
X131193379Y-93425476D01*
X131240998Y-93330238D01*
X131240998Y-93139761D01*
X131193379Y-93044523D01*
X131145760Y-92996904D01*
X131050522Y-92949285D01*
X130812427Y-92949285D01*
X130717189Y-92996904D01*
X130669570Y-93044523D01*
X130621951Y-93139761D01*
X130621951Y-93330238D01*
X130669570Y-93425476D01*
X130717189Y-93473095D01*
X130812427Y-93520714D01*
X125063142Y-127508857D02*
X125110761Y-127556476D01*
X125158380Y-127699333D01*
X125158380Y-127794571D01*
X125110761Y-127937428D01*
X125015523Y-128032666D01*
X124920285Y-128080285D01*
X124729809Y-128127904D01*
X124586952Y-128127904D01*
X124396476Y-128080285D01*
X124301238Y-128032666D01*
X124206000Y-127937428D01*
X124158380Y-127794571D01*
X124158380Y-127699333D01*
X124206000Y-127556476D01*
X124253619Y-127508857D01*
X125158380Y-126556476D02*
X125158380Y-127127904D01*
X125158380Y-126842190D02*
X124158380Y-126842190D01*
X124301238Y-126937428D01*
X124396476Y-127032666D01*
X124444095Y-127127904D01*
X124158380Y-125651714D02*
X124158380Y-126127904D01*
X124634571Y-126175523D01*
X124586952Y-126127904D01*
X124539333Y-126032666D01*
X124539333Y-125794571D01*
X124586952Y-125699333D01*
X124634571Y-125651714D01*
X124729809Y-125604095D01*
X124967904Y-125604095D01*
X125063142Y-125651714D01*
X125110761Y-125699333D01*
X125158380Y-125794571D01*
X125158380Y-126032666D01*
X125110761Y-126127904D01*
X125063142Y-126175523D01*
X132752380Y-130861904D02*
X133561904Y-130861904D01*
X133657142Y-130814285D01*
X133704761Y-130766666D01*
X133752380Y-130671428D01*
X133752380Y-130480952D01*
X133704761Y-130385714D01*
X133657142Y-130338095D01*
X133561904Y-130290476D01*
X132752380Y-130290476D01*
X133752380Y-129766666D02*
X133752380Y-129576190D01*
X133704761Y-129480952D01*
X133657142Y-129433333D01*
X133514285Y-129338095D01*
X133323809Y-129290476D01*
X132942857Y-129290476D01*
X132847619Y-129338095D01*
X132800000Y-129385714D01*
X132752380Y-129480952D01*
X132752380Y-129671428D01*
X132800000Y-129766666D01*
X132847619Y-129814285D01*
X132942857Y-129861904D01*
X133180952Y-129861904D01*
X133276190Y-129814285D01*
X133323809Y-129766666D01*
X133371428Y-129671428D01*
X133371428Y-129480952D01*
X133323809Y-129385714D01*
X133276190Y-129338095D01*
X133180952Y-129290476D01*
X145733333Y-122987142D02*
X145685714Y-123034761D01*
X145542857Y-123082380D01*
X145447619Y-123082380D01*
X145304761Y-123034761D01*
X145209523Y-122939523D01*
X145161904Y-122844285D01*
X145114285Y-122653809D01*
X145114285Y-122510952D01*
X145161904Y-122320476D01*
X145209523Y-122225238D01*
X145304761Y-122130000D01*
X145447619Y-122082380D01*
X145542857Y-122082380D01*
X145685714Y-122130000D01*
X145733333Y-122177619D01*
X146114285Y-122177619D02*
X146161904Y-122130000D01*
X146257142Y-122082380D01*
X146495238Y-122082380D01*
X146590476Y-122130000D01*
X146638095Y-122177619D01*
X146685714Y-122272857D01*
X146685714Y-122368095D01*
X146638095Y-122510952D01*
X146066666Y-123082380D01*
X146685714Y-123082380D01*
X135217142Y-87871857D02*
X135264761Y-87919476D01*
X135312380Y-88062333D01*
X135312380Y-88157571D01*
X135264761Y-88300428D01*
X135169523Y-88395666D01*
X135074285Y-88443285D01*
X134883809Y-88490904D01*
X134740952Y-88490904D01*
X134550476Y-88443285D01*
X134455238Y-88395666D01*
X134360000Y-88300428D01*
X134312380Y-88157571D01*
X134312380Y-88062333D01*
X134360000Y-87919476D01*
X134407619Y-87871857D01*
X135312380Y-86919476D02*
X135312380Y-87490904D01*
X135312380Y-87205190D02*
X134312380Y-87205190D01*
X134455238Y-87300428D01*
X134550476Y-87395666D01*
X134598095Y-87490904D01*
X134312380Y-86586142D02*
X134312380Y-85967095D01*
X134693333Y-86300428D01*
X134693333Y-86157571D01*
X134740952Y-86062333D01*
X134788571Y-86014714D01*
X134883809Y-85967095D01*
X135121904Y-85967095D01*
X135217142Y-86014714D01*
X135264761Y-86062333D01*
X135312380Y-86157571D01*
X135312380Y-86443285D01*
X135264761Y-86538523D01*
X135217142Y-86586142D01*
X129204761Y-96252380D02*
X128871428Y-95776190D01*
X128633333Y-96252380D02*
X128633333Y-95252380D01*
X129014285Y-95252380D01*
X129109523Y-95300000D01*
X129157142Y-95347619D01*
X129204761Y-95442857D01*
X129204761Y-95585714D01*
X129157142Y-95680952D01*
X129109523Y-95728571D01*
X129014285Y-95776190D01*
X128633333Y-95776190D01*
X129490476Y-95252380D02*
X129823809Y-96252380D01*
X130157142Y-95252380D01*
X130395238Y-95252380D02*
X131014285Y-95252380D01*
X130680952Y-95633333D01*
X130823809Y-95633333D01*
X130919047Y-95680952D01*
X130966666Y-95728571D01*
X131014285Y-95823809D01*
X131014285Y-96061904D01*
X130966666Y-96157142D01*
X130919047Y-96204761D01*
X130823809Y-96252380D01*
X130538095Y-96252380D01*
X130442857Y-96204761D01*
X130395238Y-96157142D01*
X164789142Y-45600857D02*
X164836761Y-45648476D01*
X164884380Y-45791333D01*
X164884380Y-45886571D01*
X164836761Y-46029428D01*
X164741523Y-46124666D01*
X164646285Y-46172285D01*
X164455809Y-46219904D01*
X164312952Y-46219904D01*
X164122476Y-46172285D01*
X164027238Y-46124666D01*
X163932000Y-46029428D01*
X163884380Y-45886571D01*
X163884380Y-45791333D01*
X163932000Y-45648476D01*
X163979619Y-45600857D01*
X163979619Y-45219904D02*
X163932000Y-45172285D01*
X163884380Y-45077047D01*
X163884380Y-44838952D01*
X163932000Y-44743714D01*
X163979619Y-44696095D01*
X164074857Y-44648476D01*
X164170095Y-44648476D01*
X164312952Y-44696095D01*
X164884380Y-45267523D01*
X164884380Y-44648476D01*
X163884380Y-44029428D02*
X163884380Y-43934190D01*
X163932000Y-43838952D01*
X163979619Y-43791333D01*
X164074857Y-43743714D01*
X164265333Y-43696095D01*
X164503428Y-43696095D01*
X164693904Y-43743714D01*
X164789142Y-43791333D01*
X164836761Y-43838952D01*
X164884380Y-43934190D01*
X164884380Y-44029428D01*
X164836761Y-44124666D01*
X164789142Y-44172285D01*
X164693904Y-44219904D01*
X164503428Y-44267523D01*
X164265333Y-44267523D01*
X164074857Y-44219904D01*
X163979619Y-44172285D01*
X163932000Y-44124666D01*
X163884380Y-44029428D01*
X171857142Y-113142857D02*
X171904761Y-113190476D01*
X171952380Y-113333333D01*
X171952380Y-113428571D01*
X171904761Y-113571428D01*
X171809523Y-113666666D01*
X171714285Y-113714285D01*
X171523809Y-113761904D01*
X171380952Y-113761904D01*
X171190476Y-113714285D01*
X171095238Y-113666666D01*
X171000000Y-113571428D01*
X170952380Y-113428571D01*
X170952380Y-113333333D01*
X171000000Y-113190476D01*
X171047619Y-113142857D01*
X171952380Y-112190476D02*
X171952380Y-112761904D01*
X171952380Y-112476190D02*
X170952380Y-112476190D01*
X171095238Y-112571428D01*
X171190476Y-112666666D01*
X171238095Y-112761904D01*
X171952380Y-111238095D02*
X171952380Y-111809523D01*
X171952380Y-111523809D02*
X170952380Y-111523809D01*
X171095238Y-111619047D01*
X171190476Y-111714285D01*
X171238095Y-111809523D01*
X172552380Y-122181857D02*
X172076190Y-122515190D01*
X172552380Y-122753285D02*
X171552380Y-122753285D01*
X171552380Y-122372333D01*
X171600000Y-122277095D01*
X171647619Y-122229476D01*
X171742857Y-122181857D01*
X171885714Y-122181857D01*
X171980952Y-122229476D01*
X172028571Y-122277095D01*
X172076190Y-122372333D01*
X172076190Y-122753285D01*
X171552380Y-121277095D02*
X171552380Y-121753285D01*
X172028571Y-121800904D01*
X171980952Y-121753285D01*
X171933333Y-121658047D01*
X171933333Y-121419952D01*
X171980952Y-121324714D01*
X172028571Y-121277095D01*
X172123809Y-121229476D01*
X172361904Y-121229476D01*
X172457142Y-121277095D01*
X172504761Y-121324714D01*
X172552380Y-121419952D01*
X172552380Y-121658047D01*
X172504761Y-121753285D01*
X172457142Y-121800904D01*
X171647619Y-120848523D02*
X171600000Y-120800904D01*
X171552380Y-120705666D01*
X171552380Y-120467571D01*
X171600000Y-120372333D01*
X171647619Y-120324714D01*
X171742857Y-120277095D01*
X171838095Y-120277095D01*
X171980952Y-120324714D01*
X172552380Y-120896142D01*
X172552380Y-120277095D01*
X132157142Y-128152380D02*
X131823809Y-127676190D01*
X131585714Y-128152380D02*
X131585714Y-127152380D01*
X131966666Y-127152380D01*
X132061904Y-127200000D01*
X132109523Y-127247619D01*
X132157142Y-127342857D01*
X132157142Y-127485714D01*
X132109523Y-127580952D01*
X132061904Y-127628571D01*
X131966666Y-127676190D01*
X131585714Y-127676190D01*
X132538095Y-127247619D02*
X132585714Y-127200000D01*
X132680952Y-127152380D01*
X132919047Y-127152380D01*
X133014285Y-127200000D01*
X133061904Y-127247619D01*
X133109523Y-127342857D01*
X133109523Y-127438095D01*
X133061904Y-127580952D01*
X132490476Y-128152380D01*
X133109523Y-128152380D01*
X134061904Y-128152380D02*
X133490476Y-128152380D01*
X133776190Y-128152380D02*
X133776190Y-127152380D01*
X133680952Y-127295238D01*
X133585714Y-127390476D01*
X133490476Y-127438095D01*
X144276380Y-92676857D02*
X143800190Y-93010190D01*
X144276380Y-93248285D02*
X143276380Y-93248285D01*
X143276380Y-92867333D01*
X143324000Y-92772095D01*
X143371619Y-92724476D01*
X143466857Y-92676857D01*
X143609714Y-92676857D01*
X143704952Y-92724476D01*
X143752571Y-92772095D01*
X143800190Y-92867333D01*
X143800190Y-93248285D01*
X143276380Y-92343523D02*
X143276380Y-91724476D01*
X143657333Y-92057809D01*
X143657333Y-91914952D01*
X143704952Y-91819714D01*
X143752571Y-91772095D01*
X143847809Y-91724476D01*
X144085904Y-91724476D01*
X144181142Y-91772095D01*
X144228761Y-91819714D01*
X144276380Y-91914952D01*
X144276380Y-92200666D01*
X144228761Y-92295904D01*
X144181142Y-92343523D01*
X143276380Y-90867333D02*
X143276380Y-91057809D01*
X143324000Y-91153047D01*
X143371619Y-91200666D01*
X143514476Y-91295904D01*
X143704952Y-91343523D01*
X144085904Y-91343523D01*
X144181142Y-91295904D01*
X144228761Y-91248285D01*
X144276380Y-91153047D01*
X144276380Y-90962571D01*
X144228761Y-90867333D01*
X144181142Y-90819714D01*
X144085904Y-90772095D01*
X143847809Y-90772095D01*
X143752571Y-90819714D01*
X143704952Y-90867333D01*
X143657333Y-90962571D01*
X143657333Y-91153047D01*
X143704952Y-91248285D01*
X143752571Y-91295904D01*
X143847809Y-91343523D01*
X164857142Y-120152380D02*
X164523809Y-119676190D01*
X164285714Y-120152380D02*
X164285714Y-119152380D01*
X164666666Y-119152380D01*
X164761904Y-119200000D01*
X164809523Y-119247619D01*
X164857142Y-119342857D01*
X164857142Y-119485714D01*
X164809523Y-119580952D01*
X164761904Y-119628571D01*
X164666666Y-119676190D01*
X164285714Y-119676190D01*
X165761904Y-119152380D02*
X165285714Y-119152380D01*
X165238095Y-119628571D01*
X165285714Y-119580952D01*
X165380952Y-119533333D01*
X165619047Y-119533333D01*
X165714285Y-119580952D01*
X165761904Y-119628571D01*
X165809523Y-119723809D01*
X165809523Y-119961904D01*
X165761904Y-120057142D01*
X165714285Y-120104761D01*
X165619047Y-120152380D01*
X165380952Y-120152380D01*
X165285714Y-120104761D01*
X165238095Y-120057142D01*
X166761904Y-120152380D02*
X166190476Y-120152380D01*
X166476190Y-120152380D02*
X166476190Y-119152380D01*
X166380952Y-119295238D01*
X166285714Y-119390476D01*
X166190476Y-119438095D01*
X171433333Y-128257142D02*
X171385714Y-128304761D01*
X171242857Y-128352380D01*
X171147619Y-128352380D01*
X171004761Y-128304761D01*
X170909523Y-128209523D01*
X170861904Y-128114285D01*
X170814285Y-127923809D01*
X170814285Y-127780952D01*
X170861904Y-127590476D01*
X170909523Y-127495238D01*
X171004761Y-127400000D01*
X171147619Y-127352380D01*
X171242857Y-127352380D01*
X171385714Y-127400000D01*
X171433333Y-127447619D01*
X172004761Y-127780952D02*
X171909523Y-127733333D01*
X171861904Y-127685714D01*
X171814285Y-127590476D01*
X171814285Y-127542857D01*
X171861904Y-127447619D01*
X171909523Y-127400000D01*
X172004761Y-127352380D01*
X172195238Y-127352380D01*
X172290476Y-127400000D01*
X172338095Y-127447619D01*
X172385714Y-127542857D01*
X172385714Y-127590476D01*
X172338095Y-127685714D01*
X172290476Y-127733333D01*
X172195238Y-127780952D01*
X172004761Y-127780952D01*
X171909523Y-127828571D01*
X171861904Y-127876190D01*
X171814285Y-127971428D01*
X171814285Y-128161904D01*
X171861904Y-128257142D01*
X171909523Y-128304761D01*
X172004761Y-128352380D01*
X172195238Y-128352380D01*
X172290476Y-128304761D01*
X172338095Y-128257142D01*
X172385714Y-128161904D01*
X172385714Y-127971428D01*
X172338095Y-127876190D01*
X172290476Y-127828571D01*
X172195238Y-127780952D01*
X141052380Y-98066666D02*
X140576190Y-98400000D01*
X141052380Y-98638095D02*
X140052380Y-98638095D01*
X140052380Y-98257142D01*
X140100000Y-98161904D01*
X140147619Y-98114285D01*
X140242857Y-98066666D01*
X140385714Y-98066666D01*
X140480952Y-98114285D01*
X140528571Y-98161904D01*
X140576190Y-98257142D01*
X140576190Y-98638095D01*
X140480952Y-97495238D02*
X140433333Y-97590476D01*
X140385714Y-97638095D01*
X140290476Y-97685714D01*
X140242857Y-97685714D01*
X140147619Y-97638095D01*
X140100000Y-97590476D01*
X140052380Y-97495238D01*
X140052380Y-97304761D01*
X140100000Y-97209523D01*
X140147619Y-97161904D01*
X140242857Y-97114285D01*
X140290476Y-97114285D01*
X140385714Y-97161904D01*
X140433333Y-97209523D01*
X140480952Y-97304761D01*
X140480952Y-97495238D01*
X140528571Y-97590476D01*
X140576190Y-97638095D01*
X140671428Y-97685714D01*
X140861904Y-97685714D01*
X140957142Y-97638095D01*
X141004761Y-97590476D01*
X141052380Y-97495238D01*
X141052380Y-97304761D01*
X141004761Y-97209523D01*
X140957142Y-97161904D01*
X140861904Y-97114285D01*
X140671428Y-97114285D01*
X140576190Y-97161904D01*
X140528571Y-97209523D01*
X140480952Y-97304761D01*
X144352380Y-98242857D02*
X143876190Y-98576190D01*
X144352380Y-98814285D02*
X143352380Y-98814285D01*
X143352380Y-98433333D01*
X143400000Y-98338095D01*
X143447619Y-98290476D01*
X143542857Y-98242857D01*
X143685714Y-98242857D01*
X143780952Y-98290476D01*
X143828571Y-98338095D01*
X143876190Y-98433333D01*
X143876190Y-98814285D01*
X143447619Y-97861904D02*
X143400000Y-97814285D01*
X143352380Y-97719047D01*
X143352380Y-97480952D01*
X143400000Y-97385714D01*
X143447619Y-97338095D01*
X143542857Y-97290476D01*
X143638095Y-97290476D01*
X143780952Y-97338095D01*
X144352380Y-97909523D01*
X144352380Y-97290476D01*
X143352380Y-96957142D02*
X143352380Y-96290476D01*
X144352380Y-96719047D01*
X129457142Y-84740380D02*
X129123809Y-84264190D01*
X128885714Y-84740380D02*
X128885714Y-83740380D01*
X129266666Y-83740380D01*
X129361904Y-83788000D01*
X129409523Y-83835619D01*
X129457142Y-83930857D01*
X129457142Y-84073714D01*
X129409523Y-84168952D01*
X129361904Y-84216571D01*
X129266666Y-84264190D01*
X128885714Y-84264190D01*
X130409523Y-84740380D02*
X129838095Y-84740380D01*
X130123809Y-84740380D02*
X130123809Y-83740380D01*
X130028571Y-83883238D01*
X129933333Y-83978476D01*
X129838095Y-84026095D01*
X131266666Y-83740380D02*
X131076190Y-83740380D01*
X130980952Y-83788000D01*
X130933333Y-83835619D01*
X130838095Y-83978476D01*
X130790476Y-84168952D01*
X130790476Y-84549904D01*
X130838095Y-84645142D01*
X130885714Y-84692761D01*
X130980952Y-84740380D01*
X131171428Y-84740380D01*
X131266666Y-84692761D01*
X131314285Y-84645142D01*
X131361904Y-84549904D01*
X131361904Y-84311809D01*
X131314285Y-84216571D01*
X131266666Y-84168952D01*
X131171428Y-84121333D01*
X130980952Y-84121333D01*
X130885714Y-84168952D01*
X130838095Y-84216571D01*
X130790476Y-84311809D01*
X163952380Y-63742857D02*
X163476190Y-64076190D01*
X163952380Y-64314285D02*
X162952380Y-64314285D01*
X162952380Y-63933333D01*
X163000000Y-63838095D01*
X163047619Y-63790476D01*
X163142857Y-63742857D01*
X163285714Y-63742857D01*
X163380952Y-63790476D01*
X163428571Y-63838095D01*
X163476190Y-63933333D01*
X163476190Y-64314285D01*
X162952380Y-62838095D02*
X162952380Y-63314285D01*
X163428571Y-63361904D01*
X163380952Y-63314285D01*
X163333333Y-63219047D01*
X163333333Y-62980952D01*
X163380952Y-62885714D01*
X163428571Y-62838095D01*
X163523809Y-62790476D01*
X163761904Y-62790476D01*
X163857142Y-62838095D01*
X163904761Y-62885714D01*
X163952380Y-62980952D01*
X163952380Y-63219047D01*
X163904761Y-63314285D01*
X163857142Y-63361904D01*
X162952380Y-62457142D02*
X162952380Y-61838095D01*
X163333333Y-62171428D01*
X163333333Y-62028571D01*
X163380952Y-61933333D01*
X163428571Y-61885714D01*
X163523809Y-61838095D01*
X163761904Y-61838095D01*
X163857142Y-61885714D01*
X163904761Y-61933333D01*
X163952380Y-62028571D01*
X163952380Y-62314285D01*
X163904761Y-62409523D01*
X163857142Y-62457142D01*
X147352380Y-134995238D02*
X146876190Y-135328571D01*
X147352380Y-135566666D02*
X146352380Y-135566666D01*
X146352380Y-135185714D01*
X146400000Y-135090476D01*
X146447619Y-135042857D01*
X146542857Y-134995238D01*
X146685714Y-134995238D01*
X146780952Y-135042857D01*
X146828571Y-135090476D01*
X146876190Y-135185714D01*
X146876190Y-135566666D01*
X146352380Y-134709523D02*
X147352380Y-134376190D01*
X146352380Y-134042857D01*
X146685714Y-133280952D02*
X147352380Y-133280952D01*
X146304761Y-133519047D02*
X147019047Y-133757142D01*
X147019047Y-133138095D01*
X130833333Y-138852380D02*
X130500000Y-138376190D01*
X130261904Y-138852380D02*
X130261904Y-137852380D01*
X130642857Y-137852380D01*
X130738095Y-137900000D01*
X130785714Y-137947619D01*
X130833333Y-138042857D01*
X130833333Y-138185714D01*
X130785714Y-138280952D01*
X130738095Y-138328571D01*
X130642857Y-138376190D01*
X130261904Y-138376190D01*
X131690476Y-138185714D02*
X131690476Y-138852380D01*
X131452380Y-137804761D02*
X131214285Y-138519047D01*
X131833333Y-138519047D01*
X144657142Y-111252380D02*
X144323809Y-110776190D01*
X144085714Y-111252380D02*
X144085714Y-110252380D01*
X144466666Y-110252380D01*
X144561904Y-110300000D01*
X144609523Y-110347619D01*
X144657142Y-110442857D01*
X144657142Y-110585714D01*
X144609523Y-110680952D01*
X144561904Y-110728571D01*
X144466666Y-110776190D01*
X144085714Y-110776190D01*
X144990476Y-110252380D02*
X145609523Y-110252380D01*
X145276190Y-110633333D01*
X145419047Y-110633333D01*
X145514285Y-110680952D01*
X145561904Y-110728571D01*
X145609523Y-110823809D01*
X145609523Y-111061904D01*
X145561904Y-111157142D01*
X145514285Y-111204761D01*
X145419047Y-111252380D01*
X145133333Y-111252380D01*
X145038095Y-111204761D01*
X144990476Y-111157142D01*
X145990476Y-110347619D02*
X146038095Y-110300000D01*
X146133333Y-110252380D01*
X146371428Y-110252380D01*
X146466666Y-110300000D01*
X146514285Y-110347619D01*
X146561904Y-110442857D01*
X146561904Y-110538095D01*
X146514285Y-110680952D01*
X145942857Y-111252380D01*
X146561904Y-111252380D01*
X127452380Y-45346857D02*
X126976190Y-45680190D01*
X127452380Y-45918285D02*
X126452380Y-45918285D01*
X126452380Y-45537333D01*
X126500000Y-45442095D01*
X126547619Y-45394476D01*
X126642857Y-45346857D01*
X126785714Y-45346857D01*
X126880952Y-45394476D01*
X126928571Y-45442095D01*
X126976190Y-45537333D01*
X126976190Y-45918285D01*
X126785714Y-44489714D02*
X127452380Y-44489714D01*
X126404761Y-44727809D02*
X127119047Y-44965904D01*
X127119047Y-44346857D01*
X126547619Y-44013523D02*
X126500000Y-43965904D01*
X126452380Y-43870666D01*
X126452380Y-43632571D01*
X126500000Y-43537333D01*
X126547619Y-43489714D01*
X126642857Y-43442095D01*
X126738095Y-43442095D01*
X126880952Y-43489714D01*
X127452380Y-44061142D01*
X127452380Y-43442095D01*
X162852380Y-112838095D02*
X161852380Y-112838095D01*
X161852380Y-112600000D01*
X161900000Y-112457142D01*
X161995238Y-112361904D01*
X162090476Y-112314285D01*
X162280952Y-112266666D01*
X162423809Y-112266666D01*
X162614285Y-112314285D01*
X162709523Y-112361904D01*
X162804761Y-112457142D01*
X162852380Y-112600000D01*
X162852380Y-112838095D01*
X162852380Y-111790476D02*
X162852380Y-111600000D01*
X162804761Y-111504761D01*
X162757142Y-111457142D01*
X162614285Y-111361904D01*
X162423809Y-111314285D01*
X162042857Y-111314285D01*
X161947619Y-111361904D01*
X161900000Y-111409523D01*
X161852380Y-111504761D01*
X161852380Y-111695238D01*
X161900000Y-111790476D01*
X161947619Y-111838095D01*
X162042857Y-111885714D01*
X162280952Y-111885714D01*
X162376190Y-111838095D01*
X162423809Y-111790476D01*
X162471428Y-111695238D01*
X162471428Y-111504761D01*
X162423809Y-111409523D01*
X162376190Y-111361904D01*
X162280952Y-111314285D01*
X167657142Y-119342857D02*
X167704761Y-119390476D01*
X167752380Y-119533333D01*
X167752380Y-119628571D01*
X167704761Y-119771428D01*
X167609523Y-119866666D01*
X167514285Y-119914285D01*
X167323809Y-119961904D01*
X167180952Y-119961904D01*
X166990476Y-119914285D01*
X166895238Y-119866666D01*
X166800000Y-119771428D01*
X166752380Y-119628571D01*
X166752380Y-119533333D01*
X166800000Y-119390476D01*
X166847619Y-119342857D01*
X166847619Y-118961904D02*
X166800000Y-118914285D01*
X166752380Y-118819047D01*
X166752380Y-118580952D01*
X166800000Y-118485714D01*
X166847619Y-118438095D01*
X166942857Y-118390476D01*
X167038095Y-118390476D01*
X167180952Y-118438095D01*
X167752380Y-119009523D01*
X167752380Y-118390476D01*
X167180952Y-117819047D02*
X167133333Y-117914285D01*
X167085714Y-117961904D01*
X166990476Y-118009523D01*
X166942857Y-118009523D01*
X166847619Y-117961904D01*
X166800000Y-117914285D01*
X166752380Y-117819047D01*
X166752380Y-117628571D01*
X166800000Y-117533333D01*
X166847619Y-117485714D01*
X166942857Y-117438095D01*
X166990476Y-117438095D01*
X167085714Y-117485714D01*
X167133333Y-117533333D01*
X167180952Y-117628571D01*
X167180952Y-117819047D01*
X167228571Y-117914285D01*
X167276190Y-117961904D01*
X167371428Y-118009523D01*
X167561904Y-118009523D01*
X167657142Y-117961904D01*
X167704761Y-117914285D01*
X167752380Y-117819047D01*
X167752380Y-117628571D01*
X167704761Y-117533333D01*
X167657142Y-117485714D01*
X167561904Y-117438095D01*
X167371428Y-117438095D01*
X167276190Y-117485714D01*
X167228571Y-117533333D01*
X167180952Y-117628571D01*
X137252380Y-105738095D02*
X136252380Y-105738095D01*
X136252380Y-105500000D01*
X136300000Y-105357142D01*
X136395238Y-105261904D01*
X136490476Y-105214285D01*
X136680952Y-105166666D01*
X136823809Y-105166666D01*
X137014285Y-105214285D01*
X137109523Y-105261904D01*
X137204761Y-105357142D01*
X137252380Y-105500000D01*
X137252380Y-105738095D01*
X137252380Y-104214285D02*
X137252380Y-104785714D01*
X137252380Y-104500000D02*
X136252380Y-104500000D01*
X136395238Y-104595238D01*
X136490476Y-104690476D01*
X136538095Y-104785714D01*
X163952380Y-66366666D02*
X163476190Y-66700000D01*
X163952380Y-66938095D02*
X162952380Y-66938095D01*
X162952380Y-66557142D01*
X163000000Y-66461904D01*
X163047619Y-66414285D01*
X163142857Y-66366666D01*
X163285714Y-66366666D01*
X163380952Y-66414285D01*
X163428571Y-66461904D01*
X163476190Y-66557142D01*
X163476190Y-66938095D01*
X163047619Y-65985714D02*
X163000000Y-65938095D01*
X162952380Y-65842857D01*
X162952380Y-65604761D01*
X163000000Y-65509523D01*
X163047619Y-65461904D01*
X163142857Y-65414285D01*
X163238095Y-65414285D01*
X163380952Y-65461904D01*
X163952380Y-66033333D01*
X163952380Y-65414285D01*
X163052380Y-121642857D02*
X162576190Y-121976190D01*
X163052380Y-122214285D02*
X162052380Y-122214285D01*
X162052380Y-121833333D01*
X162100000Y-121738095D01*
X162147619Y-121690476D01*
X162242857Y-121642857D01*
X162385714Y-121642857D01*
X162480952Y-121690476D01*
X162528571Y-121738095D01*
X162576190Y-121833333D01*
X162576190Y-122214285D01*
X162052380Y-120738095D02*
X162052380Y-121214285D01*
X162528571Y-121261904D01*
X162480952Y-121214285D01*
X162433333Y-121119047D01*
X162433333Y-120880952D01*
X162480952Y-120785714D01*
X162528571Y-120738095D01*
X162623809Y-120690476D01*
X162861904Y-120690476D01*
X162957142Y-120738095D01*
X163004761Y-120785714D01*
X163052380Y-120880952D01*
X163052380Y-121119047D01*
X163004761Y-121214285D01*
X162957142Y-121261904D01*
X162052380Y-120071428D02*
X162052380Y-119976190D01*
X162100000Y-119880952D01*
X162147619Y-119833333D01*
X162242857Y-119785714D01*
X162433333Y-119738095D01*
X162671428Y-119738095D01*
X162861904Y-119785714D01*
X162957142Y-119833333D01*
X163004761Y-119880952D01*
X163052380Y-119976190D01*
X163052380Y-120071428D01*
X163004761Y-120166666D01*
X162957142Y-120214285D01*
X162861904Y-120261904D01*
X162671428Y-120309523D01*
X162433333Y-120309523D01*
X162242857Y-120261904D01*
X162147619Y-120214285D01*
X162100000Y-120166666D01*
X162052380Y-120071428D01*
X141657142Y-111252380D02*
X141323809Y-110776190D01*
X141085714Y-111252380D02*
X141085714Y-110252380D01*
X141466666Y-110252380D01*
X141561904Y-110300000D01*
X141609523Y-110347619D01*
X141657142Y-110442857D01*
X141657142Y-110585714D01*
X141609523Y-110680952D01*
X141561904Y-110728571D01*
X141466666Y-110776190D01*
X141085714Y-110776190D01*
X141990476Y-110252380D02*
X142609523Y-110252380D01*
X142276190Y-110633333D01*
X142419047Y-110633333D01*
X142514285Y-110680952D01*
X142561904Y-110728571D01*
X142609523Y-110823809D01*
X142609523Y-111061904D01*
X142561904Y-111157142D01*
X142514285Y-111204761D01*
X142419047Y-111252380D01*
X142133333Y-111252380D01*
X142038095Y-111204761D01*
X141990476Y-111157142D01*
X143514285Y-110252380D02*
X143038095Y-110252380D01*
X142990476Y-110728571D01*
X143038095Y-110680952D01*
X143133333Y-110633333D01*
X143371428Y-110633333D01*
X143466666Y-110680952D01*
X143514285Y-110728571D01*
X143561904Y-110823809D01*
X143561904Y-111061904D01*
X143514285Y-111157142D01*
X143466666Y-111204761D01*
X143371428Y-111252380D01*
X143133333Y-111252380D01*
X143038095Y-111204761D01*
X142990476Y-111157142D01*
X172752380Y-48648857D02*
X172276190Y-48982190D01*
X172752380Y-49220285D02*
X171752380Y-49220285D01*
X171752380Y-48839333D01*
X171800000Y-48744095D01*
X171847619Y-48696476D01*
X171942857Y-48648857D01*
X172085714Y-48648857D01*
X172180952Y-48696476D01*
X172228571Y-48744095D01*
X172276190Y-48839333D01*
X172276190Y-49220285D01*
X172085714Y-47791714D02*
X172752380Y-47791714D01*
X171704761Y-48029809D02*
X172419047Y-48267904D01*
X172419047Y-47648857D01*
X171752380Y-47363142D02*
X171752380Y-46696476D01*
X172752380Y-47125047D01*
X163952380Y-69466666D02*
X163476190Y-69800000D01*
X163952380Y-70038095D02*
X162952380Y-70038095D01*
X162952380Y-69657142D01*
X163000000Y-69561904D01*
X163047619Y-69514285D01*
X163142857Y-69466666D01*
X163285714Y-69466666D01*
X163380952Y-69514285D01*
X163428571Y-69561904D01*
X163476190Y-69657142D01*
X163476190Y-70038095D01*
X162952380Y-68561904D02*
X162952380Y-69038095D01*
X163428571Y-69085714D01*
X163380952Y-69038095D01*
X163333333Y-68942857D01*
X163333333Y-68704761D01*
X163380952Y-68609523D01*
X163428571Y-68561904D01*
X163523809Y-68514285D01*
X163761904Y-68514285D01*
X163857142Y-68561904D01*
X163904761Y-68609523D01*
X163952380Y-68704761D01*
X163952380Y-68942857D01*
X163904761Y-69038095D01*
X163857142Y-69085714D01*
X127757142Y-79242857D02*
X127804761Y-79290476D01*
X127852380Y-79433333D01*
X127852380Y-79528571D01*
X127804761Y-79671428D01*
X127709523Y-79766666D01*
X127614285Y-79814285D01*
X127423809Y-79861904D01*
X127280952Y-79861904D01*
X127090476Y-79814285D01*
X126995238Y-79766666D01*
X126900000Y-79671428D01*
X126852380Y-79528571D01*
X126852380Y-79433333D01*
X126900000Y-79290476D01*
X126947619Y-79242857D01*
X127852380Y-78290476D02*
X127852380Y-78861904D01*
X127852380Y-78576190D02*
X126852380Y-78576190D01*
X126995238Y-78671428D01*
X127090476Y-78766666D01*
X127138095Y-78861904D01*
X127185714Y-77433333D02*
X127852380Y-77433333D01*
X126804761Y-77671428D02*
X127519047Y-77909523D01*
X127519047Y-77290476D01*
X124752380Y-48242857D02*
X124276190Y-48576190D01*
X124752380Y-48814285D02*
X123752380Y-48814285D01*
X123752380Y-48433333D01*
X123800000Y-48338095D01*
X123847619Y-48290476D01*
X123942857Y-48242857D01*
X124085714Y-48242857D01*
X124180952Y-48290476D01*
X124228571Y-48338095D01*
X124276190Y-48433333D01*
X124276190Y-48814285D01*
X124085714Y-47385714D02*
X124752380Y-47385714D01*
X123704761Y-47623809D02*
X124419047Y-47861904D01*
X124419047Y-47242857D01*
X124752380Y-46338095D02*
X124752380Y-46909523D01*
X124752380Y-46623809D02*
X123752380Y-46623809D01*
X123895238Y-46719047D01*
X123990476Y-46814285D01*
X124038095Y-46909523D01*
X124057142Y-111766666D02*
X124104761Y-111814285D01*
X124152380Y-111957142D01*
X124152380Y-112052380D01*
X124104761Y-112195238D01*
X124009523Y-112290476D01*
X123914285Y-112338095D01*
X123723809Y-112385714D01*
X123580952Y-112385714D01*
X123390476Y-112338095D01*
X123295238Y-112290476D01*
X123200000Y-112195238D01*
X123152380Y-112052380D01*
X123152380Y-111957142D01*
X123200000Y-111814285D01*
X123247619Y-111766666D01*
X124152380Y-110814285D02*
X124152380Y-111385714D01*
X124152380Y-111100000D02*
X123152380Y-111100000D01*
X123295238Y-111195238D01*
X123390476Y-111290476D01*
X123438095Y-111385714D01*
X129752380Y-79842857D02*
X129276190Y-80176190D01*
X129752380Y-80414285D02*
X128752380Y-80414285D01*
X128752380Y-80033333D01*
X128800000Y-79938095D01*
X128847619Y-79890476D01*
X128942857Y-79842857D01*
X129085714Y-79842857D01*
X129180952Y-79890476D01*
X129228571Y-79938095D01*
X129276190Y-80033333D01*
X129276190Y-80414285D01*
X129752380Y-78890476D02*
X129752380Y-79461904D01*
X129752380Y-79176190D02*
X128752380Y-79176190D01*
X128895238Y-79271428D01*
X128990476Y-79366666D01*
X129038095Y-79461904D01*
X129085714Y-78033333D02*
X129752380Y-78033333D01*
X128704761Y-78271428D02*
X129419047Y-78509523D01*
X129419047Y-77890476D01*
X133252380Y-121338095D02*
X132252380Y-121338095D01*
X132252380Y-121100000D01*
X132300000Y-120957142D01*
X132395238Y-120861904D01*
X132490476Y-120814285D01*
X132680952Y-120766666D01*
X132823809Y-120766666D01*
X133014285Y-120814285D01*
X133109523Y-120861904D01*
X133204761Y-120957142D01*
X133252380Y-121100000D01*
X133252380Y-121338095D01*
X132347619Y-120385714D02*
X132300000Y-120338095D01*
X132252380Y-120242857D01*
X132252380Y-120004761D01*
X132300000Y-119909523D01*
X132347619Y-119861904D01*
X132442857Y-119814285D01*
X132538095Y-119814285D01*
X132680952Y-119861904D01*
X133252380Y-120433333D01*
X133252380Y-119814285D01*
X148152380Y-105638095D02*
X147152380Y-105638095D01*
X147152380Y-105400000D01*
X147200000Y-105257142D01*
X147295238Y-105161904D01*
X147390476Y-105114285D01*
X147580952Y-105066666D01*
X147723809Y-105066666D01*
X147914285Y-105114285D01*
X148009523Y-105161904D01*
X148104761Y-105257142D01*
X148152380Y-105400000D01*
X148152380Y-105638095D01*
X147485714Y-104209523D02*
X148152380Y-104209523D01*
X147104761Y-104447619D02*
X147819047Y-104685714D01*
X147819047Y-104066666D01*
X133933333Y-137657142D02*
X133885714Y-137704761D01*
X133742857Y-137752380D01*
X133647619Y-137752380D01*
X133504761Y-137704761D01*
X133409523Y-137609523D01*
X133361904Y-137514285D01*
X133314285Y-137323809D01*
X133314285Y-137180952D01*
X133361904Y-136990476D01*
X133409523Y-136895238D01*
X133504761Y-136800000D01*
X133647619Y-136752380D01*
X133742857Y-136752380D01*
X133885714Y-136800000D01*
X133933333Y-136847619D01*
X134790476Y-137085714D02*
X134790476Y-137752380D01*
X134552380Y-136704761D02*
X134314285Y-137419047D01*
X134933333Y-137419047D01*
X149457142Y-96042857D02*
X149504761Y-96090476D01*
X149552380Y-96233333D01*
X149552380Y-96328571D01*
X149504761Y-96471428D01*
X149409523Y-96566666D01*
X149314285Y-96614285D01*
X149123809Y-96661904D01*
X148980952Y-96661904D01*
X148790476Y-96614285D01*
X148695238Y-96566666D01*
X148600000Y-96471428D01*
X148552380Y-96328571D01*
X148552380Y-96233333D01*
X148600000Y-96090476D01*
X148647619Y-96042857D01*
X148647619Y-95661904D02*
X148600000Y-95614285D01*
X148552380Y-95519047D01*
X148552380Y-95280952D01*
X148600000Y-95185714D01*
X148647619Y-95138095D01*
X148742857Y-95090476D01*
X148838095Y-95090476D01*
X148980952Y-95138095D01*
X149552380Y-95709523D01*
X149552380Y-95090476D01*
X149552380Y-94138095D02*
X149552380Y-94709523D01*
X149552380Y-94423809D02*
X148552380Y-94423809D01*
X148695238Y-94519047D01*
X148790476Y-94614285D01*
X148838095Y-94709523D01*
X154157142Y-106852380D02*
X153823809Y-106376190D01*
X153585714Y-106852380D02*
X153585714Y-105852380D01*
X153966666Y-105852380D01*
X154061904Y-105900000D01*
X154109523Y-105947619D01*
X154157142Y-106042857D01*
X154157142Y-106185714D01*
X154109523Y-106280952D01*
X154061904Y-106328571D01*
X153966666Y-106376190D01*
X153585714Y-106376190D01*
X155109523Y-106852380D02*
X154538095Y-106852380D01*
X154823809Y-106852380D02*
X154823809Y-105852380D01*
X154728571Y-105995238D01*
X154633333Y-106090476D01*
X154538095Y-106138095D01*
X156061904Y-106852380D02*
X155490476Y-106852380D01*
X155776190Y-106852380D02*
X155776190Y-105852380D01*
X155680952Y-105995238D01*
X155585714Y-106090476D01*
X155490476Y-106138095D01*
X127358380Y-124675857D02*
X126882190Y-125009190D01*
X127358380Y-125247285D02*
X126358380Y-125247285D01*
X126358380Y-124866333D01*
X126406000Y-124771095D01*
X126453619Y-124723476D01*
X126548857Y-124675857D01*
X126691714Y-124675857D01*
X126786952Y-124723476D01*
X126834571Y-124771095D01*
X126882190Y-124866333D01*
X126882190Y-125247285D01*
X126358380Y-124342523D02*
X126358380Y-123723476D01*
X126739333Y-124056809D01*
X126739333Y-123913952D01*
X126786952Y-123818714D01*
X126834571Y-123771095D01*
X126929809Y-123723476D01*
X127167904Y-123723476D01*
X127263142Y-123771095D01*
X127310761Y-123818714D01*
X127358380Y-123913952D01*
X127358380Y-124199666D01*
X127310761Y-124294904D01*
X127263142Y-124342523D01*
X127358380Y-122771095D02*
X127358380Y-123342523D01*
X127358380Y-123056809D02*
X126358380Y-123056809D01*
X126501238Y-123152047D01*
X126596476Y-123247285D01*
X126644095Y-123342523D01*
X146533333Y-140422380D02*
X146200000Y-139946190D01*
X145961904Y-140422380D02*
X145961904Y-139422380D01*
X146342857Y-139422380D01*
X146438095Y-139470000D01*
X146485714Y-139517619D01*
X146533333Y-139612857D01*
X146533333Y-139755714D01*
X146485714Y-139850952D01*
X146438095Y-139898571D01*
X146342857Y-139946190D01*
X145961904Y-139946190D01*
X147009523Y-140422380D02*
X147200000Y-140422380D01*
X147295238Y-140374761D01*
X147342857Y-140327142D01*
X147438095Y-140184285D01*
X147485714Y-139993809D01*
X147485714Y-139612857D01*
X147438095Y-139517619D01*
X147390476Y-139470000D01*
X147295238Y-139422380D01*
X147104761Y-139422380D01*
X147009523Y-139470000D01*
X146961904Y-139517619D01*
X146914285Y-139612857D01*
X146914285Y-139850952D01*
X146961904Y-139946190D01*
X147009523Y-139993809D01*
X147104761Y-140041428D01*
X147295238Y-140041428D01*
X147390476Y-139993809D01*
X147438095Y-139946190D01*
X147485714Y-139850952D01*
X139757142Y-108033142D02*
X139709523Y-108080761D01*
X139566666Y-108128380D01*
X139471428Y-108128380D01*
X139328571Y-108080761D01*
X139233333Y-107985523D01*
X139185714Y-107890285D01*
X139138095Y-107699809D01*
X139138095Y-107556952D01*
X139185714Y-107366476D01*
X139233333Y-107271238D01*
X139328571Y-107176000D01*
X139471428Y-107128380D01*
X139566666Y-107128380D01*
X139709523Y-107176000D01*
X139757142Y-107223619D01*
X140709523Y-108128380D02*
X140138095Y-108128380D01*
X140423809Y-108128380D02*
X140423809Y-107128380D01*
X140328571Y-107271238D01*
X140233333Y-107366476D01*
X140138095Y-107414095D01*
X141185714Y-108128380D02*
X141376190Y-108128380D01*
X141471428Y-108080761D01*
X141519047Y-108033142D01*
X141614285Y-107890285D01*
X141661904Y-107699809D01*
X141661904Y-107318857D01*
X141614285Y-107223619D01*
X141566666Y-107176000D01*
X141471428Y-107128380D01*
X141280952Y-107128380D01*
X141185714Y-107176000D01*
X141138095Y-107223619D01*
X141090476Y-107318857D01*
X141090476Y-107556952D01*
X141138095Y-107652190D01*
X141185714Y-107699809D01*
X141280952Y-107747428D01*
X141471428Y-107747428D01*
X141566666Y-107699809D01*
X141614285Y-107652190D01*
X141661904Y-107556952D01*
X125222380Y-137642857D02*
X124746190Y-137976190D01*
X125222380Y-138214285D02*
X124222380Y-138214285D01*
X124222380Y-137833333D01*
X124270000Y-137738095D01*
X124317619Y-137690476D01*
X124412857Y-137642857D01*
X124555714Y-137642857D01*
X124650952Y-137690476D01*
X124698571Y-137738095D01*
X124746190Y-137833333D01*
X124746190Y-138214285D01*
X125222380Y-136690476D02*
X125222380Y-137261904D01*
X125222380Y-136976190D02*
X124222380Y-136976190D01*
X124365238Y-137071428D01*
X124460476Y-137166666D01*
X124508095Y-137261904D01*
X124317619Y-136309523D02*
X124270000Y-136261904D01*
X124222380Y-136166666D01*
X124222380Y-135928571D01*
X124270000Y-135833333D01*
X124317619Y-135785714D01*
X124412857Y-135738095D01*
X124508095Y-135738095D01*
X124650952Y-135785714D01*
X125222380Y-136357142D01*
X125222380Y-135738095D01*
X132268142Y-125484380D02*
X131934809Y-125008190D01*
X131696714Y-125484380D02*
X131696714Y-124484380D01*
X132077666Y-124484380D01*
X132172904Y-124532000D01*
X132220523Y-124579619D01*
X132268142Y-124674857D01*
X132268142Y-124817714D01*
X132220523Y-124912952D01*
X132172904Y-124960571D01*
X132077666Y-125008190D01*
X131696714Y-125008190D01*
X132601476Y-124484380D02*
X133220523Y-124484380D01*
X132887190Y-124865333D01*
X133030047Y-124865333D01*
X133125285Y-124912952D01*
X133172904Y-124960571D01*
X133220523Y-125055809D01*
X133220523Y-125293904D01*
X133172904Y-125389142D01*
X133125285Y-125436761D01*
X133030047Y-125484380D01*
X132744333Y-125484380D01*
X132649095Y-125436761D01*
X132601476Y-125389142D01*
X133839571Y-124484380D02*
X133934809Y-124484380D01*
X134030047Y-124532000D01*
X134077666Y-124579619D01*
X134125285Y-124674857D01*
X134172904Y-124865333D01*
X134172904Y-125103428D01*
X134125285Y-125293904D01*
X134077666Y-125389142D01*
X134030047Y-125436761D01*
X133934809Y-125484380D01*
X133839571Y-125484380D01*
X133744333Y-125436761D01*
X133696714Y-125389142D01*
X133649095Y-125293904D01*
X133601476Y-125103428D01*
X133601476Y-124865333D01*
X133649095Y-124674857D01*
X133696714Y-124579619D01*
X133744333Y-124532000D01*
X133839571Y-124484380D01*
X168186380Y-48648857D02*
X167710190Y-48982190D01*
X168186380Y-49220285D02*
X167186380Y-49220285D01*
X167186380Y-48839333D01*
X167234000Y-48744095D01*
X167281619Y-48696476D01*
X167376857Y-48648857D01*
X167519714Y-48648857D01*
X167614952Y-48696476D01*
X167662571Y-48744095D01*
X167710190Y-48839333D01*
X167710190Y-49220285D01*
X167519714Y-47791714D02*
X168186380Y-47791714D01*
X167138761Y-48029809D02*
X167853047Y-48267904D01*
X167853047Y-47648857D01*
X167186380Y-46839333D02*
X167186380Y-47029809D01*
X167234000Y-47125047D01*
X167281619Y-47172666D01*
X167424476Y-47267904D01*
X167614952Y-47315523D01*
X167995904Y-47315523D01*
X168091142Y-47267904D01*
X168138761Y-47220285D01*
X168186380Y-47125047D01*
X168186380Y-46934571D01*
X168138761Y-46839333D01*
X168091142Y-46791714D01*
X167995904Y-46744095D01*
X167757809Y-46744095D01*
X167662571Y-46791714D01*
X167614952Y-46839333D01*
X167567333Y-46934571D01*
X167567333Y-47125047D01*
X167614952Y-47220285D01*
X167662571Y-47267904D01*
X167757809Y-47315523D01*
X171952380Y-109591666D02*
X171476190Y-109925000D01*
X171952380Y-110163095D02*
X170952380Y-110163095D01*
X170952380Y-109782142D01*
X171000000Y-109686904D01*
X171047619Y-109639285D01*
X171142857Y-109591666D01*
X171285714Y-109591666D01*
X171380952Y-109639285D01*
X171428571Y-109686904D01*
X171476190Y-109782142D01*
X171476190Y-110163095D01*
X170952380Y-109258333D02*
X170952380Y-108639285D01*
X171333333Y-108972619D01*
X171333333Y-108829761D01*
X171380952Y-108734523D01*
X171428571Y-108686904D01*
X171523809Y-108639285D01*
X171761904Y-108639285D01*
X171857142Y-108686904D01*
X171904761Y-108734523D01*
X171952380Y-108829761D01*
X171952380Y-109115476D01*
X171904761Y-109210714D01*
X171857142Y-109258333D01*
X162457142Y-124642857D02*
X162504761Y-124690476D01*
X162552380Y-124833333D01*
X162552380Y-124928571D01*
X162504761Y-125071428D01*
X162409523Y-125166666D01*
X162314285Y-125214285D01*
X162123809Y-125261904D01*
X161980952Y-125261904D01*
X161790476Y-125214285D01*
X161695238Y-125166666D01*
X161600000Y-125071428D01*
X161552380Y-124928571D01*
X161552380Y-124833333D01*
X161600000Y-124690476D01*
X161647619Y-124642857D01*
X161552380Y-124309523D02*
X161552380Y-123690476D01*
X161933333Y-124023809D01*
X161933333Y-123880952D01*
X161980952Y-123785714D01*
X162028571Y-123738095D01*
X162123809Y-123690476D01*
X162361904Y-123690476D01*
X162457142Y-123738095D01*
X162504761Y-123785714D01*
X162552380Y-123880952D01*
X162552380Y-124166666D01*
X162504761Y-124261904D01*
X162457142Y-124309523D01*
X161552380Y-123071428D02*
X161552380Y-122976190D01*
X161600000Y-122880952D01*
X161647619Y-122833333D01*
X161742857Y-122785714D01*
X161933333Y-122738095D01*
X162171428Y-122738095D01*
X162361904Y-122785714D01*
X162457142Y-122833333D01*
X162504761Y-122880952D01*
X162552380Y-122976190D01*
X162552380Y-123071428D01*
X162504761Y-123166666D01*
X162457142Y-123214285D01*
X162361904Y-123261904D01*
X162171428Y-123309523D01*
X161933333Y-123309523D01*
X161742857Y-123261904D01*
X161647619Y-123214285D01*
X161600000Y-123166666D01*
X161552380Y-123071428D01*
X138552380Y-129642857D02*
X138076190Y-129976190D01*
X138552380Y-130214285D02*
X137552380Y-130214285D01*
X137552380Y-129833333D01*
X137600000Y-129738095D01*
X137647619Y-129690476D01*
X137742857Y-129642857D01*
X137885714Y-129642857D01*
X137980952Y-129690476D01*
X138028571Y-129738095D01*
X138076190Y-129833333D01*
X138076190Y-130214285D01*
X137647619Y-129261904D02*
X137600000Y-129214285D01*
X137552380Y-129119047D01*
X137552380Y-128880952D01*
X137600000Y-128785714D01*
X137647619Y-128738095D01*
X137742857Y-128690476D01*
X137838095Y-128690476D01*
X137980952Y-128738095D01*
X138552380Y-129309523D01*
X138552380Y-128690476D01*
X137552380Y-127833333D02*
X137552380Y-128023809D01*
X137600000Y-128119047D01*
X137647619Y-128166666D01*
X137790476Y-128261904D01*
X137980952Y-128309523D01*
X138361904Y-128309523D01*
X138457142Y-128261904D01*
X138504761Y-128214285D01*
X138552380Y-128119047D01*
X138552380Y-127928571D01*
X138504761Y-127833333D01*
X138457142Y-127785714D01*
X138361904Y-127738095D01*
X138123809Y-127738095D01*
X138028571Y-127785714D01*
X137980952Y-127833333D01*
X137933333Y-127928571D01*
X137933333Y-128119047D01*
X137980952Y-128214285D01*
X138028571Y-128261904D01*
X138123809Y-128309523D01*
X126852380Y-88479857D02*
X126376190Y-88813190D01*
X126852380Y-89051285D02*
X125852380Y-89051285D01*
X125852380Y-88670333D01*
X125900000Y-88575095D01*
X125947619Y-88527476D01*
X126042857Y-88479857D01*
X126185714Y-88479857D01*
X126280952Y-88527476D01*
X126328571Y-88575095D01*
X126376190Y-88670333D01*
X126376190Y-89051285D01*
X126852380Y-87527476D02*
X126852380Y-88098904D01*
X126852380Y-87813190D02*
X125852380Y-87813190D01*
X125995238Y-87908428D01*
X126090476Y-88003666D01*
X126138095Y-88098904D01*
X126280952Y-86956047D02*
X126233333Y-87051285D01*
X126185714Y-87098904D01*
X126090476Y-87146523D01*
X126042857Y-87146523D01*
X125947619Y-87098904D01*
X125900000Y-87051285D01*
X125852380Y-86956047D01*
X125852380Y-86765571D01*
X125900000Y-86670333D01*
X125947619Y-86622714D01*
X126042857Y-86575095D01*
X126090476Y-86575095D01*
X126185714Y-86622714D01*
X126233333Y-86670333D01*
X126280952Y-86765571D01*
X126280952Y-86956047D01*
X126328571Y-87051285D01*
X126376190Y-87098904D01*
X126471428Y-87146523D01*
X126661904Y-87146523D01*
X126757142Y-87098904D01*
X126804761Y-87051285D01*
X126852380Y-86956047D01*
X126852380Y-86765571D01*
X126804761Y-86670333D01*
X126757142Y-86622714D01*
X126661904Y-86575095D01*
X126471428Y-86575095D01*
X126376190Y-86622714D01*
X126328571Y-86670333D01*
X126280952Y-86765571D01*
X141968142Y-123239380D02*
X141634809Y-122763190D01*
X141396714Y-123239380D02*
X141396714Y-122239380D01*
X141777666Y-122239380D01*
X141872904Y-122287000D01*
X141920523Y-122334619D01*
X141968142Y-122429857D01*
X141968142Y-122572714D01*
X141920523Y-122667952D01*
X141872904Y-122715571D01*
X141777666Y-122763190D01*
X141396714Y-122763190D01*
X142349095Y-122334619D02*
X142396714Y-122287000D01*
X142491952Y-122239380D01*
X142730047Y-122239380D01*
X142825285Y-122287000D01*
X142872904Y-122334619D01*
X142920523Y-122429857D01*
X142920523Y-122525095D01*
X142872904Y-122667952D01*
X142301476Y-123239380D01*
X142920523Y-123239380D01*
X143253857Y-122239380D02*
X143872904Y-122239380D01*
X143539571Y-122620333D01*
X143682428Y-122620333D01*
X143777666Y-122667952D01*
X143825285Y-122715571D01*
X143872904Y-122810809D01*
X143872904Y-123048904D01*
X143825285Y-123144142D01*
X143777666Y-123191761D01*
X143682428Y-123239380D01*
X143396714Y-123239380D01*
X143301476Y-123191761D01*
X143253857Y-123144142D01*
D12*
X141110000Y-94940580D02*
X141110000Y-94659420D01*
X140090000Y-94940580D02*
X140090000Y-94659420D01*
X144860000Y-116600000D02*
X144860000Y-118550000D01*
X144860000Y-116600000D02*
X144860000Y-114650000D01*
X139740000Y-116600000D02*
X139740000Y-120050000D01*
X139740000Y-116600000D02*
X139740000Y-114650000D01*
X126899500Y-91174258D02*
X126899500Y-90699742D01*
X127944500Y-91174258D02*
X127944500Y-90699742D01*
X129040580Y-121210000D02*
X128759420Y-121210000D01*
X129040580Y-120190000D02*
X128759420Y-120190000D01*
X141240580Y-108690000D02*
X140959420Y-108690000D01*
X141240580Y-109710000D02*
X140959420Y-109710000D01*
X162090000Y-107459420D02*
X162090000Y-107740580D01*
X163110000Y-107459420D02*
X163110000Y-107740580D01*
X139062742Y-112622500D02*
X139537258Y-112622500D01*
X139062742Y-111577500D02*
X139537258Y-111577500D01*
X166840580Y-107410000D02*
X166559420Y-107410000D01*
X166840580Y-106390000D02*
X166559420Y-106390000D01*
X165477500Y-104237742D02*
X165477500Y-104712258D01*
X166522500Y-104237742D02*
X166522500Y-104712258D01*
X159765000Y-107338748D02*
X159765000Y-107861252D01*
X161235000Y-107338748D02*
X161235000Y-107861252D01*
X153040258Y-101649500D02*
X152565742Y-101649500D01*
X153040258Y-102694500D02*
X152565742Y-102694500D01*
X168290000Y-121679580D02*
X168290000Y-121398420D01*
X169310000Y-121679580D02*
X169310000Y-121398420D01*
X142159420Y-126910000D02*
X142440580Y-126910000D01*
X142159420Y-125890000D02*
X142440580Y-125890000D01*
X143610000Y-74190000D02*
X143610000Y-58690000D01*
X151420000Y-59990000D02*
X151420000Y-72890000D01*
X143610000Y-58690000D02*
X152730000Y-58690000D01*
X144920000Y-72890000D02*
X144920000Y-68490000D01*
X142220000Y-64400000D02*
X143220000Y-63900000D01*
X143610000Y-64390000D02*
X144920000Y-64390000D01*
X152730000Y-74190000D02*
X143610000Y-74190000D01*
X144920000Y-59990000D02*
X151420000Y-59990000D01*
X144920000Y-68490000D02*
X143610000Y-68490000D01*
X143220000Y-63900000D02*
X142220000Y-63400000D01*
X144920000Y-68490000D02*
X144920000Y-68490000D01*
X151420000Y-72890000D02*
X144920000Y-72890000D01*
X144920000Y-64390000D02*
X144920000Y-59990000D01*
X142220000Y-63400000D02*
X142220000Y-64400000D01*
X152730000Y-58690000D02*
X152730000Y-74190000D01*
X126361118Y-47989258D02*
X126361118Y-47514742D01*
X125316118Y-47989258D02*
X125316118Y-47514742D01*
X127718258Y-112050500D02*
X127243742Y-112050500D01*
X127718258Y-111005500D02*
X127243742Y-111005500D01*
X156760000Y-97600000D02*
X156760000Y-95650000D01*
X156760000Y-97600000D02*
X156760000Y-99550000D01*
X151640000Y-97600000D02*
X151640000Y-95650000D01*
X151640000Y-97600000D02*
X151640000Y-101050000D01*
X152563500Y-104347742D02*
X152563500Y-104822258D01*
X151518500Y-104347742D02*
X151518500Y-104822258D01*
X129800742Y-89559500D02*
X130275258Y-89559500D01*
X129800742Y-88514500D02*
X130275258Y-88514500D01*
X124540000Y-116100000D02*
X124540000Y-114150000D01*
X129660000Y-116100000D02*
X129660000Y-114150000D01*
X124540000Y-116100000D02*
X124540000Y-119550000D01*
X129660000Y-116100000D02*
X129660000Y-118050000D01*
X166860000Y-117600000D02*
X166860000Y-116950000D01*
X163740000Y-117600000D02*
X163740000Y-116950000D01*
X166860000Y-117600000D02*
X166860000Y-118250000D01*
X163740000Y-117600000D02*
X163740000Y-119275000D01*
X130422500Y-110487742D02*
X130422500Y-110962258D01*
X129377500Y-110487742D02*
X129377500Y-110962258D01*
X158310000Y-95540580D02*
X158310000Y-95259420D01*
X157290000Y-95540580D02*
X157290000Y-95259420D01*
X133550000Y-122000000D02*
X137450000Y-122000000D01*
X133550000Y-122000000D02*
X133550000Y-124000000D01*
X133550000Y-124000000D02*
X137450000Y-124000000D01*
X141777500Y-100162742D02*
X141777500Y-100637258D01*
X142822500Y-100162742D02*
X142822500Y-100637258D01*
X137859420Y-114210000D02*
X138140580Y-114210000D01*
X137859420Y-113190000D02*
X138140580Y-113190000D01*
X171325000Y-45098580D02*
X171325000Y-44817420D01*
X170305000Y-45098580D02*
X170305000Y-44817420D01*
X128740258Y-136249500D02*
X128265742Y-136249500D01*
X128740258Y-137294500D02*
X128265742Y-137294500D01*
X128753500Y-91099742D02*
X128753500Y-91574258D01*
X129798500Y-91099742D02*
X129798500Y-91574258D01*
X129392000Y-122004000D02*
X130042000Y-122004000D01*
X129392000Y-122004000D02*
X128742000Y-122004000D01*
X129392000Y-125124000D02*
X128742000Y-125124000D01*
X129392000Y-125124000D02*
X131067000Y-125124000D01*
X130290000Y-78940580D02*
X130290000Y-78659420D01*
X131310000Y-78940580D02*
X131310000Y-78659420D01*
X127243742Y-110526500D02*
X127718258Y-110526500D01*
X127243742Y-109481500D02*
X127718258Y-109481500D01*
X129662742Y-125581500D02*
X130137258Y-125581500D01*
X129662742Y-126626500D02*
X130137258Y-126626500D01*
X125592742Y-121222500D02*
X126067258Y-121222500D01*
X125592742Y-120177500D02*
X126067258Y-120177500D01*
X130178580Y-86926000D02*
X129897420Y-86926000D01*
X130178580Y-87946000D02*
X129897420Y-87946000D01*
X159400000Y-130350000D02*
X161400000Y-130350000D01*
X159400000Y-130350000D02*
X159400000Y-126450000D01*
X161400000Y-130350000D02*
X161400000Y-126450000D01*
X130277500Y-81864742D02*
X130277500Y-82339258D01*
X131322500Y-81864742D02*
X131322500Y-82339258D01*
X170862742Y-141922500D02*
X171337258Y-141922500D01*
X170862742Y-140877500D02*
X171337258Y-140877500D01*
X126899500Y-84499742D02*
X126899500Y-84974258D01*
X127944500Y-84499742D02*
X127944500Y-84974258D01*
X154564258Y-92505500D02*
X154089742Y-92505500D01*
X154564258Y-93550500D02*
X154089742Y-93550500D01*
X154877500Y-104362742D02*
X154877500Y-104837258D01*
X155922500Y-104362742D02*
X155922500Y-104837258D01*
X137577500Y-135337258D02*
X137577500Y-134862742D01*
X138622500Y-135337258D02*
X138622500Y-134862742D01*
X159232500Y-125480000D02*
X160232500Y-125980000D01*
X158842500Y-122450000D02*
X157532500Y-122450000D01*
X157532500Y-118350000D02*
X157532500Y-118350000D01*
X160232500Y-124980000D02*
X159232500Y-125480000D01*
X160232500Y-125980000D02*
X160232500Y-124980000D01*
X158842500Y-130690000D02*
X149722500Y-130690000D01*
X151032500Y-129390000D02*
X151032500Y-111410000D01*
X157532500Y-118350000D02*
X158842500Y-118350000D01*
X149722500Y-110110000D02*
X158842500Y-110110000D01*
X158842500Y-110110000D02*
X158842500Y-130690000D01*
X157532500Y-111410000D02*
X157532500Y-118350000D01*
X149722500Y-130690000D02*
X149722500Y-110110000D01*
X157532500Y-129390000D02*
X151032500Y-129390000D01*
X157532500Y-122450000D02*
X157532500Y-129390000D01*
X151032500Y-111410000D02*
X157532500Y-111410000D01*
X140330000Y-128430000D02*
X140330000Y-129560000D01*
X145070000Y-128430000D02*
X145070000Y-128761000D01*
X140330000Y-132040000D02*
X140330000Y-133170000D01*
X145070000Y-130541000D02*
X145070000Y-131060000D01*
X145070000Y-128430000D02*
X140330000Y-128430000D01*
X145070000Y-133170000D02*
X140330000Y-133170000D01*
X145070000Y-132840000D02*
X145070000Y-133170000D01*
X163740000Y-111600000D02*
X163740000Y-109650000D01*
X168860000Y-111600000D02*
X168860000Y-108150000D01*
X168860000Y-111600000D02*
X168860000Y-113550000D01*
X163740000Y-111600000D02*
X163740000Y-113550000D01*
X130299500Y-91099742D02*
X130299500Y-91574258D01*
X131344500Y-91099742D02*
X131344500Y-91574258D01*
X126600000Y-126725420D02*
X126600000Y-127006580D01*
X125580000Y-126725420D02*
X125580000Y-127006580D01*
X132460000Y-132200000D02*
X132460000Y-134150000D01*
X132460000Y-132200000D02*
X132460000Y-130250000D01*
X127340000Y-132200000D02*
X127340000Y-130250000D01*
X127340000Y-132200000D02*
X127340000Y-135650000D01*
X146040580Y-120690000D02*
X145759420Y-120690000D01*
X146040580Y-121710000D02*
X145759420Y-121710000D01*
X134390000Y-90340580D02*
X134390000Y-90059420D01*
X135410000Y-90340580D02*
X135410000Y-90059420D01*
X131840000Y-97630000D02*
X132170000Y-97630000D01*
X129541000Y-97630000D02*
X130060000Y-97630000D01*
X127430000Y-102370000D02*
X128560000Y-102370000D01*
X132170000Y-97630000D02*
X132170000Y-102370000D01*
X131040000Y-102370000D02*
X132170000Y-102370000D01*
X127430000Y-97630000D02*
X127430000Y-102370000D01*
X127430000Y-97630000D02*
X127761000Y-97630000D01*
X166372000Y-45098580D02*
X166372000Y-44817420D01*
X165352000Y-45098580D02*
X165352000Y-44817420D01*
X169490000Y-112740580D02*
X169490000Y-112459420D01*
X170510000Y-112740580D02*
X170510000Y-112459420D01*
X171022500Y-121776258D02*
X171022500Y-121301742D01*
X169977500Y-121776258D02*
X169977500Y-121301742D01*
X130137258Y-128150500D02*
X129662742Y-128150500D01*
X130137258Y-127105500D02*
X129662742Y-127105500D01*
X143377500Y-95037258D02*
X143377500Y-94562742D01*
X144422500Y-95037258D02*
X144422500Y-94562742D01*
X166122500Y-121776258D02*
X166122500Y-121301742D01*
X165077500Y-121776258D02*
X165077500Y-121301742D01*
X171740580Y-126910000D02*
X171459420Y-126910000D01*
X171740580Y-125890000D02*
X171459420Y-125890000D01*
X141122500Y-100162742D02*
X141122500Y-100637258D01*
X140077500Y-100162742D02*
X140077500Y-100637258D01*
X143377500Y-100162742D02*
X143377500Y-100637258D01*
X144422500Y-100162742D02*
X144422500Y-100637258D01*
X129800742Y-85177500D02*
X130275258Y-85177500D01*
X129800742Y-86222500D02*
X130275258Y-86222500D01*
X164377500Y-62862742D02*
X164377500Y-63337258D01*
X165422500Y-62862742D02*
X165422500Y-63337258D01*
X145070000Y-138570000D02*
X140330000Y-138570000D01*
X145070000Y-133830000D02*
X140330000Y-133830000D01*
X145070000Y-138240000D02*
X145070000Y-138570000D01*
X145070000Y-133830000D02*
X145070000Y-134161000D01*
X140330000Y-137440000D02*
X140330000Y-138570000D01*
X140330000Y-133830000D02*
X140330000Y-134960000D01*
X145070000Y-135941000D02*
X145070000Y-136460000D01*
X128737258Y-137777500D02*
X128262742Y-137777500D01*
X128737258Y-138822500D02*
X128262742Y-138822500D01*
X145062742Y-112622500D02*
X145537258Y-112622500D01*
X145062742Y-111577500D02*
X145537258Y-111577500D01*
X125316118Y-44941258D02*
X125316118Y-44466742D01*
X126361118Y-44941258D02*
X126361118Y-44466742D01*
X159500000Y-109550000D02*
X159500000Y-113450000D01*
X161500000Y-109550000D02*
X161500000Y-113450000D01*
X161500000Y-109550000D02*
X159500000Y-109550000D01*
X166690000Y-121679580D02*
X166690000Y-121398420D01*
X167710000Y-121679580D02*
X167710000Y-121398420D01*
X139900000Y-106650000D02*
X141900000Y-106650000D01*
X141900000Y-106650000D02*
X141900000Y-102750000D01*
X139900000Y-106650000D02*
X139900000Y-102750000D01*
X165422500Y-65962742D02*
X165422500Y-66437258D01*
X164377500Y-65962742D02*
X164377500Y-66437258D01*
X163434500Y-121776258D02*
X163434500Y-121301742D01*
X164479500Y-121776258D02*
X164479500Y-121301742D01*
X142062742Y-111577500D02*
X142537258Y-111577500D01*
X142062742Y-112622500D02*
X142537258Y-112622500D01*
X170292500Y-48243258D02*
X170292500Y-47768742D01*
X171337500Y-48243258D02*
X171337500Y-47768742D01*
X164377500Y-69537258D02*
X164377500Y-69062742D01*
X165422500Y-69537258D02*
X165422500Y-69062742D01*
X127932000Y-81496420D02*
X127932000Y-81777580D01*
X126912000Y-81496420D02*
X126912000Y-81777580D01*
X123683500Y-44941258D02*
X123683500Y-44466742D01*
X124728500Y-44941258D02*
X124728500Y-44466742D01*
X125610000Y-110659420D02*
X125610000Y-110940580D01*
X124590000Y-110659420D02*
X124590000Y-110940580D01*
X128699500Y-81864742D02*
X128699500Y-82339258D01*
X129744500Y-81864742D02*
X129744500Y-82339258D01*
X138050000Y-121600000D02*
X134150000Y-121600000D01*
X138050000Y-121600000D02*
X138050000Y-119600000D01*
X138050000Y-119600000D02*
X134150000Y-119600000D01*
X144500000Y-106650000D02*
X144500000Y-102750000D01*
X142500000Y-106650000D02*
X142500000Y-102750000D01*
X142500000Y-106650000D02*
X144500000Y-106650000D01*
X131691580Y-136262000D02*
X131410420Y-136262000D01*
X131691580Y-137282000D02*
X131410420Y-137282000D01*
X150090000Y-95540580D02*
X150090000Y-95259420D01*
X151110000Y-95540580D02*
X151110000Y-95259420D01*
X153198500Y-104848258D02*
X153198500Y-104373742D01*
X154243500Y-104848258D02*
X154243500Y-104373742D01*
X127091500Y-126628742D02*
X127091500Y-127103258D01*
X128136500Y-126628742D02*
X128136500Y-127103258D01*
X146462742Y-141922500D02*
X146937258Y-141922500D01*
X146462742Y-140877500D02*
X146937258Y-140877500D01*
X143440580Y-107090000D02*
X143159420Y-107090000D01*
X143440580Y-108110000D02*
X143159420Y-108110000D01*
X125677500Y-137237258D02*
X125677500Y-136762742D01*
X126722500Y-137237258D02*
X126722500Y-136762742D01*
X135662742Y-125522500D02*
X136137258Y-125522500D01*
X135662742Y-124477500D02*
X136137258Y-124477500D01*
X168641500Y-48243258D02*
X168641500Y-47768742D01*
X169686500Y-48243258D02*
X169686500Y-47768742D01*
X169477500Y-109662258D02*
X169477500Y-109187742D01*
X170522500Y-109662258D02*
X170522500Y-109187742D01*
X161135000Y-124161252D02*
X161135000Y-123638748D01*
X159665000Y-124161252D02*
X159665000Y-123638748D01*
X137577500Y-131762742D02*
X137577500Y-132237258D01*
X138622500Y-131762742D02*
X138622500Y-132237258D01*
X126899500Y-87599742D02*
X126899500Y-88074258D01*
X127944500Y-87599742D02*
X127944500Y-88074258D01*
X142437742Y-120677500D02*
X142912258Y-120677500D01*
X142437742Y-121722500D02*
X142912258Y-121722500D01*
%LPC*%
D13*
X140600000Y-95575000D03*
X140600000Y-94025000D03*
D14*
X140395000Y-119075000D03*
X141665000Y-119075000D03*
X142935000Y-119075000D03*
X144205000Y-119075000D03*
X144205000Y-114125000D03*
X142935000Y-114125000D03*
X141665000Y-114125000D03*
X140395000Y-114125000D03*
D15*
X127422000Y-91762000D03*
X127422000Y-90112000D03*
D16*
X129675000Y-120700000D03*
X128125000Y-120700000D03*
X141875000Y-109200000D03*
X140325000Y-109200000D03*
D17*
X162600000Y-106825000D03*
X162600000Y-108375000D03*
D18*
X138475000Y-112100000D03*
X140125000Y-112100000D03*
D16*
X167475000Y-106900000D03*
X165925000Y-106900000D03*
D19*
X166000000Y-103650000D03*
X166000000Y-105300000D03*
D20*
X160500000Y-106650000D03*
X160500000Y-108550000D03*
D21*
X153628000Y-102172000D03*
X151978000Y-102172000D03*
D13*
X168800000Y-122314000D03*
X168800000Y-120764000D03*
D22*
X141525000Y-126400000D03*
X143075000Y-126400000D03*
D23*
X146900000Y-63900000D03*
D24*
X149440000Y-63900000D03*
X146900000Y-66440000D03*
X149440000Y-66440000D03*
X146900000Y-68980000D03*
X149440000Y-68980000D03*
D15*
X125838618Y-48577000D03*
X125838618Y-46927000D03*
D21*
X128306000Y-111528000D03*
X126656000Y-111528000D03*
D14*
X152295000Y-100075000D03*
X153565000Y-100075000D03*
X154835000Y-100075000D03*
X156105000Y-100075000D03*
X156105000Y-95125000D03*
X154835000Y-95125000D03*
X153565000Y-95125000D03*
X152295000Y-95125000D03*
D19*
X152041000Y-103760000D03*
X152041000Y-105410000D03*
D18*
X129213000Y-89037000D03*
X130863000Y-89037000D03*
D14*
X125195000Y-118575000D03*
X126465000Y-118575000D03*
X127735000Y-118575000D03*
X129005000Y-118575000D03*
X129005000Y-113625000D03*
X127735000Y-113625000D03*
X126465000Y-113625000D03*
X125195000Y-113625000D03*
D25*
X164350000Y-118537500D03*
X166250000Y-118537500D03*
X165300000Y-116662500D03*
D19*
X129900000Y-109900000D03*
X129900000Y-111550000D03*
D13*
X157800000Y-96175000D03*
X157800000Y-94625000D03*
D26*
X134150000Y-123000000D03*
X137450000Y-123000000D03*
D19*
X142300000Y-99575000D03*
X142300000Y-101225000D03*
D22*
X137225000Y-113700000D03*
X138775000Y-113700000D03*
D13*
X170815000Y-45733000D03*
X170815000Y-44183000D03*
D21*
X129328000Y-136772000D03*
X127678000Y-136772000D03*
D19*
X129276000Y-90512000D03*
X129276000Y-92162000D03*
D27*
X130329500Y-124514000D03*
X130329500Y-122614000D03*
X128454500Y-123564000D03*
D13*
X130800000Y-79575000D03*
X130800000Y-78025000D03*
D18*
X126656000Y-110004000D03*
X128306000Y-110004000D03*
X129075000Y-126104000D03*
X130725000Y-126104000D03*
X125005000Y-120700000D03*
X126655000Y-120700000D03*
D16*
X130813000Y-87436000D03*
X129263000Y-87436000D03*
D28*
X160400000Y-129750000D03*
X160400000Y-126450000D03*
D19*
X130800000Y-81277000D03*
X130800000Y-82927000D03*
D18*
X170275000Y-141400000D03*
X171925000Y-141400000D03*
D19*
X127422000Y-83912000D03*
X127422000Y-85562000D03*
D21*
X155152000Y-93028000D03*
X153502000Y-93028000D03*
D19*
X155400000Y-103775000D03*
X155400000Y-105425000D03*
D15*
X138100000Y-135925000D03*
X138100000Y-134275000D03*
D29*
X155552500Y-125480000D03*
D24*
X153012500Y-125480000D03*
X155552500Y-122940000D03*
X153012500Y-122940000D03*
X155552500Y-120400000D03*
X153012500Y-120400000D03*
X155552500Y-117860000D03*
X153012500Y-117860000D03*
X155552500Y-115320000D03*
X153012500Y-115320000D03*
D30*
X145450000Y-131950000D03*
D31*
X139950000Y-130800000D03*
D30*
X145450000Y-129650000D03*
D32*
X168205000Y-109125000D03*
X166935000Y-109125000D03*
X165665000Y-109125000D03*
X164395000Y-109125000D03*
X164395000Y-114075000D03*
X165665000Y-114075000D03*
X166935000Y-114075000D03*
X168205000Y-114075000D03*
D19*
X130822000Y-90512000D03*
X130822000Y-92162000D03*
D17*
X126090000Y-126091000D03*
X126090000Y-127641000D03*
D14*
X127995000Y-134675000D03*
X129265000Y-134675000D03*
X130535000Y-134675000D03*
X131805000Y-134675000D03*
X131805000Y-129725000D03*
X130535000Y-129725000D03*
X129265000Y-129725000D03*
X127995000Y-129725000D03*
D16*
X146675000Y-121200000D03*
X145125000Y-121200000D03*
D13*
X134900000Y-90975000D03*
X134900000Y-89425000D03*
D30*
X130950000Y-97250000D03*
D33*
X129800000Y-102750000D03*
D30*
X128650000Y-97250000D03*
D13*
X165862000Y-45733000D03*
X165862000Y-44183000D03*
X170000000Y-113375000D03*
X170000000Y-111825000D03*
D15*
X170500000Y-122364000D03*
X170500000Y-120714000D03*
D21*
X130725000Y-127628000D03*
X129075000Y-127628000D03*
D15*
X143900000Y-95625000D03*
X143900000Y-93975000D03*
X165600000Y-122364000D03*
X165600000Y-120714000D03*
D16*
X172375000Y-126400000D03*
X170825000Y-126400000D03*
D19*
X140600000Y-99575000D03*
X140600000Y-101225000D03*
X143900000Y-99575000D03*
X143900000Y-101225000D03*
D18*
X129213000Y-85700000D03*
X130863000Y-85700000D03*
D19*
X164900000Y-62275000D03*
X164900000Y-63925000D03*
D30*
X145450000Y-137350000D03*
D31*
X139950000Y-136200000D03*
D30*
X145450000Y-135050000D03*
D21*
X129325000Y-138300000D03*
X127675000Y-138300000D03*
D18*
X144475000Y-112100000D03*
X146125000Y-112100000D03*
D15*
X125838618Y-45529000D03*
X125838618Y-43879000D03*
D28*
X160500000Y-110150000D03*
X160500000Y-113450000D03*
D13*
X167200000Y-122314000D03*
X167200000Y-120764000D03*
D28*
X140900000Y-106050000D03*
X140900000Y-102750000D03*
D19*
X164900000Y-65375000D03*
X164900000Y-67025000D03*
D15*
X163957000Y-122364000D03*
X163957000Y-120714000D03*
D18*
X141475000Y-112100000D03*
X143125000Y-112100000D03*
D15*
X170815000Y-48831000D03*
X170815000Y-47181000D03*
X164900000Y-70125000D03*
X164900000Y-68475000D03*
D17*
X127422000Y-80862000D03*
X127422000Y-82412000D03*
D15*
X124206000Y-45529000D03*
X124206000Y-43879000D03*
D17*
X125100000Y-110025000D03*
X125100000Y-111575000D03*
D19*
X129222000Y-81277000D03*
X129222000Y-82927000D03*
D26*
X137450000Y-120600000D03*
X134150000Y-120600000D03*
D28*
X143500000Y-106050000D03*
X143500000Y-102750000D03*
D16*
X132326000Y-136772000D03*
X130776000Y-136772000D03*
D13*
X150600000Y-96175000D03*
X150600000Y-94625000D03*
D15*
X153721000Y-105436000D03*
X153721000Y-103786000D03*
D19*
X127614000Y-126041000D03*
X127614000Y-127691000D03*
D18*
X145875000Y-141400000D03*
X147525000Y-141400000D03*
D16*
X144075000Y-107600000D03*
X142525000Y-107600000D03*
D15*
X126200000Y-137825000D03*
X126200000Y-136175000D03*
D18*
X135075000Y-125000000D03*
X136725000Y-125000000D03*
D15*
X169164000Y-48831000D03*
X169164000Y-47181000D03*
X170000000Y-110250000D03*
X170000000Y-108600000D03*
D34*
X160400000Y-124850000D03*
X160400000Y-122950000D03*
D19*
X138100000Y-131175000D03*
X138100000Y-132825000D03*
X127422000Y-87012000D03*
X127422000Y-88662000D03*
D18*
X141850000Y-121200000D03*
X143500000Y-121200000D03*
D35*
X171278618Y-116843000D03*
X161678618Y-116843000D03*
D36*
X168978618Y-124343000D03*
D37*
X166478618Y-124343000D03*
X163978618Y-124343000D03*
D38*
X129648618Y-62484000D03*
D39*
X126113084Y-66019534D03*
X126113084Y-58948466D03*
X133184152Y-58948466D03*
X133184152Y-66019534D03*
D35*
X161678618Y-83823000D03*
X171278618Y-83823000D03*
D36*
X168978618Y-91323000D03*
D37*
X166478618Y-91323000D03*
X163978618Y-91323000D03*
D36*
X139775000Y-62500000D03*
D37*
X137235000Y-62500000D03*
D40*
X125222000Y-90977000D03*
D41*
X125222000Y-88437000D03*
X125222000Y-85897000D03*
X125222000Y-83357000D03*
X125222000Y-80817000D03*
X125222000Y-78277000D03*
X125222000Y-75737000D03*
X125222000Y-73197000D03*
X132842000Y-73197000D03*
X132842000Y-75737000D03*
X132842000Y-78277000D03*
X132842000Y-80817000D03*
X132842000Y-83357000D03*
X132842000Y-85897000D03*
X132842000Y-88437000D03*
X132842000Y-90977000D03*
D42*
X148444618Y-55564000D03*
D43*
X148444618Y-44164000D03*
X148444618Y-52464000D03*
D35*
X137548618Y-116843000D03*
X147148618Y-116843000D03*
D36*
X144848618Y-124343000D03*
D37*
X142348618Y-124343000D03*
X139848618Y-124343000D03*
D40*
X146100000Y-93675000D03*
D41*
X146100000Y-96215000D03*
X146100000Y-98755000D03*
X146100000Y-101295000D03*
X146100000Y-103835000D03*
X146100000Y-106375000D03*
X146100000Y-108915000D03*
X138480000Y-108915000D03*
X138480000Y-106375000D03*
X138480000Y-103835000D03*
X138480000Y-101295000D03*
X138480000Y-98755000D03*
X138480000Y-96215000D03*
X138480000Y-93675000D03*
D35*
X134702618Y-133099000D03*
X125102618Y-133099000D03*
D36*
X132402618Y-140599000D03*
D37*
X129902618Y-140599000D03*
X127402618Y-140599000D03*
D44*
X144200000Y-141400000D03*
D45*
X140400000Y-141400000D03*
X144840000Y-126400000D03*
X139760000Y-126400000D03*
D44*
X168500000Y-141400000D03*
D45*
X164700000Y-141400000D03*
X169140000Y-126400000D03*
X164060000Y-126400000D03*
D35*
X149486618Y-100333000D03*
X159086618Y-100333000D03*
D36*
X156786618Y-107833000D03*
D37*
X154286618Y-107833000D03*
X151786618Y-107833000D03*
D35*
X159086618Y-133099000D03*
X149486618Y-133099000D03*
D36*
X156786618Y-140599000D03*
D37*
X154286618Y-140599000D03*
X151786618Y-140599000D03*
D46*
X168256618Y-68962000D03*
X168256618Y-64262000D03*
X168256618Y-59562000D03*
D42*
X128632618Y-55564000D03*
D43*
X128632618Y-44164000D03*
X128632618Y-52464000D03*
D46*
X158350618Y-59600000D03*
X158350618Y-64300000D03*
X158350618Y-69000000D03*
D42*
X158350618Y-55564000D03*
D43*
X158350618Y-44164000D03*
X158350618Y-52464000D03*
D42*
X138538618Y-55564000D03*
D43*
X138538618Y-44164000D03*
X138538618Y-52464000D03*
D35*
X134702618Y-100333000D03*
X125102618Y-100333000D03*
D36*
X132402618Y-107833000D03*
D37*
X129902618Y-107833000D03*
X127402618Y-107833000D03*
D42*
X168256618Y-55564000D03*
D43*
X168256618Y-44164000D03*
X168256618Y-52464000D03*
M02*
