%FSLAX45Y45*%
G04 Gerber Fmt 4.5, Leading zero omitted, Abs format (unit mm)*
G04 Created by KiCad (PCBNEW (6.0.0)) date 2022-08-05 10:15:01*
%MOMM*%
%LPD*%
G01*
G04 APERTURE LIST*
%TA.AperFunction,Profile*%
%ADD10C,0.100000*%
%TD*%
%ADD11C,0.200000*%
G04 APERTURE END LIST*
D10*
X12296462Y-14249400D02*
X17346462Y-14249400D01*
X17346462Y-14249400D02*
X17346462Y-4249400D01*
X17346462Y-4249400D02*
X12296462Y-4249400D01*
X12296462Y-4249400D02*
X12296462Y-14249400D01*
D11*
X12549081Y-14564876D02*
X12549081Y-14364876D01*
X12596700Y-14364876D01*
X12625271Y-14374400D01*
X12644319Y-14393448D01*
X12653843Y-14412495D01*
X12663366Y-14450590D01*
X12663366Y-14479162D01*
X12653843Y-14517257D01*
X12644319Y-14536305D01*
X12625271Y-14555352D01*
X12596700Y-14564876D01*
X12549081Y-14564876D01*
X12749081Y-14564876D02*
X12749081Y-14431543D01*
X12749081Y-14469638D02*
X12758605Y-14450590D01*
X12768128Y-14441067D01*
X12787176Y-14431543D01*
X12806224Y-14431543D01*
X12872890Y-14564876D02*
X12872890Y-14431543D01*
X12872890Y-14364876D02*
X12863366Y-14374400D01*
X12872890Y-14383924D01*
X12882414Y-14374400D01*
X12872890Y-14364876D01*
X12872890Y-14383924D01*
X12996700Y-14564876D02*
X12977652Y-14555352D01*
X12968128Y-14536305D01*
X12968128Y-14364876D01*
X13101462Y-14564876D02*
X13082414Y-14555352D01*
X13072890Y-14536305D01*
X13072890Y-14364876D01*
X13330033Y-14564876D02*
X13330033Y-14364876D01*
X13396700Y-14507733D01*
X13463366Y-14364876D01*
X13463366Y-14564876D01*
X13644319Y-14564876D02*
X13644319Y-14460114D01*
X13634795Y-14441067D01*
X13615747Y-14431543D01*
X13577652Y-14431543D01*
X13558605Y-14441067D01*
X13644319Y-14555352D02*
X13625271Y-14564876D01*
X13577652Y-14564876D01*
X13558605Y-14555352D01*
X13549081Y-14536305D01*
X13549081Y-14517257D01*
X13558605Y-14498209D01*
X13577652Y-14488686D01*
X13625271Y-14488686D01*
X13644319Y-14479162D01*
X13739557Y-14431543D02*
X13739557Y-14631543D01*
X13739557Y-14441067D02*
X13758605Y-14431543D01*
X13796700Y-14431543D01*
X13815747Y-14441067D01*
X13825271Y-14450590D01*
X13834795Y-14469638D01*
X13834795Y-14526781D01*
X13825271Y-14545828D01*
X13815747Y-14555352D01*
X13796700Y-14564876D01*
X13758605Y-14564876D01*
X13739557Y-14555352D01*
X13920509Y-14545828D02*
X13930033Y-14555352D01*
X13920509Y-14564876D01*
X13910986Y-14555352D01*
X13920509Y-14545828D01*
X13920509Y-14564876D01*
X13920509Y-14441067D02*
X13930033Y-14450590D01*
X13920509Y-14460114D01*
X13910986Y-14450590D01*
X13920509Y-14441067D01*
X13920509Y-14460114D01*
M02*
