%FSLAX45Y45*%
G04 Gerber Fmt 4.5, Leading zero omitted, Abs format (unit mm)*
G04 Created by KiCad (PCBNEW (6.0.0)) date 2022-08-05 10:15:01*
%MOMM*%
%LPD*%
G01*
G04 APERTURE LIST*
%TA.AperFunction,Profile*%
%ADD10C,0.100000*%
%TD*%
%ADD11C,0.200000*%
%ADD12C,0.040000*%
%ADD13C,0.055000*%
%ADD14C,0.080000*%
%ADD15C,0.090000*%
%ADD16C,0.100000*%
%ADD17C,0.110000*%
%ADD18C,0.120000*%
%ADD19C,0.122000*%
%ADD20C,0.142000*%
%ADD21C,0.143000*%
%ADD22C,0.160000*%
G04 APERTURE END LIST*
D10*
X12296462Y-14249400D02*
X17346462Y-14249400D01*
X17346462Y-14249400D02*
X17346462Y-4249400D01*
X17346462Y-4249400D02*
X12296462Y-4249400D01*
X12296462Y-4249400D02*
X12296462Y-14249400D01*
D11*
D12*
X12600000Y-13900000D02*
X12640000Y-13940000D01*
X12640000Y-13900000D02*
X12600000Y-13940000D01*
X12640000Y-12950000D02*
X12680000Y-12990000D01*
X12680000Y-12950000D02*
X12640000Y-12990000D01*
X12690000Y-7630000D02*
X12730000Y-7670000D01*
X12730000Y-7630000D02*
X12690000Y-7670000D01*
X12800000Y-7440000D02*
X12840000Y-7480000D01*
X12840000Y-7440000D02*
X12800000Y-7480000D01*
X12850000Y-12460000D02*
X12890000Y-12500000D01*
X12890000Y-12460000D02*
X12850000Y-12500000D01*
X12880000Y-11630000D02*
X12920000Y-11670000D01*
X12920000Y-11630000D02*
X12880000Y-11670000D01*
X12940000Y-13260000D02*
X12980000Y-13300000D01*
X12980000Y-13260000D02*
X12940000Y-13300000D01*
X13090000Y-12120000D02*
X13130000Y-12160000D01*
X13130000Y-12120000D02*
X13090000Y-12160000D01*
X13190000Y-9460000D02*
X13230000Y-9500000D01*
X13230000Y-9460000D02*
X13190000Y-9500000D01*
X13220000Y-13780000D02*
X13260000Y-13820000D01*
X13260000Y-13780000D02*
X13220000Y-13820000D01*
X13250000Y-9370000D02*
X13290000Y-9410000D01*
X13290000Y-9370000D02*
X13250000Y-9410000D01*
X13600000Y-11190000D02*
X13640000Y-11230000D01*
X13640000Y-11190000D02*
X13600000Y-11230000D01*
X14030000Y-11620000D02*
X14070000Y-11660000D01*
X14070000Y-11620000D02*
X14030000Y-11660000D01*
X14190000Y-9810000D02*
X14230000Y-9850000D01*
X14230000Y-9810000D02*
X14190000Y-9850000D01*
X14232500Y-10407500D02*
X14272500Y-10447500D01*
X14272500Y-10407500D02*
X14232500Y-10447500D01*
X14300000Y-11700000D02*
X14340000Y-11740000D01*
X14340000Y-11700000D02*
X14300000Y-11740000D01*
X14340000Y-13490000D02*
X14380000Y-13530000D01*
X14380000Y-13490000D02*
X14340000Y-13530000D01*
X14730000Y-11940000D02*
X14770000Y-11980000D01*
X14770000Y-11940000D02*
X14730000Y-11980000D01*
X15170000Y-9290000D02*
X15210000Y-9330000D01*
X15210000Y-9290000D02*
X15170000Y-9330000D01*
X15270000Y-7020000D02*
X15310000Y-7060000D01*
X15310000Y-7020000D02*
X15270000Y-7060000D01*
X15590715Y-9764756D02*
X15630715Y-9804756D01*
X15630715Y-9764756D02*
X15590715Y-9804756D01*
X16020000Y-11150000D02*
X16060000Y-11190000D01*
X16060000Y-11150000D02*
X16020000Y-11190000D01*
X16020000Y-12790000D02*
X16060000Y-12830000D01*
X16060000Y-12790000D02*
X16020000Y-12830000D01*
X16190000Y-12610000D02*
X16230000Y-12650000D01*
X16230000Y-12610000D02*
X16190000Y-12650000D01*
X16200000Y-6410000D02*
X16240000Y-6450000D01*
X16240000Y-6410000D02*
X16200000Y-6450000D01*
X16240000Y-10950000D02*
X16280000Y-10990000D01*
X16280000Y-10950000D02*
X16240000Y-10990000D01*
X16426875Y-11563125D02*
X16466875Y-11603125D01*
X16466875Y-11563125D02*
X16426875Y-11603125D01*
X16780000Y-11140000D02*
X16820000Y-11180000D01*
X16820000Y-11140000D02*
X16780000Y-11180000D01*
X17205000Y-11345000D02*
X17245000Y-11385000D01*
X17245000Y-11345000D02*
X17205000Y-11385000D01*
D13*
X14003500Y-12640000D02*
G75*
G03*
X14003500Y-12640000I-27500J0D01*
G01*
X14067500Y-14140000D02*
G75*
G03*
X14067500Y-14140000I-27500J0D01*
G01*
X14447500Y-14140000D02*
G75*
G03*
X14447500Y-14140000I-27500J0D01*
G01*
X14511500Y-12640000D02*
G75*
G03*
X14511500Y-12640000I-27500J0D01*
G01*
X16433500Y-12640000D02*
G75*
G03*
X16433500Y-12640000I-27500J0D01*
G01*
X16497500Y-14140000D02*
G75*
G03*
X16497500Y-14140000I-27500J0D01*
G01*
X16877500Y-14140000D02*
G75*
G03*
X16877500Y-14140000I-27500J0D01*
G01*
X16941500Y-12640000D02*
G75*
G03*
X16941500Y-12640000I-27500J0D01*
G01*
D14*
X12522200Y-7279700D02*
X12522200Y-7359700D01*
X12482200Y-7319700D02*
X12562200Y-7319700D01*
X12522200Y-7533700D02*
X12522200Y-7613700D01*
X12482200Y-7573700D02*
X12562200Y-7573700D01*
X12522200Y-7787700D02*
X12522200Y-7867700D01*
X12482200Y-7827700D02*
X12562200Y-7827700D01*
X12522200Y-8041700D02*
X12522200Y-8121700D01*
X12482200Y-8081700D02*
X12562200Y-8081700D01*
X12522200Y-8295700D02*
X12522200Y-8375700D01*
X12482200Y-8335700D02*
X12562200Y-8335700D01*
X12522200Y-8549700D02*
X12522200Y-8629700D01*
X12482200Y-8589700D02*
X12562200Y-8589700D01*
X12522200Y-8803700D02*
X12522200Y-8883700D01*
X12482200Y-8843700D02*
X12562200Y-8843700D01*
X12522200Y-9057700D02*
X12522200Y-9137700D01*
X12482200Y-9097700D02*
X12562200Y-9097700D01*
X13284200Y-7279700D02*
X13284200Y-7359700D01*
X13244200Y-7319700D02*
X13324200Y-7319700D01*
X13284200Y-7533700D02*
X13284200Y-7613700D01*
X13244200Y-7573700D02*
X13324200Y-7573700D01*
X13284200Y-7787700D02*
X13284200Y-7867700D01*
X13244200Y-7827700D02*
X13324200Y-7827700D01*
X13284200Y-8041700D02*
X13284200Y-8121700D01*
X13244200Y-8081700D02*
X13324200Y-8081700D01*
X13284200Y-8295700D02*
X13284200Y-8375700D01*
X13244200Y-8335700D02*
X13324200Y-8335700D01*
X13284200Y-8549700D02*
X13284200Y-8629700D01*
X13244200Y-8589700D02*
X13324200Y-8589700D01*
X13284200Y-8803700D02*
X13284200Y-8883700D01*
X13244200Y-8843700D02*
X13324200Y-8843700D01*
X13284200Y-9057700D02*
X13284200Y-9137700D01*
X13244200Y-9097700D02*
X13324200Y-9097700D01*
X13848000Y-9327500D02*
X13848000Y-9407500D01*
X13808000Y-9367500D02*
X13888000Y-9367500D01*
X13848000Y-9581500D02*
X13848000Y-9661500D01*
X13808000Y-9621500D02*
X13888000Y-9621500D01*
X13848000Y-9835500D02*
X13848000Y-9915500D01*
X13808000Y-9875500D02*
X13888000Y-9875500D01*
X13848000Y-10089500D02*
X13848000Y-10169500D01*
X13808000Y-10129500D02*
X13888000Y-10129500D01*
X13848000Y-10343500D02*
X13848000Y-10423500D01*
X13808000Y-10383500D02*
X13888000Y-10383500D01*
X13848000Y-10597500D02*
X13848000Y-10677500D01*
X13808000Y-10637500D02*
X13888000Y-10637500D01*
X13848000Y-10851500D02*
X13848000Y-10931500D01*
X13808000Y-10891500D02*
X13888000Y-10891500D01*
X14610000Y-9327500D02*
X14610000Y-9407500D01*
X14570000Y-9367500D02*
X14650000Y-9367500D01*
X14610000Y-9581500D02*
X14610000Y-9661500D01*
X14570000Y-9621500D02*
X14650000Y-9621500D01*
X14610000Y-9835500D02*
X14610000Y-9915500D01*
X14570000Y-9875500D02*
X14650000Y-9875500D01*
X14610000Y-10089500D02*
X14610000Y-10169500D01*
X14570000Y-10129500D02*
X14650000Y-10129500D01*
X14610000Y-10343500D02*
X14610000Y-10423500D01*
X14570000Y-10383500D02*
X14650000Y-10383500D01*
X14610000Y-10597500D02*
X14610000Y-10677500D01*
X14570000Y-10637500D02*
X14650000Y-10637500D01*
X14610000Y-10851500D02*
X14610000Y-10931500D01*
X14570000Y-10891500D02*
X14650000Y-10891500D01*
D15*
X13755320Y-6281820D02*
X13755320Y-6218180D01*
X13691680Y-6218180D01*
X13691680Y-6281820D01*
X13755320Y-6281820D01*
X14009320Y-6281820D02*
X14009320Y-6218180D01*
X13945680Y-6218180D01*
X13945680Y-6281820D01*
X14009320Y-6281820D01*
D16*
X12740262Y-10833300D02*
X12790262Y-10783300D01*
X12740262Y-10733300D01*
X12690262Y-10783300D01*
X12740262Y-10833300D01*
X12740262Y-14109900D02*
X12790262Y-14059900D01*
X12740262Y-14009900D01*
X12690262Y-14059900D01*
X12740262Y-14109900D01*
X12990262Y-10833300D02*
X13040262Y-10783300D01*
X12990262Y-10733300D01*
X12940262Y-10783300D01*
X12990262Y-10833300D01*
X12990262Y-14109900D02*
X13040262Y-14059900D01*
X12990262Y-14009900D01*
X12940262Y-14059900D01*
X12990262Y-14109900D01*
X13240262Y-10833300D02*
X13290262Y-10783300D01*
X13240262Y-10733300D01*
X13190262Y-10783300D01*
X13240262Y-10833300D01*
X13240262Y-14109900D02*
X13290262Y-14059900D01*
X13240262Y-14009900D01*
X13190262Y-14059900D01*
X13240262Y-14109900D01*
X13984862Y-12484300D02*
X14034862Y-12434300D01*
X13984862Y-12384300D01*
X13934862Y-12434300D01*
X13984862Y-12484300D01*
X14234862Y-12484300D02*
X14284862Y-12434300D01*
X14234862Y-12384300D01*
X14184862Y-12434300D01*
X14234862Y-12484300D01*
X14484862Y-12484300D02*
X14534862Y-12434300D01*
X14484862Y-12384300D01*
X14434862Y-12434300D01*
X14484862Y-12484300D01*
X14690000Y-6440000D02*
X14740000Y-6390000D01*
X14690000Y-6340000D01*
X14640000Y-6390000D01*
X14690000Y-6440000D01*
X14690000Y-6694000D02*
X14740000Y-6644000D01*
X14690000Y-6594000D01*
X14640000Y-6644000D01*
X14690000Y-6694000D01*
X14690000Y-6948000D02*
X14740000Y-6898000D01*
X14690000Y-6848000D01*
X14640000Y-6898000D01*
X14690000Y-6948000D01*
X14944000Y-6440000D02*
X14994000Y-6390000D01*
X14944000Y-6340000D01*
X14894000Y-6390000D01*
X14944000Y-6440000D01*
X14944000Y-6694000D02*
X14994000Y-6644000D01*
X14944000Y-6594000D01*
X14894000Y-6644000D01*
X14944000Y-6694000D01*
X14944000Y-6948000D02*
X14994000Y-6898000D01*
X14944000Y-6848000D01*
X14894000Y-6898000D01*
X14944000Y-6948000D01*
X15178662Y-10833300D02*
X15228662Y-10783300D01*
X15178662Y-10733300D01*
X15128662Y-10783300D01*
X15178662Y-10833300D01*
X15178662Y-14109900D02*
X15228662Y-14059900D01*
X15178662Y-14009900D01*
X15128662Y-14059900D01*
X15178662Y-14109900D01*
X15301250Y-11582000D02*
X15351250Y-11532000D01*
X15301250Y-11482000D01*
X15251250Y-11532000D01*
X15301250Y-11582000D01*
X15301250Y-11836000D02*
X15351250Y-11786000D01*
X15301250Y-11736000D01*
X15251250Y-11786000D01*
X15301250Y-11836000D01*
X15301250Y-12090000D02*
X15351250Y-12040000D01*
X15301250Y-11990000D01*
X15251250Y-12040000D01*
X15301250Y-12090000D01*
X15301250Y-12344000D02*
X15351250Y-12294000D01*
X15301250Y-12244000D01*
X15251250Y-12294000D01*
X15301250Y-12344000D01*
X15301250Y-12598000D02*
X15351250Y-12548000D01*
X15301250Y-12498000D01*
X15251250Y-12548000D01*
X15301250Y-12598000D01*
X15428662Y-10833300D02*
X15478662Y-10783300D01*
X15428662Y-10733300D01*
X15378662Y-10783300D01*
X15428662Y-10833300D01*
X15428662Y-14109900D02*
X15478662Y-14059900D01*
X15428662Y-14009900D01*
X15378662Y-14059900D01*
X15428662Y-14109900D01*
X15555250Y-11582000D02*
X15605250Y-11532000D01*
X15555250Y-11482000D01*
X15505250Y-11532000D01*
X15555250Y-11582000D01*
X15555250Y-11836000D02*
X15605250Y-11786000D01*
X15555250Y-11736000D01*
X15505250Y-11786000D01*
X15555250Y-11836000D01*
X15555250Y-12090000D02*
X15605250Y-12040000D01*
X15555250Y-11990000D01*
X15505250Y-12040000D01*
X15555250Y-12090000D01*
X15555250Y-12344000D02*
X15605250Y-12294000D01*
X15555250Y-12244000D01*
X15505250Y-12294000D01*
X15555250Y-12344000D01*
X15555250Y-12598000D02*
X15605250Y-12548000D01*
X15555250Y-12498000D01*
X15505250Y-12548000D01*
X15555250Y-12598000D01*
X15678662Y-10833300D02*
X15728662Y-10783300D01*
X15678662Y-10733300D01*
X15628662Y-10783300D01*
X15678662Y-10833300D01*
X15678662Y-14109900D02*
X15728662Y-14059900D01*
X15678662Y-14009900D01*
X15628662Y-14059900D01*
X15678662Y-14109900D01*
X16397862Y-9182300D02*
X16447862Y-9132300D01*
X16397862Y-9082300D01*
X16347862Y-9132300D01*
X16397862Y-9182300D01*
X16397862Y-12484300D02*
X16447862Y-12434300D01*
X16397862Y-12384300D01*
X16347862Y-12434300D01*
X16397862Y-12484300D01*
X16647862Y-9182300D02*
X16697862Y-9132300D01*
X16647862Y-9082300D01*
X16597862Y-9132300D01*
X16647862Y-9182300D01*
X16647862Y-12484300D02*
X16697862Y-12434300D01*
X16647862Y-12384300D01*
X16597862Y-12434300D01*
X16647862Y-12484300D01*
X16897862Y-9182300D02*
X16947862Y-9132300D01*
X16897862Y-9082300D01*
X16847862Y-9132300D01*
X16897862Y-9182300D01*
X16897862Y-12484300D02*
X16947862Y-12434300D01*
X16897862Y-12384300D01*
X16847862Y-12434300D01*
X16897862Y-12484300D01*
D17*
X12455262Y-9978300D02*
X12565262Y-10088300D01*
X12565262Y-9978300D02*
X12455262Y-10088300D01*
X12565262Y-10033300D02*
G75*
G03*
X12565262Y-10033300I-55000J0D01*
G01*
D11*
X12465262Y-9998300D02*
X12465262Y-10068300D01*
X12555262Y-9998300D02*
X12555262Y-10068300D01*
X12465262Y-10068300D02*
G75*
G03*
X12555262Y-10068300I45000J0D01*
G01*
X12555262Y-9998300D02*
G75*
G03*
X12465262Y-9998300I-45000J0D01*
G01*
D17*
X12455262Y-13254900D02*
X12565262Y-13364900D01*
X12565262Y-13254900D02*
X12455262Y-13364900D01*
X12565262Y-13309900D02*
G75*
G03*
X12565262Y-13309900I-55000J0D01*
G01*
D11*
X12465262Y-13274900D02*
X12465262Y-13344900D01*
X12555262Y-13274900D02*
X12555262Y-13344900D01*
X12465262Y-13344900D02*
G75*
G03*
X12555262Y-13344900I45000J0D01*
G01*
X12555262Y-13274900D02*
G75*
G03*
X12465262Y-13274900I-45000J0D01*
G01*
D17*
X13415262Y-9978300D02*
X13525262Y-10088300D01*
X13525262Y-9978300D02*
X13415262Y-10088300D01*
X13525262Y-10033300D02*
G75*
G03*
X13525262Y-10033300I-55000J0D01*
G01*
D11*
X13425262Y-9998300D02*
X13425262Y-10068300D01*
X13515262Y-9998300D02*
X13515262Y-10068300D01*
X13425262Y-10068300D02*
G75*
G03*
X13515262Y-10068300I45000J0D01*
G01*
X13515262Y-9998300D02*
G75*
G03*
X13425262Y-9998300I-45000J0D01*
G01*
D17*
X13415262Y-13254900D02*
X13525262Y-13364900D01*
X13525262Y-13254900D02*
X13415262Y-13364900D01*
X13525262Y-13309900D02*
G75*
G03*
X13525262Y-13309900I-55000J0D01*
G01*
D11*
X13425262Y-13274900D02*
X13425262Y-13344900D01*
X13515262Y-13274900D02*
X13515262Y-13344900D01*
X13425262Y-13344900D02*
G75*
G03*
X13515262Y-13344900I45000J0D01*
G01*
X13515262Y-13274900D02*
G75*
G03*
X13425262Y-13274900I-45000J0D01*
G01*
D17*
X13699862Y-11629300D02*
X13809862Y-11739300D01*
X13809862Y-11629300D02*
X13699862Y-11739300D01*
X13809862Y-11684300D02*
G75*
G03*
X13809862Y-11684300I-55000J0D01*
G01*
D11*
X13709862Y-11649300D02*
X13709862Y-11719300D01*
X13799862Y-11649300D02*
X13799862Y-11719300D01*
X13709862Y-11719300D02*
G75*
G03*
X13799862Y-11719300I45000J0D01*
G01*
X13799862Y-11649300D02*
G75*
G03*
X13709862Y-11649300I-45000J0D01*
G01*
D17*
X14659862Y-11629300D02*
X14769862Y-11739300D01*
X14769862Y-11629300D02*
X14659862Y-11739300D01*
X14769862Y-11684300D02*
G75*
G03*
X14769862Y-11684300I-55000J0D01*
G01*
D11*
X14669862Y-11649300D02*
X14669862Y-11719300D01*
X14759862Y-11649300D02*
X14759862Y-11719300D01*
X14669862Y-11719300D02*
G75*
G03*
X14759862Y-11719300I45000J0D01*
G01*
X14759862Y-11649300D02*
G75*
G03*
X14669862Y-11649300I-45000J0D01*
G01*
D17*
X14893662Y-9978300D02*
X15003662Y-10088300D01*
X15003662Y-9978300D02*
X14893662Y-10088300D01*
X15003662Y-10033300D02*
G75*
G03*
X15003662Y-10033300I-55000J0D01*
G01*
D11*
X14903662Y-9998300D02*
X14903662Y-10068300D01*
X14993662Y-9998300D02*
X14993662Y-10068300D01*
X14903662Y-10068300D02*
G75*
G03*
X14993662Y-10068300I45000J0D01*
G01*
X14993662Y-9998300D02*
G75*
G03*
X14903662Y-9998300I-45000J0D01*
G01*
D17*
X14893662Y-13254900D02*
X15003662Y-13364900D01*
X15003662Y-13254900D02*
X14893662Y-13364900D01*
X15003662Y-13309900D02*
G75*
G03*
X15003662Y-13309900I-55000J0D01*
G01*
D11*
X14903662Y-13274900D02*
X14903662Y-13344900D01*
X14993662Y-13274900D02*
X14993662Y-13344900D01*
X14903662Y-13344900D02*
G75*
G03*
X14993662Y-13344900I45000J0D01*
G01*
X14993662Y-13274900D02*
G75*
G03*
X14903662Y-13274900I-45000J0D01*
G01*
D17*
X15853662Y-9978300D02*
X15963662Y-10088300D01*
X15963662Y-9978300D02*
X15853662Y-10088300D01*
X15963662Y-10033300D02*
G75*
G03*
X15963662Y-10033300I-55000J0D01*
G01*
D11*
X15863662Y-9998300D02*
X15863662Y-10068300D01*
X15953662Y-9998300D02*
X15953662Y-10068300D01*
X15863662Y-10068300D02*
G75*
G03*
X15953662Y-10068300I45000J0D01*
G01*
X15953662Y-9998300D02*
G75*
G03*
X15863662Y-9998300I-45000J0D01*
G01*
D17*
X15853662Y-13254900D02*
X15963662Y-13364900D01*
X15963662Y-13254900D02*
X15853662Y-13364900D01*
X15963662Y-13309900D02*
G75*
G03*
X15963662Y-13309900I-55000J0D01*
G01*
D11*
X15863662Y-13274900D02*
X15863662Y-13344900D01*
X15953662Y-13274900D02*
X15953662Y-13344900D01*
X15863662Y-13344900D02*
G75*
G03*
X15953662Y-13344900I45000J0D01*
G01*
X15953662Y-13274900D02*
G75*
G03*
X15863662Y-13274900I-45000J0D01*
G01*
D17*
X16112862Y-8327300D02*
X16222862Y-8437300D01*
X16222862Y-8327300D02*
X16112862Y-8437300D01*
X16222862Y-8382300D02*
G75*
G03*
X16222862Y-8382300I-55000J0D01*
G01*
D11*
X16122862Y-8347300D02*
X16122862Y-8417300D01*
X16212862Y-8347300D02*
X16212862Y-8417300D01*
X16122862Y-8417300D02*
G75*
G03*
X16212862Y-8417300I45000J0D01*
G01*
X16212862Y-8347300D02*
G75*
G03*
X16122862Y-8347300I-45000J0D01*
G01*
D17*
X16112862Y-11629300D02*
X16222862Y-11739300D01*
X16222862Y-11629300D02*
X16112862Y-11739300D01*
X16222862Y-11684300D02*
G75*
G03*
X16222862Y-11684300I-55000J0D01*
G01*
D11*
X16122862Y-11649300D02*
X16122862Y-11719300D01*
X16212862Y-11649300D02*
X16212862Y-11719300D01*
X16122862Y-11719300D02*
G75*
G03*
X16212862Y-11719300I45000J0D01*
G01*
X16212862Y-11649300D02*
G75*
G03*
X16122862Y-11649300I-45000J0D01*
G01*
D17*
X17072862Y-8327300D02*
X17182862Y-8437300D01*
X17182862Y-8327300D02*
X17072862Y-8437300D01*
X17182862Y-8382300D02*
G75*
G03*
X17182862Y-8382300I-55000J0D01*
G01*
D11*
X17082862Y-8347300D02*
X17082862Y-8417300D01*
X17172862Y-8347300D02*
X17172862Y-8417300D01*
X17082862Y-8417300D02*
G75*
G03*
X17172862Y-8417300I45000J0D01*
G01*
X17172862Y-8347300D02*
G75*
G03*
X17082862Y-8347300I-45000J0D01*
G01*
D17*
X17072862Y-11629300D02*
X17182862Y-11739300D01*
X17182862Y-11629300D02*
X17072862Y-11739300D01*
X17182862Y-11684300D02*
G75*
G03*
X17182862Y-11684300I-55000J0D01*
G01*
D11*
X17082862Y-11649300D02*
X17082862Y-11719300D01*
X17172862Y-11649300D02*
X17172862Y-11719300D01*
X17082862Y-11719300D02*
G75*
G03*
X17172862Y-11719300I45000J0D01*
G01*
X17172862Y-11649300D02*
G75*
G03*
X17082862Y-11649300I-45000J0D01*
G01*
D18*
X12904862Y-6188400D02*
X13024862Y-6308400D01*
X13024862Y-6188400D02*
X12904862Y-6308400D01*
X12964862Y-6188400D02*
X12964862Y-6308400D01*
X12904862Y-6248400D02*
X13024862Y-6248400D01*
X15775062Y-5900000D02*
X15895062Y-6020000D01*
X15895062Y-5900000D02*
X15775062Y-6020000D01*
X15835062Y-5900000D02*
X15835062Y-6020000D01*
X15775062Y-5960000D02*
X15895062Y-5960000D01*
D11*
X15885062Y-5910000D02*
X15785062Y-5910000D01*
X15885062Y-6010000D02*
X15785062Y-6010000D01*
X15785062Y-5910000D02*
G75*
G03*
X15785062Y-6010000I0J-50000D01*
G01*
X15885062Y-6010000D02*
G75*
G03*
X15885062Y-5910000I0J50000D01*
G01*
D18*
X15775062Y-6370000D02*
X15895062Y-6490000D01*
X15895062Y-6370000D02*
X15775062Y-6490000D01*
X15835062Y-6370000D02*
X15835062Y-6490000D01*
X15775062Y-6430000D02*
X15895062Y-6430000D01*
D11*
X15885062Y-6380000D02*
X15785062Y-6380000D01*
X15885062Y-6480000D02*
X15785062Y-6480000D01*
X15785062Y-6380000D02*
G75*
G03*
X15785062Y-6480000I0J-50000D01*
G01*
X15885062Y-6480000D02*
G75*
G03*
X15885062Y-6380000I0J50000D01*
G01*
D18*
X15775062Y-6840000D02*
X15895062Y-6960000D01*
X15895062Y-6840000D02*
X15775062Y-6960000D01*
X15835062Y-6840000D02*
X15835062Y-6960000D01*
X15775062Y-6900000D02*
X15895062Y-6900000D01*
D11*
X15885062Y-6850000D02*
X15785062Y-6850000D01*
X15885062Y-6950000D02*
X15785062Y-6950000D01*
X15785062Y-6850000D02*
G75*
G03*
X15785062Y-6950000I0J-50000D01*
G01*
X15885062Y-6950000D02*
G75*
G03*
X15885062Y-6850000I0J50000D01*
G01*
D18*
X16765662Y-5896200D02*
X16885662Y-6016200D01*
X16885662Y-5896200D02*
X16765662Y-6016200D01*
X16825662Y-5896200D02*
X16825662Y-6016200D01*
X16765662Y-5956200D02*
X16885662Y-5956200D01*
D11*
X16775662Y-6006200D02*
X16875662Y-6006200D01*
X16775662Y-5906200D02*
X16875662Y-5906200D01*
X16875662Y-6006200D02*
G75*
G03*
X16875662Y-5906200I0J50000D01*
G01*
X16775662Y-5906200D02*
G75*
G03*
X16775662Y-6006200I0J-50000D01*
G01*
D18*
X16765662Y-6366200D02*
X16885662Y-6486200D01*
X16885662Y-6366200D02*
X16765662Y-6486200D01*
X16825662Y-6366200D02*
X16825662Y-6486200D01*
X16765662Y-6426200D02*
X16885662Y-6426200D01*
D11*
X16775662Y-6476200D02*
X16875662Y-6476200D01*
X16775662Y-6376200D02*
X16875662Y-6376200D01*
X16875662Y-6476200D02*
G75*
G03*
X16875662Y-6376200I0J50000D01*
G01*
X16775662Y-6376200D02*
G75*
G03*
X16775662Y-6476200I0J-50000D01*
G01*
D18*
X16765662Y-6836200D02*
X16885662Y-6956200D01*
X16885662Y-6836200D02*
X16765662Y-6956200D01*
X16825662Y-6836200D02*
X16825662Y-6956200D01*
X16765662Y-6896200D02*
X16885662Y-6896200D01*
D11*
X16775662Y-6946200D02*
X16875662Y-6946200D01*
X16775662Y-6846200D02*
X16875662Y-6846200D01*
X16875662Y-6946200D02*
G75*
G03*
X16875662Y-6846200I0J50000D01*
G01*
X16775662Y-6846200D02*
G75*
G03*
X16775662Y-6946200I0J-50000D01*
G01*
D19*
X12802262Y-5495400D02*
X12924262Y-5617400D01*
X12924262Y-5495400D02*
X12802262Y-5617400D01*
X12906396Y-5599534D02*
X12906396Y-5513266D01*
X12820128Y-5513266D01*
X12820128Y-5599534D01*
X12906396Y-5599534D01*
X13792862Y-5495400D02*
X13914862Y-5617400D01*
X13914862Y-5495400D02*
X13792862Y-5617400D01*
X13896996Y-5599534D02*
X13896996Y-5513266D01*
X13810728Y-5513266D01*
X13810728Y-5599534D01*
X13896996Y-5599534D01*
X14783462Y-5495400D02*
X14905462Y-5617400D01*
X14905462Y-5495400D02*
X14783462Y-5617400D01*
X14887596Y-5599534D02*
X14887596Y-5513266D01*
X14801328Y-5513266D01*
X14801328Y-5599534D01*
X14887596Y-5599534D01*
X15774062Y-5495400D02*
X15896062Y-5617400D01*
X15896062Y-5495400D02*
X15774062Y-5617400D01*
X15878196Y-5599534D02*
X15878196Y-5513266D01*
X15791928Y-5513266D01*
X15791928Y-5599534D01*
X15878196Y-5599534D01*
X16764662Y-5495400D02*
X16886662Y-5617400D01*
X16886662Y-5495400D02*
X16764662Y-5617400D01*
X16868796Y-5599534D02*
X16868796Y-5513266D01*
X16782528Y-5513266D01*
X16782528Y-5599534D01*
X16868796Y-5599534D01*
D20*
X12792262Y-5175400D02*
X12934262Y-5317400D01*
X12934262Y-5175400D02*
X12792262Y-5317400D01*
X12863262Y-5317400D02*
X12934262Y-5246400D01*
X12863262Y-5175400D01*
X12792262Y-5246400D01*
X12863262Y-5317400D01*
X13782862Y-5175400D02*
X13924862Y-5317400D01*
X13924862Y-5175400D02*
X13782862Y-5317400D01*
X13853862Y-5317400D02*
X13924862Y-5246400D01*
X13853862Y-5175400D01*
X13782862Y-5246400D01*
X13853862Y-5317400D01*
X14773462Y-5175400D02*
X14915462Y-5317400D01*
X14915462Y-5175400D02*
X14773462Y-5317400D01*
X14844462Y-5317400D02*
X14915462Y-5246400D01*
X14844462Y-5175400D01*
X14773462Y-5246400D01*
X14844462Y-5317400D01*
X15764062Y-5175400D02*
X15906062Y-5317400D01*
X15906062Y-5175400D02*
X15764062Y-5317400D01*
X15835062Y-5317400D02*
X15906062Y-5246400D01*
X15835062Y-5175400D01*
X15764062Y-5246400D01*
X15835062Y-5317400D01*
X16754662Y-5175400D02*
X16896662Y-5317400D01*
X16896662Y-5175400D02*
X16754662Y-5317400D01*
X16825662Y-5317400D02*
X16896662Y-5246400D01*
X16825662Y-5175400D01*
X16754662Y-5246400D01*
X16825662Y-5317400D01*
D21*
X12863262Y-4344900D02*
X12863262Y-4487900D01*
X12791762Y-4416400D02*
X12934762Y-4416400D01*
X12934762Y-4416400D02*
G75*
G03*
X12934762Y-4416400I-71500J0D01*
G01*
X13853862Y-4344900D02*
X13853862Y-4487900D01*
X13782362Y-4416400D02*
X13925362Y-4416400D01*
X13925362Y-4416400D02*
G75*
G03*
X13925362Y-4416400I-71500J0D01*
G01*
X14844462Y-4344900D02*
X14844462Y-4487900D01*
X14772962Y-4416400D02*
X14915962Y-4416400D01*
X14915962Y-4416400D02*
G75*
G03*
X14915962Y-4416400I-71500J0D01*
G01*
X15835062Y-4344900D02*
X15835062Y-4487900D01*
X15763562Y-4416400D02*
X15906562Y-4416400D01*
X15906562Y-4416400D02*
G75*
G03*
X15906562Y-4416400I-71500J0D01*
G01*
X16825662Y-4344900D02*
X16825662Y-4487900D01*
X16754162Y-4416400D02*
X16897162Y-4416400D01*
X16897162Y-4416400D02*
G75*
G03*
X16897162Y-4416400I-71500J0D01*
G01*
D22*
X12667877Y-5951416D02*
X12667877Y-5838277D01*
X12554739Y-5838277D01*
X12554739Y-5951416D01*
X12667877Y-5951416D01*
X12691308Y-5894847D02*
G75*
G03*
X12691308Y-5894847I-80000J0D01*
G01*
X12667877Y-6658522D02*
X12667877Y-6545384D01*
X12554739Y-6545384D01*
X12554739Y-6658522D01*
X12667877Y-6658522D01*
X12691308Y-6601953D02*
G75*
G03*
X12691308Y-6601953I-80000J0D01*
G01*
X13374984Y-5951416D02*
X13374984Y-5838277D01*
X13261846Y-5838277D01*
X13261846Y-5951416D01*
X13374984Y-5951416D01*
X13398415Y-5894847D02*
G75*
G03*
X13398415Y-5894847I-80000J0D01*
G01*
X13374984Y-6658522D02*
X13374984Y-6545384D01*
X13261846Y-6545384D01*
X13261846Y-6658522D01*
X13374984Y-6658522D01*
X13398415Y-6601953D02*
G75*
G03*
X13398415Y-6601953I-80000J0D01*
G01*
D11*
X12549081Y-14564876D02*
X12549081Y-14364876D01*
X12596700Y-14364876D01*
X12625271Y-14374400D01*
X12644319Y-14393448D01*
X12653843Y-14412495D01*
X12663366Y-14450590D01*
X12663366Y-14479162D01*
X12653843Y-14517257D01*
X12644319Y-14536305D01*
X12625271Y-14555352D01*
X12596700Y-14564876D01*
X12549081Y-14564876D01*
X12749081Y-14564876D02*
X12749081Y-14431543D01*
X12749081Y-14469638D02*
X12758605Y-14450590D01*
X12768128Y-14441067D01*
X12787176Y-14431543D01*
X12806224Y-14431543D01*
X12872890Y-14564876D02*
X12872890Y-14431543D01*
X12872890Y-14364876D02*
X12863366Y-14374400D01*
X12872890Y-14383924D01*
X12882414Y-14374400D01*
X12872890Y-14364876D01*
X12872890Y-14383924D01*
X12996700Y-14564876D02*
X12977652Y-14555352D01*
X12968128Y-14536305D01*
X12968128Y-14364876D01*
X13101462Y-14564876D02*
X13082414Y-14555352D01*
X13072890Y-14536305D01*
X13072890Y-14364876D01*
X13330033Y-14564876D02*
X13330033Y-14364876D01*
X13396700Y-14507733D01*
X13463366Y-14364876D01*
X13463366Y-14564876D01*
X13644319Y-14564876D02*
X13644319Y-14460114D01*
X13634795Y-14441067D01*
X13615747Y-14431543D01*
X13577652Y-14431543D01*
X13558605Y-14441067D01*
X13644319Y-14555352D02*
X13625271Y-14564876D01*
X13577652Y-14564876D01*
X13558605Y-14555352D01*
X13549081Y-14536305D01*
X13549081Y-14517257D01*
X13558605Y-14498209D01*
X13577652Y-14488686D01*
X13625271Y-14488686D01*
X13644319Y-14479162D01*
X13739557Y-14431543D02*
X13739557Y-14631543D01*
X13739557Y-14441067D02*
X13758605Y-14431543D01*
X13796700Y-14431543D01*
X13815747Y-14441067D01*
X13825271Y-14450590D01*
X13834795Y-14469638D01*
X13834795Y-14526781D01*
X13825271Y-14545828D01*
X13815747Y-14555352D01*
X13796700Y-14564876D01*
X13758605Y-14564876D01*
X13739557Y-14555352D01*
X13920509Y-14545828D02*
X13930033Y-14555352D01*
X13920509Y-14564876D01*
X13910986Y-14555352D01*
X13920509Y-14545828D01*
X13920509Y-14564876D01*
X13920509Y-14441067D02*
X13930033Y-14450590D01*
X13920509Y-14460114D01*
X13910986Y-14450590D01*
X13920509Y-14441067D01*
X13920509Y-14460114D01*
D12*
X12251462Y-14874400D02*
X12291462Y-14914400D01*
X12291462Y-14874400D02*
X12251462Y-14914400D01*
D11*
X12587176Y-14784876D02*
X12606224Y-14784876D01*
X12625271Y-14794400D01*
X12634795Y-14803924D01*
X12644319Y-14822971D01*
X12653843Y-14861067D01*
X12653843Y-14908686D01*
X12644319Y-14946781D01*
X12634795Y-14965828D01*
X12625271Y-14975352D01*
X12606224Y-14984876D01*
X12587176Y-14984876D01*
X12568128Y-14975352D01*
X12558605Y-14965828D01*
X12549081Y-14946781D01*
X12539557Y-14908686D01*
X12539557Y-14861067D01*
X12549081Y-14822971D01*
X12558605Y-14803924D01*
X12568128Y-14794400D01*
X12587176Y-14784876D01*
X12739557Y-14965828D02*
X12749081Y-14975352D01*
X12739557Y-14984876D01*
X12730033Y-14975352D01*
X12739557Y-14965828D01*
X12739557Y-14984876D01*
X12920509Y-14851543D02*
X12920509Y-14984876D01*
X12872890Y-14775352D02*
X12825271Y-14918209D01*
X12949081Y-14918209D01*
X13063366Y-14784876D02*
X13082414Y-14784876D01*
X13101462Y-14794400D01*
X13110986Y-14803924D01*
X13120509Y-14822971D01*
X13130033Y-14861067D01*
X13130033Y-14908686D01*
X13120509Y-14946781D01*
X13110986Y-14965828D01*
X13101462Y-14975352D01*
X13082414Y-14984876D01*
X13063366Y-14984876D01*
X13044319Y-14975352D01*
X13034795Y-14965828D01*
X13025271Y-14946781D01*
X13015747Y-14908686D01*
X13015747Y-14861067D01*
X13025271Y-14822971D01*
X13034795Y-14803924D01*
X13044319Y-14794400D01*
X13063366Y-14784876D01*
X13253843Y-14784876D02*
X13272890Y-14784876D01*
X13291938Y-14794400D01*
X13301462Y-14803924D01*
X13310986Y-14822971D01*
X13320509Y-14861067D01*
X13320509Y-14908686D01*
X13310986Y-14946781D01*
X13301462Y-14965828D01*
X13291938Y-14975352D01*
X13272890Y-14984876D01*
X13253843Y-14984876D01*
X13234795Y-14975352D01*
X13225271Y-14965828D01*
X13215747Y-14946781D01*
X13206224Y-14908686D01*
X13206224Y-14861067D01*
X13215747Y-14822971D01*
X13225271Y-14803924D01*
X13234795Y-14794400D01*
X13253843Y-14784876D01*
X13406224Y-14984876D02*
X13406224Y-14851543D01*
X13406224Y-14870590D02*
X13415747Y-14861067D01*
X13434795Y-14851543D01*
X13463366Y-14851543D01*
X13482414Y-14861067D01*
X13491938Y-14880114D01*
X13491938Y-14984876D01*
X13491938Y-14880114D02*
X13501462Y-14861067D01*
X13520509Y-14851543D01*
X13549081Y-14851543D01*
X13568128Y-14861067D01*
X13577652Y-14880114D01*
X13577652Y-14984876D01*
X13672890Y-14984876D02*
X13672890Y-14851543D01*
X13672890Y-14870590D02*
X13682414Y-14861067D01*
X13701462Y-14851543D01*
X13730033Y-14851543D01*
X13749081Y-14861067D01*
X13758605Y-14880114D01*
X13758605Y-14984876D01*
X13758605Y-14880114D02*
X13768128Y-14861067D01*
X13787176Y-14851543D01*
X13815747Y-14851543D01*
X13834795Y-14861067D01*
X13844319Y-14880114D01*
X13844319Y-14984876D01*
X14234795Y-14775352D02*
X14063366Y-15032495D01*
X14491938Y-14784876D02*
X14510986Y-14784876D01*
X14530033Y-14794400D01*
X14539557Y-14803924D01*
X14549081Y-14822971D01*
X14558605Y-14861067D01*
X14558605Y-14908686D01*
X14549081Y-14946781D01*
X14539557Y-14965828D01*
X14530033Y-14975352D01*
X14510986Y-14984876D01*
X14491938Y-14984876D01*
X14472890Y-14975352D01*
X14463366Y-14965828D01*
X14453843Y-14946781D01*
X14444319Y-14908686D01*
X14444319Y-14861067D01*
X14453843Y-14822971D01*
X14463366Y-14803924D01*
X14472890Y-14794400D01*
X14491938Y-14784876D01*
X14644319Y-14965828D02*
X14653843Y-14975352D01*
X14644319Y-14984876D01*
X14634795Y-14975352D01*
X14644319Y-14965828D01*
X14644319Y-14984876D01*
X14777652Y-14784876D02*
X14796700Y-14784876D01*
X14815747Y-14794400D01*
X14825271Y-14803924D01*
X14834795Y-14822971D01*
X14844319Y-14861067D01*
X14844319Y-14908686D01*
X14834795Y-14946781D01*
X14825271Y-14965828D01*
X14815747Y-14975352D01*
X14796700Y-14984876D01*
X14777652Y-14984876D01*
X14758605Y-14975352D01*
X14749081Y-14965828D01*
X14739557Y-14946781D01*
X14730033Y-14908686D01*
X14730033Y-14861067D01*
X14739557Y-14822971D01*
X14749081Y-14803924D01*
X14758605Y-14794400D01*
X14777652Y-14784876D01*
X15034795Y-14984876D02*
X14920509Y-14984876D01*
X14977652Y-14984876D02*
X14977652Y-14784876D01*
X14958605Y-14813448D01*
X14939557Y-14832495D01*
X14920509Y-14842019D01*
X15215747Y-14784876D02*
X15120509Y-14784876D01*
X15110986Y-14880114D01*
X15120509Y-14870590D01*
X15139557Y-14861067D01*
X15187176Y-14861067D01*
X15206224Y-14870590D01*
X15215747Y-14880114D01*
X15225271Y-14899162D01*
X15225271Y-14946781D01*
X15215747Y-14965828D01*
X15206224Y-14975352D01*
X15187176Y-14984876D01*
X15139557Y-14984876D01*
X15120509Y-14975352D01*
X15110986Y-14965828D01*
X15291938Y-14784876D02*
X15425271Y-14784876D01*
X15339557Y-14984876D01*
X15491938Y-14784876D02*
X15491938Y-14822971D01*
X15568128Y-14784876D02*
X15568128Y-14822971D01*
X15863366Y-15061067D02*
X15853843Y-15051543D01*
X15834795Y-15022971D01*
X15825271Y-15003924D01*
X15815747Y-14975352D01*
X15806224Y-14927733D01*
X15806224Y-14889638D01*
X15815747Y-14842019D01*
X15825271Y-14813448D01*
X15834795Y-14794400D01*
X15853843Y-14765828D01*
X15863366Y-14756305D01*
X15930033Y-14803924D02*
X15939557Y-14794400D01*
X15958605Y-14784876D01*
X16006224Y-14784876D01*
X16025271Y-14794400D01*
X16034795Y-14803924D01*
X16044319Y-14822971D01*
X16044319Y-14842019D01*
X16034795Y-14870590D01*
X15920509Y-14984876D01*
X16044319Y-14984876D01*
X16139557Y-14984876D02*
X16177652Y-14984876D01*
X16196700Y-14975352D01*
X16206224Y-14965828D01*
X16225271Y-14937257D01*
X16234795Y-14899162D01*
X16234795Y-14822971D01*
X16225271Y-14803924D01*
X16215747Y-14794400D01*
X16196700Y-14784876D01*
X16158605Y-14784876D01*
X16139557Y-14794400D01*
X16130033Y-14803924D01*
X16120509Y-14822971D01*
X16120509Y-14870590D01*
X16130033Y-14889638D01*
X16139557Y-14899162D01*
X16158605Y-14908686D01*
X16196700Y-14908686D01*
X16215747Y-14899162D01*
X16225271Y-14889638D01*
X16234795Y-14870590D01*
X16472890Y-14984876D02*
X16472890Y-14784876D01*
X16558605Y-14984876D02*
X16558605Y-14880114D01*
X16549081Y-14861067D01*
X16530033Y-14851543D01*
X16501462Y-14851543D01*
X16482414Y-14861067D01*
X16472890Y-14870590D01*
X16682414Y-14984876D02*
X16663366Y-14975352D01*
X16653843Y-14965828D01*
X16644319Y-14946781D01*
X16644319Y-14889638D01*
X16653843Y-14870590D01*
X16663366Y-14861067D01*
X16682414Y-14851543D01*
X16710986Y-14851543D01*
X16730033Y-14861067D01*
X16739557Y-14870590D01*
X16749081Y-14889638D01*
X16749081Y-14946781D01*
X16739557Y-14965828D01*
X16730033Y-14975352D01*
X16710986Y-14984876D01*
X16682414Y-14984876D01*
X16863367Y-14984876D02*
X16844319Y-14975352D01*
X16834795Y-14956305D01*
X16834795Y-14784876D01*
X17015748Y-14975352D02*
X16996700Y-14984876D01*
X16958605Y-14984876D01*
X16939557Y-14975352D01*
X16930033Y-14956305D01*
X16930033Y-14880114D01*
X16939557Y-14861067D01*
X16958605Y-14851543D01*
X16996700Y-14851543D01*
X17015748Y-14861067D01*
X17025271Y-14880114D01*
X17025271Y-14899162D01*
X16930033Y-14918209D01*
X17101462Y-14975352D02*
X17120509Y-14984876D01*
X17158605Y-14984876D01*
X17177652Y-14975352D01*
X17187176Y-14956305D01*
X17187176Y-14946781D01*
X17177652Y-14927733D01*
X17158605Y-14918209D01*
X17130033Y-14918209D01*
X17110986Y-14908686D01*
X17101462Y-14889638D01*
X17101462Y-14880114D01*
X17110986Y-14861067D01*
X17130033Y-14851543D01*
X17158605Y-14851543D01*
X17177652Y-14861067D01*
X17253843Y-15061067D02*
X17263367Y-15051543D01*
X17282414Y-15022971D01*
X17291938Y-15003924D01*
X17301462Y-14975352D01*
X17310986Y-14927733D01*
X17310986Y-14889638D01*
X17301462Y-14842019D01*
X17291938Y-14813448D01*
X17282414Y-14794400D01*
X17263367Y-14765828D01*
X17253843Y-14756305D01*
D13*
X12291462Y-15158400D02*
G75*
G03*
X12291462Y-15158400I-27500J0D01*
G01*
D11*
X12587176Y-15048876D02*
X12606224Y-15048876D01*
X12625271Y-15058400D01*
X12634795Y-15067924D01*
X12644319Y-15086971D01*
X12653843Y-15125067D01*
X12653843Y-15172686D01*
X12644319Y-15210781D01*
X12634795Y-15229828D01*
X12625271Y-15239352D01*
X12606224Y-15248876D01*
X12587176Y-15248876D01*
X12568128Y-15239352D01*
X12558605Y-15229828D01*
X12549081Y-15210781D01*
X12539557Y-15172686D01*
X12539557Y-15125067D01*
X12549081Y-15086971D01*
X12558605Y-15067924D01*
X12568128Y-15058400D01*
X12587176Y-15048876D01*
X12739557Y-15229828D02*
X12749081Y-15239352D01*
X12739557Y-15248876D01*
X12730033Y-15239352D01*
X12739557Y-15229828D01*
X12739557Y-15248876D01*
X12930033Y-15048876D02*
X12834795Y-15048876D01*
X12825271Y-15144114D01*
X12834795Y-15134590D01*
X12853843Y-15125067D01*
X12901462Y-15125067D01*
X12920509Y-15134590D01*
X12930033Y-15144114D01*
X12939557Y-15163162D01*
X12939557Y-15210781D01*
X12930033Y-15229828D01*
X12920509Y-15239352D01*
X12901462Y-15248876D01*
X12853843Y-15248876D01*
X12834795Y-15239352D01*
X12825271Y-15229828D01*
X13120509Y-15048876D02*
X13025271Y-15048876D01*
X13015747Y-15144114D01*
X13025271Y-15134590D01*
X13044319Y-15125067D01*
X13091938Y-15125067D01*
X13110986Y-15134590D01*
X13120509Y-15144114D01*
X13130033Y-15163162D01*
X13130033Y-15210781D01*
X13120509Y-15229828D01*
X13110986Y-15239352D01*
X13091938Y-15248876D01*
X13044319Y-15248876D01*
X13025271Y-15239352D01*
X13015747Y-15229828D01*
X13253843Y-15048876D02*
X13272890Y-15048876D01*
X13291938Y-15058400D01*
X13301462Y-15067924D01*
X13310986Y-15086971D01*
X13320509Y-15125067D01*
X13320509Y-15172686D01*
X13310986Y-15210781D01*
X13301462Y-15229828D01*
X13291938Y-15239352D01*
X13272890Y-15248876D01*
X13253843Y-15248876D01*
X13234795Y-15239352D01*
X13225271Y-15229828D01*
X13215747Y-15210781D01*
X13206224Y-15172686D01*
X13206224Y-15125067D01*
X13215747Y-15086971D01*
X13225271Y-15067924D01*
X13234795Y-15058400D01*
X13253843Y-15048876D01*
X13406224Y-15248876D02*
X13406224Y-15115543D01*
X13406224Y-15134590D02*
X13415747Y-15125067D01*
X13434795Y-15115543D01*
X13463366Y-15115543D01*
X13482414Y-15125067D01*
X13491938Y-15144114D01*
X13491938Y-15248876D01*
X13491938Y-15144114D02*
X13501462Y-15125067D01*
X13520509Y-15115543D01*
X13549081Y-15115543D01*
X13568128Y-15125067D01*
X13577652Y-15144114D01*
X13577652Y-15248876D01*
X13672890Y-15248876D02*
X13672890Y-15115543D01*
X13672890Y-15134590D02*
X13682414Y-15125067D01*
X13701462Y-15115543D01*
X13730033Y-15115543D01*
X13749081Y-15125067D01*
X13758605Y-15144114D01*
X13758605Y-15248876D01*
X13758605Y-15144114D02*
X13768128Y-15125067D01*
X13787176Y-15115543D01*
X13815747Y-15115543D01*
X13834795Y-15125067D01*
X13844319Y-15144114D01*
X13844319Y-15248876D01*
X14234795Y-15039352D02*
X14063366Y-15296495D01*
X14491938Y-15048876D02*
X14510986Y-15048876D01*
X14530033Y-15058400D01*
X14539557Y-15067924D01*
X14549081Y-15086971D01*
X14558605Y-15125067D01*
X14558605Y-15172686D01*
X14549081Y-15210781D01*
X14539557Y-15229828D01*
X14530033Y-15239352D01*
X14510986Y-15248876D01*
X14491938Y-15248876D01*
X14472890Y-15239352D01*
X14463366Y-15229828D01*
X14453843Y-15210781D01*
X14444319Y-15172686D01*
X14444319Y-15125067D01*
X14453843Y-15086971D01*
X14463366Y-15067924D01*
X14472890Y-15058400D01*
X14491938Y-15048876D01*
X14644319Y-15229828D02*
X14653843Y-15239352D01*
X14644319Y-15248876D01*
X14634795Y-15239352D01*
X14644319Y-15229828D01*
X14644319Y-15248876D01*
X14777652Y-15048876D02*
X14796700Y-15048876D01*
X14815747Y-15058400D01*
X14825271Y-15067924D01*
X14834795Y-15086971D01*
X14844319Y-15125067D01*
X14844319Y-15172686D01*
X14834795Y-15210781D01*
X14825271Y-15229828D01*
X14815747Y-15239352D01*
X14796700Y-15248876D01*
X14777652Y-15248876D01*
X14758605Y-15239352D01*
X14749081Y-15229828D01*
X14739557Y-15210781D01*
X14730033Y-15172686D01*
X14730033Y-15125067D01*
X14739557Y-15086971D01*
X14749081Y-15067924D01*
X14758605Y-15058400D01*
X14777652Y-15048876D01*
X14920509Y-15067924D02*
X14930033Y-15058400D01*
X14949081Y-15048876D01*
X14996700Y-15048876D01*
X15015747Y-15058400D01*
X15025271Y-15067924D01*
X15034795Y-15086971D01*
X15034795Y-15106019D01*
X15025271Y-15134590D01*
X14910986Y-15248876D01*
X15034795Y-15248876D01*
X15225271Y-15248876D02*
X15110986Y-15248876D01*
X15168128Y-15248876D02*
X15168128Y-15048876D01*
X15149081Y-15077448D01*
X15130033Y-15096495D01*
X15110986Y-15106019D01*
X15291938Y-15048876D02*
X15425271Y-15048876D01*
X15339557Y-15248876D01*
X15491938Y-15048876D02*
X15491938Y-15086971D01*
X15568128Y-15048876D02*
X15568128Y-15086971D01*
X15863366Y-15325067D02*
X15853843Y-15315543D01*
X15834795Y-15286971D01*
X15825271Y-15267924D01*
X15815747Y-15239352D01*
X15806224Y-15191733D01*
X15806224Y-15153638D01*
X15815747Y-15106019D01*
X15825271Y-15077448D01*
X15834795Y-15058400D01*
X15853843Y-15029828D01*
X15863366Y-15020305D01*
X15968128Y-15134590D02*
X15949081Y-15125067D01*
X15939557Y-15115543D01*
X15930033Y-15096495D01*
X15930033Y-15086971D01*
X15939557Y-15067924D01*
X15949081Y-15058400D01*
X15968128Y-15048876D01*
X16006224Y-15048876D01*
X16025271Y-15058400D01*
X16034795Y-15067924D01*
X16044319Y-15086971D01*
X16044319Y-15096495D01*
X16034795Y-15115543D01*
X16025271Y-15125067D01*
X16006224Y-15134590D01*
X15968128Y-15134590D01*
X15949081Y-15144114D01*
X15939557Y-15153638D01*
X15930033Y-15172686D01*
X15930033Y-15210781D01*
X15939557Y-15229828D01*
X15949081Y-15239352D01*
X15968128Y-15248876D01*
X16006224Y-15248876D01*
X16025271Y-15239352D01*
X16034795Y-15229828D01*
X16044319Y-15210781D01*
X16044319Y-15172686D01*
X16034795Y-15153638D01*
X16025271Y-15144114D01*
X16006224Y-15134590D01*
X16282414Y-15248876D02*
X16282414Y-15048876D01*
X16368128Y-15248876D02*
X16368128Y-15144114D01*
X16358605Y-15125067D01*
X16339557Y-15115543D01*
X16310986Y-15115543D01*
X16291938Y-15125067D01*
X16282414Y-15134590D01*
X16491938Y-15248876D02*
X16472890Y-15239352D01*
X16463366Y-15229828D01*
X16453843Y-15210781D01*
X16453843Y-15153638D01*
X16463366Y-15134590D01*
X16472890Y-15125067D01*
X16491938Y-15115543D01*
X16520509Y-15115543D01*
X16539557Y-15125067D01*
X16549081Y-15134590D01*
X16558605Y-15153638D01*
X16558605Y-15210781D01*
X16549081Y-15229828D01*
X16539557Y-15239352D01*
X16520509Y-15248876D01*
X16491938Y-15248876D01*
X16672890Y-15248876D02*
X16653843Y-15239352D01*
X16644319Y-15220305D01*
X16644319Y-15048876D01*
X16825271Y-15239352D02*
X16806224Y-15248876D01*
X16768128Y-15248876D01*
X16749081Y-15239352D01*
X16739557Y-15220305D01*
X16739557Y-15144114D01*
X16749081Y-15125067D01*
X16768128Y-15115543D01*
X16806224Y-15115543D01*
X16825271Y-15125067D01*
X16834795Y-15144114D01*
X16834795Y-15163162D01*
X16739557Y-15182209D01*
X16910986Y-15239352D02*
X16930033Y-15248876D01*
X16968128Y-15248876D01*
X16987176Y-15239352D01*
X16996700Y-15220305D01*
X16996700Y-15210781D01*
X16987176Y-15191733D01*
X16968128Y-15182209D01*
X16939557Y-15182209D01*
X16920509Y-15172686D01*
X16910986Y-15153638D01*
X16910986Y-15144114D01*
X16920509Y-15125067D01*
X16939557Y-15115543D01*
X16968128Y-15115543D01*
X16987176Y-15125067D01*
X17063367Y-15325067D02*
X17072890Y-15315543D01*
X17091938Y-15286971D01*
X17101462Y-15267924D01*
X17110986Y-15239352D01*
X17120509Y-15191733D01*
X17120509Y-15153638D01*
X17110986Y-15106019D01*
X17101462Y-15077448D01*
X17091938Y-15058400D01*
X17072890Y-15029828D01*
X17063367Y-15020305D01*
D14*
X12251462Y-15382400D02*
X12251462Y-15462400D01*
X12211462Y-15422400D02*
X12291462Y-15422400D01*
D11*
X12587176Y-15312876D02*
X12606224Y-15312876D01*
X12625271Y-15322400D01*
X12634795Y-15331924D01*
X12644319Y-15350971D01*
X12653843Y-15389067D01*
X12653843Y-15436686D01*
X12644319Y-15474781D01*
X12634795Y-15493828D01*
X12625271Y-15503352D01*
X12606224Y-15512876D01*
X12587176Y-15512876D01*
X12568128Y-15503352D01*
X12558605Y-15493828D01*
X12549081Y-15474781D01*
X12539557Y-15436686D01*
X12539557Y-15389067D01*
X12549081Y-15350971D01*
X12558605Y-15331924D01*
X12568128Y-15322400D01*
X12587176Y-15312876D01*
X12739557Y-15493828D02*
X12749081Y-15503352D01*
X12739557Y-15512876D01*
X12730033Y-15503352D01*
X12739557Y-15493828D01*
X12739557Y-15512876D01*
X12863366Y-15398590D02*
X12844319Y-15389067D01*
X12834795Y-15379543D01*
X12825271Y-15360495D01*
X12825271Y-15350971D01*
X12834795Y-15331924D01*
X12844319Y-15322400D01*
X12863366Y-15312876D01*
X12901462Y-15312876D01*
X12920509Y-15322400D01*
X12930033Y-15331924D01*
X12939557Y-15350971D01*
X12939557Y-15360495D01*
X12930033Y-15379543D01*
X12920509Y-15389067D01*
X12901462Y-15398590D01*
X12863366Y-15398590D01*
X12844319Y-15408114D01*
X12834795Y-15417638D01*
X12825271Y-15436686D01*
X12825271Y-15474781D01*
X12834795Y-15493828D01*
X12844319Y-15503352D01*
X12863366Y-15512876D01*
X12901462Y-15512876D01*
X12920509Y-15503352D01*
X12930033Y-15493828D01*
X12939557Y-15474781D01*
X12939557Y-15436686D01*
X12930033Y-15417638D01*
X12920509Y-15408114D01*
X12901462Y-15398590D01*
X13063366Y-15312876D02*
X13082414Y-15312876D01*
X13101462Y-15322400D01*
X13110986Y-15331924D01*
X13120509Y-15350971D01*
X13130033Y-15389067D01*
X13130033Y-15436686D01*
X13120509Y-15474781D01*
X13110986Y-15493828D01*
X13101462Y-15503352D01*
X13082414Y-15512876D01*
X13063366Y-15512876D01*
X13044319Y-15503352D01*
X13034795Y-15493828D01*
X13025271Y-15474781D01*
X13015747Y-15436686D01*
X13015747Y-15389067D01*
X13025271Y-15350971D01*
X13034795Y-15331924D01*
X13044319Y-15322400D01*
X13063366Y-15312876D01*
X13253843Y-15312876D02*
X13272890Y-15312876D01*
X13291938Y-15322400D01*
X13301462Y-15331924D01*
X13310986Y-15350971D01*
X13320509Y-15389067D01*
X13320509Y-15436686D01*
X13310986Y-15474781D01*
X13301462Y-15493828D01*
X13291938Y-15503352D01*
X13272890Y-15512876D01*
X13253843Y-15512876D01*
X13234795Y-15503352D01*
X13225271Y-15493828D01*
X13215747Y-15474781D01*
X13206224Y-15436686D01*
X13206224Y-15389067D01*
X13215747Y-15350971D01*
X13225271Y-15331924D01*
X13234795Y-15322400D01*
X13253843Y-15312876D01*
X13406224Y-15512876D02*
X13406224Y-15379543D01*
X13406224Y-15398590D02*
X13415747Y-15389067D01*
X13434795Y-15379543D01*
X13463366Y-15379543D01*
X13482414Y-15389067D01*
X13491938Y-15408114D01*
X13491938Y-15512876D01*
X13491938Y-15408114D02*
X13501462Y-15389067D01*
X13520509Y-15379543D01*
X13549081Y-15379543D01*
X13568128Y-15389067D01*
X13577652Y-15408114D01*
X13577652Y-15512876D01*
X13672890Y-15512876D02*
X13672890Y-15379543D01*
X13672890Y-15398590D02*
X13682414Y-15389067D01*
X13701462Y-15379543D01*
X13730033Y-15379543D01*
X13749081Y-15389067D01*
X13758605Y-15408114D01*
X13758605Y-15512876D01*
X13758605Y-15408114D02*
X13768128Y-15389067D01*
X13787176Y-15379543D01*
X13815747Y-15379543D01*
X13834795Y-15389067D01*
X13844319Y-15408114D01*
X13844319Y-15512876D01*
X14234795Y-15303352D02*
X14063366Y-15560495D01*
X14491938Y-15312876D02*
X14510986Y-15312876D01*
X14530033Y-15322400D01*
X14539557Y-15331924D01*
X14549081Y-15350971D01*
X14558605Y-15389067D01*
X14558605Y-15436686D01*
X14549081Y-15474781D01*
X14539557Y-15493828D01*
X14530033Y-15503352D01*
X14510986Y-15512876D01*
X14491938Y-15512876D01*
X14472890Y-15503352D01*
X14463366Y-15493828D01*
X14453843Y-15474781D01*
X14444319Y-15436686D01*
X14444319Y-15389067D01*
X14453843Y-15350971D01*
X14463366Y-15331924D01*
X14472890Y-15322400D01*
X14491938Y-15312876D01*
X14644319Y-15493828D02*
X14653843Y-15503352D01*
X14644319Y-15512876D01*
X14634795Y-15503352D01*
X14644319Y-15493828D01*
X14644319Y-15512876D01*
X14777652Y-15312876D02*
X14796700Y-15312876D01*
X14815747Y-15322400D01*
X14825271Y-15331924D01*
X14834795Y-15350971D01*
X14844319Y-15389067D01*
X14844319Y-15436686D01*
X14834795Y-15474781D01*
X14825271Y-15493828D01*
X14815747Y-15503352D01*
X14796700Y-15512876D01*
X14777652Y-15512876D01*
X14758605Y-15503352D01*
X14749081Y-15493828D01*
X14739557Y-15474781D01*
X14730033Y-15436686D01*
X14730033Y-15389067D01*
X14739557Y-15350971D01*
X14749081Y-15331924D01*
X14758605Y-15322400D01*
X14777652Y-15312876D01*
X14910986Y-15312876D02*
X15034795Y-15312876D01*
X14968128Y-15389067D01*
X14996700Y-15389067D01*
X15015747Y-15398590D01*
X15025271Y-15408114D01*
X15034795Y-15427162D01*
X15034795Y-15474781D01*
X15025271Y-15493828D01*
X15015747Y-15503352D01*
X14996700Y-15512876D01*
X14939557Y-15512876D01*
X14920509Y-15503352D01*
X14910986Y-15493828D01*
X15225271Y-15512876D02*
X15110986Y-15512876D01*
X15168128Y-15512876D02*
X15168128Y-15312876D01*
X15149081Y-15341448D01*
X15130033Y-15360495D01*
X15110986Y-15370019D01*
X15406224Y-15312876D02*
X15310986Y-15312876D01*
X15301462Y-15408114D01*
X15310986Y-15398590D01*
X15330033Y-15389067D01*
X15377652Y-15389067D01*
X15396700Y-15398590D01*
X15406224Y-15408114D01*
X15415747Y-15427162D01*
X15415747Y-15474781D01*
X15406224Y-15493828D01*
X15396700Y-15503352D01*
X15377652Y-15512876D01*
X15330033Y-15512876D01*
X15310986Y-15503352D01*
X15301462Y-15493828D01*
X15491938Y-15312876D02*
X15491938Y-15350971D01*
X15568128Y-15312876D02*
X15568128Y-15350971D01*
X15863366Y-15589067D02*
X15853843Y-15579543D01*
X15834795Y-15550971D01*
X15825271Y-15531924D01*
X15815747Y-15503352D01*
X15806224Y-15455733D01*
X15806224Y-15417638D01*
X15815747Y-15370019D01*
X15825271Y-15341448D01*
X15834795Y-15322400D01*
X15853843Y-15293828D01*
X15863366Y-15284305D01*
X15920509Y-15312876D02*
X16044319Y-15312876D01*
X15977652Y-15389067D01*
X16006224Y-15389067D01*
X16025271Y-15398590D01*
X16034795Y-15408114D01*
X16044319Y-15427162D01*
X16044319Y-15474781D01*
X16034795Y-15493828D01*
X16025271Y-15503352D01*
X16006224Y-15512876D01*
X15949081Y-15512876D01*
X15930033Y-15503352D01*
X15920509Y-15493828D01*
X16168128Y-15312876D02*
X16187176Y-15312876D01*
X16206224Y-15322400D01*
X16215747Y-15331924D01*
X16225271Y-15350971D01*
X16234795Y-15389067D01*
X16234795Y-15436686D01*
X16225271Y-15474781D01*
X16215747Y-15493828D01*
X16206224Y-15503352D01*
X16187176Y-15512876D01*
X16168128Y-15512876D01*
X16149081Y-15503352D01*
X16139557Y-15493828D01*
X16130033Y-15474781D01*
X16120509Y-15436686D01*
X16120509Y-15389067D01*
X16130033Y-15350971D01*
X16139557Y-15331924D01*
X16149081Y-15322400D01*
X16168128Y-15312876D01*
X16472890Y-15512876D02*
X16472890Y-15312876D01*
X16558605Y-15512876D02*
X16558605Y-15408114D01*
X16549081Y-15389067D01*
X16530033Y-15379543D01*
X16501462Y-15379543D01*
X16482414Y-15389067D01*
X16472890Y-15398590D01*
X16682414Y-15512876D02*
X16663366Y-15503352D01*
X16653843Y-15493828D01*
X16644319Y-15474781D01*
X16644319Y-15417638D01*
X16653843Y-15398590D01*
X16663366Y-15389067D01*
X16682414Y-15379543D01*
X16710986Y-15379543D01*
X16730033Y-15389067D01*
X16739557Y-15398590D01*
X16749081Y-15417638D01*
X16749081Y-15474781D01*
X16739557Y-15493828D01*
X16730033Y-15503352D01*
X16710986Y-15512876D01*
X16682414Y-15512876D01*
X16863367Y-15512876D02*
X16844319Y-15503352D01*
X16834795Y-15484305D01*
X16834795Y-15312876D01*
X17015748Y-15503352D02*
X16996700Y-15512876D01*
X16958605Y-15512876D01*
X16939557Y-15503352D01*
X16930033Y-15484305D01*
X16930033Y-15408114D01*
X16939557Y-15389067D01*
X16958605Y-15379543D01*
X16996700Y-15379543D01*
X17015748Y-15389067D01*
X17025271Y-15408114D01*
X17025271Y-15427162D01*
X16930033Y-15446209D01*
X17101462Y-15503352D02*
X17120509Y-15512876D01*
X17158605Y-15512876D01*
X17177652Y-15503352D01*
X17187176Y-15484305D01*
X17187176Y-15474781D01*
X17177652Y-15455733D01*
X17158605Y-15446209D01*
X17130033Y-15446209D01*
X17110986Y-15436686D01*
X17101462Y-15417638D01*
X17101462Y-15408114D01*
X17110986Y-15389067D01*
X17130033Y-15379543D01*
X17158605Y-15379543D01*
X17177652Y-15389067D01*
X17253843Y-15589067D02*
X17263367Y-15579543D01*
X17282414Y-15550971D01*
X17291938Y-15531924D01*
X17301462Y-15503352D01*
X17310986Y-15455733D01*
X17310986Y-15417638D01*
X17301462Y-15370019D01*
X17291938Y-15341448D01*
X17282414Y-15322400D01*
X17263367Y-15293828D01*
X17253843Y-15284305D01*
D15*
X12278282Y-15718220D02*
X12278282Y-15654580D01*
X12214642Y-15654580D01*
X12214642Y-15718220D01*
X12278282Y-15718220D01*
D11*
X12587176Y-15576876D02*
X12606224Y-15576876D01*
X12625271Y-15586400D01*
X12634795Y-15595924D01*
X12644319Y-15614971D01*
X12653843Y-15653067D01*
X12653843Y-15700686D01*
X12644319Y-15738781D01*
X12634795Y-15757828D01*
X12625271Y-15767352D01*
X12606224Y-15776876D01*
X12587176Y-15776876D01*
X12568128Y-15767352D01*
X12558605Y-15757828D01*
X12549081Y-15738781D01*
X12539557Y-15700686D01*
X12539557Y-15653067D01*
X12549081Y-15614971D01*
X12558605Y-15595924D01*
X12568128Y-15586400D01*
X12587176Y-15576876D01*
X12739557Y-15757828D02*
X12749081Y-15767352D01*
X12739557Y-15776876D01*
X12730033Y-15767352D01*
X12739557Y-15757828D01*
X12739557Y-15776876D01*
X12844319Y-15776876D02*
X12882414Y-15776876D01*
X12901462Y-15767352D01*
X12910986Y-15757828D01*
X12930033Y-15729257D01*
X12939557Y-15691162D01*
X12939557Y-15614971D01*
X12930033Y-15595924D01*
X12920509Y-15586400D01*
X12901462Y-15576876D01*
X12863366Y-15576876D01*
X12844319Y-15586400D01*
X12834795Y-15595924D01*
X12825271Y-15614971D01*
X12825271Y-15662590D01*
X12834795Y-15681638D01*
X12844319Y-15691162D01*
X12863366Y-15700686D01*
X12901462Y-15700686D01*
X12920509Y-15691162D01*
X12930033Y-15681638D01*
X12939557Y-15662590D01*
X13063366Y-15576876D02*
X13082414Y-15576876D01*
X13101462Y-15586400D01*
X13110986Y-15595924D01*
X13120509Y-15614971D01*
X13130033Y-15653067D01*
X13130033Y-15700686D01*
X13120509Y-15738781D01*
X13110986Y-15757828D01*
X13101462Y-15767352D01*
X13082414Y-15776876D01*
X13063366Y-15776876D01*
X13044319Y-15767352D01*
X13034795Y-15757828D01*
X13025271Y-15738781D01*
X13015747Y-15700686D01*
X13015747Y-15653067D01*
X13025271Y-15614971D01*
X13034795Y-15595924D01*
X13044319Y-15586400D01*
X13063366Y-15576876D01*
X13253843Y-15576876D02*
X13272890Y-15576876D01*
X13291938Y-15586400D01*
X13301462Y-15595924D01*
X13310986Y-15614971D01*
X13320509Y-15653067D01*
X13320509Y-15700686D01*
X13310986Y-15738781D01*
X13301462Y-15757828D01*
X13291938Y-15767352D01*
X13272890Y-15776876D01*
X13253843Y-15776876D01*
X13234795Y-15767352D01*
X13225271Y-15757828D01*
X13215747Y-15738781D01*
X13206224Y-15700686D01*
X13206224Y-15653067D01*
X13215747Y-15614971D01*
X13225271Y-15595924D01*
X13234795Y-15586400D01*
X13253843Y-15576876D01*
X13406224Y-15776876D02*
X13406224Y-15643543D01*
X13406224Y-15662590D02*
X13415747Y-15653067D01*
X13434795Y-15643543D01*
X13463366Y-15643543D01*
X13482414Y-15653067D01*
X13491938Y-15672114D01*
X13491938Y-15776876D01*
X13491938Y-15672114D02*
X13501462Y-15653067D01*
X13520509Y-15643543D01*
X13549081Y-15643543D01*
X13568128Y-15653067D01*
X13577652Y-15672114D01*
X13577652Y-15776876D01*
X13672890Y-15776876D02*
X13672890Y-15643543D01*
X13672890Y-15662590D02*
X13682414Y-15653067D01*
X13701462Y-15643543D01*
X13730033Y-15643543D01*
X13749081Y-15653067D01*
X13758605Y-15672114D01*
X13758605Y-15776876D01*
X13758605Y-15672114D02*
X13768128Y-15653067D01*
X13787176Y-15643543D01*
X13815747Y-15643543D01*
X13834795Y-15653067D01*
X13844319Y-15672114D01*
X13844319Y-15776876D01*
X14234795Y-15567352D02*
X14063366Y-15824495D01*
X14491938Y-15576876D02*
X14510986Y-15576876D01*
X14530033Y-15586400D01*
X14539557Y-15595924D01*
X14549081Y-15614971D01*
X14558605Y-15653067D01*
X14558605Y-15700686D01*
X14549081Y-15738781D01*
X14539557Y-15757828D01*
X14530033Y-15767352D01*
X14510986Y-15776876D01*
X14491938Y-15776876D01*
X14472890Y-15767352D01*
X14463366Y-15757828D01*
X14453843Y-15738781D01*
X14444319Y-15700686D01*
X14444319Y-15653067D01*
X14453843Y-15614971D01*
X14463366Y-15595924D01*
X14472890Y-15586400D01*
X14491938Y-15576876D01*
X14644319Y-15757828D02*
X14653843Y-15767352D01*
X14644319Y-15776876D01*
X14634795Y-15767352D01*
X14644319Y-15757828D01*
X14644319Y-15776876D01*
X14777652Y-15576876D02*
X14796700Y-15576876D01*
X14815747Y-15586400D01*
X14825271Y-15595924D01*
X14834795Y-15614971D01*
X14844319Y-15653067D01*
X14844319Y-15700686D01*
X14834795Y-15738781D01*
X14825271Y-15757828D01*
X14815747Y-15767352D01*
X14796700Y-15776876D01*
X14777652Y-15776876D01*
X14758605Y-15767352D01*
X14749081Y-15757828D01*
X14739557Y-15738781D01*
X14730033Y-15700686D01*
X14730033Y-15653067D01*
X14739557Y-15614971D01*
X14749081Y-15595924D01*
X14758605Y-15586400D01*
X14777652Y-15576876D01*
X14910986Y-15576876D02*
X15034795Y-15576876D01*
X14968128Y-15653067D01*
X14996700Y-15653067D01*
X15015747Y-15662590D01*
X15025271Y-15672114D01*
X15034795Y-15691162D01*
X15034795Y-15738781D01*
X15025271Y-15757828D01*
X15015747Y-15767352D01*
X14996700Y-15776876D01*
X14939557Y-15776876D01*
X14920509Y-15767352D01*
X14910986Y-15757828D01*
X15215747Y-15576876D02*
X15120509Y-15576876D01*
X15110986Y-15672114D01*
X15120509Y-15662590D01*
X15139557Y-15653067D01*
X15187176Y-15653067D01*
X15206224Y-15662590D01*
X15215747Y-15672114D01*
X15225271Y-15691162D01*
X15225271Y-15738781D01*
X15215747Y-15757828D01*
X15206224Y-15767352D01*
X15187176Y-15776876D01*
X15139557Y-15776876D01*
X15120509Y-15767352D01*
X15110986Y-15757828D01*
X15396700Y-15643543D02*
X15396700Y-15776876D01*
X15349081Y-15567352D02*
X15301462Y-15710209D01*
X15425271Y-15710209D01*
X15491938Y-15576876D02*
X15491938Y-15614971D01*
X15568128Y-15576876D02*
X15568128Y-15614971D01*
X15863366Y-15853067D02*
X15853843Y-15843543D01*
X15834795Y-15814971D01*
X15825271Y-15795924D01*
X15815747Y-15767352D01*
X15806224Y-15719733D01*
X15806224Y-15681638D01*
X15815747Y-15634019D01*
X15825271Y-15605448D01*
X15834795Y-15586400D01*
X15853843Y-15557828D01*
X15863366Y-15548305D01*
X15930033Y-15595924D02*
X15939557Y-15586400D01*
X15958605Y-15576876D01*
X16006224Y-15576876D01*
X16025271Y-15586400D01*
X16034795Y-15595924D01*
X16044319Y-15614971D01*
X16044319Y-15634019D01*
X16034795Y-15662590D01*
X15920509Y-15776876D01*
X16044319Y-15776876D01*
X16282414Y-15776876D02*
X16282414Y-15576876D01*
X16368128Y-15776876D02*
X16368128Y-15672114D01*
X16358605Y-15653067D01*
X16339557Y-15643543D01*
X16310986Y-15643543D01*
X16291938Y-15653067D01*
X16282414Y-15662590D01*
X16491938Y-15776876D02*
X16472890Y-15767352D01*
X16463366Y-15757828D01*
X16453843Y-15738781D01*
X16453843Y-15681638D01*
X16463366Y-15662590D01*
X16472890Y-15653067D01*
X16491938Y-15643543D01*
X16520509Y-15643543D01*
X16539557Y-15653067D01*
X16549081Y-15662590D01*
X16558605Y-15681638D01*
X16558605Y-15738781D01*
X16549081Y-15757828D01*
X16539557Y-15767352D01*
X16520509Y-15776876D01*
X16491938Y-15776876D01*
X16672890Y-15776876D02*
X16653843Y-15767352D01*
X16644319Y-15748305D01*
X16644319Y-15576876D01*
X16825271Y-15767352D02*
X16806224Y-15776876D01*
X16768128Y-15776876D01*
X16749081Y-15767352D01*
X16739557Y-15748305D01*
X16739557Y-15672114D01*
X16749081Y-15653067D01*
X16768128Y-15643543D01*
X16806224Y-15643543D01*
X16825271Y-15653067D01*
X16834795Y-15672114D01*
X16834795Y-15691162D01*
X16739557Y-15710209D01*
X16910986Y-15767352D02*
X16930033Y-15776876D01*
X16968128Y-15776876D01*
X16987176Y-15767352D01*
X16996700Y-15748305D01*
X16996700Y-15738781D01*
X16987176Y-15719733D01*
X16968128Y-15710209D01*
X16939557Y-15710209D01*
X16920509Y-15700686D01*
X16910986Y-15681638D01*
X16910986Y-15672114D01*
X16920509Y-15653067D01*
X16939557Y-15643543D01*
X16968128Y-15643543D01*
X16987176Y-15653067D01*
X17063367Y-15853067D02*
X17072890Y-15843543D01*
X17091938Y-15814971D01*
X17101462Y-15795924D01*
X17110986Y-15767352D01*
X17120509Y-15719733D01*
X17120509Y-15681638D01*
X17110986Y-15634019D01*
X17101462Y-15605448D01*
X17091938Y-15586400D01*
X17072890Y-15557828D01*
X17063367Y-15548305D01*
D16*
X12241462Y-16000400D02*
X12291462Y-15950400D01*
X12241462Y-15900400D01*
X12191462Y-15950400D01*
X12241462Y-16000400D01*
D11*
X12653843Y-16040876D02*
X12539557Y-16040876D01*
X12596700Y-16040876D02*
X12596700Y-15840876D01*
X12577652Y-15869448D01*
X12558605Y-15888495D01*
X12539557Y-15898019D01*
X12739557Y-16021828D02*
X12749081Y-16031352D01*
X12739557Y-16040876D01*
X12730033Y-16031352D01*
X12739557Y-16021828D01*
X12739557Y-16040876D01*
X12872890Y-15840876D02*
X12891938Y-15840876D01*
X12910986Y-15850400D01*
X12920509Y-15859924D01*
X12930033Y-15878971D01*
X12939557Y-15917067D01*
X12939557Y-15964686D01*
X12930033Y-16002781D01*
X12920509Y-16021828D01*
X12910986Y-16031352D01*
X12891938Y-16040876D01*
X12872890Y-16040876D01*
X12853843Y-16031352D01*
X12844319Y-16021828D01*
X12834795Y-16002781D01*
X12825271Y-15964686D01*
X12825271Y-15917067D01*
X12834795Y-15878971D01*
X12844319Y-15859924D01*
X12853843Y-15850400D01*
X12872890Y-15840876D01*
X13063366Y-15840876D02*
X13082414Y-15840876D01*
X13101462Y-15850400D01*
X13110986Y-15859924D01*
X13120509Y-15878971D01*
X13130033Y-15917067D01*
X13130033Y-15964686D01*
X13120509Y-16002781D01*
X13110986Y-16021828D01*
X13101462Y-16031352D01*
X13082414Y-16040876D01*
X13063366Y-16040876D01*
X13044319Y-16031352D01*
X13034795Y-16021828D01*
X13025271Y-16002781D01*
X13015747Y-15964686D01*
X13015747Y-15917067D01*
X13025271Y-15878971D01*
X13034795Y-15859924D01*
X13044319Y-15850400D01*
X13063366Y-15840876D01*
X13253843Y-15840876D02*
X13272890Y-15840876D01*
X13291938Y-15850400D01*
X13301462Y-15859924D01*
X13310986Y-15878971D01*
X13320509Y-15917067D01*
X13320509Y-15964686D01*
X13310986Y-16002781D01*
X13301462Y-16021828D01*
X13291938Y-16031352D01*
X13272890Y-16040876D01*
X13253843Y-16040876D01*
X13234795Y-16031352D01*
X13225271Y-16021828D01*
X13215747Y-16002781D01*
X13206224Y-15964686D01*
X13206224Y-15917067D01*
X13215747Y-15878971D01*
X13225271Y-15859924D01*
X13234795Y-15850400D01*
X13253843Y-15840876D01*
X13406224Y-16040876D02*
X13406224Y-15907543D01*
X13406224Y-15926590D02*
X13415747Y-15917067D01*
X13434795Y-15907543D01*
X13463366Y-15907543D01*
X13482414Y-15917067D01*
X13491938Y-15936114D01*
X13491938Y-16040876D01*
X13491938Y-15936114D02*
X13501462Y-15917067D01*
X13520509Y-15907543D01*
X13549081Y-15907543D01*
X13568128Y-15917067D01*
X13577652Y-15936114D01*
X13577652Y-16040876D01*
X13672890Y-16040876D02*
X13672890Y-15907543D01*
X13672890Y-15926590D02*
X13682414Y-15917067D01*
X13701462Y-15907543D01*
X13730033Y-15907543D01*
X13749081Y-15917067D01*
X13758605Y-15936114D01*
X13758605Y-16040876D01*
X13758605Y-15936114D02*
X13768128Y-15917067D01*
X13787176Y-15907543D01*
X13815747Y-15907543D01*
X13834795Y-15917067D01*
X13844319Y-15936114D01*
X13844319Y-16040876D01*
X14234795Y-15831352D02*
X14063366Y-16088495D01*
X14491938Y-15840876D02*
X14510986Y-15840876D01*
X14530033Y-15850400D01*
X14539557Y-15859924D01*
X14549081Y-15878971D01*
X14558605Y-15917067D01*
X14558605Y-15964686D01*
X14549081Y-16002781D01*
X14539557Y-16021828D01*
X14530033Y-16031352D01*
X14510986Y-16040876D01*
X14491938Y-16040876D01*
X14472890Y-16031352D01*
X14463366Y-16021828D01*
X14453843Y-16002781D01*
X14444319Y-15964686D01*
X14444319Y-15917067D01*
X14453843Y-15878971D01*
X14463366Y-15859924D01*
X14472890Y-15850400D01*
X14491938Y-15840876D01*
X14644319Y-16021828D02*
X14653843Y-16031352D01*
X14644319Y-16040876D01*
X14634795Y-16031352D01*
X14644319Y-16021828D01*
X14644319Y-16040876D01*
X14777652Y-15840876D02*
X14796700Y-15840876D01*
X14815747Y-15850400D01*
X14825271Y-15859924D01*
X14834795Y-15878971D01*
X14844319Y-15917067D01*
X14844319Y-15964686D01*
X14834795Y-16002781D01*
X14825271Y-16021828D01*
X14815747Y-16031352D01*
X14796700Y-16040876D01*
X14777652Y-16040876D01*
X14758605Y-16031352D01*
X14749081Y-16021828D01*
X14739557Y-16002781D01*
X14730033Y-15964686D01*
X14730033Y-15917067D01*
X14739557Y-15878971D01*
X14749081Y-15859924D01*
X14758605Y-15850400D01*
X14777652Y-15840876D01*
X14910986Y-15840876D02*
X15034795Y-15840876D01*
X14968128Y-15917067D01*
X14996700Y-15917067D01*
X15015747Y-15926590D01*
X15025271Y-15936114D01*
X15034795Y-15955162D01*
X15034795Y-16002781D01*
X15025271Y-16021828D01*
X15015747Y-16031352D01*
X14996700Y-16040876D01*
X14939557Y-16040876D01*
X14920509Y-16031352D01*
X14910986Y-16021828D01*
X15130033Y-16040876D02*
X15168128Y-16040876D01*
X15187176Y-16031352D01*
X15196700Y-16021828D01*
X15215747Y-15993257D01*
X15225271Y-15955162D01*
X15225271Y-15878971D01*
X15215747Y-15859924D01*
X15206224Y-15850400D01*
X15187176Y-15840876D01*
X15149081Y-15840876D01*
X15130033Y-15850400D01*
X15120509Y-15859924D01*
X15110986Y-15878971D01*
X15110986Y-15926590D01*
X15120509Y-15945638D01*
X15130033Y-15955162D01*
X15149081Y-15964686D01*
X15187176Y-15964686D01*
X15206224Y-15955162D01*
X15215747Y-15945638D01*
X15225271Y-15926590D01*
X15396700Y-15907543D02*
X15396700Y-16040876D01*
X15349081Y-15831352D02*
X15301462Y-15974209D01*
X15425271Y-15974209D01*
X15491938Y-15840876D02*
X15491938Y-15878971D01*
X15568128Y-15840876D02*
X15568128Y-15878971D01*
X15863366Y-16117067D02*
X15853843Y-16107543D01*
X15834795Y-16078971D01*
X15825271Y-16059924D01*
X15815747Y-16031352D01*
X15806224Y-15983733D01*
X15806224Y-15945638D01*
X15815747Y-15898019D01*
X15825271Y-15869448D01*
X15834795Y-15850400D01*
X15853843Y-15821828D01*
X15863366Y-15812305D01*
X15920509Y-15840876D02*
X16044319Y-15840876D01*
X15977652Y-15917067D01*
X16006224Y-15917067D01*
X16025271Y-15926590D01*
X16034795Y-15936114D01*
X16044319Y-15955162D01*
X16044319Y-16002781D01*
X16034795Y-16021828D01*
X16025271Y-16031352D01*
X16006224Y-16040876D01*
X15949081Y-16040876D01*
X15930033Y-16031352D01*
X15920509Y-16021828D01*
X16110986Y-15840876D02*
X16244319Y-15840876D01*
X16158605Y-16040876D01*
X16472890Y-16040876D02*
X16472890Y-15840876D01*
X16558605Y-16040876D02*
X16558605Y-15936114D01*
X16549081Y-15917067D01*
X16530033Y-15907543D01*
X16501462Y-15907543D01*
X16482414Y-15917067D01*
X16472890Y-15926590D01*
X16682414Y-16040876D02*
X16663366Y-16031352D01*
X16653843Y-16021828D01*
X16644319Y-16002781D01*
X16644319Y-15945638D01*
X16653843Y-15926590D01*
X16663366Y-15917067D01*
X16682414Y-15907543D01*
X16710986Y-15907543D01*
X16730033Y-15917067D01*
X16739557Y-15926590D01*
X16749081Y-15945638D01*
X16749081Y-16002781D01*
X16739557Y-16021828D01*
X16730033Y-16031352D01*
X16710986Y-16040876D01*
X16682414Y-16040876D01*
X16863367Y-16040876D02*
X16844319Y-16031352D01*
X16834795Y-16012305D01*
X16834795Y-15840876D01*
X17015748Y-16031352D02*
X16996700Y-16040876D01*
X16958605Y-16040876D01*
X16939557Y-16031352D01*
X16930033Y-16012305D01*
X16930033Y-15936114D01*
X16939557Y-15917067D01*
X16958605Y-15907543D01*
X16996700Y-15907543D01*
X17015748Y-15917067D01*
X17025271Y-15936114D01*
X17025271Y-15955162D01*
X16930033Y-15974209D01*
X17101462Y-16031352D02*
X17120509Y-16040876D01*
X17158605Y-16040876D01*
X17177652Y-16031352D01*
X17187176Y-16012305D01*
X17187176Y-16002781D01*
X17177652Y-15983733D01*
X17158605Y-15974209D01*
X17130033Y-15974209D01*
X17110986Y-15964686D01*
X17101462Y-15945638D01*
X17101462Y-15936114D01*
X17110986Y-15917067D01*
X17130033Y-15907543D01*
X17158605Y-15907543D01*
X17177652Y-15917067D01*
X17253843Y-16117067D02*
X17263367Y-16107543D01*
X17282414Y-16078971D01*
X17291938Y-16059924D01*
X17301462Y-16031352D01*
X17310986Y-15983733D01*
X17310986Y-15945638D01*
X17301462Y-15898019D01*
X17291938Y-15869448D01*
X17282414Y-15850400D01*
X17263367Y-15821828D01*
X17253843Y-15812305D01*
D17*
X12181462Y-16159400D02*
X12291462Y-16269400D01*
X12291462Y-16159400D02*
X12181462Y-16269400D01*
X12291462Y-16214400D02*
G75*
G03*
X12291462Y-16214400I-55000J0D01*
G01*
D11*
X12653843Y-16304876D02*
X12539557Y-16304876D01*
X12596700Y-16304876D02*
X12596700Y-16104876D01*
X12577652Y-16133448D01*
X12558605Y-16152495D01*
X12539557Y-16162019D01*
X12739557Y-16285828D02*
X12749081Y-16295352D01*
X12739557Y-16304876D01*
X12730033Y-16295352D01*
X12739557Y-16285828D01*
X12739557Y-16304876D01*
X12939557Y-16304876D02*
X12825271Y-16304876D01*
X12882414Y-16304876D02*
X12882414Y-16104876D01*
X12863366Y-16133448D01*
X12844319Y-16152495D01*
X12825271Y-16162019D01*
X13063366Y-16104876D02*
X13082414Y-16104876D01*
X13101462Y-16114400D01*
X13110986Y-16123924D01*
X13120509Y-16142971D01*
X13130033Y-16181067D01*
X13130033Y-16228686D01*
X13120509Y-16266781D01*
X13110986Y-16285828D01*
X13101462Y-16295352D01*
X13082414Y-16304876D01*
X13063366Y-16304876D01*
X13044319Y-16295352D01*
X13034795Y-16285828D01*
X13025271Y-16266781D01*
X13015747Y-16228686D01*
X13015747Y-16181067D01*
X13025271Y-16142971D01*
X13034795Y-16123924D01*
X13044319Y-16114400D01*
X13063366Y-16104876D01*
X13253843Y-16104876D02*
X13272890Y-16104876D01*
X13291938Y-16114400D01*
X13301462Y-16123924D01*
X13310986Y-16142971D01*
X13320509Y-16181067D01*
X13320509Y-16228686D01*
X13310986Y-16266781D01*
X13301462Y-16285828D01*
X13291938Y-16295352D01*
X13272890Y-16304876D01*
X13253843Y-16304876D01*
X13234795Y-16295352D01*
X13225271Y-16285828D01*
X13215747Y-16266781D01*
X13206224Y-16228686D01*
X13206224Y-16181067D01*
X13215747Y-16142971D01*
X13225271Y-16123924D01*
X13234795Y-16114400D01*
X13253843Y-16104876D01*
X13406224Y-16304876D02*
X13406224Y-16171543D01*
X13406224Y-16190590D02*
X13415747Y-16181067D01*
X13434795Y-16171543D01*
X13463366Y-16171543D01*
X13482414Y-16181067D01*
X13491938Y-16200114D01*
X13491938Y-16304876D01*
X13491938Y-16200114D02*
X13501462Y-16181067D01*
X13520509Y-16171543D01*
X13549081Y-16171543D01*
X13568128Y-16181067D01*
X13577652Y-16200114D01*
X13577652Y-16304876D01*
X13672890Y-16304876D02*
X13672890Y-16171543D01*
X13672890Y-16190590D02*
X13682414Y-16181067D01*
X13701462Y-16171543D01*
X13730033Y-16171543D01*
X13749081Y-16181067D01*
X13758605Y-16200114D01*
X13758605Y-16304876D01*
X13758605Y-16200114D02*
X13768128Y-16181067D01*
X13787176Y-16171543D01*
X13815747Y-16171543D01*
X13834795Y-16181067D01*
X13844319Y-16200114D01*
X13844319Y-16304876D01*
X14234795Y-16095352D02*
X14063366Y-16352495D01*
X14491938Y-16104876D02*
X14510986Y-16104876D01*
X14530033Y-16114400D01*
X14539557Y-16123924D01*
X14549081Y-16142971D01*
X14558605Y-16181067D01*
X14558605Y-16228686D01*
X14549081Y-16266781D01*
X14539557Y-16285828D01*
X14530033Y-16295352D01*
X14510986Y-16304876D01*
X14491938Y-16304876D01*
X14472890Y-16295352D01*
X14463366Y-16285828D01*
X14453843Y-16266781D01*
X14444319Y-16228686D01*
X14444319Y-16181067D01*
X14453843Y-16142971D01*
X14463366Y-16123924D01*
X14472890Y-16114400D01*
X14491938Y-16104876D01*
X14644319Y-16285828D02*
X14653843Y-16295352D01*
X14644319Y-16304876D01*
X14634795Y-16295352D01*
X14644319Y-16285828D01*
X14644319Y-16304876D01*
X14777652Y-16104876D02*
X14796700Y-16104876D01*
X14815747Y-16114400D01*
X14825271Y-16123924D01*
X14834795Y-16142971D01*
X14844319Y-16181067D01*
X14844319Y-16228686D01*
X14834795Y-16266781D01*
X14825271Y-16285828D01*
X14815747Y-16295352D01*
X14796700Y-16304876D01*
X14777652Y-16304876D01*
X14758605Y-16295352D01*
X14749081Y-16285828D01*
X14739557Y-16266781D01*
X14730033Y-16228686D01*
X14730033Y-16181067D01*
X14739557Y-16142971D01*
X14749081Y-16123924D01*
X14758605Y-16114400D01*
X14777652Y-16104876D01*
X15015747Y-16171543D02*
X15015747Y-16304876D01*
X14968128Y-16095352D02*
X14920509Y-16238209D01*
X15044319Y-16238209D01*
X15101462Y-16104876D02*
X15225271Y-16104876D01*
X15158605Y-16181067D01*
X15187176Y-16181067D01*
X15206224Y-16190590D01*
X15215747Y-16200114D01*
X15225271Y-16219162D01*
X15225271Y-16266781D01*
X15215747Y-16285828D01*
X15206224Y-16295352D01*
X15187176Y-16304876D01*
X15130033Y-16304876D01*
X15110986Y-16295352D01*
X15101462Y-16285828D01*
X15291938Y-16104876D02*
X15415747Y-16104876D01*
X15349081Y-16181067D01*
X15377652Y-16181067D01*
X15396700Y-16190590D01*
X15406224Y-16200114D01*
X15415747Y-16219162D01*
X15415747Y-16266781D01*
X15406224Y-16285828D01*
X15396700Y-16295352D01*
X15377652Y-16304876D01*
X15320509Y-16304876D01*
X15301462Y-16295352D01*
X15291938Y-16285828D01*
X15491938Y-16104876D02*
X15491938Y-16142971D01*
X15568128Y-16104876D02*
X15568128Y-16142971D01*
X15863366Y-16381067D02*
X15853843Y-16371543D01*
X15834795Y-16342971D01*
X15825271Y-16323924D01*
X15815747Y-16295352D01*
X15806224Y-16247733D01*
X15806224Y-16209638D01*
X15815747Y-16162019D01*
X15825271Y-16133448D01*
X15834795Y-16114400D01*
X15853843Y-16085828D01*
X15863366Y-16076305D01*
X15977652Y-16104876D02*
X15996700Y-16104876D01*
X16015747Y-16114400D01*
X16025271Y-16123924D01*
X16034795Y-16142971D01*
X16044319Y-16181067D01*
X16044319Y-16228686D01*
X16034795Y-16266781D01*
X16025271Y-16285828D01*
X16015747Y-16295352D01*
X15996700Y-16304876D01*
X15977652Y-16304876D01*
X15958605Y-16295352D01*
X15949081Y-16285828D01*
X15939557Y-16266781D01*
X15930033Y-16228686D01*
X15930033Y-16181067D01*
X15939557Y-16142971D01*
X15949081Y-16123924D01*
X15958605Y-16114400D01*
X15977652Y-16104876D01*
X16282414Y-16304876D02*
X16282414Y-16104876D01*
X16368128Y-16304876D02*
X16368128Y-16200114D01*
X16358605Y-16181067D01*
X16339557Y-16171543D01*
X16310986Y-16171543D01*
X16291938Y-16181067D01*
X16282414Y-16190590D01*
X16491938Y-16304876D02*
X16472890Y-16295352D01*
X16463366Y-16285828D01*
X16453843Y-16266781D01*
X16453843Y-16209638D01*
X16463366Y-16190590D01*
X16472890Y-16181067D01*
X16491938Y-16171543D01*
X16520509Y-16171543D01*
X16539557Y-16181067D01*
X16549081Y-16190590D01*
X16558605Y-16209638D01*
X16558605Y-16266781D01*
X16549081Y-16285828D01*
X16539557Y-16295352D01*
X16520509Y-16304876D01*
X16491938Y-16304876D01*
X16672890Y-16304876D02*
X16653843Y-16295352D01*
X16644319Y-16276305D01*
X16644319Y-16104876D01*
X16825271Y-16295352D02*
X16806224Y-16304876D01*
X16768128Y-16304876D01*
X16749081Y-16295352D01*
X16739557Y-16276305D01*
X16739557Y-16200114D01*
X16749081Y-16181067D01*
X16768128Y-16171543D01*
X16806224Y-16171543D01*
X16825271Y-16181067D01*
X16834795Y-16200114D01*
X16834795Y-16219162D01*
X16739557Y-16238209D01*
X16910986Y-16295352D02*
X16930033Y-16304876D01*
X16968128Y-16304876D01*
X16987176Y-16295352D01*
X16996700Y-16276305D01*
X16996700Y-16266781D01*
X16987176Y-16247733D01*
X16968128Y-16238209D01*
X16939557Y-16238209D01*
X16920509Y-16228686D01*
X16910986Y-16209638D01*
X16910986Y-16200114D01*
X16920509Y-16181067D01*
X16939557Y-16171543D01*
X16968128Y-16171543D01*
X16987176Y-16181067D01*
X17234795Y-16228686D02*
X17387176Y-16228686D01*
X17310986Y-16304876D02*
X17310986Y-16152495D01*
X17739557Y-16304876D02*
X17625271Y-16304876D01*
X17682414Y-16304876D02*
X17682414Y-16104876D01*
X17663367Y-16133448D01*
X17644319Y-16152495D01*
X17625271Y-16162019D01*
X17910986Y-16171543D02*
X17910986Y-16304876D01*
X17863367Y-16095352D02*
X17815748Y-16238209D01*
X17939557Y-16238209D01*
X18158605Y-16295352D02*
X18177652Y-16304876D01*
X18215748Y-16304876D01*
X18234795Y-16295352D01*
X18244319Y-16276305D01*
X18244319Y-16266781D01*
X18234795Y-16247733D01*
X18215748Y-16238209D01*
X18187176Y-16238209D01*
X18168128Y-16228686D01*
X18158605Y-16209638D01*
X18158605Y-16200114D01*
X18168128Y-16181067D01*
X18187176Y-16171543D01*
X18215748Y-16171543D01*
X18234795Y-16181067D01*
X18358605Y-16304876D02*
X18339557Y-16295352D01*
X18330033Y-16276305D01*
X18330033Y-16104876D01*
X18463367Y-16304876D02*
X18444319Y-16295352D01*
X18434795Y-16285828D01*
X18425271Y-16266781D01*
X18425271Y-16209638D01*
X18434795Y-16190590D01*
X18444319Y-16181067D01*
X18463367Y-16171543D01*
X18491938Y-16171543D01*
X18510986Y-16181067D01*
X18520509Y-16190590D01*
X18530033Y-16209638D01*
X18530033Y-16266781D01*
X18520509Y-16285828D01*
X18510986Y-16295352D01*
X18491938Y-16304876D01*
X18463367Y-16304876D01*
X18587176Y-16171543D02*
X18663367Y-16171543D01*
X18615748Y-16104876D02*
X18615748Y-16276305D01*
X18625271Y-16295352D01*
X18644319Y-16304876D01*
X18663367Y-16304876D01*
X18720509Y-16295352D02*
X18739557Y-16304876D01*
X18777652Y-16304876D01*
X18796700Y-16295352D01*
X18806224Y-16276305D01*
X18806224Y-16266781D01*
X18796700Y-16247733D01*
X18777652Y-16238209D01*
X18749081Y-16238209D01*
X18730033Y-16228686D01*
X18720509Y-16209638D01*
X18720509Y-16200114D01*
X18730033Y-16181067D01*
X18749081Y-16171543D01*
X18777652Y-16171543D01*
X18796700Y-16181067D01*
X18872890Y-16381067D02*
X18882414Y-16371543D01*
X18901462Y-16342971D01*
X18910986Y-16323924D01*
X18920509Y-16295352D01*
X18930033Y-16247733D01*
X18930033Y-16209638D01*
X18920509Y-16162019D01*
X18910986Y-16133448D01*
X18901462Y-16114400D01*
X18882414Y-16085828D01*
X18872890Y-16076305D01*
D18*
X12171462Y-16418400D02*
X12291462Y-16538400D01*
X12291462Y-16418400D02*
X12171462Y-16538400D01*
X12231462Y-16418400D02*
X12231462Y-16538400D01*
X12171462Y-16478400D02*
X12291462Y-16478400D01*
D11*
X12653843Y-16568876D02*
X12539557Y-16568876D01*
X12596700Y-16568876D02*
X12596700Y-16368876D01*
X12577652Y-16397448D01*
X12558605Y-16416495D01*
X12539557Y-16426019D01*
X12739557Y-16549828D02*
X12749081Y-16559352D01*
X12739557Y-16568876D01*
X12730033Y-16559352D01*
X12739557Y-16549828D01*
X12739557Y-16568876D01*
X12825271Y-16387924D02*
X12834795Y-16378400D01*
X12853843Y-16368876D01*
X12901462Y-16368876D01*
X12920509Y-16378400D01*
X12930033Y-16387924D01*
X12939557Y-16406971D01*
X12939557Y-16426019D01*
X12930033Y-16454590D01*
X12815747Y-16568876D01*
X12939557Y-16568876D01*
X13063366Y-16368876D02*
X13082414Y-16368876D01*
X13101462Y-16378400D01*
X13110986Y-16387924D01*
X13120509Y-16406971D01*
X13130033Y-16445067D01*
X13130033Y-16492686D01*
X13120509Y-16530781D01*
X13110986Y-16549828D01*
X13101462Y-16559352D01*
X13082414Y-16568876D01*
X13063366Y-16568876D01*
X13044319Y-16559352D01*
X13034795Y-16549828D01*
X13025271Y-16530781D01*
X13015747Y-16492686D01*
X13015747Y-16445067D01*
X13025271Y-16406971D01*
X13034795Y-16387924D01*
X13044319Y-16378400D01*
X13063366Y-16368876D01*
X13253843Y-16368876D02*
X13272890Y-16368876D01*
X13291938Y-16378400D01*
X13301462Y-16387924D01*
X13310986Y-16406971D01*
X13320509Y-16445067D01*
X13320509Y-16492686D01*
X13310986Y-16530781D01*
X13301462Y-16549828D01*
X13291938Y-16559352D01*
X13272890Y-16568876D01*
X13253843Y-16568876D01*
X13234795Y-16559352D01*
X13225271Y-16549828D01*
X13215747Y-16530781D01*
X13206224Y-16492686D01*
X13206224Y-16445067D01*
X13215747Y-16406971D01*
X13225271Y-16387924D01*
X13234795Y-16378400D01*
X13253843Y-16368876D01*
X13406224Y-16568876D02*
X13406224Y-16435543D01*
X13406224Y-16454590D02*
X13415747Y-16445067D01*
X13434795Y-16435543D01*
X13463366Y-16435543D01*
X13482414Y-16445067D01*
X13491938Y-16464114D01*
X13491938Y-16568876D01*
X13491938Y-16464114D02*
X13501462Y-16445067D01*
X13520509Y-16435543D01*
X13549081Y-16435543D01*
X13568128Y-16445067D01*
X13577652Y-16464114D01*
X13577652Y-16568876D01*
X13672890Y-16568876D02*
X13672890Y-16435543D01*
X13672890Y-16454590D02*
X13682414Y-16445067D01*
X13701462Y-16435543D01*
X13730033Y-16435543D01*
X13749081Y-16445067D01*
X13758605Y-16464114D01*
X13758605Y-16568876D01*
X13758605Y-16464114D02*
X13768128Y-16445067D01*
X13787176Y-16435543D01*
X13815747Y-16435543D01*
X13834795Y-16445067D01*
X13844319Y-16464114D01*
X13844319Y-16568876D01*
X14234795Y-16359352D02*
X14063366Y-16616495D01*
X14491938Y-16368876D02*
X14510986Y-16368876D01*
X14530033Y-16378400D01*
X14539557Y-16387924D01*
X14549081Y-16406971D01*
X14558605Y-16445067D01*
X14558605Y-16492686D01*
X14549081Y-16530781D01*
X14539557Y-16549828D01*
X14530033Y-16559352D01*
X14510986Y-16568876D01*
X14491938Y-16568876D01*
X14472890Y-16559352D01*
X14463366Y-16549828D01*
X14453843Y-16530781D01*
X14444319Y-16492686D01*
X14444319Y-16445067D01*
X14453843Y-16406971D01*
X14463366Y-16387924D01*
X14472890Y-16378400D01*
X14491938Y-16368876D01*
X14644319Y-16549828D02*
X14653843Y-16559352D01*
X14644319Y-16568876D01*
X14634795Y-16559352D01*
X14644319Y-16549828D01*
X14644319Y-16568876D01*
X14777652Y-16368876D02*
X14796700Y-16368876D01*
X14815747Y-16378400D01*
X14825271Y-16387924D01*
X14834795Y-16406971D01*
X14844319Y-16445067D01*
X14844319Y-16492686D01*
X14834795Y-16530781D01*
X14825271Y-16549828D01*
X14815747Y-16559352D01*
X14796700Y-16568876D01*
X14777652Y-16568876D01*
X14758605Y-16559352D01*
X14749081Y-16549828D01*
X14739557Y-16530781D01*
X14730033Y-16492686D01*
X14730033Y-16445067D01*
X14739557Y-16406971D01*
X14749081Y-16387924D01*
X14758605Y-16378400D01*
X14777652Y-16368876D01*
X15015747Y-16435543D02*
X15015747Y-16568876D01*
X14968128Y-16359352D02*
X14920509Y-16502209D01*
X15044319Y-16502209D01*
X15101462Y-16368876D02*
X15234795Y-16368876D01*
X15149081Y-16568876D01*
X15301462Y-16387924D02*
X15310986Y-16378400D01*
X15330033Y-16368876D01*
X15377652Y-16368876D01*
X15396700Y-16378400D01*
X15406224Y-16387924D01*
X15415747Y-16406971D01*
X15415747Y-16426019D01*
X15406224Y-16454590D01*
X15291938Y-16568876D01*
X15415747Y-16568876D01*
X15491938Y-16368876D02*
X15491938Y-16406971D01*
X15568128Y-16368876D02*
X15568128Y-16406971D01*
X15863366Y-16645067D02*
X15853843Y-16635543D01*
X15834795Y-16606971D01*
X15825271Y-16587924D01*
X15815747Y-16559352D01*
X15806224Y-16511733D01*
X15806224Y-16473638D01*
X15815747Y-16426019D01*
X15825271Y-16397448D01*
X15834795Y-16378400D01*
X15853843Y-16349828D01*
X15863366Y-16340305D01*
X16044319Y-16568876D02*
X15930033Y-16568876D01*
X15987176Y-16568876D02*
X15987176Y-16368876D01*
X15968128Y-16397448D01*
X15949081Y-16416495D01*
X15930033Y-16426019D01*
X16282414Y-16568876D02*
X16282414Y-16368876D01*
X16368128Y-16568876D02*
X16368128Y-16464114D01*
X16358605Y-16445067D01*
X16339557Y-16435543D01*
X16310986Y-16435543D01*
X16291938Y-16445067D01*
X16282414Y-16454590D01*
X16491938Y-16568876D02*
X16472890Y-16559352D01*
X16463366Y-16549828D01*
X16453843Y-16530781D01*
X16453843Y-16473638D01*
X16463366Y-16454590D01*
X16472890Y-16445067D01*
X16491938Y-16435543D01*
X16520509Y-16435543D01*
X16539557Y-16445067D01*
X16549081Y-16454590D01*
X16558605Y-16473638D01*
X16558605Y-16530781D01*
X16549081Y-16549828D01*
X16539557Y-16559352D01*
X16520509Y-16568876D01*
X16491938Y-16568876D01*
X16672890Y-16568876D02*
X16653843Y-16559352D01*
X16644319Y-16540305D01*
X16644319Y-16368876D01*
X16825271Y-16559352D02*
X16806224Y-16568876D01*
X16768128Y-16568876D01*
X16749081Y-16559352D01*
X16739557Y-16540305D01*
X16739557Y-16464114D01*
X16749081Y-16445067D01*
X16768128Y-16435543D01*
X16806224Y-16435543D01*
X16825271Y-16445067D01*
X16834795Y-16464114D01*
X16834795Y-16483162D01*
X16739557Y-16502209D01*
X16910986Y-16559352D02*
X16930033Y-16568876D01*
X16968128Y-16568876D01*
X16987176Y-16559352D01*
X16996700Y-16540305D01*
X16996700Y-16530781D01*
X16987176Y-16511733D01*
X16968128Y-16502209D01*
X16939557Y-16502209D01*
X16920509Y-16492686D01*
X16910986Y-16473638D01*
X16910986Y-16464114D01*
X16920509Y-16445067D01*
X16939557Y-16435543D01*
X16968128Y-16435543D01*
X16987176Y-16445067D01*
X17234795Y-16492686D02*
X17387176Y-16492686D01*
X17310986Y-16568876D02*
X17310986Y-16416495D01*
X17720509Y-16368876D02*
X17682414Y-16368876D01*
X17663367Y-16378400D01*
X17653843Y-16387924D01*
X17634795Y-16416495D01*
X17625271Y-16454590D01*
X17625271Y-16530781D01*
X17634795Y-16549828D01*
X17644319Y-16559352D01*
X17663367Y-16568876D01*
X17701462Y-16568876D01*
X17720509Y-16559352D01*
X17730033Y-16549828D01*
X17739557Y-16530781D01*
X17739557Y-16483162D01*
X17730033Y-16464114D01*
X17720509Y-16454590D01*
X17701462Y-16445067D01*
X17663367Y-16445067D01*
X17644319Y-16454590D01*
X17634795Y-16464114D01*
X17625271Y-16483162D01*
X17968128Y-16559352D02*
X17987176Y-16568876D01*
X18025271Y-16568876D01*
X18044319Y-16559352D01*
X18053843Y-16540305D01*
X18053843Y-16530781D01*
X18044319Y-16511733D01*
X18025271Y-16502209D01*
X17996700Y-16502209D01*
X17977652Y-16492686D01*
X17968128Y-16473638D01*
X17968128Y-16464114D01*
X17977652Y-16445067D01*
X17996700Y-16435543D01*
X18025271Y-16435543D01*
X18044319Y-16445067D01*
X18168128Y-16568876D02*
X18149081Y-16559352D01*
X18139557Y-16540305D01*
X18139557Y-16368876D01*
X18272890Y-16568876D02*
X18253843Y-16559352D01*
X18244319Y-16549828D01*
X18234795Y-16530781D01*
X18234795Y-16473638D01*
X18244319Y-16454590D01*
X18253843Y-16445067D01*
X18272890Y-16435543D01*
X18301462Y-16435543D01*
X18320509Y-16445067D01*
X18330033Y-16454590D01*
X18339557Y-16473638D01*
X18339557Y-16530781D01*
X18330033Y-16549828D01*
X18320509Y-16559352D01*
X18301462Y-16568876D01*
X18272890Y-16568876D01*
X18396700Y-16435543D02*
X18472890Y-16435543D01*
X18425271Y-16368876D02*
X18425271Y-16540305D01*
X18434795Y-16559352D01*
X18453843Y-16568876D01*
X18472890Y-16568876D01*
X18530033Y-16559352D02*
X18549081Y-16568876D01*
X18587176Y-16568876D01*
X18606224Y-16559352D01*
X18615748Y-16540305D01*
X18615748Y-16530781D01*
X18606224Y-16511733D01*
X18587176Y-16502209D01*
X18558605Y-16502209D01*
X18539557Y-16492686D01*
X18530033Y-16473638D01*
X18530033Y-16464114D01*
X18539557Y-16445067D01*
X18558605Y-16435543D01*
X18587176Y-16435543D01*
X18606224Y-16445067D01*
X18682414Y-16645067D02*
X18691938Y-16635543D01*
X18710986Y-16606971D01*
X18720509Y-16587924D01*
X18730033Y-16559352D01*
X18739557Y-16511733D01*
X18739557Y-16473638D01*
X18730033Y-16426019D01*
X18720509Y-16397448D01*
X18710986Y-16378400D01*
X18691938Y-16349828D01*
X18682414Y-16340305D01*
D19*
X12169462Y-16681400D02*
X12291462Y-16803400D01*
X12291462Y-16681400D02*
X12169462Y-16803400D01*
X12273596Y-16785534D02*
X12273596Y-16699266D01*
X12187328Y-16699266D01*
X12187328Y-16785534D01*
X12273596Y-16785534D01*
D11*
X12653843Y-16832876D02*
X12539557Y-16832876D01*
X12596700Y-16832876D02*
X12596700Y-16632876D01*
X12577652Y-16661448D01*
X12558605Y-16680495D01*
X12539557Y-16690019D01*
X12739557Y-16813829D02*
X12749081Y-16823352D01*
X12739557Y-16832876D01*
X12730033Y-16823352D01*
X12739557Y-16813829D01*
X12739557Y-16832876D01*
X12825271Y-16651924D02*
X12834795Y-16642400D01*
X12853843Y-16632876D01*
X12901462Y-16632876D01*
X12920509Y-16642400D01*
X12930033Y-16651924D01*
X12939557Y-16670971D01*
X12939557Y-16690019D01*
X12930033Y-16718590D01*
X12815747Y-16832876D01*
X12939557Y-16832876D01*
X13015747Y-16651924D02*
X13025271Y-16642400D01*
X13044319Y-16632876D01*
X13091938Y-16632876D01*
X13110986Y-16642400D01*
X13120509Y-16651924D01*
X13130033Y-16670971D01*
X13130033Y-16690019D01*
X13120509Y-16718590D01*
X13006224Y-16832876D01*
X13130033Y-16832876D01*
X13253843Y-16632876D02*
X13272890Y-16632876D01*
X13291938Y-16642400D01*
X13301462Y-16651924D01*
X13310986Y-16670971D01*
X13320509Y-16709067D01*
X13320509Y-16756686D01*
X13310986Y-16794781D01*
X13301462Y-16813829D01*
X13291938Y-16823352D01*
X13272890Y-16832876D01*
X13253843Y-16832876D01*
X13234795Y-16823352D01*
X13225271Y-16813829D01*
X13215747Y-16794781D01*
X13206224Y-16756686D01*
X13206224Y-16709067D01*
X13215747Y-16670971D01*
X13225271Y-16651924D01*
X13234795Y-16642400D01*
X13253843Y-16632876D01*
X13406224Y-16832876D02*
X13406224Y-16699543D01*
X13406224Y-16718590D02*
X13415747Y-16709067D01*
X13434795Y-16699543D01*
X13463366Y-16699543D01*
X13482414Y-16709067D01*
X13491938Y-16728114D01*
X13491938Y-16832876D01*
X13491938Y-16728114D02*
X13501462Y-16709067D01*
X13520509Y-16699543D01*
X13549081Y-16699543D01*
X13568128Y-16709067D01*
X13577652Y-16728114D01*
X13577652Y-16832876D01*
X13672890Y-16832876D02*
X13672890Y-16699543D01*
X13672890Y-16718590D02*
X13682414Y-16709067D01*
X13701462Y-16699543D01*
X13730033Y-16699543D01*
X13749081Y-16709067D01*
X13758605Y-16728114D01*
X13758605Y-16832876D01*
X13758605Y-16728114D02*
X13768128Y-16709067D01*
X13787176Y-16699543D01*
X13815747Y-16699543D01*
X13834795Y-16709067D01*
X13844319Y-16728114D01*
X13844319Y-16832876D01*
X14234795Y-16623352D02*
X14063366Y-16880495D01*
X14491938Y-16632876D02*
X14510986Y-16632876D01*
X14530033Y-16642400D01*
X14539557Y-16651924D01*
X14549081Y-16670971D01*
X14558605Y-16709067D01*
X14558605Y-16756686D01*
X14549081Y-16794781D01*
X14539557Y-16813829D01*
X14530033Y-16823352D01*
X14510986Y-16832876D01*
X14491938Y-16832876D01*
X14472890Y-16823352D01*
X14463366Y-16813829D01*
X14453843Y-16794781D01*
X14444319Y-16756686D01*
X14444319Y-16709067D01*
X14453843Y-16670971D01*
X14463366Y-16651924D01*
X14472890Y-16642400D01*
X14491938Y-16632876D01*
X14644319Y-16813829D02*
X14653843Y-16823352D01*
X14644319Y-16832876D01*
X14634795Y-16823352D01*
X14644319Y-16813829D01*
X14644319Y-16832876D01*
X14777652Y-16632876D02*
X14796700Y-16632876D01*
X14815747Y-16642400D01*
X14825271Y-16651924D01*
X14834795Y-16670971D01*
X14844319Y-16709067D01*
X14844319Y-16756686D01*
X14834795Y-16794781D01*
X14825271Y-16813829D01*
X14815747Y-16823352D01*
X14796700Y-16832876D01*
X14777652Y-16832876D01*
X14758605Y-16823352D01*
X14749081Y-16813829D01*
X14739557Y-16794781D01*
X14730033Y-16756686D01*
X14730033Y-16709067D01*
X14739557Y-16670971D01*
X14749081Y-16651924D01*
X14758605Y-16642400D01*
X14777652Y-16632876D01*
X15015747Y-16699543D02*
X15015747Y-16832876D01*
X14968128Y-16623352D02*
X14920509Y-16766209D01*
X15044319Y-16766209D01*
X15149081Y-16718590D02*
X15130033Y-16709067D01*
X15120509Y-16699543D01*
X15110986Y-16680495D01*
X15110986Y-16670971D01*
X15120509Y-16651924D01*
X15130033Y-16642400D01*
X15149081Y-16632876D01*
X15187176Y-16632876D01*
X15206224Y-16642400D01*
X15215747Y-16651924D01*
X15225271Y-16670971D01*
X15225271Y-16680495D01*
X15215747Y-16699543D01*
X15206224Y-16709067D01*
X15187176Y-16718590D01*
X15149081Y-16718590D01*
X15130033Y-16728114D01*
X15120509Y-16737638D01*
X15110986Y-16756686D01*
X15110986Y-16794781D01*
X15120509Y-16813829D01*
X15130033Y-16823352D01*
X15149081Y-16832876D01*
X15187176Y-16832876D01*
X15206224Y-16823352D01*
X15215747Y-16813829D01*
X15225271Y-16794781D01*
X15225271Y-16756686D01*
X15215747Y-16737638D01*
X15206224Y-16728114D01*
X15187176Y-16718590D01*
X15349081Y-16632876D02*
X15368128Y-16632876D01*
X15387176Y-16642400D01*
X15396700Y-16651924D01*
X15406224Y-16670971D01*
X15415747Y-16709067D01*
X15415747Y-16756686D01*
X15406224Y-16794781D01*
X15396700Y-16813829D01*
X15387176Y-16823352D01*
X15368128Y-16832876D01*
X15349081Y-16832876D01*
X15330033Y-16823352D01*
X15320509Y-16813829D01*
X15310986Y-16794781D01*
X15301462Y-16756686D01*
X15301462Y-16709067D01*
X15310986Y-16670971D01*
X15320509Y-16651924D01*
X15330033Y-16642400D01*
X15349081Y-16632876D01*
X15491938Y-16632876D02*
X15491938Y-16670971D01*
X15568128Y-16632876D02*
X15568128Y-16670971D01*
X15863366Y-16909067D02*
X15853843Y-16899543D01*
X15834795Y-16870971D01*
X15825271Y-16851924D01*
X15815747Y-16823352D01*
X15806224Y-16775733D01*
X15806224Y-16737638D01*
X15815747Y-16690019D01*
X15825271Y-16661448D01*
X15834795Y-16642400D01*
X15853843Y-16613828D01*
X15863366Y-16604305D01*
X16034795Y-16632876D02*
X15939557Y-16632876D01*
X15930033Y-16728114D01*
X15939557Y-16718590D01*
X15958605Y-16709067D01*
X16006224Y-16709067D01*
X16025271Y-16718590D01*
X16034795Y-16728114D01*
X16044319Y-16747162D01*
X16044319Y-16794781D01*
X16034795Y-16813829D01*
X16025271Y-16823352D01*
X16006224Y-16832876D01*
X15958605Y-16832876D01*
X15939557Y-16823352D01*
X15930033Y-16813829D01*
X16282414Y-16832876D02*
X16282414Y-16632876D01*
X16368128Y-16832876D02*
X16368128Y-16728114D01*
X16358605Y-16709067D01*
X16339557Y-16699543D01*
X16310986Y-16699543D01*
X16291938Y-16709067D01*
X16282414Y-16718590D01*
X16491938Y-16832876D02*
X16472890Y-16823352D01*
X16463366Y-16813829D01*
X16453843Y-16794781D01*
X16453843Y-16737638D01*
X16463366Y-16718590D01*
X16472890Y-16709067D01*
X16491938Y-16699543D01*
X16520509Y-16699543D01*
X16539557Y-16709067D01*
X16549081Y-16718590D01*
X16558605Y-16737638D01*
X16558605Y-16794781D01*
X16549081Y-16813829D01*
X16539557Y-16823352D01*
X16520509Y-16832876D01*
X16491938Y-16832876D01*
X16672890Y-16832876D02*
X16653843Y-16823352D01*
X16644319Y-16804305D01*
X16644319Y-16632876D01*
X16825271Y-16823352D02*
X16806224Y-16832876D01*
X16768128Y-16832876D01*
X16749081Y-16823352D01*
X16739557Y-16804305D01*
X16739557Y-16728114D01*
X16749081Y-16709067D01*
X16768128Y-16699543D01*
X16806224Y-16699543D01*
X16825271Y-16709067D01*
X16834795Y-16728114D01*
X16834795Y-16747162D01*
X16739557Y-16766209D01*
X16910986Y-16823352D02*
X16930033Y-16832876D01*
X16968128Y-16832876D01*
X16987176Y-16823352D01*
X16996700Y-16804305D01*
X16996700Y-16794781D01*
X16987176Y-16775733D01*
X16968128Y-16766209D01*
X16939557Y-16766209D01*
X16920509Y-16756686D01*
X16910986Y-16737638D01*
X16910986Y-16728114D01*
X16920509Y-16709067D01*
X16939557Y-16699543D01*
X16968128Y-16699543D01*
X16987176Y-16709067D01*
X17063367Y-16909067D02*
X17072890Y-16899543D01*
X17091938Y-16870971D01*
X17101462Y-16851924D01*
X17110986Y-16823352D01*
X17120509Y-16775733D01*
X17120509Y-16737638D01*
X17110986Y-16690019D01*
X17101462Y-16661448D01*
X17091938Y-16642400D01*
X17072890Y-16613828D01*
X17063367Y-16604305D01*
D20*
X12149462Y-16935400D02*
X12291462Y-17077400D01*
X12291462Y-16935400D02*
X12149462Y-17077400D01*
X12220462Y-17077400D02*
X12291462Y-17006400D01*
X12220462Y-16935400D01*
X12149462Y-17006400D01*
X12220462Y-17077400D01*
D11*
X12653843Y-17096876D02*
X12539557Y-17096876D01*
X12596700Y-17096876D02*
X12596700Y-16896876D01*
X12577652Y-16925448D01*
X12558605Y-16944495D01*
X12539557Y-16954019D01*
X12739557Y-17077829D02*
X12749081Y-17087352D01*
X12739557Y-17096876D01*
X12730033Y-17087352D01*
X12739557Y-17077829D01*
X12739557Y-17096876D01*
X12920509Y-16963543D02*
X12920509Y-17096876D01*
X12872890Y-16887352D02*
X12825271Y-17030210D01*
X12949081Y-17030210D01*
X13015747Y-16915924D02*
X13025271Y-16906400D01*
X13044319Y-16896876D01*
X13091938Y-16896876D01*
X13110986Y-16906400D01*
X13120509Y-16915924D01*
X13130033Y-16934971D01*
X13130033Y-16954019D01*
X13120509Y-16982590D01*
X13006224Y-17096876D01*
X13130033Y-17096876D01*
X13253843Y-16896876D02*
X13272890Y-16896876D01*
X13291938Y-16906400D01*
X13301462Y-16915924D01*
X13310986Y-16934971D01*
X13320509Y-16973067D01*
X13320509Y-17020686D01*
X13310986Y-17058781D01*
X13301462Y-17077829D01*
X13291938Y-17087352D01*
X13272890Y-17096876D01*
X13253843Y-17096876D01*
X13234795Y-17087352D01*
X13225271Y-17077829D01*
X13215747Y-17058781D01*
X13206224Y-17020686D01*
X13206224Y-16973067D01*
X13215747Y-16934971D01*
X13225271Y-16915924D01*
X13234795Y-16906400D01*
X13253843Y-16896876D01*
X13406224Y-17096876D02*
X13406224Y-16963543D01*
X13406224Y-16982590D02*
X13415747Y-16973067D01*
X13434795Y-16963543D01*
X13463366Y-16963543D01*
X13482414Y-16973067D01*
X13491938Y-16992114D01*
X13491938Y-17096876D01*
X13491938Y-16992114D02*
X13501462Y-16973067D01*
X13520509Y-16963543D01*
X13549081Y-16963543D01*
X13568128Y-16973067D01*
X13577652Y-16992114D01*
X13577652Y-17096876D01*
X13672890Y-17096876D02*
X13672890Y-16963543D01*
X13672890Y-16982590D02*
X13682414Y-16973067D01*
X13701462Y-16963543D01*
X13730033Y-16963543D01*
X13749081Y-16973067D01*
X13758605Y-16992114D01*
X13758605Y-17096876D01*
X13758605Y-16992114D02*
X13768128Y-16973067D01*
X13787176Y-16963543D01*
X13815747Y-16963543D01*
X13834795Y-16973067D01*
X13844319Y-16992114D01*
X13844319Y-17096876D01*
X14234795Y-16887352D02*
X14063366Y-17144495D01*
X14491938Y-16896876D02*
X14510986Y-16896876D01*
X14530033Y-16906400D01*
X14539557Y-16915924D01*
X14549081Y-16934971D01*
X14558605Y-16973067D01*
X14558605Y-17020686D01*
X14549081Y-17058781D01*
X14539557Y-17077829D01*
X14530033Y-17087352D01*
X14510986Y-17096876D01*
X14491938Y-17096876D01*
X14472890Y-17087352D01*
X14463366Y-17077829D01*
X14453843Y-17058781D01*
X14444319Y-17020686D01*
X14444319Y-16973067D01*
X14453843Y-16934971D01*
X14463366Y-16915924D01*
X14472890Y-16906400D01*
X14491938Y-16896876D01*
X14644319Y-17077829D02*
X14653843Y-17087352D01*
X14644319Y-17096876D01*
X14634795Y-17087352D01*
X14644319Y-17077829D01*
X14644319Y-17096876D01*
X14777652Y-16896876D02*
X14796700Y-16896876D01*
X14815747Y-16906400D01*
X14825271Y-16915924D01*
X14834795Y-16934971D01*
X14844319Y-16973067D01*
X14844319Y-17020686D01*
X14834795Y-17058781D01*
X14825271Y-17077829D01*
X14815747Y-17087352D01*
X14796700Y-17096876D01*
X14777652Y-17096876D01*
X14758605Y-17087352D01*
X14749081Y-17077829D01*
X14739557Y-17058781D01*
X14730033Y-17020686D01*
X14730033Y-16973067D01*
X14739557Y-16934971D01*
X14749081Y-16915924D01*
X14758605Y-16906400D01*
X14777652Y-16896876D01*
X15025271Y-16896876D02*
X14930033Y-16896876D01*
X14920509Y-16992114D01*
X14930033Y-16982590D01*
X14949081Y-16973067D01*
X14996700Y-16973067D01*
X15015747Y-16982590D01*
X15025271Y-16992114D01*
X15034795Y-17011162D01*
X15034795Y-17058781D01*
X15025271Y-17077829D01*
X15015747Y-17087352D01*
X14996700Y-17096876D01*
X14949081Y-17096876D01*
X14930033Y-17087352D01*
X14920509Y-17077829D01*
X15215747Y-16896876D02*
X15120509Y-16896876D01*
X15110986Y-16992114D01*
X15120509Y-16982590D01*
X15139557Y-16973067D01*
X15187176Y-16973067D01*
X15206224Y-16982590D01*
X15215747Y-16992114D01*
X15225271Y-17011162D01*
X15225271Y-17058781D01*
X15215747Y-17077829D01*
X15206224Y-17087352D01*
X15187176Y-17096876D01*
X15139557Y-17096876D01*
X15120509Y-17087352D01*
X15110986Y-17077829D01*
X15320509Y-17096876D02*
X15358605Y-17096876D01*
X15377652Y-17087352D01*
X15387176Y-17077829D01*
X15406224Y-17049257D01*
X15415747Y-17011162D01*
X15415747Y-16934971D01*
X15406224Y-16915924D01*
X15396700Y-16906400D01*
X15377652Y-16896876D01*
X15339557Y-16896876D01*
X15320509Y-16906400D01*
X15310986Y-16915924D01*
X15301462Y-16934971D01*
X15301462Y-16982590D01*
X15310986Y-17001638D01*
X15320509Y-17011162D01*
X15339557Y-17020686D01*
X15377652Y-17020686D01*
X15396700Y-17011162D01*
X15406224Y-17001638D01*
X15415747Y-16982590D01*
X15491938Y-16896876D02*
X15491938Y-16934971D01*
X15568128Y-16896876D02*
X15568128Y-16934971D01*
X15863366Y-17173067D02*
X15853843Y-17163543D01*
X15834795Y-17134971D01*
X15825271Y-17115924D01*
X15815747Y-17087352D01*
X15806224Y-17039733D01*
X15806224Y-17001638D01*
X15815747Y-16954019D01*
X15825271Y-16925448D01*
X15834795Y-16906400D01*
X15853843Y-16877829D01*
X15863366Y-16868305D01*
X16034795Y-16896876D02*
X15939557Y-16896876D01*
X15930033Y-16992114D01*
X15939557Y-16982590D01*
X15958605Y-16973067D01*
X16006224Y-16973067D01*
X16025271Y-16982590D01*
X16034795Y-16992114D01*
X16044319Y-17011162D01*
X16044319Y-17058781D01*
X16034795Y-17077829D01*
X16025271Y-17087352D01*
X16006224Y-17096876D01*
X15958605Y-17096876D01*
X15939557Y-17087352D01*
X15930033Y-17077829D01*
X16282414Y-17096876D02*
X16282414Y-16896876D01*
X16368128Y-17096876D02*
X16368128Y-16992114D01*
X16358605Y-16973067D01*
X16339557Y-16963543D01*
X16310986Y-16963543D01*
X16291938Y-16973067D01*
X16282414Y-16982590D01*
X16491938Y-17096876D02*
X16472890Y-17087352D01*
X16463366Y-17077829D01*
X16453843Y-17058781D01*
X16453843Y-17001638D01*
X16463366Y-16982590D01*
X16472890Y-16973067D01*
X16491938Y-16963543D01*
X16520509Y-16963543D01*
X16539557Y-16973067D01*
X16549081Y-16982590D01*
X16558605Y-17001638D01*
X16558605Y-17058781D01*
X16549081Y-17077829D01*
X16539557Y-17087352D01*
X16520509Y-17096876D01*
X16491938Y-17096876D01*
X16672890Y-17096876D02*
X16653843Y-17087352D01*
X16644319Y-17068305D01*
X16644319Y-16896876D01*
X16825271Y-17087352D02*
X16806224Y-17096876D01*
X16768128Y-17096876D01*
X16749081Y-17087352D01*
X16739557Y-17068305D01*
X16739557Y-16992114D01*
X16749081Y-16973067D01*
X16768128Y-16963543D01*
X16806224Y-16963543D01*
X16825271Y-16973067D01*
X16834795Y-16992114D01*
X16834795Y-17011162D01*
X16739557Y-17030210D01*
X16910986Y-17087352D02*
X16930033Y-17096876D01*
X16968128Y-17096876D01*
X16987176Y-17087352D01*
X16996700Y-17068305D01*
X16996700Y-17058781D01*
X16987176Y-17039733D01*
X16968128Y-17030210D01*
X16939557Y-17030210D01*
X16920509Y-17020686D01*
X16910986Y-17001638D01*
X16910986Y-16992114D01*
X16920509Y-16973067D01*
X16939557Y-16963543D01*
X16968128Y-16963543D01*
X16987176Y-16973067D01*
X17063367Y-17173067D02*
X17072890Y-17163543D01*
X17091938Y-17134971D01*
X17101462Y-17115924D01*
X17110986Y-17087352D01*
X17120509Y-17039733D01*
X17120509Y-17001638D01*
X17110986Y-16954019D01*
X17101462Y-16925448D01*
X17091938Y-16906400D01*
X17072890Y-16877829D01*
X17063367Y-16868305D01*
D21*
X12219962Y-17198900D02*
X12219962Y-17341900D01*
X12148462Y-17270400D02*
X12291462Y-17270400D01*
X12291462Y-17270400D02*
G75*
G03*
X12291462Y-17270400I-71500J0D01*
G01*
D11*
X12653843Y-17360876D02*
X12539557Y-17360876D01*
X12596700Y-17360876D02*
X12596700Y-17160876D01*
X12577652Y-17189448D01*
X12558605Y-17208495D01*
X12539557Y-17218019D01*
X12739557Y-17341829D02*
X12749081Y-17351352D01*
X12739557Y-17360876D01*
X12730033Y-17351352D01*
X12739557Y-17341829D01*
X12739557Y-17360876D01*
X12920509Y-17227543D02*
X12920509Y-17360876D01*
X12872890Y-17151352D02*
X12825271Y-17294210D01*
X12949081Y-17294210D01*
X13006224Y-17160876D02*
X13130033Y-17160876D01*
X13063366Y-17237067D01*
X13091938Y-17237067D01*
X13110986Y-17246590D01*
X13120509Y-17256114D01*
X13130033Y-17275162D01*
X13130033Y-17322781D01*
X13120509Y-17341829D01*
X13110986Y-17351352D01*
X13091938Y-17360876D01*
X13034795Y-17360876D01*
X13015747Y-17351352D01*
X13006224Y-17341829D01*
X13253843Y-17160876D02*
X13272890Y-17160876D01*
X13291938Y-17170400D01*
X13301462Y-17179924D01*
X13310986Y-17198971D01*
X13320509Y-17237067D01*
X13320509Y-17284686D01*
X13310986Y-17322781D01*
X13301462Y-17341829D01*
X13291938Y-17351352D01*
X13272890Y-17360876D01*
X13253843Y-17360876D01*
X13234795Y-17351352D01*
X13225271Y-17341829D01*
X13215747Y-17322781D01*
X13206224Y-17284686D01*
X13206224Y-17237067D01*
X13215747Y-17198971D01*
X13225271Y-17179924D01*
X13234795Y-17170400D01*
X13253843Y-17160876D01*
X13406224Y-17360876D02*
X13406224Y-17227543D01*
X13406224Y-17246590D02*
X13415747Y-17237067D01*
X13434795Y-17227543D01*
X13463366Y-17227543D01*
X13482414Y-17237067D01*
X13491938Y-17256114D01*
X13491938Y-17360876D01*
X13491938Y-17256114D02*
X13501462Y-17237067D01*
X13520509Y-17227543D01*
X13549081Y-17227543D01*
X13568128Y-17237067D01*
X13577652Y-17256114D01*
X13577652Y-17360876D01*
X13672890Y-17360876D02*
X13672890Y-17227543D01*
X13672890Y-17246590D02*
X13682414Y-17237067D01*
X13701462Y-17227543D01*
X13730033Y-17227543D01*
X13749081Y-17237067D01*
X13758605Y-17256114D01*
X13758605Y-17360876D01*
X13758605Y-17256114D02*
X13768128Y-17237067D01*
X13787176Y-17227543D01*
X13815747Y-17227543D01*
X13834795Y-17237067D01*
X13844319Y-17256114D01*
X13844319Y-17360876D01*
X14234795Y-17151352D02*
X14063366Y-17408495D01*
X14491938Y-17160876D02*
X14510986Y-17160876D01*
X14530033Y-17170400D01*
X14539557Y-17179924D01*
X14549081Y-17198971D01*
X14558605Y-17237067D01*
X14558605Y-17284686D01*
X14549081Y-17322781D01*
X14539557Y-17341829D01*
X14530033Y-17351352D01*
X14510986Y-17360876D01*
X14491938Y-17360876D01*
X14472890Y-17351352D01*
X14463366Y-17341829D01*
X14453843Y-17322781D01*
X14444319Y-17284686D01*
X14444319Y-17237067D01*
X14453843Y-17198971D01*
X14463366Y-17179924D01*
X14472890Y-17170400D01*
X14491938Y-17160876D01*
X14644319Y-17341829D02*
X14653843Y-17351352D01*
X14644319Y-17360876D01*
X14634795Y-17351352D01*
X14644319Y-17341829D01*
X14644319Y-17360876D01*
X14777652Y-17160876D02*
X14796700Y-17160876D01*
X14815747Y-17170400D01*
X14825271Y-17179924D01*
X14834795Y-17198971D01*
X14844319Y-17237067D01*
X14844319Y-17284686D01*
X14834795Y-17322781D01*
X14825271Y-17341829D01*
X14815747Y-17351352D01*
X14796700Y-17360876D01*
X14777652Y-17360876D01*
X14758605Y-17351352D01*
X14749081Y-17341829D01*
X14739557Y-17322781D01*
X14730033Y-17284686D01*
X14730033Y-17237067D01*
X14739557Y-17198971D01*
X14749081Y-17179924D01*
X14758605Y-17170400D01*
X14777652Y-17160876D01*
X15025271Y-17160876D02*
X14930033Y-17160876D01*
X14920509Y-17256114D01*
X14930033Y-17246590D01*
X14949081Y-17237067D01*
X14996700Y-17237067D01*
X15015747Y-17246590D01*
X15025271Y-17256114D01*
X15034795Y-17275162D01*
X15034795Y-17322781D01*
X15025271Y-17341829D01*
X15015747Y-17351352D01*
X14996700Y-17360876D01*
X14949081Y-17360876D01*
X14930033Y-17351352D01*
X14920509Y-17341829D01*
X15206224Y-17160876D02*
X15168128Y-17160876D01*
X15149081Y-17170400D01*
X15139557Y-17179924D01*
X15120509Y-17208495D01*
X15110986Y-17246590D01*
X15110986Y-17322781D01*
X15120509Y-17341829D01*
X15130033Y-17351352D01*
X15149081Y-17360876D01*
X15187176Y-17360876D01*
X15206224Y-17351352D01*
X15215747Y-17341829D01*
X15225271Y-17322781D01*
X15225271Y-17275162D01*
X15215747Y-17256114D01*
X15206224Y-17246590D01*
X15187176Y-17237067D01*
X15149081Y-17237067D01*
X15130033Y-17246590D01*
X15120509Y-17256114D01*
X15110986Y-17275162D01*
X15291938Y-17160876D02*
X15415747Y-17160876D01*
X15349081Y-17237067D01*
X15377652Y-17237067D01*
X15396700Y-17246590D01*
X15406224Y-17256114D01*
X15415747Y-17275162D01*
X15415747Y-17322781D01*
X15406224Y-17341829D01*
X15396700Y-17351352D01*
X15377652Y-17360876D01*
X15320509Y-17360876D01*
X15301462Y-17351352D01*
X15291938Y-17341829D01*
X15491938Y-17160876D02*
X15491938Y-17198971D01*
X15568128Y-17160876D02*
X15568128Y-17198971D01*
X15863366Y-17437067D02*
X15853843Y-17427543D01*
X15834795Y-17398971D01*
X15825271Y-17379924D01*
X15815747Y-17351352D01*
X15806224Y-17303733D01*
X15806224Y-17265638D01*
X15815747Y-17218019D01*
X15825271Y-17189448D01*
X15834795Y-17170400D01*
X15853843Y-17141829D01*
X15863366Y-17132305D01*
X16034795Y-17160876D02*
X15939557Y-17160876D01*
X15930033Y-17256114D01*
X15939557Y-17246590D01*
X15958605Y-17237067D01*
X16006224Y-17237067D01*
X16025271Y-17246590D01*
X16034795Y-17256114D01*
X16044319Y-17275162D01*
X16044319Y-17322781D01*
X16034795Y-17341829D01*
X16025271Y-17351352D01*
X16006224Y-17360876D01*
X15958605Y-17360876D01*
X15939557Y-17351352D01*
X15930033Y-17341829D01*
X16282414Y-17360876D02*
X16282414Y-17160876D01*
X16368128Y-17360876D02*
X16368128Y-17256114D01*
X16358605Y-17237067D01*
X16339557Y-17227543D01*
X16310986Y-17227543D01*
X16291938Y-17237067D01*
X16282414Y-17246590D01*
X16491938Y-17360876D02*
X16472890Y-17351352D01*
X16463366Y-17341829D01*
X16453843Y-17322781D01*
X16453843Y-17265638D01*
X16463366Y-17246590D01*
X16472890Y-17237067D01*
X16491938Y-17227543D01*
X16520509Y-17227543D01*
X16539557Y-17237067D01*
X16549081Y-17246590D01*
X16558605Y-17265638D01*
X16558605Y-17322781D01*
X16549081Y-17341829D01*
X16539557Y-17351352D01*
X16520509Y-17360876D01*
X16491938Y-17360876D01*
X16672890Y-17360876D02*
X16653843Y-17351352D01*
X16644319Y-17332305D01*
X16644319Y-17160876D01*
X16825271Y-17351352D02*
X16806224Y-17360876D01*
X16768128Y-17360876D01*
X16749081Y-17351352D01*
X16739557Y-17332305D01*
X16739557Y-17256114D01*
X16749081Y-17237067D01*
X16768128Y-17227543D01*
X16806224Y-17227543D01*
X16825271Y-17237067D01*
X16834795Y-17256114D01*
X16834795Y-17275162D01*
X16739557Y-17294210D01*
X16910986Y-17351352D02*
X16930033Y-17360876D01*
X16968128Y-17360876D01*
X16987176Y-17351352D01*
X16996700Y-17332305D01*
X16996700Y-17322781D01*
X16987176Y-17303733D01*
X16968128Y-17294210D01*
X16939557Y-17294210D01*
X16920509Y-17284686D01*
X16910986Y-17265638D01*
X16910986Y-17256114D01*
X16920509Y-17237067D01*
X16939557Y-17227543D01*
X16968128Y-17227543D01*
X16987176Y-17237067D01*
X17063367Y-17437067D02*
X17072890Y-17427543D01*
X17091938Y-17398971D01*
X17101462Y-17379924D01*
X17110986Y-17351352D01*
X17120509Y-17303733D01*
X17120509Y-17265638D01*
X17110986Y-17218019D01*
X17101462Y-17189448D01*
X17091938Y-17170400D01*
X17072890Y-17141829D01*
X17063367Y-17132305D01*
D22*
X12268031Y-17590969D02*
X12268031Y-17477831D01*
X12154893Y-17477831D01*
X12154893Y-17590969D01*
X12268031Y-17590969D01*
X12291462Y-17534400D02*
G75*
G03*
X12291462Y-17534400I-80000J0D01*
G01*
D11*
X12653843Y-17624876D02*
X12539557Y-17624876D01*
X12596700Y-17624876D02*
X12596700Y-17424876D01*
X12577652Y-17453448D01*
X12558605Y-17472495D01*
X12539557Y-17482019D01*
X12739557Y-17605829D02*
X12749081Y-17615352D01*
X12739557Y-17624876D01*
X12730033Y-17615352D01*
X12739557Y-17605829D01*
X12739557Y-17624876D01*
X12920509Y-17424876D02*
X12882414Y-17424876D01*
X12863366Y-17434400D01*
X12853843Y-17443924D01*
X12834795Y-17472495D01*
X12825271Y-17510590D01*
X12825271Y-17586781D01*
X12834795Y-17605829D01*
X12844319Y-17615352D01*
X12863366Y-17624876D01*
X12901462Y-17624876D01*
X12920509Y-17615352D01*
X12930033Y-17605829D01*
X12939557Y-17586781D01*
X12939557Y-17539162D01*
X12930033Y-17520114D01*
X12920509Y-17510590D01*
X12901462Y-17501067D01*
X12863366Y-17501067D01*
X12844319Y-17510590D01*
X12834795Y-17520114D01*
X12825271Y-17539162D01*
X13063366Y-17424876D02*
X13082414Y-17424876D01*
X13101462Y-17434400D01*
X13110986Y-17443924D01*
X13120509Y-17462971D01*
X13130033Y-17501067D01*
X13130033Y-17548686D01*
X13120509Y-17586781D01*
X13110986Y-17605829D01*
X13101462Y-17615352D01*
X13082414Y-17624876D01*
X13063366Y-17624876D01*
X13044319Y-17615352D01*
X13034795Y-17605829D01*
X13025271Y-17586781D01*
X13015747Y-17548686D01*
X13015747Y-17501067D01*
X13025271Y-17462971D01*
X13034795Y-17443924D01*
X13044319Y-17434400D01*
X13063366Y-17424876D01*
X13253843Y-17424876D02*
X13272890Y-17424876D01*
X13291938Y-17434400D01*
X13301462Y-17443924D01*
X13310986Y-17462971D01*
X13320509Y-17501067D01*
X13320509Y-17548686D01*
X13310986Y-17586781D01*
X13301462Y-17605829D01*
X13291938Y-17615352D01*
X13272890Y-17624876D01*
X13253843Y-17624876D01*
X13234795Y-17615352D01*
X13225271Y-17605829D01*
X13215747Y-17586781D01*
X13206224Y-17548686D01*
X13206224Y-17501067D01*
X13215747Y-17462971D01*
X13225271Y-17443924D01*
X13234795Y-17434400D01*
X13253843Y-17424876D01*
X13406224Y-17624876D02*
X13406224Y-17491543D01*
X13406224Y-17510590D02*
X13415747Y-17501067D01*
X13434795Y-17491543D01*
X13463366Y-17491543D01*
X13482414Y-17501067D01*
X13491938Y-17520114D01*
X13491938Y-17624876D01*
X13491938Y-17520114D02*
X13501462Y-17501067D01*
X13520509Y-17491543D01*
X13549081Y-17491543D01*
X13568128Y-17501067D01*
X13577652Y-17520114D01*
X13577652Y-17624876D01*
X13672890Y-17624876D02*
X13672890Y-17491543D01*
X13672890Y-17510590D02*
X13682414Y-17501067D01*
X13701462Y-17491543D01*
X13730033Y-17491543D01*
X13749081Y-17501067D01*
X13758605Y-17520114D01*
X13758605Y-17624876D01*
X13758605Y-17520114D02*
X13768128Y-17501067D01*
X13787176Y-17491543D01*
X13815747Y-17491543D01*
X13834795Y-17501067D01*
X13844319Y-17520114D01*
X13844319Y-17624876D01*
X14234795Y-17415352D02*
X14063366Y-17672495D01*
X14491938Y-17424876D02*
X14510986Y-17424876D01*
X14530033Y-17434400D01*
X14539557Y-17443924D01*
X14549081Y-17462971D01*
X14558605Y-17501067D01*
X14558605Y-17548686D01*
X14549081Y-17586781D01*
X14539557Y-17605829D01*
X14530033Y-17615352D01*
X14510986Y-17624876D01*
X14491938Y-17624876D01*
X14472890Y-17615352D01*
X14463366Y-17605829D01*
X14453843Y-17586781D01*
X14444319Y-17548686D01*
X14444319Y-17501067D01*
X14453843Y-17462971D01*
X14463366Y-17443924D01*
X14472890Y-17434400D01*
X14491938Y-17424876D01*
X14644319Y-17605829D02*
X14653843Y-17615352D01*
X14644319Y-17624876D01*
X14634795Y-17615352D01*
X14644319Y-17605829D01*
X14644319Y-17624876D01*
X14777652Y-17424876D02*
X14796700Y-17424876D01*
X14815747Y-17434400D01*
X14825271Y-17443924D01*
X14834795Y-17462971D01*
X14844319Y-17501067D01*
X14844319Y-17548686D01*
X14834795Y-17586781D01*
X14825271Y-17605829D01*
X14815747Y-17615352D01*
X14796700Y-17624876D01*
X14777652Y-17624876D01*
X14758605Y-17615352D01*
X14749081Y-17605829D01*
X14739557Y-17586781D01*
X14730033Y-17548686D01*
X14730033Y-17501067D01*
X14739557Y-17462971D01*
X14749081Y-17443924D01*
X14758605Y-17434400D01*
X14777652Y-17424876D01*
X15015747Y-17424876D02*
X14977652Y-17424876D01*
X14958605Y-17434400D01*
X14949081Y-17443924D01*
X14930033Y-17472495D01*
X14920509Y-17510590D01*
X14920509Y-17586781D01*
X14930033Y-17605829D01*
X14939557Y-17615352D01*
X14958605Y-17624876D01*
X14996700Y-17624876D01*
X15015747Y-17615352D01*
X15025271Y-17605829D01*
X15034795Y-17586781D01*
X15034795Y-17539162D01*
X15025271Y-17520114D01*
X15015747Y-17510590D01*
X14996700Y-17501067D01*
X14958605Y-17501067D01*
X14939557Y-17510590D01*
X14930033Y-17520114D01*
X14920509Y-17539162D01*
X15101462Y-17424876D02*
X15225271Y-17424876D01*
X15158605Y-17501067D01*
X15187176Y-17501067D01*
X15206224Y-17510590D01*
X15215747Y-17520114D01*
X15225271Y-17539162D01*
X15225271Y-17586781D01*
X15215747Y-17605829D01*
X15206224Y-17615352D01*
X15187176Y-17624876D01*
X15130033Y-17624876D01*
X15110986Y-17615352D01*
X15101462Y-17605829D01*
X15349081Y-17424876D02*
X15368128Y-17424876D01*
X15387176Y-17434400D01*
X15396700Y-17443924D01*
X15406224Y-17462971D01*
X15415747Y-17501067D01*
X15415747Y-17548686D01*
X15406224Y-17586781D01*
X15396700Y-17605829D01*
X15387176Y-17615352D01*
X15368128Y-17624876D01*
X15349081Y-17624876D01*
X15330033Y-17615352D01*
X15320509Y-17605829D01*
X15310986Y-17586781D01*
X15301462Y-17548686D01*
X15301462Y-17501067D01*
X15310986Y-17462971D01*
X15320509Y-17443924D01*
X15330033Y-17434400D01*
X15349081Y-17424876D01*
X15491938Y-17424876D02*
X15491938Y-17462971D01*
X15568128Y-17424876D02*
X15568128Y-17462971D01*
X15863366Y-17701067D02*
X15853843Y-17691543D01*
X15834795Y-17662971D01*
X15825271Y-17643924D01*
X15815747Y-17615352D01*
X15806224Y-17567733D01*
X15806224Y-17529638D01*
X15815747Y-17482019D01*
X15825271Y-17453448D01*
X15834795Y-17434400D01*
X15853843Y-17405829D01*
X15863366Y-17396305D01*
X16025271Y-17491543D02*
X16025271Y-17624876D01*
X15977652Y-17415352D02*
X15930033Y-17558210D01*
X16053843Y-17558210D01*
X16282414Y-17624876D02*
X16282414Y-17424876D01*
X16368128Y-17624876D02*
X16368128Y-17520114D01*
X16358605Y-17501067D01*
X16339557Y-17491543D01*
X16310986Y-17491543D01*
X16291938Y-17501067D01*
X16282414Y-17510590D01*
X16491938Y-17624876D02*
X16472890Y-17615352D01*
X16463366Y-17605829D01*
X16453843Y-17586781D01*
X16453843Y-17529638D01*
X16463366Y-17510590D01*
X16472890Y-17501067D01*
X16491938Y-17491543D01*
X16520509Y-17491543D01*
X16539557Y-17501067D01*
X16549081Y-17510590D01*
X16558605Y-17529638D01*
X16558605Y-17586781D01*
X16549081Y-17605829D01*
X16539557Y-17615352D01*
X16520509Y-17624876D01*
X16491938Y-17624876D01*
X16672890Y-17624876D02*
X16653843Y-17615352D01*
X16644319Y-17596305D01*
X16644319Y-17424876D01*
X16825271Y-17615352D02*
X16806224Y-17624876D01*
X16768128Y-17624876D01*
X16749081Y-17615352D01*
X16739557Y-17596305D01*
X16739557Y-17520114D01*
X16749081Y-17501067D01*
X16768128Y-17491543D01*
X16806224Y-17491543D01*
X16825271Y-17501067D01*
X16834795Y-17520114D01*
X16834795Y-17539162D01*
X16739557Y-17558210D01*
X16910986Y-17615352D02*
X16930033Y-17624876D01*
X16968128Y-17624876D01*
X16987176Y-17615352D01*
X16996700Y-17596305D01*
X16996700Y-17586781D01*
X16987176Y-17567733D01*
X16968128Y-17558210D01*
X16939557Y-17558210D01*
X16920509Y-17548686D01*
X16910986Y-17529638D01*
X16910986Y-17520114D01*
X16920509Y-17501067D01*
X16939557Y-17491543D01*
X16968128Y-17491543D01*
X16987176Y-17501067D01*
X17063367Y-17701067D02*
X17072890Y-17691543D01*
X17091938Y-17662971D01*
X17101462Y-17643924D01*
X17110986Y-17615352D01*
X17120509Y-17567733D01*
X17120509Y-17529638D01*
X17110986Y-17482019D01*
X17101462Y-17453448D01*
X17091938Y-17434400D01*
X17072890Y-17405829D01*
X17063367Y-17396305D01*
M02*
